<svg xmlns="http://www.w3.org/2000/svg" width="54.895" height="54.385" viewBox="0 0 54.895 54.385"><defs><style>.a{fill:#ff5f00;}</style></defs><g transform="translate(15.698 0)"><path class="a" d="M184.628.008H151.064a1.083,1.083,0,1,0,0,2.165h29.693a4.519,4.519,0,0,0-.676,2.382V18.737a1.083,1.083,0,1,0,2.165,0V15.382h5.846a1.083,1.083,0,0,0,1.083-1.083V4.555A4.553,4.553,0,0,0,184.628.008Zm2.382,13.209h-4.764V4.555a2.382,2.382,0,0,1,4.764,0v8.661Z" transform="translate(-149.981 -0.008)"/></g><g transform="translate(2.668 17.933)"><path class="a" d="M75.693,200.459l-7-7.072a12.432,12.432,0,1,0-22.775-1.015l-1.254,1.267-5.159-5.213a1.064,1.064,0,0,0-1.515,0l-1.206,1.219v-9.887a1.072,1.072,0,1,0-2.143,0v12.052L24.951,201.6a1.091,1.091,0,0,0,0,1.531,1.064,1.064,0,0,0,1.515,0l8.174-8.258v7.8H29.926a1.077,1.077,0,0,0-1.072,1.083v3.465a4.529,4.529,0,0,0,4.5,4.547H65.5a4.529,4.529,0,0,0,4.5-4.548v-.929a3.959,3.959,0,0,0,2.793,1.14h.02a4.02,4.02,0,0,0,2.855-1.2A4.116,4.116,0,0,0,75.693,200.459ZM57.525,177.483a10.394,10.394,0,1,1-9.037,15.356l6.193-6.257v2.456a1.072,1.072,0,1,0,2.143,0v-5.2a1.077,1.077,0,0,0-1.072-1.083H50.609a1.083,1.083,0,0,0,0,2.165H53.29l-5.677,5.736a10.467,10.467,0,0,1-.375-2.783A10.352,10.352,0,0,1,57.525,177.483ZM33.355,209.6A2.373,2.373,0,0,1,31,207.223v-2.382H61v1.3c0,.035,0,.07.005.1s-.005.069-.005.1v.873a4.553,4.553,0,0,0,.669,2.382H33.355Zm34.506-2.382a2.358,2.358,0,1,1-4.715,0v-.873c0-.035,0-.07-.005-.1s.005-.07.005-.1v-2.382a1.077,1.077,0,0,0-1.072-1.083H36.783v-9.968l1.964-1.984,5.159,5.213a1.064,1.064,0,0,0,1.515,0l1.5-1.514a12.408,12.408,0,0,0,10.6,6.014,12.251,12.251,0,0,0,5.43-1.263l4.906,4.957Zm6.3-2.523a1.9,1.9,0,0,1-1.35.568H72.8a1.844,1.844,0,0,1-1.322-.547l-6.631-6.7a12.6,12.6,0,0,0,2.7-2.727l6.628,6.7A1.932,1.932,0,0,1,74.158,204.7Z" transform="translate(-24.637 -175.318)"/></g><g transform="translate(34.408 29.77)"><path class="a" d="M329.471,281.315a1.083,1.083,0,0,0-1.083,1.083,5.779,5.779,0,0,1-5.772,5.772,1.083,1.083,0,1,0,0,2.165,7.947,7.947,0,0,0,7.938-7.938A1.083,1.083,0,0,0,329.471,281.315Z" transform="translate(-321.533 -281.315)"/></g><g transform="translate(0 5.846)"><path class="a" d="M27.73,66.782h-.988V59.528a1.083,1.083,0,0,0-1.083-1.083H20.687A1.083,1.083,0,0,0,19.6,59.528v7.254H17.864V55.089a1.083,1.083,0,0,0-1.083-1.083H12.018a1.083,1.083,0,0,0-1.083,1.083V66.782H9.2V62.018A1.083,1.083,0,0,0,8.12,60.935H3.356a1.083,1.083,0,0,0-1.083,1.083v4.764H1.083a1.083,1.083,0,0,0,0,2.165H27.73a1.083,1.083,0,1,0,0-2.165Zm-20.693,0h-2.6V63.1h2.6Zm8.661,0H13.1V56.171h2.6Zm8.878,0H21.77V60.61h2.807Z" transform="translate(0 -54.006)"/></g><g transform="translate(26.741 5.846)"><path class="a" d="M259.461,54.006h-8.387a1.083,1.083,0,0,0,0,2.165h8.387a1.083,1.083,0,0,0,0-2.165Z" transform="translate(-249.992 -54.006)"/></g><g transform="translate(40.395 5.846)"><path class="a" d="M378.765,54.322a1.082,1.082,0,1,0,.317.765A1.091,1.091,0,0,0,378.765,54.322Z" transform="translate(-376.917 -54.005)"/></g><g transform="translate(29.176 10.402)"><path class="a" d="M275.182,98h-1.775a1.083,1.083,0,0,0,0,2.165h1.775a1.083,1.083,0,0,0,0-2.165Z" transform="translate(-272.324 -98.005)"/></g><g transform="translate(35.054 10.402)"><path class="a" d="M333.889,98h-5.356a1.083,1.083,0,1,0,0,2.165h5.356a1.083,1.083,0,0,0,0-2.165Z" transform="translate(-327.451 -98.005)"/></g><g transform="translate(0.001 46.565)"><path class="a" d="M1.857,440.08a1.082,1.082,0,1,0,.317.765A1.091,1.091,0,0,0,1.857,440.08Z" transform="translate(-0.009 -439.763)"/></g></svg>