<svg xmlns="http://www.w3.org/2000/svg" width="44.706" height="44.293" viewBox="0 0 44.706 44.293"><defs><style>.a{fill:#ff5f00;}</style></defs><g transform="translate(32.802 5.379)"><path class="a" d="M382.291,61a5.291,5.291,0,1,0,5.291,5.291A5.3,5.3,0,0,0,382.291,61Zm0,7.936a2.645,2.645,0,1,1,2.645-2.645A2.648,2.648,0,0,1,382.291,68.936Z" transform="translate(-377 -61)"/></g><g transform="translate(0 33.623)"><path class="a" d="M11.9,391H1.323A1.323,1.323,0,0,0,0,392.323v8.024a1.323,1.323,0,0,0,1.323,1.323H11.9a1.323,1.323,0,0,0,1.323-1.323v-8.024A1.323,1.323,0,0,0,11.9,391Zm-1.323,8.024H2.645v-5.379h7.936Z" transform="translate(0 -391)"/></g><g transform="translate(15.652 23.042)"><path class="a" d="M192.08,271H181.323A1.323,1.323,0,0,0,180,272.323v18.605a1.323,1.323,0,0,0,1.323,1.323H192.08a1.323,1.323,0,0,0,1.323-1.323V272.323A1.323,1.323,0,0,0,192.08,271Zm-1.323,18.605h-8.112v-15.96h8.112Z" transform="translate(-180 -271)"/></g><g transform="translate(31.48 28.333)"><path class="a" d="M373.9,331H363.323A1.323,1.323,0,0,0,362,332.323v13.315a1.323,1.323,0,0,0,1.323,1.323H373.9a1.323,1.323,0,0,0,1.323-1.323V332.323A1.323,1.323,0,0,0,373.9,331Zm-1.323,13.315h-7.936V333.645h7.936Z" transform="translate(-362 -331)"/></g><g transform="translate(31.48 15.566)"><path class="a" d="M368.613,181A6.621,6.621,0,0,0,362,187.613v2.645a1.323,1.323,0,0,0,1.323,1.323H373.9a1.323,1.323,0,0,0,1.323-1.323v-2.645A6.621,6.621,0,0,0,368.613,181Zm3.968,7.936h-7.936v-1.323a3.968,3.968,0,1,1,7.936,0Z" transform="translate(-362 -181)"/></g><g transform="translate(16.974)"><path class="a" d="M200.379,0A5.451,5.451,0,0,0,195,5.379a5.38,5.38,0,0,0,10.758,0A5.451,5.451,0,0,0,200.379,0Zm0,8.024a2.726,2.726,0,0,1-2.733-2.645,2.733,2.733,0,0,1,5.467,0A2.726,2.726,0,0,1,200.379,8.024Z" transform="translate(-195)"/></g><g transform="translate(15.652 10.406)"><path class="a" d="M186.7,121a6.684,6.684,0,0,0-6.7,6.613v2.645a1.323,1.323,0,0,0,1.323,1.323H192.08a1.323,1.323,0,0,0,1.323-1.323v-2.645A6.684,6.684,0,0,0,186.7,121Zm4.056,7.936h-8.112v-1.323a4.057,4.057,0,0,1,8.112,0Z" transform="translate(-180 -121)"/></g><g transform="translate(1.323 10.406)"><path class="a" d="M20.291,121a5.291,5.291,0,1,0,5.291,5.291A5.3,5.3,0,0,0,20.291,121Zm0,7.936a2.645,2.645,0,1,1,2.645-2.645A2.648,2.648,0,0,1,20.291,128.936Z" transform="translate(-15 -121)"/></g><g transform="translate(0 20.726)"><path class="a" d="M6.613,241A6.621,6.621,0,0,0,0,247.613v2.645a1.323,1.323,0,0,0,1.323,1.323H11.9a1.323,1.323,0,0,0,1.323-1.323v-2.645A6.621,6.621,0,0,0,6.613,241Zm3.968,7.936H2.645v-1.323a3.968,3.968,0,1,1,7.936,0Z" transform="translate(0 -241)"/></g></svg>