<svg xmlns="http://www.w3.org/2000/svg" width="44.438" height="51.702" viewBox="0 0 44.438 51.702"><defs><style>.a{fill:#ff5f00;}</style></defs><path class="a" d="M44.387,14.027l0-.04c-.023-.5-.038-1.022-.047-1.607A5.5,5.5,0,0,0,39.13,7.012,21.561,21.561,0,0,1,24.523.912L24.489.88a3.363,3.363,0,0,0-4.539,0l-.034.032a21.563,21.563,0,0,1-14.607,6.1A5.5,5.5,0,0,0,.1,12.381c-.009.581-.024,1.106-.047,1.606l0,.093c-.117,6.062-.262,13.606,2.286,20.453a26.01,26.01,0,0,0,6.3,9.729,33.044,33.044,0,0,0,12.338,7.23,3.85,3.85,0,0,0,.506.136,3.768,3.768,0,0,0,1.468,0,3.862,3.862,0,0,0,.508-.137,33.065,33.065,0,0,0,12.324-7.234,26.047,26.047,0,0,0,6.3-9.732C44.647,27.658,44.5,20.1,44.387,14.027ZM39.218,33.476c-2.687,7.217-8.171,12.173-16.766,15.151a.776.776,0,0,1-.1.026.694.694,0,0,1-.269,0,.768.768,0,0,1-.1-.026C13.384,45.655,7.9,40.7,5.211,33.484,2.864,27.173,3,20.248,3.114,14.138V14.1c.024-.525.04-1.075.049-1.679A2.446,2.446,0,0,1,5.48,10.042,27.079,27.079,0,0,0,14.6,8.054,23.873,23.873,0,0,0,22.03,3.108a.284.284,0,0,1,.379,0,23.882,23.882,0,0,0,7.431,4.946,27.08,27.08,0,0,0,9.119,1.987,2.445,2.445,0,0,1,2.316,2.384c.009.607.025,1.157.049,1.679C41.442,20.221,41.572,27.151,39.218,33.476Zm0,0" transform="translate(0 0.001)"/><path class="a" d="M103.313,128.41a13.135,13.135,0,1,0,12.915,13.133A13.04,13.04,0,0,0,103.313,128.41Zm0,23.174a10.042,10.042,0,1,1,9.873-10.041A9.97,9.97,0,0,1,103.313,151.584Zm0,0" transform="translate(-81.094 -115.691)"/><path class="a" d="M164.068,212.444l-6.1,6.1-1.656-1.656a1.546,1.546,0,1,0-2.187,2.186l2.749,2.749a1.546,1.546,0,0,0,2.186,0l7.194-7.194a1.546,1.546,0,1,0-2.187-2.186Zm0,0" transform="translate(-138.073 -190.684)"/></svg>