<svg xmlns="http://www.w3.org/2000/svg" width="28.17" height="25.062" viewBox="0 0 28.17 25.062"><defs><style>.a{fill:#ff7e02;}</style></defs><path class="a" d="M25.936,2.453A7.575,7.575,0,0,0,20.3,0a7.087,7.087,0,0,0-4.426,1.528A9.056,9.056,0,0,0,14.086,3.4,9.051,9.051,0,0,0,12.3,1.528,7.086,7.086,0,0,0,7.87,0,7.575,7.575,0,0,0,2.235,2.453,8.805,8.805,0,0,0,0,8.466a10.485,10.485,0,0,0,2.794,6.863,59.578,59.578,0,0,0,6.994,6.565c.969.826,2.068,1.762,3.208,2.759a1.654,1.654,0,0,0,2.178,0c1.141-1,2.24-1.934,3.209-2.76a59.544,59.544,0,0,0,6.993-6.564A10.484,10.484,0,0,0,28.17,8.466a8.8,8.8,0,0,0-2.235-6.013Zm0,0" transform="translate(0)"/></svg>