<svg xmlns="http://www.w3.org/2000/svg" width="43.675" height="43.675" viewBox="0 0 43.675 43.675"><defs><style>.a{fill:#ff7e02;}</style></defs><path class="a" d="M9.68,25.4,8.159,31.076,2.6,31.194A21.875,21.875,0,0,1,2.441,10.8h0l4.947.906,2.167,4.918A13.021,13.021,0,0,0,9.678,25.4Z" transform="translate(0 0.993)"/><path class="a" d="M41.415,16.264a21.822,21.822,0,0,1-7.784,21.108h0L27.4,37.054l-.881-5.5a13.015,13.015,0,0,0,5.6-6.646H20.44V16.264Z" transform="translate(1.878 1.494)"/><path class="a" d="M35.289,36.646a21.842,21.842,0,0,1-32.905-6.68l7.075-5.792a12.989,12.989,0,0,0,18.716,6.65Z" transform="translate(0.219 2.221)"/><path class="a" d="M35.571,5.027,28.5,10.819a12.983,12.983,0,0,0-19.144,6.8L2.237,11.793A21.843,21.843,0,0,1,35.571,5.027Z" transform="translate(0.206)"/></svg>