<svg xmlns="http://www.w3.org/2000/svg" width="15.355" height="11.136" viewBox="0 0 15.355 11.136"><defs><style>.a{fill:#fff;}</style></defs><g transform="translate(0 0)"><path class="a" d="M15.086,72.555l.269-.118v-2.1H2.429v2.1l.269.118a.512.512,0,0,1,.269.657H0v2.1l.269.118a.51.51,0,0,1,0,.934L0,76.486v2.029l.269.118a.51.51,0,0,1,0,.934L0,79.685v1.784H12.926V79.685l-.269-.118a.51.51,0,0,1-.306-.467c0-.362.4-.51.4-.51h2.6V76.806l-.269-.118a.51.51,0,0,1,0-.934l.269-.118V73.607l-.269-.118a.51.51,0,0,1,0-.934ZM3.329,71.886v-.654h7.71v1.979H3.89a1.4,1.4,0,0,0-.562-1.326Zm11.126,0a1.409,1.409,0,0,0,0,2.272v.927a1.409,1.409,0,0,0,0,2.272v.334H12.926v-1.2l-.269-.118a.51.51,0,0,1,0-.934l.269-.118v-2.1h-.987V71.233h2.517ZM8.609,78.77H3.357V75.911H8.609V78.77ZM2.457,75.011V79.67H8.609v.9H.9v-.334a1.41,1.41,0,0,0,0-2.272v-.927a1.41,1.41,0,0,0,0-2.272v-.654h7.71v.9H2.457Zm9.569,5.224v.334H9.509V74.112h2.517v.654a1.41,1.41,0,0,0,0,2.272v.927a1.409,1.409,0,0,0,0,2.272Z" transform="translate(0 -70.333)"/></g></svg>