<svg xmlns="http://www.w3.org/2000/svg" width="14.843" height="11.31" viewBox="0 0 14.843 11.31"><defs><style>.a{fill:#3b1aaf;}</style></defs><g transform="translate(0 -57.962)"><g transform="translate(0 57.962)"><path class="a" d="M175.016,61.332a.267.267,0,0,0,.381,0l.381-.381a.267.267,0,0,0,0-.381l-.862-.862a.267.267,0,0,0-.381,0l-.381.381a.267.267,0,0,0,0,.381l.037.037-.268.268a4.715,4.715,0,0,0-2.395-1V59.29h.3a.269.269,0,0,0,.268-.268V58.23a.269.269,0,0,0-.268-.268H170.11a.269.269,0,0,0-.268.268v.792a.269.269,0,0,0,.268.268h.3v.488a4.757,4.757,0,0,0-2.395,1l-.268-.268.037-.037a.267.267,0,0,0,0-.381l-.381-.381a.267.267,0,0,0-.381,0l-.862.862a.267.267,0,0,0,0,.381l.381.381a.267.267,0,0,0,.381,0l.037-.037.268.268a4.766,4.766,0,1,0,7.49,0l.268-.268Zm-4.049,6.837a3.659,3.659,0,1,1,3.659-3.659A3.665,3.665,0,0,1,170.966,68.169Z" transform="translate(-161.015 -57.962)"/><path class="a" d="M48.472,314.666a.472.472,0,0,0,0,.945h2.563a.441.441,0,0,0,.143-.024,5.519,5.519,0,0,1-.293-.923H48.472Z" transform="translate(-46.537 -306.841)"/><path class="a" d="M4.638,200.186a.518.518,0,0,0-.14-.024H.472a.472.472,0,0,0,0,.945H4.345A5.563,5.563,0,0,1,4.638,200.186Z" transform="translate(0 -195.829)"/><path class="a" d="M25.147,257.931c0-.158.009-.314.021-.469h-3.1a.472.472,0,0,0,0,.945h3.093C25.156,258.251,25.147,258.093,25.147,257.931Z" transform="translate(-20.942 -251.383)"/><path class="a" d="M305.621,223.579a.291.291,0,0,0-.381-.113l-1.648.807a.734.734,0,0,0-.646.046.725.725,0,1,0,1.088.707l1.5-1.057A.29.29,0,0,0,305.621,223.579Zm-2,1.441a.318.318,0,1,1-.229-.387A.32.32,0,0,1,303.625,225.02Z" transform="translate(-293.369 -218.393)"/><path class="a" d="M355.586,195.533a.3.3,0,1,0-.11-.107A.366.366,0,0,0,355.586,195.533Z" transform="translate(-344.605 -190.801)"/><path class="a" d="M316.5,185.356a.3.3,0,1,0-.3-.3.3.3,0,0,0,.04.149A.293.293,0,0,0,316.5,185.356Z" transform="translate(-306.565 -180.898)"/><path class="a" d="M317.9,341.663h0a.3.3,0,0,0-.3.3.294.294,0,0,0,.3.293.3.3,0,0,0,.293-.3A.293.293,0,0,0,317.9,341.663Z" transform="translate(-307.923 -333.019)"/><path class="a" d="M356.861,330.862a.294.294,0,0,0-.1.405h0a.3.3,0,0,0,.512-.3A.3.3,0,0,0,356.861,330.862Z" transform="translate(-345.846 -322.507)"/><path class="a" d="M385.579,301.959a.3.3,0,0,0-.4.411.284.284,0,0,0,.11.107.3.3,0,1,0,.293-.518Z" transform="translate(-373.4 -294.488)"/><path class="a" d="M238.894,264.359a.3.3,0,1,0-.594.006.3.3,0,0,0,.594-.006Z" transform="translate(-231.039 -257.783)"/><path class="a" d="M249.461,303.216a.294.294,0,0,0-.1.405h0a.3.3,0,0,0,.512-.3A.3.3,0,0,0,249.461,303.216Z" transform="translate(-241.718 -295.702)"/><path class="a" d="M395.3,262.861a.284.284,0,0,0,.043.149.3.3,0,0,0,.555-.152.3.3,0,0,0-.6,0Z" transform="translate(-383.253 -256.328)"/><path class="a" d="M248.527,225.376a.3.3,0,0,0,.405-.113h0a.3.3,0,0,0-.521-.293.306.306,0,0,0,0,.3A.316.316,0,0,0,248.527,225.376Z" transform="translate(-240.806 -219.736)"/><path class="a" d="M277.165,196.184a0,0,0,0,0,0,0s0,0,0,0h0a.3.3,0,0,0-.3-.512,0,0,0,0,0,0,0s0,0-.006,0a.294.294,0,0,0-.1.405h0A.3.3,0,0,0,277.165,196.184Z" transform="translate(-268.283 -191.43)"/><path class="a" d="M278.679,331.615a.3.3,0,0,0-.4.411.315.315,0,0,0,.11.11.3.3,0,0,0,.293-.521Z" transform="translate(-269.757 -323.239)"/></g></g></svg>