<svg xmlns="http://www.w3.org/2000/svg" viewBox="0 0 103.37 82.45"><defs><style>.a{fill:none;stroke:#fff;stroke-miterlimit:10;stroke-width:2px;}</style></defs><title>home-spread-the-word</title><polygon class="a" points="75.45 66.06 30.22 47.21 30.22 20.35 75.45 1.5 75.45 66.06"/><path class="a" d="M9.07,20.35H30.22a0,0,0,0,1,0,0V47.21a0,0,0,0,1,0,0H9.07A8.07,8.07,0,0,1,1,39.14V28.42A8.07,8.07,0,0,1,9.07,20.35Z"/><polygon class="a" points="2.88 81.45 20.87 81.45 30.22 47.21 12.23 47.21 2.88 81.45"/><path class="a" d="M75.45,25.18h7a3.4,3.4,0,0,1,3.4,3.4V39.33a3.4,3.4,0,0,1-3.4,3.4h-7a0,0,0,0,1,0,0V25.18A0,0,0,0,1,75.45,25.18Z"/><line class="a" x1="91.95" y1="33.96" x2="103.37" y2="33.96"/><line class="a" x1="90.41" y1="10.55" x2="101.49" y2="0.89"/><line class="a" x1="90.41" y1="57.36" x2="101.49" y2="67.02"/></svg>