<svg xmlns="http://www.w3.org/2000/svg" viewBox="0 0 96.31 79.92"><defs><style>.a{fill:none;stroke:#fff;stroke-miterlimit:10;stroke-width:2px;}</style></defs><title>home-work-with-us</title><path class="a" d="M1,18.86H95.31a0,0,0,0,1,0,0v50.9a9.17,9.17,0,0,1-9.17,9.17h-76A9.17,9.17,0,0,1,1,69.76V18.86a0,0,0,0,1,0,0Z"/><line class="a" x1="1" y1="48.86" x2="15.94" y2="48.86"/><line class="a" x1="80.38" y1="48.86" x2="95.31" y2="48.86"/><line class="a" x1="27.13" y1="48.86" x2="69.18" y2="48.86"/><polyline class="a" points="68.05 18.86 68.05 1 26.87 1 26.87 18.86"/><polyline class="a" points="61.57 18.86 61.57 6.91 33.35 6.91 33.35 18.86"/><rect class="a" x="15.94" y="45.87" width="11.2" height="6.59"/><rect class="a" x="69.18" y="45.87" width="11.2" height="6.59"/></svg>