<svg xmlns="http://www.w3.org/2000/svg" width="52.612" height="53.131" viewBox="0 0 52.612 53.131"><defs><style>.a{fill:#ff8b1b;}</style></defs><path class="a" d="M46.954,36.81a8.117,8.117,0,0,0-5.186,1.866l-2.131-2.153a14.532,14.532,0,0,0,3.721-8.97h2.106a4.765,4.765,0,1,0,0-1.557H43.359a14.545,14.545,0,0,0-.4-2.708.778.778,0,0,0-1.512.372,13.048,13.048,0,0,1-3.708,12.58c-.331-3.053-2.959-3.758-4.912-4.282l-.39-.105c-.152-.041-.277-.247-.373-.461a7.462,7.462,0,0,0,3.383-5.577V24.021a7.545,7.545,0,0,0-2.06-5.475,6.566,6.566,0,0,0-4.572-1.922h-.027a6.725,6.725,0,0,0-2.743.636.778.778,0,0,0,.666,1.407,4.975,4.975,0,0,1,7.12,4.368,2.543,2.543,0,0,1-.736-.582,2.1,2.1,0,0,0-2.283-.744c-.3.078-.562.148-.786.208a5.553,5.553,0,0,1-1.225.259,5.553,5.553,0,0,1-1.225-.259c-.224-.06-.482-.129-.786-.208a2.1,2.1,0,0,0-2.282.744,2.541,2.541,0,0,1-.737.583,6.011,6.011,0,0,1,.837-2.488.778.778,0,1,0-1.321-.823,8,8,0,0,0-1.13,4.3v1.793a7.463,7.463,0,0,0,3.383,5.577c-.1.214-.222.42-.376.462l-.387.1c-1.953.524-4.581,1.229-4.912,4.282A13.021,13.021,0,1,1,40.04,20.189l.006.009c.041.067.08.138.119.208l.035.063a.778.778,0,1,0,1.359-.759l-.033-.06c-.048-.086-.1-.172-.146-.255a14.62,14.62,0,0,0-1.738-2.37l2.17-2.192a8.132,8.132,0,0,0,9.888-.393.78.78,0,0,0,.124-.108,8.157,8.157,0,1,0-11.2-.516l-2.086,2.108a14.492,14.492,0,0,0-8.957-3.71V10.106a4.765,4.765,0,1,0-1.557,0v2.107a14.515,14.515,0,0,0-8.958,3.72l-2.1-2.1a8.157,8.157,0,1,0-11.182.5.78.78,0,0,0,.124.108,8.132,8.132,0,0,0,9.871.405l2.187,2.188A14.528,14.528,0,0,0,14.25,26H12.145a4.767,4.767,0,1,0,0,1.557H14.25a14.531,14.531,0,0,0,3.719,8.964l-2.126,2.125a8.172,8.172,0,1,0,1.1,1.1l2.125-2.125q.28.252.573.491a4.529,4.529,0,0,0,.587.452,14.487,14.487,0,0,0,7.8,2.778v2.108a4.765,4.765,0,1,0,1.557,0V41.339a14.487,14.487,0,0,0,7.8-2.778.781.781,0,0,0,.146-.107q.524-.393,1.01-.831l2.131,2.153a8.146,8.146,0,0,0,.948,11.356.78.78,0,0,0,.152.131,8.139,8.139,0,0,0,10.374,0,.783.783,0,0,0,.152-.131A8.156,8.156,0,0,0,46.954,36.81Zm3.212-13.243a3.209,3.209,0,1,1-3.209,3.208A3.212,3.212,0,0,1,50.166,23.567Zm-3.669-8.8a6.564,6.564,0,0,1-3.962-1.326,4,4,0,0,1,1.954-3.069,3.883,3.883,0,0,0,4.016,0,4,4,0,0,1,1.954,3.069A6.564,6.564,0,0,1,46.5,14.764ZM44.161,7.035A2.336,2.336,0,1,1,46.5,9.372a2.339,2.339,0,0,1-2.336-2.337ZM39.9,8.16a6.6,6.6,0,1,1,11.875,3.965,5.577,5.577,0,0,0-2.094-2.85,3.892,3.892,0,1,0-6.361,0,5.578,5.578,0,0,0-2.094,2.85A6.572,6.572,0,0,1,39.9,8.16ZM25.6,5.4A3.209,3.209,0,1,1,28.8,8.615,3.212,3.212,0,0,1,25.6,5.4ZM11.113,14.764a6.564,6.564,0,0,1-3.962-1.326A4,4,0,0,1,9.105,10.37a3.883,3.883,0,0,0,4.016,0,4,4,0,0,1,1.954,3.069A6.564,6.564,0,0,1,11.113,14.764ZM8.777,7.035a2.336,2.336,0,1,1,2.336,2.337A2.339,2.339,0,0,1,8.777,7.035Zm5.516,2.24a3.892,3.892,0,1,0-6.361,0,5.577,5.577,0,0,0-2.094,2.85,6.6,6.6,0,1,1,10.549,0A5.577,5.577,0,0,0,14.293,9.275Zm-6.85,20.71a3.209,3.209,0,1,1,3.209-3.211A3.213,3.213,0,0,1,7.444,29.986ZM10.656,51.54a6.564,6.564,0,0,1-3.962-1.326,4,4,0,0,1,1.953-3.069,3.883,3.883,0,0,0,4.016,0,4,4,0,0,1,1.955,3.069A6.563,6.563,0,0,1,10.656,51.54ZM8.32,43.81a2.336,2.336,0,1,1,2.336,2.337A2.339,2.339,0,0,1,8.32,43.81Zm7.61,5.09a5.575,5.575,0,0,0-2.093-2.851,3.892,3.892,0,1,0-6.364,0A5.574,5.574,0,0,0,5.381,48.9a6.6,6.6,0,1,1,10.549,0Zm7.786-23.086V24.69a3.652,3.652,0,0,0,1.906-1.148c.366-.373.413-.421.782-.326.3.077.553.145.772.2a6.3,6.3,0,0,0,1.628.312,6.291,6.291,0,0,0,1.628-.312c.22-.059.474-.127.772-.2.369-.095.416-.047.782.326a3.652,3.652,0,0,0,1.906,1.148v1.125c0,1.819-1.854,4.162-3.892,4.918a3.018,3.018,0,0,1-2.395,0c-2.036-.754-3.89-3.1-3.89-4.917Zm7.7,7.236-2.207,1.294-.031.019c-.361.234-.381.234-.742,0l-.031-.019L26.2,33.051a2.505,2.505,0,0,0,.718-.92c.05.02.1.04.149.059a4.547,4.547,0,0,0,3.48,0c.051-.019.1-.04.151-.06A2.506,2.506,0,0,0,31.413,33.051Zm.6,15.1A3.209,3.209,0,1,1,28.8,44.939,3.213,3.213,0,0,1,32.014,48.146Zm4.207-10.669a12.983,12.983,0,0,1-14.832,0v-.572c0-1.952,1.067-2.628,2.875-3.183L27.6,35.679a1.943,1.943,0,0,0,2.407,0l3.337-1.957c1.808.555,2.875,1.231,2.875,3.183Zm10.733,14.1a6.563,6.563,0,0,1-3.962-1.326,4,4,0,0,1,1.955-3.069,3.884,3.884,0,0,0,4.016,0,4,4,0,0,1,1.953,3.07,6.564,6.564,0,0,1-3.962,1.326Zm-2.336-7.729a2.336,2.336,0,1,1,2.336,2.337A2.339,2.339,0,0,1,44.618,43.845Zm7.61,5.09a5.575,5.575,0,0,0-2.092-2.853,3.892,3.892,0,1,0-6.364,0,5.577,5.577,0,0,0-2.093,2.852,6.6,6.6,0,1,1,10.549,0Z" transform="translate(-2.499 0)"/></svg>