<svg xmlns="http://www.w3.org/2000/svg" width="14.269" height="18.307" viewBox="0 0 14.269 18.307"><defs><style>.a{fill:#fff;stroke:#fff;}</style></defs><g transform="translate(0.391 0.5)"><path class="a" d="M.109,57.191v15a.288.288,0,0,0,.288.288H11.359a.288.288,0,0,0,.288-.288V60.075c0-.006,0-.012,0-.018a.272.272,0,0,0-.015-.074c0-.009-.005-.018-.01-.027a.286.286,0,0,0-.058-.084L8.677,56.987a.28.28,0,0,0-.085-.058l-.026-.01a.286.286,0,0,0-.075-.015s-.011,0-.017,0H.4a.288.288,0,0,0-.288.288Zm10.553,2.6h-1.9v-1.9ZM.686,57.479h7.5v2.6a.288.288,0,0,0,.288.288h2.6V71.9H.686Zm0,0" transform="translate(0 -55.172)"/><path class="a" d="M67.392,15v.577h.865a.288.288,0,0,0,.288-.288v-15A.288.288,0,0,0,68.257,0H57.3a.288.288,0,0,0-.288.288v.865h.577V.577H67.969V15Zm0,0" transform="translate(-55.168 0)"/><path class="a" d="M75.977,189.668H82.9v.577H75.977Zm0,0" transform="translate(-73.56 -183.899)"/><path class="a" d="M75.977,132.766h2.308v.577H75.977Zm0,0" transform="translate(-73.56 -128.728)"/><path class="a" d="M75.977,246.566h4.615v.577H75.977Zm0,0" transform="translate(-73.56 -239.066)"/><path class="a" d="M246.676,246.566h1.731v.577h-1.731Zm0,0" transform="translate(-239.067 -239.066)"/><path class="a" d="M75.977,303.465H82.9v.577H75.977Zm0,0" transform="translate(-73.56 -294.235)"/><path class="a" d="M75.977,417.266H82.9v.577H75.977Zm0,0" transform="translate(-73.56 -404.574)"/><path class="a" d="M161.324,360.367h4.327v.577h-4.327Zm0,0" transform="translate(-156.311 -349.406)"/><path class="a" d="M75.977,360.367H78v.577H75.977Zm0,0" transform="translate(-73.56 -349.406)"/><path class="a" d="M75.977,474.168H77.13v.577H75.977Zm0,0" transform="translate(-73.56 -459.745)"/><path class="a" d="M132.875,474.168h5.192v.577h-5.192Zm0,0" transform="translate(-128.727 -459.745)"/></g></svg>