<svg xmlns="http://www.w3.org/2000/svg" width="8.361" height="10.712" viewBox="0 0 8.361 10.712"><g transform="translate(-149.326 -122.668)"><path d="M156.9,124.236a.784.784,0,0,0,0-1.568H150.11a.784.784,0,0,0,0,1.568h2.351a1.825,1.825,0,0,1,1.743,1.306H150.11a.784.784,0,1,0,0,1.568h3.848a1.827,1.827,0,0,1-1.5.784H150.11a.784.784,0,0,0-.442,1.432l5.748,3.919a.784.784,0,0,0,.884-1.3l-3.656-2.492a3.391,3.391,0,0,0,3.034-2.346H156.9a.784.784,0,0,0,0-1.568h-1.1a3.373,3.373,0,0,0-.49-1.306Zm0,0" transform="translate(0)"/></g></svg>