<svg xmlns="http://www.w3.org/2000/svg" width="12.847" height="14.015" viewBox="0 0 12.847 14.015"><defs><style>.a{fill:#ff7e02;}</style></defs><g transform="translate(0 0)"><path class="a" d="M318.464,17.9a1.9,1.9,0,1,1-1.9-1.9A1.9,1.9,0,0,1,318.464,17.9Zm0,0" transform="translate(-306.055 -15.562)"/><path class="a" d="M301,4.672a2.336,2.336,0,1,1,2.336-2.336A2.338,2.338,0,0,1,301,4.672Zm0-3.8a1.46,1.46,0,1,0,1.46,1.46A1.462,1.462,0,0,0,301,.876Zm0,0" transform="translate(-290.492)"/><path class="a" d="M318.464,359.23a1.9,1.9,0,1,1-1.9-1.9A1.9,1.9,0,0,1,318.464,359.23Zm0,0" transform="translate(-306.055 -347.551)"/><path class="a" d="M301,346a2.336,2.336,0,1,1,2.336-2.336A2.338,2.338,0,0,1,301,346Zm0-3.8a1.46,1.46,0,1,0,1.46,1.46A1.462,1.462,0,0,0,301,342.208Zm0,0" transform="translate(-290.492 -331.989)"/><path class="a" d="M19.8,188.566a1.9,1.9,0,1,1-1.9-1.9A1.9,1.9,0,0,1,19.8,188.566Zm0,0" transform="translate(-15.562 -181.558)"/><path class="a" d="M2.336,175.34A2.336,2.336,0,1,1,4.672,173a2.338,2.338,0,0,1-2.336,2.336Zm0-3.8A1.46,1.46,0,1,0,3.8,173a1.461,1.461,0,0,0-1.46-1.46Zm0,0" transform="translate(0 -165.996)"/><path class="a" d="M114.933,94.472a.584.584,0,0,1-.29-1.092l5.419-3.089a.584.584,0,1,1,.578,1.015L115.221,94.4A.58.58,0,0,1,114.933,94.472Zm0,0" transform="translate(-111.218 -87.745)"/><path class="a" d="M120.373,270.476a.58.58,0,0,1-.288-.077l-5.419-3.089a.584.584,0,0,1,.578-1.015l5.419,3.089a.584.584,0,0,1-.29,1.091Zm0,0" transform="translate(-111.241 -258.931)"/></g></svg>