<svg xmlns="http://www.w3.org/2000/svg" width="56.479" height="53.445" viewBox="0 0 56.479 53.445"><defs><style>.a{fill:#ff8b1b;}</style></defs><path class="a" d="M123.618,291.633a1.1,1.1,0,1,0-1.507-.4A1.1,1.1,0,0,0,123.618,291.633Zm0,0" transform="translate(-108.51 -257.632)"/><path class="a" d="M10.588,61.5l5.555,9.622a4.412,4.412,0,1,0,7.642-4.412l-3.309-5.733,2.866-1.655a1.1,1.1,0,0,0,.4-1.507l-1.434-2.485L43.44,51.192a3.309,3.309,0,0,0,2.682-4.958l-3.666-6.35L44.8,36.335a1.1,1.1,0,0,0,.035-1.16l-2.206-3.821a1.105,1.105,0,0,0-1.022-.549l-4.244.255-4.07-7.05a3.281,3.281,0,0,0-2.825-1.654h-.042a3.28,3.28,0,0,0-2.786,1.526L13.229,42.239,3.861,47.647A7.722,7.722,0,0,0,10.588,61.5Zm11.287,6.314a2.206,2.206,0,0,1-3.822,2.206L12.538,60.47l3.821-2.206,5.516,9.555Zm-2.5-8.747-1.1-1.911,1.911-1.1,1.1,1.911ZM41.058,33.048l1.525,2.641-1.359,2.059L38.6,33.2ZM29.485,25.091a1.1,1.1,0,0,1,1.9.022L44.212,47.337a1.1,1.1,0,0,1-.928,1.654,4.05,4.05,0,0,0-.6.1L29.107,25.585c.285-.366.321-.4.378-.494Zm-1.846,2.364L40.391,49.542,21.146,53.317,15.294,43.182ZM2.945,57.092a5.512,5.512,0,0,1,2.019-7.534l8.6-4.964,5.516,9.553-8.6,4.964a5.522,5.522,0,0,1-7.534-2.019Zm0,0" transform="translate(0 -19.889)"/><path class="a" d="M49.665,310.124a1.1,1.1,0,0,0-1.507-.4l-1.911,1.1a1.1,1.1,0,0,1-1.507-.4,1.1,1.1,0,0,0-1.911,1.1,3.314,3.314,0,0,0,4.521,1.211l1.911-1.1a1.1,1.1,0,0,0,.4-1.507Zm0,0" transform="translate(-37.973 -275.423)"/><path class="a" d="M442.989,42.621l-6.147,3.421a1.1,1.1,0,0,0,1.073,1.928l6.146-3.421a1.1,1.1,0,0,0-1.073-1.928Zm0,0" transform="translate(-388.149 -37.795)"/><path class="a" d="M445.714,137.8l-4.262-1.142a1.1,1.1,0,1,0-.571,2.131l4.263,1.142a1.1,1.1,0,1,0,.57-2.131Zm0,0" transform="translate(-391.519 -121.55)"/><path class="a" d="M384.673.818,383.53,5.081a1.1,1.1,0,1,0,2.131.571L386.8,1.389a1.1,1.1,0,1,0-2.131-.571Zm0,0" transform="translate(-341.189 0)"/></svg>