<svg xmlns="http://www.w3.org/2000/svg" width="55.841" height="57.599" viewBox="0 0 55.841 57.599"><defs><style>.a{fill:#ff8b1b;}</style></defs><g transform="translate(44.707 21.669)"><path class="a" d="M407.135,192.944a1.125,1.125,0,0,0-1.591,1.591l.053.051a1.125,1.125,0,0,0,1.538-1.642Z" transform="translate(-405.214 -192.615)"/></g><g transform="translate(30.144 17.238)"><g transform="translate(0)"><path class="a" d="M289.962,156.142a17.619,17.619,0,0,0-1.965-1.16,15.088,15.088,0,0,0-11.441-1.091,1.125,1.125,0,1,0,.667,2.149,12.879,12.879,0,0,1,9.762.952A15.666,15.666,0,0,1,288.7,158a1.125,1.125,0,1,0,1.264-1.862Z" transform="translate(-275.764 -153.23)"/></g></g><g transform="translate(7.183 7.139)"><path class="a" d="M119.061,91.028a14.474,14.474,0,0,1-1.239-3.1,10.639,10.639,0,0,0-1.356-10.113A21.077,21.077,0,0,0,100.045,69.1a20.131,20.131,0,0,0-9.274,2.253,9.63,9.63,0,1,0-14.5,9.95,1.88,1.88,0,0,1,1.086,1.671V89.56a2.28,2.28,0,0,0,2.278,2.278h.382A20.036,20.036,0,0,0,86.8,104.525a4.436,4.436,0,0,1-.307,2.187c-.348,1.211-.883,2.556-1.354,3.743-.315.794-.588,1.48-.753,2a1.125,1.125,0,0,0,1.072,1.466h16.059a1.826,1.826,0,0,0,1.709-1.362,11,11,0,0,0,.466-1.7c.134-.608.447-2.032.759-2.2a.228.228,0,0,1,.062,0,1.105,1.105,0,0,0,.175.014c1.682,0,3.056.076,4.268.143,3.556.2,5.7.316,7.585-2.4.958-1.379.849-3.391.734-5.521a20.1,20.1,0,0,1-.012-3.173,9.816,9.816,0,0,1,1-.742c1.061-.728,2.062-1.416,2.062-2.462A9.864,9.864,0,0,0,119.061,91.028ZM77.449,79.388a7.381,7.381,0,1,1,7.7,0,4.094,4.094,0,0,0-1.972,2.41H79.421A4.1,4.1,0,0,0,77.449,79.388Zm5.539,4.661v1.645H79.61V84.048Zm-3.351,5.54a.032.032,0,0,1-.028-.028V87.943h3.378V89.56a.032.032,0,0,1-.028.028Zm37.352,5.535c-.968.665-1.8,1.239-1.928,2.108a20.025,20.025,0,0,0-.03,3.783c.085,1.58.182,3.371-.336,4.117-1.119,1.613-2.088,1.628-5.612,1.432-1.163-.065-2.606-.145-4.317-.147a2.4,2.4,0,0,0-2.511,1.488,10.452,10.452,0,0,0-.758,2.465,11.952,11.952,0,0,1-.334,1.3H87.083l.152-.384c1.621-4.081,2.647-7.074,1.085-8.424a17.8,17.8,0,0,1-6.029-11.022h.67a2.281,2.281,0,0,0,2.278-2.278V82.98a1.881,1.881,0,0,1,1.086-1.673A9.565,9.565,0,0,0,90.9,73.859a17.874,17.874,0,0,1,9.147-2.506,18.946,18.946,0,0,1,14.55,7.711,8.443,8.443,0,0,1,1.117,8.079c-.441,1.063.213,2.537,1.317,4.853a20.3,20.3,0,0,1,1.012,2.343A10.63,10.63,0,0,1,116.99,95.123Z" transform="translate(-71.668 -63.458)"/></g><g transform="translate(18.303 12.203)"><path class="a" d="M174.543,111.447a4.5,4.5,0,0,0-2.388-2.852,1.125,1.125,0,0,0-1.031,2,2.255,2.255,0,0,1,1.247,1.439,3.411,3.411,0,0,1-.312,2.324,1.125,1.125,0,1,0,1.9,1.21A5.639,5.639,0,0,0,174.543,111.447Z" transform="translate(-170.514 -108.47)"/></g><g transform="translate(15.689)"><path class="a" d="M148.4,0a1.125,1.125,0,0,0-1.125,1.125V4.332a1.125,1.125,0,1,0,2.25,0V1.125A1.125,1.125,0,0,0,148.4,0Z" transform="translate(-147.279)"/></g><g transform="translate(0 15.69)"><g transform="translate(0)"><path class="a" d="M12.147,139.465H8.94a1.125,1.125,0,1,0,0,2.25h3.207a1.125,1.125,0,0,0,0-2.25Z" transform="translate(-7.815 -139.465)"/></g></g><g transform="translate(7.845 2.102)"><path class="a" d="M81.248,22.023l-1.6-2.776A1.125,1.125,0,1,0,77.7,20.372l1.6,2.776a1.125,1.125,0,1,0,1.948-1.125Z" transform="translate(-77.545 -18.684)"/></g><g transform="translate(2.101 7.845)"><path class="a" d="M30.959,71.488l-2.777-1.6a1.125,1.125,0,0,0-1.125,1.948l2.777,1.6a1.125,1.125,0,1,0,1.125-1.948Z" transform="translate(-26.495 -69.735)"/></g><g transform="translate(26.501 7.845)"><path class="a" d="M248.258,70.295a1.125,1.125,0,0,0-1.537-.412l-2.777,1.6a1.125,1.125,0,1,0,1.125,1.948l2.777-1.6A1.125,1.125,0,0,0,248.258,70.295Z" transform="translate(-243.382 -69.732)"/></g><g transform="translate(2.101 21.931)"><path class="a" d="M31.372,195.508a1.125,1.125,0,0,0-1.536-.412l-2.777,1.6a1.125,1.125,0,1,0,1.125,1.949l2.777-1.6A1.125,1.125,0,0,0,31.372,195.508Z" transform="translate(-26.495 -194.946)"/></g><g transform="translate(7.845 26.901)"><path class="a" d="M80.6,239.277a1.125,1.125,0,0,0-1.537.412L77.7,242.065a1.125,1.125,0,1,0,1.949,1.125l1.372-2.376A1.125,1.125,0,0,0,80.6,239.277Z" transform="translate(-77.545 -239.127)"/></g><g transform="translate(21.931 2.102)"><path class="a" d="M206.054,18.834a1.125,1.125,0,0,0-1.537.412l-1.6,2.776a1.125,1.125,0,1,0,1.948,1.125l1.6-2.776A1.125,1.125,0,0,0,206.054,18.834Z" transform="translate(-202.763 -18.683)"/></g></svg>