<?xml version="1.0" encoding="utf-8"?>
<!-- Generator: Adobe Illustrator 23.0.3, SVG Export Plug-In . SVG Version: 6.00 Build 0)  -->
<svg version="1.1" id="Layer_1" xmlns="http://www.w3.org/2000/svg" xmlns:xlink="http://www.w3.org/1999/xlink" x="0px" y="0px"
	 viewBox="0 0 370 474" style="enable-background:new 0 0 370 474;" xml:space="preserve">
<style type="text/css">
	.st0{clip-path:url(#SVGID_2_);}
	.st1{fill:#F2F2F2;}
	.st2{fill:#E6E6E6;}
	.st3{fill:#FBCA0C;}
	.st4{fill:#F4624D;}
	.st5{clip-path:url(#SVGID_4_);}
	.st6{fill:#FEC091;}
	.st7{fill:#E98B67;}
	.st8{fill:#253044;}
	.st9{fill:#E6DBD7;}
	.st10{fill:#DFD1CC;}
	.st11{fill:#FFFFFF;}
	.st12{fill:#374586;}
	.st13{fill:#D4C1BB;}
	.st14{fill:#753623;}
	.st15{fill:#FCD53D;}
	.st16{clip-path:url(#SVGID_6_);}
	.st17{fill:#FFB5A8;}
	.st18{fill:#EEE7E5;}
	.st19{fill:#8B5646;}
	.st20{fill:#D0BBB4;}
	.st21{fill:#838CB4;}
	.st22{clip-path:url(#SVGID_8_);}
	.st23{fill:#303A4D;}
	.st24{fill:#FFA393;}
	.st25{fill:#E9DFDC;}
	.st26{fill:#D6C3BD;}
	.st27{fill:#C9B1A9;}
	.st28{clip-path:url(#SVGID_10_);}
	.st29{fill:#E67D54;}
	.st30{fill:#F6D1C3;}
	.st31{fill:#BA9A91;}
</style>
<g>
	<defs>
		<rect id="SVGID_1_" x="0.06" width="369.88" height="474"/>
	</defs>
	<clipPath id="SVGID_2_">
		<use xlink:href="#SVGID_1_"  style="overflow:visible;"/>
	</clipPath>
	<g class="st0">
		<rect x="0.06" y="-1.37" class="st1" width="369.88" height="476.74"/>
		<path class="st2" d="M300.22,163.32c1.16-9.85,4.96-19.49,4.03-29.37c-0.82-8.75-5.3-16.76-10.68-23.71
			c-32.68-42.27-105.59-50.69-144.82-11.77c-2.8,2.78-5.35,5.81-7.56,9.09c-6.43,9.54-10.52,20.7-18.29,29.18
			c-14.1,15.4-37.12,18.78-53.84,31.29c-13.57,10.15-22.36,26.42-23.42,43.33c-1.06,16.91,5.64,34.15,17.83,45.91
			c22.32,21.53,59.38,23.6,78.96,47.65c9.4,11.54,14.3,27.67,27.52,34.52c10.72,5.55,24.12,3.06,34.58-2.96
			c18.2-10.48,29.27-29.9,45.4-43.35c18.32-15.28,44.1-24.03,53.62-45.9C314.88,221.23,296.89,191.47,300.22,163.32z"/>
		<path class="st3" d="M328.27,350.73c-0.69-0.47-1.56-0.67-2.54-0.43c-0.76,0.19-1.53,0.55-2.06,1.13
			c-1.04,0.94-1.57,2.41-1.53,3.81c0.03,0.87,0.36,1.6,1.06,2.13c0.66,0.49,1.49,0.77,2.31,0.73c1.71-0.09,3.32-1.35,4-2.89
			C330.23,353.55,329.6,351.64,328.27,350.73z"/>
		<path class="st3" d="M338.23,338.68c-0.48-0.63-1.35-0.9-2.1-0.67c-0.93,0.28-1.56,1.39-1.26,2.31c0.22,0.68,0.93,1.21,1.62,1.32
			c0.74,0.12,1.45-0.22,1.82-0.87C338.67,340.14,338.67,339.28,338.23,338.68z"/>
		<path class="st3" d="M340.14,352.07c-1.07-0.42-2.36-0.55-3.26,0.11c-1.48,1.07-1.89,3.04-1.15,4.68
			c0.72,1.61,2.58,2.92,4.39,2.53c1.56-0.33,2.91-1.83,2.91-3.44c0.01-1.38-0.77-2.65-1.91-3.38
			C340.82,352.38,340.49,352.21,340.14,352.07z"/>
		<path class="st3" d="M344.51,258.94c-3.53-0.68-4.41,6.33-0.11,5.04c1.13-0.34,2-1.33,1.99-2.54
			C346.39,260.33,345.65,259.16,344.51,258.94z"/>
		<path class="st3" d="M335.67,169.91c-0.17-1.7-1.98-3.17-3.68-2.57c-1.72,0.61-2.25,2.94-1.15,4.32c0.73,0.92,2.02,1.25,3.1,0.81
			C334.98,172.05,335.79,171.08,335.67,169.91z"/>
		<path class="st3" d="M346.94,166.05c-1.67-1.29-3.82-1.3-4.85,0.72c-0.55,1.09-0.91,2.51-0.58,3.71c0.44,1.61,1.95,2.74,3.59,2.84
			c1.69,0.11,3.11-1.17,3.54-2.75C349.12,168.86,348.32,167.12,346.94,166.05z"/>
		<path class="st3" d="M342.2,155.88c0.38,0.95,1.46,1.58,2.47,0.98c0.76-0.45,1.18-1.36,0.95-2.23c-0.21-0.79-0.99-1.32-1.78-1.36
			c-0.96-0.05-1.69,0.77-1.77,1.69C342.03,155.28,342.09,155.6,342.2,155.88z"/>
		<path class="st3" d="M343.68,154.25C343.69,154.25,343.68,154.25,343.68,154.25L343.68,154.25z"/>
		<path class="st3" d="M111.88,46.7c-1.61,0.09-2.76,1.53-2.97,3.05c-0.22,1.54,0.54,3.04,2,3.64c1.43,0.59,2.94-0.01,3.78-1.27
			c0.52-0.78,0.67-1.72,0.51-2.59C114.91,47.96,113.66,46.59,111.88,46.7z"/>
		<path class="st3" d="M123.32,61.65c-0.52-0.45-1.22-0.72-1.91-0.62c-1.9,0.27-1.93,2.6-1.08,3.87c0.32,0.48,0.78,0.9,1.36,1.03
			c0.54,0.12,1.11,0.03,1.59-0.22c1.17-0.61,1.37-1.72,0.98-2.73C124.08,62.48,123.75,62.02,123.32,61.65z"/>
		<path class="st3" d="M42.71,157.15c0.64,0.26,1.38,0.41,2.07,0.27c0.55-0.12,1.03-0.46,1.36-0.91c0.43-0.59,0.51-1.21,0.35-1.78
			c-0.34-1.23-1.78-2.21-3.11-2.06c-0.53,0.06-1.06,0.26-1.43,0.65c-0.34,0.35-0.56,0.82-0.64,1.3c-0.08,0.5-0.03,1,0.18,1.46
			C41.73,156.6,42.19,156.94,42.71,157.15z"/>
		<path class="st3" d="M27.93,142.99c-0.8-0.48-1.84-0.39-2.63,0.05c-0.94,0.52-1.36,1.48-1.49,2.51c-0.1,0.81-0.14,1.79,0.19,2.56
			c0.31,0.72,0.98,1.23,1.63,1.64c0.64,0.4,1.33,0.62,2.08,0.48c0.68-0.13,1.3-0.54,1.73-1.07c0.97-1.2,0.88-2.85,0.22-4.17
			C29.27,144.22,28.67,143.45,27.93,142.99z"/>
		<path class="st3" d="M129.2,117.75c-2.36-0.75-3.62,3.08-1.23,3.96c0.83,0.3,1.79-0.07,2.33-0.74c0.57-0.71,0.62-1.67,0.06-2.4
			C130.06,118.18,129.66,117.9,129.2,117.75z"/>
		<path class="st3" d="M47,221.17c-0.01,0-0.02-0.01-0.02-0.01c-0.01-0.05-0.03-0.1-0.09-0.13c-0.55-0.26-1.17-0.52-1.79-0.5
			c-0.67,0.02-1.2,0.53-1.45,1.12c-0.45,1.06-0.33,2.55,0.38,3.46c0.73,0.94,2.16,1.06,3.1,0.38c0.89-0.64,1.39-1.86,1.03-2.93
			C47.95,221.98,47.53,221.48,47,221.17z"/>
		<path class="st3" d="M60.2,226.86c0.02-0.11-0.03-0.24-0.17-0.29c-1.38-0.57-3.02-0.62-4.24,0.33c-0.98,0.77-1.48,2.18-1.05,3.38
			c0.24,0.66,0.74,1.05,1.35,1.36c0.58,0.3,1.24,0.4,1.88,0.33c0.8-0.08,1.57-0.4,2.25-0.83c0.56-0.35,1.09-0.82,1.3-1.47
			c0.24-0.76-0.03-1.59-0.54-2.18C60.77,227.24,60.49,227.03,60.2,226.86z M60.09,230.51c-0.52,0.35-1.11,0.64-1.72,0.78
			c-0.57,0.13-1.15,0.13-1.7-0.07c-0.51-0.19-0.8-0.54-1.03-1.03c-0.38-0.82-0.02-1.87,0.6-2.47c0.71-0.69,1.78-0.89,2.77-0.8
			c0.09,0.19,0.26,0.26,0.47,0.35c0.27,0.11,0.53,0.25,0.76,0.43c0.46,0.35,0.83,0.92,0.78,1.52
			C60.96,229.77,60.53,230.2,60.09,230.51z"/>
		<path class="st3" d="M39.94,236.8c-0.21-0.73-0.71-1.32-1.35-1.71c-0.34-0.2-0.7-0.33-1.09-0.39c0,0,0,0-0.01,0
			c-0.01,0-0.01-0.01-0.02-0.01c-0.35-0.14-0.67-0.19-1.04-0.13c-0.7,0.11-1.34,0.46-1.8,1c-0.91,1.07-1.13,2.68-0.31,3.87
			c0.38,0.55,0.93,0.99,1.6,1.12c0.75,0.15,1.61-0.05,2.3-0.35C39.53,239.65,40.34,238.19,39.94,236.8z"/>
		<path class="st3" d="M34.71,164.1c0.57-0.71,0.62-1.67,0.06-2.4c-0.29-0.38-0.7-0.67-1.16-0.81c-2.36-0.75-3.62,3.08-1.23,3.96
			C33.21,165.15,34.18,164.77,34.71,164.1z"/>
		<path class="st3" d="M239.57,54.02c-0.73-0.24-1.45,0.2-1.73,0.89c-0.28,0.7,0.05,1.52,0.73,1.85c0.85,0.4,1.89-0.11,2.07-1.03
			C240.8,54.97,240.28,54.25,239.57,54.02z"/>
		<path class="st3" d="M312.41,46.18c-0.98-0.66-2.21-0.91-3.34-0.41c-1.61,0.72-2.43,2.63-2.25,4.32c0.2,1.82,1.53,3.45,3.48,3.3
			c1.7-0.13,3.32-1.24,3.86-2.9C314.68,48.86,313.79,47.11,312.41,46.18z"/>
		<path class="st3" d="M325.85,55.83c1.16-0.14,2.13-1,2.26-2.2c0.05-0.44-0.02-0.86-0.19-1.23c-0.38-0.89-1.28-1.52-2.32-1.46
			C322.42,51.14,322.68,56.2,325.85,55.83z"/>
		<path class="st3" d="M324.14,43.95c0.39-0.17,0.72-0.49,0.91-0.86c0.63-1.19,0.07-2.7-1.31-2.96c-2.46-0.46-3.41,3.41-0.91,3.92
			C323.27,44.14,323.73,44.13,324.14,43.95z"/>
		<path class="st3" d="M16.61,271.94c-0.85-0.54-2.04-0.59-2.91,0.11c-0.86,0.69-1.03,1.92-0.58,2.89c0.47,1.02,1.63,1.51,2.7,1.29
			c1.1-0.22,1.84-1.21,1.87-2.3C17.71,273.06,17.25,272.36,16.61,271.94z"/>
		<path class="st3" d="M43.54,349.11c-1.73-0.69-4.31-0.2-5.37,1.44c-0.63,0.96-0.96,2.26-0.99,3.4c-0.02,0.96,0.22,2.04,0.87,2.77
			c0.7,0.78,1.66,1.12,2.68,1.21c1.05,0.09,2.17,0.37,3.15-0.15c2.66-1.4,3.14-5.08,1.47-7.28C44.91,349.9,44.3,349.41,43.54,349.11
			z"/>
		<path class="st3" d="M63.94,358.15c-0.78,1.19-0.96,2.96-0.35,4.26c0.28,0.59,0.7,1.07,1.31,1.32c0.61,0.25,1.25,0.32,1.88,0.11
			c1.49-0.49,2.23-1.95,2.28-3.46c0.03-0.88-0.32-1.71-0.86-2.33C67.02,356.69,64.99,356.55,63.94,358.15z"/>
		<path class="st3" d="M80.61,353.23c-2.54-0.34-3.79,3.03-1.43,4.21c0.45,0.23,1,0.35,1.5,0.27c0.54-0.08,1.03-0.38,1.4-0.78
			c0.79-0.86,0.72-1.99,0.12-2.78C81.83,353.67,81.28,353.32,80.61,353.23z"/>
		<path class="st4" d="M335.07,224.68c-1.93-1.31-4.26,0.15-5.69,1.52c-0.95,0.91-1.78,1.94-2.48,3.06
			c-0.22,0.35-0.5,0.78-0.74,1.24c-0.47-1.03-1.11-1.98-1.9-2.84c-1.26-1.36-3.36-3.13-5.36-2.4c-2.05,0.75-2.43,3.36-2.07,5.23
			c0.46,2.39,2.15,4.34,3.76,6.07c0.99,1.06,2,2.11,3,3.15c0.94,0.98,1.84,2.17,2.98,2.91c0.18,0.12,0.37,0.04,0.47-0.11
			c1-0.63,1.8-1.82,2.54-2.72c0.83-1.01,1.64-2.04,2.41-3.09c1.52-2.08,3.17-4.33,4.13-6.74
			C336.81,228.21,336.81,225.86,335.07,224.68z"/>
		<g>
			<defs>
				<path id="SVGID_3_" d="M240.74,152.31c0,0,7.04,3.06,15,2.45c7.96-0.61,14.39-3.06,14.39-3.06s20.2,16.22,47.14,7.96
					c26.94-8.26,37.86-31.94,34.28-60.3c-3.72-29.52-24.79-45-54.18-41.63c-29.39,3.37-45.69,29.38-47.14,47.14
					c-1.84,22.45,10.1,36.12,10.1,36.12s-4.18,4.69-8.47,6.94C245.41,151.3,240.74,152.31,240.74,152.31z"/>
			</defs>
			<use xlink:href="#SVGID_3_"  style="overflow:visible;fill:#FFFFFF;"/>
			<clipPath id="SVGID_4_">
				<use xlink:href="#SVGID_3_"  style="overflow:visible;"/>
			</clipPath>
			<g class="st5">
				<path class="st6" d="M293.82,127.02c-0.55-1.24-1.17-2.48-1.88-3.64c-0.51-0.84-1.15-1.11-2.06-0.64
					c-2.25,1.17-4.33,2.83-6.3,4.4c-1.69,1.35-3.3,2.87-4.77,4.48c-0.03-0.05-0.06-0.11-0.08-0.16c-0.47-0.94-0.93-1.89-1.35-2.86
					c-0.9-2.04-1.66-4.17-2.36-6.29c-0.66-2-1.22-4.04-1.67-6.1c-0.33-1.51-0.7-3.36-0.89-5.77c0.34-0.6,2.6-5.46,2.88-6.07
					c0.08-0.17,0.15-0.33,0.19-0.51c0.06-0.3-0.05-0.61-0.28-0.8c-0.24-0.2-0.53-0.25-0.82-0.12c-0.18,0.08-0.34,0.22-0.49,0.35
					c-0.69,0.61-1.38,1.21-2.06,1.83c-0.16,0.15-0.33,0.29-0.5,0.44c-0.07-0.66-1.91-6.82-2.4-8.01c-0.33-0.82-0.6-1.97-1.51-2.32
					c-0.17-0.07-0.4,0.07-0.44,0.25c-0.21,0.97,0.07,2.02,0.24,2.98c0.18,1.05,0.86,3.58,1.07,4.62c-0.64-1.52-2.07-4.38-2.89-5.83
					c-0.29-0.52-0.65-1.31-1.35-1.34c-0.75-0.03-0.64,0.69-0.5,1.22c0.22,0.81,0.48,1.56,0.83,2.31c0.41,0.86,0.71,1.77,1.09,2.64
					c0.34,0.78,0.68,1.56,1.01,2.34c-0.18-0.28-0.44-0.51-0.63-0.78c-0.49-0.71-1.01-1.41-1.53-2.1c-0.46-0.61-0.91-1.3-1.49-1.8
					c-0.36-0.31-0.9-0.66-1.3-0.23c-0.32,0.34-0.06,0.78,0.07,1.15c0.49,1.46,1.39,2.79,2.17,4.1c0.33,0.56,0.6,1.26,0.95,1.82
					c-0.5-0.39-1.05-0.75-1.52-1.13c-0.58-0.48-1.18-0.93-1.81-1.34c-0.35-0.23-0.94-0.64-1.37-0.38c-0.39,0.23-0.33,0.54-0.2,0.9
					c0.37,1,3.47,4.3,4.22,5.14c0.6,0.67,2.01,1.82,2.07,1.89c0.04,1.58,0.15,3.15,0.22,4.74c0.09,2.15,0.22,4.3,0.46,6.43
					c0.44,3.96,1.19,7.92,2.51,11.68c0.63,1.8,1.41,3.58,2.34,5.24c0.74,1.31,1.64,2.61,2.94,3.4c3.08,1.89,7.08,0.01,9.96-1.41
					c1.84-0.91,3.59-1.99,5.24-3.22c1.59-1.19,3.23-2.5,4.46-4.07c0.17,0.04,0.37-0.04,0.45-0.24
					C295.7,131.96,294.74,129.1,293.82,127.02z"/>
				<path class="st7" d="M338.69,103.57c-1.88-2.99-5.06-4.77-6.73-7.88c-1.78-3.33-1.55-6.95-1.67-10.72
					c-0.08-2.61-0.62-5.2-1.58-7.63c-0.4-1-0.88-2-1.64-2.77c-1.59-1.63-4.07-1.99-6.35-2.01c-2.32-0.02-4.54-0.03-6.66,0.72
					c-5-1.92-11.26-2.3-15.85,0.42c-4.68,2.77-7.47,8.91-5.46,13.96c0.46,1.16,1.14,2.22,1.6,3.38c0.76,1.9,0.9,4.05,0.4,6.03
					c-0.74,2.96-3.3,5.97-4.09,8.92c-0.98,3.64,0.18,7.66,2.52,10.62c2.34,2.96,6.23,4.4,9.82,5.59c3.58,1.19,7.36,1.64,11.12,1.98
					c3.65,0.33,7.36,0.56,10.96-0.16c3.52-0.7,6.85-2.33,9.57-4.66c2.25-1.93,4.11-4.39,4.97-7.22
					C340.48,109.3,340.27,106.08,338.69,103.57z"/>
				<path class="st8" d="M303.2,113.18c-2.03,0.45-4.06,0.91-6.09,1.36c-0.78,0.17-1.56,0.35-2.26,0.74
					c-0.88,0.49-1.54,1.27-2.2,2.04c-2.61,3.06-5.3,6.04-8.07,8.95c3.17,1.76,5.69,4.68,6.95,8.09c0.32,0.87,0.57,1.77,1.02,2.58
					c0.97-1.12,1.69-2.43,2.4-3.73c1.35-2.47,2.71-4.96,3.49-7.65c0.62-2.12,0.87-4.33,1.39-6.47c0.52-2.15,1.1-3.83,2.67-5.39"/>
				<path class="st8" d="M330.53,120.73c-3.94-2.56-7.76-4.94-12.16-6.61c-4.39-1.67-9.47-2.24-14.07-1.27l0.06-0.42
					c-1.54,0.88-3.48,1.04-4.81,2.22c-0.54,0.48-0.94,1.1-1.32,1.72c-2.51,4.09-4.61,8.43-6.26,12.94c-0.78,2.14-1.47,4.35-1.5,6.63
					c-0.03,2.28,0.66,4.65,2.3,6.22c0.48,0.46,1.05,0.88,1.3,1.49c0.24,0.6,0.13,1.27,0.03,1.9c-0.93,5.65-1.38,11.38-1.36,17.1
					c0,0.33,0.02,0.7,0.25,0.95c0.19,0.2,0.49,0.26,0.77,0.31c9.96,1.66,20.38,0.5,29.73-3.32c0.29-0.12,0.61-0.26,0.77-0.53
					c0.16-0.28,0.13-0.62,0.09-0.94c-0.25-2.01-0.75-4-0.77-6.02c-0.06-6,0.6-11.38,1.63-16.71c1.02-5.33,1.91-10.03,5.42-14.18
					c0.16-0.19,0.33-0.41,0.29-0.65C330.89,121.35,330.72,120.86,330.53,120.73z"/>
				<path class="st6" d="M304.45,104.26c0.15,2.45,0.16,4.9,0.04,7.35c-0.01,0.27-0.03,0.54-0.13,0.79
					c-0.1,0.24-0.28,0.43-0.45,0.63c-1.67,1.9-2.95,4.12-3.77,6.51c-0.72,2.12-0.98,4.7,0.47,6.39c0.98,1.14,2.57,1.62,4.07,1.54
					c1.5-0.08,2.93-0.66,4.26-1.36c4.76-2.49,8.65-6.61,10.88-11.5c-2.38-0.54-4.1-2.75-4.77-5.1c-0.66-2.35-0.47-4.85-0.27-7.28
					c-3.34,0.81-6.7,1.58-10.06,2.33"/>
				<g>
					<path class="st9" d="M304.55,109.86c2.59,0.36,5.13-0.33,7.53-1.31c0.84-0.34,1.76-0.77,2.58-1.32
						c-0.14-1.65-0.01-3.33,0.13-4.99c-3.34,0.81-6.7,1.58-10.06,2.33l-0.28-0.31C304.56,106.12,304.6,107.99,304.55,109.86z"/>
				</g>
				<path class="st6" d="M318.48,93.84c0.76-1.03,1.86-1.81,3.08-2.18c0.54-0.16,1.14-0.25,1.67-0.05c0.78,0.28,1.27,1.13,1.24,1.96
					c-0.03,0.83-0.51,1.6-1.16,2.1c-0.65,0.51-1.46,0.77-2.28,0.9c-0.74,0.12-1.55,0.12-2.19-0.28c-0.56-0.34-0.93-0.97-0.95-1.63"
					/>
				<path class="st6" d="M299.43,78.45c-1.54,4.34-2.85,8.85-2.78,13.45c0.07,4.6,1.69,9.36,5.18,12.35
					c0.6,0.52,1.26,0.98,1.96,1.35c3.8,2.01,9,1.31,11.72-2.03c1.6-1.96,2.92-4.72,3.44-7.19c0.76-3.64,0.7-7.61,0.69-11.33
					c-0.01-1.56-0.3-3.07-1.15-4.38c-1.29-1.99-3.9-4.51-6.23-4.98c-2.95-0.59-5.91,0.71-8.91,0.94c-1.66,0.13-3.46,0.61-4.4,1.99"
					/>
				<path class="st7" d="M294.59,84.75c3.12,0.82,6.48-0.03,9.29-1.62c2.8-1.59,5.15-3.86,7.46-6.1c0.83,3.14,1.58,6.07,2.95,9.01
					c1.17,2.52,3.29,6.91,5.97,7.65c0.89-2.17,1.36-6.1,1.36-8.44c0-2.34-0.65-4.73-2.08-6.59c-1.33-1.74-3.28-2.94-5.35-3.65
					c-2.07-0.71-4.27-0.96-6.46-1.06c-3.1-0.14-6.49,0.14-8.8,2.21c-2.35,2.11-2.97,5.49-3.45,8.6"/>
				<path class="st6" d="M336.4,136.58c-0.01-0.97-0.04-1.93-0.08-2.9c-0.03-0.69,0.01-1.48-0.28-2.12
					c-0.57-1.29-2.23-1.62-3.48-1.81c-3.15-0.49-6.79,0.33-9.14,2.55c-0.29,0.27-0.09,0.72,0.22,0.83
					c-0.06,1.93,0.23,3.92,0.36,5.83c0.15,2.32,0.28,4.65,0.37,6.98c0.19,4.59,0.32,9.19,0.36,13.79c0,0.3,0.24,0.5,0.52,0.52
					c3,0.27,6.2-0.68,8.44-2.74c1.06-0.97,1.72-2.18,1.91-3.6c0.25-1.9,0.36-3.83,0.48-5.74
					C336.34,144.31,336.46,140.45,336.4,136.58z"/>
				<path class="st8" d="M328.44,119.48c0,0,5.38,3.06,7.14,5.66c1.76,2.6,1.38,7.65,1.45,9.26c0.08,1.61-0.15,3.29-0.15,3.29
					s-1.48-0.31-5.84,0.77c-4.87,1.2-7.58,2.68-7.58,2.68s-0.69-5.74-1.15-8.88C321.86,129.13,323.85,118.8,328.44,119.48z"/>
				<g>
					<path class="st8" d="M307.77,90.88c-0.29,0.51-0.4,1.19-0.22,1.73c0.4,1.18,2.13,1,2.47-0.22c0.1-0.35,0.08-0.72,0.01-1.07
						c-0.14-0.75-0.75-1.55-1.65-1.08c-0.22,0.11-0.39,0.29-0.53,0.5C307.83,90.79,307.8,90.83,307.77,90.88z"/>
				</g>
				<g>
					<path class="st8" d="M300.35,90.74c-0.21,0.54-0.24,1.23-0.01,1.74c0.52,1.12,2.14,0.73,2.32-0.52
						c0.05-0.36-0.01-0.73-0.11-1.07c-0.22-0.72-0.89-1.45-1.69-0.87c-0.19,0.14-0.34,0.34-0.44,0.56
						C300.39,90.64,300.37,90.69,300.35,90.74z"/>
				</g>
				<g>
					<path class="st10" d="M304.64,90.31c-0.15,0.52-0.13,1.04-0.13,1.58c0,0.58,0.03,1.17,0.04,1.75c0.01,0.24,0.08,0.6,0.03,0.84
						c-0.03,0.13,0.02,0.09-0.16,0.07c-0.15-0.02-0.29-0.02-0.44-0.03c-0.56-0.04-1.14-0.03-1.7-0.09
						c-0.09-0.01-0.16,0.07-0.19,0.14c-0.24,0.71,0.05,1.49,0.61,1.96c0.29,0.24,0.65,0.4,1.01,0.48c0.32,0.07,0.8,0.18,1.08-0.03
						c0.07-0.05,0.04-0.17-0.03-0.2c-0.23-0.13-0.54-0.05-0.8-0.09c-0.33-0.06-0.66-0.18-0.93-0.39c-0.5-0.38-0.74-1.02-0.57-1.63
						c-0.06,0.05-0.13,0.1-0.19,0.14c0.63,0.03,1.26,0.12,1.88,0.18c0.23,0.02,0.53,0.1,0.73-0.06c0.18-0.14,0.17-0.38,0.17-0.59
						c-0.01-0.69-0.01-1.38-0.03-2.07c-0.02-0.66-0.01-1.34-0.22-1.97C304.78,90.23,304.66,90.23,304.64,90.31L304.64,90.31z"/>
				</g>
				<path class="st8" d="M310.91,97.61c-0.77,0.28-1.54,0.53-2.33,0.73c-1.59,0.42-3.21,0.75-4.81,1.16c0,0,0,0,0,0.01
					c0.62,1.55,2.69,2.79,4.34,2.54c1.2-0.18,1.99-1.01,2.66-1.96c0.62-0.87,1.03-1.86,1.26-2.9
					C311.66,97.34,311.28,97.47,310.91,97.61z"/>
				<g>
					<path class="st7" d="M299.37,88.9c0.11-0.17,0.25-0.3,0.4-0.46c0.08-0.08,0.15-0.16,0.23-0.24c0.04-0.04,0.08-0.07,0.12-0.11
						c0.03-0.02,0.05-0.04,0.01-0.01c0.02-0.02,0.05-0.04,0.07-0.05c0.18-0.13,0.38-0.21,0.57-0.32c0.09-0.05,0.18-0.1,0.27-0.14
						c0.03-0.01-0.04,0.01,0.02-0.01c0.04-0.02,0.09-0.03,0.13-0.06c0.06-0.03,0.1-0.09,0.15-0.13c0.1-0.09,0.08-0.29-0.04-0.34
						c-0.06-0.03-0.12-0.06-0.18-0.07c-0.07-0.02-0.15-0.01-0.22,0c-0.14,0.02-0.27,0.04-0.41,0.07c-0.27,0.07-0.51,0.25-0.73,0.42
						c-0.2,0.15-0.4,0.35-0.53,0.56c-0.13,0.21-0.22,0.46-0.27,0.7C298.9,88.98,299.23,89.11,299.37,88.9L299.37,88.9z"/>
				</g>
				<g>
					<path class="st7" d="M308.82,88.37c0.21-0.04,0.42-0.03,0.62,0.02c0.06,0.01,0.12,0.03,0.18,0.05
						c0.02,0.01,0.05,0.02,0.07,0.03c0.02,0.01,0.02,0.01-0.01,0c0.03,0.01,0.05,0.02,0.08,0.03c0.03,0.01,0.06,0.02,0.09,0.03
						c0,0,0.1,0.04,0.04,0.01c0.05,0.02,0.11,0.05,0.16,0.08c0.05,0.03,0.1,0.06,0.15,0.09c0.02,0.01,0.04,0.03,0.07,0.04
						c0.01,0.01,0.03,0.02,0.04,0.03c-0.02-0.02-0.03-0.02-0.01-0.01c0.09,0.07,0.17,0.15,0.25,0.24c0.02,0.02,0.03,0.04,0.05,0.06
						c-0.07-0.09,0.1,0.13,0.06,0.08c0.04,0.04,0.08,0.08,0.12,0.12c0.02,0.02,0.03,0.04,0.05,0.06c-0.05-0.06,0.09,0.11,0.05,0.07
						c0.05,0.05,0.11,0.08,0.17,0.11c0.13,0.07,0.26,0,0.31-0.12c0.11-0.31-0.08-0.65-0.29-0.87c-0.2-0.21-0.44-0.38-0.7-0.5
						c-0.28-0.13-0.56-0.2-0.87-0.18c-0.29,0.02-0.56,0.08-0.81,0.21C308.5,88.15,308.64,88.4,308.82,88.37L308.82,88.37z"/>
				</g>
				<path class="st11" d="M306.07,100.39c0.78-0.12,1.59-0.32,2.32-0.61c0.71-0.28,1.38-0.7,1.87-1.29
					c0.21-0.26,0.39-0.54,0.53-0.84c-0.73,0.26-1.46,0.49-2.21,0.69c-1.59,0.42-3.21,0.75-4.81,1.16c0,0,0,0,0,0.01
					c0.13,0.34,0.35,0.65,0.6,0.95C304.93,100.51,305.51,100.48,306.07,100.39z"/>
			</g>
		</g>
		<g>
			<path class="st11" d="M153.19,94.05c-0.01-0.43-0.01-0.85-0.02-1.28c-0.01-0.79-0.03-1.59-0.04-2.38c-0.01-0.79-0.01-1.59,0-2.38
				c0.01-0.76,0.14-1.73-0.15-2.45c-0.08-0.2-0.29-0.24-0.42-0.12c-0.38-0.07-0.83-0.01-1.17-0.02c-0.64-0.03-1.37-0.13-1.93-0.47
				c-1.23-0.75-1.82-2.43-1.96-3.78c-0.08-0.82-0.13-1.63-0.31-2.44c-0.11-0.51-0.28-1.23-0.91-1.29c-0.53-0.05-0.87,0.47-1.07,0.88
				c-0.35,0.72-0.64,1.48-0.84,2.25c-0.24,0.91-0.47,1.84-0.61,2.77c-0.04,0.26-0.08,0.53-0.12,0.8c-0.29-0.01-0.57-0.02-0.86-0.03
				c-0.71-0.03-1.41-0.06-2.12-0.07c-1.2-0.03-2.46-0.01-3.58,0.45c-0.88,0.36-1.93,1.18-1.47,2.26c0.21,0.49,0.74,0.89,1.32,1.12
				c-0.34,0.12-0.67,0.29-0.94,0.52c-0.42,0.36-0.63,0.92-0.49,1.47c0.14,0.53,0.56,0.94,1.04,1.17c0.08,0.04,0.17,0.07,0.26,0.1
				c-0.38,0.14-0.73,0.35-0.98,0.66c-0.38,0.47-0.43,1.11-0.07,1.61c0.39,0.53,1.08,0.78,1.71,0.86c-0.17,0.13-0.31,0.28-0.42,0.49
				c-0.24,0.46-0.25,1.02,0.1,1.43c0.36,0.43,0.95,0.53,1.47,0.6c1.05,0.14,2.12,0.16,3.18,0.17c2.05,0.01,4.1-0.03,6.13-0.29
				c0.99-0.13,1.99-0.28,2.97-0.47c0.75-0.14,1.5-0.33,2.01-0.96c0.07-0.03,0.13-0.07,0.16-0.12
				C153.28,94.81,153.2,94.42,153.19,94.05z"/>
			<path class="st12" d="M157.73,94.68c-0.08-1.57-0.09-3.15-0.13-4.73c-0.04-1.61-0.05-3.43,0.17-5.03
				c0.1-0.69-4.73-0.38-5.14-0.39c-0.37,0-1.27-0.17-1.53,0.19c-0.1,0.14-0.09,0.37-0.11,0.53c-0.04,0.41-0.09,0.82-0.13,1.23
				c-0.34,3.22-0.42,6.51-0.03,9.73c0.02,0.2,0.14,0.32,0.34,0.34c1.53,0.14,3.09,0.25,4.63,0.18c0.4-0.02,0.81-0.04,1.21-0.08
				c0.21-0.02,0.45-0.03,0.61-0.2C158,96.06,157.76,95.16,157.73,94.68z"/>
			<path class="st11" d="M155.33,93.13c0.01-0.18-0.02-0.35-0.08-0.51c-0.15-0.41-0.54-0.73-0.97-0.77
				c-0.64-0.07-1.16,0.46-1.17,1.08c-0.01,0.79,0.88,1.59,1.66,1.18C155.13,93.92,155.32,93.53,155.33,93.13z M154.26,92.46
				C154.25,92.46,154.25,92.46,154.26,92.46C154.25,92.46,154.25,92.46,154.26,92.46C154.25,92.46,154.26,92.46,154.26,92.46z"/>
		</g>
		<g>
			<path class="st11" d="M198.97,354.2c-0.01-0.43-0.01-0.85-0.02-1.28c-0.01-0.79-0.03-1.59-0.04-2.38c-0.01-0.79-0.01-1.59,0-2.38
				c0.01-0.76,0.14-1.73-0.15-2.45c-0.08-0.2-0.29-0.24-0.42-0.12c-0.38-0.07-0.83-0.01-1.17-0.02c-0.64-0.03-1.37-0.13-1.93-0.47
				c-1.23-0.74-1.82-2.43-1.96-3.78c-0.08-0.82-0.13-1.63-0.31-2.44c-0.11-0.51-0.28-1.23-0.91-1.29c-0.53-0.05-0.87,0.47-1.07,0.88
				c-0.35,0.72-0.64,1.48-0.84,2.25c-0.24,0.91-0.47,1.84-0.61,2.77c-0.04,0.26-0.08,0.53-0.12,0.8c-0.29-0.01-0.57-0.02-0.86-0.03
				c-0.71-0.03-1.41-0.06-2.12-0.07c-1.2-0.03-2.46-0.01-3.58,0.45c-0.88,0.36-1.93,1.18-1.47,2.25c0.21,0.49,0.74,0.89,1.32,1.12
				c-0.34,0.12-0.67,0.29-0.94,0.52c-0.42,0.36-0.63,0.92-0.49,1.47c0.14,0.53,0.56,0.94,1.04,1.17c0.08,0.04,0.17,0.07,0.26,0.1
				c-0.38,0.14-0.73,0.35-0.98,0.66c-0.38,0.47-0.43,1.11-0.07,1.61c0.39,0.53,1.08,0.78,1.71,0.86c-0.17,0.13-0.31,0.28-0.42,0.49
				c-0.24,0.46-0.25,1.02,0.1,1.43c0.36,0.43,0.95,0.53,1.47,0.6c1.05,0.14,2.12,0.16,3.18,0.17c2.05,0.01,4.1-0.03,6.13-0.29
				c0.99-0.13,1.99-0.28,2.97-0.47c0.75-0.14,1.5-0.33,2.01-0.96c0.07-0.03,0.13-0.07,0.16-0.12
				C199.06,354.96,198.97,354.57,198.97,354.2z"/>
			<path class="st12" d="M203.51,354.83c-0.08-1.57-0.09-3.15-0.13-4.73c-0.04-1.61-0.05-3.43,0.17-5.03
				c0.1-0.69-4.73-0.38-5.14-0.39c-0.37,0-1.27-0.17-1.53,0.19c-0.1,0.14-0.09,0.37-0.11,0.53c-0.04,0.41-0.09,0.82-0.13,1.23
				c-0.34,3.22-0.42,6.51-0.03,9.73c0.02,0.2,0.14,0.32,0.34,0.34c1.53,0.14,3.09,0.25,4.63,0.18c0.4-0.02,0.81-0.04,1.21-0.08
				c0.21-0.02,0.45-0.03,0.61-0.2C203.78,356.21,203.54,355.31,203.51,354.83z"/>
			<path class="st11" d="M201.1,353.28c0.01-0.18-0.02-0.35-0.08-0.51c-0.15-0.41-0.54-0.73-0.97-0.77
				c-0.64-0.07-1.16,0.46-1.17,1.08c-0.01,0.79,0.88,1.59,1.66,1.18C200.91,354.07,201.09,353.68,201.1,353.28z M200.03,352.61
				C200.03,352.61,200.03,352.61,200.03,352.61C200.03,352.61,200.03,352.61,200.03,352.61
				C200.02,352.61,200.04,352.61,200.03,352.61z"/>
		</g>
		<g>
			<path class="st11" d="M281.19,225.49c-0.01-0.43-0.01-0.85-0.02-1.28c-0.01-0.79-0.03-1.59-0.04-2.38
				c-0.01-0.79-0.01-1.59,0-2.38c0.01-0.76,0.14-1.73-0.15-2.45c-0.08-0.2-0.29-0.24-0.42-0.12c-0.38-0.07-0.83-0.01-1.17-0.02
				c-0.64-0.03-1.37-0.13-1.93-0.47c-1.23-0.74-1.82-2.43-1.96-3.78c-0.08-0.82-0.13-1.63-0.31-2.44c-0.11-0.51-0.28-1.23-0.91-1.29
				c-0.53-0.05-0.87,0.47-1.07,0.88c-0.35,0.72-0.64,1.48-0.84,2.25c-0.24,0.91-0.47,1.84-0.61,2.77c-0.04,0.26-0.08,0.53-0.12,0.8
				c-0.29-0.01-0.57-0.02-0.86-0.03c-0.71-0.03-1.41-0.06-2.12-0.07c-1.2-0.03-2.46-0.01-3.58,0.45c-0.88,0.36-1.93,1.18-1.47,2.25
				c0.21,0.49,0.74,0.89,1.32,1.12c-0.34,0.12-0.67,0.29-0.94,0.52c-0.42,0.36-0.63,0.92-0.49,1.47c0.14,0.53,0.56,0.94,1.04,1.17
				c0.08,0.04,0.17,0.07,0.26,0.1c-0.38,0.14-0.73,0.35-0.98,0.66c-0.38,0.47-0.43,1.11-0.07,1.61c0.39,0.53,1.08,0.78,1.71,0.86
				c-0.17,0.13-0.31,0.28-0.42,0.49c-0.24,0.46-0.25,1.02,0.1,1.43c0.36,0.43,0.95,0.53,1.47,0.6c1.05,0.14,2.12,0.16,3.18,0.17
				c2.05,0.01,4.1-0.03,6.13-0.29c0.99-0.13,1.99-0.28,2.97-0.47c0.75-0.14,1.5-0.33,2.01-0.96c0.07-0.03,0.13-0.07,0.16-0.12
				C281.28,226.25,281.2,225.86,281.19,225.49z"/>
			<path class="st12" d="M285.73,226.12c-0.08-1.57-0.09-3.15-0.13-4.73c-0.04-1.61-0.05-3.43,0.17-5.03
				c0.1-0.69-4.73-0.38-5.14-0.39c-0.37,0-1.27-0.17-1.53,0.19c-0.1,0.14-0.09,0.37-0.11,0.53c-0.04,0.41-0.09,0.82-0.13,1.23
				c-0.34,3.22-0.42,6.51-0.03,9.73c0.02,0.2,0.14,0.32,0.34,0.34c1.53,0.14,3.09,0.25,4.63,0.18c0.4-0.02,0.81-0.04,1.21-0.08
				c0.21-0.02,0.45-0.03,0.61-0.2C286,227.5,285.76,226.6,285.73,226.12z"/>
			<path class="st11" d="M283.33,224.57c0.01-0.18-0.02-0.35-0.08-0.51c-0.15-0.41-0.54-0.73-0.97-0.77
				c-0.64-0.07-1.16,0.46-1.17,1.08c-0.01,0.79,0.88,1.59,1.66,1.18C283.13,225.36,283.31,224.97,283.33,224.57z M282.26,223.9
				C282.25,223.9,282.25,223.9,282.26,223.9C282.25,223.9,282.25,223.9,282.26,223.9C282.25,223.9,282.26,223.9,282.26,223.9z"/>
		</g>
		<g>
			<path class="st11" d="M102.15,226.09c-0.01-0.43-0.01-0.85-0.02-1.28c-0.01-0.79-0.03-1.59-0.04-2.38
				c-0.01-0.79-0.01-1.59,0-2.38c0.01-0.76,0.14-1.73-0.15-2.45c-0.08-0.2-0.29-0.24-0.42-0.12c-0.38-0.07-0.83-0.01-1.17-0.02
				c-0.64-0.03-1.37-0.13-1.93-0.47c-1.23-0.74-1.82-2.43-1.96-3.78c-0.08-0.82-0.13-1.63-0.31-2.44c-0.11-0.51-0.28-1.23-0.91-1.29
				c-0.53-0.05-0.87,0.47-1.07,0.88c-0.35,0.72-0.64,1.48-0.84,2.25c-0.24,0.91-0.47,1.84-0.61,2.77c-0.04,0.26-0.08,0.53-0.12,0.8
				c-0.29-0.01-0.57-0.02-0.86-0.03c-0.71-0.03-1.41-0.06-2.12-0.07c-1.2-0.03-2.46-0.01-3.58,0.45c-0.88,0.36-1.93,1.18-1.47,2.25
				c0.21,0.49,0.74,0.89,1.32,1.12c-0.34,0.12-0.67,0.29-0.94,0.52c-0.42,0.36-0.63,0.92-0.49,1.47c0.14,0.53,0.56,0.94,1.04,1.17
				c0.08,0.04,0.17,0.07,0.26,0.1c-0.38,0.14-0.73,0.35-0.98,0.66c-0.38,0.47-0.43,1.11-0.07,1.61c0.39,0.53,1.08,0.78,1.71,0.86
				c-0.17,0.13-0.31,0.28-0.42,0.49c-0.24,0.46-0.25,1.02,0.1,1.43c0.36,0.43,0.95,0.53,1.47,0.6c1.05,0.14,2.12,0.16,3.18,0.17
				c2.05,0.01,4.1-0.03,6.13-0.29c0.99-0.13,1.99-0.28,2.97-0.47c0.75-0.14,1.5-0.33,2.01-0.96c0.07-0.03,0.13-0.07,0.16-0.12
				C102.24,226.85,102.15,226.46,102.15,226.09z"/>
			<path class="st12" d="M106.69,226.71c-0.08-1.57-0.09-3.15-0.13-4.73c-0.04-1.61-0.05-3.43,0.17-5.03
				c0.1-0.69-4.73-0.38-5.14-0.39c-0.37,0-1.27-0.17-1.53,0.19c-0.1,0.14-0.09,0.37-0.11,0.53c-0.04,0.41-0.09,0.82-0.13,1.23
				c-0.34,3.22-0.42,6.51-0.03,9.73c0.02,0.2,0.14,0.32,0.34,0.34c1.53,0.14,3.09,0.25,4.63,0.18c0.4-0.02,0.81-0.04,1.21-0.08
				c0.21-0.02,0.45-0.03,0.61-0.2C106.96,228.1,106.72,227.2,106.69,226.71z"/>
			<path class="st11" d="M104.28,225.16c0.01-0.18-0.02-0.35-0.08-0.51c-0.15-0.41-0.54-0.73-0.97-0.77
				c-0.64-0.07-1.16,0.46-1.17,1.08c-0.01,0.79,0.88,1.59,1.66,1.18C104.09,225.96,104.27,225.56,104.28,225.16z M103.21,224.5
				C103.21,224.5,103.21,224.5,103.21,224.5C103.21,224.5,103.21,224.5,103.21,224.5C103.2,224.5,103.22,224.5,103.21,224.5z"/>
		</g>
		<g>
			<path class="st8" d="M222.77,290.93h-70.28c-6.48,0-11.74-5.26-11.74-11.74V132.01c0-6.48,5.26-11.74,11.74-11.74h70.28
				c6.48,0,11.74,5.26,11.74,11.74v147.18C234.5,285.68,229.25,290.93,222.77,290.93z"/>
			<path class="st11" d="M218.92,285.88h-62.59c-5.96,0-10.8-4.83-10.8-10.8V136.12c0-5.96,4.83-10.8,10.8-10.8h62.59
				c5.96,0,10.8,4.83,10.8,10.8v138.96C229.72,281.05,224.88,285.88,218.92,285.88z"/>
			<path class="st12" d="M207.98,260.83c-1.84-10-3.47-13.52-3.47-13.52l-21.84-3.88c0,0.1,0.09,0.73,0.26,1.75l-14.95,0.7
				c0,0-0.41,10.46-1.02,22.3c-0.52,10.03-0.74,16.08-0.8,17.7H186l1.61-19.15c0.27,1.36,0.53,2.66,0.78,3.89
				c1.69,8.16,2.99,13.02,3.63,15.25h21.03C212.26,282.12,209.54,269.29,207.98,260.83z"/>
			<g>
				<path class="st6" d="M160.41,196.91c-0.26-2.35-1.56-4.5-2.54-6.6c-0.07-0.15-0.2-0.2-0.34-0.2c-0.27-0.35-0.64-0.59-1.11-0.65
					c-1.62-0.19-3.05,1.78-4.07,2.74c-2.42,2.27-4.98,4.37-7.47,6.56c-0.01-0.1-0.02-0.2-0.03-0.3c-0.19-1.82-0.39-3.64-0.62-5.46
					c-0.31-2.53-0.54-5.15-1.01-7.69c0.97-1,1.83-2.1,2.53-3.31c0.72-1.26,1.61-3.18,0.63-4.54c-0.9-1.24-2.41-0.62-3.09,0.49
					c-0.33,0.54-0.55,1.14-0.76,1.73c-0.1-0.02-0.19-0.04-0.28-0.05c-0.49-0.04-0.99,0.15-1.41,0.38c-0.43,0.24-0.84,0.54-1.22,0.86
					c-0.4,0.33-0.71,0.7-0.99,1.13c-0.07,0.1-0.02,0.2,0.06,0.25c-1.39,4.67-2,9.61-2.47,14.45c-0.23,2.4-0.44,4.81-0.24,7.22
					c0.16,1.99,0.51,4.29,1.68,5.96c2.46,3.53,7.3,2.11,10.43,0.47c1.94-1.02,3.79-2.26,5.55-3.58c1.59-1.2,3.21-2.49,4.53-3.99
					C159.6,201.15,160.66,199.14,160.41,196.91z"/>
				<path class="st4" d="M177.68,179.12c0,0-1.12-0.31-3.88-0.38c-2.76-0.08-7.81,0.77-11.71,3.75c-3.9,2.98-10.59,9.34-10.59,9.34
					s2.76,7.5,3.52,9.8c0.77,2.3,1.99,4.97,1.99,4.97l12.19-6.43L177.68,179.12z"/>
				<path class="st6" d="M178.41,172.01c0.13,3.24-1.1,6.52-3.35,8.87c-0.14,0.15-0.29,0.3-0.36,0.5c-0.05,0.15-0.05,0.31-0.04,0.46
					c0.09,1.42,1.03,2.7,2.25,3.43c1.22,0.73,2.68,0.97,4.11,0.95c3.85-0.06,7.61-2.07,9.8-5.23c0.13-0.18,0.25-0.38,0.28-0.6
					c0.03-0.23-0.05-0.45-0.13-0.67c-1.26-3.54-1.62-7.4-1.05-11.12c-3.57,1.8-7.49,2.9-11.47,3.21"/>
				<g>
					<path class="st9" d="M177.66,178.53c3.13,0.21,6.34-0.49,9.15-1.88c1.06-0.53,2.09-1.18,3.01-1.94
						c-0.23-2.03-0.21-4.08,0.1-6.1c-3.57,1.8-7.49,2.9-11.47,3.21l-0.03,0.2c0.09,2.23-0.48,4.48-1.57,6.43
						C177.11,178.47,177.38,178.51,177.66,178.53z"/>
				</g>
				<path class="st6" d="M175.29,144.12c-2.85,5.27-3.67,11.37-3.72,17.34c-0.02,2.69,0.11,5.44,1.11,7.95
					c1,2.5,3.01,4.75,5.66,5.43c2.58,0.67,5.31-0.22,7.73-1.35c1.34-0.63,2.66-1.34,3.77-2.32c2.06-1.83,3.22-4.44,3.98-7.06
					c1.47-5.09,1.6-10.55,0.38-15.71c-0.36-1.52-0.9-3.11-2.17-4.04c-1.08-0.8-2.5-0.96-3.85-1.07c-2.66-0.2-5.33-0.25-7.99-0.16
					c-1.75,0.06-3.64,0.25-4.97,1.38"/>
				<path class="st6" d="M193.15,161.15c0.43-0.57,0.94-1.08,1.51-1.51c0.73-0.54,1.59-0.97,2.5-0.94c0.91,0.03,1.84,0.61,2.04,1.49
					c0.13,0.57-0.04,1.16-0.27,1.69c-0.24,0.57-0.57,1.11-1.04,1.51c-0.68,0.56-1.57,0.74-2.43,0.91c-0.43,0.08-0.86,0.17-1.3,0.16
					c-0.22-0.01-0.45-0.04-0.64-0.14c-0.45-0.24-0.63-0.79-0.69-1.3c-0.11-0.83-0.03-1.69,0.24-2.48"/>
				<g>
					<path class="st8" d="M183.37,156.84c-0.37,0.52-0.58,1.25-0.44,1.86c0.29,1.34,2.19,1.34,2.7,0.06
						c0.15-0.37,0.17-0.78,0.14-1.17c-0.06-0.83-0.63-1.78-1.65-1.37c-0.25,0.1-0.46,0.27-0.63,0.48
						C183.44,156.74,183.4,156.79,183.37,156.84z"/>
				</g>
				<g>
					<path class="st8" d="M175.42,155.8c-0.28,0.57-0.39,1.31-0.2,1.9c0.41,1.29,2.1,1.05,2.43-0.29c0.09-0.39,0.07-0.79,0-1.17
						c-0.14-0.81-0.75-1.68-1.63-1.15c-0.21,0.13-0.38,0.33-0.51,0.56C175.48,155.69,175.45,155.74,175.42,155.8z"/>
				</g>
				<path class="st8" d="M176.38,164.41c0.63,0.87,0.9,2,0.7,3.05c-0.07,0.37-0.19,0.74-0.1,1.11c0.16,0.7,0.97,1.03,1.69,1.11
					c1.77,0.18,3.6-0.54,4.77-1.88c0.32-0.37,0.6-0.81,0.6-1.3c0-0.59-0.42-1.12-0.94-1.4c-0.52-0.29-1.12-0.37-1.71-0.44
					c-1.58-0.18-3.17-0.27-4.76-0.25"/>
				<path class="st4" d="M182.58,166.21c-0.71,0.13-1.31,0.55-1.81,1.05c-0.7,0.7-1.17,1.53-1.46,2.44
					c1.56-0.02,3.12-0.72,4.14-1.91c0.32-0.37,0.6-0.81,0.6-1.3c0-0.08-0.03-0.15-0.04-0.22
					C183.53,166.18,183.05,166.13,182.58,166.21z"/>
				<g>
					<path class="st13" d="M180.3,154.45c-0.25,1.32-0.45,2.65-0.84,3.94c-0.15,0.49-0.33,1.03-0.73,1.37
						c-0.54,0.46-1.21,0.16-1.83,0.24c-0.94,0.12-1.39,1.08-0.61,1.75c0.41,0.35,0.99,0.54,1.5,0.64c0.48,0.09,1.09,0.2,1.5-0.12
						c0.05-0.04,0.04-0.15-0.02-0.17c-0.21-0.1-0.37-0.1-0.6-0.1c-0.32,0-0.64-0.04-0.95-0.12c-0.42-0.11-1.21-0.33-1.33-0.83
						c-0.16-0.66,0.91-0.59,1.27-0.57c0.46,0.02,0.88-0.02,1.26-0.3c0.68-0.51,0.91-1.45,1.11-2.23c0.29-1.14,0.51-2.29,0.5-3.47
						C180.53,154.36,180.32,154.32,180.3,154.45L180.3,154.45z"/>
				</g>
				<g>
					<path class="st14" d="M184.77,153.95c0.23,0.02,0.46,0.09,0.68,0.16c0.06,0.02,0.11,0.04,0.17,0.06
						c0.07,0.03-0.03-0.01,0.02,0.01c0.03,0.01,0.05,0.02,0.08,0.04c0.11,0.05,0.22,0.11,0.33,0.17c0.05,0.03,0.1,0.06,0.15,0.09
						c0.03,0.02,0.05,0.03,0.07,0.05c0,0,0.09,0.07,0.04,0.03c-0.05-0.04,0.03,0.02,0.04,0.03c0.03,0.02,0.05,0.05,0.08,0.07
						c0.04,0.04,0.08,0.09,0.13,0.13c0.06,0.06,0.14,0.1,0.2,0.15c-0.07-0.05,0,0,0.01,0.01c0.02,0.02,0.05,0.04,0.07,0.06
						c0.05,0.05,0.1,0.11,0.16,0.15c0.04,0.03,0.09,0.05,0.14,0.07c0.05,0.02-0.02-0.01,0.04,0.01c0.13,0.06,0.28,0.02,0.32-0.13
						c0.02-0.07,0.04-0.15,0.04-0.22c0-0.09-0.04-0.17-0.07-0.25c-0.06-0.16-0.13-0.32-0.23-0.45c-0.19-0.25-0.49-0.44-0.76-0.59
						c-0.29-0.15-0.61-0.22-0.94-0.25c-0.32-0.02-0.61,0.06-0.9,0.19c-0.09,0.04-0.13,0.17-0.1,0.25
						C184.58,153.89,184.67,153.94,184.77,153.95L184.77,153.95z"/>
				</g>
				<g>
					<path class="st14" d="M177.32,151.83c-0.22-0.04-0.45-0.07-0.67-0.1c-0.25-0.03-0.49,0.01-0.73,0.06
						c-0.42,0.09-0.83,0.26-1.12,0.59c-0.16,0.18-0.34,0.49-0.28,0.73c0.03,0.12,0.12,0.24,0.24,0.27c0,0,0.13,0.02,0.05,0.01
						c-0.09-0.01,0.06,0.01,0.04,0.01c0.1,0.01,0.2-0.01,0.29-0.06c0.15-0.08,0.29-0.19,0.45-0.27c0.02-0.01,0.03-0.02,0.05-0.02
						c0.09-0.04-0.01,0-0.03,0.01c0.07-0.03,0.15-0.06,0.22-0.09c0.03-0.02,0.07-0.04,0.1-0.05c0.02-0.01,0.05-0.02,0.07-0.03
						c0.07-0.03-0.1,0.04-0.03,0.01c0.11-0.04,0.21-0.08,0.32-0.1c0.11-0.03,0.23-0.05,0.34-0.08c0.23-0.07,0.46-0.14,0.69-0.21
						c0.15-0.04,0.25-0.18,0.25-0.33C177.57,152.02,177.46,151.85,177.32,151.83L177.32,151.83z"/>
				</g>
				<path class="st14" d="M197.93,142.96c-0.48-0.6-1.11-1.09-1.84-1.37c-0.32-0.12-0.64-0.19-0.98-0.21
					c-0.67-0.05-1.38,0.24-2-0.11c-0.73-0.41-1.11-1.43-1.66-2.04c-0.59-0.64-1.33-1.15-2.14-1.48c-1.57-0.65-3.35-0.62-4.9,0.07
					c-0.91,0.41-1.81,1.33-2.88,1.12c-0.89-0.17-1.54-0.95-2.23-1.48c-1.29-0.98-2.83-1.1-4.15-0.07c-1.5,1.17-1.88,3.27-1.85,5.08
					c0.01,0.59,0.08,1.19,0.21,1.76c-0.05,0.22-0.1,0.45-0.13,0.67c-0.16,0.93-0.31,1.85-0.47,2.78c-0.31,1.85-0.77,3.86-0.82,6.06
					c-0.01,0.35,1.81-4.68,2.76-6.74c1.25,0.98,3.47,1.61,4.61,1.84c2,0.4,4.04,0.57,6.08,0.5c1.74-0.06,3.49-0.29,5.18-0.71
					c0.08,1.62,0.42,3.27,0.8,4.79c0.61,2.46,1.61,4.74,2.72,7.01c0.13,0.26,0.49,0.21,0.63,0c1.19-1.81,1.99-3.71,2.65-5.77
					c0.65-2.05,1.25-4.07,1.52-6.22C199.3,146.55,199.16,144.49,197.93,142.96z"/>
				<g>
					<path class="st6" d="M253.65,177.87c0.3-1.45-0.1-3.19-1.05-4.38c-0.38-0.3-0.75-0.6-1.14-0.89c-0.99-0.38-2.16-0.05-3.19,0.41
						c-0.06,0.03-0.11,0.07-0.17,0.1c-2.68,1.36-4.88,3.25-6.94,5.39c-0.02-0.04-0.04-0.09-0.05-0.13c-0.12-0.3-0.24-0.6-0.37-0.9
						c-0.27-0.62-0.55-1.23-0.85-1.84c-0.24-0.49-1.02-2.57-1.87-1.72c-0.32,0.32-0.35,0.84-0.38,1.27
						c-0.04,0.69,0.01,1.42,0.12,2.11c0.08,0.51,0.19,1.02,0.31,1.52c0,0.32,0.03,0.64,0.02,0.91c-0.01,0.86-0.02,1.72,0,2.58
						c0.01,0.56,0.02,1.13,0.04,1.7c-0.23,0.41-0.44,0.81-0.65,1.18c-1.54,2.83-3.41,5.47-5.55,7.88c-1.78,2-3.77,3.77-5.8,5.49
						c-0.85-0.55-1.7-1.12-2.53-1.71c-1.62-1.17-3.14-2.42-4.57-3.81c-0.19-0.18-0.44,0.05-0.37,0.26c-1,2.13-2,4.26-2.99,6.39
						c-0.48,1.03-0.97,2.06-1.45,3.09c-0.24,0.52-0.46,1.04-0.69,1.56c-0.18,0.42-0.42,0.84-0.55,1.29
						c-0.08-0.04-0.15-0.08-0.23-0.12c-0.22-0.11-0.38,0.21-0.18,0.34c0.11,0.07,0.23,0.14,0.34,0.21c0.03,0.1,0.12,0.17,0.22,0.14
						c2.85,1.75,5.7,3.58,8.67,5.11c1.26,0.65,2.61,1.21,4.04,1.33c1.49,0.12,2.46-0.54,3.5-1.53c2.32-2.22,3.93-5.09,5.63-7.78
						c1.85-2.91,3.72-5.82,5.39-8.84c0.95-1.71,1.91-3.41,2.82-5.14c0.37-0.7,0.77-1.41,1.14-2.14c0.54-0.42,1.06-0.87,1.6-1.3
						c1.15-0.93,2.34-1.97,3.48-2.93C250.03,182.4,253.38,179.16,253.65,177.87z"/>
					<g>
						<path class="st13" d="M247.11,176.03c0.59-0.49,0.88-0.58,1.45-1.09c0.58-0.52,1.17-1.03,1.81-1.48
							c0.34-0.24,0.7-0.47,1.1-0.61c0.07-0.03,0.14-0.06,0.21-0.08c-0.07-0.06-0.14-0.12-0.22-0.17c-0.07-0.03-0.14-0.04-0.22-0.06
							c-0.3,0.25-0.62,0.47-0.94,0.69c-0.67,0.45-1.31,0.91-1.91,1.46c-0.6,0.55-0.87,0.65-1.48,1.2c-0.27,0.24-0.53,0.49-0.78,0.75
							c-0.27,0.28-0.6,0.56-0.79,0.9c-0.03,0.05,0.04,0.11,0.09,0.08c0.27-0.2,0.48-0.47,0.72-0.71
							C246.46,176.6,246.78,176.31,247.11,176.03z"/>
						<path class="st13" d="M246.57,178.93c-0.09,0.08,0.01,0.24,0.11,0.16c1.27-1.02,2.59-1.79,3.79-2.89
							c0.6-0.55,1.22-1.09,1.86-1.6c0.22-0.18,0.44-0.35,0.67-0.53c-0.06-0.1-0.12-0.2-0.19-0.3c-0.2,0.16-0.41,0.31-0.6,0.47
							c-0.66,0.53-1.3,1.08-1.92,1.65C249.05,177.02,247.81,177.82,246.57,178.93z"/>
						<path class="st13" d="M253.68,176.52c0.02-0.01,0.04-0.03,0.06-0.04c-0.01-0.18-0.04-0.37-0.07-0.55
							c-0.07,0.05-0.14,0.11-0.2,0.16c-0.63,0.49-1.27,0.98-1.86,1.52c-1.19,1.06-2.65,2.07-3.89,3.08
							c-0.06,0.05,0.01,0.15,0.07,0.1c1.26-0.96,2.87-1.78,4.09-2.79C252.47,177.5,253.06,177,253.68,176.52z"/>
					</g>
				</g>
				<path class="st4" d="M175.33,178.95c0,0-0.82,3.57,2.24,5.2s6.84,0.61,9.59-0.92c2.76-1.53,3.8-3.51,3.8-3.51
					s7.63-3.22,14.47,1.16c6.84,4.39,15.61,12.96,15.61,12.96l-7.65,13.88l-9.29-4.49c0,0-0.1,16.22,0.51,27.55
					c0.61,11.33,2.76,18.98,2.76,18.98s-10.1,0.61-18.47,0.61c-8.37,0-21.63-0.92-21.63-0.92s-1.84-37.55-0.51-50.81
					c1.33-13.26,2.35-18.16,3.57-19.28C171.56,178.23,175.33,178.95,175.33,178.95z"/>
				<g>
					<path class="st12" d="M143.34,167.19c0.04,1.82-0.39,3.61-0.82,5.37c-0.7,2.9-1.48,5.95-3.54,8.12
						c-0.44,0.46-0.93,0.88-1.28,1.4c-0.35,0.53-0.55,1.21-0.32,1.8c0.39,1.01,1.76,1.23,2.8,0.93c2.39-0.67,3.9-2.99,5.05-5.2
						c1.85-3.54,3.37-7.25,4.55-11.06c0.05-0.18,0.11-0.36,0.06-0.54c-0.06-0.2-0.23-0.33-0.4-0.45c-1.72-1.14-4.05-1.3-5.92-0.41"
						/>
					<path class="st15" d="M138.89,140.92c0,0,1.54,4.86,7.16,7.82c5.61,2.96,5.71,3.16,9.29,3.67c3.57,0.51,6.28,1.76,7.35,5.82
						c1.11,4.22-0.2,8.67-3.37,10.71c-3.16,2.04-7.04,1.02-8.06,0.71c-1.02-0.31-3.16-1.22-7.65-1.02
						c-4.49,0.2-9.29,1.73-11.12,2.76c-1.84,1.02-3.69,1.78-3.69,1.78s-1.72-3.52-0.8-10.45c0.92-6.94,4.08-15.82,4.59-16.53
						C133.09,145.48,136.84,138.41,138.89,140.92z"/>
					<path class="st12" d="M138.89,140.92c-0.71-1.78-1.93-3.05-4.02-2.81c-0.91,0.1-1.73,0.6-2.45,1.17
						c-3.34,2.68-5.2,7.04-6.57,11c-1.92,5.57-2.63,11.48-1.88,17.33c0.31,2.41,1.41,7.02,4.81,5.56c2.26-0.97,3.87-3.52,5.11-5.54
						c3.53-5.76,5.4-12.41,5.83-19.13C139.85,146.7,139.85,143.34,138.89,140.92z"/>
					<path class="st12" d="M156.02,152.53c-0.23-0.04-0.46-0.08-0.69-0.11c-1.29-0.18-2.13-0.33-2.94-0.58
						c0.3,0.86,0.53,1.73,0.66,2.63c0.25,1.82-0.01,3.76-0.38,5.55c-0.35,1.68-0.92,3.32-1.66,4.87c-0.64,1.33-1.41,2.62-2.35,3.76
						c-0.07,0.09-0.15,0.18-0.23,0.27c1.39,0.25,2.27,0.59,2.82,0.75c0.15,0.05,0.37,0.11,0.64,0.17c0.18-0.16,0.35-0.33,0.51-0.5
						c0.67-0.71,1.28-1.49,1.8-2.31c1.45-2.28,2.42-5.03,2.81-7.7C157.35,157,157.18,154.55,156.02,152.53z"/>
					<path class="st15" d="M135.52,163.7c-1.09-1.9-3.74-3.99-5.48-5.33c-0.08-0.06-0.17-0.14-0.19-0.24
						c-0.01-0.09,0.03-0.17,0.08-0.25c1.1-2,1.96-4.29,1.8-6.57c2.22,0.5,5.08,0.45,7.12-0.13c-0.22,1.03-0.44,2.07-0.66,3.1
						c-0.43,2.01-0.86,4.04-1.7,5.92c-0.44,0.98-1,1.96-1.04,3.04"/>
					<path class="st11" d="M132.9,152.28c-0.26-0.71-0.97-1.26-1.75-1.07c-0.34,0.08-0.64,0.3-0.89,0.55c-1,1-1.47,2.57-1.53,3.95
						c-0.04,0.96,0.02,2.41,1.23,2.62c1.21,0.22,2.12-1.25,2.55-2.17c0.53-1.13,0.71-2.42,0.47-3.64
						C132.96,152.45,132.93,152.36,132.9,152.28z"/>
					<path class="st11" d="M138.89,140.92c-0.71-1.78-1.93-3.05-4.02-2.81c-0.91,0.1-1.73,0.6-2.45,1.17
						c-3.34,2.68-5.2,7.04-6.57,11c-1.92,5.57-2.63,11.48-1.88,17.33c0.31,2.41,1.41,7.02,4.81,5.56c2.26-0.97,3.87-3.52,5.11-5.54
						c3.53-5.76,5.4-12.41,5.83-19.13C139.85,146.7,139.85,143.34,138.89,140.92z M138.22,148.59c-0.37,6.12-1.96,12.18-4.96,17.43
						c-1.05,1.83-2.67,4.89-4.59,5.77c-2.89,1.33-3.83-2.87-4.1-5.06c-0.64-5.33,0.22-11.44,1.85-16.51
						c1.16-3.61,3.12-7.79,5.97-10.23c0.61-0.52,1.31-0.98,2.08-1.07c1.77-0.21,2.82,0.94,3.42,2.56
						C138.7,143.67,138.32,146.94,138.22,148.59z"/>
				</g>
				<path class="st6" d="M145.19,180.19c0.51-0.7,0.65-1.61,0.62-2.48c-0.03-0.87-0.22-1.72-0.27-2.59
					c-0.02-0.36-0.02-0.72,0.11-1.06c0.13-0.33,0.42-0.62,0.78-0.65c0.42-0.04,0.79,0.27,1.02,0.62c0.43,0.62,0.58,1.4,0.55,2.16
					c-0.03,0.75-0.23,1.49-0.45,2.21c-0.53,1.67-1.3,3.4-2.82,4.27c0.06-0.61,0.27-1.2,0.61-1.7"/>
				<path class="st6" d="M144.64,174.32c-0.34-0.46-0.72-0.9-1.19-1.23c-0.61-0.43-1.35-0.65-2.08-0.8
					c-0.32-0.06-0.63-0.12-0.96-0.12c-1.15-0.01-2.25,0.6-2.98,1.49c-0.73,0.89-1.12,2.02-1.27,3.15c-0.19,1.4-0.02,2.89,0.69,4.11
					c0.22,0.38,0.49,0.72,0.76,1.07c0.03,0.04,0.05,0.06,0.08,0.1c0.05-0.07,0.45-0.54,0.56-0.67c0.21-0.24,0.68-0.69,0.69-0.69
					c0.09-0.12,0.17-0.25,0.29-0.35c0.58-0.47,1.38-0.67,2.12-0.59c0.23,0.03,0.47,0.08,0.68,0.18c0.18,0.09,0.33,0.22,0.52,0.27
					c0.32,0.09,0.67-0.04,0.89-0.29c0.22-0.25,0.31-0.59,0.31-0.92c0-0.07,0-0.15,0.02-0.22c0.04-0.11,0.15-0.19,0.24-0.27
					c0.26-0.22,0.47-0.52,0.48-0.86c0-0.1-0.01-0.2,0.01-0.3c0.04-0.17,0.19-0.29,0.28-0.44c0.15-0.24,0.16-0.53,0.16-0.81
					C144.95,175.44,145.09,174.93,144.64,174.32z"/>
				<g>
					<path class="st13" d="M143.77,178.63c-0.2-0.15-0.4-0.29-0.61-0.42c-0.42-0.27-0.87-0.49-1.33-0.67
						c-0.93-0.36-1.9-0.57-2.9-0.56c-0.13,0-0.13,0.19,0,0.2c0.95,0.02,1.92,0.22,2.78,0.64c0.42,0.2,0.82,0.45,1.18,0.74
						c0.17,0.13,0.34,0.28,0.5,0.43c0.11,0.11,0.22,0.23,0.34,0.33c0.01-0.09,0.02-0.18,0.02-0.27c0-0.07,0-0.15,0.02-0.22
						c0.02-0.05,0.05-0.08,0.08-0.12C143.83,178.68,143.8,178.66,143.77,178.63z"/>
					<path class="st13" d="M144.61,177.22C144.61,177.22,144.61,177.21,144.61,177.22c-0.21-0.22-0.42-0.41-0.65-0.59
						c-0.45-0.36-0.93-0.67-1.45-0.91c-1.03-0.48-2.16-0.75-3.3-0.74c-0.19,0-0.19,0.3,0,0.3c1.12,0.01,2.19,0.3,3.17,0.84
						c0.47,0.26,0.91,0.56,1.31,0.91c0.21,0.18,0.4,0.38,0.59,0.58c0.07,0.08,0.13,0.15,0.2,0.21c0.01-0.04,0.02-0.08,0.02-0.11
						c0-0.1-0.01-0.2,0.01-0.3C144.53,177.33,144.57,177.27,144.61,177.22z"/>
					<path class="st13" d="M144.94,175.61c-0.6-0.64-1.29-1.14-2.08-1.52c-0.93-0.45-1.95-0.66-2.99-0.56
						c-0.16,0.02-0.16,0.25,0,0.25c0.97-0.04,1.94,0.18,2.8,0.63c0.77,0.4,1.47,1.03,2.03,1.69c0.05,0.06,0.14,0.19,0.24,0.3
						c0-0.08,0.01-0.17,0.01-0.25c0-0.18,0.01-0.35,0.02-0.51C144.96,175.63,144.94,175.62,144.94,175.61z"/>
				</g>
			</g>
		</g>
		<g>
			<defs>
				<path id="SVGID_5_" d="M127.58,348.33c0,0-3.88,0.2-11.84-4.9c-7.96-5.1-9.59-8.78-9.59-8.78s15.1-7.14,21.02-32.04
					c5.92-24.9-10.61-56.32-42.04-62.04s-50,8.98-57.75,36.73c-7.75,27.75,6.94,49.18,18.77,57.34c11.84,8.16,27.35,8.57,32.45,8.98
					c5.1,0.41,10-1.02,10-1.02s7.04,6.33,20.2,7.86C121.97,352,127.58,348.33,127.58,348.33z"/>
			</defs>
			<use xlink:href="#SVGID_5_"  style="overflow:visible;fill:#FFFFFF;"/>
			<clipPath id="SVGID_6_">
				<use xlink:href="#SVGID_5_"  style="overflow:visible;"/>
			</clipPath>
			<g class="st16">
				<path class="st17" d="M63.92,282.01c0.19,1.99,0.37,4,0.11,5.99c-0.26,1.98-1.01,3.96-2.44,5.36c1.19,1.33,2.98,2,4.75,2.18
					c1.26,0.13,4.6,6.85,6.45,6.57c0.75-0.11-0.25-6.41,0.6-6.94c0.74-0.46,0.82-1.53,0.95-2.39c0.39-2.75,0.56-6.17,0.27-8.93
					c-3.66,0.78-7.19,0.01-10.53-1.69"/>
				<path class="st17" d="M122,285.72c-0.29-0.38-0.8-0.1-1.09,0.1c-0.92,0.62-1.79,1.32-2.61,2.06c0.36-0.58,0.69-1.19,1.01-1.77
					c0.62-1.11,1.33-2.26,1.63-3.51c0.09-0.37,0.24-0.97-0.13-1.25c-0.42-0.31-0.89,0.15-1.18,0.42c-0.91,0.83-3,4-3.17,4.29
					c0.29-0.61,0.81-1.87,1.1-2.46c0.6-1.21,1.19-2.42,1.37-3.77c0.05-0.38,0.14-0.96-0.29-1.16c-0.44-0.2-0.93,0.36-1.2,0.63
					c-0.92,0.91-2.97,5.63-3.07,5.81c0.16-0.65,0.92-3.31,1.06-3.96c0.15-0.72,0.33-1.64,0.04-2.35c-0.15-0.37-0.49-0.72-0.85-0.41
					c-0.57,0.48-0.87,1.46-1.15,2.12c-0.52,1.27-0.98,2.55-1.43,3.85c-0.55,1.6-1.05,3.22-1.48,4.86c-0.49-0.68-1.07-1.3-1.61-1.82
					c-0.41-0.4-2.44-2.27-2.68-0.77c-0.05,0.33,0.07,0.69,0.16,1.01c0.13,0.49,0.27,0.97,0.44,1.44c0.28,0.79,0.71,1.54,1.05,2.36
					c0.71,1.71,1.84,3.07,0.98,5.01c-0.01,0.02-0.01,0.04,0,0.05c-0.08-0.01-0.16,0.07-0.11,0.15c0.5,0.76,1.46,1.28,2.26,1.66
					c0.88,0.41,1.84,0.67,2.81,0.77c0.24,0.02,0.47,0.04,0.71,0.04c0.19,0,0.49,0.05,0.65-0.08c0.12-0.1,0.12-0.17,0.06-0.24
					c0-0.01,0.01-0.01,0.01-0.01c0.24-0.95,0.44-1.91,0.6-2.88c0.08-0.46,0.15-0.93,0.21-1.4c0.16-0.17,0.31-0.35,0.46-0.52
					c0.36-0.4,0.7-0.81,1.04-1.22c0.72-0.88,1.41-1.78,2.1-2.69c0.69-0.91,1.4-1.86,1.92-2.87
					C121.82,286.86,122.31,286.11,122,285.72z"/>
				<path class="st12" d="M116.68,298.23c-0.02-0.27-0.3-0.38-0.49-0.27c-0.04-0.02-0.09-0.04-0.15-0.04
					c-2.74-0.23-5-1.03-7.17-2.75c-0.17-0.14-0.44-0.11-0.51,0.13c-1.04,3.74-2.36,7.46-3.84,11.05c-1.05,2.55-2.25,5.02-3.71,7.35
					c-0.66-0.7-1.44-1.31-2.11-1.96c-1-0.97-1.97-1.97-2.9-3c-1.96-2.16-3.82-4.42-5.56-6.76c-1.43-1.93-2.56-4.17-4.87-5.17
					c-2.81-1.21-5.78-2.14-8.66-3.16c-0.04-0.04-0.09-0.07-0.16-0.07c-0.43,0.01-0.88,0.09-1.31,0.14
					c-0.44,0.06-0.88,0.11-1.32,0.18c-0.82,0.12-1.62,0.27-2.43,0.46c-0.18-0.1-0.47,0.05-0.41,0.32c0.43,1.85,0.86,3.73,0.89,5.63
					c-0.21-0.68-0.41-1.37-0.63-2.05c-0.19-0.6-0.4-1.19-0.6-1.78c-0.19-0.55-0.34-1.14-0.65-1.64c0-0.08-0.04-0.16-0.14-0.16
					c-2.84,0.14-5.57-0.34-7.95-1.97c-0.1-0.07-0.27-0.07-0.37,0c-2.64,1.97-5.4,3.77-8.27,5.4c-2.65,1.5-5.38,2.84-7.65,4.9
					c-1.03,0.93-1.85,2.01-2.33,3.32c-0.55,1.51-0.71,3.16-0.94,4.74c-0.46,3.31-0.82,6.64-1.06,9.97
					c-0.29,3.95-0.45,7.93-0.37,11.89c0.01,0.34,0.32,0.47,0.57,0.4c1.09,1.58,2.24,3.03,3.83,4.16c1.62,1.15,3.51,2.02,5.44,2.46
					c0.15,0.03,0.27-0.01,0.36-0.08c0.12,0.03,0.27-0.01,0.31-0.15c0.84-2.96,1.18-6.11,1.48-9.21c-0.02,0.75-0.02,1.49-0.01,2.24
					c0.02,1.48,0.1,2.96,0.27,4.42c0.07,0.66,0.16,1.32,0.27,1.98c0.07,0.4,0.08,0.83,0.24,1.18c0.01,0.1,0.05,0.2,0.14,0.27
					c0.03,0.02,0.06,0.04,0.1,0.07c0.02,0.02,0.03,0.04,0.06,0.06c0.02,0.02,0.05,0.03,0.08,0.04c4.37,3.19,10.45,3.72,15.68,4.05
					c6.03,0.38,12.09-0.07,18.01-1.29c0.07,0.17,0.13,0.35,0.21,0.52c0.17,0.36,0.66,0.09,0.6-0.25c-0.3-1.66-0.73-3.29-0.97-4.97
					c-0.25-1.75-0.4-3.51-0.51-5.28c-0.21-3.37-0.36-6.75-0.53-10.12c-0.06-1.21-0.13-2.42-0.19-3.63c1.84,1.51,3.8,2.87,5.88,4.05
					c3.03,1.73,6.45,3.39,10.04,2.89c3.16-0.44,5.53-2.77,7.19-5.36c0.94-1.47,1.56-3.2,2.23-4.81c0.74-1.78,1.4-3.6,2.01-5.43
					c0.7-2.08,1.5-4.13,2-6.27C116.29,302.75,116.84,300.41,116.68,298.23z"/>
				<g>
					<path class="st18" d="M65.46,286.72c1.81,1.29,4.03,2.07,6.25,2.18c1.01,0.05,2.03-0.04,3.01-0.31
						c0.07-1.64,0.05-3.28-0.11-4.75c-3.66,0.78-7.19,0.01-10.53-1.69l-0.17-0.13c0.11,1.19,0.21,2.39,0.23,3.58
						C64.55,286.01,64.99,286.39,65.46,286.72z"/>
				</g>
				<path class="st17" d="M61.62,273.23c-0.77-0.67-1.46-1.46-2.36-1.95c-0.9-0.48-2.12-0.58-2.87,0.11
					c-0.5,0.46-0.69,1.21-0.57,1.88c0.12,0.67,0.51,1.27,1.01,1.74c1.42,1.32,3.68,1.51,5.45,0.71"/>
				<path class="st17" d="M60.6,258.66c-1.39,6.43-1.21,13.2,0.54,19.55c0.37,1.34,0.81,2.68,1.53,3.88
					c2.22,3.72,7.16,5.56,11.27,4.19c3.43-1.14,5.97-4.19,7.28-7.56c1.3-3.37,1.52-7.06,1.48-10.67c-0.02-2.51-0.52-5.1-1.96-7.16
					c-1.4-2-3.5-3.19-5.92-3.5c-2.42-0.32-4.87,0.08-7.27,0.56c-2.39,0.48-4.78,1.06-7.22,1.13"/>
				<g>
					<path class="st8" d="M69.15,270.85c-0.18,0.55-0.17,1.23,0.08,1.73c0.56,1.08,2.11,0.61,2.21-0.64
						c0.03-0.36-0.05-0.72-0.17-1.05c-0.25-0.7-0.94-1.39-1.68-0.77c-0.18,0.15-0.31,0.36-0.4,0.58
						C69.19,270.75,69.17,270.8,69.15,270.85z"/>
				</g>
				<g>
					<path class="st8" d="M76.75,270.67c-0.16,0.51-0.16,1.14,0.08,1.59c0.52,1,1.94,0.56,2.04-0.59c0.03-0.33-0.04-0.66-0.15-0.97
						c-0.23-0.65-0.86-1.28-1.55-0.71c-0.17,0.14-0.28,0.33-0.37,0.53C76.78,270.58,76.76,270.63,76.75,270.67z"/>
				</g>
				<path class="st19" d="M87.31,257.63c-0.74-0.07-1.47-0.26-2.2-0.36c-0.48-0.06-0.97-0.11-1.46-0.15
					c0.23-0.09,0.47-0.19,0.69-0.31c0.63-0.33,2.03-1.06,1.47-1.95c-0.65-1.04-2.18-1.67-3.3-1.99c-1.48-0.43-3.05-0.59-4.58-0.63
					c-3.28-0.09-6.53,0.64-9.55,1.9c-1.42,0.59-2.77,1.32-4.07,2.14c-0.63,0.39-1.24,0.81-1.85,1.25c-0.13,0.09-0.26,0.18-0.39,0.28
					c-0.16-0.68-0.51-1.34-0.78-1.97c-0.36-0.83-0.71-1.67-1.1-2.48c-0.13-0.26-0.58-0.2-0.64,0.08c-0.15,0.77-0.22,1.54-0.12,2.31
					c0.05,0.37,0.11,0.75,0.22,1.11c0.05,0.18,0.15,0.36,0.23,0.55c-0.36-0.26-0.78-0.46-1.17-0.61c-0.63-0.25-1.29-0.42-1.96-0.53
					c-0.25-0.04-0.54,0.16-0.44,0.44c0.36,1.07,1.04,2.07,1.96,2.74c-0.07,0.31-0.1,0.63-0.14,0.93c-0.07,0.59-0.12,1.19-0.15,1.78
					c-0.06,1.28-0.03,2.56,0.1,3.83c0.12,1.22,0.34,2.43,0.64,3.61c0.29,1.15,0.6,2.39,1.29,3.38c0.04,0.05,0.25,0.08,0.3,0.02
					c0.74-0.81,1.09-2.21,1.41-3.24c0.39-1.25,0.77-2.55,0.95-3.84c0.18-1.26,0.27-2.53,0.26-3.8c-0.01-0.63-0.05-1.25-0.11-1.87
					c1.29,0.84,2.82,1.22,4.31,1.63c2.19,0.61,4.42,1.11,6.67,1.42c2.18,0.29,4.42,0.42,6.6,0.17c1.02-0.12,2.05-0.31,3.02-0.64
					c0.65-0.22,1.31-0.5,1.85-0.92c0.24-0.19,0.77-0.67,0.72-1.02c-0.04-0.34-0.65-0.66-0.9-0.82c-0.42-0.27-0.89-0.46-1.37-0.63
					c0.6-0.12,1.19-0.28,1.76-0.49c0.64-0.24,1.36-0.5,1.91-0.92C87.6,257.91,87.53,257.66,87.31,257.63z"/>
				<g>
					<path class="st19" d="M68.17,268.77c0.03-0.05,0.07-0.11,0.11-0.16c0.01-0.02,0.03-0.04,0.05-0.06
						c-0.05,0.06,0.01-0.01,0.02-0.02c0.08-0.09,0.16-0.18,0.25-0.26c0.04-0.04,0.08-0.08,0.13-0.11c0.02-0.02,0.05-0.04,0.07-0.06
						c-0.05,0.04-0.03,0.02,0.01-0.01c0.1-0.07,0.2-0.13,0.3-0.19c0.1-0.05,0.2-0.11,0.3-0.16c0.03-0.01,0.06-0.03,0.09-0.04
						c0.1-0.05,0,0,0,0c0-0.01,0.15-0.05,0.16-0.06c0.11-0.04,0.23-0.07,0.35-0.1c0.15-0.03,0.28-0.1,0.42-0.17
						c0.34-0.18,0.24-0.69-0.1-0.79c-0.19-0.06-0.37-0.07-0.57-0.03c-0.13,0.02-0.26,0.06-0.38,0.11c-0.27,0.1-0.55,0.21-0.78,0.39
						c-0.47,0.35-0.86,0.79-1.1,1.32c-0.09,0.19-0.06,0.44,0.14,0.55C67.82,269.02,68.05,268.96,68.17,268.77L68.17,268.77z"/>
				</g>
				<g>
					<path class="st19" d="M77.81,267.48c0.09,0.01-0.03-0.01,0.03,0c0.02,0,0.05,0.01,0.07,0.01c0.05,0.01,0.09,0.02,0.14,0.03
						c0.05,0.01,0.1,0.03,0.15,0.05c0.02,0.01,0.05,0.02,0.07,0.03c0.06,0.02-0.03-0.01,0.01,0c0.09,0.04,0.17,0.08,0.26,0.13
						c0.05,0.03,0.09,0.06,0.13,0.09c0.01,0.01,0.03,0.03,0.05,0.03c-0.04-0.03-0.05-0.04-0.03-0.02c0.01,0.01,0.02,0.02,0.03,0.03
						c0.06,0.05,0.12,0.09,0.19,0.14c0.07,0.05-0.05-0.04-0.01-0.01c0.02,0.02,0.04,0.03,0.06,0.05c0.07,0.06,0.14,0.14,0.21,0.21
						c0.06,0.05,0.12,0.09,0.18,0.13c0.01,0,0.06,0.05,0.07,0.05c-0.02,0-0.06-0.05,0,0c0.06,0.05,0.11,0.1,0.19,0.13
						c0.06,0.03,0.12,0.03,0.19,0.03c0.08,0,0.16-0.05,0.2-0.12c0.04-0.07,0.08-0.14,0.08-0.22c0-0.07-0.02-0.14-0.05-0.21
						c-0.05-0.15-0.11-0.32-0.22-0.44c-0.07-0.08-0.15-0.15-0.24-0.22c-0.11-0.09-0.22-0.18-0.35-0.24
						c-0.47-0.21-0.97-0.29-1.48-0.22c-0.13,0.02-0.22,0.18-0.2,0.3C77.56,267.39,77.67,267.47,77.81,267.48L77.81,267.48z"/>
				</g>
				<g>
					<path class="st20" d="M74.95,268.39c-0.25,1.42-0.35,2.85-0.42,4.29c-0.02,0.49-0.22,1.27,0.11,1.69
						c0.32,0.42,1.03,0.21,1.46,0.19c0.35-0.02,0.71-0.01,1.06-0.01c0.23,0,0.9-0.09,1.05,0.18c0.23,0.44-0.56,1.17-0.84,1.4
						c-0.44,0.36-0.99,0.54-1.56,0.62c-0.51,0.08-1.09-0.14-1.55,0.07c-0.23,0.1-0.23,0.43-0.08,0.59c0.39,0.41,1.22,0.25,1.72,0.14
						c0.57-0.13,1.04-0.42,1.51-0.75c0.62-0.43,1.9-1.68,1.15-2.49c-0.39-0.42-1.22-0.27-1.73-0.26c-0.41,0-0.82,0.02-1.22,0.03
						c-0.15,0.01-0.44,0.07-0.55-0.08c-0.08-0.11,0.02-0.51,0.03-0.64c0.14-1.64,0.28-3.27,0.22-4.91
						C75.3,268.24,74.99,268.18,74.95,268.39L74.95,268.39z"/>
				</g>
				<path class="st8" d="M76.73,279.77c-1.33-0.32-2.66-0.63-4-0.91c-0.66-0.14-1.32-0.26-1.98-0.37c-0.65-0.11-1.32-0.27-1.98-0.29
					c-0.24-0.01-0.19,0.22-0.12,0.41c0.34,1.04,0.66,1.84,1.26,2.62c0.65,0.84,1.51,1.49,2.58,1.68c1.98,0.35,3.89-0.94,4.4-2.87
					C76.91,279.93,76.85,279.8,76.73,279.77z"/>
				<path class="st11" d="M70.68,279.57c0.83,0.28,1.62,0.71,2.5,0.84c0.52,0.08,1.05,0.08,1.57,0.12c0.33-0.02,0.65-0.08,0.96-0.22
					c0.26-0.12,0.5-0.27,0.71-0.47c0.04-0.04,0.08-0.08,0.11-0.12c-1.26-0.3-2.52-0.6-3.79-0.86c-0.66-0.14-1.32-0.26-1.98-0.37
					c-0.32-0.05-0.64-0.12-0.96-0.17C69.88,278.85,70.23,279.26,70.68,279.57z"/>
				<g>
					<path class="st21" d="M69.95,294.49c-2.86,0.16-5.66-0.85-7.75-2.8c-0.04-0.2-0.35-0.3-0.5-0.08
						c-0.87,1.27-2.06,2.39-3.36,3.26c0.8,1.66,2.15,3.03,3.64,4.11c0.9,0.66,1.87,1.24,2.87,1.72c0.55,0.27,1.11,0.5,1.68,0.7
						c0.53,0.18,1.09,0.29,1.61,0.5c0.7-2.35,1.42-4.7,2.08-7.06C70.27,294.68,70.13,294.48,69.95,294.49z"/>
					<path class="st21" d="M76.08,300.39c1.08-1.13,1.87-2.45,2.42-3.92c0.3-0.8,0.54-1.62,0.74-2.45c0.1-0.39,0.17-0.78,0.23-1.17
						c-0.34-0.19-0.69-0.37-1.03-0.55c-0.78-0.39-1.57-0.71-2.4-0.99c-0.11-0.04-0.26,0-0.33,0.09c-1.08,1.31-2.56,2.39-4.2,2.84
						c-0.12,0.03-0.57,0.15-0.49,0.25c0.96,1.26,2.28,2.66,3.32,3.86c0.53,0.62,1.07,1.24,1.6,1.86
						C75.98,300.26,76.03,300.32,76.08,300.39z"/>
				</g>
			</g>
		</g>
		<g>
			<defs>
				<path id="SVGID_7_" d="M229.82,326.08c0,0,5.51,3.27,15.1,2.65s12.45-2.65,12.45-2.65s7.14,17.75,36.33,18.77
					c29.18,1.02,51.02-19.39,51.22-50.2c0.2-30.82-20.2-47.75-46.12-48.98c-25.92-1.22-45.92,15.71-49.39,34.9
					c-3.47,19.18,3.88,34.49,3.88,34.49s-3.27,5.51-10.61,7.75C235.33,325.06,229.82,326.08,229.82,326.08z"/>
			</defs>
			<use xlink:href="#SVGID_7_"  style="overflow:visible;fill:#FFFFFF;"/>
			<clipPath id="SVGID_8_">
				<use xlink:href="#SVGID_7_"  style="overflow:visible;"/>
			</clipPath>
			<g class="st22">
				<path class="st23" d="M284.79,276.94c-0.62-0.57-2.61-0.51-2.9,0.4c-0.02,0.07,0.01,0.15,0.08,0.19
					c0.03,0.02,0.07,0.02,0.1,0.03c-0.45,0.95-0.87,1.91-1.17,2.92c-0.33,1.12-0.48,2.31-0.64,3.47c-0.16,1.16-0.22,2.33-0.1,3.5
					c0.1,1,0.23,2.24,0.78,3.1c0.08,0.13,0.27,0.04,0.24-0.1c-0.02-0.08-0.04-0.15-0.06-0.23c1.13-3.14,2.22-6.29,3.18-9.49
					c0.24-0.8,0.51-1.6,0.72-2.4C285.14,277.84,285.19,277.31,284.79,276.94z"/>
				<path class="st8" d="M299.51,297.9c1.15,0.7,1.22,2.31,0.83,3.56c-0.39,1.25-1.12,2.44-1.15,3.74
					c-0.03,1.51,0.93,2.92,2.21,3.79c1.28,0.87,2.85,1.27,4.4,1.48c2.34,0.33,4.74,0.28,7.07-0.15c1.58-0.29,3.18-0.77,4.35-1.83
					c1.17-1.05,1.8-2.79,1.13-4.19c-0.39-0.83-1.16-1.42-1.79-2.09c-0.64-0.67-1.19-1.55-1.01-2.44c0.18-0.86,0.98-1.45,1.75-1.93
					c2.32-1.44,5.02-2.74,6.09-5.19c1.13-2.59-0.02-5.62-1.82-7.83c-1.8-2.21-4.19-3.91-6.08-6.04c-0.49-0.55-0.95-1.14-1.2-1.82
					c-0.51-1.4-0.08-2.93,0.22-4.39c0.66-3.26,0.47-6.99-1.88-9.42c-1.43-1.48-3.58-2.3-5.67-2.16c-2.1,0.14-4.11,1.23-5.31,2.89
					c-1.18,1.62-1.57,3.64-1.7,5.61c-0.15,2.3,0.03,4.62,0.53,6.88c0.29,1.31,0.68,2.61,0.65,3.94c-0.08,3.39-2.86,6.23-3.31,9.59
					c-0.36,2.69,0.83,5.33,1.98,7.8"/>
				<path class="st24" d="M289.01,304.86c0.06,1.77-0.05,3.54-0.33,5.29c-0.15,0.96-0.45,2.04-1.33,2.46
					c-0.43,0.2-0.92,0.21-1.39,0.21c-1.61,0-3.22,0-4.83,0.01c-0.54,2.34-1.07,4.78-0.49,7.1c0.76,3.03,3.56,5.43,6.67,5.73
					c2.34,0.22,4.65-0.64,6.76-1.67c1.06-0.52,2.11-1.08,3.06-1.79c3.07-2.31,4.83-6.01,5.73-9.74c0.08-0.31,0.12-0.7-0.14-0.89
					c-0.15-0.1-0.34-0.1-0.52-0.08c-1.84,0.14-3.72,0.72-5.5,0.21c-0.15-0.04-0.3-0.09-0.4-0.2c-0.16-0.17-0.17-0.42-0.17-0.66
					c-0.03-2.4-0.05-4.8-0.08-7.2c0-0.23-0.01-0.48-0.16-0.65c-0.15-0.19-0.41-0.24-0.65-0.28c-1.99-0.27-4.09,0.24-5.73,1.4"/>
				<g>
					<path class="st25" d="M288.86,308.87c1.62,0.08,3.24-0.01,4.83-0.4c0.83-0.2,1.65-0.48,2.41-0.87
						c-0.01-1.32-0.03-2.65-0.04-3.97c0-0.23-0.01-0.48-0.16-0.65c-0.15-0.19-0.41-0.24-0.65-0.28c-1.99-0.27-4.09,0.24-5.73,1.4
						l-0.5,0.76C289.06,306.2,289,307.54,288.86,308.87z"/>
				</g>
				<path class="st24" d="M284.35,276.05c-1.9,4.14-2.75,8.69-3.42,13.2c-0.6,4.01-1.04,8.29,0.64,11.98
					c0.99,2.17,2.71,4.02,4.86,5.07c2.15,1.05,4.7,1.26,6.96,0.49c1.2-0.41,2.3-1.09,3.36-1.79c1.01-0.67,2.01-1.39,2.83-2.28
					c1.59-1.72,2.48-4,2.86-6.31c0.38-2.31,0.28-4.68,0.14-7.01c-0.22-3.51-0.56-7.02-1.01-10.51c-0.1-0.78-0.22-1.59-0.67-2.23
					c-0.89-1.27-2.67-1.43-4.21-1.46c-4.06-0.1-8.21-0.19-12.1,1.01"/>
				<path class="st24" d="M301.69,292.23c0.89-1.44,2.49-2.43,4.18-2.57c0.44-0.04,0.89-0.02,1.3,0.15
					c0.75,0.32,1.22,1.14,1.21,1.96c-0.01,0.81-0.44,1.59-1.05,2.12c-0.62,0.53-1.4,0.84-2.2,0.99c-0.73,0.14-1.49,0.16-2.2-0.07
					c-0.71-0.22-1.35-0.71-1.65-1.39"/>
				<path class="st15" d="M314.39,316.45c-0.37-2.95-1.43-6.09-4.37-7.37c-1.37-0.6-2.82-0.44-4.2,0.04
					c-1.74,0.6-3.42,1.49-5.04,2.35c-0.1,0.03-0.2,0.09-0.24,0.22c-1.73,4.72-5.35,9.21-10.16,11.01c-2.34,0.88-6.08,1.18-7.09-1.75
					c-0.38-1.09-0.29-2.31-0.19-3.44c0.13-1.52,0.37-3.04,0.69-4.53c0.04-0.18-0.12-0.29-0.26-0.28c-0.62-1.71-2.52-2.48-4.3-2.07
					c-2.37,0.54-3.86,2.65-4.78,4.75c-2.34,5.29-2.97,11.11-3.55,16.8c-0.17,1.68-0.35,3.35-0.43,5.04
					c-0.08,1.64-0.16,3.37,0.28,4.96c0.06,0.2,0.27,0.24,0.42,0.15c0.94,0.91,2.15,1.45,3.36,1.95c1.5,0.62,3.04,1.1,4.61,1.49
					c3.11,0.78,6.29,1.26,9.47,1.63c3.24,0.38,6.48,0.52,9.72,0.09c1.62-0.22,3.23-0.52,4.85-0.76c1.44-0.21,2.85-0.24,4.28-0.24
					c-0.04,0.36,0.45,0.65,0.72,0.35c1.08-1.25,1.72-3.05,2.36-4.56c0.68-1.59,1.28-3.2,1.8-4.84c1.05-3.35,1.74-6.81,2.12-10.3
					C314.85,323.59,314.84,319.99,314.39,316.45z"/>
				<g>
					<path class="st8" d="M293.1,291c0.28-0.4,0.54-0.87,0.93-1.18c0.16-0.13,0.34-0.21,0.54-0.26c0.18-0.04,0.35-0.06,0.52-0.01
						c0.34,0.11,0.61,0.57,0.74,0.91c0.08,0.21,0.15,0.47,0.16,0.67c0.03,0.29,0.09,0.52,0.26,0.75c0.09,0.12,0.23,0.15,0.35,0.05
						c0.55-0.46,0.28-1.32,0.04-1.88c-0.25-0.58-0.69-1.17-1.32-1.35c-0.62-0.18-1.27,0.06-1.72,0.5c-0.46,0.45-0.7,1.04-0.87,1.65
						C292.67,291.08,292.97,291.18,293.1,291L293.1,291z"/>
				</g>
				<g>
					<path class="st8" d="M284.04,289.71c0.13-0.24,0.24-0.49,0.36-0.73c0.11-0.22,0.23-0.44,0.38-0.64
						c0.25-0.32,0.64-0.62,1.07-0.51c0.4,0.1,0.54,0.57,0.63,0.92c0.07,0.25,0.12,0.51,0.13,0.76c0.01,0.14,0.01,0.27,0,0.41
						c-0.01,0.2-0.05,0.39,0.08,0.56c0.14,0.2,0.46,0.31,0.65,0.08c0.13-0.15,0.17-0.3,0.16-0.5c-0.01-0.16-0.03-0.31-0.05-0.47
						c-0.04-0.25-0.08-0.5-0.15-0.75c-0.12-0.46-0.3-0.94-0.64-1.29s-0.83-0.46-1.29-0.33c-0.45,0.13-0.8,0.46-1.05,0.85
						c-0.3,0.46-0.52,1.01-0.56,1.55C283.75,289.78,283.97,289.83,284.04,289.71L284.04,289.71z"/>
				</g>
				<g>
					<path class="st26" d="M291.01,287.17c-0.2,0.67-0.32,1.31-0.41,2.01c-0.09,0.68-0.21,1.35-0.33,2.03
						c-0.06,0.35-0.13,0.7-0.19,1.05c-0.07,0.36,0.03,0.85-0.49,0.78c-0.6-0.09-1.16-0.41-1.73-0.6c-0.48-0.16-1.04-0.33-1.51-0.06
						c-0.4,0.22-0.59,0.68-0.43,1.11c0.18,0.49,0.73,0.86,1.13,1.18c0.49,0.39,0.99,0.8,1.54,1.1c0.11,0.06,0.26,0.05,0.35-0.04
						c0.04-0.04,0.06-0.07,0.07-0.13c0.04-0.13-0.03-0.25-0.13-0.32c-0.49-0.36-0.99-0.69-1.45-1.09c-0.21-0.18-0.42-0.37-0.61-0.57
						c-0.24-0.24-0.42-0.63,0.08-0.69c0.49-0.06,1.1,0.27,1.58,0.37c0.51,0.1,1.01,0.15,1.53,0.07c0.35-0.05,0.45-0.32,0.53-0.64
						c0.16-0.6,0.23-1.24,0.34-1.86c0.11-0.59,0.23-1.18,0.37-1.76c0.15-0.63,0.22-1.22,0.27-1.86
						C291.53,286.95,291.09,286.9,291.01,287.17L291.01,287.17z"/>
				</g>
				<path class="st8" d="M295.65,296.56c-3.19,1.16-6.52,1.81-9.78,2.75c-0.08,0.02-0.14,0.28-0.07,0.35
					c1.67,1.53,4.23,3.14,6.59,2.78c1.11-0.17,1.81-0.84,2.27-1.84c0.56-1.22,0.9-2.55,1.15-3.87
					C295.83,296.63,295.75,296.52,295.65,296.56z"/>
				<g>
					<path class="st8" d="M295.23,284.65c0.04,0,0.09-0.01,0.13,0.01c-0.02,0-0.03,0-0.05-0.01c0.02,0,0.04,0.01,0.06,0.01
						c0.07,0.01,0.14,0.03,0.22,0.05c0.03,0.01,0.06,0.02,0.09,0.03c0.02,0.01,0.04,0.02,0.06,0.02c-0.02-0.01-0.04-0.02-0.06-0.03
						c0.02,0.02,0.09,0.04,0.11,0.05c0.03,0.01,0.06,0.03,0.08,0.05c0.03,0.02,0.05,0.03,0.08,0.05c0.02,0.01,0.13,0.1,0.04,0.03
						c-0.09-0.07,0.02,0.02,0.04,0.03c0.05,0.04,0.12,0.1,0.18,0.13c-0.16-0.1-0.05-0.04-0.01-0.01c0.03,0.02,0.06,0.05,0.08,0.08
						c0.05,0.05,0.1,0.11,0.15,0.17c-0.03-0.04-0.07-0.09-0.1-0.13c0.12,0.16,0.21,0.35,0.31,0.53c0.02,0.04,0.04,0.09,0.07,0.13
						c0.03,0.06-0.06-0.15-0.02-0.04c0.02,0.06,0.04,0.12,0.07,0.17c0.08,0.16,0.18,0.3,0.34,0.39c-0.05-0.05-0.1-0.1-0.15-0.15
						c0.03,0.05,0.06,0.09,0.08,0.14c0.05,0.1,0.17,0.16,0.28,0.16c0.12,0,0.21-0.07,0.28-0.16c0.04-0.05,0.08-0.11,0.11-0.17
						c-0.09,0.07-0.18,0.13-0.26,0.2c0.3-0.04,0.44-0.45,0.44-0.71c0-0.18-0.03-0.37-0.08-0.54c-0.07-0.23-0.2-0.41-0.34-0.59
						c-0.09-0.12-0.19-0.22-0.3-0.31c-0.18-0.15-0.35-0.26-0.58-0.34c-0.17-0.06-0.34-0.09-0.52-0.11c-0.31-0.04-0.63,0-0.92,0.11
						c-0.18,0.06-0.3,0.22-0.27,0.42C294.88,284.51,295.04,284.64,295.23,284.65L295.23,284.65z"/>
				</g>
				<g>
					<path class="st8" d="M287.18,283.47c-0.2-0.12-0.43-0.21-0.66-0.26c-0.29-0.06-0.6-0.03-0.89,0.04
						c-0.29,0.07-0.58,0.18-0.81,0.38c-0.08,0.07-0.15,0.14-0.22,0.22c-0.13,0.15-0.21,0.31-0.27,0.5
						c-0.06,0.18,0.01,0.42,0.15,0.55c0,0,0.01,0.01,0.01,0.01c-0.05-0.11-0.09-0.22-0.14-0.33c0,0.17,0,0.36,0.15,0.46
						c0.1,0.08,0.22,0.08,0.34,0.03c0.02-0.01,0.04-0.02,0.07-0.03c0.03-0.01,0.03-0.02,0,0c-0.03,0.01-0.03,0.01,0,0
						c0.02-0.01,0.03-0.01,0.05-0.02c-0.12-0.02-0.24-0.03-0.36-0.05c0,0,0.01,0,0.01,0.01c0.16,0.12,0.41,0.09,0.57,0
						c0.08-0.04,0.16-0.08,0.24-0.13c0.07-0.05,0.15-0.1,0.23-0.14c0.09-0.04,0.16-0.1,0.24-0.15c0.04-0.02,0.08-0.05,0.12-0.07
						c0.03-0.01,0.18-0.08,0.06-0.03c-0.11,0.05,0.03-0.01,0.06-0.02c0.04-0.02,0.09-0.03,0.14-0.04c0.09-0.02,0.18-0.04,0.27-0.06
						c0.04-0.01,0.09-0.02,0.13-0.03c0.02-0.01,0.15-0.03,0.06-0.01c-0.09,0.01,0,0,0.02,0c0.02,0,0.04,0,0.06,0
						c0.05,0,0.1,0,0.15,0c0.19,0.01,0.38-0.14,0.43-0.32C287.43,283.78,287.35,283.57,287.18,283.47L287.18,283.47z"/>
				</g>
				<path class="st23" d="M308.25,275.63c-1.11-0.69-2.48-0.8-3.64-0.25c-0.88-2.24-1.96-4.75-4.3-5.73c-2.37-1-5.45,0.16-6.72,2.38
					c-0.53-0.86-1.34-1.68-1.92-2.31c-1.01-1.1-2.14-2.07-3.35-2.93c-1.23-0.88-2.53-1.59-4.07-1.74c-1.4-0.13-2.82,0.18-4.11,0.73
					c-2.36,1.02-5.26,3.22-4.8,6.14c0.2,1.27,1.12,2.22,2.28,2.73c0.61,0.27,1.22,0.37,1.83,0.38c-0.42,0.4-0.75,0.88-0.92,1.45
					c-0.42,1.4,0.34,2.55,1.58,3.16c2.74,1.34,6.01,0.63,8.6-0.78c-0.02,0.46,0.18,0.93,0.55,1.28c0.88,0.84,2.48,1.15,3.58,1.11
					c1.97-0.07,4.51-0.48,6.32-1.58c0,0.06,0.01,0.12,0.01,0.19c0.04,0.67,0.11,1.33,0.19,1.99c0.17,1.27,0.41,2.53,0.73,3.77
					c0.34,1.29,0.76,2.56,1.27,3.79c0.35,0.84,0.69,1.81,1.41,2.41c0.02,0.05,0.07,0.09,0.13,0.11c0.01,0.01,0.01,0.01,0.02,0.02
					c0.1,0.07,0.23-0.02,0.25-0.12c1.41-1.83,2.74-3.75,3.87-5.76c1.09-1.94,2.44-4.13,2.83-6.35
					C310.18,278.08,309.68,276.52,308.25,275.63z"/>
				<path class="st4" d="M292.55,300.75c-0.27,0.54-0.41,1.13-0.47,1.72c0.1-0.01,0.2-0.02,0.3-0.03c1.11-0.17,1.81-0.84,2.27-1.84
					c0.29-0.62,0.51-1.27,0.7-1.92C294.18,298.9,293.14,299.57,292.55,300.75z"/>
			</g>
		</g>
		<g>
			<path class="st3" d="M58.86,200.76c-0.15-3.02-1.28-6.14-3.53-7.94c-4.49-3.58-12.04-3.36-15.92,1.03
				c-3.2,3.61-3.62,9.05-2.24,13.48c1.42,4.55,6.88,6.98,11.4,6.32c4.81-0.71,8.78-4.48,9.95-9.17
				C58.81,203.33,58.93,202.06,58.86,200.76z"/>
			<g>
				<path class="st8" d="M44.56,200.61c0.18,0.01,0.35-0.03,0.51-0.11c0.16-0.05,0.3-0.14,0.42-0.27c0.13-0.12,0.22-0.26,0.27-0.42
					c0.08-0.16,0.12-0.33,0.11-0.51c-0.02-0.12-0.03-0.23-0.05-0.35c-0.06-0.22-0.18-0.42-0.34-0.58c-0.09-0.07-0.18-0.14-0.27-0.21
					c-0.21-0.12-0.43-0.18-0.66-0.18c-0.18-0.01-0.35,0.03-0.51,0.11c-0.16,0.05-0.3,0.14-0.42,0.27c-0.13,0.12-0.22,0.26-0.27,0.42
					c-0.08,0.16-0.12,0.33-0.11,0.51c0.02,0.12,0.03,0.23,0.05,0.35c0.06,0.22,0.18,0.42,0.34,0.58c0.09,0.07,0.18,0.14,0.27,0.21
					C44.1,200.55,44.32,200.61,44.56,200.61L44.56,200.61z"/>
			</g>
			<g>
				<path class="st8" d="M50.92,200.61c0.18,0.01,0.35-0.03,0.51-0.11c0.16-0.05,0.3-0.14,0.42-0.27c0.13-0.12,0.22-0.26,0.27-0.42
					c0.08-0.16,0.12-0.33,0.11-0.51c-0.02-0.12-0.03-0.23-0.05-0.35c-0.06-0.22-0.18-0.42-0.34-0.58c-0.09-0.07-0.18-0.14-0.27-0.21
					c-0.21-0.12-0.43-0.18-0.66-0.18c-0.18-0.01-0.35,0.03-0.51,0.11c-0.16,0.05-0.3,0.14-0.42,0.27c-0.13,0.12-0.22,0.26-0.27,0.42
					c-0.08,0.16-0.12,0.33-0.11,0.51c0.02,0.12,0.03,0.23,0.05,0.35c0.06,0.22,0.18,0.42,0.34,0.58c0.09,0.07,0.18,0.14,0.27,0.21
					C50.46,200.55,50.68,200.61,50.92,200.61L50.92,200.61z"/>
			</g>
			<path class="st11" d="M42.83,203.67l9.64-0.31c0,0,1.03,5.99-4.9,5.99C42.17,209.35,42.83,203.67,42.83,203.67z"/>
		</g>
		<g>
			<path class="st3" d="M223.62,311.86c-0.15-3.02-1.28-6.14-3.53-7.94c-4.49-3.58-12.04-3.36-15.92,1.03
				c-3.2,3.61-3.62,9.05-2.24,13.48c1.42,4.55,6.88,6.98,11.4,6.32c4.81-0.71,8.78-4.48,9.95-9.17
				C223.56,314.44,223.68,313.16,223.62,311.86z"/>
			<g>
				<path class="st8" d="M209.31,311.71c0.18,0.01,0.35-0.03,0.51-0.11c0.16-0.05,0.3-0.14,0.42-0.27c0.13-0.12,0.22-0.26,0.27-0.42
					c0.08-0.16,0.12-0.33,0.11-0.51c-0.02-0.12-0.03-0.23-0.05-0.35c-0.06-0.22-0.18-0.42-0.34-0.58c-0.09-0.07-0.18-0.14-0.27-0.21
					c-0.21-0.12-0.43-0.18-0.66-0.18c-0.18-0.01-0.35,0.03-0.51,0.11c-0.16,0.05-0.3,0.14-0.42,0.27c-0.13,0.12-0.22,0.26-0.27,0.42
					c-0.08,0.16-0.12,0.33-0.11,0.51c0.02,0.12,0.03,0.23,0.05,0.35c0.06,0.22,0.18,0.42,0.34,0.58c0.09,0.07,0.18,0.14,0.27,0.21
					C208.85,311.65,209.08,311.71,209.31,311.71L209.31,311.71z"/>
			</g>
			<g>
				<path class="st8" d="M215.68,311.71c0.18,0.01,0.35-0.03,0.51-0.11c0.16-0.05,0.3-0.14,0.42-0.27c0.13-0.12,0.22-0.26,0.27-0.42
					c0.08-0.16,0.12-0.33,0.11-0.51c-0.02-0.12-0.03-0.23-0.05-0.35c-0.06-0.22-0.18-0.42-0.34-0.58c-0.09-0.07-0.18-0.14-0.27-0.21
					c-0.21-0.12-0.43-0.18-0.66-0.18c-0.18-0.01-0.35,0.03-0.51,0.11c-0.16,0.05-0.3,0.14-0.42,0.27c-0.13,0.12-0.22,0.26-0.27,0.42
					c-0.08,0.16-0.12,0.33-0.11,0.51c0.02,0.12,0.03,0.23,0.05,0.35c0.06,0.22,0.18,0.42,0.34,0.58c0.09,0.07,0.18,0.14,0.27,0.21
					C215.22,311.65,215.44,311.71,215.68,311.71L215.68,311.71z"/>
			</g>
			<path class="st11" d="M207.59,314.78l9.64-0.31c0,0,1.03,5.99-4.9,5.99C206.93,320.46,207.59,314.78,207.59,314.78z"/>
		</g>
		<g>
			<path class="st3" d="M319.91,192.53c-0.15-3.02-1.28-6.14-3.53-7.94c-4.49-3.58-12.04-3.36-15.92,1.03
				c-3.2,3.61-3.62,9.05-2.24,13.48c1.42,4.55,6.88,6.98,11.4,6.32c4.81-0.71,8.78-4.48,9.95-9.17
				C319.85,195.1,319.97,193.82,319.91,192.53z"/>
			<g>
				<path class="st27" d="M309.18,193.05c0-1.14,0.01-2.3-0.03-3.44c0.11,0.02,0.22,0.04,0.32,0.06c0.42,0.11,0.83,0.2,1.26,0.28
					c0.22,0.04,0.44-0.18,0.3-0.39c-0.43-0.68-1.17-1.05-1.95-1.15c-0.05-0.56-0.12-1.13-0.22-1.68c-0.06-0.36-0.56-0.23-0.6,0.08
					c-0.05,0.53-0.08,1.07-0.1,1.61c-0.33,0.05-0.64,0.14-0.94,0.29c-1.11,0.56-1.82,1.95-1.38,3.16c0.39,1.06,1.46,1.5,2.42,1.93
					c0.02,1.07,0.07,2.13,0.07,3.2c0,0.27-0.01,0.54-0.01,0.81c-0.15,0.04-0.31,0.07-0.46,0.08c-0.38,0.02-0.81-0.03-1.12-0.27
					c-0.27-0.22-0.47-0.55-0.69-0.82c-0.13-0.15-0.39-0.1-0.48,0.06c-0.34,0.63,0.03,1.27,0.54,1.66c0.62,0.48,1.43,0.58,2.19,0.45
					c0,0.42,0.02,0.83,0.09,1.23c0.05,0.27,0.48,0.26,0.54,0c0.1-0.47,0.14-0.97,0.15-1.47c1.08-0.46,1.93-1.42,2.05-2.62
					C311.29,194.68,310.42,193.61,309.18,193.05z M306.86,190.99c0.13-0.67,0.65-1.19,1.31-1.35c0.01,1.01,0.05,2.03,0.08,3.04
					C307.46,192.35,306.69,191.9,306.86,190.99z M309.81,196.74c-0.17,0.29-0.42,0.53-0.71,0.72c0-0.16,0-0.31,0-0.47
					c0.02-0.92,0.05-1.83,0.07-2.75c0.24,0.15,0.46,0.33,0.62,0.57C310.17,195.38,310.15,196.16,309.81,196.74z"/>
				<path class="st27" d="M316,186.91c-1.26-1.47-3.18-2.37-5.06-2.73c-3.73-0.72-7.78,0.52-9.94,3.76
					c-1.18,1.77-1.71,3.91-1.74,6.02c-0.02,1.99,0.31,4.26,1.44,5.94c2.07,3.08,6.3,4.36,9.81,3.44c4.74-1.24,7.78-5.78,7.62-10.57
					C318,190.67,317.39,188.54,316,186.91z M311.87,202.15c-3.19,1.5-7.28,0.92-9.8-1.6c-2.59-2.59-2.69-7.38-1.38-10.61
					c1.43-3.54,4.9-5.45,8.65-5.28c1.91,0.09,3.85,0.71,5.35,1.91c1.86,1.48,2.63,3.91,2.77,6.21
					C317.59,196.73,315.5,200.44,311.87,202.15z"/>
			</g>
		</g>
		<g>
			<path class="st4" d="M275.02,83.16c-3.11-2.62-8.82-6.75-9.61-10.59c-0.46-2.23,0.8-6.02-0.82-7.91
				c-1.39-1.62-4.5-1.24-6.37-1.27c-5.97-0.08-11.86,0.26-17.83,0.07c-4.17-0.13-10.9-1.56-11.68,3.77
				c-0.73,5-0.81,11.37,0.02,16.34c1.1,6.57,6.62,5.73,12.11,5.88c5.78,0.16,11.6,0.08,17.37-0.23c5.84-0.31,7.01-3.03,7.33-8.61
				c1.93,0.78,3.9,1.49,5.88,2.11C271.79,82.85,275.75,83.76,275.02,83.16z"/>
			<g>
				<path class="st11" d="M234.63,70.83c3.99,0.49,8.08,0.32,12.09,0.32c1.98,0,3.97,0.01,5.95,0.01c2.02,0,4.13,0.18,6.14-0.03
					c0.71-0.07,0.71-1.04,0-1.11c-1.95-0.2-4.01-0.03-5.97-0.03c-2.04,0-4.08,0.01-6.12,0.01c-4.01,0.01-8.1-0.16-12.09,0.32
					C234.31,70.37,234.31,70.8,234.63,70.83L234.63,70.83z"/>
			</g>
			<g>
				<path class="st11" d="M234.53,76.77c1.99,0.38,4.04,0.35,6.06,0.35c2.05,0,4.09-0.01,6.14-0.01c1.99,0,3.97-0.01,5.96-0.02
					c2.06-0.01,4.22,0.16,6.24-0.31c0.37-0.09,0.37-0.67,0-0.75c-1.96-0.46-4.05-0.3-6.06-0.31c-2.05-0.01-4.09-0.02-6.14-0.02
					c-1.99,0-3.97-0.01-5.96-0.01c-2.07,0-4.19-0.04-6.23,0.35C234.17,76.1,234.17,76.7,234.53,76.77L234.53,76.77z"/>
			</g>
			<g>
				<path class="st11" d="M234.52,82.62c0.93,0.28,1.9,0.25,2.86,0.27c1.04,0.03,2.08,0.05,3.11,0.08c2.08,0.05,4.15,0.06,6.23,0.06
					c2.02,0,4.03,0,6.05,0c1.04,0,2.07-0.05,3.11-0.12c1.01-0.06,2.05-0.08,3.02-0.37c0.33-0.1,0.33-0.57,0-0.67
					c-0.92-0.27-1.89-0.29-2.84-0.36c-1.04-0.07-2.07-0.13-3.11-0.13c-2.08,0-4.15,0-6.23,0c-2.02,0-4.03,0-6.05,0.05
					c-1.04,0.03-2.08,0.05-3.11,0.08c-1.02,0.03-2.06-0.02-3.04,0.28C234.12,81.93,234.12,82.5,234.52,82.62L234.52,82.62z"/>
			</g>
		</g>
		<g>
			<path class="st4" d="M128.32,312.68c2.88,2.43,8.17,6.25,8.91,9.81c0.42,2.07-0.74,5.58,0.76,7.32c1.28,1.5,4.17,1.15,5.9,1.17
				c5.53,0.07,10.99-0.24,16.52-0.06c3.86,0.12,10.1,1.45,10.82-3.49c0.68-4.63,0.75-10.53-0.02-15.14
				c-1.02-6.09-6.13-5.31-11.22-5.45c-5.35-0.15-10.75-0.08-16.1,0.21c-5.41,0.29-6.49,2.8-6.79,7.97
				c-1.79-0.72-3.61-1.38-5.45-1.96C131.31,312.96,127.65,312.12,128.32,312.68z"/>
			<g>
				<path class="st11" d="M165.74,324.08c-3.69-0.49-7.49-0.32-11.2-0.32c-1.86,0-3.72-0.01-5.59-0.01c-1.85,0-3.78-0.16-5.62,0.03
					c-0.71,0.07-0.71,1.04,0,1.11c1.78,0.18,3.65,0.03,5.44,0.03c1.92,0,3.84-0.01,5.76-0.01c3.71-0.01,7.51,0.16,11.2-0.32
					C166.06,324.54,166.06,324.12,165.74,324.08L165.74,324.08z"/>
			</g>
			<g>
				<path class="st11" d="M165.84,318.57c-1.8-0.37-3.68-0.34-5.52-0.35c-1.93-0.01-3.86,0.01-5.79,0.01
					c-1.87,0-3.74,0.01-5.61,0.02c-1.88,0.01-3.86-0.16-5.7,0.31c-0.37,0.09-0.37,0.66,0,0.75c1.78,0.45,3.69,0.29,5.52,0.31
					c1.93,0.01,3.86,0.02,5.79,0.02c1.87,0,3.74,0.01,5.61,0.01c1.89,0,3.83,0.03,5.69-0.35
					C166.21,319.23,166.21,318.65,165.84,318.57L165.84,318.57z"/>
			</g>
			<g>
				<path class="st11" d="M165.85,313.14c-0.87-0.28-1.78-0.25-2.68-0.27c-0.98-0.03-1.96-0.05-2.94-0.08
					c-1.9-0.05-3.79-0.05-5.69-0.06c-1.9,0-3.8,0-5.69,0c-0.98,0-1.96,0.06-2.94,0.13c-0.89,0.06-1.81,0.08-2.66,0.36
					c-0.33,0.11-0.33,0.56,0,0.67c0.85,0.28,1.77,0.3,2.66,0.36c0.98,0.07,1.95,0.13,2.94,0.13c1.9,0,3.8,0,5.69,0
					c1.9,0,3.79,0,5.69-0.06c0.98-0.03,1.96-0.05,2.94-0.08c0.9-0.02,1.82,0.01,2.68-0.27
					C166.26,313.83,166.26,313.27,165.85,313.14L165.85,313.14z"/>
			</g>
		</g>
		<path class="st4" d="M99.37,168.66c-1.93-1.31-4.26,0.15-5.69,1.52c-0.95,0.91-1.78,1.94-2.48,3.06c-0.22,0.35-0.5,0.78-0.74,1.24
			c-0.47-1.03-1.11-1.98-1.9-2.84c-1.26-1.36-3.36-3.13-5.36-2.4c-2.05,0.75-2.43,3.36-2.07,5.23c0.46,2.39,2.15,4.34,3.76,6.07
			c0.99,1.06,2,2.11,3,3.15c0.94,0.98,1.84,2.17,2.98,2.91c0.18,0.12,0.37,0.04,0.47-0.11c1-0.63,1.8-1.82,2.54-2.72
			c0.83-1.01,1.64-2.04,2.41-3.09c1.52-2.08,3.17-4.33,4.13-6.74C101.11,172.19,101.1,169.84,99.37,168.66z"/>
		<path class="st4" d="M185.74,52.99c-1.38-0.94-3.05,0.11-4.07,1.09c-0.68,0.65-1.28,1.39-1.77,2.19
			c-0.16,0.25-0.36,0.56-0.53,0.88c-0.34-0.74-0.79-1.42-1.36-2.03c-0.9-0.98-2.4-2.24-3.83-1.71c-1.46,0.53-1.74,2.41-1.48,3.74
			c0.33,1.71,1.54,3.11,2.69,4.34c0.71,0.76,1.43,1.51,2.15,2.25c0.67,0.7,1.32,1.55,2.13,2.08c0.13,0.08,0.26,0.03,0.33-0.08
			c0.72-0.45,1.28-1.3,1.82-1.94c0.6-0.72,1.17-1.46,1.72-2.21c1.09-1.49,2.27-3.1,2.95-4.82
			C186.98,55.52,186.98,53.83,185.74,52.99z"/>
		<g>
			<path class="st3" d="M206.45,100.45c-0.15-3.02-1.28-6.14-3.53-7.94c-4.49-3.58-12.04-3.36-15.92,1.03
				c-3.2,3.61-3.62,9.05-2.24,13.48c1.42,4.55,6.88,6.98,11.4,6.32c4.81-0.71,8.78-4.48,9.95-9.17
				C206.4,103.02,206.51,101.75,206.45,100.45z"/>
			<g>
				<path class="st27" d="M195.72,100.98c0-1.14,0.01-2.3-0.03-3.44c0.11,0.02,0.22,0.04,0.32,0.06c0.42,0.11,0.83,0.2,1.26,0.28
					c0.22,0.04,0.44-0.18,0.3-0.39c-0.43-0.68-1.17-1.05-1.95-1.15c-0.05-0.56-0.12-1.13-0.22-1.68c-0.06-0.36-0.56-0.23-0.6,0.08
					c-0.05,0.53-0.08,1.07-0.1,1.61c-0.33,0.05-0.64,0.14-0.94,0.29c-1.11,0.56-1.82,1.95-1.38,3.16c0.39,1.06,1.46,1.5,2.42,1.93
					c0.02,1.07,0.07,2.13,0.07,3.2c0,0.27-0.01,0.54-0.01,0.81c-0.15,0.04-0.31,0.07-0.46,0.08c-0.38,0.02-0.81-0.03-1.12-0.27
					c-0.27-0.22-0.47-0.55-0.69-0.82c-0.13-0.15-0.39-0.1-0.48,0.06c-0.34,0.63,0.03,1.27,0.54,1.66c0.62,0.48,1.43,0.58,2.19,0.45
					c0,0.42,0.02,0.83,0.09,1.23c0.05,0.27,0.48,0.26,0.54,0c0.1-0.47,0.14-0.97,0.15-1.47c1.08-0.46,1.93-1.42,2.05-2.62
					C197.84,102.6,196.97,101.53,195.72,100.98z M193.4,98.91c0.13-0.67,0.65-1.19,1.31-1.35c0.01,1.01,0.05,2.03,0.08,3.04
					C194,100.28,193.23,99.82,193.4,98.91z M196.35,104.66c-0.17,0.29-0.42,0.53-0.71,0.72c0-0.16,0-0.31,0-0.47
					c0.02-0.92,0.05-1.83,0.07-2.75c0.24,0.15,0.46,0.33,0.62,0.57C196.71,103.3,196.69,104.08,196.35,104.66z"/>
				<path class="st27" d="M202.54,94.83c-1.26-1.47-3.18-2.37-5.06-2.73c-3.73-0.72-7.78,0.52-9.94,3.76
					c-1.18,1.77-1.71,3.91-1.74,6.02c-0.02,1.99,0.31,4.26,1.44,5.94c2.07,3.08,6.3,4.36,9.81,3.44c4.74-1.24,7.78-5.78,7.62-10.57
					C204.54,98.59,203.94,96.46,202.54,94.83z M198.42,110.07c-3.19,1.5-7.28,0.92-9.8-1.6c-2.59-2.59-2.69-7.38-1.38-10.61
					c1.43-3.54,4.9-5.45,8.65-5.28c1.91,0.09,3.85,0.71,5.35,1.91c1.86,1.48,2.63,3.91,2.77,6.21
					C204.14,104.65,202.05,108.36,198.42,110.07z"/>
			</g>
		</g>
		<g>
			<defs>
				<path id="SVGID_9_" d="M88.4,144.66c0,0-15.92,8.37-37.55,2.86c-21.63-5.51-33.26-27.35-32.45-45.51
					c0.82-18.16,14.49-46.12,47.96-48.77c33.47-2.65,44.9,23.06,47.35,38.77c2.45,15.71-2.45,32.65-11.84,45.92
					c4.9,13.47,14.08,17.55,14.08,17.55s-7.55,1.84-16.73-0.61C90.03,152.42,88.4,144.66,88.4,144.66z"/>
			</defs>
			<use xlink:href="#SVGID_9_"  style="overflow:visible;fill:#FFFFFF;"/>
			<clipPath id="SVGID_10_">
				<use xlink:href="#SVGID_9_"  style="overflow:visible;"/>
			</clipPath>
			<g class="st28">
				<path class="st29" d="M33.81,153.43c-0.31-7.25,0.17-14.54,1.44-21.68c0.03-0.14,0.06-0.3,0.16-0.4
					c0.09-0.09,0.22-0.13,0.35-0.15c3.96-0.93,8.2-0.58,11.96,0.98c0.21,0.09,0.42,0.19,0.54,0.38c0.1,0.16,0.11,0.36,0.11,0.55
					c0.17,5.85-1.11,11.67-1.12,17.52c0,0.23,0,0.47-0.13,0.67c-0.12,0.19-0.34,0.3-0.54,0.39c-3.9,1.78-8.34,2.37-12.56,1.65"/>
				<path class="st29" d="M75.75,113.45c-0.07-0.17,0.34-0.25,0.2-0.36c-0.66-0.53-1.94-1.03-2.7-1.4c-0.32-0.16-0.67-0.31-0.88-0.6
					c-0.19-0.26-0.24-0.59-0.29-0.91c-0.27-1.88-0.45-3.78-0.54-5.68c-0.01-0.23-0.02-0.48-0.16-0.67
					c-0.24-0.35-0.75-0.35-1.17-0.31c-3.44,0.29-6.88,0.59-10.32,0.88l-0.19-0.24c-0.02,1.26-0.05,2.52-0.07,3.77
					c-0.02,1-0.09,2.11-0.83,2.78c-0.5,0.44-3.5,1.49-4.21,2.04c-0.09,0.07-0.18,0.15-0.21,0.26c-0.02,0.11,0.03,0.22,0.09,0.32
					c0.81,1.43,2.16,2.47,3.57,3.3c2.79,1.64,6.03,2.62,9.26,2.36c3.22-0.26,6.41-1.85,8.21-4.54
					C75.7,114.15,75.88,113.78,75.75,113.45z"/>
				<g>
					<path class="st30" d="M60.2,109.37c2.68,1.31,5.84,1.62,8.71,0.79c1.06-0.31,2.08-0.77,3-1.39c-0.17-1.42-0.3-2.84-0.37-4.27
						c-0.01-0.23-0.02-0.48-0.16-0.67c-0.24-0.35-0.75-0.35-1.17-0.31c-3.44,0.29-6.88,0.59-10.32,0.88l-0.19-0.24l-0.07,3.77
						c-0.01,0.35-0.02,0.72-0.07,1.08C59.77,109.13,59.98,109.26,60.2,109.37z"/>
				</g>
				<path class="st29" d="M82.28,134.41c3.5-1.77,7.44-2.64,11.35-2.52c0.43,3.24,1.13,6.46,1.18,9.73
					c0.05,3.27-0.61,6.68-2.64,9.24c-1.01,1.27-2.63,2.36-4.17,1.84c-1.11-0.38-1.8-1.47-2.32-2.52c-2.38-4.8-3.19-10.23-3.36-15.58
					"/>
				<g>
					<path class="st30" d="M82.28,134.41c3.5-1.77,7.44-2.64,11.35-2.52c0.43,3.24,1.13,6.46,1.18,9.73
						c0.05,3.27-0.61,6.68-2.64,9.24c-1.01,1.27-2.63,2.36-4.17,1.84c-1.11-0.38-1.8-1.47-2.32-2.52
						c-2.38-4.8-3.19-10.23-3.36-15.58"/>
				</g>
				<path class="st15" d="M55.23,111.76c0,0,3.47,4.54,10.71,4.64c7.24,0.1,9.39-3.98,9.39-3.98s7.75,2.96,11.73,5.71
					c3.98,2.75,4.08,3.88,4.59,5.71c0.51,1.84,1.53,5,2.04,6.73c0.51,1.73,0.92,4.08,0.92,4.08s-1.73,0-4.59,1.02
					c-2.86,1.02-7.35,3.69-7.35,3.69l1.64,9.16c0,0-7.45,1.43-17.24,2.04s-19.8-1.43-19.8-1.43l0.92-13.16c0,0-2.14-1.33-6.84-2.04
					s-6.63-0.82-6.63-0.82s0.61-11.33,3.16-13.78C40.44,116.91,55.23,111.76,55.23,111.76z"/>
				<path class="st29" d="M55.38,93.62c-0.2-0.32-0.41-0.63-0.61-0.95c-0.72-1.12-1.58-2.33-2.95-2.63
					c-0.24-0.05-0.51-0.07-0.74,0.02c-0.23,0.1-0.39,0.29-0.51,0.5c-0.47,0.82-0.38,1.8-0.23,2.72c0.1,0.64,0.23,1.29,0.58,1.85
					c0.34,0.57,0.93,1.04,1.63,1.11c0.58,0.06,1.17-0.16,1.65-0.47c0.9-0.57,1.56-1.43,1.93-2.38L55.38,93.62z"/>
				<path class="st29" d="M80.45,91.65c-0.03-0.62-0.1-1.24-0.29-1.84c-0.09-0.31-0.23-0.62-0.5-0.84c-0.27-0.22-0.7-0.32-1.02-0.16
					c-0.15,0.08-0.25,0.2-0.35,0.32c-0.89,1.07-1.57,2.27-2,3.53l-0.95,1.47c0.17,0.36,0.34,0.72,0.51,1.08
					c0.11,0.22,0.22,0.45,0.41,0.63c0.38,0.34,1,0.42,1.54,0.31c1.05-0.2,1.87-0.95,2.26-1.8C80.46,93.51,80.49,92.57,80.45,91.65z"
					/>
				<path class="st8" d="M60.09,130.17c-0.31-4.72-0.63-9.44-0.94-14.15c-0.02-0.35-0.03-0.75,0.21-1c0.2-0.22,0.53-0.27,0.82-0.3
					c3.2-0.37,6.41-0.55,9.63-0.55c0.43,0,0.89,0.01,1.27,0.22c0.72,0.4,0.9,1.34,0.98,2.16c0.48,4.62,0.6,9.28,0.34,13.92
					c-0.02,0.44-0.05,0.89-0.21,1.3c-0.41,1.06-1.58,1.63-2.7,1.87c-3.5,0.78-7.41-0.76-9.44-3.72"/>
				<path class="st29" d="M75.78,81.22c-0.54-1.88-1.8-3.37-3.47-4.39c-1.2-0.73-2.66-0.87-4.06-0.78c-1.4,0.09-2.77,0.41-4.17,0.54
					c-2.37,0.22-4.88-0.04-7.04,0.89c-0.38-0.01-0.77,0.17-1.06,0.43c-0.38,0.35-0.61,0.84-0.8,1.32c-1.06,2.78-0.94,5.84-0.81,8.81
					c0.13,2.89,0.26,5.78,0.39,8.66c0.09,2.04,0.21,4.18,1.3,5.91c0.59,0.94,1.42,1.69,2.29,2.38c2.22,1.75,4.88,3.19,7.7,3.07
					c1.26-0.05,2.92-0.57,4.08-1.08c1.57-0.7,2.98-2,4.2-3.21c0.67-0.67,1.29-1.43,1.63-2.31c0.28-0.73,0.37-1.51,0.45-2.28
					C77.03,93.18,77.44,87.02,75.78,81.22z"/>
				<path class="st29" d="M89.44,146.28c-1.28-1.67-3-3.14-4.49-4.62c-1.6-1.59-3.14-3.26-4.73-4.88c-1.47-1.49-3-2.9-4.54-4.31
					c0.09-0.6,0.12-1.21,0.14-1.78c0.04-1.08-0.06-2.18-0.19-3.25c-0.13-1.03-0.31-2.05-0.56-3.05c-0.24-0.98-0.49-2.06-0.92-2.98
					c-0.23-0.48-0.74-0.89-1.28-0.61c-0.61,0.31-0.46,1.49-0.51,2.04c-0.11,1.15-0.26,2.29-0.52,3.41
					c-0.12,0.54-0.27,1.06-0.43,1.59c0,0.01-0.01,0.02-0.01,0.03c-4.01,0.68-7.92-0.04-11.91-1c-0.89-0.21-4.22-1.52-3.86,0.59
					c0.15,0.84,0.79,1.37,1.53,1.85c-0.01,0.64,0.22,1.4,0.64,1.9c0.51,0.61,1.15,1.13,1.81,1.59c0.03,0.6,0.34,1.2,0.71,1.69
					c0.66,0.88,1.54,1.59,2.51,2.11c1.08,0.58,2.27,0.96,3.47,1.16c0.96,0.16,2.07,0.38,3.1,0.28c0.52,2.33,1.44,4.51,2.5,6.68
					c1.24,2.55,2.68,5.59,4.94,7.4c2.12,1.69,4.95,1.83,7.5,1.19c2.06-0.52,6.94,0.77,7.77-1.25
					C92.82,151.02,91.08,148.42,89.44,146.28z"/>
				<g>
					<path class="st31" d="M63.02,131.53c0.75,0.17,1.5,0.32,2.26,0.45c0.67,0.11,1.41,0.32,2.09,0.26
						c0.16-0.01-6.11-1.49-7.21-1.79c-1-0.28-2.07-0.62-3.03-1.12c0.01,0,0.01,0.01,0.02,0.01c0,0.12,0.01,0.25,0.03,0.37
						c0.79,0.4,1.64,0.7,2.47,0.95C60.76,130.99,61.89,131.27,63.02,131.53z"/>
					<path class="st31" d="M62.61,133.98c-1.01-0.29-2.09-0.62-3.02-1.16c0.01,0.1,0.03,0.2,0.05,0.3c0.86,0.53,1.85,0.89,2.81,1.18
						c0.67,0.21,1.35,0.38,2.04,0.51c0.33,0.06,0.66,0.12,0.99,0.16c0.29,0.04,0.59,0.12,0.87,0
						C66.45,134.93,63.23,134.16,62.61,133.98z"/>
				</g>
				<path class="st8" d="M77.43,81.35c-1.1-3.24-2.77-6.46-6.09-7.86c-1.2-0.51-2.5-0.74-3.81-0.87c-1.43-0.13-2.87-0.14-4.29,0.02
					c-1.03,0.11-2.06,0.31-3.04,0.63c-3.42,1.13-5.99,4.01-6.93,7.29c-0.55,1.94-0.5,3.98-0.44,5.99c0.04,1.27,0.08,2.54,0.11,3.81
					c0.01,0.21,0.01,0.43,0.09,0.63c0.3,0.82,1.91,2,2.04,2.86l0.1-0.15c0.92-3.13-0.19-5.02,0.36-8.22c0.14-0.8,0.49-1.69,1.3-1.96
					c0.32-0.11,0.68-0.1,1.02-0.06c1.48,0.17,2.22,0.58,3.63,1.03c2.15,0.68,4.54,0.72,6.71,0.1c1.7-0.48,3.31-1.35,5.09-1.37
					c0.54-0.01,1.14,0.1,1.45,0.51c0.15,0.2,0.21,0.45,0.26,0.69c0.65,3.16,0.29,5.26,1.63,8.34c1.34-1.34,1.29-3.98,1.4-5.81
					C78.15,85.13,78.02,83.09,77.43,81.35z"/>
				<g>
					<path class="st8" d="M58.94,91.44c0.3-0.46,0.99-0.66,1.51-0.72c0.34-0.04,0.7-0.04,1.04,0.01c0.33,0.05,0.65,0.18,0.97,0.24
						c0.2,0.04,0.41,0.11,0.61,0c0.19-0.11,0.24-0.33,0.17-0.53c-0.13-0.36-0.64-0.56-0.98-0.65c-0.73-0.19-1.5-0.2-2.23,0.02
						c-0.72,0.22-1.38,0.66-1.57,1.43C58.4,91.52,58.78,91.68,58.94,91.44L58.94,91.44z"/>
				</g>
				<g>
					<path class="st8" d="M62.08,93.06c-0.16-0.16-0.35-0.29-0.58-0.36c-0.94-0.29-1.46,0.51-1.51,1.18c-0.03,0.32,0,0.65,0.13,0.94
						c0.47,1.02,2.2,0.94,2.47-0.16c0.12-0.5-0.07-1.08-0.41-1.49C62.15,93.14,62.11,93.1,62.08,93.06z"/>
				</g>
				<g>
					<path class="st8" d="M73.74,91.16c-0.36-1.47-2.27-1.74-3.52-1.51c-0.38,0.07-0.71,0.19-1.01,0.42
						c-0.17,0.13-0.31,0.3-0.27,0.54c0.04,0.23,0.25,0.35,0.48,0.35c0.17,0,0.38-0.06,0.54-0.11c0.18-0.05,0.36-0.12,0.55-0.16
						c0.32-0.07,0.64-0.07,0.96-0.07c0.35,0.01,0.7,0.08,1.03,0.21c0.3,0.12,0.58,0.25,0.76,0.53
						C73.43,91.61,73.81,91.45,73.74,91.16L73.74,91.16z"/>
				</g>
				<g>
					<path class="st8" d="M69.87,93.06c-0.26,0.47-0.33,1.08-0.11,1.54c0.48,1.02,2.19,0.76,2.45-0.33
						c0.08-0.32,0.03-0.64-0.06-0.95c-0.19-0.65-0.85-1.33-1.72-0.86c-0.21,0.11-0.37,0.28-0.49,0.47
						C69.92,92.97,69.89,93.01,69.87,93.06z"/>
				</g>
				<g>
					<path class="st31" d="M65.96,91.4c-0.27,1.75,0.39,3.52,1.5,4.86c0.33,0.4,0.69,0.76,1,1.18c0.17,0.24,0.4,0.57,0.13,0.83
						c-0.14,0.14-0.38,0.18-0.57,0.21c-0.45,0.05-0.93,0.03-1.38-0.02c-0.5-0.05-1-0.29-1.5-0.26c-0.13,0.01-0.21,0.17-0.11,0.27
						c0.36,0.34,0.93,0.41,1.42,0.47c0.52,0.07,1.03,0.07,1.54-0.02c0.83-0.14,1.37-0.76,0.85-1.55c-0.61-0.94-1.47-1.67-1.96-2.7
						c-0.48-1.02-0.62-2.13-0.75-3.24C66.11,91.34,65.97,91.3,65.96,91.4L65.96,91.4z"/>
				</g>
				<path class="st8" d="M70.28,100.98c-1.1,0.15-2.2,0.25-3.31,0.28c-1.04,0.03-2.07,0.07-3.11,0.04
					c-0.71-0.02-1.38,0.02-2.04,0.17c0.06,0.06,0.12,0.13,0.19,0.19c2.72,2.16,6.82,1.89,9.01-0.84
					C70.77,100.9,70.51,100.95,70.28,100.98z"/>
			</g>
		</g>
	</g>
</g>
</svg>
