<?xml version="1.0" encoding="utf-8"?>
<!-- Generator: Adobe Illustrator 23.0.3, SVG Export Plug-In . SVG Version: 6.00 Build 0)  -->
<svg version="1.1" id="Layer_1" xmlns="http://www.w3.org/2000/svg" xmlns:xlink="http://www.w3.org/1999/xlink" x="0px" y="0px"
	 viewBox="0 0 370 474" style="enable-background:new 0 0 370 474;" xml:space="preserve">
<style type="text/css">
	.st0{fill:#F2F2F2;}
	.st1{fill:#F06F76;}
	.st2{fill:#81A6D9;}
	.st3{fill:#9AB8E1;}
	.st4{fill:#CDDBF0;}
	.st5{fill:#477A9B;}
	.st6{fill:#F7C4A5;}
	.st7{fill:#FFFDFF;}
	.st8{fill:#545172;}
	.st9{fill:#E58C7E;}
	.st10{fill:#935771;}
	.st11{fill:#898192;}
	.st12{fill:#403867;}
	.st13{fill:#6F4C61;}
	.st14{fill:none;stroke:#935771;stroke-width:1.0087;stroke-linecap:round;stroke-miterlimit:10;}
	.st15{fill:#FFC672;}
	.st16{fill:none;stroke:#3C3966;stroke-width:1.0352;stroke-linecap:round;stroke-miterlimit:10;}
	.st17{fill:#7BA859;}
	.st18{fill:#BF9556;}
	.st19{fill:none;stroke:#81A6D9;stroke-linecap:round;stroke-miterlimit:10;}
	.st20{fill:#FFDDAA;}
	.st21{fill:#806339;}
</style>
<g>
	<rect x="0.31" class="st0" width="369.38" height="474"/>
	<g>
		<rect x="78.46" y="196.6" class="st1" width="38.61" height="79.62"/>
		<rect x="233.29" y="177.8" class="st2" width="38.61" height="97.9"/>
		<g>
			<path class="st2" d="M259.1,246.76l-22.59-6.8l11.17-20.78c0.39-0.73,0.52-1.54,0.48-2.33l0.05,0.03v-10.44l-4.67,4.07
				l-11.1-11.1c-1.41-1.41-3.57-1.72-5.32-0.78l-20.78,11.17l-6.8-22.59c-0.57-1.9-2.33-3.21-4.32-3.21h-20.44
				c-1.99,0-3.74,1.3-4.32,3.21l-6.8,22.59l-20.78-11.17c-1.75-0.94-3.91-0.62-5.32,0.78l-11.2,11.2l-4.57-4.07v10.45l0.05-0.03
				c-0.02,0.76,0.11,1.52,0.48,2.23l11.17,20.78l-22.59,6.8c-1.9,0.57-3.21,2.33-3.21,4.32v20.44c0,1.99,1.3,3.74,3.21,4.32
				l22.59,6.8l-7.55,14.06l-4.13-1.91v11.08l0.03-0.01c0.07,1.06,0.48,2.1,1.27,2.89l14.45,14.45c1.41,1.41,3.57,1.72,5.32,0.78
				l20.78-11.17l6.8,22.59c0.57,1.9,2.33,3.21,4.32,3.21h20.44c1.99,0,3.74-1.3,4.32-3.21l6.8-22.59l20.78,11.17
				c1.75,0.94,3.91,0.62,5.32-0.78l14.45-14.45c0.9-0.9,1.3-2.11,1.26-3.32l0.06,0.06v-10.43l-4.1,1.74l-7.6-14.15l22.59-6.8
				c1.9-0.57,3.21-2.33,3.21-4.32v-20.44C262.3,249.08,261,247.33,259.1,246.76z"/>
			<path class="st3" d="M259.1,236.28l-22.59-6.8l11.17-20.78c0.94-1.75,0.62-3.91-0.78-5.32l-14.45-14.45
				c-1.41-1.41-3.57-1.72-5.32-0.78l-20.78,11.17l-6.8-22.59c-0.57-1.9-2.33-3.21-4.32-3.21h-20.44c-1.99,0-3.74,1.3-4.32,3.21
				l-6.8,22.59l-20.78-11.17c-1.75-0.94-3.91-0.62-5.32,0.78l-14.45,14.45c-1.41,1.41-1.72,3.57-0.78,5.32l11.17,20.78l-22.59,6.8
				c-1.9,0.57-3.21,2.33-3.21,4.32v20.44c0,1.99,1.3,3.74,3.21,4.32l22.59,6.8l-11.17,20.78c-0.94,1.75-0.62,3.91,0.78,5.32
				l14.45,14.45c1.41,1.41,3.57,1.72,5.32,0.78l20.78-11.17l6.8,22.59c0.57,1.9,2.33,3.21,4.32,3.21h20.44
				c1.99,0,3.74-1.3,4.32-3.21l6.8-22.59l20.78,11.17c1.75,0.94,3.91,0.62,5.32-0.78l14.45-14.45c1.41-1.41,1.72-3.57,0.78-5.32
				l-11.17-20.78l22.59-6.8c1.9-0.57,3.21-2.33,3.21-4.32v-20.44C262.3,238.6,261,236.85,259.1,236.28z"/>
			<circle class="st3" cx="185" cy="254.87" r="61.19"/>
			<circle class="st4" cx="185" cy="250.81" r="61.19"/>
			<circle class="st3" cx="185" cy="250.81" r="47.67"/>
			<circle class="st5" cx="185" cy="256.05" r="30.56"/>
			<circle class="st4" cx="185" cy="250.81" r="30.56"/>
			<circle class="st3" cx="185" cy="250.81" r="14.33"/>
			<path class="st5" d="M185,208.38c25.44,0,46.17,19.95,47.53,45.05c0.05-0.87,0.13-1.74,0.13-2.62
				c0-26.33-21.34-47.67-47.67-47.67s-47.67,21.34-47.67,47.67c0,0.88,0.08,1.75,0.13,2.62C138.83,228.33,159.56,208.38,185,208.38z
				"/>
			<path class="st5" d="M185,241.72c7.02,0,12.83,5.05,14.07,11.71c0.16-0.85,0.26-1.72,0.26-2.62c0-7.92-6.42-14.33-14.33-14.33
				s-14.33,6.42-14.33,14.33c0,0.9,0.11,1.77,0.26,2.62C172.17,246.77,177.98,241.72,185,241.72z"/>
		</g>
		<g>
			<path class="st6" d="M198.34,196.83c0,0,3.44-3.81,4.5-3.9s0.32,12.02,0.32,12.02s-3.85-0.6-4.18-1.38
				S198.34,196.83,198.34,196.83z"/>
			<polygon class="st7" points="194.96,198.58 198.34,196.83 201.69,205.32 198.42,207.33 			"/>
			<polygon class="st2" points="200.11,201.31 198.07,206.45 198.42,207.33 201.69,205.32 			"/>
			<path class="st8" d="M203.01,162.57c0,0-2.96-1.74-2.4-4.27c0.57-2.53,3.25-5.93,4.53-6.26c1.28-0.33,1.49,0.66,1.49,0.66
				s1.94-1.27,3.01-0.72c1.07,0.54,0.33,1.92,0.33,1.92s5.08-0.1,7.86,1.85c2.78,1.95,4.18,5.25,4.3,9.06
				c0.11,3.82-1.04,7.23-1.04,7.23l-4.97,1.87L203.01,162.57z"/>
			<path class="st9" d="M206.69,185.4c0,0-3.76,5.67-4.52,7.46c-0.76,1.79-4.4,27.34-4.4,27.34s-1.45,0.05-1.38,1.02
				c0.07,0.96,0,1.51,0,1.51l-8.74,6.13l4.61,11.44l9.7-6.75l-2.98,14.54h2.62l-1.97,67.59h35.1l-3.72-19.23l0.69-41.02l0.62-0.02
				c0,0,6.68-24.9,6.95-28.61c0.28-3.72-6.13-34.62-7.78-36.75c-1.65-2.13-11.3-7.79-11.3-7.79L206.69,185.4z"/>
			<path class="st10" d="M223.85,201.67c0,0,3.03,15.07,3.76,19.39c0.73,4.31-2.29,4.86-0.78,5.87c1.51,1.01,1.51,1.01,1.51,1.01
				s-2.52,1.28-2.25,1.97s1.19,2.11,1.19,2.11l-4.79,20.43l0.44,0.31l8.76,2.66l-0.5,29.96c0,0-9.2-9.08-9.53-12.84
				c-0.33-3.77-1.38-9.59-1.38-9.59l-2.8,2.29l-5.74-4.81l0.83,13.76c0,0-1.84-5.69-3.21-11.75c-1.38-6.06-7.93-8.36-7.93-8.36
				l0.18-6l4.73,0.23l2.39-4.78l5.69,8.36c0,0,4.13-1.1,5.05-1.19s3.6-8.63,4.6-13.03s-1.35-7.34-0.27-10.55
				c1.08-3.21,1.45,0.03,1.91-6.91C226.14,213.26,222.47,201.65,223.85,201.67z"/>
			<path class="st2" d="M219.53,181.87c0,0-4.84,6.86-6.42,12.09s-4.68,21.82-4.68,21.82s-3.42-13.11-2.89-21.27
				c0.52-8.16,1.15-9.11,1.15-9.11L219.53,181.87z"/>
			<path class="st7" d="M208.29,187.56l-2.45,3.04c0,0,0.38-4.56,0.84-5.2c2.29-3.15,12.85-3.53,12.85-3.53l-5.56,9.76l-2.65-4.07
				H208.29z"/>
			<path class="st6" d="M219.99,173.24l-0.46,8.63l-8.21,5.69h-3.03l-0.92-2.49c0,0,0.84-5.01-0.22-8.94
				C206.19,172.57,219.99,173.24,219.99,173.24z"/>
			<path class="st11" d="M207.15,176.13c0.76,2.8,0.55,6.15,0.36,7.84c7.69-2.04,12.4-9.32,12.4-9.32l0.08-1.41
				c-2.54,0.23-8.66,0.46-12.09,1.35C207.29,174.99,206.98,175.49,207.15,176.13z"/>
			<path class="st5" d="M194.73,198.02c0,0-9.98,6.54-12.32,7.3c-2.34,0.76-2.45-1.24-3.65,0.48c-1.2,1.72-1.51,1.54-2.97,0.69
				c-1.46-0.84-13.96-13.15-15.68-14.32c-1.72-1.17-3.79-1.03-3.79-1.03l-14.94-1.86c0,0-3.99,4.2-5.78,5.57
				c-1.79,1.38-5.37,4.13-4.75,9.15c0.62,5.02,6.54,16.86,6.54,16.86l2.11,18.9l-2.2,18.08l3.21,0.46l-2.29,57.35h38.17l-4.59-58.18
				l2.23-1.28l-4.51-15.89l2.56-7.05l-4.54-1.47l-1.24-18.35c0,0,12.32,7.23,15.14,6.74s17.21-12.25,17.21-12.25L194.73,198.02z"/>
			<path class="st7" d="M141.4,189.28l2.64,1.13c1.15,0.49,2.08,1.38,2.63,2.5l12.97,26.45l-3.3-28.22L141.4,189.28z"/>
			<path class="st6" d="M154.73,181.19l0.14,2.4c0.14,2.57,0.64,5.11,1.46,7.55l0,0l-0.76,2.75l-2.27,0.48l-11.91-5.09
				c0,0,1.93-2.82,0.76-12.53C140.98,167.05,154.73,181.19,154.73,181.19z"/>
			<polygon class="st7" points="153.3,194.37 142.3,186.08 141.4,189.28 147.35,194.3 			"/>
			<path class="st11" d="M142.3,178.16c0.04,0.39,0.07,0.77,0.1,1.13c2.49,2.64,8.95,9.18,13.35,9.87
				c-0.47-1.82-0.77-3.68-0.88-5.56l-0.14-2.4c0,0-13.75-14.14-12.58-4.44C142.21,177.24,142.26,177.71,142.3,178.16z"/>
			<path class="st9" d="M157.77,167.45c0,0,1.17-2.77,0.81-5.62c-0.36-2.85-1.76-5.05-3.15-5.58c-1.39-0.52-2-0.17-2-0.17
				s-0.96-3.72-5.15-2.38s-6.8,6.39-10.34,7.73c-3.54,1.34-4.94,1.28-4.94,2.96s3.08,3.06,3.08,3.06s0.23,8.15,4.42,9.72
				C144.67,178.74,157.77,167.45,157.77,167.45z"/>
			<path class="st6" d="M152.75,161.02c0,0,3.54,0.23,4.24,2.9s1.65,8.89,1.39,12.14c-0.21,2.59-1.1,6.04-3.83,7.67
				c-2.73,1.63-8.28-1.58-9.88-2.5s-2.03-1.98-2.03-1.98s-1.99,0.95-2.77-1.49s0.85-3.52,1.98-3.29s1.12,2.21,1.12,2.21l0.47-0.21
				c0.59-0.26,0.93-0.88,0.84-1.52c-0.36-2.51-1.15-8.62-0.38-9.69c0.97-1.36,5.19,0.08,7.17-1.01
				C153.04,163.17,152.75,161.02,152.75,161.02z"/>
			<polygon class="st2" points="150.93,201.6 153.3,194.37 155.57,193.89 157.39,200.22 159.63,219.36 			"/>
			<polygon class="st1" points="151.52,199.82 153.61,202.32 153.9,207.65 159.63,219.36 157.96,205.07 156.74,201.77 
				157.21,199.57 155.57,193.89 153.3,194.37 			"/>
			<path class="st12" d="M148.83,243.67c1.61,0.28,6.38,0.96,9.54,0.5c3.17-0.46,6.15,1.65,8.26,2.71c2.11,1.06,5.31,1.93,5.31,1.93
				l-1.77-6.23c0,0-21.85-6.39-24.06-7.86c-2.2-1.47-8.72-13.86-8.72-13.86l2.11,18.9C143,243.67,147.22,243.4,148.83,243.67z"/>
			<path class="st12" d="M181.01,220.2c-2.09-1.28-4.48-4.2-7.96-8.55c-4.4-5.51-10.14-13.44-10.14-13.44l3.4,15.23
				C166.31,213.44,177.55,220.03,181.01,220.2z"/>
			<path class="st12" d="M167.55,231.78c0,0-11.36-2.93-11.49-4.03c-0.14-1.1-0.55-1.48-1.24-1.2s0.03,0-0.48-1.27
				c-0.52-1.27-1.31,0.31-2.06-1.31s-9.29-18.17-9.64-19.65c-0.34-1.48,5.37,6.64,6.23,8.78c0.86,2.13,5.2,11.01,7.47,12.59
				s11.14,4.92,11.14,4.92L167.55,231.78z"/>
			<path class="st12" d="M140.52,258.31c0,0,4.68,0.46,9.77,0.23c5.09-0.23,7.2-0.69,7.2-0.69l2.57-5.96c0,0,3.12,4.54,4.66,5.23
				c1.54,0.69,9.32-0.92,9.32-0.92l-2.23,1.28l0.14,1.84c0,0-1.73,2.15-3.59,4.01s-4.54,3.44-4.54,3.44l-3.44,22.64V263.4
				c0,0-2.68-0.14-6.74,3.23c-4.06,3.37-7.5,5.02-9.91,7.36c-2.41,2.34-4.04,5.03-4.04,5.03L140.52,258.31z"/>
			<path class="st13" d="M153.61,202.32l3.13-0.55c0,0-1.22,0.83-1.66,2.55c-0.44,1.72,1.06,7.92,1.06,7.92l-2.25-4.59
				L153.61,202.32z"/>
			<polygon class="st13" points="153.3,194.37 152.67,201.2 151.52,199.82 			"/>
			<path class="st14" d="M152.86,159.56c0,0-0.51-4.24-4.35-2.27c-3.84,1.98-5.99,5.69-13.02,6.04"/>
			<path class="st14" d="M150.66,161.02c0,0-1.16,1.1-5.75,1.98"/>
			<path class="st14" d="M142.58,167.5c0,0-3.1,2.05-5.31,1.78"/>
			<path class="st14" d="M142.58,170.56c0,0-2.13,1.74-4.11,1.67"/>
			<path class="st14" d="M142.19,164.48c0,0-2.94,0.97-5.31,0.7"/>
			<path class="st14" d="M154.01,157.9c0,0,2.98,0.23,3.6,2.56"/>
			<path class="st6" d="M203.01,162.57c0,0-1,10.88,0.39,14.1c1.39,3.22,2.27,3.91,4.42,3.71c2.15-0.2,5.05-1.27,7.43-2.82
				c2.39-1.55,3.02-2.86,3.02-2.86s1.23,1.27,2.74-0.12c1.51-1.39,1.47-3.38,0-4.41c-1.47-1.03-2.58,1.43-2.58,1.43l-1.79,0.6
				c0,0,1.11-8.23-0.08-9.62s-4.01-1.79-5.96-0.4C208.66,163.56,204.65,163.51,203.01,162.57z"/>
			<path class="st5" d="M205.61,199.54c0.57,7.61,2.82,16.24,2.82,16.24s2-10.7,3.61-17.62l-1.08-4.31l2.19-3.49l-1.82-2.8h-3.03
				l-1.84,2.28l1.06,4.28L205.61,199.54L205.61,199.54z"/>
			<path class="st7" d="M214.8,204.56c0,0,2.1-4.99,2.68-4.99c0.59,0,2.05,3.51,2.05,3.51s1.28-0.83,1.73-0.59
				c0.45,0.24,0.17,2.06,0.17,2.06H214.8z"/>
			<path class="st6" d="M221.97,256.57c0,0-1.42,3.4-2.16,4.82c-0.73,1.42-2.48,3.3-2.34,3.85s2.43,0,2.43,0s-0.14,2.43,0.37,5.28
				c0.5,2.84,1.03,3.14,1.51,2.98c0.48-0.16,0.5-0.6,0.5-0.6s0.37,0.64,0.94,0.63c0.57-0.01,0.76-0.61,0.76-0.61
				s0.41,0.48,1.01,0.37c0.6-0.11,1.67-1.8,1.98-2.83s0.59-1.69,0.59-1.69s-0.79,2.58-0.59,3.1c0.21,0.52,1.46,0.11,2.18-2.1
				c0.51-1.58,1.13-3.95,1.33-6.4c0.21-2.44,0.1-4.19,0.1-4.19S227.31,254.89,221.97,256.57z"/>
			<path class="st7" d="M231.69,255.42c0,0-0.46-1.19-4.13-1.97c-3.67-0.78-4.63-0.69-4.63-0.69l-0.96,3.81c0,0,2.29,0.05,4.86,0.78
				c2.57,0.73,3.76,1.84,3.76,1.84L231.69,255.42z"/>
			<path class="st11" d="M219.9,265.24c0,0,0.12-2.54,0.37-4.81c-0.17,0.36-0.33,0.69-0.46,0.96c-0.04,0.08-0.09,0.16-0.14,0.24
				c-0.03,0.78-0.14,2.11-0.57,2.71c-0.31,0.43-0.87,0.82-1.36,1.09C218.36,265.6,219.9,265.24,219.9,265.24z"/>
			<g>
				<path class="st11" d="M228.02,270.52c-0.48-0.64,0.23-3.28,0.23-3.28s-0.38,0.95-0.81,1.97c-0.21,0.76-0.61,2.28-0.46,2.67
					c0.17,0.43,1.05,0.21,1.75-1.11C228.51,270.83,228.25,270.82,228.02,270.52z"/>
				<path class="st11" d="M227.23,269.68c-0.39,0.87-0.78,1.69-0.97,1.84c-0.44,0.36-1.03,0.44-1.38-0.16
					c-0.34-0.6,1.28-4.68,0.94-4.59c-0.34,0.09-1.59,4.11-1.62,4.41s-0.4,0.66-0.74,0.76c-0.34,0.09-0.8,0.07-0.85-0.6
					c-0.05-0.67,0.69-5.51,0.39-5.51s-0.73,4.5-0.73,4.5s-0.09,1.06-0.94,1.12c-0.5,0.04-0.82-0.36-1.01-0.69
					c0.49,2.59,1,2.89,1.46,2.73c0.48-0.16,0.5-0.6,0.5-0.6s0.37,0.64,0.94,0.63c0.57-0.01,0.76-0.61,0.76-0.61s0.41,0.48,1.01,0.37
					c0.6-0.11,1.67-1.8,1.98-2.83C227.07,270.16,227.15,269.91,227.23,269.68z"/>
			</g>
			<path class="st10" d="M190.56,236.09c0,0,7.33-3.17,7.3-4.21c-0.03-1.04-2.73-1.96-2.09-3.52c0.64-1.56,3.49,1.06,4.13,0
				c0.64-1.06-2.43-3.76-2.02-4.68s1.93,0.96,2.57,0.55s2.06-14.13,2.06-14.13s0.49,17.82,0.49,19.2c0,1.38-1.04,4.25-1.04,4.25
				l-9.7,6.75L190.56,236.09z"/>
			<path class="st11" d="M190.17,240.29c0,0-2.66,3.43-4.27,5.26c-1.61,1.84-4.45,3.91-5.76,3.88c-1.31-0.03-1.17-2.13-1.17-2.13
				s-1.62,1.34-2.93,0.62c-1.31-0.72-0.65-2.1-0.65-2.1s-1.03,0.76-2.1,0.34c-1.07-0.41-0.55-2.72-0.55-2.72s-0.67,0.84-1.39,0.8
				c-0.72-0.04-2.33-0.46-1.33-2.59c1-2.13,4.8-4.33,6.62-5.38s8.28-1.74,8.28-1.74S190.97,237.14,190.17,240.29z"/>
			<path class="st6" d="M175.57,234.7c0,0,1.66-1.65,2.54-1.81c0.88-0.16,3.76,0.65,3.76,0.65l1.1,3.76c0,0,2.8,1.24,3.85,1.56
				s3.56,2,3.62,2.8c0.07,0.8-1.38,0.96-2.13,0.69s-2.13-1.07-2.13-1.07s-2.19-0.4-2.51,0.03c-0.32,0.44,4.47,2.11,4.61,2.48
				s0.2,0.93-0.42,1.53c-0.62,0.6-1.67,0.55-1.67,0.55s-0.22,0.5-1.02,0.91c-0.79,0.41-1.58,0.26-1.58,0.26s-0.61,0.72-2.15,0.67
				s-8.86-4.76-8.86-4.76L175.57,234.7z"/>
			<path class="st11" d="M181.86,233.54c0,0-0.81-0.23-1.7-0.41l-1.42,3.03l3.28-2.08L181.86,233.54z"/>
			<path class="st11" d="M177.69,240.82c0,0,1.21,1.26,3.1,0.39s2.65-2.52,2.65-2.52s2.21,0.4,2.93-0.75
				c0.72-1.15-4.03-2.42-4.03-2.42L177.69,240.82z"/>
			<path class="st6" d="M185.83,231.78c0,0-1.35-0.68-2.13-0.36s-4.27,3.03-4.96,4.73s-0.8,3.76-1.1,4.36
				c-0.3,0.6,1.77,1.19,2.82,0.09c1.06-1.1,2.23-3.15,2.23-3.15s4.01,1.77,5.53-0.81C189.74,234.06,185.83,231.78,185.83,231.78z"/>
			<path class="st11" d="M187.87,245.32c0.16-0.15,0.27-0.31,0.35-0.45c-0.3,0.19-0.77,0.41-1.31,0.41c-0.92,0-4.2-1.63-4.34-1.45
				c-0.14,0.18,3.62,2.04,3.62,2.04S187.25,245.92,187.87,245.32z"/>
			<path class="st11" d="M185.18,246.78c0.07-0.04,0.12-0.08,0.18-0.12c-0.29,0.01-0.65-0.01-1.09-0.12
				c-1.31-0.32-3.23-1.9-3.46-1.67c-0.23,0.23,2.79,2.17,2.79,2.17S184.39,247.2,185.18,246.78z"/>
			<path class="st11" d="M182.78,247.53c-0.42-0.09-0.91-0.22-1.48-0.41c-1.89-0.63-6.62-3.76-8.4-4.97l-0.29,0.82
				c0,0,7.32,4.71,8.86,4.76C182.01,247.73,182.45,247.64,182.78,247.53z"/>
			<path class="st6" d="M173,243.39c0,0,0.77-0.12,1.34,0.12s1.27,1.2,1.07,1.72c-0.21,0.52-1.32,0.6-2.05,0.19
				C172.64,245.02,172.59,243.63,173,243.39z"/>
			<path class="st6" d="M175.95,245.48c0,0,0.62-0.5,1.55,0c0.93,0.5,1.15,1.16,0.86,1.59c-0.29,0.44-1.07,0.52-1.86-0.11
				C175.7,246.32,175.7,245.78,175.95,245.48z"/>
			<path class="st6" d="M179.56,247.21c0,0,0.77-0.31,1.62,0.1c0.84,0.41,0.65,0.96,0,1.26
				C180.52,248.87,179.08,247.97,179.56,247.21z"/>
			<path class="st7" d="M171.99,233.54l3.58,1.17c0,0-1.31,5.09-2.1,6.71s-1.09,1.79-1.09,1.79l-3.55-1L171.99,233.54z"/>
			<path class="st7" d="M188.01,229.77l-2.39,1.29c0,0,1.06,3.9,2.02,5.92c0.96,2.02,2.52,3.32,2.52,3.32l1.69-0.98L188.01,229.77z"
				/>
			<path class="st2" d="M188.38,238.25c0.86,1.27,1.78,2.04,1.78,2.04l1.69-0.98l-1.07-2.65l0,0L188.38,238.25z"/>
			<path class="st2" d="M169.77,239.62l-0.94,2.58l3.55,1c0,0,0.3-0.17,1.09-1.79c0.08-0.16,0.16-0.36,0.25-0.58L169.77,239.62z"/>
			<path class="st2" d="M229,258.18c1.07,0.53,1.6,1.01,1.6,1.01l1.1-3.76c0,0-0.23-0.59-1.65-1.22L229,258.18z"/>
			<circle class="st15" cx="166.87" cy="239.49" r="0.93"/>
			<circle class="st15" cx="164.23" cy="238.69" r="0.93"/>
			<circle class="st15" cx="161.6" cy="237.9" r="0.93"/>
			<polygon class="st12" points="208.29,187.56 206.72,190.92 206.45,189.84 			"/>
			<path class="st12" d="M211.32,187.56l0.64,3.17l-1.79,3.12h-1.7c0,0,1.56,1.79,2.06,3.67c0.5,1.88-0.05,7.66-0.05,7.66l1.54-7.03
				l-1.08-4.31l2.19-3.49L211.32,187.56z"/>
			<line class="st16" x1="218.51" y1="164.44" x2="221.22" y2="164.44"/>
			<line class="st16" x1="218.51" y1="166.76" x2="220.86" y2="166.76"/>
			<circle class="st10" cx="208.87" cy="221.67" r="0.89"/>
			<circle class="st10" cx="208.87" cy="230.67" r="0.89"/>
		</g>
		<rect x="23.81" y="170.37" class="st15" width="38.61" height="73.73"/>
		<rect x="292.74" y="151.26" class="st17" width="38.61" height="97.9"/>
		<g>
			<path class="st6" d="M123.71,325.92c0,0-3.52,5.91,1.64,10.52c5.16,4.61,15.11-7.39,15.11-7.39l-11-6.35L123.71,325.92z"/>
			<path class="st11" d="M140.47,329.05l-11-6.35l-5.75,3.22c0,0-0.9,1.51-1.12,3.59c0.65,0.3,1.5,0.55,2.55,0.58
				c2.64,0.08,4.36-0.87,7.13,0c1.64,0.52,3.31,1.84,4.41,2.84C138.89,330.95,140.47,329.05,140.47,329.05z"/>
			<path class="st6" d="M238.8,275.75c0,0-5.78-1.3-10.82-3.88c-5.04-2.58-9.95-3.56-13.27-3.93s-19.6-3.56-25.5-1.17
				s17.88,56.58,17.88,56.58l31.33,2.4c0,0,10.55-2.95,13.2-7.19C254.28,314.32,238.8,275.75,238.8,275.75z"/>
			<path class="st11" d="M218.98,296.58c0,0,5.16,3.46,8.39,3c3.23-0.46,5.25-1.48,5.25-1.48l-1.29,4.61c0,0,3.69,7.19,5.81,9.77
				c2.12,2.58,4.14,3.75,4.14,3.75s2.22-0.61,2.96-4.21c0.74-3.59,1.73-12.37,1.73-12.37l5.67,18.91c0,0-1.15,1.92-3.84,3.32
				c-2.7,1.4-5.56,2.59-5.56,2.59L218.98,296.58z"/>
			<polygon class="st7" points="260.69,263.22 238.43,274.51 252.62,321.88 273.43,313.53 			"/>
			<path class="st2" d="M268.91,295.68l-1.24,6.07c-0.76,3.68-3.39,6.7-6.94,7.95l-10.63,3.74l2.53,8.44l20.81-8.35L268.91,295.68z"
				/>
			<path class="st6" d="M145.28,275.26c0,0,7.5-2.91,12.42-4.13c4.92-1.23,16.47-9.34,19.78-10.44c3.32-1.11,17.69,5.53,17.69,5.53
				l-1.23,19.54c0,0,0.49,1.47,2.7,2.21c2.21,0.74,15.73,6.51,19.41,7.13c3.69,0.61,14.13,11.67,16.71,14.99
				c2.58,3.32,9.34,12.78,9.71,15.24s-3.44,5.28-4.67,6.27s-4.18,0-4.18,0s-3.87,7.07-8.29,7.62c-4.42,0.55-7.19-0.55-7.19-0.55
				s-2.03,4.7-6.64,6.36c-4.61,1.66-8.66,0-8.66,0s-3.87,4.61-8.57,5.71c-4.7,1.11-35.66-11.24-47.28-15.76
				c-11.61-4.52-16.85-9.33-16.85-9.33L145.28,275.26z"/>
			<path class="st11" d="M141.67,317.14c-3.25-8.47-3.76-17.33-3.76-17.33l-7.75,25.83c0,0,5.24,4.81,16.85,9.33
				c11.61,4.52,42.58,16.86,47.28,15.76c0.43-0.1,0.85-0.24,1.27-0.4C182.56,341.37,144.32,324.04,141.67,317.14z"/>
			<path class="st11" d="M195.18,266.21c0,0-1.08-0.5-2.72-1.2c-4.45,1.1-14.08,3.61-16.6,5.32c-3.32,2.24-16.39,17.11-16.39,17.11
				l35.6-19.52L195.18,266.21z"/>
			<polygon class="st5" points="0.69,198.82 132.27,266.21 107.2,327.04 0.69,295.21 			"/>
			<path class="st7" d="M130.57,270.33l14.97,3.26c0,0-2.95,20.64-7.48,33.36c-3.08,8.64-8.55,20.09-8.55,20.09l-20.66-3.99
				L130.57,270.33z"/>
			<path class="st9" d="M369.31,198.88l-109.13,61.68c0,0,4.18,22.12,7.13,33.18s7.86,24.82,7.86,24.82l94.14-34.28V198.88z"/>
			<path class="st6" d="M197.89,265.93c0,0-7.11-0.09-13.93,2.5c-6.82,2.58-7.1,3.13-9.12,4.98s-6.64,7.19-10.41,10.14
				c-3.78,2.95-6.08,4.42-6.08,5.53c0,1.11,3.72,6.78,9.46,6.57s13.48-5.56,13.48-5.56l10.87-3.78c0,0,13.42,6.68,22.19,8.36
				C223.13,296.35,197.89,265.93,197.89,265.93z"/>
			<path class="st11" d="M158.78,290.19c0,0,4.55,3.12,9.89,3.02c5.35-0.09,9.03-3.23,10.6-4.79c1.57-1.57,3.32-4.7,3.32-4.7v2.95
				c0,0,6.91-0.28,12.16-2.95c5.25-2.67,8.57-8.02,8.57-8.02s-0.18,3.23-1.11,5.9c-0.92,2.67-0.37,5.53,2.58,7.74
				c2.95,2.21,8.41,5.07,8.41,5.07l-20.36-8.18l-11.55,3.84C181.29,290.08,168.33,302.13,158.78,290.19z"/>
			<path class="st11" d="M225.34,339.2c0.91-0.11,1.8-0.51,2.64-1.06c-1.77,0.08-4.83-0.11-9-1.61
				c-5.36-1.93-27.92-10.78-27.92-10.78l27.09,12.9C218.16,338.65,220.92,339.76,225.34,339.2z"/>
			<path class="st11" d="M201.29,346.61c0.98-0.91,1.57-1.6,1.57-1.6l-18.12-6.79L201.29,346.61z"/>
			<path class="st11" d="M193.95,302.4c0,0-4.62,0.55-6.67,0.25c-2.05-0.31-6.54-4.3-6.54-4.3s5.68,3.07,7.54,2.64
				c1.86-0.43,1.86-4.12,1.86-4.12S197.02,301.73,193.95,302.4z"/>
			<path class="st11" d="M174.6,315.3c0,0,8.6,4.73,10.57,5.22c1.97,0.49,3.44,0.25,3.44-1.29s-1.33-2.64-1.33-2.64
				s0.16,1.9-2.11,1.97S174.6,315.3,174.6,315.3z"/>
			<path class="st11" d="M211.52,345.01c0.02-0.01,0.04-0.02,0.07-0.03c-7.05,0.37-13.79-1.87-13.79-1.87s1.81,1.49,4.29,2.72
				c0.49-0.5,0.77-0.83,0.77-0.83S206.91,346.67,211.52,345.01z"/>
			<path class="st11" d="M180.74,330.66h-1.6l-7.81-4.51c0,0,6.09,5.37,7.31,5.74C179.88,332.26,180.74,330.66,180.74,330.66z"/>
			<path class="st11" d="M233.06,332.55c0,0-0.22-2.44-2.86-4.47c-2.64-2.03-29.49-17.56-29.49-17.56l17.39,3
				c0,0,3.19,3.19,4.79,4.48c1.6,1.29,4.36,2.64,4.36,2.64s2.15,3.72,3.58,6.21c1.43,2.49,2.81,4.73,2.81,4.73L233.06,332.55z"/>
			<path class="st6" d="M141.67,332.68c0,0-0.01,3.76,3.86,5.67c3.87,1.9,7.96,1.33,9.26-1.21c1.3-2.54-0.72-6.87-3.61-8.08
				C148.3,327.84,142.91,327.13,141.67,332.68z"/>
			<path class="st11" d="M146.23,336.91c-3.87-1.9-3.86-5.67-3.86-5.67c0.06-0.29,0.15-0.55,0.23-0.81c-0.4,0.6-0.72,1.33-0.93,2.24
				c0,0-0.01,3.76,3.86,5.67c3.87,1.9,7.96,1.33,9.26-1.21c0.13-0.26,0.22-0.53,0.29-0.82
				C153.47,338.32,149.76,338.65,146.23,336.91z"/>
			<path class="st6" d="M165.56,334.35c0,0-4.96-1.8-7.86,0.49c-2.9,2.29-2.33,6.64,1.9,8.72c4.24,2.09,8.17,0.98,9.28-2.03
				C169.99,338.53,168.76,335.52,165.56,334.35z"/>
			<path class="st11" d="M160.2,342.09c-2.87-1.41-4.05-3.86-3.62-6.01c-1.5,2.38-0.54,5.73,3.02,7.48
				c4.24,2.09,8.17,0.98,9.28-2.03c0.08-0.23,0.15-0.46,0.21-0.68C167.63,343.25,164.05,343.98,160.2,342.09z"/>
			<path class="st6" d="M168.45,344.12c0,0-0.61,3.62,5.1,5.9c3.7,1.47,7,0.68,8.05-1.47s-0.98-6.39-3.69-7.56
				C175.21,339.82,170.48,339.08,168.45,344.12z"/>
			<path class="st11" d="M174.04,348.6c-4.53-1.8-5.08-4.45-5.11-5.47c-0.17,0.3-0.33,0.62-0.48,0.98c0,0-0.61,3.62,5.1,5.9
				c3.7,1.47,7,0.68,8.05-1.47c0.15-0.3,0.23-0.64,0.26-1.01C180.62,349.37,177.51,349.98,174.04,348.6z"/>
			<path class="st12" d="M121.45,292.46l-13.42,16.84c-3.38,4.24-9.04,5.91-14.18,4.19l-93.17-32.7v14.42l106.51,31.83
				L121.45,292.46z"/>
			<path class="st2" d="M115.36,307.24L115.36,307.24l-6.52,15.82l20.66,3.99c0,0,1.62-3.38,3.59-7.86l-9.71-3.41
				C119.47,314.4,116.48,311.22,115.36,307.24z"/>
			<path class="st10" d="M269.97,302.89L269.97,302.89c2.57,8.29,5.2,15.67,5.2,15.67l94.14-34.28v-17.2l-77.64,33.33
				C284.84,303.35,277.29,304.21,269.97,302.89L269.97,302.89z"/>
			<g>
				<circle class="st15" cx="91.23" cy="307.75" r="6.27"/>
				<circle class="st18" cx="91.23" cy="307.75" r="3.78"/>
			</g>
			<g>
				<circle class="st15" cx="73.83" cy="301.48" r="6.27"/>
				<circle class="st18" cx="73.83" cy="301.48" r="3.78"/>
			</g>
			<g>
				<circle class="st15" cx="56.43" cy="295.21" r="6.27"/>
				<circle class="st18" cx="56.43" cy="295.21" r="3.78"/>
			</g>
		</g>
		<g>
			<path class="st4" d="M171.91,120.74c0,0,1.66-1.38,1.2-3.5c-0.46-2.12-1.01-4.98-1.2-5.99c-0.18-1.01,3.59-2.3,4.88-0.74
				c1.29,1.57,1.38,4.34,2.21,4.75c0.83,0.41,7.56-3.64,8.75-3c1.2,0.65,2.3,12.26,1.75,13.55c-0.55,1.29-7.69,4.15-8.73,4.15
				c-1.04,0-3.07-2.03-5.46-1.11S171.91,120.74,171.91,120.74z"/>
			<path class="st5" d="M172.36,119.05l4.07,10.14c0.32,0.81-0.06,1.72-0.86,2.06l-4.55,1.9c-0.8,0.34-1.73-0.04-2.07-0.84
				l-4.35-10.12c-0.35-0.82,0.04-1.77,0.87-2.1l4.83-1.92C171.11,117.84,172.04,118.24,172.36,119.05z"/>
		</g>
		<g>
			<polygon class="st4" points="98.85,138.47 86.94,144.94 79.36,170.57 105.88,178.41 116.17,143.59 			"/>
			<path class="st12" d="M105.27,149.88l-9.89-2.92c-0.17-0.05-0.27-0.23-0.22-0.41l0.26-0.87c0.05-0.17,0.23-0.27,0.41-0.22
				l9.89,2.92c0.17,0.05,0.27,0.23,0.22,0.41l-0.26,0.87C105.63,149.83,105.44,149.93,105.27,149.88z"/>
			<path class="st12" d="M107.86,157.52l-18.81-5.56c-0.17-0.05-0.27-0.23-0.22-0.41l0.26-0.87c0.05-0.17,0.23-0.27,0.41-0.22
				l18.81,5.56c0.17,0.05,0.27,0.23,0.22,0.41l-0.26,0.87C108.22,157.47,108.04,157.57,107.86,157.52z"/>
			<path class="st12" d="M105.88,164.24l-18.81-5.56c-0.17-0.05-0.27-0.23-0.22-0.41l0.26-0.87c0.05-0.17,0.23-0.27,0.41-0.22
				l18.81,5.56c0.17,0.05,0.27,0.23,0.22,0.41l-0.26,0.87C106.24,164.19,106.05,164.29,105.88,164.24z"/>
			<path class="st12" d="M103.89,170.95l-18.81-5.56c-0.17-0.05-0.27-0.23-0.22-0.41l0.26-0.87c0.05-0.17,0.23-0.27,0.41-0.22
				l18.81,5.56c0.17,0.05,0.27,0.23,0.22,0.41l-0.26,0.87C104.25,170.91,104.07,171,103.89,170.95z"/>
			<polygon class="st2" points="96.13,147.66 98.85,138.47 86.94,144.94 			"/>
		</g>
		<g>
			<path class="st12" d="M269.43,234.54l-4.42-0.89c-0.88-0.18-1.46-1.04-1.28-1.92l2.41-12.04l7.63,1.53l-2.41,12.04
				C271.18,234.15,270.32,234.72,269.43,234.54z"/>
			<path class="st4" d="M272.22,231.72l-8.68-1.74c-1.74-0.35-2.86-2.04-2.52-3.78l2.1-10.5l14.98,3l-2.1,10.5
				C275.65,230.94,273.96,232.07,272.22,231.72z"/>
			<circle class="st15" cx="271.89" cy="210.79" r="12.35"/>
			<path class="st19" d="M263.03,221.98c0,0,4.83,4.84,12.61,2.52"/>
			<path class="st19" d="M262.3,225.59c0,0,4.83,4.84,12.61,2.52"/>
			<path class="st18" d="M275.16,212.62c-1.07-0.17-2.29,0.39-2.57,1.76l-0.44,2.22c-0.71-0.1-1.73-0.28-2.72-0.59l0.44-2.17
				c0.27-1.37-0.64-2.35-1.69-2.61c-0.98-0.24-2.21,0.12-2.61,1.48c-0.04,0.14-0.08,0.28-0.11,0.43c-0.14,0.71,0.01,1.37,0.45,1.97
				c0.51,0.69,1.38,1.2,2.33,1.58l-1.1,5.5c0.32,0.13,0.65,0.25,0.98,0.36l1.07-5.35c0.6,0.15,1.63,0.37,2.75,0.46l-1.09,5.44
				c0.35,0.03,0.7,0.05,1.04,0.05l1.09-5.45c1.02,0,2.03-0.16,2.77-0.61c0.64-0.38,1.03-0.94,1.17-1.65
				c0.03-0.15,0.05-0.3,0.07-0.44C277.15,213.58,276.14,212.78,275.16,212.62z M268.44,215.65c-0.73-0.31-1.36-0.69-1.71-1.17
				c-0.26-0.35-0.35-0.73-0.26-1.15c0.02-0.12,0.05-0.24,0.08-0.35c0.21-0.73,0.82-0.87,1.31-0.78c0.02,0,0.04,0.01,0.06,0.01
				c0.57,0.14,1.08,0.63,0.93,1.41L268.44,215.65z M275.22,216.2c-0.51,0.31-1.24,0.44-2.03,0.46l0.41-2.07
				c0.16-0.78,0.81-1.03,1.39-0.94c0.02,0,0.04,0.01,0.06,0.01c0.48,0.1,0.99,0.47,0.91,1.22c-0.01,0.11-0.03,0.23-0.06,0.35
				C275.83,215.65,275.6,215.97,275.22,216.2z"/>
			
				<ellipse transform="matrix(0.8322 -0.5545 0.5545 0.8322 -67.7756 189.1956)" class="st20" cx="278.7" cy="206.58" rx="3.2" ry="4.24"/>
			
				<ellipse transform="matrix(0.8322 -0.5545 0.5545 0.8322 -75.7326 182.7784)" class="st20" cx="264.12" cy="216.51" rx="1.89" ry="2.51"/>
			<path class="st20" d="M275.01,196.75l-0.59-0.12c-0.12-0.02-0.19-0.14-0.17-0.26l0.78-3.88c0.02-0.12,0.14-0.19,0.26-0.17
				l0.59,0.12c0.12,0.02,0.19,0.14,0.17,0.26l-0.78,3.88C275.24,196.7,275.13,196.77,275.01,196.75z"/>
			<path class="st20" d="M266.16,197.6l-0.54,0.25c-0.11,0.05-0.24,0-0.29-0.11l-1.65-3.6c-0.05-0.11,0-0.24,0.11-0.29l0.54-0.25
				c0.11-0.05,0.24,0,0.29,0.11l1.65,3.6C266.32,197.42,266.27,197.55,266.16,197.6z"/>
			<path class="st20" d="M259.51,203.49l-0.29,0.52c-0.06,0.1-0.19,0.14-0.3,0.08l-3.45-1.94c-0.1-0.06-0.14-0.19-0.08-0.3
				l0.29-0.52c0.06-0.1,0.19-0.14,0.3-0.08l3.45,1.94C259.53,203.25,259.56,203.38,259.51,203.49z"/>
			<path class="st20" d="M257.58,212.16l0.07,0.59c0.01,0.12-0.07,0.23-0.19,0.24l-3.93,0.46c-0.12,0.01-0.23-0.07-0.24-0.19
				l-0.07-0.59c-0.01-0.12,0.07-0.23,0.19-0.24l3.93-0.46C257.46,211.96,257.57,212.04,257.58,212.16z"/>
			<path class="st20" d="M261.12,220.31l0.41,0.44c0.08,0.09,0.08,0.23-0.01,0.31l-2.91,2.68c-0.09,0.08-0.23,0.08-0.31-0.01
				l-0.41-0.44c-0.08-0.09-0.08-0.23,0.01-0.31l2.91-2.68C260.9,220.22,261.04,220.22,261.12,220.31z"/>
			<path class="st20" d="M277.62,223.98l0.54-0.25c0.11-0.05,0.24,0,0.29,0.11l1.65,3.6c0.05,0.11,0,0.24-0.11,0.29l-0.54,0.25
				c-0.11,0.05-0.24,0-0.29-0.11l-1.65-3.6C277.47,224.16,277.51,224.03,277.62,223.98z"/>
			<path class="st20" d="M284.28,218.09l0.29-0.52c0.06-0.1,0.19-0.14,0.3-0.08l3.45,1.94c0.1,0.06,0.14,0.19,0.08,0.3l-0.29,0.52
				c-0.06,0.1-0.19,0.14-0.3,0.08l-3.45-1.94C284.26,218.33,284.22,218.19,284.28,218.09z"/>
			<path class="st20" d="M286.21,209.41l-0.07-0.59c-0.01-0.12,0.07-0.23,0.19-0.24l3.93-0.46c0.12-0.01,0.23,0.07,0.24,0.19
				l0.07,0.59c0.01,0.12-0.07,0.23-0.19,0.24l-3.93,0.46C286.33,209.62,286.22,209.53,286.21,209.41z"/>
			<path class="st20" d="M282.67,201.26l-0.41-0.44c-0.08-0.09-0.08-0.23,0.01-0.31l2.91-2.68c0.09-0.08,0.23-0.08,0.31,0.01
				l0.41,0.44c0.08,0.09,0.08,0.23-0.01,0.31l-2.91,2.68C282.88,201.36,282.75,201.35,282.67,201.26z"/>
		</g>
		<g>
			<path class="st12" d="M63.61,148.34l-4.05,1.98c-0.81,0.4-1.79,0.06-2.19-0.75l-5.4-11.03l6.99-3.42l5.4,11.03
				C64.76,146.97,64.42,147.94,63.61,148.34z"/>
			<path class="st4" d="M64.11,144.41l-7.96,3.9c-1.59,0.78-3.51,0.12-4.29-1.47l-4.71-9.62l13.72-6.72l4.71,9.62
				C66.36,141.7,65.7,143.63,64.11,144.41z"/>
			<circle class="st15" cx="51.13" cy="127.98" r="12.35"/>
			<path class="st19" d="M50.89,142.26c0,0,6.77,0.91,11.55-5.65"/>
			<path class="st19" d="M52.51,145.56c0,0,6.77,0.91,11.55-5.65"/>
			<path class="st18" d="M54.84,127.45c-0.95,0.52-1.58,1.7-0.97,2.96l0.99,2.03c-0.62,0.36-1.55,0.83-2.52,1.19l-0.97-1.99
				c-0.62-1.26-1.94-1.48-2.93-1.05c-0.92,0.41-1.68,1.44-1.17,2.76c0.05,0.13,0.11,0.27,0.18,0.41c0.32,0.65,0.84,1.09,1.55,1.29
				c0.83,0.24,1.83,0.11,2.81-0.16l2.47,5.04c0.33-0.09,0.67-0.19,1-0.31l-2.4-4.9c0.57-0.25,1.51-0.7,2.46-1.31l2.44,4.99
				c0.3-0.19,0.58-0.39,0.86-0.6l-2.44-4.99c0.81-0.62,1.52-1.36,1.83-2.16c0.27-0.69,0.25-1.37-0.07-2.02
				c-0.07-0.14-0.14-0.27-0.21-0.39C57.01,127,55.72,126.98,54.84,127.45z M51.35,133.94c-0.77,0.2-1.5,0.27-2.07,0.11
				c-0.42-0.12-0.72-0.37-0.91-0.75c-0.05-0.11-0.1-0.22-0.14-0.33c-0.27-0.71,0.12-1.19,0.57-1.41c0.02-0.01,0.04-0.02,0.05-0.03
				c0.54-0.24,1.24-0.16,1.59,0.55L51.35,133.94z M57.07,130.26c-0.22,0.56-0.72,1.1-1.33,1.59l-0.93-1.9
				c-0.35-0.71,0.02-1.31,0.54-1.6c0.02-0.01,0.04-0.02,0.05-0.03c0.44-0.22,1.07-0.23,1.46,0.42c0.06,0.1,0.12,0.2,0.17,0.31
				C57.22,129.45,57.23,129.84,57.07,130.26z"/>
			
				<ellipse transform="matrix(0.3241 -0.946 0.946 0.3241 -77.5067 132.5095)" class="st20" cx="53.98" cy="120.5" rx="3.2" ry="4.24"/>
			
				<ellipse transform="matrix(0.3241 -0.946 0.946 0.3241 -97.1014 138.588)" class="st20" cx="48.44" cy="137.25" rx="1.89" ry="2.51"/>
			<path class="st20" d="M45.08,114.93l-0.54,0.26c-0.11,0.05-0.24,0.01-0.29-0.1l-1.74-3.56c-0.05-0.11-0.01-0.24,0.1-0.29
				l0.54-0.26c0.11-0.05,0.24-0.01,0.29,0.1l1.74,3.56C45.23,114.75,45.19,114.88,45.08,114.93z"/>
			<path class="st20" d="M38.57,120.98l-0.28,0.53c-0.06,0.11-0.19,0.15-0.29,0.09l-3.5-1.85c-0.11-0.06-0.15-0.19-0.09-0.29
				l0.28-0.53c0.06-0.11,0.19-0.15,0.29-0.09l3.5,1.85C38.59,120.75,38.63,120.88,38.57,120.98z"/>
			<path class="st20" d="M36.86,129.7l0.08,0.59c0.02,0.12-0.07,0.23-0.18,0.25l-3.92,0.56c-0.12,0.02-0.23-0.07-0.25-0.18
				l-0.08-0.59c-0.02-0.12,0.07-0.23,0.18-0.25l3.92-0.56C36.73,129.5,36.84,129.59,36.86,129.7z"/>
			<path class="st20" d="M40.6,137.77l0.42,0.43c0.08,0.09,0.08,0.22,0,0.31l-2.84,2.76c-0.09,0.08-0.22,0.08-0.31,0l-0.42-0.43
				c-0.08-0.09-0.08-0.22,0-0.31l2.84-2.76C40.38,137.68,40.52,137.68,40.6,137.77z"/>
			<path class="st20" d="M48.36,142.09l0.59,0.1c0.12,0.02,0.2,0.13,0.18,0.25l-0.68,3.9c-0.02,0.12-0.13,0.2-0.25,0.18l-0.59-0.1
				c-0.12-0.02-0.2-0.13-0.18-0.25l0.68-3.9C48.13,142.15,48.25,142.07,48.36,142.09z"/>
			<path class="st20" d="M63.7,134.97l0.28-0.53c0.06-0.11,0.19-0.15,0.29-0.09l3.5,1.85c0.11,0.06,0.15,0.19,0.09,0.29l-0.28,0.53
				c-0.06,0.11-0.19,0.15-0.29,0.09l-3.5-1.85C63.68,135.21,63.64,135.08,63.7,134.97z"/>
			<path class="st20" d="M65.41,126.25l-0.08-0.59c-0.02-0.12,0.07-0.23,0.18-0.25l3.92-0.56c0.12-0.02,0.23,0.07,0.25,0.18
				l0.08,0.59c0.02,0.12-0.07,0.23-0.18,0.25l-3.92,0.56C65.54,126.45,65.43,126.37,65.41,126.25z"/>
			<path class="st20" d="M61.67,118.19l-0.42-0.43c-0.08-0.09-0.08-0.22,0-0.31l2.84-2.76c0.09-0.08,0.22-0.08,0.31,0l0.42,0.43
				c0.08,0.09,0.08,0.22,0,0.31l-2.84,2.76C61.89,118.28,61.75,118.28,61.67,118.19z"/>
			<path class="st20" d="M53.9,113.87l-0.59-0.1c-0.12-0.02-0.2-0.13-0.18-0.25l0.68-3.9c0.02-0.12,0.13-0.2,0.25-0.18l0.59,0.1
				c0.12,0.02,0.2,0.13,0.18,0.25l-0.68,3.9C54.13,113.81,54.02,113.89,53.9,113.87z"/>
		</g>
		<g>
			<path class="st21" d="M102.87,218.88l-0.06,0c-0.09-1.13-0.31-2.26-0.69-3.38c-2.51-7.32-10.47-11.22-17.79-8.71
				c-5.44,1.87-8.99,6.75-9.42,12.15l-0.05,0v1.04l0.02,0c-0.01,1.53,0.22,3.08,0.75,4.61c2.51,7.32,10.47,11.22,17.79,8.71
				c5.74-1.97,9.36-7.3,9.45-13.04l0.02,0V218.88z"/>
			<circle class="st15" cx="88.86" cy="218.66" r="14.01"/>
			<circle class="st18" cx="88.86" cy="218.66" r="11.29"/>
			<path class="st21" d="M85.2,208.96c5.9-2.02,12.32,1.12,14.34,7.02c0.36,1.04,0.54,2.09,0.59,3.14c0.06-1.36-0.12-2.75-0.59-4.12
				c-2.02-5.9-8.44-9.04-14.34-7.02c-4.86,1.67-7.84,6.32-7.61,11.21C77.77,214.67,80.67,210.52,85.2,208.96z"/>
			<g>
				<path class="st21" d="M94.64,219.88c0.72,2.09-0.47,3.73-2.37,4.7l0.88,2.58l-2.63,0.9l-0.9-2.63c-1.55,0.27-3.22,0.2-4.6-0.26
					l0.42-3.22c1.46,0.56,3.69,0.66,4.81,0.28c0.54-0.18,0.83-0.48,0.69-0.87c-0.49-1.44-5.91,1.48-7.25-2.41
					c-0.62-1.82,0.21-3.52,2.11-4.61l-0.87-2.55l2.63-0.9l0.86,2.5c1.42-0.29,2.89-0.3,4.06-0.01l-0.37,3.24
					c-1.33-0.23-3.29-0.32-4.26,0.01c-0.41,0.14-0.64,0.36-0.52,0.69C87.82,218.7,93.27,215.86,94.64,219.88z"/>
			</g>
			<g>
				<path class="st15" d="M94.64,219c0.72,2.09-0.47,3.73-2.37,4.7l0.88,2.58l-2.63,0.9l-0.9-2.63c-1.55,0.27-3.22,0.2-4.6-0.26
					l0.42-3.22c1.46,0.56,3.69,0.66,4.81,0.28c0.54-0.18,0.83-0.48,0.69-0.87c-0.49-1.44-5.91,1.48-7.25-2.41
					c-0.62-1.82,0.21-3.52,2.11-4.61l-0.87-2.55l2.63-0.9l0.86,2.5c1.42-0.29,2.89-0.3,4.06-0.01l-0.37,3.24
					c-1.33-0.23-3.29-0.32-4.26,0.01c-0.41,0.14-0.64,0.36-0.52,0.69C87.82,217.82,93.27,214.98,94.64,219z"/>
			</g>
		</g>
		<g>
			<path class="st21" d="M339.36,154.19l-0.06-0.02c0.3-1.09,0.49-2.23,0.52-3.41c0.18-7.73-5.94-14.15-13.68-14.33
				c-5.75-0.13-10.77,3.22-13.04,8.13l-0.05-0.02l-0.36,0.98l0.01,0.01c-0.54,1.43-0.86,2.97-0.9,4.58
				c-0.18,7.73,5.94,14.15,13.68,14.33c6.07,0.14,11.31-3.61,13.38-8.96l0.02,0.01L339.36,154.19z"/>
			<circle class="st15" cx="326.29" cy="149.14" r="14.01"/>
			<circle class="st18" cx="326.29" cy="149.14" r="11.29"/>
			<path class="st21" d="M326.22,138.77c6.23,0.15,11.17,5.32,11.03,11.55c-0.03,1.1-0.21,2.15-0.53,3.15
				c0.52-1.26,0.84-2.63,0.87-4.07c0.15-6.23-4.79-11.41-11.03-11.55c-5.14-0.12-9.55,3.21-11.02,7.88
				C317.27,141.55,321.43,138.66,326.22,138.77z"/>
			<g>
				<path class="st21" d="M331.3,152.28c-0.05,2.21-1.73,3.34-3.85,3.59l-0.06,2.73l-2.78-0.06l0.06-2.78
					c-1.55-0.29-3.09-0.92-4.22-1.84l1.51-2.88c1.18,1.03,3.23,1.9,4.42,1.93c0.57,0.01,0.94-0.16,0.95-0.58
					c0.04-1.52-6.06-0.66-5.96-4.77c0.04-1.92,1.41-3.23,3.58-3.6l0.06-2.69l2.78,0.06l-0.06,2.64c1.43,0.22,2.81,0.72,3.82,1.39
					l-1.47,2.91c-1.17-0.68-2.98-1.44-4-1.46c-0.43-0.01-0.72,0.12-0.73,0.47C325.31,148.81,331.4,148.03,331.3,152.28z"/>
			</g>
			<g>
				<path class="st15" d="M331.6,151.46c-0.05,2.21-1.73,3.34-3.85,3.59l-0.06,2.73l-2.78-0.06l0.06-2.78
					c-1.55-0.29-3.09-0.92-4.22-1.84l1.51-2.88c1.18,1.03,3.23,1.9,4.42,1.93c0.57,0.01,0.94-0.16,0.95-0.58
					c0.04-1.52-6.06-0.66-5.96-4.77c0.04-1.92,1.41-3.23,3.58-3.6l0.06-2.69l2.78,0.06l-0.06,2.64c1.43,0.22,2.81,0.72,3.82,1.39
					l-1.47,2.91c-1.17-0.68-2.98-1.44-4-1.46c-0.43-0.01-0.72,0.12-0.73,0.47C325.61,147.99,331.7,147.21,331.6,151.46z"/>
			</g>
		</g>
		<g>
			<path class="st2" d="M280.93,143.59l-6.16-1.85l3.04-5.67c0.11-0.2,0.14-0.42,0.13-0.64l0.01,0.01v-2.85l-1.27,1.11l-3.02-3.02
				c-0.38-0.38-0.97-0.47-1.45-0.21l-5.67,3.04l-1.85-6.16c-0.16-0.52-0.63-0.87-1.18-0.87h-5.57c-0.54,0-1.02,0.36-1.18,0.87
				l-1.85,6.16l-5.67-3.04c-0.48-0.26-1.07-0.17-1.45,0.21l-3.05,3.05l-1.25-1.11v2.85l0.01-0.01c0,0.21,0.03,0.42,0.13,0.61
				l3.04,5.67l-6.16,1.85c-0.52,0.16-0.87,0.63-0.87,1.18v5.57c0,0.54,0.36,1.02,0.87,1.18l6.16,1.85l-2.06,3.83l-1.13-0.52v3.02
				l0.01,0c0.02,0.29,0.13,0.57,0.35,0.79l3.94,3.94c0.38,0.38,0.97,0.47,1.45,0.21l5.67-3.04l1.85,6.16
				c0.16,0.52,0.63,0.87,1.18,0.87h5.57c0.54,0,1.02-0.36,1.18-0.87l1.85-6.16l5.67,3.04c0.48,0.26,1.07,0.17,1.45-0.21l3.94-3.94
				c0.25-0.25,0.35-0.57,0.34-0.91l0.02,0.02v-2.84l-1.12,0.47l-2.07-3.86l6.16-1.85c0.52-0.16,0.87-0.63,0.87-1.18v-5.57
				C281.8,144.23,281.44,143.75,280.93,143.59z"/>
			<path class="st3" d="M280.93,140.74l-6.16-1.85l3.04-5.67c0.26-0.48,0.17-1.07-0.21-1.45l-3.94-3.94
				c-0.38-0.38-0.97-0.47-1.45-0.21l-5.67,3.04l-1.85-6.16c-0.16-0.52-0.63-0.87-1.18-0.87h-5.57c-0.54,0-1.02,0.36-1.18,0.87
				l-1.85,6.16l-5.67-3.04c-0.48-0.26-1.07-0.17-1.45,0.21l-3.94,3.94c-0.38,0.38-0.47,0.97-0.21,1.45l3.04,5.67l-6.16,1.85
				c-0.52,0.16-0.87,0.63-0.87,1.18v5.57c0,0.54,0.36,1.02,0.87,1.18l6.16,1.85l-3.04,5.67c-0.26,0.48-0.17,1.07,0.21,1.45
				l3.94,3.94c0.38,0.38,0.97,0.47,1.45,0.21l5.67-3.04l1.85,6.16c0.16,0.52,0.63,0.87,1.18,0.87h5.57c0.54,0,1.02-0.36,1.18-0.87
				l1.85-6.16l5.67,3.04c0.48,0.26,1.07,0.17,1.45-0.21l3.94-3.94c0.38-0.38,0.47-0.97,0.21-1.45l-3.04-5.67l6.16-1.85
				c0.52-0.16,0.87-0.63,0.87-1.18v-5.57C281.8,141.37,281.44,140.89,280.93,140.74z"/>
			<circle class="st3" cx="260.73" cy="145.8" r="16.68"/>
			<circle class="st4" cx="260.73" cy="144.7" r="16.68"/>
			<circle class="st3" cx="260.73" cy="144.7" r="12.99"/>
			<circle class="st5" cx="260.73" cy="146.13" r="8.33"/>
			<circle class="st4" cx="260.73" cy="144.7" r="8.33"/>
			<circle class="st3" cx="260.73" cy="144.7" r="3.91"/>
			<path class="st5" d="M260.73,133.13c6.94,0,12.59,5.44,12.96,12.28c0.01-0.24,0.04-0.47,0.04-0.71c0-7.18-5.82-12.99-12.99-12.99
				c-7.18,0-12.99,5.82-12.99,12.99c0,0.24,0.02,0.48,0.04,0.71C248.14,138.57,253.79,133.13,260.73,133.13z"/>
			<path class="st5" d="M260.73,142.22c1.91,0,3.5,1.38,3.84,3.19c0.04-0.23,0.07-0.47,0.07-0.71c0-2.16-1.75-3.91-3.91-3.91
				c-2.16,0-3.91,1.75-3.91,3.91c0,0.24,0.03,0.48,0.07,0.71C257.23,143.6,258.81,142.22,260.73,142.22z"/>
		</g>
		<polygon class="st7" points="211.32,187.56 219.67,179.3 220.19,182.25 213.97,191.63 		"/>
	</g>
</g>
</svg>
