<?xml version="1.0" encoding="utf-8"?>
<!-- Generator: Adobe Illustrator 23.0.3, SVG Export Plug-In . SVG Version: 6.00 Build 0)  -->
<svg version="1.1" id="Layer_1" xmlns="http://www.w3.org/2000/svg" xmlns:xlink="http://www.w3.org/1999/xlink" x="0px" y="0px"
	 viewBox="0 0 370 474" style="enable-background:new 0 0 370 474;" xml:space="preserve">
<style type="text/css">
	.st0{fill:#F2F2F2;}
	.st1{clip-path:url(#SVGID_2_);}
	.st2{fill-rule:evenodd;clip-rule:evenodd;fill:#E6E6E6;}
	.st3{fill-rule:evenodd;clip-rule:evenodd;fill:#E3B19B;}
	.st4{fill-rule:evenodd;clip-rule:evenodd;fill:#FCE4D6;}
	.st5{fill-rule:evenodd;clip-rule:evenodd;fill:#FFFFFF;}
	.st6{fill-rule:evenodd;clip-rule:evenodd;fill:url(#SVGID_3_);}
	.st7{fill-rule:evenodd;clip-rule:evenodd;fill:#F1D3C4;}
	.st8{fill-rule:evenodd;clip-rule:evenodd;fill:#FDF1E8;}
	.st9{fill-rule:evenodd;clip-rule:evenodd;fill:#E9695B;}
	.st10{fill-rule:evenodd;clip-rule:evenodd;fill:#503621;}
	.st11{fill-rule:evenodd;clip-rule:evenodd;fill:#1A1A18;}
	.st12{fill-rule:evenodd;clip-rule:evenodd;fill:#302D28;}
	.st13{fill-rule:evenodd;clip-rule:evenodd;fill:#674834;}
	.st14{fill-rule:evenodd;clip-rule:evenodd;fill:#8E6B56;}
	.st15{fill-rule:evenodd;clip-rule:evenodd;fill:#F5AC83;}
	.st16{fill-rule:evenodd;clip-rule:evenodd;fill:#EE9073;}
	.st17{fill-rule:evenodd;clip-rule:evenodd;fill:#362A25;}
	.st18{fill-rule:evenodd;clip-rule:evenodd;fill:#F9EAE0;}
	.st19{fill-rule:evenodd;clip-rule:evenodd;fill:#D64C47;}
	.st20{fill-rule:evenodd;clip-rule:evenodd;fill:#B56B41;}
	.st21{fill-rule:evenodd;clip-rule:evenodd;fill:#ED7862;}
	.st22{fill-rule:evenodd;clip-rule:evenodd;fill:#D58750;}
	.st23{fill-rule:evenodd;clip-rule:evenodd;fill:#472E17;}
	.st24{fill-rule:evenodd;clip-rule:evenodd;fill:#342000;}
	.st25{fill-rule:evenodd;clip-rule:evenodd;fill:#F18A00;}
	.st26{fill-rule:evenodd;clip-rule:evenodd;fill:#FCC100;}
	.st27{fill-rule:evenodd;clip-rule:evenodd;fill:#8B472D;}
</style>
<g>
	<g>
		<rect x="0.31" class="st0" width="369.38" height="474"/>
		<g>
			<defs>
				<path id="SVGID_1_" d="M363.69,474H6.31c-3.31,0-6-2.69-6-6V6c0-3.31,2.69-6,6-6h357.38c3.31,0,6,2.69,6,6v462
					C369.69,471.31,367,474,363.69,474z"/>
			</defs>
			<clipPath id="SVGID_2_">
				<use xlink:href="#SVGID_1_"  style="overflow:visible;"/>
			</clipPath>
			<g class="st1">
				<g>
					<path class="st2" d="M392.9,237.12h53.53h1.39c29.56,0,53.74,24.18,53.74,53.74l0,0c0,29.56-24.18,53.74-53.74,53.74h-156.9
						H263.9H-16.58c-47.86,0-87.03-39.16-87.03-87.02v0c0-47.86,39.16-87.02,87.03-87.03h0c20.24,0,36.8-16.56,36.8-36.8l0,0
						c0-20.24-16.56-36.8-36.8-36.8h-44.28c-21.04,0-38.26-17.22-38.26-38.26l0,0c0-21.04,17.21-38.26,38.26-38.26h81.55
						c8.19,0,14.89-6.7,14.89-14.89l0,0c0-8.19-6.7-14.89-14.89-14.89H-1.25c-5.65,0-10.28-4.63-10.28-10.28v0
						c0-5.65,4.63-10.28,10.28-10.28h23.51c0,0,14.14,0,27.78,0c13.64,0,22.26,16.12,56.72,16.12c53.27,0,67.65,0,120.92,0
						c7.38,0,13.41,6.04,13.41,13.41l0,0c0,7.38-6.04,13.41-13.41,13.41h-15.67c-10.69,0-19.43,8.75-19.43,19.43v0
						c0,10.69,8.75,19.43,19.43,19.43h25.99c52.35,0,59.74,13.68,68.91,40.89c9.17,27.21,56.78,29.4,56.78,29.4h32.55
						c16.11,0,29.29,13.18,29.29,29.29l0,0c0,16.11-13.18,29.29-29.29,29.29h-3.35c-15.49,0-28.17,12.68-28.17,28.17l0,0
						C364.73,224.45,377.41,237.12,392.9,237.12L392.9,237.12z M-30.09-9.33c5.68,0,10.28-4.6,10.28-10.28
						c0-5.68-4.6-10.28-10.28-10.28c-5.68,0-10.28,4.6-10.28,10.28C-40.37-13.94-35.77-9.33-30.09-9.33z"/>
					<g>
						<path class="st3" d="M175.57,159.14h-19.65v68.39h64.99v-58.17c-4.82-0.93-10.79-1.4-18.29-1.4h-15.69
							C181.49,167.97,176.87,164.2,175.57,159.14z"/>
						<path class="st4" d="M175.36,158.13H154.4v68.23h64.99v-57.26c-4.54-0.75-10.04-1.13-16.77-1.13h-15.69
							C181.13,167.97,176.27,163.69,175.36,158.13z"/>
						<path class="st5" d="M213.89,168.41v52.45h-54v-57.24h17.94c2.16,2.65,5.44,4.35,9.1,4.35h15.69
							C206.84,167.97,210.57,168.11,213.89,168.41z"/>
						<rect x="76.89" y="159.14" class="st3" width="64.99" height="52.99"/>
						<rect x="75.36" y="158.13" class="st4" width="64.99" height="52.99"/>
						<rect x="80.86" y="163.62" class="st5" width="54" height="42"/>
					</g>
					<linearGradient id="SVGID_3_" gradientUnits="userSpaceOnUse" x1="132.5784" y1="181.2743" x2="132.5784" y2="129.6601">
						<stop  offset="0" style="stop-color:#FDEDE2"/>
						<stop  offset="1" style="stop-color:#FFFFFF"/>
					</linearGradient>
					<path class="st6" d="M70.56,223.26c0.52-1.88,0.8-3.86,0.8-5.9l0,0c0-2.69-0.49-5.28-1.38-7.68l38.3-64.11h40.49l46.4,77.69
						H70.56z"/>
					<g>
						<g>
							<polygon class="st3" points="150.98,145.57 105.71,145.57 128.35,132.23 							"/>
							<path class="st3" d="M105.89,144.27h44.91c0.72,0,1.3,0.59,1.3,1.3l0,0c0,0.72-0.59,1.3-1.3,1.3h-44.91
								c-0.72,0-1.3-0.59-1.3-1.3l0,0C104.59,144.85,105.18,144.27,105.89,144.27z"/>
							<rect x="127.3" y="128.32" class="st3" width="2.1" height="6.54"/>
						</g>
						<path class="st5" d="M128.35,144.56c11.68,0,21.14,1.04,21.14,2.33c0,1.28-9.47,2.33-21.14,2.33
							c-11.68,0-21.14-1.04-21.14-2.33C107.2,145.6,116.67,144.56,128.35,144.56z"/>
					</g>
					<path class="st3" d="M57.95,165.44c0-0.35,0.28-0.63,0.63-0.63c0.35,0,0.63,0.28,0.63,0.63v1.48h1.48
						c0.35,0,0.63,0.28,0.63,0.63c0,0.35-0.28,0.63-0.63,0.63h-1.48v1.48c0,0.35-0.28,0.63-0.63,0.63c-0.35,0-0.63-0.28-0.63-0.63
						v-1.48h-1.48c-0.35,0-0.63-0.28-0.63-0.63c0-0.35,0.28-0.63,0.63-0.63h1.48V165.44z"/>
					<path class="st3" d="M40.34,176.74L40.34,176.74L40.34,176.74z M38.43,169.46c-0.67-0.67-1.58-1.08-2.6-1.08
						c-1.01,0-1.93,0.41-2.6,1.08c-0.67,0.67-1.08,1.58-1.08,2.6c0,1.02,0.41,1.93,1.08,2.6c0.67,0.67,1.58,1.08,2.6,1.08
						c1.02,0,1.93-0.41,2.6-1.08c0.67-0.67,1.08-1.58,1.08-2.6C39.51,171.05,39.1,170.13,38.43,169.46L38.43,169.46z M37.64,165.82
						c0.51,0.15,0.99,0.35,1.44,0.61c0.46,0.27,0.88,0.59,1.26,0.95c0.07,0.07,0.18,0.08,0.27,0.03l1.71-0.99l0.01-0.01
						c0.1-0.05,0.21-0.06,0.31-0.04c0.11,0.03,0.2,0.1,0.26,0.2l0.01,0.01l1.2,2.08c0.06,0.1,0.07,0.22,0.04,0.32
						c-0.03,0.1-0.1,0.2-0.2,0.26l-0.01,0.01l-1.69,0.98c-0.09,0.05-0.13,0.15-0.11,0.25h0c0.06,0.25,0.11,0.51,0.14,0.78
						c0.03,0.26,0.05,0.52,0.05,0.79c0,0.27-0.02,0.53-0.05,0.79c-0.03,0.27-0.08,0.53-0.14,0.78c-0.03,0.1,0.03,0.21,0.12,0.26
						l1.69,0.98l0,0c0.1,0.06,0.17,0.15,0.2,0.26c0.03,0.11,0.02,0.22-0.04,0.32l-1.21,2.09l0,0c-0.06,0.1-0.15,0.17-0.26,0.2
						c-0.11,0.03-0.22,0.02-0.32-0.04l-0.01-0.01l-1.7-0.98c-0.09-0.05-0.2-0.03-0.27,0.03c-0.38,0.37-0.8,0.69-1.26,0.95
						c-0.45,0.26-0.94,0.47-1.45,0.62c-0.1,0.03-0.16,0.12-0.16,0.22v1.97c0,0.12-0.05,0.22-0.12,0.3s-0.18,0.12-0.3,0.12h-2.42
						c-0.12,0-0.22-0.05-0.3-0.12c-0.08-0.08-0.12-0.18-0.12-0.3v-1.97c0-0.11-0.07-0.2-0.17-0.22c-0.51-0.15-0.99-0.35-1.44-0.61
						c-0.46-0.27-0.88-0.59-1.26-0.95c-0.08-0.07-0.19-0.08-0.28-0.03l-1.7,0.98c-0.1,0.06-0.22,0.07-0.32,0.04
						c-0.1-0.03-0.2-0.1-0.26-0.2l-0.01-0.01l-1.2-2.08h0c-0.06-0.1-0.07-0.22-0.04-0.32c0.03-0.11,0.1-0.2,0.2-0.26l1.71-0.99
						c0.09-0.05,0.13-0.15,0.11-0.25l0,0c-0.06-0.25-0.11-0.51-0.14-0.78c-0.03-0.26-0.05-0.52-0.05-0.79
						c0-0.27,0.02-0.53,0.05-0.79c0.03-0.27,0.08-0.52,0.14-0.78c0.03-0.1-0.03-0.21-0.12-0.26l-1.69-0.98
						c-0.1-0.06-0.17-0.15-0.2-0.26c-0.03-0.11-0.02-0.22,0.04-0.32l0.01-0.01l1.2-2.08l0,0c0.06-0.1,0.15-0.17,0.26-0.2
						c0.11-0.03,0.22-0.02,0.32,0.04h0l1.71,0.99c0.09,0.05,0.2,0.04,0.27-0.04c0.38-0.36,0.8-0.68,1.26-0.95
						c0.45-0.26,0.94-0.47,1.45-0.62c0.1-0.03,0.16-0.12,0.16-0.22v-1.97c0-0.12,0.05-0.22,0.12-0.3c0.08-0.08,0.18-0.12,0.3-0.12
						h2.42c0.12,0,0.22,0.05,0.3,0.12c0.08,0.08,0.12,0.18,0.12,0.3v1.97C37.46,165.71,37.54,165.8,37.64,165.82z"/>
					<path class="st3" d="M357.46,235.39c-0.8-0.8-1.75-1.44-2.81-1.88c-1.02-0.42-2.14-0.66-3.31-0.66c-1.17,0-2.29,0.23-3.31,0.66
						c-1.06,0.44-2.02,1.08-2.81,1.88c-0.8,0.8-1.44,1.75-1.88,2.81c-0.42,1.02-0.66,2.14-0.66,3.31c0,1.17,0.23,2.29,0.66,3.31
						c0.44,1.06,1.08,2.02,1.88,2.81c0.8,0.8,1.75,1.44,2.81,1.88c1.02,0.42,2.14,0.66,3.31,0.66c1.17,0,2.29-0.23,3.31-0.66
						c1.06-0.44,2.02-1.08,2.81-1.88c0.8-0.8,1.44-1.75,1.88-2.81c0.42-1.02,0.66-2.14,0.66-3.31c0-1.17-0.23-2.29-0.66-3.31
						C358.9,237.14,358.26,236.18,357.46,235.39L357.46,235.39z M354.34,234.25c0.96,0.4,1.82,0.98,2.55,1.71
						c0.73,0.73,1.31,1.59,1.71,2.55c0.38,0.92,0.6,1.94,0.6,3.01c0,1.07-0.21,2.08-0.6,3.01c-0.4,0.96-0.98,1.82-1.71,2.55
						c-0.73,0.73-1.59,1.31-2.55,1.71c-0.92,0.38-1.94,0.59-3.01,0.59c-1.07,0-2.08-0.21-3-0.59c-0.96-0.4-1.83-0.98-2.55-1.71
						c-0.73-0.73-1.31-1.59-1.71-2.55c-0.38-0.92-0.59-1.94-0.59-3.01c0-1.07,0.21-2.08,0.59-3.01c0.4-0.96,0.98-1.82,1.71-2.55
						c0.73-0.73,1.59-1.31,2.55-1.71c0.92-0.38,1.94-0.59,3.01-0.59C352.4,233.65,353.42,233.86,354.34,234.25L354.34,234.25z
						 M355.3,227.87c0.54,0.16,1.07,0.35,1.6,0.57c0.53,0.22,1.04,0.48,1.53,0.77c0.5,0.29,0.98,0.61,1.44,0.96
						c0.46,0.35,0.91,0.73,1.32,1.13c0.15,0.14,0.33,0.22,0.52,0.25c0.19,0.02,0.39-0.02,0.57-0.12c1.27-0.73,2.61-1.46,3.85-2.23
						c0.06-0.03,0.12-0.05,0.19-0.06c0.07-0.01,0.14,0,0.21,0.02c0.07,0.02,0.14,0.05,0.19,0.09c0.05,0.04,0.1,0.1,0.14,0.16
						c0.93,1.4,1.86,3.22,2.72,4.7c0.04,0.06,0.06,0.13,0.07,0.2c0.01,0.07,0,0.15-0.02,0.22c-0.02,0.07-0.05,0.14-0.09,0.19
						c-0.04,0.05-0.1,0.1-0.16,0.14c-1.14,0.76-2.62,1.51-3.83,2.21c-0.18,0.1-0.31,0.26-0.38,0.43c-0.03,0.06-0.05,0.12-0.06,0.19
						l-0.08,0.03l0.09,0.36c0.07,0.28,0.13,0.56,0.18,0.84c0.05,0.27,0.09,0.56,0.13,0.85c0.03,0.29,0.06,0.58,0.08,0.86
						c0.02,0.28,0.03,0.57,0.03,0.87c0,0.3-0.01,0.59-0.03,0.87c-0.02,0.28-0.04,0.57-0.08,0.86c-0.04,0.3-0.08,0.58-0.13,0.85
						c-0.05,0.28-0.11,0.56-0.18,0.84c-0.05,0.21-0.03,0.42,0.06,0.6c0.08,0.18,0.23,0.33,0.41,0.43l3.39,1.96l0,0l0.4,0.23
						c0.06,0.04,0.12,0.09,0.16,0.14c0.04,0.06,0.08,0.12,0.09,0.19c0.02,0.07,0.03,0.15,0.02,0.22c-0.01,0.07-0.03,0.14-0.07,0.2
						l-2.51,4.35l0,0l-0.2,0.35c-0.04,0.06-0.09,0.12-0.14,0.16c-0.06,0.04-0.12,0.08-0.19,0.09c-0.07,0.02-0.15,0.03-0.22,0.02
						c-0.07-0.01-0.14-0.03-0.2-0.07c-1.21-0.76-2.59-1.49-3.84-2.22c-0.18-0.1-0.38-0.14-0.56-0.11c-0.19,0.02-0.38,0.11-0.52,0.24
						l0,0c-0.41,0.4-0.86,0.78-1.32,1.13c-0.46,0.35-0.94,0.67-1.44,0.96c-0.5,0.29-1.01,0.54-1.54,0.77
						c-0.52,0.22-1.07,0.41-1.62,0.58c-0.2,0.06-0.36,0.17-0.48,0.33c-0.12,0.15-0.18,0.35-0.18,0.55l0,4.43
						c0,0.07-0.01,0.14-0.04,0.21c-0.03,0.07-0.07,0.13-0.12,0.18c-0.05,0.05-0.11,0.09-0.18,0.12c-0.06,0.03-0.13,0.04-0.21,0.04
						h-5.43c-0.07,0-0.15-0.01-0.21-0.04c-0.07-0.03-0.13-0.07-0.18-0.12c-0.05-0.05-0.09-0.11-0.12-0.18
						c-0.03-0.06-0.04-0.13-0.04-0.21v-4.43c0-0.21-0.07-0.41-0.2-0.56c-0.12-0.16-0.3-0.27-0.5-0.32c-0.54-0.16-1.07-0.35-1.6-0.57
						c-0.53-0.23-1.04-0.48-1.53-0.77c-0.5-0.29-0.98-0.61-1.44-0.96c-0.46-0.35-0.91-0.73-1.32-1.13
						c-0.15-0.15-0.35-0.23-0.55-0.25c-0.2-0.02-0.41,0.03-0.58,0.15l-3.79,2.19c-0.06,0.04-0.13,0.06-0.2,0.07
						c-0.07,0.01-0.15,0-0.22-0.02c-0.07-0.02-0.14-0.05-0.19-0.09c-0.05-0.04-0.1-0.1-0.14-0.16c-0.9-1.57-1.81-3.13-2.72-4.7
						c-0.04-0.06-0.06-0.13-0.07-0.2c-0.01-0.07,0-0.15,0.02-0.22c0.02-0.07,0.05-0.14,0.09-0.19c0.04-0.06,0.09-0.1,0.16-0.14
						l3.84-2.21c0.18-0.1,0.31-0.25,0.38-0.43c0.02-0.05,0.04-0.1,0.05-0.15l0.1-0.02l-0.1-0.41c-0.07-0.28-0.13-0.56-0.18-0.84
						c-0.05-0.27-0.09-0.56-0.13-0.85c-0.04-0.29-0.06-0.58-0.08-0.86c-0.02-0.28-0.03-0.57-0.03-0.87c0-0.3,0.01-0.59,0.03-0.87
						c0.02-0.28,0.04-0.57,0.08-0.86c0.04-0.3,0.08-0.59,0.13-0.86c0.05-0.28,0.11-0.56,0.18-0.84c0.05-0.21,0.03-0.42-0.06-0.6
						c-0.08-0.18-0.23-0.33-0.41-0.42l-3.8-2.19c-0.06-0.04-0.12-0.08-0.16-0.14c-0.04-0.06-0.08-0.12-0.09-0.19
						c-0.02-0.07-0.03-0.15-0.02-0.22c0.01-0.07,0.03-0.14,0.07-0.2c0.93-1.38,1.86-3.22,2.72-4.7c0.04-0.06,0.09-0.12,0.14-0.16
						c0.06-0.04,0.12-0.08,0.19-0.09c0.07-0.02,0.15-0.03,0.22-0.02c0.07,0.01,0.14,0.03,0.2,0.07l3.84,2.21
						c0.18,0.11,0.38,0.14,0.58,0.11c0.19-0.03,0.38-0.11,0.52-0.26c0.42-0.4,0.86-0.78,1.31-1.12c0.46-0.34,0.94-0.66,1.44-0.95
						c0.49-0.29,1.01-0.54,1.54-0.77c0.52-0.22,1.07-0.41,1.62-0.58c0.2-0.06,0.36-0.17,0.48-0.33c0.12-0.15,0.18-0.35,0.18-0.55
						l0-4.43c0-0.07,0.01-0.14,0.04-0.21c0.03-0.07,0.07-0.13,0.12-0.18c0.05-0.05,0.11-0.09,0.18-0.12
						c0.06-0.03,0.13-0.04,0.21-0.04h5.43c0.07,0,0.14,0.01,0.21,0.04c0.07,0.03,0.13,0.07,0.18,0.12c0.1,0.1,0.16,0.24,0.16,0.39
						v4.43c0,0.21,0.07,0.41,0.19,0.56C354.92,227.71,355.1,227.83,355.3,227.87L355.3,227.87z M357.21,227.71
						c0.56,0.24,1.1,0.51,1.62,0.81c0.53,0.31,1.04,0.64,1.53,1.01c0.49,0.37,0.95,0.76,1.39,1.19c0.02,0.02,0.04,0.03,0.06,0.03
						c0.02,0,0.05,0,0.07-0.01c1.29-0.74,2.58-1.49,3.87-2.24c0.15-0.08,0.32-0.13,0.48-0.15c0.17-0.02,0.34-0.01,0.51,0.04
						c0.17,0.05,0.33,0.12,0.47,0.23c0.14,0.1,0.26,0.24,0.35,0.4c0.93,1.51,1.82,3.15,2.72,4.7c0.09,0.16,0.15,0.33,0.17,0.5
						c0.02,0.18,0.01,0.36-0.04,0.53c-0.04,0.17-0.12,0.33-0.23,0.47c-0.1,0.14-0.24,0.26-0.4,0.35c-1.23,0.76-2.57,1.49-3.83,2.21
						c-0.02,0.01-0.03,0.03-0.04,0.05c-0.01,0.02-0.01,0.05-0.01,0.07l0.09,0.36l-0.01,0c0.04,0.17,0.07,0.35,0.11,0.53
						c0.06,0.31,0.1,0.61,0.14,0.91c0.04,0.29,0.06,0.6,0.08,0.91c0.02,0.31,0.03,0.62,0.03,0.92c0,0.3-0.01,0.6-0.03,0.92
						c-0.02,0.31-0.05,0.62-0.08,0.91c-0.04,0.3-0.08,0.6-0.14,0.9c-0.06,0.31-0.12,0.6-0.19,0.89c-0.01,0.02,0,0.05,0.01,0.07
						c0.01,0.02,0.03,0.04,0.05,0.05c1.41,0.75,2.84,1.64,4.23,2.44l-0.05,0.06l0.04,0.05c0.11,0.14,0.19,0.3,0.23,0.47
						c0.05,0.17,0.06,0.35,0.04,0.53c-0.02,0.17-0.08,0.34-0.17,0.5l-2.92,5.06l-0.05-0.03c-0.03,0.03-0.06,0.05-0.09,0.08
						c-0.14,0.11-0.3,0.19-0.47,0.23c-0.17,0.04-0.35,0.06-0.53,0.03c-0.17-0.02-0.33-0.07-0.49-0.16c-1.28-0.68-2.59-1.5-3.85-2.22
						c-0.02-0.01-0.04-0.01-0.06-0.01c-0.02,0-0.05,0.01-0.06,0.03c-0.44,0.42-0.91,0.82-1.39,1.19c-0.48,0.36-0.99,0.7-1.52,1.01
						c-0.52,0.3-1.07,0.58-1.63,0.81c-0.56,0.24-1.13,0.44-1.72,0.61c-0.02,0.01-0.04,0.02-0.06,0.04
						c-0.01,0.02-0.02,0.04-0.02,0.06v4.43c0,0.18-0.04,0.36-0.1,0.52c-0.07,0.17-0.17,0.32-0.3,0.44
						c-0.12,0.12-0.27,0.22-0.44,0.29c-0.16,0.07-0.33,0.1-0.52,0.1h-5.43c-0.18,0-0.36-0.04-0.52-0.1
						c-0.16-0.07-0.31-0.17-0.44-0.29c-0.12-0.12-0.22-0.27-0.29-0.44c-0.07-0.16-0.1-0.33-0.1-0.52v-4.43
						c0-0.03-0.01-0.05-0.02-0.07c-0.01-0.02-0.04-0.03-0.06-0.04l-0.02-0.01c-0.59-0.17-1.16-0.37-1.71-0.61
						c-0.56-0.24-1.1-0.51-1.62-0.81c-0.53-0.31-1.04-0.64-1.53-1.01c-0.49-0.37-0.95-0.76-1.39-1.19
						c-0.02-0.02-0.04-0.03-0.06-0.03c-0.02,0-0.05,0-0.07,0.02l-3.83,2.21c-0.16,0.09-0.33,0.15-0.5,0.17
						c-0.18,0.02-0.36,0.01-0.53-0.03c-0.17-0.05-0.33-0.12-0.47-0.23c-0.13-0.1-0.25-0.23-0.34-0.38
						c-1.01-1.62-1.96-3.39-2.92-5.06l0.05-0.03c-0.01-0.04-0.02-0.08-0.02-0.13c-0.02-0.18-0.01-0.36,0.03-0.53
						c0.05-0.17,0.12-0.33,0.23-0.47c0.1-0.14,0.24-0.26,0.39-0.35l3.84-2.21c0.02-0.01,0.03-0.03,0.04-0.05
						c0.01-0.02,0.01-0.05,0.01-0.07l-0.1-0.41l0.01,0c-0.03-0.16-0.07-0.32-0.1-0.48c-0.06-0.31-0.1-0.61-0.14-0.9
						c-0.04-0.29-0.06-0.6-0.08-0.91c-0.02-0.31-0.03-0.62-0.03-0.92c0-0.3,0.01-0.6,0.03-0.92c0.02-0.31,0.05-0.62,0.08-0.91
						c0.04-0.29,0.08-0.59,0.14-0.9c0.06-0.3,0.12-0.6,0.19-0.89c0.01-0.02,0-0.05-0.01-0.07c-0.01-0.02-0.03-0.04-0.05-0.05
						l-3.83-2.21c-0.16-0.09-0.29-0.21-0.39-0.35c-0.11-0.14-0.19-0.31-0.23-0.47c-0.05-0.17-0.06-0.35-0.03-0.53
						c0.02-0.17,0.07-0.33,0.16-0.49c0.91-1.69,1.96-3.4,2.93-5.07l0.05,0.03c0.03-0.03,0.06-0.05,0.09-0.08
						c0.14-0.11,0.3-0.19,0.47-0.23c0.17-0.04,0.35-0.06,0.53-0.03c0.17,0.02,0.34,0.08,0.5,0.17l0.28,0.16l0,0l3.56,2.05
						c0.02,0.01,0.05,0.02,0.07,0.01c0.02,0,0.04-0.01,0.06-0.03l0.01-0.01c0.44-0.42,0.9-0.81,1.39-1.18
						c0.49-0.37,0.99-0.7,1.52-1.01c0.52-0.3,1.07-0.58,1.63-0.81c0.56-0.24,1.13-0.44,1.72-0.61c0.02-0.01,0.04-0.02,0.06-0.04
						c0.01-0.02,0.02-0.04,0.02-0.06v-4.43c0-0.18,0.04-0.36,0.1-0.52c0.07-0.17,0.17-0.32,0.3-0.44c0.12-0.12,0.27-0.23,0.44-0.29
						c0.16-0.07,0.33-0.1,0.52-0.1h5.43c0.18,0,0.36,0.04,0.52,0.1c0.16,0.07,0.31,0.17,0.44,0.29c0.24,0.24,0.4,0.58,0.4,0.95v4.43
						c0,0.03,0.01,0.05,0.02,0.07c0.01,0.02,0.03,0.03,0.06,0.04l0.02,0.01C356.09,227.27,356.66,227.47,357.21,227.71z"/>
					<path class="st3" d="M318.78,266.7L318.78,266.7L318.78,266.7z M316.87,259.42c-0.67-0.66-1.58-1.08-2.6-1.08
						c-1.02,0-1.93,0.41-2.6,1.08c-0.66,0.67-1.08,1.58-1.08,2.6c0,1.01,0.41,1.93,1.08,2.6c0.67,0.66,1.58,1.08,2.6,1.08
						s1.93-0.41,2.6-1.08c0.67-0.67,1.08-1.59,1.08-2.6C317.95,261.01,317.53,260.09,316.87,259.42L316.87,259.42z M316.08,255.78
						c0.51,0.15,0.99,0.35,1.44,0.61c0.46,0.27,0.88,0.59,1.26,0.95c0.07,0.07,0.18,0.08,0.27,0.03l1.71-0.99l0.01-0.01
						c0.1-0.05,0.21-0.06,0.31-0.04c0.11,0.03,0.2,0.1,0.26,0.2l0.01,0.01l1.2,2.08c0.06,0.1,0.07,0.22,0.04,0.32
						c-0.03,0.11-0.1,0.2-0.2,0.26l-0.01,0.01l-1.69,0.98c-0.09,0.05-0.13,0.15-0.11,0.25h0c0.06,0.25,0.11,0.51,0.14,0.78
						c0.03,0.26,0.05,0.52,0.05,0.79c0,0.27-0.02,0.53-0.05,0.79c-0.03,0.27-0.08,0.53-0.14,0.78c-0.03,0.11,0.03,0.21,0.12,0.26
						l1.69,0.98l0,0c0.1,0.06,0.17,0.15,0.2,0.26s0.02,0.22-0.04,0.32l-1.21,2.09l0,0c-0.06,0.1-0.15,0.17-0.26,0.2
						c-0.11,0.03-0.22,0.02-0.32-0.04l-0.01-0.01l-1.7-0.98c-0.09-0.05-0.2-0.03-0.27,0.03c-0.38,0.37-0.8,0.69-1.26,0.95
						c-0.45,0.26-0.94,0.47-1.45,0.62c-0.1,0.03-0.16,0.12-0.16,0.22v1.97c0,0.12-0.05,0.22-0.12,0.3c-0.08,0.08-0.18,0.12-0.3,0.12
						h-2.42c-0.12,0-0.22-0.05-0.3-0.12c-0.08-0.08-0.12-0.18-0.12-0.3v-1.97c0-0.11-0.07-0.2-0.17-0.22
						c-0.51-0.15-0.99-0.35-1.44-0.61c-0.46-0.27-0.88-0.59-1.26-0.95c-0.08-0.07-0.19-0.08-0.28-0.03l-1.7,0.98
						c-0.1,0.06-0.22,0.07-0.32,0.04c-0.11-0.03-0.2-0.1-0.26-0.2l-0.01-0.01l-1.2-2.08h0c-0.06-0.1-0.07-0.22-0.04-0.32
						c0.03-0.11,0.1-0.2,0.2-0.26l1.71-0.99c0.09-0.05,0.13-0.15,0.11-0.25l0,0c-0.06-0.25-0.11-0.51-0.14-0.78
						c-0.03-0.26-0.05-0.52-0.05-0.79c0-0.27,0.02-0.53,0.05-0.79c0.03-0.26,0.08-0.52,0.14-0.78c0.03-0.1-0.03-0.21-0.12-0.26
						l-1.69-0.98c-0.1-0.06-0.17-0.15-0.2-0.26c-0.03-0.11-0.02-0.22,0.04-0.32l0.01-0.01l1.2-2.08l0,0c0.06-0.1,0.15-0.17,0.26-0.2
						c0.11-0.03,0.22-0.02,0.32,0.04v0l1.71,0.99c0.09,0.05,0.2,0.03,0.27-0.04c0.38-0.36,0.8-0.68,1.26-0.95
						c0.45-0.26,0.94-0.47,1.45-0.62c0.1-0.03,0.16-0.12,0.16-0.22v-1.97c0-0.12,0.05-0.22,0.12-0.3c0.08-0.08,0.18-0.12,0.3-0.12
						h2.42c0.12,0,0.22,0.05,0.3,0.12c0.08,0.08,0.12,0.18,0.12,0.3v1.97C315.9,255.66,315.98,255.75,316.08,255.78z"/>
					<path class="st3" d="M98.22,132.03c0-0.35,0.28-0.63,0.63-0.63s0.63,0.28,0.63,0.63v1.48h1.48c0.35,0,0.63,0.28,0.63,0.63
						c0,0.35-0.28,0.63-0.63,0.63h-1.48v1.48c0,0.35-0.28,0.63-0.63,0.63s-0.63-0.28-0.63-0.63v-1.48h-1.48
						c-0.35,0-0.63-0.28-0.63-0.63c0-0.35,0.28-0.63,0.63-0.63h1.48V132.03z"/>
					<path class="st3" d="M170.18,116.61c0-0.35,0.28-0.63,0.63-0.63c0.35,0,0.63,0.28,0.63,0.63v1.48h1.48
						c0.35,0,0.63,0.28,0.63,0.63c0,0.35-0.28,0.63-0.63,0.63h-1.48v1.48c0,0.35-0.28,0.63-0.63,0.63c-0.35,0-0.63-0.28-0.63-0.63
						v-1.48h-1.48c-0.35,0-0.63-0.28-0.63-0.63c0-0.35,0.28-0.63,0.63-0.63h1.48V116.61z"/>
					<path class="st3" d="M265.28,194.57c0-0.35,0.28-0.63,0.63-0.63c0.35,0,0.63,0.28,0.63,0.63v1.48h1.48
						c0.35,0,0.63,0.28,0.63,0.63c0,0.35-0.28,0.63-0.63,0.63h-1.48v1.48c0,0.35-0.28,0.63-0.63,0.63c-0.35,0-0.63-0.28-0.63-0.63
						v-1.48h-1.48c-0.35,0-0.63-0.28-0.63-0.63c0-0.35,0.28-0.63,0.63-0.63h1.48V194.57z"/>
					<path class="st3" d="M361.24,272.53c0-0.35,0.28-0.63,0.63-0.63c0.35,0,0.63,0.28,0.63,0.63v1.48h1.48
						c0.35,0,0.63,0.28,0.63,0.63c0,0.35-0.28,0.63-0.63,0.63h-1.48v1.48c0,0.35-0.28,0.63-0.63,0.63c-0.35,0-0.63-0.28-0.63-0.63
						v-1.48h-1.48c-0.35,0-0.63-0.28-0.63-0.63c0-0.35,0.28-0.63,0.63-0.63h1.48V272.53z"/>
					<path class="st3" d="M326.97,320.51c0-0.35,0.28-0.63,0.63-0.63c0.35,0,0.63,0.28,0.63,0.63v1.48h1.48
						c0.35,0,0.63,0.28,0.63,0.63c0,0.35-0.28,0.63-0.63,0.63h-1.48v1.48c0,0.35-0.28,0.63-0.63,0.63c-0.35,0-0.63-0.28-0.63-0.63
						v-1.48h-1.48c-0.35,0-0.63-0.28-0.63-0.63c0-0.35,0.28-0.63,0.63-0.63h1.48V320.51z"/>
					<path class="st3" d="M26.25,313.66c0-0.35,0.28-0.63,0.63-0.63c0.35,0,0.63,0.28,0.63,0.63v1.48H29c0.35,0,0.63,0.28,0.63,0.63
						c0,0.35-0.28,0.63-0.63,0.63h-1.48v1.48c0,0.35-0.28,0.63-0.63,0.63c-0.35,0-0.63-0.28-0.63-0.63v-1.48h-1.48
						c-0.35,0-0.63-0.28-0.63-0.63c0-0.35,0.28-0.63,0.63-0.63h1.48V313.66z"/>
					<path class="st3" d="M9.12,230.55c0-0.35,0.28-0.63,0.63-0.63c0.35,0,0.63,0.28,0.63,0.63v1.48h1.48
						c0.35,0,0.63,0.28,0.63,0.63c0,0.35-0.28,0.63-0.63,0.63h-1.48v1.48c0,0.35-0.28,0.63-0.63,0.63c-0.35,0-0.63-0.28-0.63-0.63
						v-1.48H7.63c-0.35,0-0.63-0.28-0.63-0.63c0-0.35,0.28-0.63,0.63-0.63h1.48V230.55z"/>
					<path class="st3" d="M26.11,140.19c0-0.35,0.28-0.63,0.63-0.63c0.35,0,0.63,0.28,0.63,0.63v1.48h1.48
						c0.35,0,0.63,0.28,0.63,0.63c0,0.35-0.28,0.63-0.63,0.63h-1.48v1.48c0,0.35-0.28,0.63-0.63,0.63c-0.35,0-0.63-0.28-0.63-0.63
						v-1.48h-1.48c-0.35,0-0.63-0.28-0.63-0.63c0-0.35,0.28-0.63,0.63-0.63h1.48V140.19z"/>
					<path class="st3" d="M208.97,155.61c0-0.35,0.28-0.63,0.63-0.63c0.35,0,0.63,0.28,0.63,0.63v1.48h1.48
						c0.35,0,0.63,0.28,0.63,0.63c0,0.35-0.28,0.63-0.63,0.63h-1.48v1.48c0,0.35-0.28,0.63-0.63,0.63c-0.35,0-0.63-0.28-0.63-0.63
						v-1.48h-1.48c-0.35,0-0.63-0.28-0.63-0.63c0-0.35,0.28-0.63,0.63-0.63h1.48V155.61z"/>
				</g>
				<g>
					<polygon class="st7" points="156.88,159.14 155.93,159.14 155.93,223.26 195.17,223.26 					"/>
					<polygon class="st8" points="156.27,158.13 154.4,158.13 154.4,223.26 195.17,223.26 					"/>
					<polygon class="st5" points="193.74,220.86 159.89,220.86 159.89,164.19 					"/>
					<polygon class="st7" points="141.88,159.14 100.17,159.14 76.89,198.12 76.89,212.13 141.88,212.13 					"/>
					<polygon class="st8" points="140.35,158.13 100.78,158.13 75.36,200.68 75.36,211.11 140.35,211.11 					"/>
					<polygon class="st5" points="134.86,163.62 134.86,205.62 80.86,205.62 80.86,191.48 97.5,163.62 					"/>
				</g>
				<g>
					<path class="st9" d="M141.15,153.48h23.44c1.7,0,3.1,1.39,3.1,3.1v12.76v0.94v8.12c0,0.14-0.08,0.26-0.21,0.32
						c-0.13,0.05-0.28,0.03-0.38-0.08l-5.27-5.27h-20.67c-1.7,0-3.09-1.39-3.09-3.1v-13.71
						C138.06,154.87,139.45,153.48,141.15,153.48z"/>
					<g>
						<path class="st5" d="M145.97,165.13c0.94,0,1.7-0.77,1.7-1.7c0-0.94-0.77-1.7-1.7-1.7c-0.94,0-1.7,0.77-1.7,1.7
							C144.26,164.37,145.03,165.13,145.97,165.13z"/>
						<path class="st5" d="M152.87,165.13c0.94,0,1.7-0.77,1.7-1.7c0-0.94-0.77-1.7-1.7-1.7c-0.94,0-1.7,0.77-1.7,1.7
							C151.17,164.37,151.93,165.13,152.87,165.13z"/>
						<path class="st5" d="M159.78,165.13c0.94,0,1.7-0.77,1.7-1.7c0-0.94-0.77-1.7-1.7-1.7s-1.7,0.77-1.7,1.7
							C158.07,164.37,158.84,165.13,159.78,165.13z"/>
					</g>
				</g>
				<g>
					<path class="st10" d="M183.13,215.1c0,0,0.89,2.15,0.41,5.03c-0.27,1.63-9.99,28.14-10.63,29.85
						c-0.64,1.72-3.54,4.66-6.52,5.17c-1.21,0.21-9.76,1.83-13.52,2.41c-3.33,0.52-4.4-2.73-6.79-4.63
						c3.65-0.91,17.81-6.51,18.46-6.71c0.78-0.24,1.41-0.6,1.8-2.01c0.39-1.41,3.53-15.25,3.53-15.25s2.17-8.11,4.28-9.51
						C176.09,218.17,179.05,215.23,183.13,215.1z"/>
					<path class="st11" d="M173.45,269.59l-1.35,11.87c0,0,2.74,37.29,3.43,43.77c0.4,3.73,1.18,13.78,1.77,21.66h12.82l0.51-73.18
						L173.45,269.59z"/>
					<path class="st12" d="M181.49,279.89l-0.67,4.2l2.26,62.81h14.67c1.12-10.51,2.82-26.02,3.7-32.19
						c1.39-9.72,1.86-23.22,1.86-26.42c-0.01-3.2-3.71-7.94-4.98-8.29C197.05,279.65,181.49,279.89,181.49,279.89z"/>
					<path class="st4" d="M188.72,211.55l-7.29,5.21c0,0-5.2,20.36-5.22,21.28c-0.02,0.93-2.01,12.15-2.01,12.15
						s7.29,2.89,8.33,0.12c1.04-2.78,12.72-22.67,13.3-25.8c0.58-3.12-0.81-10.53-1.5-11.34
						C193.64,212.36,188.72,211.55,188.72,211.55z"/>
					<polygon class="st9" points="186.06,214.76 185.67,212.52 186.27,211.18 187.22,207.13 200.87,198.81 195.23,213.14 					"/>
					<path class="st5" d="M187.4,214.76c0,0,1.07,0.88,1.33,1.16c0.26,0.27,2.94,5.97,3.31,6.49l6.3-7.06c0,0-0.39-4.25-0.49-4.44
						c-0.1-0.19-1.43-1.27-1.43-1.27C195.95,211.57,190.87,212.66,187.4,214.76z"/>
					<path class="st10" d="M183.31,214.76c-3.11,0.87-8.9,4.19-10.39,7.53c-3.4,7.64,0.12,16.14,0.12,31.4
						c0,1.97-4.2,30.51-4.26,30.91c-0.06,0.41,0.17,0.87,0.75,0.87c0.58,0,9.84-16.59,10.36-17.98c0.52-1.39-0.52-24.57-0.52-24.57
						l0.98-23.33L183.31,214.76z"/>
					<path class="st13" d="M200.66,217.73c0,0,6.35,2.15,6.7,2.73c0.35,0.58-6.06,41.07-6.17,42.57c-0.12,1.5,4.86,23.66,5.03,24.23
						c0,0,0.03,0.23-0.14,0.58c-0.17,0.35-0.58,0.55-0.78,0.69c-0.2,0.14-19.06-3.8-20.91-4.96c-1.85-1.16-5.84-19.14-5.84-21.57
						c0-2.43,0.86-10.71,0.86-10.71l11.92-22.01C191.33,229.29,194.94,218.35,200.66,217.73z"/>
					<path class="st14" d="M184.11,213.73c-2.46,1.68-6.12,5.54-8.87,8.2c0.87,0.23,2.18,0.63,2.84,1.29
						c0.23,0.23-2.77,1.11-3.07,1.18c-0.26,0.06,4.59,28.15,4.59,28.15s1.41-31.16,2.16-33.02c0.75-1.85,2.76-4.79,2.76-4.79
						L184.11,213.73z"/>
					<path class="st14" d="M198.39,214.75c-6.48,8.46-16.61,27.45-19.31,37.24l19.02-22.12l-5.45-2.99l6.79,0.31
						c0.41,0.02,1.6-9.02,1.66-9.31C201.15,217.59,198.39,214.75,198.39,214.75z"/>
					<path class="st5" d="M186.55,210.21c0,0-1.29,1.48-1.6,1.69c-0.32,0.2-2.97,7.11-3.2,7.63c-0.23,0.52,4.39-4.34,4.65-4.45
						c0.26-0.12,0.68,0.07,0.68,0.07l-0.08-0.33L186.55,210.21z"/>
					<path class="st9" d="M181.19,190.36c1.84,0.19,3.24,1.94,3.12,3.9c-0.12,1.97-1.71,3.41-3.56,3.22
						c-1.84-0.19-3.24-1.94-3.12-3.9C177.75,191.61,179.34,190.17,181.19,190.36z"/>
					<path class="st11" d="M179.37,186.23c-1.35,5.32,0.71,9.09,1.88,11.31c1.18,2.23,2.06-11.44,2.06-11.44L179.37,186.23z"/>
					<path class="st9" d="M203.92,191.84c1.79,0.19,2.7,1.94,2.02,3.9c-0.67,1.97-2.67,3.41-4.46,3.22c-1.79-0.19-2.7-1.94-2.02-3.9
						C200.14,193.09,202.13,191.65,203.92,191.84z"/>
					<path class="st15" d="M192.97,173.44L192.97,173.44c6,2.1,11.8,6.75,10.69,13.37l-1.91,11.3c-1.2,7.13-7.68,11.94-14.53,11.35
						c-6.3-0.54-7.53-7.19-7.12-13.9l0.68-11.09C181.19,177.76,186.68,172.8,192.97,173.44z"/>
					<path class="st16" d="M197.57,174.99l0.02,0.01c3.85,2.33,6.36,6.88,6.06,11.81l-1.91,11.09
						c-1.52,8.83-10.36,13.76-15.94,10.81c3.31,0.75,5.85,0.24,7.8-0.71c4.97-2.44,6.15-8.97,6.45-13.84
						c0.62-10.02-8.98-3.2-19.51-5.05c-0.37-0.06,0.5-3.36,0.15-3.42l0.07-1.21c0.07-1.09,0.27-2.14,0.59-3.13
						c4.7-2.57,11.2-5.86,14.19-6.2c0.89-0.1,1.5-0.17,1.92-0.21l0.07,0.04C197.48,174.98,197.47,174.99,197.57,174.99z"/>
					<path class="st17" d="M199.81,187.17c0,0-0.18,3.44-0.29,5.66c-0.11,2.22-0.13,2.73,0.7,3.65c0,0,0.61,3.16,1.54,3.79
						c0,0,0.11-5.63,1.16-7.95l0.11-9.29c-0.7,1.29-1.74,2.35-3.26,2.87C199.82,186.3,199.83,186.72,199.81,187.17z"/>
					<path class="st17" d="M180.48,189.43c0,0-2.49-2.25-3.17-4.68c-0.57-2.04-2.34-12.07,0.26-11.02c5.84,2.34,24.46-8,25.56,4.96
						c0,0,0.85-0.85,1.53-0.56c0.68,0.29-0.34,1.82-0.34,1.82s2.28,1.88,2.57,3.3c0.2,0.98-1.21,5.18-2.55,8.22
						c-0.6,1.35-2.75,7.85-2.7,8.41l-0.74-12.75l-3.78-5.82l-11.27-1.23l-5.13,5.45L180.48,189.43z"/>
					<path class="st17" d="M202.16,190.19c0,0-3.17-1.01-3.05-4.17c-1.08,1.68-3.65,1.8-2.19-0.82c0,0-7.24,5.04-16.68,2.75
						c0,0-1.69-9.3,0.16-10.14c1.85-0.84,14.81,0.64,16.15,1.3c1.34,0.65,8.38,4.91,8.38,4.91L202.16,190.19L202.16,190.19z
						 M178.17,172.64c-0.07-0.08-0.07-0.2,0-0.28c0.07-0.08,0.19-0.08,0.26,0c0.01,0.01,2.7,2.92,7.76,2.1
						c0.1-0.02,0.2,0.06,0.21,0.16c0.02,0.11-0.05,0.21-0.16,0.22C181,175.7,178.18,172.65,178.17,172.64L178.17,172.64z
						 M202.87,179.94c0-0.01,1.42-3.99-1.56-8.61c-0.06-0.09-0.17-0.11-0.26-0.05c-0.08,0.06-0.11,0.18-0.05,0.27
						c2.87,4.46,1.52,8.26,1.52,8.27c-0.03,0.1,0.02,0.21,0.11,0.25C202.73,180.1,202.83,180.05,202.87,179.94z"/>
					<path class="st13" d="M205.58,219.36c0,0,2.1,0.99,3.69,3.44c0.9,1.39,11.53,27.54,12.21,29.25c0.68,1.7,0.52,5.83-1.35,8.21
						c-0.76,0.97-5.99,7.92-8.38,10.88c-2.12,2.62-5.09,0.94-8.15,1.14c2.09-3.12,8.8-16.8,9.15-17.39c0.42-0.7,0.64-1.39-0.02-2.7
						c-0.66-1.31-7.64-13.66-7.64-13.66S201.09,223.7,205.58,219.36z"/>
					<path class="st15" d="M149.18,252.29c-0.93-0.12-1.67-0.47-2.17-0.8c-0.71-0.48-1.74-1.54-3.62-2.14
						c-1.88-0.6-1.71,0.26-0.86,1.04c0.85,0.77,1.76,2.01,1.76,2.01s-3.61,1.06-5.14,1.36c-1.53,0.3-2.09,1.33-1.31,1.77
						c0.52,0.29,1.9-0.07,2.07-0.02c0.05,0.02-1.15,0.41-1.18,0.53c-0.08,0.36-0.08,0.73,0.51,0.96c0.59,0.23,1.49-0.16,1.49-0.16
						s-0.67,0.34-0.92,0.75c-0.14,0.23-0.02,0.55,0.15,0.68c0.47,0.35,2.28-0.01,2.28-0.01s-0.65,0.32-0.85,0.68
						c-0.17,0.32,0.08,0.69,0.29,0.73c0.27,0.05,1.37-0.13,2.63-0.39c1.42-0.3,3.7-0.9,5.02-1.59c0.96-0.51,1.55-0.91,2.17-0.95
						C151.78,256.73,152.46,252.7,149.18,252.29z"/>
					<path class="st16" d="M148.74,252.22c1.54,1.63,1.7,2.59,1.77,3.4c0.03,0.29-0.28,0.67-0.81,1.07
						c-1.13,0.86-3.27,1.83-5.3,2.25c-0.88,0.18-1.63,0.44-2.24,0.73c0.5-0.06,1.29-0.2,2.15-0.38c1.42-0.3,3.7-0.9,5.02-1.59
						c0.39-0.21,0.73-0.4,1.03-0.55c0.43-0.22,0.78-0.37,1.15-0.39c0.28-0.02,0.96-4.05-2.33-4.45
						C149.03,252.27,148.88,252.25,148.74,252.22z"/>
				</g>
				<g>
					<path class="st3" d="M218.24,279.48c-0.13-1.97-1.83-3.46-3.8-3.32c-1.97,0.13-3.46,1.83-3.32,3.8
						c0.52,7.56,1.34,15.96,2.56,25.28h-64.82c1.28-9.27,2.31-17.62,3.11-25.14c0.21-1.96-1.21-3.72-3.17-3.93
						c-1.96-0.21-3.72,1.21-3.93,3.17c-1.59,14.85-4.03,32.95-7.66,54.94c-0.67,4.07-1.38,8.27-2.14,12.61h7.24
						c0.68-3.94,1.33-7.76,1.94-11.47c1.35-8.21,2.54-15.88,3.59-23.04h66.82c1.04,7.18,2.3,14.88,3.81,23.11
						c0.68,3.69,1.4,7.49,2.19,11.4h7.27c-0.88-4.37-1.69-8.59-2.44-12.68c-1.69-9.21-3.06-17.74-4.15-25.64
						c-0.01-0.18-0.04-0.35-0.07-0.52C219.78,297.4,218.82,287.91,218.24,279.48z"/>
					<g>
						<path class="st3" d="M-0.98,275.93h221.94c1.5,0,2.73,1.62,2.73,3.6l0,0c0,1.98-1.23,3.6-2.73,3.6H-2.77
							C-2.34,280.67-1.74,278.26-0.98,275.93z"/>
						<path class="st5" d="M1.2,270.34h225.57c1.92,0,3.48,2.07,3.48,4.6v0c0,2.53-1.57,4.6-3.48,4.6H-2.01
							C-1.22,276.34-0.14,273.27,1.2,270.34z"/>
						<path class="st18" d="M175.08,270.34h7.25v9.19h-7.25V270.34L175.08,270.34z M216.37,270.34h4.05v9.19h-4.05V270.34
							L216.37,270.34z M202.15,270.34h8.11v9.19h-8.11V270.34L202.15,270.34z M193.82,270.34h1.88v9.19h-1.88V270.34L193.82,270.34z
							 M186.1,270.34h3.77v9.19h-3.77V270.34z"/>
						<path class="st18" d="M0.54,271.83h62.91c1.14,0,2.07,1.23,2.07,2.73l0,0c0,1.5-0.93,2.73-2.07,2.73H-1.41
							C-0.86,275.43-0.2,273.61,0.54,271.83z"/>
					</g>
				</g>
				<g>
					<g>
						<path class="st14" d="M40.13,244.03c0,0-3.74,5.94-4.11,9.02c-0.37,3.08,10.85,13.49,13.56,17.01
							c2.71,3.52-0.73,4.69-1.76,4.47c-1.03-0.22-19.57-14.81-20.75-16.93c-2.87-5.19,8.54-31.1,10.8-32.24
							C41.45,223.55,40.13,244.03,40.13,244.03z"/>
						<path class="st11" d="M65.14,299.82l1.62,4.54c0,0-4.23,25.96-6.7,42.53H46.64c-3.17-14.83-8.98-40.38-4.62-50.91
							C48.07,281.36,65.14,299.82,65.14,299.82z"/>
						<path class="st12" d="M78.23,295.33l-0.68,4.34c0,0,0.93,31.32,1.31,47.22H65.88c-4.53-13.78-14.39-40.81-11.03-52.48
							C59.25,279.13,78.23,295.33,78.23,295.33z"/>
						<path class="st11" d="M76.22,346.89h-0.87c0.65-26.54-2.49-49.69-2.5-49.76c-0.03-0.24,0.14-0.46,0.38-0.49
							c0.24-0.03,0.46,0.14,0.49,0.38C73.71,297.09,76.86,320.29,76.22,346.89z"/>
						<path class="st9" d="M39.95,251.22c0,0,4.99,14.56,5.42,16.85c0.43,2.29-5.49,26.83-6.35,32.07c0,0-0.09,0.49,0.43,0.74
							c0,0,8.5-1.14,17.87-0.65c9.37,0.49,14.39,4.07,21.37,0.88c0,0,0.59-0.16,0.32-1.47c-0.26-1.31-5.33-24.64-5.17-31.19
							c0.06-2.65-0.02-7.02-0.13-11.4c-0.16-6.45,3.85-14.91,3.89-16.08c0.06-1.96-4.65-11.13-17.61-17.7
							C47.03,216.7,37.28,234.9,39.95,251.22z"/>
						<path class="st19" d="M39.95,251.22c0,0,0.34,0.98,0.84,2.48c0.21-0.28,0.45-0.52,0.73-0.62c0.93-0.35,3.4,0.3,7.59,0.05
							c4.19-0.25,9.16-2.89,11.71-7.2c2.55-4.3,9.54,6.43,9.72,6.99c0.19,0.56,1.34,4.49,1.25,8.01c-0.09,3.52,2.22,17.82,2.78,23.1
							c0.56,5.28,3.21,15.7,0.68,18.17c1.11-0.2,2.25-0.55,3.45-1.09c0,0,0.59-0.16,0.32-1.47c-0.26-1.31-5.33-24.64-5.17-31.19
							c0.06-2.65-0.02-7.02-0.13-11.4c-0.16-6.45,3.85-14.91,3.89-16.08c0.06-1.96-4.65-11.13-17.61-17.7
							C47.03,216.7,37.28,234.9,39.95,251.22L39.95,251.22z M45.32,267.82c0.59,0.42,1.32,0.88,1.9,1.02
							c1.16,0.28,6.53,0.23,5.83,0.83c-0.69,0.6-6.25,2.13-6.62,2.78c-0.37,0.65-0.65,6.48-0.33,18.6c0.12,4.47,1.42,7.31,3.01,9.11
							c-5.6,0.18-9.65,0.72-9.65,0.72c-0.53-0.25-0.43-0.74-0.43-0.74c0.85-5.24,6.78-29.78,6.35-32.07
							C45.36,268,45.34,267.92,45.32,267.82z"/>
						<path class="st15" d="M69.2,189.1l1.7,5.05c0,0-1.08,16.92-2.88,19.49c-1.81,2.56-4.54,0.4-7.78-0.27
							c-3.24-0.68-3.09-5.8-3.31-7.31C56.69,204.54,58.95,190.76,69.2,189.1z"/>
						<path class="st14" d="M58.46,228.3c6.41,12.44,19.44,33.24,22.23,36.03c1.3,1.29,2.38,2.15,3.7,2.9
							c1.52,0.86,3.36,1.58,6.21,2.63c5.33,1.98,16.49,5.49,17.85,5.36c1.37-0.13,1.76-3.05,1.3-3.87
							c-0.46-0.82-16.42-7.32-20.24-9.66c-3.82-2.34-10.59-22.62-13.34-28.61C69.19,217.82,52.06,215.86,58.46,228.3z"/>
						<path class="st17" d="M70.39,197.11c7.84,0.23,7.1-14.1,2.19-17.68c-3.09-2.26-12.33,1.33-16.77,1.41
							c-4.44,0.08-17.2,0.93-16.3,21.27c0.33,7.43-0.85,12.89-2.62,17.43c-4.24,10.88-7.62,30.52,4.68,32.7
							c11.36,2.01,17.79-2.07,20.54-13.36c0,0,0.45-8.44,6.18-11.6c5.73-3.16,2.38-6.04-0.9-10.09c-3.28-4.06-5.88-6.1-5.12-11.68
							c0.75-5.57,5.84-1.97,7.91-8.35L70.39,197.11z"/>
						<path class="st11" d="M70.39,197.11c4.42,0.13,6.11-4.36,5.87-8.95c-2.82,6.16-12.22,4.33-12.22,4.33
							c0.28,3.47-7.41,5.69-10.28,12.08c-2.87,6.39,4.7,23.73-2.68,36.84c-7.31,12.99-16.46,5.24-16.63,5.1
							c1.29,2.96,3.54,5.08,7.13,5.71c11.36,2.01,17.79-2.07,20.54-13.36c0,0,0.45-8.44,6.18-11.6c5.73-3.16,2.38-6.04-0.9-10.09
							c-3.28-4.06-5.88-6.1-5.12-11.68c0.75-5.57,5.84-1.97,7.91-8.35L70.39,197.11z"/>
						<path class="st11" d="M61.39,205.48c-0.01-0.12,0.07-0.23,0.19-0.24c0.12-0.01,0.23,0.07,0.24,0.19c0,0.01,0.55,4.6,3.64,7.74
							c1.79,1.81,3.74,4.13,4.94,6.24c0.94,1.67,1.41,3.22,0.94,4.32c-0.05,0.11-0.18,0.16-0.29,0.11
							c-0.11-0.05-0.16-0.18-0.12-0.29c0.41-0.95-0.04-2.37-0.92-3.93c-1.17-2.07-3.1-4.36-4.87-6.15
							C61.95,210.23,61.39,205.49,61.39,205.48z"/>
						<path class="st11" d="M75.6,186.79c-0.02-0.12,0.06-0.23,0.18-0.25c0.12-0.02,0.23,0.06,0.25,0.18
							c0.01,0.04,2.15,12.83-7.24,11.36c-0.12-0.02-0.2-0.13-0.18-0.25c0.02-0.12,0.13-0.2,0.25-0.18
							C77.65,199.02,75.61,186.82,75.6,186.79z"/>
					</g>
					<g>
						<path class="st15" d="M141.92,296.92c1.25,2.59,4.84,9.04,3.45,12.55c-0.44,1.1-1.5,1.77-1.77,1.54
							c-0.21-0.19-0.05-1.02-0.05-1.02c-0.55,1.21-0.82,1.13-1.83,0.73c-0.3-0.12,0.28-0.76,0.37-1.3c0,0-0.14,1.03-0.96,1.21
							c-0.21,0.05-1.41-0.05-1.22-0.24c0.86-0.85,0.63-1.6,0.63-1.6c0.03,0.81-0.89,1.52-1.2,1.62c-0.73,0.25-2.36-1.9-1.62-2.22
							c0.32-0.14,1.5,0.95,1.21,0.34c-0.19-0.4-0.32-0.88-0.48-1.42c-0.54-1.85-0.53-1.46-0.88-2.59c-0.16-0.52,0.42-2.49,0.3-2.91
							c-0.56-2.01-1.37-5.82-1.37-5.82L141.92,296.92z"/>
						<path class="st20" d="M97.43,290.11l-2.57,10.03c0,0-2.44,23.41-4.85,46.75h18.71c3.74-16.31,6.79-29.67,7.56-32.81
							C118.56,304.81,118.56,290.79,97.43,290.11z"/>
						<path class="st15" d="M121.59,183.31l2,5.7c0,0-0.53,15.81-2.55,18.74c-2.02,2.93-5.81,2.76-9.5,2.04
							c-3.69-0.72-3.37-5.36-3.65-7.07C107.62,201.01,109.99,185.33,121.59,183.31z"/>
						<path class="st21" d="M111.32,202.59l3.91,0.96c0,0-2.21,12.36-2.8,12.88c-0.59,0.52-12.63-1.43-13.16-2.83
							c-0.53-1.4,1.02-4.03,1.29-5.96c0.28-1.93,0.93-3.94,0.93-3.94L111.32,202.59z"/>
						<path class="st5" d="M113.04,214.51c0,0,0.67,0.43,0.72,1.09c0.03,0.44,0.17,1.63,0.26,2.39c0.05,0.39,0.08,0.66,0.08,0.66
							s-0.69,1.06-4.29,0.5c-3.6-0.55-10.33-2.31-10.85-2.82c-0.52-0.51,0.2-3.59,0.2-3.59S108.34,214.64,113.04,214.51z"/>
						<path class="st5" d="M89.54,225.19c0,0-2.93,3.03-4.51,7.71c-1.58,4.68-4.25,28.89-4.51,32
							c-0.26,3.11,14.97,22.94,15.39,23.33c0,0,0.15,0.31,0.81-0.07c0.66-0.38,2.85-2.36,2.72-3.34
							c-0.12-0.98-11.26-16.25-11.56-19.83c-0.3-3.58,10.16-24.77,10.5-28.92C98.72,231.93,93.42,222.75,89.54,225.19z"/>
						<path class="st22" d="M131.21,297.18l3.8,3.03c0,0-0.72,21.71-1.61,46.69h-17.11c-0.85-10.35-1.64-18.4-2.18-21.07
							c-2-9.89-7.17-26.42-6.2-31.39C108.88,289.46,131.21,297.18,131.21,297.18z"/>
						<path class="st20" d="M131.21,297.18l0.58,0.46c-0.04,3.3-0.3,24.69-0.65,49.26h-1.17c0.38-26.66,0.65-49.58,0.65-49.72
							c0-0.06,0.01-0.12,0.03-0.18C131.01,297.11,131.21,297.18,131.21,297.18z"/>
						<path class="st23" d="M114.02,218.07c0,0,10.99,3.4,11.95,5.15c0.96,1.75,4.24,18.23,4.49,38.36s4.9,36.5,5.12,40.39
							c0,0-0.12,0.84-0.54,1.02c0,0-3.2,0.83-12.86,0.56c-9.67-0.28-22.68-1.75-27.29-0.63c0,0-0.98,0.41-1.21-1.13
							c-0.23-1.54,4.88-27.04,4.75-37.64c-0.13-10.6-10.93-32.98-11.2-34.84c-0.28-1.85,7.68-10.84,11.56-13.41L114.02,218.07z"/>
						<path class="st24" d="M103.65,302.57c-3.76-0.14-6.92-0.1-8.75,0.34c0,0-0.98,0.41-1.21-1.13
							c-0.23-1.54,4.88-27.04,4.75-37.64c-0.13-10.6-10.93-32.98-11.2-34.84c-0.28-1.85,7.68-10.84,11.56-13.41l1.28,0.18
							c-1.89,1.65-5.99,5.33-7.22,7.4c-1.62,2.73,0.97,12.5,2.73,17.77c1.76,5.28,5.55,17.31,6.02,18.33
							c0.46,1.02,2.59,1.39,3.8,2.04c1.2,0.65-2.22,1.3-2.87,2.5C102.02,265.05,103.19,288.68,103.65,302.57z"/>
						<path class="st5" d="M126.12,223.1c0.86,0.97,2.15,2.97,3.15,6.89c1.62,6.39,4.72,29.36,6.9,39.76
							c2.18,10.41,7,26.68,7.01,27.53c0.01,0.86-0.66,1.89-1.34,2.2c-0.68,0.31-2.64,1.23-3.23,1.37c-0.6,0.14-1.37,0.06-1.71-0.36
							c-0.35-0.42-7.31-17.57-10.02-29.16c-2.03-8.68-6.79-26.74-8.52-35.92C116.98,228.1,122.73,219.27,126.12,223.1z"/>
						<path class="st11" d="M123.59,189.01c0,0,2.29-0.89,3.41-2.41c1.12-1.53-1.17-11.5-2.54-13.27c-1.36-1.77-5.76,1.62-7.71,1.71
							c-1.96,0.09-17.61-10.11-18.87,6.04c0,0-0.34-0.8-1.23-0.9c-0.9-0.09-0.81,1.63,0.4,2.09c0,0-2.41,2.54-2.22,6.46
							c0.19,3.92,5.7,16.23,5.73,18.91c0,0,7.68,1.21,10.26,0.2c2.58-1.01,4.71-4.07,4.69-5.22c-0.01-1.16-0.02-1.36-0.02-1.74
							c0-0.38-0.13-1.12-0.62-2.33c-0.5-1.21-1.07-2.78-0.4-3.54c0.67-0.76,2.87-0.67,3.33,2.51c0,0,0.05,0.26,0.21,0.26
							c0.16,0,0.2-0.19,0.19-0.48c0-0.29-0.27-3.23-0.28-3.69c0,0,2.45-4.15,2.25-6.25C120.18,187.34,122.09,188.92,123.59,189.01z"
							/>
						<path class="st17" d="M126.61,179.83c-0.6-2.83-1.49-5.64-2.15-6.5c-1.36-1.77-5.76,1.62-7.71,1.71
							c-1.96,0.09-17.61-10.11-18.87,6.04c0,0-0.34-0.8-1.23-0.9c-0.9-0.09-0.81,1.63,0.4,2.09c0,0-2.25,2.37-2.23,6.06
							c0.93,1.67,2.75,3.37,6.29,4.1c8.05,1.67,15.69-8.42,16.2-10.46c0,0,0.09-0.51,0.44-0.18
							C118.1,182.12,125.7,186.28,126.61,179.83z"/>
						<path class="st11" d="M123.25,188.58c-0.1-0.03-0.21,0.03-0.24,0.13c-0.03,0.1,0.03,0.21,0.13,0.24c0,0,1.63,0.52,3.99-1.36
							c0.08-0.07,0.1-0.19,0.03-0.27c-0.07-0.08-0.19-0.1-0.27-0.03C124.69,189.03,123.25,188.58,123.25,188.58z"/>
						<path class="st17" d="M97.98,181.71c0.04,0.1,0.15,0.15,0.25,0.12c0.1-0.04,0.15-0.15,0.12-0.25c0-0.01-1.42-3.81,1.59-8.27
							c0.06-0.09,0.04-0.21-0.05-0.27c-0.09-0.06-0.21-0.04-0.27,0.05C96.49,177.72,97.98,181.7,97.98,181.71z"/>
						<path class="st21" d="M139.27,305.7c-0.32-1.98,0-3.91,0.54-3.91c0.43,0,2.24-1.08,3.37-2.34c-0.14-0.3-0.28-0.58-0.42-0.85
							c-0.25,0.4-0.59,0.73-0.92,0.88c-0.68,0.31-2.64,1.23-3.23,1.37c-0.3,0.07-0.63,0.08-0.94,0.03c0.07,0.26,0.13,0.51,0.2,0.73
							c0.12,0.42-0.46,2.39-0.3,2.91c0.35,1.13,0.34,0.75,0.88,2.59c0.16,0.53,0.29,1.02,0.48,1.42c0.3,0.61-0.88-0.48-1.21-0.34
							c-0.1,0.04-0.16,0.13-0.18,0.23c0.65,0.7,1.57,1.42,1.97,1.21C140.08,309.34,139.59,307.68,139.27,305.7z"/>
					</g>
				</g>
				<g>
					<path class="st19" d="M291.28,273.9c11.77-6.26,14.76,7.36,10.18,18.63c-3.72,9.17-19.95,35.96-26.54,53.73h-6.37
						C268.29,321.62,277.57,281.18,291.28,273.9z"/>
					<g>
						<path class="st25" d="M266.36,222.26c-13.5-12.15-21.93,4.86-19.6,21.26c2.33,16.41,20.87,74.26,17.53,94.54
							c-1.29,7.86,0.35,7.38,2.93,2.28C280.07,314.93,284.93,238.98,266.36,222.26z"/>
						<path class="st19" d="M264.01,343.7c0.29,0.75,0.93,0.38,1.79-0.87c14.06-46.85-7.85-116.85-7.91-117.08
							c-0.12-0.39-0.53-0.6-0.91-0.48c-0.39,0.12-0.6,0.53-0.48,0.91C256.55,226.4,278.76,297.36,264.01,343.7z"/>
					</g>
					<g>
						<path class="st26" d="M236.88,261.19c-13.08-5.69-15.13,9.08-9.31,20.72c5.62,11.24,32.12,47.52,36.24,64.35h3.39
							C268.99,322.47,254.2,268.72,236.88,261.19z"/>
						<path class="st25" d="M266.15,346.25c-3.64-37.36-34.61-80.21-34.71-80.36c-0.18-0.26-0.54-0.32-0.8-0.13
							c-0.26,0.18-0.32,0.54-0.13,0.8c0.1,0.14,30.87,42.72,34.5,79.69H266.15z"/>
					</g>
					<path class="st27" d="M248.73,336.05h38.24c1.14,0,2.08,0.94,2.08,2.08v8.12h-42.4v-8.12
						C246.66,336.98,247.59,336.05,248.73,336.05z"/>
					<path class="st20" d="M248.32,336.05h30.52c0.91,0,1.66,0.94,1.66,2.08v8.12h-33.84v-8.12
						C246.66,336.98,247.4,336.05,248.32,336.05z"/>
				</g>
				<path class="st11" d="M369.57,350.16H-0.18c-1.66,0-3.02-1.25-3.02-2.78l0,0c0-1.53,1.36-2.78,3.02-2.78h369.74
					c1.66,0,3.02,1.25,3.02,2.78l0,0C372.59,348.91,371.23,350.16,369.57,350.16z"/>
			</g>
		</g>
	</g>
</g>
</svg>
