<?xml version="1.0" encoding="utf-8"?>
<!-- Generator: Adobe Illustrator 23.0.3, SVG Export Plug-In . SVG Version: 6.00 Build 0)  -->
<svg version="1.1" id="Layer_1" xmlns="http://www.w3.org/2000/svg" xmlns:xlink="http://www.w3.org/1999/xlink" x="0px" y="0px"
	 viewBox="0 0 370 474" style="enable-background:new 0 0 370 474;" xml:space="preserve">
<style type="text/css">
	.st0{fill:#F2F2F2;}
	.st1{opacity:0.2;clip-path:url(#SVGID_2_);fill:#FF7E02;}
	.st2{clip-path:url(#SVGID_2_);}
	.st3{fill:#FF7E02;}
	.st4{fill:url(#SVGID_3_);}
	.st5{fill:#CB9EAE;}
	.st6{fill:url(#SVGID_4_);}
	.st7{fill:#D35500;}
	.st8{fill:url(#SVGID_5_);}
	.st9{fill:#4D4D4D;}
	.st10{fill:url(#SVGID_6_);}
	.st11{fill:url(#SVGID_7_);}
	.st12{fill:url(#SVGID_8_);}
	.st13{fill:url(#SVGID_9_);}
	.st14{fill:#1A1A1A;}
	.st15{fill:url(#SVGID_10_);}
	.st16{fill:url(#SVGID_11_);}
	.st17{fill:#FF9203;}
	.st18{fill:url(#SVGID_12_);}
	.st19{fill:url(#SVGID_13_);}
	.st20{fill:url(#SVGID_14_);}
	.st21{fill:url(#SVGID_15_);}
	.st22{fill:url(#SVGID_16_);}
	.st23{fill:url(#SVGID_17_);}
	.st24{fill:url(#SVGID_18_);}
	.st25{fill:url(#SVGID_19_);}
	.st26{fill:url(#SVGID_20_);}
	.st27{fill:url(#SVGID_21_);}
	.st28{fill:url(#SVGID_22_);}
	.st29{fill:url(#SVGID_23_);}
	.st30{fill:url(#SVGID_24_);}
	.st31{fill:url(#SVGID_25_);}
	.st32{fill:url(#SVGID_26_);}
	.st33{fill:url(#SVGID_27_);}
	.st34{fill:#CECECE;}
</style>
<g>
	<rect class="st0" width="370" height="474"/>
	<g>
		<defs>
			<rect id="SVGID_1_" width="370" height="474"/>
		</defs>
		<clipPath id="SVGID_2_">
			<use xlink:href="#SVGID_1_"  style="overflow:visible;"/>
		</clipPath>
		<path class="st1" d="M-87.68,392.4c-16-10.44-51.46-36.89-67.58-83.74c-23.73-68.99,2.3-159.57,67.58-192.45
			c30.75-15.49,79.28-22.75,113.12,0c40.22,27.04,39.42,82.84,57.3,82.27c14.15-0.45,15.34-35.43,41.13-76.39
			c9.82-15.59,44.77-71.09,96.96-79.33c57.5-9.08,117.01,42.17,145.44,82.27c29.8,42.02,27.21,74.29,55.83,83.74
			c33.64,11.12,58.88-26.33,86.68-13.22c26.93,12.7,31.36,61.13,27.91,89.62c-8.17,67.52-70.43,104.27-80.8,110.18
			C274.7,394.35,93.51,393.37-87.68,392.4z"/>
		<g class="st2">
			<g>
				<path class="st3" d="M104.32,319.85c2.12,8.96,5.24,19.02,8.48,28.51h53.69c1.21-3.9,2.41-8.09,3.56-12.54
					c6.6-25.69-0.35-47.91-6.6-57.98c-6.25-10.07-11.63-22.05-2.1-36.73c9.53-14.68,10.43-26.11,10.43-26.11
					c-1.39-5.56-5.73-7.46-17-12.84c0,0-0.67-0.22-1.72-0.58c-2.39,9.7-7.43,17.41-16.35,18.98c-11.63,2.05-22.12-5.04-27.43-17.5
					c-5.12,1.51-10.82,3.12-13.54,4.65c0,0,14.24,30.9,16.95,48.37C115.41,273.55,97.83,292.42,104.32,319.85z"/>
				<g>
					<linearGradient id="SVGID_3_" gradientUnits="userSpaceOnUse" x1="145.1953" y1="189.8397" x2="122.1238" y2="210.604">
						<stop  offset="0" style="stop-color:#F6B3B5"/>
						<stop  offset="1" style="stop-color:#FAD1D3"/>
					</linearGradient>
					<path class="st4" d="M136.71,220.55c8.92-1.57,13.96-9.28,16.35-18.98c-3.73-1.26-12.52-4.28-14.96-5.5
						c-3.12-1.56-2.26-14.23-2.26-14.23l-16.5,4.71c0,5.69,0,10.05,0,12.3c0,1.15-4.71,2.62-10.07,4.2
						C114.59,215.51,125.08,222.6,136.71,220.55z"/>
					<path class="st5" d="M135.84,182.04l-16.5,4.71c0,4.41,0,8.01,0,10.46c6.97,3.77,14.79,10.76,17.45,23.53
						c8.87-1.61,13.88-9.29,16.26-18.96c-3.73-1.26-12.52-4.28-14.96-5.5C134.98,194.72,135.84,182.04,135.84,182.04z"/>
				</g>
				<linearGradient id="SVGID_4_" gradientUnits="userSpaceOnUse" x1="117.8672" y1="255.5158" x2="127.4632" y2="270.9379">
					<stop  offset="0" style="stop-color:#F6B3B5"/>
					<stop  offset="1" style="stop-color:#FAD1D3"/>
				</linearGradient>
				<path class="st6" d="M146.02,258.7c-7.36,2.25-14.31,4.73-17.99,4.73c-7.29,0-18.05-10.24-23.14-3.98
					c-5.09,6.26-5.85,10.4-1.86,13.18c3.99,2.78,16.67-1.04,22.75,0.17c2.71,0.54,11.96,1.01,21.79,0.86
					C148.4,269.76,148.28,262.62,146.02,258.7z"/>
				<path class="st3" d="M172.06,215c-1.71-6.85-15.8,5.73-12.33,17.19c2.98,9.82,1.89,23.03,1.89,23.03l13.79,13.95
					C180.11,263.43,173.45,220.55,172.06,215z"/>
				<path class="st7" d="M166.25,255.36c-5.34-0.78-12.99,1.21-20.23,3.42c2.26,3.9,2.38,11,1.54,14.89
					c12.21-0.19,25.3-1.33,27.9-4.49C175.46,269.18,181.72,257.61,166.25,255.36z"/>
				<path class="st7" d="M176.41,266.74c0.22-0.74,1.15-4.19-0.77-7.35c-1.61-2.65-4.24-3.45-6.58-4.17
					c-0.62-0.19-6.26-1.91-7.49,0.05c-0.65,1.03,0.23,2.62,1.21,4.39c1.28,2.31,4.16,7.52,9.32,7.89
					C172.98,267.62,174.51,267.58,176.41,266.74z"/>
				<path class="st3" d="M166.22,255.27c-5.33-0.78-12.97,1.22-20.2,3.43c2.26,3.92,2.38,11.06,1.54,14.96
					c12.19-0.19,25.27-1.34,27.86-4.51C175.42,269.16,181.67,257.53,166.22,255.27z"/>
				<linearGradient id="SVGID_5_" gradientUnits="userSpaceOnUse" x1="127.9648" y1="156.8398" x2="116.8909" y2="199.4052">
					<stop  offset="0" style="stop-color:#F6B3B5"/>
					<stop  offset="1" style="stop-color:#FAD1D3"/>
				</linearGradient>
				<path class="st8" d="M115.54,162.89c-2.9,5.63-2.57,24.78,5.47,26.55c7.03,1.55,10.94-5.31,10.94-5.31v-12.7
					c0,0-3.96-2.06-4.51-6.93c-0.43-3.89-2.74-4.3-2.74-4.3S119.88,163.05,115.54,162.89z"/>
				<path class="st7" d="M104.32,254.78c-3.63-7.04-6.05-15.91-8.17-20.91c-4.01-9.45-4.67-22.62,0.89-25.63
					c10.24-5.05,14.58,12.31,15.28,17.34c0.69,5.04,2.08,16.81,5.9,21.03L104.32,254.78z"/>
				<path class="st3" d="M103.03,256.08c-3.63-7.31-6.05-16.53-8.17-21.74c-4.01-9.82-4.67-23.51,0.89-26.64
					c10.24-5.24,14.58,12.79,15.28,18.03c0.69,5.24,2.08,17.47,5.9,21.85L103.03,256.08z"/>
				<path class="st9" d="M148.42,192.75c-6.94-4.34,0.8-28.27-10.85-37.48c-9.59-7.58-24.88-1.88-24.88,12.44
					c0,5.83,0,25.67,0,34.32c3.79-1.18,6.65-2.28,6.65-3.17v-9.86v-0.22c-6.39-4.07-6.52-20.6-3.81-25.88
					c4.34,0.16,9.17-2.7,9.17-2.7s2.3,0.41,2.74,4.3c0.54,4.87,4.51,6.93,4.51,6.93v12.7c0,11.92,2.87,24.96,9.67,25.69
					c6.8,0.72,7.95-8.24,13.16-7.67C154.78,202.15,155.36,197.09,148.42,192.75z"/>
				<path class="st7" d="M112.93,238.78c-1.52,1.37-3.16,3-4.82,4.93c-1.83,2.13-3.07,3.59-4.06,5.81c-0.14,0.32-2.44,5.6-0.88,6.8
					c0.96,0.73,2.94-0.39,4.39-1.21c2.72-1.54,7.55-4.27,7.89-9.32C115.68,242.42,113.78,239.81,112.93,238.78z"/>
				<path class="st3" d="M112.96,238.77c-3.79,5.18-9.73,9.71-9.93,17.31c3.22,6.49,7.41,11.47,13.2,10.82
					c8.54-0.96,11.5-11.01,12.51-20.21C123.03,247.13,115.76,242.62,112.96,238.77z"/>
				<linearGradient id="SVGID_6_" gradientUnits="userSpaceOnUse" x1="105.4445" y1="219.3324" x2="135.1616" y2="219.3324">
					<stop  offset="0" style="stop-color:#F6B3B5"/>
					<stop  offset="1" style="stop-color:#FAD1D3"/>
				</linearGradient>
				<path class="st10" d="M125.85,191.99c-1.63,0.74-7.4,5.77-7.4,7.03c0,1.26,2.59,10.73,2.59,13.62s-2.65,15.46-6.12,22.91
					c-0.52,1.12-1.2,2.18-1.96,3.22c2.81,3.84,10.07,8.36,15.78,7.92c0.45-4.08,0.51-7.99,0.51-10.86c0,0,0.58-21.04,1.54-22.54
					c0.87-1.37,0.86-3.62,0.86-5.53c0-3.57,0-3.9,0-3.9s1.33-0.08,1.4-2.36c0-0.07,0-0.14,0-0.21
					C133.05,198.8,127.48,191.25,125.85,191.99z"/>
			</g>
			<g>
				<g>
					<path class="st3" d="M265.58,201.3c0,20.5,0,61.42,0,61.42s20.5,0.63,19.87,0c-0.63-0.63,0-28.53,0-28.53L265.58,201.3z"/>
					<linearGradient id="SVGID_7_" gradientUnits="userSpaceOnUse" x1="313.1987" y1="367.4663" x2="314.1825" y2="242.3289">
						<stop  offset="0" style="stop-color:#001462"/>
						<stop  offset="0.0687" style="stop-color:#081E71"/>
						<stop  offset="0.2519" style="stop-color:#193595"/>
						<stop  offset="0.4371" style="stop-color:#2748B0"/>
						<stop  offset="0.623" style="stop-color:#3055C4"/>
						<stop  offset="0.8101" style="stop-color:#365CD0"/>
						<stop  offset="1" style="stop-color:#385FD4"/>
					</linearGradient>
					<path class="st11" d="M306.09,269.27c1.69,11.5,0.63,24.59,0,29.54c-0.63,4.95-15.21,49.18-15.21,49.18h35.53l9.78-46.86
						l-12.99-35.8L306.09,269.27z"/>
					<linearGradient id="SVGID_8_" gradientUnits="userSpaceOnUse" x1="373.4835" y1="306.85" x2="283.7277" y2="306.85">
						<stop  offset="0.1048" style="stop-color:#000000"/>
						<stop  offset="0.2084" style="stop-color:#0A0A0A"/>
						<stop  offset="0.4921" style="stop-color:#212121"/>
						<stop  offset="0.7616" style="stop-color:#2E2E2E"/>
						<stop  offset="1" style="stop-color:#333333"/>
					</linearGradient>
					<path class="st12" d="M306.09,269.27c1.69,11.5,0.63,24.59,0,29.54c-0.63,4.95-18.12,49.55-18.12,49.55h38.44l9.78-47.23
						l-12.99-35.8L306.09,269.27z"/>
					<linearGradient id="SVGID_9_" gradientUnits="userSpaceOnUse" x1="341.4618" y1="239.7011" x2="341.4618" y2="368.058">
						<stop  offset="0" style="stop-color:#000000"/>
						<stop  offset="0.6351" style="stop-color:#343434"/>
						<stop  offset="1" style="stop-color:#4D4D4D"/>
					</linearGradient>
					<path class="st13" d="M347.96,257.08c5.23,16.41,28.69,21.71,22.22,48.21c-4.67,19.13-14.2,43.07-14.2,43.07h-44.35
						c0,0,13.91-41.7,13.91-47.23c0-5.52-8.73-33.91-8.73-33.91L347.96,257.08z"/>
					<path class="st3" d="M272.75,187.41c-5.23,2.49-10.02,13.61-5.23,24.04c4.78,10.43,5.46,8.57,7.28,16.75
						c1.81,8.19,1.1,12.72,16.08,22.93c14.98,10.2,14.53,12.93,15.21,18.14c0.68,5.22,42.86,4.08,42.18-15.42
						c-0.68-19.5,0.4-42.02-12.16-52.64C323.55,190.58,272.75,187.41,272.75,187.41z"/>
					<path class="st14" d="M267.52,163.26v58.54c0,0,21.25-11.4,21.06-22.56c-0.19-11.16-9.61-35.98-9.61-35.98H267.52z"/>
					<linearGradient id="SVGID_10_" gradientUnits="userSpaceOnUse" x1="300.7777" y1="203.635" x2="279.872" y2="218.3718">
						<stop  offset="0" style="stop-color:#F6B3B5"/>
						<stop  offset="0.9914" style="stop-color:#FAD1D3"/>
					</linearGradient>
					<path class="st15" d="M282.44,198.39c0,0,2.83,4.58,3.79,6.55c0.96,1.97-3.3,10.67-1.89,18.13c1.4,7.46,10.64,6.19,12.7,0
						c0.62-1.87,2.27-15.1,2.27-15.1v-21.89L282.44,198.39z"/>
					<path class="st5" d="M286.23,204.94c5.97-6.69,12.15,21.64,2.36,23.08c0.02,0.01,0.05,0.01,0.07,0.01l1.4,0.16
						c2.85,0,5.89-1.88,6.97-5.11c0.62-1.87,2.27-15.1,2.27-15.1v-21.89l-16.87,12.31C282.44,198.39,285.27,202.97,286.23,204.94z"
						/>
					<linearGradient id="SVGID_11_" gradientUnits="userSpaceOnUse" x1="288.3509" y1="168.4557" x2="272.586" y2="187.305">
						<stop  offset="0" style="stop-color:#F6B3B5"/>
						<stop  offset="0.9914" style="stop-color:#FAD1D3"/>
					</linearGradient>
					<path class="st16" d="M270,161.59c-2.9,18.01,0.29,34.61,8.97,36.58c8.68,1.97,21.13-7.53,21.13-15.91
						c0-8.38,8.39-30.21-1.16-35.19C289.39,142.09,271.85,150.12,270,161.59z"/>
					<path class="st14" d="M277.3,159.95c0,0-4.54,3.81-7.86,5.79c-3.33,1.98-2.51-9.44,3.93-14.81c6.44-5.37,14.89-9.93,18.32-6.85
						c0,0,10.73-2.97,17.24,7.99c6.51,10.96,6.97,20.78,9.02,23.52c2.06,2.74,5.48,4.45,3.88,9.59c0,0,11.42-2.28,13.13,5.59
						c1.71,7.88,1.14,10.43,1.14,10.43s-3.55-2.78-10.83-5.32c0,0-4.9,3.86-9.58,3.86c-4.68,0-10.58,18.89-18.8,18.89l-0.07-44.98
						C296.82,173.65,278.25,171.28,277.3,159.95z"/>
				</g>
				<g>
					<path class="st3" d="M173.1,255.64c-21.57,22.46-40.16,90.99-40.16,90.99h30.97l19.36-45.49L173.1,255.64z"/>
					<path class="st17" d="M285.45,259.35c-4.51-5.13-28.55-22-59.21-20.17c-27.03,1.62-48.89,9.97-53.15,16.46
						c-3.12,4.75,3.71,36.81,8.46,49.57c4.75,12.76,6.83,26.42,6.83,38c0,0,76.44-0.45,76.88,0c0.45,0.45,9.5-28.2,10.69-42.45
						C277.14,286.51,274.47,270.78,285.45,259.35z"/>
					<linearGradient id="SVGID_12_" gradientUnits="userSpaceOnUse" x1="248.9106" y1="227.7203" x2="209.8412" y2="243.1424">
						<stop  offset="0" style="stop-color:#F6B3B5"/>
						<stop  offset="0.9914" style="stop-color:#FAD1D3"/>
					</linearGradient>
					<path class="st18" d="M244.09,212.58c0,0,0.38,23.76,0,30.85c-0.38,7.09-11.37,13.47-15.45,13.65
						c-4.08,0.18-13.12-5.85-14.54-15.96v-21.45L244.09,212.58z"/>
					<path class="st5" d="M244.24,225.49c-0.05-6.88-0.14-12.91-0.14-12.91l-29.99,7.09v17.59c2.5,11,19.08,7.99,23.03-2.43
						C239.4,228.86,241.33,227.09,244.24,225.49z"/>
					<linearGradient id="SVGID_13_" gradientUnits="userSpaceOnUse" x1="227.196" y1="176.648" x2="221.7126" y2="234.2242">
						<stop  offset="0" style="stop-color:#F6B3B5"/>
						<stop  offset="0.9914" style="stop-color:#FAD1D3"/>
					</linearGradient>
					<path class="st19" d="M206.15,203.35c1.13,17.41,8.22,34.25,19.46,32.48c13.94-2.2,18.17-23.35,17.62-34.87
						c-0.55-11.52-7.12-18.73-17.11-18.74C216.62,182.21,205.2,188.61,206.15,203.35z"/>
					<linearGradient id="SVGID_14_" gradientUnits="userSpaceOnUse" x1="221.608" y1="287.4377" x2="245.9494" y2="202.2426">
						<stop  offset="0" style="stop-color:#8CC6FF"/>
						<stop  offset="1" style="stop-color:#F6B3B5"/>
					</linearGradient>
					<path class="st20" d="M246.51,209.15c-0.75,3.47-2.43,6.1-3.77,5.88c-1.34-0.22-1.82-3.22-1.07-6.69
						c0.75-3.47,2.43-6.1,3.77-5.88C246.78,202.68,247.26,205.68,246.51,209.15z"/>
					<path class="st9" d="M206.38,206.07c-2.12-3.25-2.27-4.53-2.12-9.93c0.16-5.4,4.71-5.59,4.61-7.89c-0.1-2.31,2.85-8.5,14.86-9
						c12.02-0.5,11.3,5.01,15.02,5.37c3.72,0.36,9.49,4.18,6.68,17.84c0,0-3.27,0.31-4.55,6.92c-0.09,0.47-0.78,0.6-1.05,0.2
						c-0.37-0.56-0.79-1.38-1.1-2.53c-0.9-3.3-4.49,1.66-5.15-4.92c-0.47-4.69-11.91,3.92-20.4-3.69c0,0-1.26,1.68-4.88,1.57
						C206.22,199.94,206.38,206.07,206.38,206.07z"/>
					<g>
						<path class="st7" d="M214.1,269.05c0,0,0.99,1.26,2.84-1.56c1.85-2.82,8.17-11.39,10.36-10.54l-0.01-0.02
							c-4.45-0.92-11.91-6.7-13.19-15.81v-0.74c-3.54,0.49-6.93,1.09-10.15,1.78C203.06,247.19,206.84,263.49,214.1,269.05z"/>
						<path class="st7" d="M244.08,243.43c-0.33,6.17-8.69,11.8-13.54,13.28l0,0c2.29-0.89,10.72,10.19,12.18,12.63
							c1.46,2.44,4.14-0.86,6.81-7.68c1.94-4.95,4.93-13.47,3.68-19.49c-2.87-0.8-5.88-1.48-9.01-2.01
							C244.16,241.45,244.13,242.57,244.08,243.43z"/>
					</g>
					<path class="st7" d="M285.5,259.39c-3.08-1.63-10.9,5.82-15.24,12.06c-8.68,12.48-8.03,26.71-7.67,34.32
						c0.35,7.63,0.85,16.12,6.69,24.12c1.9,2.61,5.6,7.53,12.28,9.54c1.07,0.32,10.87,3.13,15.9-2.08
						c3.11-3.21,2.93-7.96,2.63-16.12c-0.09-2.52-0.25-2.55-1.21-10.53c-1.29-10.77-1.03-11.02-1.86-16.23
						c-0.92-5.76-1.98-10.06-2.74-13.16c-0.35-1.43-1.45-5.81-3.29-11.18c0,0-0.94-2.76-4.17-8.88
						C286.11,259.92,285.91,259.61,285.5,259.39z"/>
					<path class="st17" d="M214.1,241.12v-5.17c-4.48,1.97-8.63,3.63-9.09,6.2c-0.9,5.03,3.14,19.63,9.09,24.79
						c0,0,0.99,1.27,2.84-1.56c1.85-2.82,8.17-9.28,10.36-8.44l-0.01-0.02C222.85,256.01,215.38,250.23,214.1,241.12z"/>
					<path class="st17" d="M251.58,240.25c-1.24-2.81-5.26-5.09-7.32-6.06c-0.01,3.81-0.06,7.21-0.17,9.24
						c-0.33,6.17-8.69,11.8-13.54,13.28l0,0c2.29-0.89,10.72,8.08,12.18,10.52c1.46,2.44,3.26-0.4,6.23-7.09
						C251.97,253.32,253.6,244.82,251.58,240.25z"/>
					<path class="st7" d="M239.87,335.27c-0.84,1.59,3,5.62,6.22,7.85c6.43,4.47,13.76,4.14,17.69,3.96
						c3.93-0.18,8.31-0.44,12.43-3.45c1.34-0.98,3.88-2.88,4.92-6.33c0.17-0.55,1.61-5.6-1.07-8.19c-1.66-1.6-4.1-1.51-8.31-1.36
						c-0.12,0-0.37,0.04-0.73,0.04c-1.71,0.02-2.62-0.53-3.61-0.76c-0.89-0.2-0.88,0.08-4.5,0.77c-1.3,0.25-2.22,0.38-4.06,0.66
						c-3,0.45-2.97,0.34-4.82,0.66c-1.55,0.26-2.75,0.54-5.15,1.1c-1.87,0.43-3.41,0.82-4.5,1.1c-0.74,1.05-1.86,2.32-3.55,3.28
						C240.28,334.91,240.03,334.98,239.87,335.27z"/>
					<path class="st17" d="M300.3,328.97c0-19.7-5.74-59.18-14.84-69.62c0,0-14.25,7.62-18.76,31.78
						c-1.35,7.22,0.95,27.84,1.54,36.55L300.3,328.97z"/>
					<path class="st17" d="M244.73,348.36c0,0,36.83,0,43.24,0s13.29-5.23,12.33-19.39c-0.97-14.16-24.14-12.18-32.06-1.29
						l-23.82,3.64L244.73,348.36z"/>
					<linearGradient id="SVGID_15_" gradientUnits="userSpaceOnUse" x1="224.7124" y1="349.7792" x2="224.7124" y2="325.767">
						<stop  offset="0" style="stop-color:#F6B3B5"/>
						<stop  offset="0.9914" style="stop-color:#FAD1D3"/>
					</linearGradient>
					<path class="st21" d="M222.95,347.5l2.05-1.92l6.22,2.2c1.08,0.38,2.22,0.58,3.36,0.58h12.34c0,0,5.84-1.25,6.03-8.14
						c0.19-6.89-5.74-8.9-8.33-8.9h-13.53c-0.68,0-1.35-0.07-2.02-0.21l-9.62-2.01c-1.42-0.3-2.9-0.06-4.16,0.66l-5.45,3.13
						c-1.06,0.61-2.03,1.35-2.89,2.21l-9.9,9.92c-1.23,1.23-0.36,3.34,1.39,3.34h22.33C221.57,348.36,222.36,348.05,222.95,347.5z"
						/>
				</g>
				<g>
					<path class="st3" d="M337.61,203.68c-9.27-5.36-25.51,9.88-22.02,27.89s-16.28,40.36-16.28,40.36s-22.42,9-31.42,10.71
						c2.16,3.07,4.62,7.62,5.74,13.48c14.72-1.21,35.85-4.21,44.38-11.32c12.9-10.75,26.61-50.4,26.61-63
						C344.63,207.14,337.61,203.68,337.61,203.68z"/>
					<linearGradient id="SVGID_16_" gradientUnits="userSpaceOnUse" x1="249.9828" y1="314.3589" x2="239.0159" y2="282.4864">
						<stop  offset="0" style="stop-color:#F6B3B5"/>
						<stop  offset="0.9914" style="stop-color:#FAD1D3"/>
					</linearGradient>
					<path class="st22" d="M265.55,282.92c-6.4,0-28.98,0-28.98,0s-20.7,7.01-21.24,8.21c-0.54,1.2-1.61,8.33,0,10.01
						c1.61,1.68,12.1,4.63,14.78,4.1c2.69-0.54,23.66-8.33,28.49-8.33c1.64,0,7.5-0.16,15.02-0.78c-1.12-5.86-3.58-10.41-5.74-13.48
						C266.95,282.82,266.16,282.92,265.55,282.92z"/>
				</g>
			</g>
			<path class="st7" d="M79.8,263.66c0,0,7.26,5.75,14.69,0c7.43-5.75,2.31-15.56,2.31-15.56l-17,9.06V263.66z"/>
			<polygon class="st7" points="90.28,209.81 90.28,252.78 76.31,252.78 76.31,212.16 			"/>
			<g>
				<linearGradient id="SVGID_17_" gradientUnits="userSpaceOnUse" x1="-24.3476" y1="317.0978" x2="186.7658" y2="317.9784">
					<stop  offset="0.1048" style="stop-color:#000000"/>
					<stop  offset="0.2084" style="stop-color:#0A0A0A"/>
					<stop  offset="0.4921" style="stop-color:#212121"/>
					<stop  offset="0.7616" style="stop-color:#2E2E2E"/>
					<stop  offset="1" style="stop-color:#333333"/>
				</linearGradient>
				<path class="st23" d="M67.5,316.58c-1.34,7.17-8.99,17.24-13.85,31.78h27.77c2.66-17.47,5.07-40.91,1.27-61.76H66.68
					C68.16,293.63,68.76,309.83,67.5,316.58z"/>
				<linearGradient id="SVGID_18_" gradientUnits="userSpaceOnUse" x1="-18.1472" y1="303.1579" x2="204.2785" y2="345.8559">
					<stop  offset="0.1048" style="stop-color:#001462"/>
					<stop  offset="0.2974" style="stop-color:#142E8A"/>
					<stop  offset="0.49" style="stop-color:#2343AA"/>
					<stop  offset="0.6752" style="stop-color:#2F53C1"/>
					<stop  offset="0.8491" style="stop-color:#365CCF"/>
					<stop  offset="1" style="stop-color:#385FD4"/>
				</linearGradient>
				<path class="st24" d="M40.87,315.03c0,0,3.21,15.6,5.41,33.34h7.37c4.86-14.54,12.5-24.61,13.85-31.78
					c1.26-6.75,0.66-22.95-0.82-29.97H41.53L40.87,315.03z"/>
				<linearGradient id="SVGID_19_" gradientUnits="userSpaceOnUse" x1="-28.0889" y1="319.2196" x2="100.2522" y2="313.496">
					<stop  offset="0" style="stop-color:#000000"/>
					<stop  offset="0.6351" style="stop-color:#343434"/>
					<stop  offset="1" style="stop-color:#4D4D4D"/>
				</linearGradient>
				<path class="st25" d="M66.68,286.61c-0.19-0.9-0.39-1.66-0.61-2.22H17.8c0.67,23.23,2.5,46.35,3.6,63.98h32.25
					c4.86-14.54,12.5-24.61,13.85-31.78C68.76,309.83,68.16,293.63,66.68,286.61z"/>
			</g>
			<path class="st3" d="M50.7,171.57c-28.55-7.66-47.84,5.09-51,23.39c-2.89,16.72,18.1,68.49,18.1,89.42
				c0,0,33.84,17.45,64.89,2.22c0,0-4.66-22.2,0-41.87c4.66-19.67,10.85-30.93,5.59-45.04C83.69,187.37,64.06,175.16,50.7,171.57z"
				/>
			<linearGradient id="SVGID_20_" gradientUnits="userSpaceOnUse" x1="56.2071" y1="154.9464" x2="60.7059" y2="191.4557">
				<stop  offset="0" style="stop-color:#F6B3B5"/>
				<stop  offset="1" style="stop-color:#FAD1D3"/>
			</linearGradient>
			<path class="st26" d="M61.37,152.66c0,0-10.78,13.55-15.32,17.87c-4.55,4.32,3.84,13.16,10.21,16.91
				c4.2,2.48,13.07,5.23,10.46-2.5c0,0-1.48-4.32,5.68-10.46C72.4,174.49,64.44,150.73,61.37,152.66z"/>
			<path class="st5" d="M72.4,174.49c0,0-3.69-11.01-7.01-17.43l-3.51,1.66c-4.09,8.39-4.82,24.2,4.84,26.23
				C66.72,184.94,65.24,180.62,72.4,174.49z"/>
			<linearGradient id="SVGID_21_" gradientUnits="userSpaceOnUse" x1="92.9767" y1="134.7001" x2="59.2358" y2="172.9397">
				<stop  offset="0" style="stop-color:#F6B3B5"/>
				<stop  offset="1" style="stop-color:#FAD1D3"/>
			</linearGradient>
			<path class="st27" d="M65.62,150.22c0.91-5.17-3.71-5.56-5.15-1.24c-1.65,4.93,0.17,8.34,2.06,7.21c0,0-3.68,11.13,0.95,17.83
				c4.63,6.7,10.55,4.13,17.94-3.15c6.36-6.26,10.5-13.91,11.14-16.86c1.68-7.69-6.31-13.91-13.8-13.5
				C69.6,141,65.62,150.22,65.62,150.22z"/>
			<path class="st14" d="M65.62,150.22c-0.29,3.04,0.21,5.4,2,4.36c1.79-1.04,6.03-7.16,9.89-2.73c3.86,4.43,6.99,8.55,13.85,7.82
				c8.85-0.94,10.91-12.92,3.11-15.07c0,0,3.39-4.12-2.64-6.03c-5.52-1.75-5.74-0.66-9.6-5c-2.22-2.49-15.55-1.16-19.18,12.53
				C63.05,146.1,66.07,145.48,65.62,150.22z"/>
			<path class="st7" d="M33.16,189.23c1.66,8.13,0.91,14.2,0,18.11c-2.41,10.36-7.57,12.59-7.76,21.99c-0.13,6.54,2.29,9.44,0,12.93
				c-2.29,3.49-8,5.61-11.64,3.88c-7.19-3.42-7.7-22.52-1.29-36.21C18.15,197.76,28.46,191.63,33.16,189.23z"/>
			<path class="st3" d="M21.84,238.58c0.28-5.95,3.97-21.4,9.16-31.27c5.19-9.87,2.65-22.56-4.41-27.53
				c-7.01-4.93-16.84-4.06-21.5,2.81c-12.52,18.48-8.89,60.03-2.13,74.06c1.34,2.78,4.57,4.59,8.96,5.68
				C2.41,258,11.94,236.32,21.84,238.58z"/>
			<linearGradient id="SVGID_22_" gradientUnits="userSpaceOnUse" x1="49.3516" y1="271.0232" x2="119.3468" y2="224.1034">
				<stop  offset="6.134186e-07" style="stop-color:#D14600"/>
				<stop  offset="0.1975" style="stop-color:#DF5A0C"/>
				<stop  offset="0.5007" style="stop-color:#F1731B"/>
				<stop  offset="0.7771" style="stop-color:#FB8324"/>
				<stop  offset="1" style="stop-color:#FF8827"/>
			</linearGradient>
			<path class="st28" d="M58.67,255.51l18.76-22.7c0.81-0.98,2.12-1.39,3.34-1.05l31.82,8.77c0.78,0.22,1.02,1.21,0.42,1.76
				l-24.07,21.73c-0.51,0.46-1.21,0.64-1.88,0.48l-27.56-6.52C58.39,257.72,57.94,256.39,58.67,255.51z"/>
			<linearGradient id="SVGID_23_" gradientUnits="userSpaceOnUse" x1="44.6501" y1="262.7296" x2="44.6501" y2="239.7447">
				<stop  offset="0" style="stop-color:#F6B3B5"/>
				<stop  offset="1" style="stop-color:#FAD1D3"/>
			</linearGradient>
			<path class="st29" d="M81.18,246.53c-1.09-3.12-4.21-5.45-6.02-5.97c-1.32-0.38-11.14-0.21-16.41-0.08
				c-2.05,0.05-4.05,0.63-5.78,1.73c-1.66,1.04-3.73,2.2-4.76,2.2c-1.87,0-16.58,0-16.58,0s-4.59-3.47-9.78-5.81
				c-9.9-2.26-19.43,19.41-9.93,23.75c15.98,3.96,47.53-1.82,60.79-6.35c2.94-1,5.54-2.84,7.31-5.39
				C80.96,249.23,81.6,247.74,81.18,246.53z"/>
			<g>
				<linearGradient id="SVGID_24_" gradientUnits="userSpaceOnUse" x1="181.0431" y1="358.8603" x2="295.925" y2="325.493">
					<stop  offset="6.134186e-07" style="stop-color:#A54F0F"/>
					<stop  offset="0.1737" style="stop-color:#C3650B"/>
					<stop  offset="0.3693" style="stop-color:#DD7907"/>
					<stop  offset="0.57" style="stop-color:#F08705"/>
					<stop  offset="0.777" style="stop-color:#FB8F03"/>
					<stop  offset="1" style="stop-color:#FF9203"/>
				</linearGradient>
				<path class="st30" d="M193.71,351.96h45.41c2.6,0,4.72-2.11,4.72-4.72l0,0c0-1.19-0.96-2.15-2.15-2.15h-47.98
					c-1.19,0-2.15,0.96-2.15,2.15v2.56C191.56,351,192.52,351.96,193.71,351.96z"/>
				
					<linearGradient id="SVGID_25_" gradientUnits="userSpaceOnUse" x1="-1249.5326" y1="346.9294" x2="-1239.6545" y2="225.9236" gradientTransform="matrix(-1 0 0 1 -1096.2161 0)">
					<stop  offset="3.690097e-07" style="stop-color:#DB610E"/>
					<stop  offset="0.3627" style="stop-color:#E3701F"/>
					<stop  offset="1" style="stop-color:#F49445"/>
				</linearGradient>
				<path class="st31" d="M113.33,351.96h94.86c3.66,0,6.31-3.48,5.35-7.01L196.79,284c-1.08-3.95-4.67-6.68-8.76-6.68H93.17
					c-3.66,0-6.31,3.48-5.35,7.01l16.74,60.95C105.65,349.23,109.24,351.96,113.33,351.96z"/>
			</g>
			<g>
				<g>
					<g>
						<path class="st3" d="M391.56,304.78c-1.43,0.39-3.41,1.97-5.6,4.08c-2.22,2.09-4.62,4.56-7.64,6.82
							c-1.84,1.42-3.65,2.7-5.4,3.95c-1.71,1.28-3.41,2.47-4.88,3.69c-2.99,2.39-5.28,4.75-6.06,6.53c0.79-1.75,1.12-5.01,2.61-8.96
							c0.72-1.98,1.77-4.07,3.17-6.16c1.43-2.06,3.25-4.07,5.48-5.78c3.69-2.77,7.82-3.75,11.09-3.98
							C387.62,304.69,390.14,305.17,391.56,304.78z"/>
					</g>
					<g>
						<path class="st3" d="M360.79,328.52c0.14-1.77-0.72-4.6-1.3-8.34c-0.58-3.73-0.9-8.39,0.24-13.45
							c1.42-6.18,4.12-11.43,6.71-15.5c2.58-4.09,5.02-7.05,5.96-9.17c-0.94,2.12-1.44,5.93-1.98,10.59
							c-0.56,4.67-1.13,10.15-2.46,15.94c-1.07,4.74-2.78,8.75-4.28,12.12C362.17,324.07,360.93,326.75,360.79,328.52z"/>
					</g>
					<g>
						<path class="st3" d="M334.43,297.97c1.42,0.66,4.14,0.67,7.51,1.68c3.35,0.95,7.41,2.87,10.7,6.49
							c3.97,4.47,5.98,9.72,6.78,14.09c0.85,4.4,0.61,7.87,1.04,9.87c-0.43-2.03-2.27-4.99-4.88-8.12
							c-2.58-3.18-5.91-6.48-9.21-10.2c-2.74-3.01-4.8-6.05-6.75-8.62C337.7,300.59,335.87,298.64,334.43,297.97z"/>
					</g>
				</g>
				<g>
					<g>
						<linearGradient id="SVGID_26_" gradientUnits="userSpaceOnUse" x1="405.9114" y1="335.1721" x2="315.7176" y2="335.1721">
							<stop  offset="0" style="stop-color:#000000"/>
							<stop  offset="0.6351" style="stop-color:#343434"/>
							<stop  offset="1" style="stop-color:#4D4D4D"/>
						</linearGradient>
						<path class="st32" d="M377.78,318.38h-28c-1.48,0-2.64,1.3-2.46,2.77l3.42,28.63c0.15,1.25,1.21,2.18,2.46,2.18h21.17
							c1.26,0,2.31-0.94,2.46-2.18l3.42-28.63C380.42,319.68,379.27,318.38,377.78,318.38z"/>
						<linearGradient id="SVGID_27_" gradientUnits="userSpaceOnUse" x1="363.189" y1="369.1927" x2="364.5326" y2="253.471">
							<stop  offset="0.1048" style="stop-color:#000000"/>
							<stop  offset="0.2084" style="stop-color:#0A0A0A"/>
							<stop  offset="0.4921" style="stop-color:#212121"/>
							<stop  offset="0.7616" style="stop-color:#2E2E2E"/>
							<stop  offset="1" style="stop-color:#333333"/>
						</linearGradient>
						<path class="st33" d="M345.94,318.48l1.26,10.6c0.07,0.59,0.57,1.03,1.16,1.03h30.83c0.59,0,1.09-0.44,1.16-1.03l1.26-10.6
							c0.08-0.69-0.46-1.3-1.16-1.3H347.1C346.4,317.18,345.86,317.79,345.94,318.48z"/>
					</g>
				</g>
			</g>
			<rect y="346.55" class="st0" width="370" height="127.68"/>
			<rect y="346.55" class="st34" width="370" height="10.42"/>
		</g>
	</g>
</g>
</svg>
