<?xml version="1.0" encoding="utf-8"?>
<!-- Generator: Adobe Illustrator 23.0.3, SVG Export Plug-In . SVG Version: 6.00 Build 0)  -->
<svg version="1.1" id="Layer_1" xmlns="http://www.w3.org/2000/svg" xmlns:xlink="http://www.w3.org/1999/xlink" x="0px" y="0px"
	 viewBox="0 0 370 474" style="enable-background:new 0 0 370 474;" xml:space="preserve">
<style type="text/css">
	.st0{fill:#F2F2F2;}
	.st1{clip-path:url(#SVGID_2_);}
	.st2{fill:url(#SVGID_3_);}
	.st3{fill:#CDCFD3;}
	.st4{opacity:0.75;fill:#CDCFD3;}
	.st5{opacity:0.75;fill:#EDEFF4;}
	.st6{fill:url(#SVGID_4_);}
	.st7{fill:url(#SVGID_5_);}
	.st8{fill:url(#SVGID_6_);}
	.st9{fill:url(#SVGID_7_);}
	.st10{fill:url(#SVGID_8_);}
	.st11{fill:url(#SVGID_9_);}
	.st12{fill:url(#SVGID_10_);}
	.st13{fill:url(#SVGID_11_);}
	.st14{fill:url(#SVGID_12_);}
	.st15{fill:url(#SVGID_13_);}
	.st16{fill:url(#SVGID_14_);}
	.st17{fill:url(#SVGID_15_);}
	.st18{fill:url(#SVGID_16_);}
	.st19{fill:url(#SVGID_17_);}
	.st20{fill:url(#SVGID_18_);}
	.st21{fill:url(#SVGID_19_);}
	.st22{fill:url(#SVGID_20_);}
	.st23{fill:url(#SVGID_21_);}
	.st24{fill:url(#SVGID_22_);}
	.st25{fill:url(#SVGID_23_);}
	.st26{fill:url(#SVGID_24_);}
	.st27{fill:url(#SVGID_25_);}
	.st28{fill:url(#SVGID_26_);}
	.st29{fill:url(#SVGID_27_);}
	.st30{fill:url(#SVGID_28_);}
	.st31{fill:url(#SVGID_29_);}
	.st32{fill:url(#SVGID_30_);}
	.st33{fill:url(#SVGID_31_);}
	.st34{fill:url(#SVGID_32_);}
	.st35{fill:url(#SVGID_33_);}
	.st36{fill:url(#SVGID_34_);}
	.st37{fill:url(#SVGID_35_);}
	.st38{fill:url(#SVGID_36_);}
	.st39{fill:url(#SVGID_37_);}
	.st40{fill:url(#SVGID_38_);}
	.st41{fill:url(#SVGID_39_);}
	.st42{fill:url(#SVGID_40_);}
	.st43{fill:url(#SVGID_41_);}
	.st44{fill:url(#SVGID_42_);}
	.st45{fill:url(#SVGID_43_);}
	.st46{fill:url(#SVGID_44_);}
	.st47{fill:url(#SVGID_45_);}
	.st48{fill:url(#SVGID_46_);}
	.st49{fill:url(#SVGID_47_);}
	.st50{fill:url(#SVGID_48_);}
	.st51{fill:url(#SVGID_49_);}
	.st52{fill:url(#SVGID_50_);}
	.st53{fill:url(#SVGID_51_);}
	.st54{fill:url(#SVGID_52_);}
	.st55{fill:url(#SVGID_53_);}
	.st56{fill:url(#SVGID_54_);}
	.st57{fill:url(#SVGID_55_);}
	.st58{fill:url(#SVGID_56_);}
	.st59{fill:url(#SVGID_57_);}
	.st60{fill:url(#SVGID_58_);}
	.st61{fill:url(#SVGID_59_);}
	.st62{fill:url(#SVGID_60_);}
	.st63{fill:url(#SVGID_61_);}
	.st64{fill:url(#SVGID_62_);}
	.st65{fill:url(#SVGID_63_);}
	.st66{fill:url(#SVGID_64_);}
	.st67{fill:#DBDCDD;}
	.st68{fill:#4D4D4D;}
	.st69{fill:url(#SVGID_65_);}
	.st70{fill:#FF7E02;}
	.st71{fill:url(#SVGID_66_);}
	.st72{fill:#E3E4E5;}
	.st73{fill:#1A1A1A;}
	.st74{fill:#FFFFFF;}
	.st75{fill:#E8E8E8;}
	.st76{fill:#D6D6D8;}
	.st77{fill:#FFFDFD;}
	.st78{fill:url(#SVGID_67_);}
	.st79{fill:url(#SVGID_68_);}
	.st80{fill:url(#SVGID_69_);}
	.st81{fill:url(#SVGID_70_);}
	.st82{fill:#F4B3B8;}
	.st83{fill:url(#SVGID_71_);}
	.st84{fill:url(#SVGID_72_);}
	.st85{fill:#333333;}
	.st86{fill:url(#SVGID_73_);}
	.st87{fill:url(#SVGID_74_);}
	.st88{fill:url(#SVGID_75_);}
	.st89{fill:url(#SVGID_76_);}
	.st90{fill:#EFF4F4;}
	.st91{fill:none;stroke:#FF2A6E;stroke-width:0.3774;stroke-miterlimit:10;}
	.st92{fill:#DBE1E3;}
	.st93{fill:url(#SVGID_77_);}
	.st94{fill:url(#SVGID_78_);}
	.st95{fill:#D35500;}
	.st96{fill:url(#SVGID_79_);}
	.st97{fill:url(#SVGID_80_);}
	.st98{fill:url(#SVGID_81_);}
	.st99{fill:#1B4266;}
	.st100{fill:url(#SVGID_82_);}
	.st101{fill:url(#SVGID_83_);}
	.st102{fill:#CB9EAE;}
	.st103{fill:url(#SVGID_84_);}
	.st104{fill:url(#SVGID_85_);}
	.st105{fill:url(#SVGID_86_);}
	.st106{fill:url(#SVGID_87_);}
	.st107{fill:none;stroke:#4C4C4C;stroke-width:0.3774;stroke-miterlimit:10;}
	.st108{fill:url(#SVGID_88_);}
	.st109{fill:url(#SVGID_89_);}
	.st110{fill:url(#SVGID_90_);}
	.st111{fill:url(#SVGID_91_);}
	.st112{fill:url(#SVGID_92_);}
	.st113{fill:url(#SVGID_93_);}
	.st114{fill:url(#SVGID_94_);}
	.st115{fill:url(#SVGID_95_);}
	.st116{fill:url(#SVGID_96_);}
	.st117{fill:none;stroke:#F9962B;stroke-width:0.5661;stroke-linecap:round;stroke-miterlimit:10;}
	.st118{fill:url(#SVGID_97_);}
	.st119{fill:url(#SVGID_98_);}
	.st120{fill:url(#SVGID_99_);}
	.st121{fill:url(#SVGID_100_);}
	.st122{fill:url(#SVGID_101_);}
	.st123{fill:url(#SVGID_102_);}
	.st124{fill:url(#SVGID_103_);}
	.st125{fill:url(#SVGID_104_);}
	.st126{fill:#F9C8CA;}
</style>
<g>
	<rect class="st0" width="370" height="474"/>
	<g>
		<defs>
			<rect id="SVGID_1_" width="370" height="474"/>
		</defs>
		<clipPath id="SVGID_2_">
			<use xlink:href="#SVGID_1_"  style="overflow:visible;"/>
		</clipPath>
		<g class="st1">
			<linearGradient id="SVGID_3_" gradientUnits="userSpaceOnUse" x1="43.4988" y1="43.2605" x2="43.5207" y2="43.5193">
				<stop  offset="0" style="stop-color:#7763F7"/>
				<stop  offset="0.248" style="stop-color:#6F72F7"/>
				<stop  offset="0.3371" style="stop-color:#6C79F7"/>
				<stop  offset="0.7628" style="stop-color:#5B9EF8"/>
				<stop  offset="1" style="stop-color:#50B5F8"/>
			</linearGradient>
			<path class="st2" d="M44.34,43.41c0.01,0,0.02,0,0.02,0c-0.57-0.01-1.14-0.02-1.7-0.05C43.06,43.34,43.61,43.35,44.34,43.41z"/>
			<path class="st3" d="M162.25,246.54c0,0-36.3,1.09-38.48,4.54c-2.18,3.45,21.42,3.81,23.41,11.07c2,7.26,7.44,11.98,49.37,11.8
				c41.92-0.18,38.66-3.45,31.4-11.07c-7.26-7.62,4.72-7.26,1.45-12.16C226.13,245.81,177.13,245.81,162.25,246.54z"/>
			<path class="st3" d="M284.57,294.63c-4.72,2.36-7.26,5.99,0.54,6.72c7.8,0.73,17.97,10.53,37.39,7.08
				c19.42-3.45,5.42-16.94-23.51-18.54L284.57,294.63z"/>
			<path class="st3" d="M173.68,347.26c0,0-12.16,2.72-11.43,8.17c0.73,5.44,19.96,1.45,24.86,6.17c4.9,4.72,33.58,3.99,29.58-4.72
				C212.7,348.17,194.19,345.27,173.68,347.26z"/>
			<path class="st4" d="M109.35,310.72c4.15,0.91,6.78,5.1,5.69,9.21c-0.81,3.05-2.99,6.07-8.15,7.18
				c-11.8,2.54-17.24,18.51-41.2,12.16c-23.96-6.35,10.42-27.44,10.42-27.44S82.6,304.83,109.35,310.72z"/>
			<path class="st5" d="M192.19,28.57c-18.5-10.9-38.29,3.09-48.64,24.5c-10.34,21.42-14.5,39.85-56.52,31.63
				c-42.02-8.22-60.53,13.9-57.99,50.12c2.54,36.22,46.1,112.26,161.53,106.64c115.43-5.63,150.09-79.49,145.01-113.25
				c-5.08-33.76-68.79-25.41-93.83-53.36S205.44,36.37,192.19,28.57z"/>
			<linearGradient id="SVGID_4_" gradientUnits="userSpaceOnUse" x1="328.0354" y1="206.2201" x2="361.7909" y2="219.559">
				<stop  offset="1.331947e-07" style="stop-color:#1A1A1A"/>
				<stop  offset="1" style="stop-color:#4D4D4D"/>
			</linearGradient>
			<path class="st6" d="M329.22,193.72c0,0,16.7,3.99,22.69,21.23c0,0-15.06,5.26-29.58,2C307.8,213.69,329.22,193.72,329.22,193.72
				z"/>
			<linearGradient id="SVGID_5_" gradientUnits="userSpaceOnUse" x1="317.7859" y1="207.3336" x2="342.4687" y2="207.3336">
				<stop  offset="1.331947e-07" style="stop-color:#1A1A1A"/>
				<stop  offset="1" style="stop-color:#4D4D4D"/>
			</linearGradient>
			<path class="st7" d="M321.05,204.07c0,0,12.89,1.81,21.42,6.53c0,0-11.07-3.63-24.68-4.72L321.05,204.07z"/>
			<g>
				<linearGradient id="SVGID_6_" gradientUnits="userSpaceOnUse" x1="309.4811" y1="201.198" x2="337.9689" y2="183.907">
					<stop  offset="1.331947e-07" style="stop-color:#1A1A1A"/>
					<stop  offset="1" style="stop-color:#4D4D4D"/>
				</linearGradient>
				<path class="st8" d="M306.44,208.33c0,0,21.6,1.81,28.86-11.43c7.26-13.25,5.63-19.78,5.63-19.78s-29.76-0.54-39.93,21.42
					L306.44,208.33z"/>
				<linearGradient id="SVGID_7_" gradientUnits="userSpaceOnUse" x1="272.1673" y1="240.3541" x2="442.9094" y2="75.2101">
					<stop  offset="1.331947e-07" style="stop-color:#1A1A1A"/>
					<stop  offset="1" style="stop-color:#4D4D4D"/>
				</linearGradient>
				<path class="st9" d="M307.57,205.29c0,0,13.75-16.93,30.81-24.55c0,0-19.6,6.17-31.94,23.23L307.57,205.29z"/>
			</g>
			<g>
				<linearGradient id="SVGID_8_" gradientUnits="userSpaceOnUse" x1="296.1266" y1="211.3546" x2="334.51" y2="224.4214">
					<stop  offset="1.331947e-07" style="stop-color:#1A1A1A"/>
					<stop  offset="1" style="stop-color:#4D4D4D"/>
				</linearGradient>
				<path class="st10" d="M308.35,198.62c23.05,6.35,23.68,28.22,28.77,39.66c0,0-24.5,4.17-36.12-19.04
					C297.41,209.97,293.89,199.49,308.35,198.62z"/>
				<linearGradient id="SVGID_9_" gradientUnits="userSpaceOnUse" x1="304.4463" y1="218.7675" x2="327.1327" y2="218.7675">
					<stop  offset="1.331947e-07" style="stop-color:#1A1A1A"/>
					<stop  offset="1" style="stop-color:#4D4D4D"/>
				</linearGradient>
				<path class="st11" d="M306.81,207.24c0,0,14.52,9.26,20.33,23.05c0,0-13.07-18.51-22.69-21.05L306.81,207.24z"/>
			</g>
			<g>
				<linearGradient id="SVGID_10_" gradientUnits="userSpaceOnUse" x1="327.0966" y1="184.054" x2="317.2961" y2="171.7126">
					<stop  offset="1.331947e-07" style="stop-color:#1A1A1A"/>
					<stop  offset="1" style="stop-color:#4D4D4D"/>
				</linearGradient>
				<path class="st12" d="M298.91,169.01c0,0,9.8-13.58,38.11-11.22c0,0-4.93,1.48-9.15,12.14c-4.22,10.66-13.38,20.58-29.51,16.72
					L298.91,169.01z"/>
				<linearGradient id="SVGID_11_" gradientUnits="userSpaceOnUse" x1="300.1344" y1="170.8931" x2="328.4031" y2="170.8931">
					<stop  offset="1.331947e-07" style="stop-color:#1A1A1A"/>
					<stop  offset="1" style="stop-color:#4D4D4D"/>
				</linearGradient>
				<path class="st13" d="M301.71,179.92c0,0,13.45-12.96,26.7-18.05c0,0-11.71,2.57-28.27,17.16L301.71,179.92z"/>
			</g>
			<g>
				
					<linearGradient id="SVGID_12_" gradientUnits="userSpaceOnUse" x1="318.8079" y1="-120.0254" x2="334.0051" y2="-120.0254" gradientTransform="matrix(0.9754 -0.2204 0.2204 0.9754 41.5915 265.1987)">
					<stop  offset="1.331947e-07" style="stop-color:#1A1A1A"/>
					<stop  offset="1" style="stop-color:#4D4D4D"/>
				</linearGradient>
				<path class="st14" d="M327.76,85.21c0,0,3.8-9.69,11.5-18.05C339.27,67.16,335.11,79.18,327.76,85.21z"/>
				
					<linearGradient id="SVGID_13_" gradientUnits="userSpaceOnUse" x1="312.9767" y1="-120.2045" x2="320.6155" y2="-120.2045" gradientTransform="matrix(0.9754 -0.2204 0.2204 0.9754 41.5915 265.1987)">
					<stop  offset="1.331947e-07" style="stop-color:#1A1A1A"/>
					<stop  offset="1" style="stop-color:#4D4D4D"/>
				</linearGradient>
				<path class="st15" d="M322.96,90.4c0,0,3.24-12.29,2.29-24.54C325.24,65.86,321.25,79.16,322.96,90.4z"/>
				
					<linearGradient id="SVGID_14_" gradientUnits="userSpaceOnUse" x1="313.6259" y1="-108.8086" x2="337.8668" y2="-108.8086" gradientTransform="matrix(0.9754 -0.2204 0.2204 0.9754 41.5915 265.1987)">
					<stop  offset="1.331947e-07" style="stop-color:#1A1A1A"/>
					<stop  offset="1" style="stop-color:#4D4D4D"/>
				</linearGradient>
				<path class="st16" d="M347.02,83.94c0,0-11.26,5.57-23.28,6.94C323.73,90.88,335.83,84.37,347.02,83.94z"/>
				
					<linearGradient id="SVGID_15_" gradientUnits="userSpaceOnUse" x1="306.1253" y1="-101.66" x2="331.4274" y2="-101.66" gradientTransform="matrix(0.9754 -0.2204 0.2204 0.9754 41.5915 265.1987)">
					<stop  offset="1.331947e-07" style="stop-color:#1A1A1A"/>
					<stop  offset="1" style="stop-color:#4D4D4D"/>
				</linearGradient>
				<path class="st17" d="M342.45,92.93c0,0-12,5.4-24.58,6.03C317.87,98.96,330.8,92.56,342.45,92.93z"/>
				
					<linearGradient id="SVGID_16_" gradientUnits="userSpaceOnUse" x1="296.8878" y1="-94.4204" x2="322.8088" y2="-94.4204" gradientTransform="matrix(0.9754 -0.2204 0.2204 0.9754 41.5915 265.1987)">
					<stop  offset="1.331947e-07" style="stop-color:#1A1A1A"/>
					<stop  offset="1" style="stop-color:#4D4D4D"/>
				</linearGradient>
				<path class="st18" d="M335.61,101.8c0,0-12.27,5.75-25.13,6.37C310.48,108.18,323.69,101.35,335.61,101.8z"/>
				
					<linearGradient id="SVGID_17_" gradientUnits="userSpaceOnUse" x1="288.333" y1="-86.2383" x2="313.9083" y2="-86.2383" gradientTransform="matrix(0.9754 -0.2204 0.2204 0.9754 41.5915 265.1987)">
					<stop  offset="1.331947e-07" style="stop-color:#1A1A1A"/>
					<stop  offset="1" style="stop-color:#4D4D4D"/>
				</linearGradient>
				<path class="st19" d="M329.26,114.04c0,0-13.14,3.28-25.9,1.4C303.35,115.44,317.62,111.3,329.26,114.04z"/>
				
					<linearGradient id="SVGID_18_" gradientUnits="userSpaceOnUse" x1="305.0003" y1="-114.3113" x2="310.5227" y2="-114.3113" gradientTransform="matrix(0.9754 -0.2204 0.2204 0.9754 41.5915 265.1987)">
					<stop  offset="1.331947e-07" style="stop-color:#1A1A1A"/>
					<stop  offset="1" style="stop-color:#4D4D4D"/>
				</linearGradient>
				<path class="st20" d="M316.55,98.2c0,0,2.13-12.54,0.08-24.66C316.63,73.54,313.84,87.16,316.55,98.2z"/>
				
					<linearGradient id="SVGID_19_" gradientUnits="userSpaceOnUse" x1="295.2128" y1="-109.0413" x2="299.9758" y2="-109.0413" gradientTransform="matrix(0.9754 -0.2204 0.2204 0.9754 41.5915 265.1987)">
					<stop  offset="1.331947e-07" style="stop-color:#1A1A1A"/>
					<stop  offset="1" style="stop-color:#4D4D4D"/>
				</linearGradient>
				<path class="st21" d="M308.62,106.5c0,0,1.94-13.78-1.38-26.55C307.24,79.95,304.53,94.99,308.62,106.5z"/>
				
					<linearGradient id="SVGID_20_" gradientUnits="userSpaceOnUse" x1="286.2816" y1="-103.9658" x2="290.0924" y2="-103.9658" gradientTransform="matrix(0.9754 -0.2204 0.2204 0.9754 41.5915 265.1987)">
					<stop  offset="1.331947e-07" style="stop-color:#1A1A1A"/>
					<stop  offset="1" style="stop-color:#4D4D4D"/>
				</linearGradient>
				<path class="st22" d="M301.31,113.46c0,0,1.22-13.87-2.77-26.44C298.54,87.02,296.62,102.19,301.31,113.46z"/>
				<linearGradient id="SVGID_21_" gradientUnits="userSpaceOnUse" x1="295.3369" y1="103.8653" x2="327.3397" y2="103.8653">
					<stop  offset="1.331947e-07" style="stop-color:#1A1A1A"/>
					<stop  offset="1" style="stop-color:#4D4D4D"/>
				</linearGradient>
				<path class="st23" d="M295.34,119.14c0,0,12.36-7.5,32-33.28c0,0-18.94,28.14-31.39,35.99L295.34,119.14z"/>
			</g>
			<g>
				
					<linearGradient id="SVGID_22_" gradientUnits="userSpaceOnUse" x1="252.7556" y1="327.0562" x2="267.9528" y2="327.0562" gradientTransform="matrix(0.9677 0.252 -0.252 0.9677 170.1808 -259.8027)">
					<stop  offset="1.331947e-07" style="stop-color:#1A1A1A"/>
					<stop  offset="1" style="stop-color:#4D4D4D"/>
				</linearGradient>
				<path class="st24" d="M330.45,127.68c0,0,7.82-6.86,18.5-10.76C348.96,116.92,339.75,125.7,330.45,127.68z"/>
				
					<linearGradient id="SVGID_23_" gradientUnits="userSpaceOnUse" x1="246.9243" y1="326.8772" x2="254.563" y2="326.8772" gradientTransform="matrix(0.9677 0.252 -0.252 0.9677 170.1808 -259.8027)">
					<stop  offset="1.331947e-07" style="stop-color:#1A1A1A"/>
					<stop  offset="1" style="stop-color:#4D4D4D"/>
				</linearGradient>
				<path class="st25" d="M323.8,130.08c0,0,8.52-9.43,13.3-20.75C337.1,109.33,327.44,119.31,323.8,130.08z"/>
				
					<linearGradient id="SVGID_24_" gradientUnits="userSpaceOnUse" x1="247.5737" y1="338.2732" x2="271.8149" y2="338.2732" gradientTransform="matrix(0.9677 0.252 -0.252 0.9677 170.1808 -259.8027)">
					<stop  offset="1.331947e-07" style="stop-color:#1A1A1A"/>
					<stop  offset="1" style="stop-color:#4D4D4D"/>
				</linearGradient>
				<path class="st26" d="M348.14,135.39c0,0-12.56-0.22-23.87-4.53C324.27,130.86,338.01,130.63,348.14,135.39z"/>
				
					<linearGradient id="SVGID_25_" gradientUnits="userSpaceOnUse" x1="240.073" y1="345.422" x2="265.3756" y2="345.422" gradientTransform="matrix(0.9677 0.252 -0.252 0.9677 170.1808 -259.8027)">
					<stop  offset="1.331947e-07" style="stop-color:#1A1A1A"/>
					<stop  offset="1" style="stop-color:#4D4D4D"/>
				</linearGradient>
				<path class="st27" d="M339.95,141.28c0,0-13.15-0.71-24.6-5.93C315.35,135.35,329.78,135.6,339.95,141.28z"/>
				
					<linearGradient id="SVGID_26_" gradientUnits="userSpaceOnUse" x1="230.8355" y1="352.6619" x2="256.757" y2="352.6619" gradientTransform="matrix(0.9677 0.252 -0.252 0.9677 170.1808 -259.8027)">
					<stop  offset="1.331947e-07" style="stop-color:#1A1A1A"/>
					<stop  offset="1" style="stop-color:#4D4D4D"/>
				</linearGradient>
				<path class="st28" d="M329.81,146.02c0,0-13.54-0.52-25.25-5.88C304.56,140.14,319.43,140.15,329.81,146.02z"/>
				
					<linearGradient id="SVGID_27_" gradientUnits="userSpaceOnUse" x1="222.2807" y1="360.8442" x2="247.8565" y2="360.8442" gradientTransform="matrix(0.9677 0.252 -0.252 0.9677 170.1808 -259.8027)">
					<stop  offset="1.331947e-07" style="stop-color:#1A1A1A"/>
					<stop  offset="1" style="stop-color:#4D4D4D"/>
				</linearGradient>
				<path class="st29" d="M318.55,153.97c0,0-13.17-3.12-23.66-10.64C294.89,143.33,309.46,146.2,318.55,153.97z"/>
				
					<linearGradient id="SVGID_28_" gradientUnits="userSpaceOnUse" x1="238.948" y1="332.7706" x2="244.4701" y2="332.7706" gradientTransform="matrix(0.9677 0.252 -0.252 0.9677 170.1808 -259.8027)">
					<stop  offset="1.331947e-07" style="stop-color:#1A1A1A"/>
					<stop  offset="1" style="stop-color:#4D4D4D"/>
				</linearGradient>
				<path class="st30" d="M314.53,134.07c0,0,7.65-10.16,11.4-21.87C325.93,112.19,317.19,123.02,314.53,134.07z"/>
				
					<linearGradient id="SVGID_29_" gradientUnits="userSpaceOnUse" x1="229.1604" y1="338.041" x2="233.9231" y2="338.041" gradientTransform="matrix(0.9677 0.252 -0.252 0.9677 170.1808 -259.8027)">
					<stop  offset="1.331947e-07" style="stop-color:#1A1A1A"/>
					<stop  offset="1" style="stop-color:#4D4D4D"/>
				</linearGradient>
				<path class="st31" d="M303.67,137.8c0,0,8.05-11.35,10.96-24.22C314.64,113.59,305.32,125.7,303.67,137.8z"/>
				
					<linearGradient id="SVGID_30_" gradientUnits="userSpaceOnUse" x1="220.2292" y1="343.1167" x2="224.0397" y2="343.1167" gradientTransform="matrix(0.9677 0.252 -0.252 0.9677 170.1808 -259.8027)">
					<stop  offset="1.331947e-07" style="stop-color:#1A1A1A"/>
					<stop  offset="1" style="stop-color:#4D4D4D"/>
				</linearGradient>
				<path class="st32" d="M293.98,140.63c0,0,7.45-11.76,9.68-24.76C303.66,115.87,294.99,128.46,293.98,140.63z"/>
				<linearGradient id="SVGID_31_" gradientUnits="userSpaceOnUse" x1="285.367" y1="136.8491" x2="329.7764" y2="136.8491">
					<stop  offset="1.331947e-07" style="stop-color:#1A1A1A"/>
					<stop  offset="1" style="stop-color:#4D4D4D"/>
				</linearGradient>
				<path class="st33" d="M286.07,142.94c0,0,14.42-0.99,43.71-14.87c0,0-29.75,16.3-44.41,17.57L286.07,142.94z"/>
			</g>
			<g>
				<linearGradient id="SVGID_32_" gradientUnits="userSpaceOnUse" x1="303.2896" y1="163.2649" x2="307.6452" y2="132.5037">
					<stop  offset="1.331947e-07" style="stop-color:#1A1A1A"/>
					<stop  offset="1" style="stop-color:#4D4D4D"/>
				</linearGradient>
				<path class="st34" d="M295.28,147.8c0,0,3.45-15.06,11.43-24.68c0,0,23.96,30.13-7.26,49.18L295.28,147.8z"/>
				<linearGradient id="SVGID_33_" gradientUnits="userSpaceOnUse" x1="298.3664" y1="149.6195" x2="306.7415" y2="149.6195">
					<stop  offset="1.331947e-07" style="stop-color:#1A1A1A"/>
					<stop  offset="1" style="stop-color:#4D4D4D"/>
				</linearGradient>
				<path class="st35" d="M299.27,163.23c0,0,7.99-10.71,7.44-27.22c0,0-0.91,16.33-8.35,25.41L299.27,163.23z"/>
			</g>
			
				<linearGradient id="SVGID_34_" gradientUnits="userSpaceOnUse" x1="-488.709" y1="206.2201" x2="-454.9534" y2="219.559" gradientTransform="matrix(-1 0 0 1 -446.6257 0)">
				<stop  offset="1.331947e-07" style="stop-color:#1A1A1A"/>
				<stop  offset="1" style="stop-color:#4D4D4D"/>
			</linearGradient>
			<path class="st36" d="M40.9,193.72c0,0-16.7,3.99-22.69,21.23c0,0,15.06,5.26,29.58,2S40.9,193.72,40.9,193.72z"/>
			<linearGradient id="SVGID_35_" gradientUnits="userSpaceOnUse" x1="27.65" y1="207.3336" x2="52.3327" y2="207.3336">
				<stop  offset="1.331947e-07" style="stop-color:#1A1A1A"/>
				<stop  offset="1" style="stop-color:#4D4D4D"/>
			</linearGradient>
			<path class="st37" d="M49.07,204.07c0,0-12.89,1.81-21.42,6.53c0,0,11.07-3.63,24.68-4.72L49.07,204.07z"/>
			<g>
				
					<linearGradient id="SVGID_36_" gradientUnits="userSpaceOnUse" x1="-507.2632" y1="201.198" x2="-478.7753" y2="183.907" gradientTransform="matrix(-1 0 0 1 -446.6257 0)">
					<stop  offset="1.331947e-07" style="stop-color:#1A1A1A"/>
					<stop  offset="1" style="stop-color:#4D4D4D"/>
				</linearGradient>
				<path class="st38" d="M63.68,208.33c0,0-21.6,1.81-28.86-11.43c-7.26-13.25-5.63-19.78-5.63-19.78s29.76-0.54,39.93,21.42
					L63.68,208.33z"/>
				<linearGradient id="SVGID_37_" gradientUnits="userSpaceOnUse" x1="31.7335" y1="193.0199" x2="63.6759" y2="193.0199">
					<stop  offset="1.331947e-07" style="stop-color:#1A1A1A"/>
					<stop  offset="1" style="stop-color:#4D4D4D"/>
				</linearGradient>
				<path class="st39" d="M62.55,205.29c0,0-13.75-16.93-30.81-24.55c0,0,19.6,6.17,31.94,23.23L62.55,205.29z"/>
			</g>
			<g>
				
					<linearGradient id="SVGID_38_" gradientUnits="userSpaceOnUse" x1="-520.6177" y1="211.3546" x2="-482.2343" y2="224.4213" gradientTransform="matrix(-1 0 0 1 -446.6257 0)">
					<stop  offset="1.331947e-07" style="stop-color:#1A1A1A"/>
					<stop  offset="1" style="stop-color:#4D4D4D"/>
				</linearGradient>
				<path class="st40" d="M61.77,198.62c-23.05,6.35-23.68,28.22-28.77,39.66c0,0,24.5,4.17,36.12-19.04
					C72.71,209.97,76.23,199.49,61.77,198.62z"/>
				<linearGradient id="SVGID_39_" gradientUnits="userSpaceOnUse" x1="42.986" y1="218.7675" x2="65.6723" y2="218.7675">
					<stop  offset="1.331947e-07" style="stop-color:#1A1A1A"/>
					<stop  offset="1" style="stop-color:#4D4D4D"/>
				</linearGradient>
				<path class="st41" d="M63.31,207.24c0,0-14.52,9.26-20.33,23.05c0,0,13.07-18.51,22.69-21.05L63.31,207.24z"/>
			</g>
			<g>
				
					<linearGradient id="SVGID_40_" gradientUnits="userSpaceOnUse" x1="-515.4944" y1="180.7891" x2="-487.2465" y2="161.0155" gradientTransform="matrix(-1 0 0 1 -446.6257 0)">
					<stop  offset="1.331947e-07" style="stop-color:#1A1A1A"/>
					<stop  offset="1" style="stop-color:#4D4D4D"/>
				</linearGradient>
				<path class="st42" d="M71.21,169.01c0,0-9.8-13.58-38.11-11.22c0,0,4.93,1.48,9.15,12.14c4.22,10.66,13.38,20.58,29.51,16.72
					L71.21,169.01z"/>
				<linearGradient id="SVGID_41_" gradientUnits="userSpaceOnUse" x1="41.7155" y1="170.8931" x2="69.9842" y2="170.8931">
					<stop  offset="1.331947e-07" style="stop-color:#1A1A1A"/>
					<stop  offset="1" style="stop-color:#4D4D4D"/>
				</linearGradient>
				<path class="st43" d="M68.41,179.92c0,0-13.45-12.96-26.7-18.05c0,0,11.71,2.57,28.27,17.16L68.41,179.92z"/>
			</g>
			<g>
				
					<linearGradient id="SVGID_42_" gradientUnits="userSpaceOnUse" x1="-477.8594" y1="-300.0392" x2="-462.6623" y2="-300.0392" gradientTransform="matrix(-0.9754 -0.2204 -0.2204 0.9754 -488.2172 265.1987)">
					<stop  offset="1.331947e-07" style="stop-color:#1A1A1A"/>
					<stop  offset="1" style="stop-color:#4D4D4D"/>
				</linearGradient>
				<path class="st44" d="M42.35,85.21c0,0-3.8-9.69-11.5-18.05C30.85,67.16,35.01,79.18,42.35,85.21z"/>
				
					<linearGradient id="SVGID_43_" gradientUnits="userSpaceOnUse" x1="-483.6907" y1="-300.2183" x2="-476.0518" y2="-300.2183" gradientTransform="matrix(-0.9754 -0.2204 -0.2204 0.9754 -488.2172 265.1987)">
					<stop  offset="1.331947e-07" style="stop-color:#1A1A1A"/>
					<stop  offset="1" style="stop-color:#4D4D4D"/>
				</linearGradient>
				<path class="st45" d="M47.16,90.4c0,0-3.24-12.29-2.29-24.54C44.87,65.86,48.87,79.16,47.16,90.4z"/>
				
					<linearGradient id="SVGID_44_" gradientUnits="userSpaceOnUse" x1="-483.0414" y1="-288.8224" x2="-458.8005" y2="-288.8224" gradientTransform="matrix(-0.9754 -0.2204 -0.2204 0.9754 -488.2172 265.1987)">
					<stop  offset="1.331947e-07" style="stop-color:#1A1A1A"/>
					<stop  offset="1" style="stop-color:#4D4D4D"/>
				</linearGradient>
				<path class="st46" d="M23.1,83.94c0,0,11.26,5.57,23.28,6.94C46.39,90.88,34.29,84.37,23.1,83.94z"/>
				
					<linearGradient id="SVGID_45_" gradientUnits="userSpaceOnUse" x1="-490.542" y1="-281.6738" x2="-465.2398" y2="-281.6738" gradientTransform="matrix(-0.9754 -0.2204 -0.2204 0.9754 -488.2172 265.1987)">
					<stop  offset="1.331947e-07" style="stop-color:#1A1A1A"/>
					<stop  offset="1" style="stop-color:#4D4D4D"/>
				</linearGradient>
				<path class="st47" d="M27.67,92.93c0,0,12,5.4,24.58,6.03C52.25,98.96,39.32,92.56,27.67,92.93z"/>
				
					<linearGradient id="SVGID_46_" gradientUnits="userSpaceOnUse" x1="-499.7794" y1="-274.4342" x2="-473.8585" y2="-274.4342" gradientTransform="matrix(-0.9754 -0.2204 -0.2204 0.9754 -488.2172 265.1987)">
					<stop  offset="1.331947e-07" style="stop-color:#1A1A1A"/>
					<stop  offset="1" style="stop-color:#4D4D4D"/>
				</linearGradient>
				<path class="st48" d="M34.5,101.8c0,0,12.27,5.75,25.13,6.37C59.64,108.18,46.43,101.35,34.5,101.8z"/>
				
					<linearGradient id="SVGID_47_" gradientUnits="userSpaceOnUse" x1="-508.3344" y1="-266.2522" x2="-482.759" y2="-266.2522" gradientTransform="matrix(-0.9754 -0.2204 -0.2204 0.9754 -488.2172 265.1987)">
					<stop  offset="1.331947e-07" style="stop-color:#1A1A1A"/>
					<stop  offset="1" style="stop-color:#4D4D4D"/>
				</linearGradient>
				<path class="st49" d="M40.86,114.04c0,0,13.14,3.28,25.9,1.4C66.77,115.44,52.5,111.3,40.86,114.04z"/>
				
					<linearGradient id="SVGID_48_" gradientUnits="userSpaceOnUse" x1="-491.667" y1="-294.3252" x2="-486.1446" y2="-294.3252" gradientTransform="matrix(-0.9754 -0.2204 -0.2204 0.9754 -488.2172 265.1987)">
					<stop  offset="1.331947e-07" style="stop-color:#1A1A1A"/>
					<stop  offset="1" style="stop-color:#4D4D4D"/>
				</linearGradient>
				<path class="st50" d="M53.57,98.2c0,0-2.13-12.54-0.08-24.66C53.49,73.54,56.28,87.16,53.57,98.2z"/>
				
					<linearGradient id="SVGID_49_" gradientUnits="userSpaceOnUse" x1="-501.4545" y1="-289.0551" x2="-496.6915" y2="-289.0551" gradientTransform="matrix(-0.9754 -0.2204 -0.2204 0.9754 -488.2172 265.1987)">
					<stop  offset="1.331947e-07" style="stop-color:#1A1A1A"/>
					<stop  offset="1" style="stop-color:#4D4D4D"/>
				</linearGradient>
				<path class="st51" d="M61.5,106.5c0,0-1.94-13.78,1.38-26.55C62.88,79.95,65.59,94.99,61.5,106.5z"/>
				
					<linearGradient id="SVGID_50_" gradientUnits="userSpaceOnUse" x1="-510.3856" y1="-283.9796" x2="-506.5749" y2="-283.9796" gradientTransform="matrix(-0.9754 -0.2204 -0.2204 0.9754 -488.2172 265.1987)">
					<stop  offset="1.331947e-07" style="stop-color:#1A1A1A"/>
					<stop  offset="1" style="stop-color:#4D4D4D"/>
				</linearGradient>
				<path class="st52" d="M68.81,113.46c0,0-1.22-13.87,2.77-26.44C71.58,87.02,73.5,102.19,68.81,113.46z"/>
				<linearGradient id="SVGID_51_" gradientUnits="userSpaceOnUse" x1="42.7789" y1="103.8653" x2="74.7818" y2="103.8653">
					<stop  offset="1.331947e-07" style="stop-color:#1A1A1A"/>
					<stop  offset="1" style="stop-color:#4D4D4D"/>
				</linearGradient>
				<path class="st53" d="M74.78,119.14c0,0-12.36-7.5-32-33.28c0,0,18.94,28.14,31.39,35.99L74.78,119.14z"/>
			</g>
			<g>
				
					<linearGradient id="SVGID_52_" gradientUnits="userSpaceOnUse" x1="-537.6495" y1="532.8866" x2="-522.4525" y2="532.8866" gradientTransform="matrix(-0.9677 0.252 0.252 0.9677 -616.8066 -259.8027)">
					<stop  offset="1.331947e-07" style="stop-color:#1A1A1A"/>
					<stop  offset="1" style="stop-color:#4D4D4D"/>
				</linearGradient>
				<path class="st54" d="M39.66,127.68c0,0-7.82-6.86-18.5-10.76C21.16,116.92,30.37,125.7,39.66,127.68z"/>
				
					<linearGradient id="SVGID_53_" gradientUnits="userSpaceOnUse" x1="-543.4808" y1="532.7076" x2="-535.8423" y2="532.7076" gradientTransform="matrix(-0.9677 0.252 0.252 0.9677 -616.8066 -259.8027)">
					<stop  offset="1.331947e-07" style="stop-color:#1A1A1A"/>
					<stop  offset="1" style="stop-color:#4D4D4D"/>
				</linearGradient>
				<path class="st55" d="M46.31,130.08c0,0-8.52-9.43-13.3-20.75C33.02,109.33,42.68,119.31,46.31,130.08z"/>
				
					<linearGradient id="SVGID_54_" gradientUnits="userSpaceOnUse" x1="-542.8315" y1="544.1036" x2="-518.5903" y2="544.1036" gradientTransform="matrix(-0.9677 0.252 0.252 0.9677 -616.8066 -259.8027)">
					<stop  offset="1.331947e-07" style="stop-color:#1A1A1A"/>
					<stop  offset="1" style="stop-color:#4D4D4D"/>
				</linearGradient>
				<path class="st56" d="M21.98,135.39c0,0,12.56-0.22,23.87-4.53C45.85,130.86,32.11,130.63,21.98,135.39z"/>
				
					<linearGradient id="SVGID_55_" gradientUnits="userSpaceOnUse" x1="-550.3322" y1="551.2524" x2="-525.0295" y2="551.2524" gradientTransform="matrix(-0.9677 0.252 0.252 0.9677 -616.8066 -259.8027)">
					<stop  offset="1.331947e-07" style="stop-color:#1A1A1A"/>
					<stop  offset="1" style="stop-color:#4D4D4D"/>
				</linearGradient>
				<path class="st57" d="M30.16,141.28c0,0,13.15-0.71,24.6-5.93C54.77,135.35,40.34,135.6,30.16,141.28z"/>
				
					<linearGradient id="SVGID_56_" gradientUnits="userSpaceOnUse" x1="-559.5696" y1="558.4924" x2="-533.6483" y2="558.4924" gradientTransform="matrix(-0.9677 0.252 0.252 0.9677 -616.8066 -259.8027)">
					<stop  offset="1.331947e-07" style="stop-color:#1A1A1A"/>
					<stop  offset="1" style="stop-color:#4D4D4D"/>
				</linearGradient>
				<path class="st58" d="M40.31,146.02c0,0,13.54-0.52,25.25-5.88C65.56,140.14,50.69,140.15,40.31,146.02z"/>
				
					<linearGradient id="SVGID_57_" gradientUnits="userSpaceOnUse" x1="-568.1246" y1="566.6747" x2="-542.5488" y2="566.6747" gradientTransform="matrix(-0.9677 0.252 0.252 0.9677 -616.8066 -259.8027)">
					<stop  offset="1.331947e-07" style="stop-color:#1A1A1A"/>
					<stop  offset="1" style="stop-color:#4D4D4D"/>
				</linearGradient>
				<path class="st59" d="M51.57,153.97c0,0,13.17-3.12,23.66-10.64C75.23,143.33,60.65,146.2,51.57,153.97z"/>
				
					<linearGradient id="SVGID_58_" gradientUnits="userSpaceOnUse" x1="-551.4572" y1="538.6011" x2="-545.9352" y2="538.6011" gradientTransform="matrix(-0.9677 0.252 0.252 0.9677 -616.8066 -259.8027)">
					<stop  offset="1.331947e-07" style="stop-color:#1A1A1A"/>
					<stop  offset="1" style="stop-color:#4D4D4D"/>
				</linearGradient>
				<path class="st60" d="M55.59,134.07c0,0-7.65-10.16-11.4-21.87C44.19,112.19,52.93,123.02,55.59,134.07z"/>
				
					<linearGradient id="SVGID_59_" gradientUnits="userSpaceOnUse" x1="-561.2448" y1="543.8714" x2="-556.4821" y2="543.8714" gradientTransform="matrix(-0.9677 0.252 0.252 0.9677 -616.8066 -259.8027)">
					<stop  offset="1.331947e-07" style="stop-color:#1A1A1A"/>
					<stop  offset="1" style="stop-color:#4D4D4D"/>
				</linearGradient>
				<path class="st61" d="M66.44,137.8c0,0-8.05-11.35-10.96-24.22C55.48,113.59,64.8,125.7,66.44,137.8z"/>
				
					<linearGradient id="SVGID_60_" gradientUnits="userSpaceOnUse" x1="-570.1761" y1="548.9471" x2="-566.3655" y2="548.9471" gradientTransform="matrix(-0.9677 0.252 0.252 0.9677 -616.8066 -259.8027)">
					<stop  offset="1.331947e-07" style="stop-color:#1A1A1A"/>
					<stop  offset="1" style="stop-color:#4D4D4D"/>
				</linearGradient>
				<path class="st62" d="M76.14,140.63c0,0-7.45-11.76-9.68-24.76C66.45,115.87,75.13,128.46,76.14,140.63z"/>
				<linearGradient id="SVGID_61_" gradientUnits="userSpaceOnUse" x1="40.3422" y1="136.8491" x2="84.7516" y2="136.8491">
					<stop  offset="1.331947e-07" style="stop-color:#1A1A1A"/>
					<stop  offset="1" style="stop-color:#4D4D4D"/>
				</linearGradient>
				<path class="st63" d="M84.05,142.94c0,0-14.42-0.99-43.71-14.87c0,0,29.75,16.3,44.41,17.57L84.05,142.94z"/>
			</g>
			<g>
				
					<linearGradient id="SVGID_62_" gradientUnits="userSpaceOnUse" x1="-513.4547" y1="163.2649" x2="-509.0991" y2="132.5037" gradientTransform="matrix(-1 0 0 1 -446.6257 0)">
					<stop  offset="1.331947e-07" style="stop-color:#1A1A1A"/>
					<stop  offset="1" style="stop-color:#4D4D4D"/>
				</linearGradient>
				<path class="st64" d="M74.84,147.8c0,0-3.45-15.06-11.43-24.68c0,0-23.96,30.13,7.26,49.18L74.84,147.8z"/>
				<linearGradient id="SVGID_63_" gradientUnits="userSpaceOnUse" x1="63.377" y1="149.6195" x2="71.7522" y2="149.6195">
					<stop  offset="1.331947e-07" style="stop-color:#1A1A1A"/>
					<stop  offset="1" style="stop-color:#4D4D4D"/>
				</linearGradient>
				<path class="st65" d="M70.84,163.23c0,0-7.99-10.71-7.44-27.22c0,0,0.91,16.33,8.35,25.41L70.84,163.23z"/>
				
					<linearGradient id="SVGID_64_" gradientUnits="userSpaceOnUse" x1="-502.1207" y1="155.4957" x2="-512.5153" y2="148.4853" gradientTransform="matrix(-1 0 0 1 -446.6257 0)">
					<stop  offset="1.331947e-07" style="stop-color:#1A1A1A"/>
					<stop  offset="1" style="stop-color:#4D4D4D"/>
				</linearGradient>
				<path class="st66" d="M70.66,172.31l4.17-24.5c0,0-3.45-15.06-11.43-24.68"/>
			</g>
			<g>
				<path class="st67" d="M300.93,83.49v142.14c0,1.72-1.4,3.12-3.12,3.12H71.63c-2.23,0-4.04-1.81-4.04-4.04V83.49
					c0-1.63,0.3-3.19,0.86-4.62c1.85-4.79,6.51-8.2,11.96-8.2h207.71c5.45,0,10.1,3.4,11.96,8.2
					C300.62,80.3,300.93,81.86,300.93,83.49z"/>
				<path class="st68" d="M300.93,83.49v129.8H67.58V83.49c0-1.63,0.3-3.19,0.86-4.62h231.62C300.62,80.3,300.93,81.86,300.93,83.49
					z"/>
				<linearGradient id="SVGID_65_" gradientUnits="userSpaceOnUse" x1="180.2331" y1="220.4155" x2="188.5078" y2="220.4155">
					<stop  offset="1.331947e-07" style="stop-color:#1A1A1A"/>
					<stop  offset="1" style="stop-color:#4D4D4D"/>
				</linearGradient>
				<path class="st69" d="M188.51,220.42c0,2.29-1.85,4.14-4.14,4.14c-2.29,0-4.14-1.85-4.14-4.14c0-2.29,1.85-4.14,4.14-4.14
					C186.66,216.28,188.51,218.13,188.51,220.42z"/>
				<circle class="st70" cx="155.91" cy="74.79" r="1.75"/>
				<linearGradient id="SVGID_66_" gradientUnits="userSpaceOnUse" x1="182.7809" y1="210.6732" x2="183.9031" y2="246.5841">
					<stop  offset="0" style="stop-color:#A6AEB2"/>
					<stop  offset="1" style="stop-color:#DBDCDD"/>
				</linearGradient>
				<polygon class="st71" points="218.27,249.75 149.73,249.8 156.75,246.58 160.82,228.74 207.39,228.74 211.16,246.8 				"/>
				<path class="st72" d="M218.25,250.65h-68.29c-0.12,0-0.22-0.1-0.22-0.22v-0.68c0-0.12,0.1-0.22,0.22-0.22h68.29
					c0.12,0,0.22,0.1,0.22,0.22v0.68C218.47,250.55,218.37,250.65,218.25,250.65z"/>
				<g>
					<path class="st73" d="M214.12,77.84h-50.08c-1.71,0-3.1-1.39-3.1-3.1s1.39-3.1,3.1-3.1h50.08c1.71,0,3.1,1.39,3.1,3.1
						S215.83,77.84,214.12,77.84z"/>
				</g>
				<rect x="76.12" y="84.7" class="st74" width="216.28" height="123.67"/>
				<path class="st70" d="M99.09,99.29v9.54H91.8c-2.63,0-4.77-2.13-4.77-4.77c0-1.32,0.53-2.51,1.4-3.37
					c0.86-0.86,2.06-1.4,3.37-1.4H99.09z"/>
				<rect x="76.09" y="84.7" class="st73" width="216.31" height="6.45"/>
				<path class="st70" d="M147.07,104.06c0,1.32-0.53,2.51-1.4,3.37c-0.86,0.86-2.06,1.4-3.37,1.4H99.09v-9.54h43.21
					C144.93,99.29,147.07,101.42,147.07,104.06z"/>
				<rect x="86.96" y="119.14" class="st75" width="26.65" height="26.65"/>
				<rect x="120.49" y="119.14" class="st75" width="26.65" height="26.65"/>
				<rect x="152.61" y="119.14" class="st75" width="26.65" height="26.65"/>
				<rect x="86.96" y="155.47" class="st75" width="26.65" height="26.65"/>
				<rect x="120.49" y="155.47" class="st75" width="26.65" height="26.65"/>
				<rect x="152.61" y="155.47" class="st75" width="26.65" height="26.65"/>
				<rect x="158.5" y="109.88" class="st70" width="30.58" height="30.58"/>
				<path class="st75" d="M126.8,203.3H88.92c-1.08,0-1.96-0.88-1.96-1.96l0,0c0-1.08,0.88-1.96,1.96-1.96h37.87
					c1.08,0,1.96,0.88,1.96,1.96l0,0C128.76,202.42,127.88,203.3,126.8,203.3z"/>
				<path class="st75" d="M181.09,203.3h-37.87c-1.08,0-1.96-0.88-1.96-1.96l0,0c0-1.08,0.88-1.96,1.96-1.96h37.87
					c1.08,0,1.96,0.88,1.96,1.96l0,0C183.05,202.42,182.17,203.3,181.09,203.3z"/>
				<path class="st75" d="M272.83,203.3h-37.87c-1.08,0-1.96-0.88-1.96-1.96l0,0c0-1.08,0.88-1.96,1.96-1.96h37.87
					c1.08,0,1.96,0.88,1.96,1.96l0,0C274.79,202.42,273.91,203.3,272.83,203.3z"/>
				<rect x="225.83" y="119.14" class="st75" width="15.99" height="15.99"/>
				<rect x="225.83" y="138.49" class="st75" width="15.99" height="15.99"/>
				<rect x="245.61" y="119.14" class="st75" width="15.99" height="15.99"/>
				<rect x="245.61" y="138.49" class="st75" width="15.99" height="15.99"/>
				<rect x="265.81" y="119.14" class="st75" width="15.99" height="15.99"/>
				<rect x="265.81" y="138.49" class="st75" width="15.99" height="15.99"/>
				<path class="st76" d="M229.06,168.79h52.74v-6.45h-52.74c-1.78,0-3.23,1.44-3.23,3.23l0,0
					C225.83,167.35,227.28,168.79,229.06,168.79z"/>
				<path class="st76" d="M229.06,179.03h52.74v-6.45h-52.74c-1.78,0-3.23,1.44-3.23,3.23l0,0
					C225.83,177.59,227.28,179.03,229.06,179.03z"/>
				<path class="st76" d="M251.8,189.27h30v-6.45h-30c-0.71,0-1.28,0.57-1.28,1.28v3.9C250.52,188.7,251.09,189.27,251.8,189.27z"/>
				<path class="st77" d="M93.59,102c-0.74-0.75-1.96-0.76-2.71-0.02c-0.75,0.74-0.76,1.96-0.02,2.71c0.64,0.65,1.63,0.75,2.38,0.28
					l1.78,1.8c0.2,0.2,0.51,0.2,0.71,0.01c0.2-0.2,0.2-0.51,0.01-0.71l-1.81-1.83C94.3,103.51,94.19,102.61,93.59,102z
					 M93.18,104.31c-0.54,0.53-1.4,0.52-1.93-0.01c-0.53-0.54-0.52-1.4,0.01-1.93s1.4-0.52,1.93,0.01
					C93.72,102.92,93.72,103.79,93.18,104.31z"/>
			</g>
			<g>
				<path class="st73" d="M73.81,312.09c0,0-1.3,3.3-1.07,6.14c0,0,3.26,0.85,7.17-0.28c2.48-0.72,8.35-1.13,8.65-2.84
					c1.3-7.62-3.32,0.57-9-3.64L73.81,312.09z"/>
				<path class="st73" d="M98.21,312.09c0,0-1.3,3.3-1.07,6.14c0,0,3.26,0.85,7.17-0.28c2.48-0.72,9.08-0.13,9.83-1.71
					c3.08-6.48-4.5-0.57-10.19-4.78L98.21,312.09z"/>
				<linearGradient id="SVGID_67_" gradientUnits="userSpaceOnUse" x1="112.0267" y1="213.0357" x2="85.5207" y2="290.4969">
					<stop  offset="0" style="stop-color:#000000"/>
					<stop  offset="0.6351" style="stop-color:#343434"/>
					<stop  offset="1" style="stop-color:#4D4D4D"/>
				</linearGradient>
				<path class="st78" d="M110.23,222.3c0,24.82-2.96,53.79-4.91,86.78c-0.06,1.02-0.12,2.04-0.18,3.07h-6.99l-0.05-3.07
					l-0.65-39.52l-1.71-23.63l-0.67-9.29l-0.11,0.58l-13.98,71.86l-0.6,3.07h-6.63c0.01-1.01,0.03-2.04,0.06-3.07
					c0.43-18.53,2.73-40.45,5.99-64.14l1.07-19.79c0,0,15.26-6.2,25.06-4.44C107.53,221,109.01,221.51,110.23,222.3z"/>
				<linearGradient id="SVGID_68_" gradientUnits="userSpaceOnUse" x1="94.6695" y1="224.0134" x2="76.4487" y2="330.3771">
					<stop  offset="0" style="stop-color:#000000"/>
					<stop  offset="0.6351" style="stop-color:#343434"/>
					<stop  offset="1" style="stop-color:#4D4D4D"/>
				</linearGradient>
				<path class="st79" d="M94.96,237.21l-13.98,71.86l-0.6,3.07h-2.7c0.75-10.75,4.18-29.17,7.26-38.04
					c2.23-6.42,1.18-14.1,2.84-23.88c1.66-9.78,6.4-21.61,6.4-21.61L94.96,237.21z"/>
				<linearGradient id="SVGID_69_" gradientUnits="userSpaceOnUse" x1="113.9758" y1="217.109" x2="94.5963" y2="330.2366">
					<stop  offset="0" style="stop-color:#000000"/>
					<stop  offset="0.6351" style="stop-color:#343434"/>
					<stop  offset="1" style="stop-color:#4D4D4D"/>
				</linearGradient>
				<path class="st80" d="M110.23,222.3c0,24.82-2.96,53.79-4.91,86.78c-0.06,1.02-0.12,2.04-0.18,3.07h-1.64
					c-0.96-10.98,1.03-31,2.53-48.51c0.84-9.83,0.4-21.54,0-28.89c-0.23-4.2-0.19-10.01-0.11-14.05
					C107.53,221,109.01,221.51,110.23,222.3z"/>
				<path class="st68" d="M89.8,172.07c0,0-4.38,4.11-6.75-0.44c-2.37-4.55-9.24-13.19-4.03-14.79c0,0-1.3-1.82,0.12-3.87
					c0,0-0.47,1.36,0.71,2.96c0,0-1.66-4.78,5.92-5.57c7.58-0.8,7.46-4.44,7.46-4.44s0.47,1.25,0.12,2.96c0,0,0.71-0.68,0.95-3.3
					c0,0,2.13,3.07,0.59,7.73c0,0,0.71-1.25,1.07-2.5c0,0,0.12,5.84-2.25,8.26l0.59,8.8L89.8,172.07z"/>
				<linearGradient id="SVGID_70_" gradientUnits="userSpaceOnUse" x1="85.3593" y1="167.8194" x2="96.8797" y2="167.8194">
					<stop  offset="0" style="stop-color:#F6B3B5"/>
					<stop  offset="0.9914" style="stop-color:#FAD1D3"/>
				</linearGradient>
				<path class="st81" d="M95.9,172.94c-0.03,0.05-0.07,0.1-0.11,0.15c-0.75,0.77-3.09-0.15-3.09-0.15l1.04,4.21l0.03,0.11
					l-1.4,0.27c-0.01,0-0.01,0-0.02,0l-0.61,0.12c0,0,0,0,0,0l-6.37,1.21l0.59-5c6.28-0.68,6.28-8.19,6.28-8.19
					c-2.13,0.68-3.32-4.89-1.66-4.78c1.66,0.11,2.61,4.09,2.61,4.09c0.14-1.38-0.04-2.91-0.22-3.96c-0.13-0.76-0.25-1.27-0.25-1.27
					c1.66-0.91,2.37-2.96,2.37-2.96c0.09,0.25,0.18,0.49,0.26,0.74C98.06,165.7,96.48,171.94,95.9,172.94z"/>
				<path class="st82" d="M92.7,172.94l1.04,4.21c-0.53,0.17-1.02,0.29-1.38,0.37c-0.01,0-0.01,0-0.02,0
					c-0.35,0.08-0.58,0.11-0.61,0.12c0,0,0,0,0,0l0.56-7.84c0.83,3.05,2.15,2.84,3.5,3.27C95.04,173.86,92.7,172.94,92.7,172.94z"/>
				<path class="st82" d="M95.33,157.53c-0.46,1.54-1.7,2.86-2.37,3.49c-0.13-0.76-0.25-1.27-0.25-1.27
					c1.66-0.91,2.37-2.96,2.37-2.96C95.16,157.04,95.25,157.28,95.33,157.53z"/>
				<linearGradient id="SVGID_71_" gradientUnits="userSpaceOnUse" x1="109.8462" y1="187.8626" x2="121.6539" y2="174.4343">
					<stop  offset="0" style="stop-color:#F6B3B5"/>
					<stop  offset="0.9914" style="stop-color:#FAD1D3"/>
				</linearGradient>
				<path class="st83" d="M109.05,185.22c0,0,4.97-4.78,5.45-6.14c0.47-1.36,1.66-3.87,3.32-4.21l-0.47,2.78c0,0,1.3-0.5,1.54-0.73
					c0.24-0.23,0.36-1.93,0.59-1.93c0.24,0,0.83,2.62,0.24,3.3c-0.59,0.68-1.89,1.9-3.31,2.2l-0.99,3.45l-2.21,4.81L109.05,185.22z"
					/>
				<path class="st73" d="M129.18,158.02c0,0,3.84,0.84,5.73,0.64c1.89-0.2,7.57-4.92,8.56-6.45c0.99-1.53-10.41,0.5-10.41,0.5
					L129.18,158.02z"/>
				
					<ellipse transform="matrix(0.3132 -0.9497 0.9497 0.3132 -23.2487 215.1349)" class="st73" cx="137.12" cy="123.64" rx="30.91" ry="27.78"/>
				<linearGradient id="SVGID_72_" gradientUnits="userSpaceOnUse" x1="83.701" y1="179.4707" x2="95.901" y2="179.4707">
					<stop  offset="0" style="stop-color:#E1E1E1"/>
					<stop  offset="1" style="stop-color:#FFFFFF"/>
				</linearGradient>
				<path class="st84" d="M95.9,179.42l-1.54-2.84c0,0-5.57-0.91-10.66,2.16v3.75L95.9,179.42z"/>
				<path class="st85" d="M141.51,92.93c-14.98-3.4-30.43,7.27-34.51,23.83c-3.17,12.87,1.45,25.51,10.69,32.1l0.51,2.39
					c0.39,1.81,1.58,3.36,3.25,4.27c0.6,0.33,1.21,0.62,1.83,0.89l-15.54,54.28l2.25,12.74l19.2-65.42
					c0.23,0.02,0.46,0.05,0.69,0.06c1.62,0.12,3.23-0.36,4.51-1.32l6.06-4.5l0,0c9.74-3.13,17.97-11.75,20.78-23.18
					C165.32,112.52,156.49,96.33,141.51,92.93z"/>
				<linearGradient id="SVGID_73_" gradientUnits="userSpaceOnUse" x1="121.2326" y1="192.2792" x2="124.8921" y2="167.7386">
					<stop  offset="0" style="stop-color:#F6B3B5"/>
					<stop  offset="0.9914" style="stop-color:#FAD1D3"/>
				</linearGradient>
				<path class="st86" d="M130.07,160.03c-0.27,2.28-0.31,4.26-0.45,4.57c-0.63,1.37-1.08,2.17-2.26,3.89
					c-0.32,0.47-0.57,1.27-0.76,2.28c-0.41,2.64-0.42,7.49-0.85,10.36c-0.34,2.26-0.77,5.15-1.12,7.57
					c-0.12,0.79-0.23,1.53-0.32,2.18c-0.23,1.57-0.39,2.62-0.39,2.62l-6.57-3.5c0.16-0.69,0.32-1.33,0.49-1.92
					c0.06-0.2,0.11-0.39,0.17-0.58c0.26-0.84,0.52-1.6,0.79-2.33c0.74-2,1.39-3.83,2.22-6.55c1.18-3.87,1.74-9.22,1.74-9.22
					c-1.27-2.72-1.05-7.42-1.03-8.29c0.02-1.09,0.05-2.01,0.47-1.71c0.95,0.68,1.01,2,1.01,2s-0.06,1.98,0.63,2.4
					c0.14,0.08,0.13,0.09,0.85,0.04c2.13-0.12,3.19-0.81,3.19-0.81l1.28-4.04C129.17,159.01,130.15,159.36,130.07,160.03z"/>
				<path class="st82" d="M124.63,188.69c-0.12,0.79-0.23,1.53-0.32,2.18l-6.48-2.8c0.06-0.2,0.11-0.39,0.17-0.58
					c0.26-0.84,0.52-1.6,0.79-2.33L124.63,188.69z"/>
				<linearGradient id="SVGID_74_" gradientUnits="userSpaceOnUse" x1="94.707" y1="234.0074" x2="100.4005" y2="175.4773">
					<stop  offset="0" style="stop-color:#E1E1E1"/>
					<stop  offset="1" style="stop-color:#FFFFFF"/>
				</linearGradient>
				<path class="st87" d="M124.21,192.39c0,0-1.08,4.25-2.18,7c-0.42,1.05-0.84,1.88-1.2,2.16c-1.3,1.02-12.26-5.97-12.26-5.97
					l0.17,2.67c0,0,0,0,0,0l1.3,20.94l0.19,3.12c0,0-12.08,7.39-29.37,3.53l0.16-2.53l0.54-8.73l0.11-1.82v-0.01l0.11-1.72
					c0-0.01,0-0.02,0-0.03c0-0.03,0-0.05,0-0.08c0,0-0.03-0.03-0.08-0.07c-0.65-0.57-4.95-4.38-5.82-7.52
					c-1.68-6.05-3.2-17.29-1.18-18.65c1.14-0.77,2.39-1.49,3.71-2.13c10.33-5.09,24.95-6.41,26.49-4.8c0.15,0.16,0.3,0.32,0.45,0.47
					c6.53,6.86,11.39,12.95,11.39,12.95l1.18-2.5L124.21,192.39z"/>
				<linearGradient id="SVGID_75_" gradientUnits="userSpaceOnUse" x1="101.8383" y1="209.5353" x2="121.3952" y2="183.8739">
					<stop  offset="0" style="stop-color:#BCCACE"/>
					<stop  offset="1" style="stop-color:#BCCACE;stop-opacity:0"/>
				</linearGradient>
				<path class="st88" d="M122.03,199.38c-0.42,1.05-0.84,1.88-1.2,2.16c-1.3,1.02-12.32-6.03-12.32-6.03s-0.71-4.09-1.66-9.55
					c2.01,5.35,2.44,7.36,5.57,8.53C116.91,196.17,117.95,201.05,122.03,199.38z"/>
				<linearGradient id="SVGID_76_" gradientUnits="userSpaceOnUse" x1="88.4246" y1="198.5611" x2="61.9296" y2="199.9805">
					<stop  offset="0" style="stop-color:#BCCACE"/>
					<stop  offset="1" style="stop-color:#BCCACE;stop-opacity:0"/>
				</linearGradient>
				<path class="st89" d="M81.82,208.45c-0.12-0.1-0.35-0.29-0.64-0.55c-0.55-1.7-1.26-4-1.33-4.76c-0.12-1.25,0-13.65,0-13.65
					C81.87,196.88,81.79,205.29,81.82,208.45z"/>
				<path class="st70" d="M110.04,219.18c-1.18,0.56-2.34,1.07-3.48,1.52c-11.2,4.45-20.16,3.82-25.54,2.59l0.54-8.73
					c0.06-0.56,0.1-1.17,0.11-1.82v-0.01c0.02-0.64,0.03-1.27,0.03-1.91c0.08-11.9-1.91-22.45-3.29-28.31
					c10.33-5.09,24.95-6.41,26.49-4.8c0.15,0.16,0.3,0.32,0.45,0.47c0.96,3.6,1.71,7.51,2.29,11.37c0.45,2.97,0.81,5.92,1.09,8.68
					c0,0,0,0,0,0L110.04,219.18z"/>
				<path class="st90" d="M157.72,126.03c-0.12,0.72-0.27,1.44-0.45,2.16c-2.39,9.71-9.37,17.06-17.64,19.76
					c-2.64,0.86-5.4,1.25-8.2,1.1c-1.21-0.07-2.42-0.23-3.62-0.51c-2.13-0.48-4.12-1.27-5.94-2.32
					c-9.06-5.21-13.81-16.77-10.91-28.55c3.48-14.14,16.68-23.26,29.47-20.35c2.43,0.55,4.66,1.5,6.67,2.76
					c5.68,3.58,9.54,9.71,10.67,16.78C158.25,119.79,158.25,122.89,157.72,126.03z"/>
				<path class="st73" d="M145.68,99.25c-0.61-0.2-1.22-0.37-1.86-0.51c-12.79-2.91-25.98,6.21-29.47,20.35
					c-2.98,12.08,2.09,23.92,11.59,28.93c-11.65-3.76-18.3-16.92-14.99-30.36c3.49-14.14,16.68-23.26,29.47-20.35
					C142.3,97.74,144.06,98.39,145.68,99.25z"/>
				<polygon class="st92" points="116.33,189.71 117.99,186.87 124.62,189.71 124.51,194.83 				"/>
				<linearGradient id="SVGID_77_" gradientUnits="userSpaceOnUse" x1="173.7611" y1="169.2836" x2="125.5918" y2="107.2574">
					<stop  offset="0" style="stop-color:#FFFFFF"/>
					<stop  offset="1" style="stop-color:#FFFFFF;stop-opacity:0"/>
				</linearGradient>
				<path class="st93" d="M139.63,147.94l18.09-21.92c-0.12,0.72-0.27,1.44-0.45,2.16C154.88,137.9,147.91,145.24,139.63,147.94z"/>
				<linearGradient id="SVGID_78_" gradientUnits="userSpaceOnUse" x1="172.3249" y1="170.784" x2="123.1581" y2="107.4734">
					<stop  offset="0" style="stop-color:#FFFFFF"/>
					<stop  offset="1" style="stop-color:#FFFFFF;stop-opacity:0"/>
				</linearGradient>
				<path class="st94" d="M157.78,116.85l-26.34,32.19c-1.21-0.07-2.42-0.23-3.62-0.51c-2.13-0.48-4.12-1.27-5.94-2.32l25.23-46.14
					C152.79,103.65,156.64,109.79,157.78,116.85z"/>
				<path class="st95" d="M106.56,220.7c0.79-12.97,0.3-32.68,0.3-32.68l0.79,1.54c0.45,2.97,0.81,5.92,1.09,8.68c0,0,0,0,0,0
					l1.3,20.94C108.86,219.74,107.7,220.25,106.56,220.7z"/>
			</g>
			<g>
				<path class="st68" d="M290.56,170.95c0,0-0.59-1.94,0.23-7.06c0.82-5.12,0.61-8.09-2.25-7.47c0,0,0.82-4.91-4.61-4.61
					c0,0,2.56,0.31,2.56,2.25c0,0-1.84-3.07-6.76-0.2c-4.91,2.87-7.78,2.05-7.78,2.05s0.82,0.72,2.25,1.02c0,0-2.15,0.51-4.5-0.31
					c0,0,2.66,4.09,6.35,4.2c0,0-1.54,0.41-3.38-0.41c0,0,2.76,2.1,6.29,1.46l7.83,6.32L290.56,170.95z"/>
				<linearGradient id="SVGID_79_" gradientUnits="userSpaceOnUse" x1="292.9147" y1="178.6618" x2="279.5507" y2="162.9736">
					<stop  offset="0" style="stop-color:#F6B3B5"/>
					<stop  offset="0.9914" style="stop-color:#FAD1D3"/>
				</linearGradient>
				<path class="st96" d="M292.94,173.4c-0.75,1.5-2.7,4.22-7.29,5.14l-0.45-3.67l-0.3-2.44c0,0-0.37,0.3-0.94,0.66
					c-0.84,0.53-2.1,1.18-3.26,1.18c-1.79,0-3.66-10.78-3.95-12.55c-0.03-0.16-0.04-0.25-0.04-0.25c3.94-0.36,5.48-1.69,5.48-1.69
					c0.1,0.64,0.28,1.22,0.51,1.75c1.16,2.64,3.58,3.78,3.58,3.78c-0.61-2.15,0.72-4.2,1.64-2.76c0.92,1.43-0.41,3.58-0.41,3.58
					c1.84,3.89,4.91,6.96,4.91,6.96C292.6,173.2,292.78,173.3,292.94,173.4z"/>
				<path class="st73" d="M303.38,295.01c0,0-17.99,0.46-18.83-0.31c-1.06-0.97,10.64-4.5,12.42-5.07c2.86,0.45,4.6,0.18,5.42-0.05
					C303.59,291.02,303.38,295.01,303.38,295.01z"/>
				<linearGradient id="SVGID_80_" gradientUnits="userSpaceOnUse" x1="246.1229" y1="346.789" x2="390.6739" y2="70.8826">
					<stop  offset="0" style="stop-color:#000000"/>
					<stop  offset="1" style="stop-color:#4D4D4D"/>
				</linearGradient>
				<path class="st97" d="M302.36,287.03v0.12c-0.88,0.13-1.83,0.17-2.7,0.16c-1.21-0.01-2.26-0.11-2.7-0.16l-0.02-0.23
					c0,0-2.87-27.43-3.99-33.98c-1.13-6.55-1.54-25.08-4.3-35.01l13.88-2.2l6.7-1.06c0,0-3.59,23.32-5.13,33.04
					C302.56,257.44,306.45,260.41,302.36,287.03z"/>
				<path class="st85" d="M302.4,289.59c-0.82,0.23-2.56,0.51-5.42,0.05c0.11-0.03,0.17-0.05,0.17-0.05l-0.19-2.43
					c0.76,0.08,3.31,0.31,5.41-0.01v2.34C302.36,289.48,302.37,289.52,302.4,289.59z"/>
				<linearGradient id="SVGID_81_" gradientUnits="userSpaceOnUse" x1="332.4395" y1="228.174" x2="157.2989" y2="364.0279">
					<stop  offset="0" style="stop-color:#000000"/>
					<stop  offset="0.4325" style="stop-color:#292929"/>
					<stop  offset="0.7893" style="stop-color:#434343"/>
					<stop  offset="1" style="stop-color:#4D4D4D"/>
				</linearGradient>
				<path class="st98" d="M302.36,287.03v0.12c-0.88,0.13-1.83,0.17-2.7,0.16c3.4-7.78,2.98-24.6,1.58-28.54
					c-1.64-4.61-2.56-6.86-0.72-14.53c1.84-7.68,1.33-26.61,1.33-26.61c0.18-0.71,0.41-1.34,0.68-1.89l6.7-1.06
					c0,0-3.59,23.32-5.13,33.04C302.56,257.44,306.45,260.41,302.36,287.03z"/>
				
					<rect x="265.97" y="169" transform="matrix(0.9951 -0.0986 0.0986 0.9951 -15.6085 27.1233)" class="st99" width="1.17" height="4.9"/>
				<path class="st68" d="M267.02,170.58l-1.2,0.12c-0.22,0.02-0.41-0.14-0.43-0.35l-0.93-9.4c-0.02-0.22,0.14-0.41,0.35-0.43
					l1.2-0.12c0.22-0.02,0.41,0.14,0.43,0.35l0.93,9.4C267.39,170.36,267.23,170.56,267.02,170.58z"/>
				<linearGradient id="SVGID_82_" gradientUnits="userSpaceOnUse" x1="279.9324" y1="203.925" x2="270.9263" y2="178.9403">
					<stop  offset="0" style="stop-color:#F6B3B5"/>
					<stop  offset="0.9914" style="stop-color:#FAD1D3"/>
				</linearGradient>
				<path class="st100" d="M283.08,196.53c-0.2,0.21-0.62,0.56-1.19,0.99c-2.08,1.58-6.15,4.23-8.63,5
					c-0.81,0.25-1.45,0.3-1.81,0.05c-1.86-1.31-3.59-13.7-4.29-19.29c0-0.03-0.01-0.07-0.01-0.1c-0.06-0.47-0.11-0.89-0.15-1.25
					c0-0.01,0-0.01,0-0.02c-0.1-0.84-0.15-1.34-0.15-1.34s-0.01,0-0.02,0.01c-0.16,0.04-1.1,0.24-2.13-0.42
					c-1.13-0.72,0.72-6.76,0.72-6.76s-1.64,0-1.64-0.61c0-0.61,4.61-2.35,4.91-1.43c0.31,0.92,0.82,8.6,2.76,13.31
					c0.57,1.39,1.09,2.66,1.52,3.77c0,0,0,0.01,0,0.01c0,0,0,0.01,0,0.01c0,0.01,0.01,0.01,0.01,0.02c1.03,2.62,1.64,4.28,1.64,4.28
					c0.55-0.18,1.1-0.44,1.64-0.74c3.11-1.75,5.92-5.11,5.92-5.11l0.52,5.57L283.08,196.53z"/>
				<path class="st82" d="M276.16,197.57c-0.98-2.93-2.99-8.57-3.17-9.09c1.03,2.62,1.64,4.28,1.64,4.28
					c0.55-0.18,1.1-0.44,1.64-0.74C276.43,195.07,276.16,197.57,276.16,197.57z"/>
				<path class="st82" d="M273.25,202.53c-0.81,0.25-1.45,0.3-1.81,0.05c-1.86-1.31-3.59-13.7-4.29-19.29c0-0.03-0.01-0.07-0.01-0.1
					c-0.05-0.4-0.1-0.82-0.15-1.25c0-0.01,0-0.01,0-0.02c-0.06-0.45-0.12-0.9-0.18-1.33c-0.24-1.78-0.48-3.31-0.49-3.38
					c1.94,3.89,2.15,9.31,2.97,12.59c0.82,3.28,2.15,3.79,2.66,9.11C272.14,200.79,272.66,201.89,273.25,202.53z"/>
				<path class="st82" d="M283.08,196.53c-0.2,0.21-0.62,0.56-1.19,0.99l-1.43-8.76l2.25,3.71L283.08,196.53z"/>
				<linearGradient id="SVGID_83_" gradientUnits="userSpaceOnUse" x1="292.8047" y1="182.6605" x2="282.3461" y2="191.9571">
					<stop  offset="0" style="stop-color:#E1E1E1"/>
					<stop  offset="1" style="stop-color:#FFFFFF"/>
				</linearGradient>
				<path class="st101" d="M288.64,194.7c0,0-2.35,3.68-4.71,4.71c0,0-1.33-4.81-3.48-10.65c0,0,5.32-5.12,6.04-9.72L288.64,194.7z"
					/>
				<path class="st70" d="M310.04,213.84c-6.96,7.88-24.98,7.98-24.98,7.98c1.54-5.73,2.87-20.16,1.84-28.56
					c-1.02-8.39-1.23-14.53-1.23-14.53l-0.02-0.19c4.59-0.92,6.55-3.64,7.29-5.14c6.48,3.9,10.5,10.71,13,17.64
					c1.62,4.5,2.6,9.06,3.19,12.9C310.02,209.69,310.04,213.84,310.04,213.84z"/>
				<path class="st102" d="M285.2,174.87l-0.3-2.44c0,0-0.37,0.3-0.94,0.66c0.9-0.74,1.81-1.82,2.52-3.37
					C286.49,169.72,286.65,172.55,285.2,174.87z"/>
				<path class="st102" d="M282.71,161.54c-2.25,0.5-4.75,0.32-5.95,0.19c-0.03-0.16-0.04-0.25-0.04-0.25
					c3.94-0.36,5.48-1.69,5.48-1.69C282.3,160.44,282.48,161.02,282.71,161.54z"/>
				<path class="st95" d="M309.14,203.94l-11.03,9.54l-3.07-2.76c0,0,5.53-13.31,5.02-15.25c-0.51-1.94-5.78-9.58-5.78-9.58
					c4.22,0.1,8.31,2.44,11.67,5.16C307.57,195.54,308.55,200.1,309.14,203.94z"/>
				<linearGradient id="SVGID_84_" gradientUnits="userSpaceOnUse" x1="308.7993" y1="189.7934" x2="296.0165" y2="211.0013">
					<stop  offset="0" style="stop-color:#F6B3B5"/>
					<stop  offset="0.9914" style="stop-color:#FAD1D3"/>
				</linearGradient>
				<path class="st103" d="M304.1,204.83c-4.5,6.04-6.04,8.6-6.04,8.6s0.03,0.03,0.09,0.08c0.2,0.19,0.67,0.65,1,1.16
					c0.37,0.57,0.57,1.18,0.03,1.52c-2.15,1.33-2.35,2.25-4.09,2.05c-0.92-0.11-1.39-0.32-1.67-0.71c0,0,0,0,0,0
					c-0.24-0.35-0.34-0.84-0.48-1.54c-0.2-1.02,0.82-2.35,2.15-5.22c1.33-2.87,3.79-7.47,5.63-12.28c0.93-2.43,1.68-4.02,2.19-5
					c0,0,0.01-0.01,0.02-0.03c0.01-0.01,0.01-0.02,0.02-0.03c0.04-0.09,0.09-0.17,0.13-0.24c0.01-0.03,0.03-0.05,0.04-0.07
					c0.13-0.24,0.24-0.44,0.33-0.58c0.02-0.03,0.03-0.05,0.05-0.07c0.01-0.02,0.02-0.03,0.03-0.04c0.01-0.01,0.01-0.02,0.02-0.03
					c0,0,0-0.01,0.01-0.01c0.01-0.01,0.02-0.02,0.02-0.04c0.02-0.02,0.03-0.05,0.04-0.06c0.05-0.08,0.08-0.11,0.08-0.11l-1.84-1.13
					c0,0,0,0,0,0l1.84-3.19l2.35-4.08c0,0,4.35,3.7,5.48,5.56c0.06,0.1,0.11,0.19,0.15,0.27
					C312.49,191.32,308.6,198.79,304.1,204.83z"/>
				<path class="st82" d="M306.45,189.48c-1.95,1.21-3.28,3.52-3.51,3.94c0.04-0.09,0.09-0.17,0.13-0.24
					c0.01-0.03,0.03-0.05,0.04-0.07c0.13-0.24,0.24-0.44,0.33-0.58c0.02-0.03,0.03-0.05,0.05-0.07c0.01-0.02,0.02-0.03,0.03-0.04
					c0.01-0.01,0.01-0.02,0.02-0.03c0,0,0-0.01,0.01-0.01c0.01-0.01,0.02-0.02,0.02-0.04c0.02-0.02,0.03-0.05,0.04-0.06
					c0.05-0.08,0.08-0.11,0.08-0.11l-1.84-1.13c0,0,0,0,0,0c0.02-0.1,0.84-3.24,1.84-3.19c0.17,0.01,0.34,0.11,0.51,0.32
					C305.43,189.68,306.45,189.48,306.45,189.48z"/>
				<linearGradient id="SVGID_85_" gradientUnits="userSpaceOnUse" x1="293.4254" y1="216.4731" x2="299.5184" y2="216.4731">
					<stop  offset="0" style="stop-color:#EF6F6F"/>
					<stop  offset="1" style="stop-color:#EF6F6F;stop-opacity:0"/>
				</linearGradient>
				<path class="st104" d="M299.19,216.19c-2.15,1.33-2.35,2.25-4.09,2.05c-0.92-0.11-1.39-0.32-1.67-0.71c0,0,0,0,0,0
					c0.69,0.62,3.1,0.43,4.12-0.93c0.42-0.56,1.01-1.25,1.61-1.93C299.53,215.24,299.73,215.86,299.19,216.19z"/>
				<path class="st82" d="M304.1,204.83c-4.5,6.04-6.04,8.6-6.04,8.6s0.03,0.03,0.09,0.08c-1.02,0.77-1.73,1.45-1.73,1.45
					c1.33-2.35,5.22-9.11,6.45-11.77c1.23-2.66,2.05-4.3,5.83-9.11c1.65-2.1,2.45-3.67,2.82-4.78c0.06,0.1,0.11,0.19,0.15,0.27
					C312.49,191.32,308.6,198.79,304.1,204.83z"/>
				<linearGradient id="SVGID_86_" gradientUnits="userSpaceOnUse" x1="295.2785" y1="166.4494" x2="300.7984" y2="189.9816">
					<stop  offset="0" style="stop-color:#E1E1E1"/>
					<stop  offset="1" style="stop-color:#FFFFFF"/>
				</linearGradient>
				<path class="st105" d="M306.76,183.34c0,0-9.31-7.27-13.1-5.94s-2.66,5.83,0,7.98c2.66,2.15,4.81,3.89,8.19,7.37
					C301.85,192.75,306.76,187.23,306.76,183.34z"/>
			</g>
			<g>
				<path class="st73" d="M202.39,353.71h-11.4c-0.49,0-0.27-3.52,0.16-6.56c1.46,1.99,2.56,1.49,3.44,0.47
					c0.41-0.48,1.22-1.03,1.86-1.4c0.24-0.14,0.53,0.07,0.48,0.34c-0.23,1.27,0,2.31,0.16,2.62c0.31,0.62,8.59,2.34,9.37,2.19
					C207.23,351.22,208.8,353.71,202.39,353.71z"/>
				<path class="st85" d="M196.6,346.29c-0.59,0.24-1.45,0.67-2.02,1.34c-0.88,1.02-1.98,1.84-3.44-0.16
					c0.12-0.84-0.05-1.98,0.16-2.65h5.15C196.46,344.81,196.51,345.47,196.6,346.29z"/>
				<path class="st73" d="M184.91,353.71h-11.4c-0.49,0-0.27-3.52,0.16-6.56c1.46,1.99,2.56,1.49,3.44,0.47
					c0.41-0.48,1.22-1.03,1.86-1.4c0.24-0.14,0.53,0.07,0.48,0.34c-0.23,1.27,0,2.31,0.16,2.62c0.31,0.62,8.59,2.34,9.37,2.19
					C189.75,351.22,191.31,353.71,184.91,353.71z"/>
				<path class="st85" d="M179.12,346.29c-0.59,0.24-1.45,0.67-2.02,1.34c-0.88,1.02-1.98,1.84-3.44-0.16
					c0.12-0.84,0.19-2.89,0.39-3.56l4.92,0.91C178.98,344.81,179.03,345.47,179.12,346.29z"/>
				<linearGradient id="SVGID_87_" gradientUnits="userSpaceOnUse" x1="186.712" y1="186.9371" x2="255.6886" y2="232.7215">
					<stop  offset="0" style="stop-color:#000000"/>
					<stop  offset="1" style="stop-color:#4D4D4D"/>
				</linearGradient>
				<path class="st106" d="M216.66,186.84l-1.62,16.66l-4.84,15.93l-0.47-4.22l-14.52-2.03l3.78-27.96c0.07-0.52,0.54-0.9,1.06-0.85
					l15.72,1.39C216.31,185.81,216.72,186.3,216.66,186.84z"/>
				<polygon class="st74" points="213.79,187.57 212.7,203 209.1,216.98 208.75,213.28 197.94,211.5 200.83,186.63 				"/>
				<path class="st107" d="M213.06,184.32l-0.1,0.96l-0.06,0.57c-0.04,0.35-0.35,0.6-0.7,0.57l-8.37-0.84
					c-0.35-0.03-0.6-0.35-0.57-0.69l0.05-0.47l0.11-1.06c0.04-0.35,0.35-0.6,0.7-0.57l8.37,0.84
					C212.84,183.66,213.1,183.97,213.06,184.32z"/>
				<path class="st85" d="M212.97,185.28l-0.06,0.57c-0.04,0.35-0.35,0.6-0.7,0.57l-8.37-0.84c-0.35-0.03-0.6-0.35-0.57-0.69
					l0.05-0.47C203.43,184.37,212.97,185.28,212.97,185.28z"/>
				<linearGradient id="SVGID_88_" gradientUnits="userSpaceOnUse" x1="194.4059" y1="198.5245" x2="201.2834" y2="198.5245">
					<stop  offset="0" style="stop-color:#F6B3B5"/>
					<stop  offset="0.9914" style="stop-color:#FAD1D3"/>
				</linearGradient>
				<path class="st108" d="M199.19,202.17c0,0,1.41-1.56,1.72-2.03c0.31-0.47,0.47-2.03,0.31-2.5c-0.16-0.47-1.33,1.73-1.91,2.11
					c-0.58,0.39-2.61,0.7-2.61,0.7l1.14-6.67c0,0-0.98,0.58-1.14,1.2c-0.16,0.62-1.56,3.75-2.03,5.15
					c-0.47,1.41-0.16,3.12-0.16,3.12L199.19,202.17z"/>
				<linearGradient id="SVGID_89_" gradientUnits="userSpaceOnUse" x1="180.2202" y1="190.6001" x2="195.2646" y2="190.6001">
					<stop  offset="0" style="stop-color:#F6B3B5"/>
					<stop  offset="0.9914" style="stop-color:#FAD1D3"/>
				</linearGradient>
				<path class="st109" d="M194.52,181.54c0.06,1.22,0.32,7.06-0.1,10.41c-0.3,2.43-0.61,4.01-1.04,4.86
					c-0.23,0.46-0.5,0.71-0.83,0.77c-0.94,0.16-2.65,0-2.65,0s-0.09,0.41-0.17,1.02c-0.17,1.23-0.35,3.24,0.17,4.28
					c0.78,1.56-9.68,0.94-9.68,0.94s0.47-6.25,0.78-9.37c0.31-3.12,4.68-15.15,4.68-15.15l5.26-1.2l3.64-0.83
					c0,0,1.57,1.22-0.07,4.04C194.51,181.31,194.52,181.39,194.52,181.54z"/>
				<path class="st82" d="M193.39,196.8c-0.23,0.46-0.5,0.71-0.83,0.77c-0.94,0.16-2.65,0-2.65,0s-0.09,0.41-0.17,1.02
					c-1.8-1.61-2.01-5.08-2.01-5.08s1.09,1.87,3.12,2.97C191.81,197,192.74,196.95,193.39,196.8z"/>
				<path class="st82" d="M189.59,183.51c0,0,5.31-0.78,6.4-3.9s-4.53-2.81-4.53-2.81l-2.5,6.25L189.59,183.51z"/>
				<linearGradient id="SVGID_90_" gradientUnits="userSpaceOnUse" x1="207.17" y1="221.0604" x2="216.1564" y2="198.6902">
					<stop  offset="0" style="stop-color:#F6B3B5"/>
					<stop  offset="0.9914" style="stop-color:#FAD1D3"/>
				</linearGradient>
				<path class="st110" d="M218.48,198.03c-0.16,1.41-2.65,5.31-2.5,8.28c0.16,2.97-0.79,12.18-0.79,12.18l-3.34-2.29l-2.94-2.02
					c0,0,2.86-7.4,2.71-8.96c-0.16-1.56-2.13-4.05-2.03-5c0-0.05,0.01-0.1,0.01-0.14c0.13-1.51,0.01-3,0.61-3.76
					c0.62-0.78,0.62,2.34,1.72,4.06c0.68,1.06,2.5,0,3.59-1.56c1.09-1.56,0.62-4.37,0.62-4.37l0.16-2.81
					C216.29,191.63,218.63,196.63,218.48,198.03z"/>
				<path class="st82" d="M212.54,207.09c-0.78,1.87-2.02,7.44-0.7,9.11l-2.94-2.02c0,0,2.86-7.4,2.71-8.96
					c-0.16-1.56-2.13-4.05-2.03-5c0-0.05,0.01-0.1,0.01-0.14c0.28,0.72,0.78,1.64,1.71,2.48
					C213.17,204.28,213.32,205.22,212.54,207.09z"/>
				<linearGradient id="SVGID_91_" gradientUnits="userSpaceOnUse" x1="230.0292" y1="266.689" x2="6.3051" y2="392.3464">
					<stop  offset="0" style="stop-color:#000000"/>
					<stop  offset="0.6351" style="stop-color:#343434"/>
					<stop  offset="1" style="stop-color:#4D4D4D"/>
				</linearGradient>
				<path class="st111" d="M187.13,272.46l-8.16,72.4h-5.1c0,0-4.99-23.55-2.8-35.56c2.19-12.01,1.93-24.62,1.15-32.89
					c-0.68-7.25-1.83-18.42,3.79-28.1C181.63,238.64,187.13,272.46,187.13,272.46z"/>
				<linearGradient id="SVGID_92_" gradientUnits="userSpaceOnUse" x1="257.9048" y1="266.7912" x2="96.2597" y2="335.9177">
					<stop  offset="0" style="stop-color:#000000"/>
					<stop  offset="0.2301" style="stop-color:#0C0C0C"/>
					<stop  offset="0.6476" style="stop-color:#2D2D2D"/>
					<stop  offset="1" style="stop-color:#4D4D4D"/>
				</linearGradient>
				<path class="st112" d="M202.39,251.44l-5.93,93.38h-5.15c0,0-5.47-22.49-4.06-33.73c1.41-11.24,0.47-17.8-1.56-31.54
					c-2.03-13.74-4.84-17.96-2.97-31.23C183.56,242.39,202.39,251.44,202.39,251.44z"/>
				<path class="st70" d="M215.51,216.46c-0.65,4.18-2.07,12.75-4.17,15.88c-0.41,0.61-0.84,1.01-1.29,1.14
					c-2.81,0.78-6.56-6.4-6.56-6.4c0.16,9.84-1.09,24.05-1.09,24.05c-2.38,1.35-4.91,2.33-7.45,3.01
					c-10.91,2.95-21.91,0.58-21.91,0.58l1.46-13.17c0,0,0-0.01,0-0.04l0.25-2.25c0,0-0.61,1.23-2.57,1.65
					c-0.65,0.14-1.45,0.19-2.43,0.07c-3.9-0.47-2.26-28.65-1.64-30.53c0.62-1.87,3.44-4.53,11.71-7.5
					c8.28-2.97,20.9-1.44,22.56-0.86c2.06,0.72,4.02,6.64,5.11,10.58c0.29,1.05,0.52,1.96,0.68,2.59l0,0.01
					c0.14,0.59,0.22,0.94,0.22,0.94l0.01-0.05l0.53-2.22c0.04,0,0.08,0.01,0.12,0.02C213.97,214.61,215.51,216.46,215.51,216.46z"/>
				<linearGradient id="SVGID_93_" gradientUnits="userSpaceOnUse" x1="207.504" y1="213.9724" x2="208.1802" y2="213.9724">
					<stop  offset="0" style="stop-color:#F4BA38"/>
					<stop  offset="1" style="stop-color:#FFD349"/>
				</linearGradient>
				<path class="st113" d="M207.5,212.68c0.29,1.05,0.52,1.96,0.68,2.59L207.5,212.68z"/>
				<linearGradient id="SVGID_94_" gradientUnits="userSpaceOnUse" x1="205.1976" y1="197.2226" x2="216.2887" y2="253.0608">
					<stop  offset="0" style="stop-color:#F4BA38"/>
					<stop  offset="1" style="stop-color:#FFD349"/>
				</linearGradient>
				<path class="st114" d="M210.2,223.02l-1.78-6.84l0.53-2.22c0.04,0,0.08,0.01,0.12,0.02L210.2,223.02z"/>
				<path class="st95" d="M211.34,232.34c-0.41,0.61-0.84,1.01-1.29,1.14c-2.81,0.78-6.56-6.4-6.56-6.4
					c0.16,9.84-1.09,24.05-1.09,24.05c-2.38,1.35-4.91,2.33-7.45,3.01c-0.52-6.59,1.19-17.06,1.83-23.31
					c0.92-9.08-2.71-17.11-2.81-17.33c0.11,0.15,3.17,4.4,5.93,5.93c2.81,1.56,3.44,2.34,6.87,8.9
					C208.36,231.36,210.02,232.26,211.34,232.34z"/>
				<linearGradient id="SVGID_95_" gradientUnits="userSpaceOnUse" x1="174.5005" y1="241.5271" x2="174.5052" y2="241.5271">
					<stop  offset="0" style="stop-color:#F4BA38"/>
					<stop  offset="1" style="stop-color:#FFD349"/>
				</linearGradient>
				<path class="st115" d="M174.5,241.55c0,0,0-0.01,0-0.04L174.5,241.55z"/>
				<path class="st95" d="M174.51,241.51l0.25-2.25c0,0-0.61,1.23-2.57,1.65c0.65-2.54,1.37-6.08,1.01-8.2
					c-0.62-3.59-0.94-6.09,0-10.62c0.92-4.43,0.04-7.97,0-8.12C176.99,221.87,174.63,240.51,174.51,241.51z"/>
				<path class="st68" d="M189.75,182.89c0,0,1.41,4.53-0.78,7.96c0,0-0.16-6.71-2.34-6.09c-2.19,0.62-1.35,5.11-0.47,5.47
					c0.78,0.31,1.56-0.47,1.56-0.47s-0.31,9.84-5.93,9.53c-5.62-0.31-6.86-12.37-7.02-15.8c-0.16-3.44,2.17-7.9,4.46-6.63
					c0,0-0.56-1.43,1.53-3.7c1.87-2.03,6.4-6.3,13.13-0.76c5.74,4.72,0.7,11.28,0.7,11.28s0.16-2.03-0.47-4.84
					C194.12,178.83,192.56,181.95,189.75,182.89z"/>
			</g>
			<g>
				<linearGradient id="SVGID_96_" gradientUnits="userSpaceOnUse" x1="256.1722" y1="350.4709" x2="260.0206" y2="336.7751">
					<stop  offset="0" style="stop-color:#F4A238"/>
					<stop  offset="1" style="stop-color:#FFC949"/>
				</linearGradient>
				<path class="st116" d="M254.15,347.39c0,0,0.39-13.8,5.14-14.82s5.43,8.6,0,18.11L254.15,347.39z"/>
				<path class="st117" d="M259.86,336.2c0,0-0.96,3.35-3.25,12.77"/>
				<linearGradient id="SVGID_97_" gradientUnits="userSpaceOnUse" x1="255.5021" y1="350.9312" x2="250.7482" y2="341.0838">
					<stop  offset="0" style="stop-color:#F4BA38"/>
					<stop  offset="1" style="stop-color:#FFD349"/>
				</linearGradient>
				<path class="st118" d="M252.5,350.68c0,0-7.24-7.02-4.53-10.41c2.72-3.4,9.51,2.49,11.32,10.41H252.5z"/>
				<path class="st117" d="M250.01,342.2c0,0,3.51,3.28,5.32,7.47"/>
				<linearGradient id="SVGID_98_" gradientUnits="userSpaceOnUse" x1="261.4279" y1="351.5769" x2="263.1257" y2="345.2384">
					<stop  offset="0" style="stop-color:#F4BA38"/>
					<stop  offset="1" style="stop-color:#FFD349"/>
				</linearGradient>
				<path class="st119" d="M258.64,350.68c0,0,1.85-7.98,5.58-7.3c3.74,0.68,0,7.24,0,7.24L258.64,350.68z"/>
				<line class="st117" x1="263.54" y1="344.97" x2="262.3" y2="349.61"/>
			</g>
			<g>
				<linearGradient id="SVGID_99_" gradientUnits="userSpaceOnUse" x1="133.4658" y1="298.1603" x2="136.5301" y2="287.2549">
					<stop  offset="0" style="stop-color:#F4A238"/>
					<stop  offset="1" style="stop-color:#FFC949"/>
				</linearGradient>
				<path class="st120" d="M131.86,295.71c0,0,0.31-10.99,4.1-11.8c3.79-0.81,4.33,6.85,0,14.42L131.86,295.71z"/>
				<path class="st117" d="M136.4,286.79c0,0-0.76,2.67-2.59,10.17"/>
				<linearGradient id="SVGID_100_" gradientUnits="userSpaceOnUse" x1="132.9322" y1="298.5269" x2="129.1469" y2="290.6858">
					<stop  offset="0" style="stop-color:#F4BA38"/>
					<stop  offset="1" style="stop-color:#FFD349"/>
				</linearGradient>
				<path class="st121" d="M130.55,298.33c0,0-5.77-5.59-3.61-8.29c2.16-2.7,7.57,1.98,9.01,8.29H130.55z"/>
				<path class="st117" d="M128.56,291.57c0,0,2.79,2.61,4.24,5.95"/>
				<linearGradient id="SVGID_101_" gradientUnits="userSpaceOnUse" x1="137.6507" y1="299.041" x2="139.0026" y2="293.9938">
					<stop  offset="0" style="stop-color:#F4BA38"/>
					<stop  offset="1" style="stop-color:#FFD349"/>
				</linearGradient>
				<path class="st122" d="M135.43,298.33c0,0,1.47-6.35,4.45-5.81c2.97,0.54,0,5.77,0,5.77L135.43,298.33z"/>
				<line class="st117" x1="139.33" y1="293.78" x2="138.34" y2="297.47"/>
			</g>
			<g>
				
					<linearGradient id="SVGID_102_" gradientUnits="userSpaceOnUse" x1="1617.432" y1="279.6491" x2="1620.4812" y2="268.7979" gradientTransform="matrix(-1 0 0 1 1890.7816 0)">
					<stop  offset="0" style="stop-color:#F4A238"/>
					<stop  offset="1" style="stop-color:#FFC949"/>
				</linearGradient>
				<path class="st123" d="M274.95,277.21c0,0-0.31-10.93-4.08-11.74c-3.77-0.81-4.3,6.82,0,14.35L274.95,277.21z"/>
				<path class="st117" d="M270.43,268.34c0,0,0.76,2.65,2.58,10.12"/>
				
					<linearGradient id="SVGID_103_" gradientUnits="userSpaceOnUse" x1="1616.9011" y1="280.0138" x2="1613.1346" y2="272.2117" gradientTransform="matrix(-1 0 0 1 1890.7816 0)">
					<stop  offset="0" style="stop-color:#F4BA38"/>
					<stop  offset="1" style="stop-color:#FFD349"/>
				</linearGradient>
				<path class="st124" d="M276.26,279.82c0,0,5.74-5.56,3.59-8.25c-2.15-2.69-7.53,1.97-8.97,8.25H276.26z"/>
				<path class="st117" d="M278.23,273.09c0,0-2.78,2.6-4.21,5.92"/>
				
					<linearGradient id="SVGID_104_" gradientUnits="userSpaceOnUse" x1="1621.5962" y1="280.5254" x2="1622.9414" y2="275.5033" gradientTransform="matrix(-1 0 0 1 1890.7816 0)">
					<stop  offset="0" style="stop-color:#F4BA38"/>
					<stop  offset="1" style="stop-color:#FFD349"/>
				</linearGradient>
				<path class="st125" d="M271.4,279.82c0,0-1.46-6.32-4.42-5.78c-2.96,0.54,0,5.74,0,5.74L271.4,279.82z"/>
				<line class="st117" x1="267.51" y1="275.29" x2="268.5" y2="278.97"/>
			</g>
		</g>
	</g>
	<rect x="205.85" y="158.94" class="st126" width="7.82" height="5.21"/>
</g>
</svg>
