<?xml version="1.0" encoding="utf-8"?>
<!-- Generator: Adobe Illustrator 23.0.3, SVG Export Plug-In . SVG Version: 6.00 Build 0)  -->
<svg version="1.1" id="Layer_1" xmlns="http://www.w3.org/2000/svg" xmlns:xlink="http://www.w3.org/1999/xlink" x="0px" y="0px"
	 viewBox="0 0 1349 524.9" style="enable-background:new 0 0 1349 524.9;" xml:space="preserve">
<style type="text/css">
	.st0{fill:#F1F2F2;}
	.st1{fill:none;stroke:#6D6E71;stroke-width:1.9678;stroke-miterlimit:10;}
	.st2{fill:#FF811A;}
	.st3{fill:#EDEDED;stroke:#6D6E71;stroke-miterlimit:10;}
	.st4{fill:#FF7E02;}
	.st5{fill:none;stroke:#FFFFFF;stroke-width:1.6466;stroke-linecap:round;stroke-linejoin:round;stroke-miterlimit:10;}
	.st6{fill:#FF8A33;}
	.st7{fill:#FFFFFF;}
	.st8{fill:#414042;}
	.st9{fill:#FFB1A5;}
	.st10{fill:none;stroke:#FFFFFF;stroke-width:1.1803;stroke-miterlimit:10;}
	.st11{clip-path:url(#SVGID_2_);}
	.st12{fill:#282828;}
	.st13{fill:none;stroke:#282828;stroke-width:1.2333;stroke-linecap:round;stroke-linejoin:round;stroke-miterlimit:10;}
	.st14{fill:#F3978E;}
	.st15{fill:#231F20;}
	.st16{fill:#E6E6E6;}
	.st17{fill:none;stroke:#282828;stroke-width:0.9928;stroke-linecap:round;stroke-linejoin:round;stroke-miterlimit:10;}
	.st18{fill:none;stroke:#282828;stroke-width:1.2316;stroke-linecap:round;stroke-linejoin:round;stroke-miterlimit:10;}
	.st19{fill:none;stroke:#C98BD2;stroke-width:1.3423;stroke-miterlimit:10;}
	.st20{fill:none;stroke:#282828;stroke-width:1.2298;stroke-linecap:round;stroke-linejoin:round;stroke-miterlimit:10;}
	.st21{fill:none;stroke:#282828;stroke-width:1.3968;stroke-linecap:round;stroke-linejoin:round;stroke-miterlimit:10;}
	.st22{fill:none;stroke:#282828;stroke-width:1.5317;stroke-linecap:round;stroke-linejoin:round;stroke-miterlimit:10;}
	.st23{fill:none;stroke:#FFFFFF;stroke-width:1.9514;stroke-miterlimit:10;}
	.st24{fill:#232323;}
</style>
<rect y="-0.1" class="st0" width="1349" height="525"/>
<line class="st1" x1="593.1" y1="169.8" x2="1163.7" y2="169.8"/>
<path class="st1" d="M1157.2,485.4H599.7c-3.6,0-6.5-2.9-6.5-6.5v-340c0-3.6,2.9-6.5,6.5-6.5h557.6c3.6,0,6.5,2.9,6.5,6.5v340
	C1163.7,482.5,1160.8,485.4,1157.2,485.4z"/>
<g>
	<path class="st2" d="M630.7,151.4c0,2.9-2.3,5.2-5.2,5.2c-2.9,0-5.2-2.3-5.2-5.2s2.3-5.2,5.2-5.2
		C628.4,146.2,630.7,148.6,630.7,151.4z"/>
	<path class="st2" d="M651,151.4c0,2.9-2.3,5.2-5.2,5.2c-2.9,0-5.2-2.3-5.2-5.2s2.3-5.2,5.2-5.2C648.7,146.2,651,148.6,651,151.4z"
		/>
	<path class="st2" d="M671.3,151.4c0,2.9-2.3,5.2-5.2,5.2c-2.9,0-5.2-2.3-5.2-5.2s2.3-5.2,5.2-5.2
		C669,146.2,671.3,148.6,671.3,151.4z"/>
</g>
<path class="st3" d="M1238.7,295.7h-135.8c-3.3,0-6-2.7-6-6V164c0-3.3,2.7-6,6-6h135.8c3.3,0,6,2.7,6,6v125.7
	C1244.7,293.1,1242,295.7,1238.7,295.7z"/>
<g>
	<g>
		<g>
			<g>
				<path class="st4" d="M1135.3,259.9h71.4c3.3,0,6-2.7,6-6v-58.8c0-3.3-2.7-6-6-6h-71.4c-3.3,0-6,2.7-6,6v58.8
					C1129.3,257.2,1132,259.9,1135.3,259.9z"/>
			</g>
		</g>
	</g>
	<g>
		<polygon class="st5" points="1190.1,236.3 1157.4,236.3 1151.5,236.3 1151.5,210.4 1190.1,210.4 1190.1,216.9 		"/>
		<polyline class="st5" points="1151.5,210.4 1170.8,225.6 1190.1,210.4 		"/>
	</g>
</g>
<path class="st3" d="M648.5,399.6H519c-3.2,0-5.7-2.6-5.7-5.7V280.8c0-3.2,2.6-5.7,5.7-5.7h129.5c3.2,0,5.7,2.6,5.7,5.7v113.1
	C654.2,397,651.7,399.6,648.5,399.6z"/>
<g>
	<path class="st6" d="M617.6,375.6h-68.2c-3.7,0-6.6-3-6.6-6.6v-66c0-3.7,3-6.6,6.6-6.6h68.2c3.7,0,6.6,3,6.6,6.6v66
		C624.2,372.6,621.2,375.6,617.6,375.6z"/>
	<g>
		<path class="st7" d="M567.6,320.4c-8.9,8.9-8.9,23.6,0,32.6c8.9,8.9,23.6,8.9,32.6,0c8.9-8.9,8.9-23.6,0-32.6
			C591.3,311.5,576.6,311.5,567.6,320.4z M600.2,323.7h-7.3c-0.7-2.3-1.7-4.6-2.9-6.9C594,318.1,597.6,320.5,600.2,323.7z
			 M575.5,335.4c0-3,0.4-6,1.1-8.9h14.7c0.7,3,1.1,6,1.1,8.9H575.5z M592.3,338.1c-0.2,3-0.7,6-1.6,8.9h-13.6c-0.8-3-1.4-6-1.6-8.9
			H592.3z M583.9,315.9c1.1,0,2.2,0.1,3.3,0.3c1.4,2.5,2.5,5,3.3,7.6h-13.2c0.8-2.5,1.9-5,3.3-7.6
			C581.7,316,582.8,315.9,583.9,315.9z M577.9,316.8c-1.2,2.3-2.1,4.6-2.9,6.9h-7.3C570.3,320.5,573.8,318.1,577.9,316.8z
			 M565.9,326.4h8.4c-0.7,3-1.1,6-1.2,8.9h-9.9C563.4,332.1,564.3,329.1,565.9,326.4z M565.9,347c-1.5-2.7-2.5-5.7-2.7-8.9h9.9
			c0.1,3,0.6,6,1.4,8.9H565.9z M567.7,349.7h7.6c0.8,2.3,1.7,4.7,2.8,7C574,355.5,570.3,353,567.7,349.7z M583.9,357.5
			c-0.9,0-1.8-0.1-2.7-0.2c-1.3-2.5-2.4-5.1-3.2-7.6h11.9c-0.9,2.5-2,5.1-3.2,7.6C585.8,357.5,584.9,357.5,583.9,357.5z
			 M589.7,356.7c1.1-2.3,2.1-4.7,2.8-7h7.6C597.5,353,593.9,355.5,589.7,356.7z M602,347h-8.7c0.8-3,1.3-6,1.4-8.9h9.9
			C604.5,341.3,603.5,344.3,602,347z M604.7,335.4h-9.9c-0.1-3-0.4-6-1.2-8.9h8.4C603.5,329.1,604.5,332.1,604.7,335.4z"/>
	</g>
</g>
<g>
	<path class="st8" d="M640.1,99.8H524.2c-2.4,0-4.3-1.9-4.3-4.3l0,0c0-2.4,1.9-4.3,4.3-4.3h115.9c2.4,0,4.3,1.9,4.3,4.3l0,0
		C644.4,97.8,642.5,99.8,640.1,99.8z"/>
	<path class="st6" d="M1242.6,382.8h-56.2c-2.4,0-4.3-1.9-4.3-4.3l0,0c0-2.4,1.9-4.3,4.3-4.3h56.2c2.4,0,4.3,1.9,4.3,4.3l0,0
		C1246.9,380.8,1245,382.8,1242.6,382.8z"/>
	<path class="st6" d="M1203.6,432.9h-7.7c-1.6,0-2.9-1.3-2.9-2.9v-7.3c0-1.6,1.3-2.9,2.9-2.9h7.7c1.6,0,2.9,1.3,2.9,2.9v7.3
		C1206.5,431.6,1205.2,432.9,1203.6,432.9z"/>
	<path class="st9" d="M552.2,463h-7.7c-1.6,0-2.9-1.3-2.9-2.9v-7.3c0-1.6,1.3-2.9,2.9-2.9h7.7c1.6,0,2.9,1.3,2.9,2.9v7.3
		C555.1,461.7,553.8,463,552.2,463z"/>
	<g>
		<g>
			<path class="st6" d="M1078.2,95.3H963c-1.7,0-3-1.3-3-3V63.5c0-1.7,1.3-3,3-3h115.2c1.7,0,3,1.3,3,3v28.8
				C1081.2,94,1079.9,95.3,1078.2,95.3z"/>
			<g>
				<line class="st10" x1="976.5" y1="72.9" x2="1057.8" y2="72.9"/>
				<line class="st10" x1="976.5" y1="81.2" x2="1009.6" y2="81.2"/>
			</g>
		</g>
		<polygon class="st6" points="973.2,91.4 973.2,104.9 990.2,91.4 		"/>
	</g>
	<g>
		<g>
			<g>
				<g>
					<g>
						<g>
							<path class="st4" d="M797.7,97.4h-57.5c-4.7,0-8.5-3.8-8.5-8.5V35.2c0-3.6,2.9-6.5,6.5-6.5h59.6c3.6,0,6.5,2.9,6.5,6.5v55.7
								C804.2,94.5,801.3,97.4,797.7,97.4z"/>
						</g>
					</g>
				</g>
			</g>
		</g>
		<g>
			<path class="st7" d="M784.8,68.2l-4.1-4.1c-0.7-0.8-1.7-1.3-2.7-1.3c-1,0-1.9,0.4-2.7,1.2l-2.4,2.4c-0.1-0.1-0.3-0.1-0.4-0.2
				c-0.3-0.1-0.5-0.2-0.7-0.4c-2.2-1.4-4.2-3.2-6.1-5.6c-0.9-1.1-1.5-2.1-1.9-3c0.6-0.5,1.1-1.1,1.6-1.6c0.2-0.2,0.4-0.4,0.7-0.7
				c0.8-0.8,1.3-1.8,1.3-2.7c0-1-0.4-1.9-1.3-2.7l-2.1-2.1c-0.2-0.2-0.4-0.4-0.7-0.7c-0.4-0.4-1-1-1.4-1.4c-0.7-0.7-1.7-1.2-2.7-1.2
				c-1,0-1.8,0.4-2.7,1.2l-2.6,2.6c-1,1-1.5,2.2-1.7,3.6c-0.1,2.2,0.4,4.3,1,5.6c1.2,3.4,3,6.4,5.7,9.7c3.3,3.9,7.2,7,11.8,9.2
				c1.7,0.8,4.1,1.8,6.6,2c0.1,0,0.3,0,0.5,0c1.8,0,3.2-0.7,4.4-1.9c0,0,0,0,0.1-0.1c0.4-0.4,0.8-0.9,1.3-1.3c0.3-0.3,0.7-0.7,1-1
				C786.4,71.9,786.4,69.7,784.8,68.2z M783.2,72c-0.3,0.3-0.6,0.6-0.9,0.9c-0.5,0.4-1,1-1.5,1.5c-0.7,0.7-1.5,1.1-2.7,1.1
				c-0.1,0-0.2,0-0.4,0c-2.2-0.1-4.3-1-5.7-1.8c-4.2-2.1-7.9-4.9-11-8.6c-2.5-3-4.2-5.9-5.4-8.9c-0.7-1.8-1-3.2-0.9-4.6
				c0.1-0.8,0.4-1.5,1-2.1l2.5-2.5c0.2-0.2,0.6-0.5,1-0.5c0.4,0,0.7,0.2,1,0.5c0.4,0.4,0.9,0.9,1.3,1.3c0.2,0.2,0.4,0.5,0.7,0.7
				l2.1,2.1c0.2,0.2,0.5,0.7,0.5,1c0,0.4-0.3,0.8-0.5,1c-0.2,0.2-0.4,0.4-0.7,0.7c-0.7,0.7-1.3,1.3-1.8,1.8c0,0,0,0-0.1,0.1
				c-0.7,0.7-0.6,1.4-0.4,1.8v0.1c0.5,1.3,1.3,2.5,2.4,4c2.1,2.6,4.3,4.6,6.7,6.1c0.3,0.2,0.7,0.4,1,0.5c0.3,0.1,0.5,0.2,0.7,0.4
				l0.1,0.1c0.7,0.4,1.5,0.2,2.1-0.4l2.6-2.6c0.2-0.2,0.6-0.5,1-0.5c0.4,0,0.7,0.3,1,0.5l4.1,4.1C783.8,70.5,783.8,71.2,783.2,72z"
				/>
		</g>
	</g>
</g>
<g>
	<defs>
		<rect id="SVGID_1_" x="645.7" y="104.3" width="524.8" height="380.1"/>
	</defs>
	<clipPath id="SVGID_2_">
		<use xlink:href="#SVGID_1_"  style="overflow:visible;"/>
	</clipPath>
	<g class="st11">
		<g>
			<g>
				<path class="st12" d="M1037.6,357l-41.7-5.6l0.3,4.1l-35.7,4.7c0,0-23,57.7-2.7,184.5h29l10.4-128.6h3.7l10.1,128.6h29
					C1060.4,418,1037.6,357,1037.6,357z"/>
				<line class="st13" x1="984" y1="416.3" x2="1014.3" y2="416.3"/>
			</g>
			<g>
				<g>
					<g>
						<g>
							<path class="st9" d="M1062,296.2c-3.6-5.7-23.6-5.5-24.7-5.6c-5.4-0.6,3.5,42.5,14.7,80.2c2.2,7.2,10.1,11,17.1,8
								c0.1,0,0.2-0.1,0.2-0.1c5.5-2.3,8.6-8.2,7.5-14C1071.5,336.3,1066.1,302.8,1062,296.2z"/>
						</g>
						<polygon class="st14" points="1066.7,311.8 1041.1,321.7 1038.7,309.6 1065.2,303 						"/>
						<path class="st14" d="M1071.6,336.1c0,0-12.1,16.3-11.5,15.5c0.6-0.7,9.5-26.3,9.5-26.3L1071.6,336.1z"/>
					</g>
					<g>
						<path class="st9" d="M1088.9,314.2l-34.7,45c-4.6,5.9-3.1,14.5,3.2,18.5l0,0c6.3,4.1,14.6,1.9,18.2-4.6l28.9-53.4
							L1088.9,314.2z"/>
						<g>
							<path class="st9" d="M1097.9,325.8c-7.5-2.4-11.7-10.5-9.2-18c2.4-7.5,10.5-11.7,18-9.2c7.5,2.4,11.7,10.5,9.2,18
								C1113.5,324.1,1105.4,328.2,1097.9,325.8z"/>
							<path class="st9" d="M1112.8,303.5c0,0,3.9-4.1-3-6.9c-7-2.9-15.6-2.2-21.1,11.1L1112.8,303.5z"/>
						</g>
						<g>
							<path class="st8" d="M1120,275.1l14.6,6.3c0.8,0.4,1.1,1.3,0.7,2.1l-19.1,35.8c-0.4,0.8-1.5,1.2-2.3,0.9l-14.6-6.3
								c-0.8-0.4-1.1-1.3-0.7-2.1l19.1-35.8C1118.1,275.1,1119.2,274.7,1120,275.1z"/>
							<path class="st15" d="M1118.6,274.4l14.6,6.3c0.8,0.4,1.1,1.3,0.7,2.1l-19.1,35.8c-0.4,0.8-1.5,1.2-2.3,0.9l-14.6-6.3
								c-0.8-0.4-1.1-1.3-0.7-2.1l19.1-35.8C1116.7,274.5,1117.8,274.1,1118.6,274.4z"/>
							<polygon class="st16" points="1116.9,278.1 1129.7,283.6 1114.1,312.7 1101.3,307.2 							"/>
							<polygon class="st7" points="1129.7,283.6 1101.3,307.2 1116.9,278.1 							"/>
						</g>
						<path class="st9" d="M1105.5,295.4c0,0,3.2,0.6,6.2,2.3c1.3,0.7,1.9,2.2,1.6,3.7l0,0c-0.3,1.3-1.4,2.3-2.8,2.5l-7.6,1
							c0,0-3.9,6.8-9.1,7.6l4.7-11.9L1105.5,295.4z"/>
					</g>
				</g>
				<g>
					<g>
						<path class="st2" d="M1008.9,239.5c-0.8,0,53.6,7.5,62.6,69.6l-28.3,4.3l-5.7,46.9h-78.9l-15.7-86.6c0,0,17.5-25,49.9-34.2
							H1008.9z"/>
						<line class="st13" x1="1043.3" y1="313.5" x2="1045.8" y2="286.4"/>
					</g>
				</g>
			</g>
			<g>
				<path class="st9" d="M1014.1,240.4v-21.6h-25.3v21.8c-1.3,0.4-3.4,1.2-6.8,2.8l19.7,11.7l20.2-11.7
					C1021.9,243.4,1018.7,241.5,1014.1,240.4z"/>
				<path class="st12" d="M988.6,221.5c0,0,4.5,12.1,16.7,11c11.1-1,9.4-17.7,9.4-17.7L988.6,221.5z"/>
				<g>
					<path class="st14" d="M977.6,205.4c-4,3.6-12.8-10-9-13.9c3.8-3.8,6.7,2.2,6.7,2.2l1.7,4.1l1.3,5.5l0.3,1.4L977.6,205.4z"/>
					<g>
						<g>
							<path class="st17" d="M970.4,196.4c0,0,3-1.3,5.7,3"/>
						</g>
					</g>
				</g>
				<g>
					<path class="st14" d="M1024.4,205c3.6,3.9,13.6-8.9,10.1-13.1c-3.5-4.1-6.9,1.6-6.9,1.6l-2,3.9l-1.8,5.4l-0.4,1.4L1024.4,205z"
						/>
					<g>
						<g>
							<path class="st17" d="M1032.3,196.6c0,0-2.9-1.6-5.9,2.5"/>
						</g>
					</g>
				</g>
				<g>
					<path class="st12" d="M970.6,178.6c0,18,13.8,26.6,30.7,26.6s30.7-8.6,30.7-26.6c0-18-13.8-30.3-30.7-30.3
						S970.6,160.5,970.6,178.6z"/>
				</g>
				<path class="st9" d="M974.8,179.8c0,11.1,1.6,20.6,3.1,27.4c1.5,6.6,5.8,11.3,11.9,15l1.1,0.7c6.4,4,14.8,4,21.3,0.2l0,0
					c6.6-3.8,11.2-8.9,12.6-16c2.6-13,2.9-27.3,2.9-27.3s2.5-28-26.1-27.4C973.1,152.9,974.8,179.8,974.8,179.8z"/>
				<g>
					<path class="st18" d="M999.5,195.8v3.9c0,0.2,0,0.4,0.1,0.7c0.3,0.8,1.2,1.2,2.1,1l1.8-0.5"/>
					<path class="st12" d="M995,180.8l-14.2,3.3c0,0,0.6-3.6,6.4-4.9C993.1,177.9,995,180.8,995,180.8z"/>
					<path class="st12" d="M1007.6,180.8l13.7,3.3c0,0-0.6-3.6-6.2-4.9C1009.5,177.9,1007.6,180.8,1007.6,180.8z"/>
					<ellipse class="st12" cx="989.6" cy="191.2" rx="2.4" ry="2.4"/>
					<path class="st12" d="M1014.7,191.2c0,1.3-1.1,2.4-2.4,2.4c-1.3,0-2.4-1.1-2.4-2.4c0-1.3,1.1-2.4,2.4-2.4
						C1013.6,188.8,1014.7,189.9,1014.7,191.2z"/>
					<path class="st7" d="M992,205.7h18.5C1010.4,205.7,1002.3,215.7,992,205.7z"/>
					<g>
						
							<ellipse transform="matrix(0.7071 -0.7071 0.7071 0.7071 153.7105 755.3105)" class="st19" cx="988.6" cy="192.1" rx="10.2" ry="10.2"/>
						
							<ellipse transform="matrix(0.7071 -0.7071 0.7071 0.7071 161.0317 772.9854)" class="st19" cx="1013.6" cy="192.1" rx="10.2" ry="10.2"/>
						<path class="st19" d="M998.8,192.1c0,0,2.4-2.2,4.6,0"/>
						<line class="st19" x1="978.4" y1="192.1" x2="975.2" y2="192"/>
						<line class="st19" x1="1023.8" y1="192.1" x2="1027" y2="192"/>
					</g>
				</g>
				<path class="st12" d="M1027.4,189.1c0,0-11.4-15.4-8.8-31.1c0,0,8.5,4.3,10.7,15.3C1031.5,184.3,1027.4,189.1,1027.4,189.1z"/>
				<path class="st12" d="M974.8,190.1c0,0,13.3-17.5,10.6-33.2c0,0-9.2,5.3-11.4,16.3C971.8,184.3,974.8,190.1,974.8,190.1z"/>
				<path class="st12" d="M1026.4,164.2c0,0-14.7,16-54.8,13.3c0,0,6.1-23.5,25.6-26.1C997.2,151.4,1019.7,148.7,1026.4,164.2z"/>
				
					<ellipse transform="matrix(0.1594 -0.9872 0.9872 0.1594 718.4252 1134.5215)" class="st12" cx="1025.4" cy="145.4" rx="19.1" ry="19.1"/>
			</g>
		</g>
		<g>
			<path class="st12" d="M791.7,357l-35.7-4.7l0.3-4.1l-41.7,5.6c0,0-22.8,61-2.5,187.8h29l10.1-128.6h3.7l10.4,128.6h29
				C814.6,414.7,791.7,357,791.7,357z"/>
			<g>
				<path class="st12" d="M788.8,183.5c-4.8-5.7-8.7-12.3-12-21.6c-3.5-10-15.1-5.9-15.1-5.9s-9.6-12.4-24.1-8.1
					c-14.5,4.3-19.5,14.6-19.8,26.9c-0.3,12.2-9.9,14.2-17.3,28.3c-13.1,25,9,46.1,49.1,40.2l0.1-0.4c4,1.2,8.8,1.7,14.7,1.4
					C812.6,241.5,807.9,206,788.8,183.5z"/>
				<g>
					<path class="st14" d="M773,202c4,3.6,12.8-10,9-13.9c-3.8-3.8-6.7,2.2-6.7,2.2l-1.7,4.1l-1.3,5.5l-0.3,1.4L773,202z"/>
					<g>
						<g>
							<path class="st17" d="M780.2,193c0,0-3-1.3-5.7,3"/>
						</g>
					</g>
				</g>
				<g>
					<path class="st14" d="M726.2,201.6c-3.6,3.9-13.6-8.9-10.1-13.1c3.5-4.1,6.9,1.6,6.9,1.6l2,3.9l1.8,5.4l0.4,1.4L726.2,201.6z"
						/>
					<g>
						<g>
							<path class="st17" d="M718.3,193.2c0,0,2.9-1.6,5.9,2.5"/>
						</g>
					</g>
				</g>
				<g>
					<path class="st12" d="M780,175.2c0,18-13.8,26.6-30.7,26.6s-30.7-8.6-30.7-26.6s13.8-30.3,30.7-30.3S780,157.1,780,175.2z"/>
				</g>
				<rect x="736.5" y="215.4" class="st9" width="25.3" height="32.7"/>
				<path class="st12" d="M732.8,213.4c0,0,7,14,15.7,16.2c2.3,0.6,4.8,0.4,7-0.4c3.3-1.2,7.4-6,8.1-11.4l0.3-3.1
					C763.9,214.8,748.5,223.2,732.8,213.4z"/>
				<path class="st9" d="M775.8,176.4c0,11.1-1.6,20.6-3.1,27.4c-1.5,6.6-5.8,11.3-11.9,15l-1.1,0.7c-6.4,4-14.8,4-21.3,0.2v0
					c-6.6-3.8-11.2-8.9-12.6-16c-2.6-13-2.9-27.3-2.9-27.3s-2.5-28,26.1-27.4C777.5,149.5,775.8,176.4,775.8,176.4z"/>
				<g>
					<path class="st20" d="M747.3,193.9v2.3c0,0.2,0,0.4,0.1,0.6c0.3,0.8,1.2,1.2,2.1,0.9l1.8-0.5"/>
					<path class="st12" d="M753.3,178.7l15.2,3.6c0,0-0.7-3.9-6.9-5.3C755.4,175.6,753.3,178.7,753.3,178.7z"/>
					<path class="st12" d="M745.3,178.7l-15.4,3.6c0,0,0.7-3.9,7-5.3C743.2,175.6,745.3,178.7,745.3,178.7z"/>
					<path class="st12" d="M739.8,188.2c0,1.3-1.1,2.4-2.4,2.4c-1.3,0-2.4-1.1-2.4-2.4c0-1.3,1.1-2.4,2.4-2.4
						C738.7,185.8,739.8,186.9,739.8,188.2z"/>
					<path class="st12" d="M762.5,188.2c0,1.3-1.1,2.4-2.4,2.4c-1.3,0-2.4-1.1-2.4-2.4c0-1.3,1.1-2.4,2.4-2.4
						C761.4,185.8,762.5,186.9,762.5,188.2z"/>
					<path class="st7" d="M738.2,201.8h21c0,0-1.5,5.8-11,5.8C741,207.5,738.2,201.8,738.2,201.8z"/>
				</g>
				<path class="st12" d="M723.2,185.7c0,0,11.4-15.4,8.8-31.1c0,0-8.5,4.3-10.7,15.3C719.1,180.9,723.2,185.7,723.2,185.7z"/>
				<path class="st12" d="M775.8,185.2c0,0-13.3-16-10.6-31.6c0,0,9.2,5.3,11.4,16.3C778.8,180.9,775.8,185.2,775.8,185.2z"/>
				<path class="st12" d="M724.2,160.8c0,0,13.1,17.6,53.2,14.9c0,0-4.6-25.1-24-27.6C753.4,148,730.9,145.4,724.2,160.8z"/>
			</g>
			<g>
				<g>
					<g>
						<path class="st9" d="M687.6,434.4c-0.6,0.9,33.4-147.7,23.3-145.5c-0.9,0.2-18.6,1.8-21.2,7.2
							c-7.6,15.5-13.1,137.2-13.1,137.2L687.6,434.4z"/>
						<path class="st9" d="M676.7,433.3c0,0-5.5,25.4,15.2,28.2c1.4,0.2,2.7-0.6,3.1-1.9l0.1-0.2c0.5-1.4-0.2-3-1.6-3.6
							c-3.4-1.5-8.6-5.3-6-14c0,0,3-0.4,4.6,5.2c0.4,1.4,2,2.2,3.4,1.5l0,0c0.9-0.5,1.4-1.4,1.3-2.5c-0.5-3.9-2.5-13.3-10-15.8
							L676.7,433.3z"/>
					</g>
					<path class="st14" d="M683.6,331.8c0,0,19.6,27.6,19.7,27c0.1-0.5,6.8-38.7,6.8-38.7l-23.7-10.3L683.6,331.8z"/>
				</g>
				<g>
					<path class="st2" d="M738,242.8c0.8,0-48.4,0.9-57.3,63l28.3,4.3l5.7,46.9h78.9l15.7-86.6c0,0-11.1-18.8-43.6-28L738,242.8z"/>
					<path class="st9" d="M714,250.3c0,0,7,9.2,35.4,9.2c28.2,0,35.4-9.7,35.4-9.7s-16.6-9.3-35.9-12.3
						C748.9,237.5,731.6,240.6,714,250.3z"/>
				</g>
			</g>
		</g>
		<g>
			<g>
				<g>
					<polygon class="st2" points="810.7,447.1 810.8,570.9 872.1,570.9 876.8,447.1 					"/>
					<polygon class="st2" points="943.8,447.1 943.7,570.9 882.4,570.9 877.7,447.1 					"/>
					<rect x="847" y="447.1" class="st2" width="63.4" height="43"/>
				</g>
				<line class="st21" x1="855.8" y1="490.1" x2="899.5" y2="490.1"/>
			</g>
			<g>
				<g>
					<g>
						<path class="st9" d="M982.5,339c3.8,42-0.2,72.6,0.9,149.8l-36.6,1.5l-5.4-144.6L982.5,339z"/>
						<path class="st14" d="M945.9,371.7c0,0,22.6-2.1,38.1-12.3l-0.4-9l-37.7,5.1L945.9,371.7z"/>
					</g>
					<path class="st4" d="M909.5,242.3c0,0,71.9,18.1,85,109.4c0,0-35.2,15.3-70.5,8.7l7.9-30.5L909.5,242.3z"/>
				</g>
				<g>
					<g>
						<path class="st9" d="M694.7,280.3l53.6,63.3l-16.4,46.2c0,0-40.7-56.6-59-100.4L694.7,280.3z"/>
						<g>
							<g>
								<g>
									<path class="st9" d="M696.4,282.6c0,0-18.8,10.6-23.6,6.8c-8.4-6.7-15.3-31.3-15.3-31.3s35.2-13.3,34.8-12.7
										C692.1,245.8,696.4,282.6,696.4,282.6z"/>
									<path class="st9" d="M696.4,282.6c-0.3-1.9,7-22.3,9.5-30c0.6-1.8-0.7-3.9-2.7-4.3l0,0c-1.3-0.3-3.4-0.1-4.4,1.8l-8.8,15.1
										L696.4,282.6z"/>
									<path class="st9" d="M695.8,260.5l-6.1-30.1c-0.4-2-2.4-3.4-4.4-3l0,0c-1.7,0.3-2.9,1.9-2.7,3.6l2.6,22.4L695.8,260.5z"/>
									<path class="st9" d="M683.7,249.4l-8.2-21.5c-0.7-1.9-2.8-2.9-4.7-2.3l0,0c-1.6,0.5-2.5,2.2-2.2,3.9l6.1,24.9L683.7,249.4z
										"/>
									<path class="st9" d="M674.9,255.7l-10.4-21.1c-1-2-3.3-2.9-5.3-2l0,0c-1.8,0.8-2.6,2.9-1.9,4.8l8.3,20L674.9,255.7z"/>
									<path class="st9" d="M657.6,258.1l-8.2-13c-0.7-1.5-0.1-3.2,1.4-3.9l0,0c1.4-0.6,3.2-0.1,4.1,1.2l10.7,14.9L657.6,258.1z"
										/>
								</g>
							</g>
							<path class="st22" d="M694.1,258.2c0,0-12.3-1.3-13.5,15.1"/>
						</g>
					</g>
					<g>
						<g>
							<path class="st9" d="M721,368.1c0,0,10.1,34.9,30.1,30.2c20.1-4.6,51.4-47.5,51.4-47.5l-7-73.2L739.1,347L721,368.1z"/>
							<path class="st14" d="M756.6,325.4c0,0,19,28.7,35.3,38.8l10.6-13.4l-41-31.7L756.6,325.4z"/>
						</g>
						<path class="st4" d="M839.8,240.7c0,0-55.9,12.6-85.6,77.5c0,0,18,27.1,46.8,39.1l19.3-23.6L839.8,240.7z"/>
					</g>
				</g>
				<g>
					<path class="st4" d="M839.8,240.5c-21.8,11.2-35.5,26-35.5,26l4.3,189.7h137.5l-0.4-188.8c0,0-17.3-17-36.1-25.2
						C893.6,235.3,855.4,232.6,839.8,240.5z"/>
					<path class="st21" d="M910.5,333h-11.2c-7.5,0-13.5-6-13.5-13.5v-24.7H924v24.7C924,327,918,333,910.5,333z"/>
					<line class="st21" x1="945.9" y1="361.1" x2="947.7" y2="299.1"/>
					<line class="st21" x1="806.4" y1="350.8" x2="803.5" y2="297"/>
				</g>
			</g>
			<g>
				<path class="st12" d="M841.5,171.2l-5.7-28.4c-0.3-2.3-1.2-5.9-0.1-9.2c1.8-5.5,8.5-16.2,19.9-11.3l2.5,11.2
					c0,0-11.8,2.4-16.6,17.9L841.5,171.2z"/>
				<path class="st12" d="M854.7,128.2c-0.2,3.7-3.5,20-15.1,26C839.6,154.2,829.5,132.5,854.7,128.2z"/>
				<path class="st9" d="M895.2,235.3L895.2,235.3v-48.1h-44.4v48.1l-13.2,6c0,0,3.1,20,35.9,20.4c32.8,0.4,36.1-19.4,36.1-19.4
					L895.2,235.3z"/>
				<path class="st12" d="M855.5,122.4c0,0,8.1-21.5,33.3-10.1c15.2,6.9,19.5,16.2,21.3,22.8c0.6,2.2,0.8,5.6,0.7,7.7l-6.1,28.5
					l-23.7-39.5l-23,1.8L855.5,122.4z"/>
				<g>
					<path class="st14" d="M904.6,171.2c0,0,3-4.8,9.2-2.4c6.2,2.3,3.4,17.3-5.9,19.2c0,0-3.3,0.7-5.9-1.5
						C902,186.5,904.3,175.4,904.6,171.2z"/>
					<g>
						<g>
							<path class="st21" d="M912.6,174.1c0,0-5.2-1.7-8.8,5.9"/>
						</g>
					</g>
				</g>
				<g>
					<path class="st14" d="M841.5,171.2c0,0-3-4.8-9.2-2.4c-6.2,2.3-3.4,17.3,5.9,19.2c0,0,3.3,0.7,5.9-1.5
						C844.1,186.5,841.8,175.4,841.5,171.2z"/>
					<g>
						<g>
							<path class="st21" d="M833.5,174.1c0,0,5.2-1.7,8.8,5.9"/>
						</g>
					</g>
				</g>
				<path class="st9" d="M905.2,157c0,9-0.9,27.9-6.4,39.2c-5.2,10.5-13.8,16.2-25.2,16.5c-11.3,0.3-19.7-4-26.5-17.7
					c-6.8-13.7-6.4-37.8-6.4-37.8s0-32.3,31.9-32.3C906.2,124.9,905.2,157,905.2,157z"/>
				<path class="st12" d="M851.2,201.8c0,0,3.7,18.9,20.1,21c18.9,2.5,23.9-20.5,23.9-20.5s-8.3,10.5-21.5,10.5
					C858.9,212.7,851.2,201.8,851.2,201.8z"/>
				<g>
					<path class="st21" d="M870.7,170.4v7.5c0,0.3,0.1,0.6,0.2,0.9c0.4,1.1,1.7,1.6,2.9,1.3l2.5-0.7"/>
					<path class="st12" d="M861.3,166.9c0,1.6-1.3,2.9-2.9,2.9c-1.6,0-2.9-1.3-2.9-2.9c0-1.6,1.3-2.9,2.9-2.9
						C860,163.9,861.3,165.2,861.3,166.9z"/>
					<path class="st12" d="M888.5,166.9c0,1.6-1.3,2.9-2.9,2.9c-1.6,0-2.9-1.3-2.9-2.9c0-1.6,1.3-2.9,2.9-2.9
						C887.2,163.9,888.5,165.2,888.5,166.9z"/>
					<path class="st12" d="M878.2,152.4l19.5,5c0,0-0.9-5.5-8.9-7.5C880.9,148,878.2,152.4,878.2,152.4z"/>
					<path class="st12" d="M866.1,152.4l-19.5,5c0,0,0.9-5.5,8.9-7.5C863.4,148,866.1,152.4,866.1,152.4z"/>
					<path class="st21" d="M862.2,185.4c0,0,2.9,2.2,10.5,2.2c6.9,0,11.2-2.2,11.2-2.2"/>
					<g>
						<circle class="st23" cx="857.6" cy="167.7" r="12.3"/>
						<circle class="st23" cx="887.9" cy="167.7" r="12.3"/>
						<path class="st23" d="M870,167.7c0,0,2.9-2.7,5.6,0"/>
						<line class="st23" x1="845.3" y1="167.7" x2="841.1" y2="167.6"/>
						<line class="st23" x1="900.3" y1="167.7" x2="904.9" y2="167.6"/>
					</g>
				</g>
				<path class="st12" d="M851.2,128.9c0,0,5.9,16.8,32.7,16.3c18.2-0.4,22.5,12.8,22.5,12.8s-3.2-29.4-4-29.1
					c-0.8,0.3-27.7-7.2-27.7-7.2L851.2,128.9z"/>
			</g>
		</g>
	</g>
</g>
<g>
	<path class="st24" d="M87.5,222.2c0-13.8,10.7-24,25.2-24c14.5,0,25.2,10.1,25.2,24c0,13.9-10.7,24-25.2,24
		C98.2,246.3,87.5,236,87.5,222.2z M129.1,222.2c0-9.5-7-16.4-16.4-16.4c-9.4,0-16.4,6.9-16.4,16.4s7,16.4,16.4,16.4
		C122.1,238.6,129.1,231.8,129.1,222.2z"/>
	<path class="st24" d="M146.6,225.2v-26.4h8.7v26c0,9.6,4.3,13.7,11.9,13.7s11.8-4.1,11.8-13.7v-26h8.5v26.4c0,13.6-7.7,21-20.4,21
		C154.3,246.3,146.6,238.8,146.6,225.2z"/>
	<path class="st24" d="M230.3,245.6l-9.5-13.7c-0.6,0.1-1.2,0.1-1.8,0.1h-10.5v13.6h-8.7v-46.7h19.2c12.3,0,19.9,6.3,19.9,16.6
		c0,7.1-3.6,12.3-9.9,14.7l10.7,15.3H230.3z M218.5,206.2h-10.1v18.6h10.1c7.6,0,11.5-3.5,11.5-9.3S226.1,206.2,218.5,206.2z"/>
	<path class="st24" d="M86.9,313.4l3-6.7c3.7,3,9.7,5.1,15.4,5.1c7.3,0,10.3-2.6,10.3-6.1c0-10.1-27.8-3.5-27.8-20.8
		c0-7.5,6-13.9,18.8-13.9c5.6,0,11.5,1.5,15.5,4.1l-2.7,6.7c-4.2-2.5-8.8-3.7-12.9-3.7c-7.2,0-10.1,2.8-10.1,6.3
		c0,9.9,27.7,3.5,27.7,20.6c0,7.5-6.1,13.9-18.9,13.9C98.1,319,90.8,316.7,86.9,313.4z"/>
	<path class="st24" d="M167.9,311v7.3h-35v-46.7h34.1v7.3h-25.4V291h22.6v7.1h-22.6V311H167.9z"/>
	<path class="st24" d="M208.1,318.3l-9.5-13.7c-0.6,0.1-1.2,0.1-1.8,0.1h-10.5v13.6h-8.7v-46.7h19.2c12.3,0,19.9,6.3,19.9,16.6
		c0,7.1-3.6,12.3-9.9,14.7l10.7,15.3H208.1z M196.4,278.9h-10.1v18.6h10.1c7.6,0,11.5-3.5,11.5-9.3S204,278.9,196.4,278.9z"/>
	<path class="st24" d="M269,271.6l-20.4,46.7h-8.5l-20.4-46.7h9.4l15.5,36l15.7-36H269z"/>
	<path class="st24" d="M274,271.6h8.7v46.7H274V271.6z"/>
	<path class="st24" d="M291.9,295c0-13.9,10.7-24,25-24c7.6,0,14.1,2.7,18.5,7.8l-5.6,5.3c-3.4-3.7-7.6-5.5-12.5-5.5
		c-9.7,0-16.7,6.8-16.7,16.4s7,16.4,16.7,16.4c4.9,0,9.1-1.8,12.5-5.5l5.6,5.3c-4.3,5.1-10.9,7.8-18.6,7.8
		C302.6,319,291.9,308.9,291.9,295z"/>
	<path class="st24" d="M378.8,311v7.3h-35v-46.7h34.1v7.3h-25.4V291H375v7.1h-22.6V311H378.8z"/>
	<path class="st24" d="M384.5,313.4l3-6.7c3.7,3,9.7,5.1,15.4,5.1c7.3,0,10.3-2.6,10.3-6.1c0-10.1-27.8-3.5-27.8-20.8
		c0-7.5,6-13.9,18.8-13.9c5.6,0,11.5,1.5,15.5,4.1l-2.7,6.7c-4.2-2.5-8.8-3.7-12.9-3.7c-7.2,0-10.1,2.8-10.1,6.3
		c0,9.9,27.7,3.5,27.7,20.6c0,7.5-6.1,13.9-18.9,13.9C395.7,319,388.4,316.7,384.5,313.4z"/>
</g>
</svg>
