<?xml version="1.0" encoding="utf-8"?>
<!-- Generator: Adobe Illustrator 23.0.3, SVG Export Plug-In . SVG Version: 6.00 Build 0)  -->
<svg version="1.1" id="Layer_1" xmlns="http://www.w3.org/2000/svg" xmlns:xlink="http://www.w3.org/1999/xlink" x="0px" y="0px"
	 viewBox="0 0 1349 510.42" style="enable-background:new 0 0 1349 510.42;" xml:space="preserve">
<style type="text/css">
	.st0{fill:#E6E7E8;}
	.st1{fill:#58595B;}
	.st2{fill:#FF8500;}
	.st3{fill:#201F21;}
	.st4{fill:#262626;}
	.st5{fill:#FF9D27;}
	.st6{fill:#FF8383;}
	.st7{fill:#D15E79;}
	.st8{fill:#86294E;}
	.st9{fill:#FFD2D4;}
	.st10{fill:#201028;}
	.st11{fill:#DD7800;}
	.st12{fill:#E0EEF7;}
	.st13{fill:#6D6D6D;}
	.st14{fill:#FFA748;}
	.st15{fill:#FFFFFF;}
	.st16{fill:none;stroke:#262626;stroke-miterlimit:10;}
	.st17{fill:#FF9A22;}
	.st18{fill:#E48A12;}
</style>
<g>
	<rect x="65.31" class="st0" width="1218.38" height="510.42"/>
	<g>
		<path class="st1" d="M708.23,301.58l1.27-0.96c0.81,1.18,1.79,1.77,2.92,1.77c0.58,0,1.04-0.14,1.39-0.42
			c0.35-0.28,0.53-0.66,0.53-1.13c0-0.38-0.12-0.68-0.36-0.9c-0.24-0.22-0.66-0.48-1.28-0.77l-1.23-0.57
			c-0.87-0.39-1.52-0.83-1.95-1.31c-0.43-0.48-0.65-1.07-0.65-1.78c0-0.89,0.34-1.62,1.01-2.18c0.68-0.56,1.51-0.84,2.5-0.84
			c0.78,0,1.48,0.18,2.12,0.54c0.64,0.36,1.13,0.84,1.48,1.45l-1.25,0.96c-0.61-0.9-1.39-1.35-2.35-1.35c-0.5,0-0.9,0.12-1.22,0.35
			s-0.47,0.57-0.47,1c0.01,0.2,0.04,0.37,0.08,0.5c0.04,0.13,0.14,0.26,0.31,0.41c0.17,0.14,0.29,0.23,0.35,0.26
			c0.07,0.03,0.29,0.15,0.66,0.34c0.07,0.03,0.12,0.06,0.15,0.08l1.25,0.57c0.93,0.43,1.61,0.88,2.04,1.37
			c0.42,0.48,0.63,1.09,0.63,1.81c0,0.96-0.35,1.73-1.06,2.33c-0.7,0.6-1.6,0.9-2.68,0.9c-0.9,0-1.72-0.21-2.45-0.64
			S708.67,302.33,708.23,301.58z"/>
		<path class="st1" d="M723.22,302.3v1.5c-0.59,0.12-1.08,0.19-1.47,0.19c-0.97,0-1.72-0.24-2.25-0.73c-0.54-0.48-0.8-1.21-0.8-2.16
			v-4.05h-1.35v-1.54h1.35v-2.18h1.79v2.18h2.47v1.54h-2.47v3.9c0,0.52,0.13,0.89,0.4,1.11s0.68,0.33,1.24,0.33
			C722.31,302.39,722.68,302.36,723.22,302.3z"/>
		<path class="st1" d="M731.6,298.79v5.02h-1.66v-0.93c-0.62,0.74-1.5,1.12-2.65,1.12c-0.87,0-1.57-0.22-2.09-0.66
			c-0.53-0.44-0.79-1.02-0.79-1.74s0.28-1.3,0.83-1.72s1.29-0.64,2.23-0.64h2.35v-0.54c0-0.57-0.16-1.01-0.46-1.32
			c-0.31-0.3-0.75-0.46-1.31-0.46c-0.84,0-1.61,0.41-2.3,1.23l-1.03-1.05c0.81-1.18,1.98-1.77,3.5-1.77c1.04,0,1.86,0.3,2.47,0.91
			C731.29,296.85,731.6,297.7,731.6,298.79z M729.81,300.66v-0.15h-2.13c-0.98,0-1.47,0.34-1.47,1.01c0,0.34,0.13,0.61,0.4,0.8
			c0.26,0.2,0.62,0.3,1.06,0.3c0.61,0,1.12-0.19,1.53-0.56S729.81,301.23,729.81,300.66z"/>
		<path class="st1" d="M738.81,295.51v1.57h-0.54c-0.72,0-1.31,0.2-1.76,0.61c-0.45,0.41-0.68,0.97-0.68,1.69v4.43h-1.77v-8.3h1.66
			v1.08c0.62-0.78,1.42-1.17,2.42-1.17C738.36,295.43,738.58,295.46,738.81,295.51z"/>
		<path class="st1" d="M745.33,302.3v1.5c-0.59,0.12-1.08,0.19-1.47,0.19c-0.97,0-1.72-0.24-2.25-0.73c-0.54-0.48-0.8-1.21-0.8-2.16
			v-4.05h-1.35v-1.54h1.35v-2.18h1.79v2.18h2.47v1.54h-2.47v3.9c0,0.52,0.13,0.89,0.4,1.11s0.68,0.33,1.24,0.33
			C744.43,302.39,744.79,302.36,745.33,302.3z"/>
		<path class="st1" d="M747.04,300.33v-4.82h1.76v4.95c0,0.56,0.17,1.02,0.52,1.37c0.35,0.35,0.8,0.52,1.35,0.52
			c0.53,0,0.97-0.17,1.31-0.52c0.34-0.35,0.51-0.81,0.51-1.37v-4.95h1.77v4.82c0,1.09-0.34,1.98-1.02,2.65s-1.54,1.01-2.58,1.01
			c-1.06,0-1.93-0.33-2.61-1S747.04,301.43,747.04,300.33z"/>
		<path class="st1" d="M765.37,299.65c0,1.24-0.39,2.27-1.16,3.1c-0.77,0.83-1.74,1.24-2.91,1.24c-1.15,0-2.07-0.4-2.77-1.2v4.05
			h-1.77v-11.34h1.66v1.17c0.63-0.9,1.59-1.35,2.89-1.35c1.17,0,2.14,0.41,2.91,1.24C764.98,297.39,765.37,298.42,765.37,299.65z
			 M762.82,301.61c0.48-0.51,0.73-1.15,0.73-1.94c0-0.79-0.24-1.44-0.73-1.95c-0.48-0.51-1.09-0.77-1.81-0.77
			c-0.7,0-1.29,0.24-1.77,0.71c-0.48,0.47-0.73,1.14-0.73,1.99c0,0.87,0.24,1.54,0.73,2.01c0.48,0.47,1.08,0.71,1.77,0.71
			C761.73,302.37,762.33,302.12,762.82,301.61z"/>
		<path class="st1" d="M766.86,298.23c-0.03-1.59,0.54-2.95,1.71-4.09c1.17-1.14,2.56-1.7,4.16-1.67c1.01,0,1.94,0.23,2.79,0.69
			s1.51,1.09,1.99,1.88l-1.35,1c-0.82-1.28-1.96-1.93-3.41-1.93c-1.15,0-2.11,0.39-2.87,1.17c-0.77,0.78-1.15,1.77-1.15,2.95
			s0.38,2.17,1.15,2.95c0.77,0.78,1.72,1.17,2.87,1.17c1.45,0,2.59-0.64,3.41-1.93l1.35,1c-0.48,0.8-1.15,1.43-1.99,1.88
			s-1.77,0.68-2.8,0.68c-1.6,0.02-2.98-0.53-4.16-1.67C767.39,301.18,766.82,299.82,766.86,298.23z"/>
		<path class="st1" d="M786.98,303.81l-0.79-1.86h-5.02l-0.79,1.86h-1.91l4.92-11.34h0.61l4.92,11.34H786.98z M785.54,300.41
			l-1.86-4.61l-1.88,4.61H785.54z"/>
		<path class="st1" d="M801.93,300.24h-6.18c0.11,0.68,0.41,1.21,0.9,1.6c0.49,0.39,1.09,0.58,1.8,0.58c0.88,0,1.68-0.33,2.42-0.98
			l0.84,1.22c-0.94,0.89-2.04,1.33-3.31,1.33c-1.26,0-2.32-0.41-3.18-1.24c-0.86-0.83-1.28-1.86-1.28-3.08
			c-0.02-1.19,0.39-2.22,1.25-3.08c0.86-0.86,1.87-1.28,3.04-1.26c1.09,0,2,0.36,2.74,1.09c0.73,0.73,1.1,1.63,1.1,2.71
			C802.07,299.45,802.02,299.83,801.93,300.24z M795.78,298.86h4.51c-0.01-0.62-0.22-1.11-0.63-1.48c-0.41-0.37-0.91-0.55-1.5-0.55
			c-0.59,0-1.1,0.18-1.53,0.55C796.2,297.74,795.92,298.24,795.78,298.86z"/>
		<path class="st1" d="M811.07,303.81h-2.03l-2.08-3.04l-2.06,3.04h-2.03l3.08-4.31l-2.86-3.99h2.03l1.86,2.74l1.84-2.74h2.03
			l-2.87,4L811.07,303.81z"/>
		<path class="st1" d="M817.54,302.3v1.5c-0.59,0.12-1.08,0.19-1.47,0.19c-0.97,0-1.72-0.24-2.25-0.73c-0.54-0.48-0.8-1.21-0.8-2.16
			v-4.05h-1.35v-1.54h1.35v-2.18h1.79v2.18h2.47v1.54h-2.47v3.9c0,0.52,0.13,0.89,0.4,1.11s0.68,0.33,1.24,0.33
			C816.63,302.39,817,302.36,817.54,302.3z"/>
		<path class="st1" d="M826.63,300.24h-6.18c0.11,0.68,0.41,1.21,0.9,1.6c0.49,0.39,1.09,0.58,1.8,0.58c0.88,0,1.68-0.33,2.42-0.98
			l0.84,1.22c-0.94,0.89-2.04,1.33-3.31,1.33c-1.26,0-2.32-0.41-3.18-1.24c-0.86-0.83-1.28-1.86-1.28-3.08
			c-0.02-1.19,0.39-2.22,1.25-3.08c0.86-0.86,1.87-1.28,3.04-1.26c1.09,0,2,0.36,2.74,1.09c0.73,0.73,1.1,1.63,1.1,2.71
			C826.77,299.45,826.72,299.83,826.63,300.24z M820.48,298.86h4.51c-0.01-0.62-0.22-1.11-0.63-1.48c-0.41-0.37-0.91-0.55-1.5-0.55
			c-0.59,0-1.1,0.18-1.53,0.55C820.9,297.74,820.62,298.24,820.48,298.86z"/>
		<path class="st1" d="M836.04,298.62v5.19h-1.77v-4.95c0-0.57-0.17-1.04-0.5-1.39c-0.33-0.36-0.77-0.53-1.31-0.53
			c-0.55,0-1,0.18-1.36,0.54c-0.35,0.36-0.53,0.82-0.53,1.39v4.95h-1.77v-8.3h1.66v0.81c0.63-0.67,1.46-1,2.48-1
			c0.96,0,1.71,0.3,2.27,0.9C835.76,296.82,836.04,297.62,836.04,298.62z"/>
		<path class="st1" d="M844.81,291.14h1.79v12.67h-1.66v-1.18c-0.64,0.91-1.61,1.37-2.91,1.37c-1.16,0-2.13-0.41-2.9-1.24
			c-0.77-0.83-1.16-1.86-1.16-3.08c-0.02-1.22,0.36-2.25,1.15-3.1s1.76-1.26,2.91-1.24c1.19,0,2.12,0.4,2.77,1.2V291.14z
			 M844.12,301.66c0.48-0.47,0.73-1.14,0.73-1.99c0-0.86-0.25-1.52-0.74-2c-0.49-0.48-1.08-0.72-1.77-0.72
			c-0.72,0-1.33,0.25-1.82,0.76c-0.49,0.51-0.73,1.15-0.73,1.94c0,0.79,0.24,1.44,0.73,1.95c0.48,0.51,1.09,0.77,1.82,0.77
			C843.04,302.37,843.63,302.13,844.12,301.66z"/>
		<path class="st1" d="M848.39,302.39l1.01-1.12c0.75,0.79,1.53,1.18,2.33,1.18c0.39,0,0.71-0.08,0.96-0.25
			c0.25-0.16,0.37-0.39,0.37-0.68c0-0.22-0.08-0.41-0.25-0.55c-0.17-0.14-0.47-0.3-0.91-0.48l-0.85-0.35
			c-0.75-0.32-1.3-0.66-1.65-1.02c-0.34-0.37-0.52-0.83-0.52-1.39c0-0.73,0.27-1.32,0.82-1.75s1.25-0.65,2.1-0.65
			c1.19,0,2.15,0.43,2.87,1.28l-0.96,1.1c-0.54-0.56-1.19-0.84-1.94-0.84c-0.75,0-1.13,0.26-1.13,0.79c0,0.2,0.08,0.37,0.24,0.51
			c0.16,0.14,0.45,0.3,0.86,0.46l0.79,0.32c0.8,0.34,1.38,0.7,1.73,1.07c0.36,0.38,0.53,0.85,0.53,1.43c0,0.8-0.29,1.42-0.88,1.88
			c-0.59,0.44-1.32,0.66-2.2,0.66C850.33,303.99,849.21,303.46,848.39,302.39z"/>
		<path class="st1" d="M861.06,299.65c-0.02-1.18,0.41-2.21,1.28-3.07c0.88-0.86,1.92-1.28,3.11-1.26c1.55,0,2.72,0.64,3.5,1.93
			l-1.25,0.98c-0.59-0.84-1.33-1.27-2.23-1.27c-0.74,0-1.36,0.26-1.86,0.78c-0.5,0.52-0.74,1.16-0.74,1.91
			c0,0.77,0.25,1.41,0.74,1.93c0.5,0.52,1.12,0.78,1.86,0.78c0.88,0,1.62-0.42,2.23-1.25l1.25,0.96c-0.37,0.61-0.86,1.08-1.47,1.42
			s-1.28,0.51-2.03,0.51c-1.23,0-2.27-0.42-3.12-1.27C861.49,301.88,861.06,300.86,861.06,299.65z"/>
		<path class="st1" d="M870.24,299.65c-0.02-1.18,0.4-2.21,1.28-3.07c0.87-0.86,1.91-1.28,3.1-1.26c1.21-0.02,2.25,0.4,3.13,1.27
			s1.31,1.89,1.28,3.06c0.02,1.18-0.41,2.21-1.28,3.08s-1.92,1.29-3.13,1.27c-1.19,0.02-2.23-0.4-3.1-1.28
			C870.64,301.84,870.21,300.82,870.24,299.65z M877.2,299.67c0-0.77-0.25-1.41-0.74-1.93c-0.5-0.52-1.1-0.79-1.82-0.79
			c-0.73,0-1.35,0.26-1.84,0.79c-0.5,0.52-0.74,1.17-0.74,1.93c0,0.77,0.25,1.41,0.73,1.92c0.49,0.51,1.1,0.77,1.83,0.77
			s1.35-0.26,1.84-0.78C876.95,301.06,877.2,300.42,877.2,299.67z"/>
		<path class="st1" d="M893.5,298.62v5.19h-1.79v-4.93c0-0.58-0.15-1.05-0.46-1.4c-0.31-0.35-0.73-0.52-1.26-0.52
			c-0.54,0-0.98,0.17-1.32,0.52s-0.51,0.79-0.51,1.33v5.02h-1.77v-4.93c0-0.57-0.16-1.04-0.47-1.39s-0.74-0.53-1.27-0.53
			c-0.54,0-0.98,0.18-1.32,0.53s-0.51,0.82-0.51,1.39v4.93h-1.77v-8.3h1.66v0.78c0.62-0.64,1.42-0.96,2.4-0.96
			c1.15,0,1.99,0.43,2.52,1.3c0.66-0.87,1.6-1.3,2.8-1.3c0.95,0,1.69,0.3,2.25,0.9C893.22,296.83,893.5,297.63,893.5,298.62z"/>
		<path class="st1" d="M904.58,299.65c0,1.24-0.39,2.27-1.16,3.1c-0.77,0.83-1.74,1.24-2.91,1.24c-1.15,0-2.07-0.4-2.77-1.2v4.05
			h-1.77v-11.34h1.66v1.17c0.63-0.9,1.59-1.35,2.89-1.35c1.17,0,2.14,0.41,2.91,1.24C904.2,297.39,904.58,298.42,904.58,299.65z
			 M902.03,301.61c0.48-0.51,0.73-1.15,0.73-1.94c0-0.79-0.24-1.44-0.73-1.95c-0.48-0.51-1.09-0.77-1.81-0.77
			c-0.7,0-1.29,0.24-1.77,0.71c-0.48,0.47-0.73,1.14-0.73,1.99c0,0.87,0.24,1.54,0.73,2.01c0.48,0.47,1.08,0.71,1.77,0.71
			C900.95,302.37,901.55,302.12,902.03,301.61z"/>
		<path class="st1" d="M911.37,295.51v1.57h-0.54c-0.72,0-1.31,0.2-1.76,0.61c-0.45,0.41-0.68,0.97-0.68,1.69v4.43h-1.77v-8.3h1.66
			v1.08c0.62-0.78,1.42-1.17,2.42-1.17C910.92,295.43,911.15,295.46,911.37,295.51z"/>
		<path class="st1" d="M920.28,300.24h-6.18c0.11,0.68,0.41,1.21,0.9,1.6c0.49,0.39,1.09,0.58,1.8,0.58c0.88,0,1.68-0.33,2.42-0.98
			l0.84,1.22c-0.94,0.89-2.04,1.33-3.31,1.33c-1.26,0-2.32-0.41-3.18-1.24c-0.86-0.83-1.28-1.86-1.28-3.08
			c-0.02-1.19,0.39-2.22,1.25-3.08c0.86-0.86,1.87-1.28,3.04-1.26c1.09,0,2,0.36,2.74,1.09c0.73,0.73,1.1,1.63,1.1,2.71
			C920.41,299.45,920.37,299.83,920.28,300.24z M914.13,298.86h4.51c-0.01-0.62-0.22-1.11-0.63-1.48c-0.41-0.37-0.91-0.55-1.5-0.55
			c-0.59,0-1.1,0.18-1.53,0.55C914.55,297.74,914.26,298.24,914.13,298.86z"/>
		<path class="st1" d="M929.69,298.62v5.19h-1.77v-4.93c0-0.57-0.16-1.04-0.49-1.39c-0.33-0.35-0.77-0.53-1.32-0.53
			s-1,0.18-1.36,0.54c-0.35,0.36-0.53,0.82-0.53,1.38v4.93h-1.77v-12.67h1.77v5.2c0.58-0.68,1.37-1.01,2.4-1.01
			c0.93,0,1.68,0.3,2.24,0.9S929.69,297.63,929.69,298.62z"/>
		<path class="st1" d="M939.62,300.24h-6.18c0.11,0.68,0.41,1.21,0.9,1.6c0.49,0.39,1.09,0.58,1.8,0.58c0.88,0,1.68-0.33,2.42-0.98
			l0.84,1.22c-0.94,0.89-2.04,1.33-3.31,1.33c-1.26,0-2.32-0.41-3.18-1.24c-0.86-0.83-1.28-1.86-1.28-3.08
			c-0.02-1.19,0.39-2.22,1.25-3.08c0.86-0.86,1.87-1.28,3.04-1.26c1.09,0,2,0.36,2.74,1.09c0.73,0.73,1.1,1.63,1.1,2.71
			C939.76,299.45,939.71,299.83,939.62,300.24z M933.47,298.86h4.51c-0.01-0.62-0.22-1.11-0.63-1.48c-0.41-0.37-0.91-0.55-1.5-0.55
			c-0.59,0-1.1,0.18-1.53,0.55C933.89,297.74,933.61,298.24,933.47,298.86z"/>
		<path class="st1" d="M949.03,298.62v5.19h-1.77v-4.95c0-0.57-0.17-1.04-0.5-1.39c-0.33-0.36-0.77-0.53-1.31-0.53
			c-0.55,0-1,0.18-1.36,0.54c-0.35,0.36-0.53,0.82-0.53,1.39v4.95h-1.77v-8.3h1.66v0.81c0.63-0.67,1.46-1,2.48-1
			c0.96,0,1.71,0.3,2.27,0.9C948.75,296.82,949.03,297.62,949.03,298.62z"/>
		<path class="st1" d="M950.72,302.39l1.01-1.12c0.75,0.79,1.53,1.18,2.33,1.18c0.39,0,0.71-0.08,0.96-0.25
			c0.25-0.16,0.37-0.39,0.37-0.68c0-0.22-0.08-0.41-0.25-0.55c-0.17-0.14-0.47-0.3-0.91-0.48l-0.85-0.35
			c-0.75-0.32-1.3-0.66-1.65-1.02c-0.34-0.37-0.52-0.83-0.52-1.39c0-0.73,0.27-1.32,0.82-1.75s1.25-0.65,2.1-0.65
			c1.19,0,2.15,0.43,2.87,1.28l-0.96,1.1c-0.54-0.56-1.19-0.84-1.94-0.84c-0.75,0-1.13,0.26-1.13,0.79c0,0.2,0.08,0.37,0.24,0.51
			c0.16,0.14,0.45,0.3,0.86,0.46l0.79,0.32c0.8,0.34,1.38,0.7,1.73,1.07c0.36,0.38,0.53,0.85,0.53,1.43c0,0.8-0.29,1.42-0.88,1.88
			c-0.59,0.44-1.32,0.66-2.2,0.66C952.66,303.99,951.54,303.46,950.72,302.39z"/>
		<path class="st1" d="M959.22,293.25c-0.24-0.22-0.35-0.5-0.35-0.83c0-0.33,0.12-0.6,0.35-0.84c0.24-0.23,0.52-0.35,0.86-0.35
			c0.33,0,0.61,0.12,0.84,0.35c0.24,0.23,0.35,0.51,0.35,0.84c0,0.33-0.12,0.6-0.35,0.83c-0.24,0.23-0.52,0.34-0.84,0.34
			C959.74,293.59,959.46,293.47,959.22,293.25z M959.19,303.81v-8.3h1.77v8.3H959.19z"/>
		<path class="st1" d="M969.31,295.51h1.89l-4,8.48h-0.61l-4.02-8.48h1.89l2.43,5.49L969.31,295.51z"/>
		<path class="st1" d="M979.93,300.24h-6.18c0.11,0.68,0.41,1.21,0.9,1.6c0.49,0.39,1.09,0.58,1.8,0.58c0.88,0,1.68-0.33,2.42-0.98
			l0.84,1.22c-0.94,0.89-2.04,1.33-3.31,1.33c-1.26,0-2.32-0.41-3.18-1.24c-0.86-0.83-1.28-1.86-1.28-3.08
			c-0.02-1.19,0.39-2.22,1.25-3.08c0.86-0.86,1.87-1.28,3.04-1.26c1.09,0,2,0.36,2.74,1.09c0.73,0.73,1.1,1.63,1.1,2.71
			C980.07,299.45,980.02,299.83,979.93,300.24z M973.78,298.86h4.51c-0.01-0.62-0.22-1.11-0.63-1.48c-0.41-0.37-0.91-0.55-1.5-0.55
			c-0.59,0-1.1,0.18-1.53,0.55C974.2,297.74,973.92,298.24,973.78,298.86z"/>
		<path class="st1" d="M995.44,299.65c0,1.24-0.39,2.27-1.16,3.1c-0.77,0.83-1.74,1.24-2.91,1.24c-1.15,0-2.07-0.4-2.77-1.2v4.05
			h-1.77v-11.34h1.66v1.17c0.63-0.9,1.59-1.35,2.89-1.35c1.17,0,2.14,0.41,2.91,1.24C995.06,297.39,995.44,298.42,995.44,299.65z
			 M992.89,301.61c0.48-0.51,0.73-1.15,0.73-1.94c0-0.79-0.24-1.44-0.73-1.95c-0.48-0.51-1.09-0.77-1.81-0.77
			c-0.7,0-1.29,0.24-1.77,0.71c-0.48,0.47-0.73,1.14-0.73,1.99c0,0.87,0.24,1.54,0.73,2.01c0.48,0.47,1.08,0.71,1.77,0.71
			C991.8,302.37,992.41,302.12,992.89,301.61z"/>
		<path class="st1" d="M1002.23,295.51v1.57h-0.54c-0.72,0-1.31,0.2-1.76,0.61c-0.45,0.41-0.68,0.97-0.68,1.69v4.43h-1.77v-8.3h1.66
			v1.08c0.62-0.78,1.42-1.17,2.42-1.17C1001.78,295.43,1002.01,295.46,1002.23,295.51z"/>
		<path class="st1" d="M1003.15,299.65c-0.02-1.18,0.4-2.21,1.28-3.07c0.87-0.86,1.91-1.28,3.1-1.26c1.21-0.02,2.25,0.4,3.13,1.27
			s1.31,1.89,1.28,3.06c0.02,1.18-0.41,2.21-1.28,3.08s-1.92,1.29-3.13,1.27c-1.19,0.02-2.23-0.4-3.1-1.28
			C1003.55,301.84,1003.12,300.82,1003.15,299.65z M1010.11,299.67c0-0.77-0.25-1.41-0.74-1.93c-0.5-0.52-1.1-0.79-1.82-0.79
			c-0.73,0-1.35,0.26-1.84,0.79c-0.5,0.52-0.74,1.17-0.74,1.93c0,0.77,0.25,1.41,0.73,1.92c0.49,0.51,1.1,0.77,1.83,0.77
			s1.35-0.26,1.84-0.78C1009.86,301.06,1010.11,300.42,1010.11,299.67z"/>
		<path class="st1" d="M1016.04,293.99v1.52h1.96v1.54h-1.96v6.76h-1.77v-6.76h-1.18v-1.54h1.18v-1.67c0-0.96,0.26-1.68,0.78-2.16
			c0.52-0.48,1.24-0.73,2.18-0.73c0.44,0,0.82,0.05,1.15,0.15v1.5c-0.27-0.03-0.51-0.05-0.71-0.05c-0.55,0-0.96,0.11-1.23,0.33
			S1016.04,293.47,1016.04,293.99z"/>
		<path class="st1" d="M1026.87,300.24h-6.18c0.11,0.68,0.41,1.21,0.9,1.6c0.49,0.39,1.09,0.58,1.8,0.58c0.88,0,1.68-0.33,2.42-0.98
			l0.84,1.22c-0.94,0.89-2.04,1.33-3.31,1.33c-1.26,0-2.32-0.41-3.18-1.24c-0.86-0.83-1.28-1.86-1.28-3.08
			c-0.02-1.19,0.39-2.22,1.25-3.08c0.86-0.86,1.87-1.28,3.04-1.26c1.09,0,2,0.36,2.74,1.09c0.73,0.73,1.1,1.63,1.1,2.71
			C1027,299.45,1026.96,299.83,1026.87,300.24z M1020.72,298.86h4.51c-0.01-0.62-0.22-1.11-0.63-1.48c-0.41-0.37-0.91-0.55-1.5-0.55
			c-0.59,0-1.1,0.18-1.53,0.55C1021.14,297.74,1020.85,298.24,1020.72,298.86z"/>
		<path class="st1" d="M1028.25,302.39l1.01-1.12c0.75,0.79,1.53,1.18,2.33,1.18c0.39,0,0.71-0.08,0.96-0.25
			c0.25-0.16,0.37-0.39,0.37-0.68c0-0.22-0.08-0.41-0.25-0.55c-0.17-0.14-0.47-0.3-0.91-0.48l-0.85-0.35
			c-0.75-0.32-1.3-0.66-1.65-1.02c-0.34-0.37-0.52-0.83-0.52-1.39c0-0.73,0.27-1.32,0.82-1.75s1.25-0.65,2.1-0.65
			c1.19,0,2.15,0.43,2.87,1.28l-0.96,1.1c-0.54-0.56-1.19-0.84-1.94-0.84c-0.75,0-1.13,0.26-1.13,0.79c0,0.2,0.08,0.37,0.24,0.51
			c0.16,0.14,0.45,0.3,0.86,0.46l0.79,0.32c0.8,0.34,1.38,0.7,1.73,1.07c0.36,0.38,0.53,0.85,0.53,1.43c0,0.8-0.29,1.42-0.88,1.88
			c-0.59,0.44-1.32,0.66-2.2,0.66C1030.19,303.99,1029.08,303.46,1028.25,302.39z"/>
		<path class="st1" d="M1035.94,302.39l1.01-1.12c0.75,0.79,1.53,1.18,2.33,1.18c0.39,0,0.71-0.08,0.96-0.25
			c0.25-0.16,0.37-0.39,0.37-0.68c0-0.22-0.08-0.41-0.25-0.55c-0.17-0.14-0.47-0.3-0.91-0.48l-0.85-0.35
			c-0.75-0.32-1.3-0.66-1.65-1.02c-0.34-0.37-0.52-0.83-0.52-1.39c0-0.73,0.27-1.32,0.82-1.75s1.25-0.65,2.1-0.65
			c1.19,0,2.15,0.43,2.87,1.28l-0.96,1.1c-0.54-0.56-1.19-0.84-1.94-0.84c-0.75,0-1.13,0.26-1.13,0.79c0,0.2,0.08,0.37,0.24,0.51
			c0.16,0.14,0.45,0.3,0.86,0.46l0.79,0.32c0.8,0.34,1.38,0.7,1.73,1.07c0.36,0.38,0.53,0.85,0.53,1.43c0,0.8-0.29,1.42-0.88,1.88
			c-0.59,0.44-1.32,0.66-2.2,0.66C1037.88,303.99,1036.76,303.46,1035.94,302.39z"/>
		<path class="st1" d="M1044.44,293.25c-0.24-0.22-0.35-0.5-0.35-0.83c0-0.33,0.12-0.6,0.35-0.84c0.24-0.23,0.52-0.35,0.86-0.35
			c0.33,0,0.61,0.12,0.84,0.35c0.24,0.23,0.35,0.51,0.35,0.84c0,0.33-0.12,0.6-0.35,0.83c-0.24,0.23-0.52,0.34-0.84,0.34
			C1044.96,293.59,1044.67,293.47,1044.44,293.25z M1044.4,303.81v-8.3h1.77v8.3H1044.4z"/>
		<path class="st1" d="M1048.22,299.65c-0.02-1.18,0.4-2.21,1.28-3.07c0.87-0.86,1.91-1.28,3.1-1.26c1.21-0.02,2.25,0.4,3.13,1.27
			s1.31,1.89,1.28,3.06c0.02,1.18-0.41,2.21-1.28,3.08s-1.92,1.29-3.13,1.27c-1.19,0.02-2.23-0.4-3.1-1.28
			C1048.63,301.84,1048.2,300.82,1048.22,299.65z M1055.18,299.67c0-0.77-0.25-1.41-0.74-1.93c-0.5-0.52-1.1-0.79-1.82-0.79
			c-0.73,0-1.35,0.26-1.84,0.79c-0.5,0.52-0.74,1.17-0.74,1.93c0,0.77,0.25,1.41,0.73,1.92c0.49,0.51,1.1,0.77,1.83,0.77
			s1.35-0.26,1.84-0.78C1054.93,301.06,1055.18,300.42,1055.18,299.67z"/>
		<path class="st1" d="M1066.28,298.62v5.19h-1.77v-4.95c0-0.57-0.17-1.04-0.5-1.39c-0.33-0.36-0.77-0.53-1.31-0.53
			c-0.55,0-1,0.18-1.36,0.54c-0.35,0.36-0.53,0.82-0.53,1.39v4.95h-1.77v-8.3h1.66v0.81c0.63-0.67,1.46-1,2.48-1
			c0.96,0,1.71,0.3,2.27,0.9C1066,296.82,1066.28,297.62,1066.28,298.62z"/>
		<path class="st1" d="M1075.34,298.79v5.02h-1.66v-0.93c-0.62,0.74-1.5,1.12-2.65,1.12c-0.87,0-1.57-0.22-2.09-0.66
			c-0.53-0.44-0.79-1.02-0.79-1.74s0.28-1.3,0.83-1.72s1.29-0.64,2.23-0.64h2.35v-0.54c0-0.57-0.16-1.01-0.46-1.32
			c-0.31-0.3-0.75-0.46-1.31-0.46c-0.84,0-1.61,0.41-2.3,1.23l-1.03-1.05c0.81-1.18,1.98-1.77,3.5-1.77c1.04,0,1.86,0.3,2.47,0.91
			C1075.03,296.85,1075.34,297.7,1075.34,298.79z M1073.55,300.66v-0.15h-2.13c-0.98,0-1.47,0.34-1.47,1.01
			c0,0.34,0.13,0.61,0.4,0.8c0.26,0.2,0.62,0.3,1.06,0.3c0.61,0,1.12-0.19,1.53-0.56S1073.55,301.23,1073.55,300.66z"/>
		<path class="st1" d="M1077.8,303.81v-12.67h1.77v12.67H1077.8z"/>
		<path class="st1" d="M1086.1,302.39l1.01-1.12c0.75,0.79,1.53,1.18,2.33,1.18c0.39,0,0.71-0.08,0.96-0.25
			c0.25-0.16,0.37-0.39,0.37-0.68c0-0.22-0.08-0.41-0.25-0.55c-0.17-0.14-0.47-0.3-0.91-0.48l-0.85-0.35
			c-0.75-0.32-1.3-0.66-1.65-1.02c-0.34-0.37-0.52-0.83-0.52-1.39c0-0.73,0.27-1.32,0.82-1.75s1.25-0.65,2.1-0.65
			c1.19,0,2.15,0.43,2.87,1.28l-0.96,1.1c-0.54-0.56-1.19-0.84-1.94-0.84c-0.75,0-1.13,0.26-1.13,0.79c0,0.2,0.08,0.37,0.24,0.51
			c0.16,0.14,0.45,0.3,0.86,0.46l0.79,0.32c0.8,0.34,1.38,0.7,1.73,1.07c0.36,0.38,0.53,0.85,0.53,1.43c0,0.8-0.29,1.42-0.88,1.88
			c-0.59,0.44-1.32,0.66-2.2,0.66C1088.04,303.99,1086.92,303.46,1086.1,302.39z"/>
		<path class="st1" d="M1102.03,300.24h-6.18c0.11,0.68,0.41,1.21,0.9,1.6c0.49,0.39,1.09,0.58,1.8,0.58c0.88,0,1.68-0.33,2.42-0.98
			l0.84,1.22c-0.94,0.89-2.04,1.33-3.31,1.33c-1.26,0-2.32-0.41-3.18-1.24c-0.86-0.83-1.28-1.86-1.28-3.08
			c-0.02-1.19,0.39-2.22,1.25-3.08c0.86-0.86,1.87-1.28,3.04-1.26c1.09,0,2,0.36,2.74,1.09c0.73,0.73,1.1,1.63,1.1,2.71
			C1102.17,299.45,1102.12,299.83,1102.03,300.24z M1095.88,298.86h4.51c-0.01-0.62-0.22-1.11-0.63-1.48
			c-0.41-0.37-0.91-0.55-1.5-0.55c-0.59,0-1.1,0.18-1.53,0.55C1096.3,297.74,1096.02,298.24,1095.88,298.86z"/>
		<path class="st1" d="M1108.94,295.51v1.57h-0.54c-0.72,0-1.31,0.2-1.76,0.61c-0.45,0.41-0.68,0.97-0.68,1.69v4.43h-1.77v-8.3h1.66
			v1.08c0.62-0.78,1.42-1.17,2.42-1.17C1108.49,295.43,1108.72,295.46,1108.94,295.51z"/>
		<path class="st1" d="M1116.31,295.51h1.89l-4,8.48h-0.61l-4.02-8.48h1.89l2.43,5.49L1116.31,295.51z"/>
		<path class="st1" d="M1119.84,293.25c-0.24-0.22-0.35-0.5-0.35-0.83c0-0.33,0.12-0.6,0.35-0.84c0.24-0.23,0.52-0.35,0.86-0.35
			c0.33,0,0.61,0.12,0.84,0.35c0.24,0.23,0.35,0.51,0.35,0.84c0,0.33-0.12,0.6-0.35,0.83c-0.24,0.23-0.52,0.34-0.84,0.34
			C1120.36,293.59,1120.08,293.47,1119.84,293.25z M1119.8,303.81v-8.3h1.77v8.3H1119.8z"/>
		<path class="st1" d="M1123.62,299.65c-0.02-1.18,0.41-2.21,1.28-3.07c0.88-0.86,1.92-1.28,3.11-1.26c1.55,0,2.72,0.64,3.5,1.93
			l-1.25,0.98c-0.59-0.84-1.33-1.27-2.23-1.27c-0.74,0-1.36,0.26-1.86,0.78c-0.5,0.52-0.74,1.16-0.74,1.91
			c0,0.77,0.25,1.41,0.74,1.93c0.5,0.52,1.12,0.78,1.86,0.78c0.88,0,1.62-0.42,2.23-1.25l1.25,0.96c-0.37,0.61-0.86,1.08-1.47,1.42
			s-1.28,0.51-2.03,0.51c-1.23,0-2.27-0.42-3.12-1.27C1124.05,301.88,1123.62,300.86,1123.62,299.65z"/>
		<path class="st1" d="M1140.79,300.24h-6.18c0.11,0.68,0.41,1.21,0.9,1.6c0.49,0.39,1.09,0.58,1.8,0.58c0.88,0,1.68-0.33,2.42-0.98
			l0.84,1.22c-0.94,0.89-2.04,1.33-3.31,1.33c-1.26,0-2.32-0.41-3.18-1.24c-0.86-0.83-1.28-1.86-1.28-3.08
			c-0.02-1.19,0.39-2.22,1.25-3.08c0.86-0.86,1.87-1.28,3.04-1.26c1.09,0,2,0.36,2.74,1.09c0.73,0.73,1.1,1.63,1.1,2.71
			C1140.92,299.45,1140.88,299.83,1140.79,300.24z M1134.64,298.86h4.51c-0.01-0.62-0.22-1.11-0.63-1.48
			c-0.41-0.37-0.91-0.55-1.5-0.55c-0.59,0-1.1,0.18-1.53,0.55C1135.06,297.74,1134.77,298.24,1134.64,298.86z"/>
		<path class="st1" d="M1142.17,302.39l1.01-1.12c0.75,0.79,1.53,1.18,2.33,1.18c0.39,0,0.71-0.08,0.96-0.25
			c0.25-0.16,0.37-0.39,0.37-0.68c0-0.22-0.08-0.41-0.25-0.55c-0.17-0.14-0.47-0.3-0.91-0.48l-0.85-0.35
			c-0.75-0.32-1.3-0.66-1.65-1.02c-0.34-0.37-0.52-0.83-0.52-1.39c0-0.73,0.27-1.32,0.82-1.75s1.25-0.65,2.1-0.65
			c1.19,0,2.15,0.43,2.87,1.28l-0.96,1.1c-0.54-0.56-1.19-0.84-1.94-0.84c-0.75,0-1.13,0.26-1.13,0.79c0,0.2,0.08,0.37,0.24,0.51
			c0.16,0.14,0.45,0.3,0.86,0.46l0.79,0.32c0.8,0.34,1.38,0.7,1.73,1.07c0.36,0.38,0.53,0.85,0.53,1.43c0,0.8-0.29,1.42-0.88,1.88
			c-0.59,0.44-1.32,0.66-2.2,0.66C1144.11,303.99,1143,303.46,1142.17,302.39z"/>
	</g>
	<g>
		<path class="st1" d="M716.38,329.52h-6.18c0.11,0.68,0.41,1.21,0.9,1.6c0.49,0.39,1.09,0.58,1.8,0.58c0.88,0,1.68-0.33,2.42-0.98
			l0.84,1.22c-0.94,0.89-2.04,1.33-3.31,1.33c-1.26,0-2.32-0.41-3.18-1.24c-0.86-0.83-1.28-1.86-1.28-3.08
			c-0.02-1.19,0.39-2.22,1.25-3.08c0.86-0.86,1.87-1.28,3.04-1.26c1.09,0,2,0.36,2.74,1.09c0.73,0.73,1.1,1.63,1.1,2.71
			C716.51,328.73,716.46,329.1,716.38,329.52z M710.22,328.14h4.51c-0.01-0.62-0.22-1.11-0.63-1.48c-0.41-0.37-0.91-0.55-1.5-0.55
			c-0.59,0-1.1,0.18-1.53,0.55C710.64,327.02,710.36,327.52,710.22,328.14z"/>
		<path class="st1" d="M725.79,327.9v5.19h-1.77v-4.95c0-0.57-0.17-1.04-0.5-1.39c-0.33-0.36-0.77-0.53-1.31-0.53
			c-0.55,0-1,0.18-1.36,0.54c-0.35,0.36-0.53,0.82-0.53,1.39v4.95h-1.77v-8.3h1.66v0.81c0.63-0.67,1.46-1,2.48-1
			c0.96,0,1.71,0.3,2.27,0.9C725.51,326.1,725.79,326.9,725.79,327.9z"/>
		<path class="st1" d="M727.73,328.93c-0.02-1.18,0.41-2.21,1.28-3.07c0.88-0.86,1.92-1.28,3.11-1.26c1.55,0,2.72,0.64,3.5,1.93
			l-1.25,0.98c-0.59-0.84-1.33-1.27-2.23-1.27c-0.74,0-1.36,0.26-1.86,0.78c-0.5,0.52-0.74,1.16-0.74,1.91
			c0,0.77,0.25,1.41,0.74,1.93c0.5,0.52,1.12,0.78,1.86,0.78c0.88,0,1.62-0.42,2.23-1.25l1.25,0.96c-0.37,0.61-0.86,1.08-1.47,1.42
			s-1.28,0.51-2.03,0.51c-1.23,0-2.27-0.42-3.12-1.27C728.15,331.16,727.73,330.13,727.73,328.93z"/>
		<path class="st1" d="M736.9,328.93c-0.02-1.18,0.4-2.21,1.28-3.07c0.87-0.86,1.91-1.28,3.1-1.26c1.21-0.02,2.25,0.4,3.13,1.27
			s1.31,1.89,1.28,3.06c0.02,1.18-0.41,2.21-1.28,3.08s-1.92,1.29-3.13,1.27c-1.19,0.02-2.23-0.4-3.1-1.28
			C737.3,331.12,736.88,330.1,736.9,328.93z M743.86,328.95c0-0.77-0.25-1.41-0.74-1.93c-0.5-0.52-1.1-0.79-1.82-0.79
			c-0.73,0-1.35,0.26-1.84,0.79c-0.5,0.52-0.74,1.17-0.74,1.93c0,0.77,0.25,1.41,0.73,1.92c0.49,0.51,1.1,0.77,1.83,0.77
			s1.35-0.26,1.84-0.78C743.61,330.34,743.86,329.7,743.86,328.95z"/>
		<path class="st1" d="M760.17,327.9v5.19h-1.79v-4.93c0-0.58-0.15-1.05-0.46-1.4c-0.31-0.35-0.73-0.52-1.26-0.52
			c-0.54,0-0.98,0.17-1.32,0.52s-0.51,0.79-0.51,1.33v5.02h-1.77v-4.93c0-0.57-0.16-1.04-0.47-1.39s-0.74-0.53-1.27-0.53
			c-0.54,0-0.98,0.18-1.32,0.53s-0.51,0.82-0.51,1.39v4.93h-1.77v-8.3h1.66v0.78c0.62-0.64,1.42-0.96,2.4-0.96
			c1.15,0,1.99,0.43,2.52,1.3c0.66-0.87,1.6-1.3,2.8-1.3c0.95,0,1.69,0.3,2.25,0.9C759.89,326.11,760.17,326.91,760.17,327.9z"/>
		<path class="st1" d="M771.25,328.93c0,1.24-0.39,2.27-1.16,3.1c-0.77,0.83-1.74,1.24-2.91,1.24c-1.15,0-2.07-0.4-2.77-1.2v4.05
			h-1.77v-11.34h1.66v1.17c0.63-0.9,1.59-1.35,2.89-1.35c1.17,0,2.14,0.41,2.91,1.24C770.86,326.67,771.25,327.7,771.25,328.93z
			 M768.7,330.89c0.48-0.51,0.73-1.15,0.73-1.94c0-0.79-0.24-1.44-0.73-1.95c-0.48-0.51-1.09-0.77-1.81-0.77
			c-0.7,0-1.29,0.24-1.77,0.71c-0.48,0.47-0.73,1.14-0.73,1.99c0,0.87,0.24,1.54,0.73,2.01c0.48,0.47,1.08,0.71,1.77,0.71
			C767.61,331.65,768.21,331.4,768.7,330.89z"/>
		<path class="st1" d="M779.88,328.07v5.02h-1.66v-0.93c-0.62,0.74-1.5,1.12-2.65,1.12c-0.87,0-1.57-0.22-2.09-0.66
			c-0.53-0.44-0.79-1.02-0.79-1.74s0.28-1.3,0.83-1.72s1.29-0.64,2.23-0.64h2.35v-0.54c0-0.57-0.16-1.01-0.46-1.32
			c-0.31-0.3-0.75-0.46-1.31-0.46c-0.84,0-1.61,0.41-2.3,1.23l-1.03-1.05c0.81-1.18,1.98-1.77,3.5-1.77c1.04,0,1.86,0.3,2.47,0.91
			C779.58,326.13,779.88,326.98,779.88,328.07z M778.09,329.94v-0.15h-2.13c-0.98,0-1.47,0.34-1.47,1.01c0,0.34,0.13,0.61,0.4,0.8
			c0.26,0.2,0.62,0.3,1.06,0.3c0.61,0,1.12-0.19,1.53-0.56S778.09,330.51,778.09,329.94z"/>
		<path class="st1" d="M781.57,331.67l1.01-1.12c0.75,0.79,1.53,1.18,2.33,1.18c0.39,0,0.71-0.08,0.96-0.25
			c0.25-0.16,0.37-0.39,0.37-0.68c0-0.22-0.08-0.41-0.25-0.55c-0.17-0.14-0.47-0.3-0.91-0.48l-0.85-0.35
			c-0.75-0.32-1.3-0.66-1.65-1.02c-0.34-0.37-0.52-0.83-0.52-1.39c0-0.73,0.27-1.32,0.82-1.75s1.25-0.65,2.1-0.65
			c1.19,0,2.15,0.43,2.87,1.28l-0.96,1.1c-0.54-0.56-1.19-0.84-1.94-0.84c-0.75,0-1.13,0.26-1.13,0.79c0,0.2,0.08,0.37,0.24,0.51
			c0.16,0.14,0.45,0.3,0.86,0.46l0.79,0.32c0.8,0.34,1.38,0.7,1.73,1.07c0.36,0.38,0.53,0.85,0.53,1.43c0,0.8-0.29,1.42-0.88,1.88
			c-0.59,0.44-1.32,0.66-2.2,0.66C783.51,333.27,782.39,332.74,781.57,331.67z"/>
		<path class="st1" d="M789.26,331.67l1.01-1.12c0.75,0.79,1.53,1.18,2.33,1.18c0.39,0,0.71-0.08,0.96-0.25
			c0.25-0.16,0.37-0.39,0.37-0.68c0-0.22-0.08-0.41-0.25-0.55c-0.17-0.14-0.47-0.3-0.91-0.48l-0.85-0.35
			c-0.75-0.32-1.3-0.66-1.65-1.02c-0.34-0.37-0.52-0.83-0.52-1.39c0-0.73,0.27-1.32,0.82-1.75s1.25-0.65,2.1-0.65
			c1.19,0,2.15,0.43,2.87,1.28l-0.96,1.1c-0.54-0.56-1.19-0.84-1.94-0.84c-0.75,0-1.13,0.26-1.13,0.79c0,0.2,0.08,0.37,0.24,0.51
			c0.16,0.14,0.45,0.3,0.86,0.46l0.79,0.32c0.8,0.34,1.38,0.7,1.73,1.07c0.36,0.38,0.53,0.85,0.53,1.43c0,0.8-0.29,1.42-0.88,1.88
			c-0.59,0.44-1.32,0.66-2.2,0.66C791.2,333.27,790.08,332.74,789.26,331.67z"/>
		<path class="st1" d="M797.76,322.53c-0.24-0.22-0.35-0.5-0.35-0.83c0-0.33,0.12-0.6,0.35-0.84c0.24-0.23,0.52-0.35,0.86-0.35
			c0.33,0,0.61,0.12,0.84,0.35c0.24,0.23,0.35,0.51,0.35,0.84c0,0.33-0.12,0.6-0.35,0.83c-0.24,0.23-0.52,0.34-0.84,0.34
			C798.28,322.86,797.99,322.75,797.76,322.53z M797.72,333.09v-8.3h1.77v8.3H797.72z"/>
		<path class="st1" d="M809.31,327.9v5.19h-1.77v-4.95c0-0.57-0.17-1.04-0.5-1.39c-0.33-0.36-0.77-0.53-1.31-0.53
			c-0.55,0-1,0.18-1.36,0.54c-0.35,0.36-0.53,0.82-0.53,1.39v4.95h-1.77v-8.3h1.66v0.81c0.63-0.67,1.46-1,2.48-1
			c0.96,0,1.71,0.3,2.27,0.9C809.03,326.1,809.31,326.9,809.31,327.9z"/>
		<path class="st1" d="M818.28,324.79h1.64v7.43c0,1.29-0.38,2.3-1.12,3.02c-0.75,0.71-1.76,1.07-3.03,1.07
			c-1.53,0-2.86-0.52-3.99-1.57l0.98-1.23c0.98,0.79,1.95,1.18,2.91,1.18c0.77,0,1.37-0.2,1.82-0.61c0.44-0.41,0.67-0.99,0.67-1.76
			v-0.59c-0.65,0.79-1.59,1.18-2.8,1.18c-1.16,0-2.12-0.39-2.89-1.17c-0.77-0.78-1.15-1.78-1.15-2.98s0.38-2.2,1.15-2.98
			c0.77-0.78,1.73-1.17,2.89-1.17c1.32,0,2.3,0.46,2.94,1.37V324.79z M818.17,328.74c0-0.81-0.24-1.44-0.71-1.88
			c-0.47-0.45-1.07-0.67-1.79-0.67s-1.32,0.24-1.81,0.71s-0.73,1.09-0.73,1.86c0,0.78,0.24,1.41,0.73,1.89
			c0.5,0.47,1.1,0.71,1.81,0.71c0.69,0,1.27-0.22,1.76-0.68C817.92,330.23,818.17,329.58,818.17,328.74z"/>
		<path class="st1" d="M833.98,333.09l-0.79-1.86h-5.02l-0.79,1.86h-1.91l4.92-11.34h0.61l4.92,11.34H833.98z M832.54,329.69
			l-1.86-4.61l-1.88,4.61H832.54z"/>
		<path class="st1" d="M836.77,328.93c-0.02-1.18,0.41-2.21,1.28-3.07c0.88-0.86,1.92-1.28,3.11-1.26c1.55,0,2.72,0.64,3.5,1.93
			l-1.25,0.98c-0.59-0.84-1.33-1.27-2.23-1.27c-0.74,0-1.36,0.26-1.86,0.78c-0.5,0.52-0.74,1.16-0.74,1.91
			c0,0.77,0.25,1.41,0.74,1.93c0.5,0.52,1.12,0.78,1.86,0.78c0.88,0,1.62-0.42,2.23-1.25l1.25,0.96c-0.37,0.61-0.86,1.08-1.47,1.42
			s-1.28,0.51-2.03,0.51c-1.23,0-2.27-0.42-3.12-1.27C837.19,331.16,836.77,330.13,836.77,328.93z"/>
		<path class="st1" d="M845.94,328.93c-0.02-1.18,0.41-2.21,1.28-3.07c0.88-0.86,1.92-1.28,3.11-1.26c1.55,0,2.72,0.64,3.5,1.93
			l-1.25,0.98c-0.59-0.84-1.33-1.27-2.23-1.27c-0.74,0-1.36,0.26-1.86,0.78c-0.5,0.52-0.74,1.16-0.74,1.91
			c0,0.77,0.25,1.41,0.74,1.93c0.5,0.52,1.12,0.78,1.86,0.78c0.88,0,1.62-0.42,2.23-1.25l1.25,0.96c-0.37,0.61-0.86,1.08-1.47,1.42
			s-1.28,0.51-2.03,0.51c-1.23,0-2.27-0.42-3.12-1.27C846.37,331.16,845.94,330.13,845.94,328.93z"/>
		<path class="st1" d="M855.11,328.93c-0.02-1.18,0.4-2.21,1.28-3.07c0.87-0.86,1.91-1.28,3.1-1.26c1.21-0.02,2.25,0.4,3.13,1.27
			s1.31,1.89,1.28,3.06c0.02,1.18-0.41,2.21-1.28,3.08s-1.92,1.29-3.13,1.27c-1.19,0.02-2.23-0.4-3.1-1.28
			C855.52,331.12,855.09,330.1,855.11,328.93z M862.07,328.95c0-0.77-0.25-1.41-0.74-1.93c-0.5-0.52-1.1-0.79-1.82-0.79
			c-0.73,0-1.35,0.26-1.84,0.79c-0.5,0.52-0.74,1.17-0.74,1.93c0,0.77,0.25,1.41,0.73,1.92c0.49,0.51,1.1,0.77,1.83,0.77
			s1.35-0.26,1.84-0.78C861.83,330.34,862.07,329.7,862.07,328.95z"/>
		<path class="st1" d="M865.84,329.61v-4.82h1.76v4.95c0,0.56,0.17,1.02,0.52,1.37c0.35,0.35,0.8,0.52,1.35,0.52
			c0.53,0,0.97-0.17,1.31-0.52c0.34-0.35,0.51-0.81,0.51-1.37v-4.95h1.77v4.82c0,1.09-0.34,1.98-1.02,2.65s-1.54,1.01-2.58,1.01
			c-1.06,0-1.93-0.33-2.61-1S865.84,330.71,865.84,329.61z"/>
		<path class="st1" d="M882.8,327.9v5.19h-1.77v-4.95c0-0.57-0.17-1.04-0.5-1.39c-0.33-0.36-0.77-0.53-1.31-0.53
			c-0.55,0-1,0.18-1.36,0.54c-0.35,0.36-0.53,0.82-0.53,1.39v4.95h-1.77v-8.3h1.66v0.81c0.63-0.67,1.46-1,2.48-1
			c0.96,0,1.71,0.3,2.27,0.9C882.53,326.1,882.8,326.9,882.8,327.9z"/>
		<path class="st1" d="M890.21,331.58v1.5c-0.59,0.12-1.08,0.19-1.47,0.19c-0.97,0-1.72-0.24-2.25-0.73
			c-0.54-0.48-0.8-1.21-0.8-2.16v-4.05h-1.35v-1.54h1.35v-2.18h1.79v2.18h2.47v1.54h-2.47v3.9c0,0.52,0.13,0.89,0.4,1.11
			s0.68,0.33,1.24,0.33C889.3,331.67,889.66,331.64,890.21,331.58z"/>
		<path class="st1" d="M892.03,322.53c-0.24-0.22-0.35-0.5-0.35-0.83c0-0.33,0.12-0.6,0.35-0.84c0.24-0.23,0.52-0.35,0.86-0.35
			c0.33,0,0.61,0.12,0.84,0.35c0.24,0.23,0.35,0.51,0.35,0.84c0,0.33-0.12,0.6-0.35,0.83c-0.24,0.23-0.52,0.34-0.84,0.34
			C892.55,322.86,892.27,322.75,892.03,322.53z M892,333.09v-8.3h1.77v8.3H892z"/>
		<path class="st1" d="M903.58,327.9v5.19h-1.77v-4.95c0-0.57-0.17-1.04-0.5-1.39c-0.33-0.36-0.77-0.53-1.31-0.53
			c-0.55,0-1,0.18-1.36,0.54c-0.35,0.36-0.53,0.82-0.53,1.39v4.95h-1.77v-8.3h1.66v0.81c0.63-0.67,1.46-1,2.48-1
			c0.96,0,1.71,0.3,2.27,0.9C903.31,326.1,903.58,326.9,903.58,327.9z"/>
		<path class="st1" d="M912.56,324.79h1.64v7.43c0,1.29-0.38,2.3-1.12,3.02c-0.75,0.71-1.76,1.07-3.03,1.07
			c-1.53,0-2.86-0.52-3.99-1.57l0.98-1.23c0.98,0.79,1.95,1.18,2.91,1.18c0.77,0,1.37-0.2,1.82-0.61c0.44-0.41,0.67-0.99,0.67-1.76
			v-0.59c-0.65,0.79-1.59,1.18-2.8,1.18c-1.16,0-2.12-0.39-2.89-1.17c-0.77-0.78-1.15-1.78-1.15-2.98s0.38-2.2,1.15-2.98
			c0.77-0.78,1.73-1.17,2.89-1.17c1.32,0,2.3,0.46,2.94,1.37V324.79z M912.44,328.74c0-0.81-0.24-1.44-0.71-1.88
			c-0.47-0.45-1.07-0.67-1.79-0.67s-1.32,0.24-1.81,0.71s-0.73,1.09-0.73,1.86c0,0.78,0.24,1.41,0.73,1.89
			c0.5,0.47,1.1,0.71,1.81,0.71c0.69,0,1.27-0.22,1.76-0.68C912.19,330.23,912.44,329.58,912.44,328.74z"/>
		<path class="st1" d="M916.78,336.09l0.17-4.8h2.06l-0.79,4.8H916.78z"/>
		<path class="st1" d="M928.12,333.09v-9.55h-3.75v-1.6h9.31v1.6h-3.77v9.55H928.12z"/>
		<path class="st1" d="M940.75,328.07v5.02h-1.66v-0.93c-0.62,0.74-1.5,1.12-2.65,1.12c-0.87,0-1.57-0.22-2.09-0.66
			c-0.53-0.44-0.79-1.02-0.79-1.74s0.28-1.3,0.83-1.72s1.29-0.64,2.23-0.64h2.35v-0.54c0-0.57-0.16-1.01-0.46-1.32
			c-0.31-0.3-0.75-0.46-1.31-0.46c-0.84,0-1.61,0.41-2.3,1.23l-1.03-1.05c0.81-1.18,1.98-1.77,3.5-1.77c1.04,0,1.86,0.3,2.47,0.91
			C940.45,326.13,940.75,326.98,940.75,328.07z M938.96,329.94v-0.15h-2.13c-0.98,0-1.47,0.34-1.47,1.01c0,0.34,0.13,0.61,0.4,0.8
			c0.26,0.2,0.62,0.3,1.06,0.3c0.61,0,1.12-0.19,1.53-0.56S938.96,330.51,938.96,329.94z"/>
		<path class="st1" d="M950.37,333.09h-2.03l-2.08-3.04l-2.06,3.04h-2.03l3.08-4.31l-2.86-3.99h2.03l1.86,2.74l1.84-2.74h2.03
			l-2.87,4L950.37,333.09z"/>
		<path class="st1" d="M958.32,328.07v5.02h-1.66v-0.93c-0.62,0.74-1.5,1.12-2.65,1.12c-0.87,0-1.57-0.22-2.09-0.66
			c-0.53-0.44-0.79-1.02-0.79-1.74s0.28-1.3,0.83-1.72s1.29-0.64,2.23-0.64h2.35v-0.54c0-0.57-0.16-1.01-0.46-1.32
			c-0.31-0.3-0.75-0.46-1.31-0.46c-0.84,0-1.61,0.41-2.3,1.23l-1.03-1.05c0.81-1.18,1.98-1.77,3.5-1.77c1.04,0,1.86,0.3,2.47,0.91
			C958.02,326.13,958.32,326.98,958.32,328.07z M956.53,329.94v-0.15h-2.13c-0.98,0-1.47,0.34-1.47,1.01c0,0.34,0.13,0.61,0.4,0.8
			c0.26,0.2,0.62,0.3,1.06,0.3c0.61,0,1.12-0.19,1.53-0.56S956.53,330.51,956.53,329.94z"/>
		<path class="st1" d="M965.72,331.58v1.5c-0.59,0.12-1.08,0.19-1.47,0.19c-0.97,0-1.72-0.24-2.25-0.73
			c-0.54-0.48-0.8-1.21-0.8-2.16v-4.05h-1.35v-1.54h1.35v-2.18h1.79v2.18h2.47v1.54h-2.47v3.9c0,0.52,0.13,0.89,0.4,1.11
			s0.68,0.33,1.24,0.33C964.82,331.67,965.18,331.64,965.72,331.58z"/>
		<path class="st1" d="M967.55,322.53c-0.24-0.22-0.35-0.5-0.35-0.83c0-0.33,0.12-0.6,0.35-0.84c0.24-0.23,0.52-0.35,0.86-0.35
			c0.33,0,0.61,0.12,0.84,0.35c0.24,0.23,0.35,0.51,0.35,0.84c0,0.33-0.12,0.6-0.35,0.83c-0.24,0.23-0.52,0.34-0.84,0.34
			C968.07,322.86,967.79,322.75,967.55,322.53z M967.51,333.09v-8.3h1.77v8.3H967.51z"/>
		<path class="st1" d="M971.33,328.93c-0.02-1.18,0.4-2.21,1.28-3.07c0.87-0.86,1.91-1.28,3.1-1.26c1.21-0.02,2.25,0.4,3.13,1.27
			s1.31,1.89,1.28,3.06c0.02,1.18-0.41,2.21-1.28,3.08s-1.92,1.29-3.13,1.27c-1.19,0.02-2.23-0.4-3.1-1.28
			C971.74,331.12,971.31,330.1,971.33,328.93z M978.29,328.95c0-0.77-0.25-1.41-0.74-1.93c-0.5-0.52-1.1-0.79-1.82-0.79
			c-0.73,0-1.35,0.26-1.84,0.79c-0.5,0.52-0.74,1.17-0.74,1.93c0,0.77,0.25,1.41,0.73,1.92c0.49,0.51,1.1,0.77,1.83,0.77
			s1.35-0.26,1.84-0.78C978.04,330.34,978.29,329.7,978.29,328.95z"/>
		<path class="st1" d="M989.39,327.9v5.19h-1.77v-4.95c0-0.57-0.17-1.04-0.5-1.39c-0.33-0.36-0.77-0.53-1.31-0.53
			c-0.55,0-1,0.18-1.36,0.54c-0.35,0.36-0.53,0.82-0.53,1.39v4.95h-1.77v-8.3h1.66v0.81c0.63-0.67,1.46-1,2.48-1
			c0.96,0,1.71,0.3,2.27,0.9C989.11,326.1,989.39,326.9,989.39,327.9z"/>
		<path class="st1" d="M991.88,336.09l0.17-4.8h2.06l-0.79,4.8H991.88z"/>
		<path class="st1" d="M1000.65,330.86l1.27-0.96c0.81,1.18,1.79,1.77,2.92,1.77c0.58,0,1.04-0.14,1.39-0.42
			c0.35-0.28,0.53-0.66,0.53-1.13c0-0.38-0.12-0.68-0.36-0.9c-0.24-0.22-0.66-0.48-1.28-0.77l-1.23-0.57
			c-0.87-0.39-1.52-0.83-1.95-1.31c-0.43-0.48-0.65-1.07-0.65-1.78c0-0.89,0.34-1.62,1.01-2.18c0.68-0.56,1.51-0.84,2.5-0.84
			c0.78,0,1.48,0.18,2.12,0.54c0.64,0.36,1.13,0.84,1.48,1.45l-1.25,0.96c-0.61-0.9-1.39-1.35-2.35-1.35c-0.5,0-0.9,0.12-1.22,0.35
			s-0.47,0.57-0.47,1c0.01,0.2,0.04,0.37,0.08,0.5c0.04,0.13,0.14,0.26,0.31,0.41c0.17,0.14,0.29,0.23,0.35,0.26
			c0.07,0.03,0.29,0.15,0.66,0.34c0.07,0.03,0.12,0.06,0.15,0.08l1.25,0.57c0.93,0.43,1.61,0.88,2.04,1.37
			c0.42,0.48,0.63,1.09,0.63,1.81c0,0.96-0.35,1.73-1.06,2.33c-0.7,0.6-1.6,0.9-2.68,0.9c-0.9,0-1.72-0.21-2.45-0.64
			S1001.08,331.61,1000.65,330.86z"/>
		<path class="st1" d="M1018.23,329.52h-6.18c0.11,0.68,0.41,1.21,0.9,1.6c0.49,0.39,1.09,0.58,1.8,0.58c0.88,0,1.68-0.33,2.42-0.98
			l0.84,1.22c-0.94,0.89-2.04,1.33-3.31,1.33c-1.26,0-2.32-0.41-3.18-1.24c-0.86-0.83-1.28-1.86-1.28-3.08
			c-0.02-1.19,0.39-2.22,1.25-3.08c0.86-0.86,1.87-1.28,3.04-1.26c1.09,0,2,0.36,2.74,1.09c0.73,0.73,1.1,1.63,1.1,2.71
			C1018.37,328.73,1018.32,329.1,1018.23,329.52z M1012.08,328.14h4.51c-0.01-0.62-0.22-1.11-0.63-1.48
			c-0.41-0.37-0.91-0.55-1.5-0.55c-0.59,0-1.1,0.18-1.53,0.55C1012.5,327.02,1012.22,327.52,1012.08,328.14z"/>
		<path class="st1" d="M1019.87,328.93c-0.02-1.18,0.41-2.21,1.28-3.07c0.88-0.86,1.92-1.28,3.11-1.26c1.55,0,2.72,0.64,3.5,1.93
			l-1.25,0.98c-0.59-0.84-1.33-1.27-2.23-1.27c-0.74,0-1.36,0.26-1.86,0.78c-0.5,0.52-0.74,1.16-0.74,1.91
			c0,0.77,0.25,1.41,0.74,1.93c0.5,0.52,1.12,0.78,1.86,0.78c0.88,0,1.62-0.42,2.23-1.25l1.25,0.96c-0.37,0.61-0.86,1.08-1.47,1.42
			s-1.28,0.51-2.03,0.51c-1.23,0-2.27-0.42-3.12-1.27C1020.3,331.16,1019.87,330.13,1019.87,328.93z"/>
		<path class="st1" d="M1034.47,324.79v1.57h-0.54c-0.72,0-1.31,0.2-1.76,0.61c-0.45,0.41-0.68,0.97-0.68,1.69v4.43h-1.77v-8.3h1.66
			v1.08c0.62-0.78,1.42-1.17,2.42-1.17C1034.02,324.71,1034.24,324.73,1034.47,324.79z"/>
		<path class="st1" d="M1043.37,329.52h-6.18c0.11,0.68,0.41,1.21,0.9,1.6c0.49,0.39,1.09,0.58,1.8,0.58c0.88,0,1.68-0.33,2.42-0.98
			l0.84,1.22c-0.94,0.89-2.04,1.33-3.31,1.33c-1.26,0-2.32-0.41-3.18-1.24c-0.86-0.83-1.28-1.86-1.28-3.08
			c-0.02-1.19,0.39-2.22,1.25-3.08c0.86-0.86,1.87-1.28,3.04-1.26c1.09,0,2,0.36,2.74,1.09c0.73,0.73,1.1,1.63,1.1,2.71
			C1043.51,328.73,1043.46,329.1,1043.37,329.52z M1037.22,328.14h4.51c-0.01-0.62-0.22-1.11-0.63-1.48
			c-0.41-0.37-0.91-0.55-1.5-0.55c-0.59,0-1.1,0.18-1.53,0.55C1037.64,327.02,1037.36,327.52,1037.22,328.14z"/>
		<path class="st1" d="M1050.47,331.58v1.5c-0.59,0.12-1.08,0.19-1.47,0.19c-0.97,0-1.72-0.24-2.25-0.73
			c-0.54-0.48-0.8-1.21-0.8-2.16v-4.05h-1.35v-1.54h1.35v-2.18h1.79v2.18h2.47v1.54h-2.47v3.9c0,0.52,0.13,0.89,0.4,1.11
			s0.68,0.33,1.24,0.33C1049.56,331.67,1049.93,331.64,1050.47,331.58z"/>
		<path class="st1" d="M1058.85,328.07v5.02h-1.66v-0.93c-0.62,0.74-1.5,1.12-2.65,1.12c-0.87,0-1.57-0.22-2.09-0.66
			c-0.53-0.44-0.79-1.02-0.79-1.74s0.28-1.3,0.83-1.72s1.29-0.64,2.23-0.64h2.35v-0.54c0-0.57-0.16-1.01-0.46-1.32
			c-0.31-0.3-0.75-0.46-1.31-0.46c-0.84,0-1.61,0.41-2.3,1.23l-1.03-1.05c0.81-1.18,1.98-1.77,3.5-1.77c1.04,0,1.86,0.3,2.47,0.91
			C1058.54,326.13,1058.85,326.98,1058.85,328.07z M1057.06,329.94v-0.15h-2.13c-0.98,0-1.47,0.34-1.47,1.01
			c0,0.34,0.13,0.61,0.4,0.8c0.26,0.2,0.62,0.3,1.06,0.3c0.61,0,1.12-0.19,1.53-0.56S1057.06,330.51,1057.06,329.94z"/>
		<path class="st1" d="M1066.06,324.79v1.57h-0.54c-0.72,0-1.31,0.2-1.76,0.61c-0.45,0.41-0.68,0.97-0.68,1.69v4.43h-1.77v-8.3h1.66
			v1.08c0.62-0.78,1.42-1.17,2.42-1.17C1065.61,324.71,1065.84,324.73,1066.06,324.79z"/>
		<path class="st1" d="M1067.68,322.53c-0.24-0.22-0.35-0.5-0.35-0.83c0-0.33,0.12-0.6,0.35-0.84c0.24-0.23,0.52-0.35,0.86-0.35
			c0.33,0,0.61,0.12,0.84,0.35c0.24,0.23,0.35,0.51,0.35,0.84c0,0.33-0.12,0.6-0.35,0.83c-0.24,0.23-0.52,0.34-0.84,0.34
			C1068.21,322.86,1067.92,322.75,1067.68,322.53z M1067.65,333.09v-8.3h1.77v8.3H1067.65z"/>
		<path class="st1" d="M1078.58,328.07v5.02h-1.66v-0.93c-0.62,0.74-1.5,1.12-2.65,1.12c-0.87,0-1.57-0.22-2.09-0.66
			c-0.53-0.44-0.79-1.02-0.79-1.74s0.28-1.3,0.83-1.72s1.29-0.64,2.23-0.64h2.35v-0.54c0-0.57-0.16-1.01-0.46-1.32
			c-0.31-0.3-0.75-0.46-1.31-0.46c-0.84,0-1.61,0.41-2.3,1.23l-1.03-1.05c0.81-1.18,1.98-1.77,3.5-1.77c1.04,0,1.86,0.3,2.47,0.91
			C1078.27,326.13,1078.58,326.98,1078.58,328.07z M1076.79,329.94v-0.15h-2.13c-0.98,0-1.47,0.34-1.47,1.01
			c0,0.34,0.13,0.61,0.4,0.8c0.26,0.2,0.62,0.3,1.06,0.3c0.61,0,1.12-0.19,1.53-0.56S1076.79,330.51,1076.79,329.94z"/>
		<path class="st1" d="M1081.05,333.09v-12.67h1.77v12.67H1081.05z"/>
		<path class="st1" d="M1089.56,327.51c-0.03-1.59,0.54-2.95,1.71-4.09c1.17-1.14,2.56-1.7,4.16-1.67c1.01,0,1.94,0.23,2.79,0.69
			s1.51,1.09,1.99,1.88l-1.35,1c-0.82-1.28-1.96-1.93-3.41-1.93c-1.15,0-2.11,0.39-2.87,1.17c-0.77,0.78-1.15,1.77-1.15,2.95
			s0.38,2.17,1.15,2.95c0.77,0.78,1.72,1.17,2.87,1.17c1.45,0,2.59-0.64,3.41-1.93l1.35,1c-0.48,0.8-1.15,1.43-1.99,1.88
			s-1.77,0.68-2.8,0.68c-1.6,0.02-2.98-0.53-4.16-1.67C1090.1,330.46,1089.53,329.1,1089.56,327.51z"/>
		<path class="st1" d="M1101.54,328.93c-0.02-1.18,0.4-2.21,1.28-3.07c0.87-0.86,1.91-1.28,3.1-1.26c1.21-0.02,2.25,0.4,3.13,1.27
			s1.31,1.89,1.28,3.06c0.02,1.18-0.41,2.21-1.28,3.08s-1.92,1.29-3.13,1.27c-1.19,0.02-2.23-0.4-3.1-1.28
			C1101.94,331.12,1101.52,330.1,1101.54,328.93z M1108.5,328.95c0-0.77-0.25-1.41-0.74-1.93c-0.5-0.52-1.1-0.79-1.82-0.79
			c-0.73,0-1.35,0.26-1.84,0.79c-0.5,0.52-0.74,1.17-0.74,1.93c0,0.77,0.25,1.41,0.73,1.92c0.49,0.51,1.1,0.77,1.83,0.77
			s1.35-0.26,1.84-0.78C1108.25,330.34,1108.5,329.7,1108.5,328.95z"/>
		<path class="st1" d="M1124.8,327.9v5.19h-1.79v-4.93c0-0.58-0.15-1.05-0.46-1.4c-0.31-0.35-0.73-0.52-1.26-0.52
			c-0.54,0-0.98,0.17-1.32,0.52s-0.51,0.79-0.51,1.33v5.02h-1.77v-4.93c0-0.57-0.16-1.04-0.47-1.39s-0.74-0.53-1.27-0.53
			c-0.54,0-0.98,0.18-1.32,0.53s-0.51,0.82-0.51,1.39v4.93h-1.77v-8.3h1.66v0.78c0.62-0.64,1.42-0.96,2.4-0.96
			c1.15,0,1.99,0.43,2.52,1.3c0.66-0.87,1.6-1.3,2.8-1.3c0.95,0,1.69,0.3,2.25,0.9C1124.53,326.11,1124.8,326.91,1124.8,327.9z"/>
		<path class="st1" d="M1135.89,328.93c0,1.24-0.39,2.27-1.16,3.1c-0.77,0.83-1.74,1.24-2.91,1.24c-1.15,0-2.07-0.4-2.77-1.2v4.05
			h-1.77v-11.34h1.66v1.17c0.63-0.9,1.59-1.35,2.89-1.35c1.17,0,2.14,0.41,2.91,1.24C1135.5,326.67,1135.89,327.7,1135.89,328.93z
			 M1133.34,330.89c0.48-0.51,0.73-1.15,0.73-1.94c0-0.79-0.24-1.44-0.73-1.95c-0.48-0.51-1.09-0.77-1.81-0.77
			c-0.7,0-1.29,0.24-1.77,0.71c-0.48,0.47-0.73,1.14-0.73,1.99c0,0.87,0.24,1.54,0.73,2.01c0.48,0.47,1.08,0.71,1.77,0.71
			C1132.25,331.65,1132.85,331.4,1133.34,330.89z"/>
		<path class="st1" d="M1137.93,333.09v-12.67h1.77v12.67H1137.93z"/>
		<path class="st1" d="M1142.31,322.53c-0.24-0.22-0.35-0.5-0.35-0.83c0-0.33,0.12-0.6,0.35-0.84c0.24-0.23,0.52-0.35,0.86-0.35
			c0.33,0,0.61,0.12,0.84,0.35c0.24,0.23,0.35,0.51,0.35,0.84c0,0.33-0.12,0.6-0.35,0.83c-0.24,0.23-0.52,0.34-0.84,0.34
			C1142.83,322.86,1142.54,322.75,1142.31,322.53z M1142.27,333.09v-8.3h1.77v8.3H1142.27z"/>
		<path class="st1" d="M1153.21,328.07v5.02h-1.66v-0.93c-0.62,0.74-1.5,1.12-2.65,1.12c-0.87,0-1.57-0.22-2.09-0.66
			c-0.53-0.44-0.79-1.02-0.79-1.74s0.28-1.3,0.83-1.72s1.29-0.64,2.23-0.64h2.35v-0.54c0-0.57-0.16-1.01-0.46-1.32
			c-0.31-0.3-0.75-0.46-1.31-0.46c-0.84,0-1.61,0.41-2.3,1.23l-1.03-1.05c0.81-1.18,1.98-1.77,3.5-1.77c1.04,0,1.86,0.3,2.47,0.91
			C1152.9,326.13,1153.21,326.98,1153.21,328.07z M1151.41,329.94v-0.15h-2.13c-0.98,0-1.47,0.34-1.47,1.01
			c0,0.34,0.13,0.61,0.4,0.8c0.26,0.2,0.62,0.3,1.06,0.3c0.61,0,1.12-0.19,1.53-0.56S1151.41,330.51,1151.41,329.94z"/>
		<path class="st1" d="M1162.92,327.9v5.19h-1.77v-4.95c0-0.57-0.17-1.04-0.5-1.39c-0.33-0.36-0.77-0.53-1.31-0.53
			c-0.55,0-1,0.18-1.36,0.54c-0.35,0.36-0.53,0.82-0.53,1.39v4.95h-1.77v-8.3h1.66v0.81c0.63-0.67,1.46-1,2.48-1
			c0.96,0,1.71,0.3,2.27,0.9C1162.64,326.1,1162.92,326.9,1162.92,327.9z"/>
		<path class="st1" d="M1164.86,328.93c-0.02-1.18,0.41-2.21,1.28-3.07c0.88-0.86,1.92-1.28,3.11-1.26c1.55,0,2.72,0.64,3.5,1.93
			l-1.25,0.98c-0.59-0.84-1.33-1.27-2.23-1.27c-0.74,0-1.36,0.26-1.86,0.78c-0.5,0.52-0.74,1.16-0.74,1.91
			c0,0.77,0.25,1.41,0.74,1.93c0.5,0.52,1.12,0.78,1.86,0.78c0.88,0,1.62-0.42,2.23-1.25l1.25,0.96c-0.37,0.61-0.86,1.08-1.47,1.42
			s-1.28,0.51-2.03,0.51c-1.23,0-2.27-0.42-3.12-1.27C1165.29,331.16,1164.86,330.13,1164.86,328.93z"/>
		<path class="st1" d="M1182.03,329.52h-6.18c0.11,0.68,0.41,1.21,0.9,1.6c0.49,0.39,1.09,0.58,1.8,0.58c0.88,0,1.68-0.33,2.42-0.98
			l0.84,1.22c-0.94,0.89-2.04,1.33-3.31,1.33c-1.26,0-2.32-0.41-3.18-1.24c-0.86-0.83-1.28-1.86-1.28-3.08
			c-0.02-1.19,0.39-2.22,1.25-3.08c0.86-0.86,1.87-1.28,3.04-1.26c1.09,0,2,0.36,2.74,1.09c0.73,0.73,1.1,1.63,1.1,2.71
			C1182.16,328.73,1182.12,329.1,1182.03,329.52z M1175.88,328.14h4.51c-0.01-0.62-0.22-1.11-0.63-1.48
			c-0.41-0.37-0.91-0.55-1.5-0.55c-0.59,0-1.1,0.18-1.53,0.55C1176.3,327.02,1176.01,327.52,1175.88,328.14z"/>
	</g>
	<g>
		<path class="st1" d="M718.08,362.37h-2.04l-3.18-4.31h-2.04v4.31h-1.79v-11.15h4.07c1.13,0,2.04,0.32,2.74,0.95
			c0.7,0.64,1.05,1.46,1.05,2.46c0,0.73-0.19,1.38-0.57,1.93s-0.9,0.96-1.58,1.22L718.08,362.37z M710.82,352.8v3.67h2.25
			c0.61,0,1.09-0.17,1.44-0.5s0.53-0.77,0.53-1.33s-0.18-1-0.53-1.33s-0.84-0.51-1.44-0.51H710.82z"/>
		<path class="st1" d="M726.8,358.8h-6.18c0.11,0.68,0.41,1.21,0.9,1.6c0.49,0.39,1.09,0.58,1.8,0.58c0.88,0,1.68-0.33,2.42-0.98
			l0.84,1.22c-0.94,0.89-2.04,1.33-3.31,1.33c-1.26,0-2.32-0.41-3.18-1.24c-0.86-0.83-1.28-1.86-1.28-3.08
			c-0.02-1.19,0.39-2.22,1.25-3.08c0.86-0.86,1.87-1.28,3.04-1.26c1.09,0,2,0.36,2.74,1.09c0.73,0.73,1.1,1.63,1.1,2.71
			C726.93,358.01,726.89,358.38,726.8,358.8z M720.65,357.42h4.51c-0.01-0.62-0.22-1.11-0.63-1.48c-0.41-0.37-0.91-0.55-1.5-0.55
			c-0.59,0-1.1,0.18-1.53,0.55C721.07,356.3,720.78,356.8,720.65,357.42z"/>
		<path class="st1" d="M737.58,358.21c0,1.24-0.39,2.27-1.16,3.1c-0.77,0.83-1.74,1.24-2.91,1.24c-1.15,0-2.07-0.4-2.77-1.2v4.05
			h-1.77v-11.34h1.66v1.17c0.63-0.9,1.59-1.35,2.89-1.35c1.17,0,2.14,0.41,2.91,1.24C737.19,355.95,737.58,356.98,737.58,358.21z
			 M735.03,360.17c0.48-0.51,0.73-1.15,0.73-1.94c0-0.79-0.24-1.44-0.73-1.95c-0.48-0.51-1.09-0.77-1.81-0.77
			c-0.7,0-1.29,0.24-1.77,0.71c-0.48,0.47-0.73,1.14-0.73,1.99c0,0.87,0.24,1.54,0.73,2.01c0.48,0.47,1.08,0.71,1.77,0.71
			C733.94,360.93,734.54,360.68,735.03,360.17z"/>
		<path class="st1" d="M739.1,358.21c-0.02-1.18,0.4-2.21,1.28-3.07c0.87-0.86,1.91-1.28,3.1-1.26c1.21-0.02,2.25,0.4,3.13,1.27
			s1.31,1.89,1.28,3.06c0.02,1.18-0.41,2.21-1.28,3.08s-1.92,1.29-3.13,1.27c-1.19,0.02-2.23-0.4-3.1-1.28
			C739.5,360.4,739.08,359.38,739.1,358.21z M746.06,358.23c0-0.77-0.25-1.41-0.74-1.93c-0.5-0.52-1.1-0.79-1.82-0.79
			c-0.73,0-1.35,0.26-1.84,0.79c-0.5,0.52-0.74,1.17-0.74,1.93c0,0.77,0.25,1.41,0.73,1.92c0.49,0.51,1.1,0.77,1.83,0.77
			s1.35-0.26,1.84-0.78C745.81,359.62,746.06,358.98,746.06,358.23z"/>
		<path class="st1" d="M754.66,354.07v1.57h-0.54c-0.72,0-1.31,0.2-1.76,0.61c-0.45,0.41-0.68,0.97-0.68,1.69v4.43h-1.77v-8.3h1.66
			v1.08c0.62-0.78,1.42-1.17,2.42-1.17C754.21,353.99,754.43,354.01,754.66,354.07z"/>
		<path class="st1" d="M761.18,360.86v1.5c-0.59,0.12-1.08,0.19-1.47,0.19c-0.97,0-1.72-0.24-2.25-0.73
			c-0.54-0.48-0.8-1.21-0.8-2.16v-4.05h-1.35v-1.54h1.35v-2.18h1.79v2.18h2.47v1.54h-2.47v3.9c0,0.52,0.13,0.89,0.4,1.11
			s0.68,0.33,1.24,0.33C760.27,360.95,760.64,360.92,761.18,360.86z"/>
		<path class="st1" d="M763,351.81c-0.24-0.22-0.35-0.5-0.35-0.83c0-0.33,0.12-0.6,0.35-0.84c0.24-0.23,0.52-0.35,0.86-0.35
			c0.33,0,0.61,0.12,0.84,0.35c0.24,0.23,0.35,0.51,0.35,0.84c0,0.33-0.12,0.6-0.35,0.83c-0.24,0.23-0.52,0.34-0.84,0.34
			C763.53,352.14,763.24,352.03,763,351.81z M762.97,362.37v-8.3h1.77v8.3H762.97z"/>
		<path class="st1" d="M774.56,357.18v5.19h-1.77v-4.95c0-0.57-0.17-1.04-0.5-1.39c-0.33-0.36-0.77-0.53-1.31-0.53
			c-0.55,0-1,0.18-1.36,0.54c-0.35,0.36-0.53,0.82-0.53,1.39v4.95h-1.77v-8.3h1.66v0.81c0.63-0.67,1.46-1,2.48-1
			c0.96,0,1.71,0.3,2.27,0.9C774.28,355.38,774.56,356.18,774.56,357.18z"/>
		<path class="st1" d="M783.53,354.07h1.64v7.43c0,1.29-0.38,2.3-1.12,3.02c-0.75,0.71-1.76,1.07-3.03,1.07
			c-1.53,0-2.86-0.52-3.99-1.57l0.98-1.23c0.98,0.79,1.95,1.18,2.91,1.18c0.77,0,1.37-0.2,1.82-0.61c0.44-0.41,0.67-0.99,0.67-1.76
			v-0.59c-0.65,0.79-1.59,1.18-2.8,1.18c-1.16,0-2.12-0.39-2.89-1.17c-0.77-0.78-1.15-1.78-1.15-2.98s0.38-2.2,1.15-2.98
			c0.77-0.78,1.73-1.17,2.89-1.17c1.32,0,2.3,0.46,2.94,1.37V354.07z M783.41,358.02c0-0.81-0.24-1.44-0.71-1.88
			c-0.47-0.45-1.07-0.67-1.79-0.67s-1.32,0.24-1.81,0.71s-0.73,1.09-0.73,1.86c0,0.78,0.24,1.41,0.73,1.89
			c0.5,0.47,1.1,0.71,1.81,0.71c0.69,0,1.27-0.22,1.76-0.68C783.17,359.51,783.41,358.86,783.41,358.02z"/>
		<path class="st1" d="M787.75,365.37l0.17-4.8h2.06l-0.79,4.8H787.75z"/>
		<path class="st1" d="M797.32,362.37v-11.15h1.79v9.54h5.1v1.61H797.32z"/>
		<path class="st1" d="M813.3,358.8h-6.18c0.11,0.68,0.41,1.21,0.9,1.6c0.49,0.39,1.09,0.58,1.8,0.58c0.88,0,1.68-0.33,2.42-0.98
			l0.84,1.22c-0.94,0.89-2.04,1.33-3.31,1.33c-1.26,0-2.32-0.41-3.18-1.24c-0.86-0.83-1.28-1.86-1.28-3.08
			c-0.02-1.19,0.39-2.22,1.25-3.08c0.86-0.86,1.87-1.28,3.04-1.26c1.09,0,2,0.36,2.74,1.09c0.73,0.73,1.1,1.63,1.1,2.71
			C813.44,358.01,813.39,358.38,813.3,358.8z M807.15,357.42h4.51c-0.01-0.62-0.22-1.11-0.63-1.48c-0.41-0.37-0.91-0.55-1.5-0.55
			c-0.59,0-1.1,0.18-1.53,0.55C807.57,356.3,807.29,356.8,807.15,357.42z"/>
		<path class="st1" d="M821.97,354.07h1.64v7.43c0,1.29-0.38,2.3-1.12,3.02c-0.75,0.71-1.76,1.07-3.03,1.07
			c-1.53,0-2.86-0.52-3.99-1.57l0.98-1.23c0.98,0.79,1.95,1.18,2.91,1.18c0.77,0,1.37-0.2,1.82-0.61c0.44-0.41,0.67-0.99,0.67-1.76
			v-0.59c-0.65,0.79-1.59,1.18-2.8,1.18c-1.16,0-2.12-0.39-2.89-1.17c-0.77-0.78-1.15-1.78-1.15-2.98s0.38-2.2,1.15-2.98
			c0.77-0.78,1.73-1.17,2.89-1.17c1.32,0,2.3,0.46,2.94,1.37V354.07z M821.85,358.02c0-0.81-0.24-1.44-0.71-1.88
			c-0.47-0.45-1.07-0.67-1.79-0.67s-1.32,0.24-1.81,0.71s-0.73,1.09-0.73,1.86c0,0.78,0.24,1.41,0.73,1.89
			c0.5,0.47,1.1,0.71,1.81,0.71c0.69,0,1.27-0.22,1.76-0.68C821.6,359.51,821.85,358.86,821.85,358.02z"/>
		<path class="st1" d="M832.76,357.35v5.02h-1.66v-0.93c-0.62,0.74-1.5,1.12-2.65,1.12c-0.87,0-1.57-0.22-2.09-0.66
			c-0.53-0.44-0.79-1.02-0.79-1.74s0.28-1.3,0.83-1.72s1.29-0.64,2.23-0.64h2.35v-0.54c0-0.57-0.16-1.01-0.46-1.32
			c-0.31-0.3-0.75-0.46-1.31-0.46c-0.84,0-1.61,0.41-2.3,1.23l-1.03-1.05c0.81-1.18,1.98-1.77,3.5-1.77c1.04,0,1.86,0.3,2.47,0.91
			C832.46,355.4,832.76,356.26,832.76,357.35z M830.97,359.22v-0.15h-2.13c-0.98,0-1.47,0.34-1.47,1.01c0,0.34,0.13,0.61,0.4,0.8
			c0.26,0.2,0.62,0.3,1.06,0.3c0.61,0,1.12-0.19,1.53-0.56S830.97,359.79,830.97,359.22z"/>
		<path class="st1" d="M835.23,362.37v-12.67H837v12.67H835.23z"/>
		<path class="st1" d="M839.59,365.37l0.17-4.8h2.06l-0.79,4.8H839.59z"/>
		<path class="st1" d="M849.15,362.37v-11.15h4.07c1.13,0,2.04,0.32,2.74,0.95c0.7,0.64,1.05,1.46,1.05,2.46
			c0,1-0.35,1.83-1.06,2.47c-0.7,0.64-1.61,0.96-2.73,0.96h-2.28v4.31H849.15z M850.94,356.47h2.25c0.62,0,1.1-0.16,1.45-0.49
			c0.35-0.33,0.52-0.77,0.52-1.33s-0.17-1.01-0.52-1.34c-0.35-0.33-0.83-0.5-1.45-0.5h-2.25V356.47z"/>
		<path class="st1" d="M863.61,354.07v1.57h-0.54c-0.72,0-1.31,0.2-1.76,0.61c-0.45,0.41-0.68,0.97-0.68,1.69v4.43h-1.77v-8.3h1.66
			v1.08c0.62-0.78,1.42-1.17,2.42-1.17C863.16,353.99,863.39,354.01,863.61,354.07z"/>
		<path class="st1" d="M864.53,358.21c-0.02-1.18,0.4-2.21,1.28-3.07c0.87-0.86,1.91-1.28,3.1-1.26c1.21-0.02,2.25,0.4,3.13,1.27
			s1.31,1.89,1.28,3.06c0.02,1.18-0.41,2.21-1.28,3.08s-1.92,1.29-3.13,1.27c-1.19,0.02-2.23-0.4-3.1-1.28
			C864.93,360.4,864.5,359.38,864.53,358.21z M871.49,358.23c0-0.77-0.25-1.41-0.74-1.93c-0.5-0.52-1.1-0.79-1.82-0.79
			c-0.73,0-1.35,0.26-1.84,0.79c-0.5,0.52-0.74,1.17-0.74,1.93c0,0.77,0.25,1.41,0.73,1.92c0.49,0.51,1.1,0.77,1.83,0.77
			s1.35-0.26,1.84-0.78C871.24,359.62,871.49,358.98,871.49,358.23z"/>
		<path class="st1" d="M873.02,365.44v-1.5c0.27,0.03,0.51,0.05,0.73,0.05c0.54,0,0.94-0.11,1.2-0.34c0.26-0.23,0.39-0.59,0.39-1.1
			v-8.48h1.77v8.63c0,0.96-0.26,1.68-0.77,2.16s-1.24,0.73-2.17,0.73C873.71,365.59,873.33,365.54,873.02,365.44z M875.37,351.81
			c-0.24-0.22-0.35-0.5-0.35-0.83c0-0.33,0.12-0.6,0.35-0.84c0.24-0.23,0.52-0.35,0.86-0.35c0.33,0,0.61,0.12,0.84,0.35
			c0.24,0.23,0.35,0.51,0.35,0.84c0,0.33-0.12,0.6-0.35,0.83c-0.24,0.23-0.52,0.34-0.84,0.34
			C875.9,352.14,875.61,352.03,875.37,351.81z"/>
		<path class="st1" d="M887.15,358.8h-6.18c0.11,0.68,0.41,1.21,0.9,1.6c0.49,0.39,1.09,0.58,1.8,0.58c0.88,0,1.68-0.33,2.42-0.98
			l0.84,1.22c-0.94,0.89-2.04,1.33-3.31,1.33c-1.26,0-2.32-0.41-3.18-1.24c-0.86-0.83-1.28-1.86-1.28-3.08
			c-0.02-1.19,0.39-2.22,1.25-3.08c0.86-0.86,1.87-1.28,3.04-1.26c1.09,0,2,0.36,2.74,1.09c0.73,0.73,1.1,1.63,1.1,2.71
			C887.28,358.01,887.24,358.38,887.15,358.8z M881,357.42h4.51c-0.01-0.62-0.22-1.11-0.63-1.48c-0.41-0.37-0.91-0.55-1.5-0.55
			c-0.59,0-1.1,0.18-1.53,0.55C881.42,356.3,881.13,356.8,881,357.42z"/>
		<path class="st1" d="M888.79,358.21c-0.02-1.18,0.41-2.21,1.28-3.07c0.88-0.86,1.92-1.28,3.11-1.26c1.55,0,2.72,0.64,3.5,1.93
			l-1.25,0.98c-0.59-0.84-1.33-1.27-2.23-1.27c-0.74,0-1.36,0.26-1.86,0.78c-0.5,0.52-0.74,1.16-0.74,1.91
			c0,0.77,0.25,1.41,0.74,1.93c0.5,0.52,1.12,0.78,1.86,0.78c0.88,0,1.62-0.42,2.23-1.25l1.25,0.96c-0.37,0.61-0.86,1.08-1.47,1.42
			s-1.28,0.51-2.03,0.51c-1.23,0-2.27-0.42-3.12-1.27C889.21,360.44,888.79,359.41,888.79,358.21z"/>
		<path class="st1" d="M903.57,360.86v1.5c-0.59,0.12-1.08,0.19-1.47,0.19c-0.97,0-1.72-0.24-2.25-0.73
			c-0.54-0.48-0.8-1.21-0.8-2.16v-4.05h-1.35v-1.54h1.35v-2.18h1.79v2.18h2.47v1.54h-2.47v3.9c0,0.52,0.13,0.89,0.4,1.11
			s0.68,0.33,1.24,0.33C902.66,360.95,903.03,360.92,903.57,360.86z"/>
		<path class="st1" d="M916.85,362.37l-0.79-1.86h-5.02l-0.79,1.86h-1.91l4.92-11.34h0.61l4.92,11.34H916.85z M915.41,358.97
			l-1.86-4.61l-1.88,4.61H915.41z"/>
		<path class="st1" d="M926.46,349.69h1.79v12.67h-1.66v-1.18c-0.64,0.91-1.61,1.37-2.91,1.37c-1.16,0-2.13-0.41-2.9-1.24
			c-0.77-0.83-1.16-1.86-1.16-3.08c-0.02-1.22,0.36-2.25,1.15-3.1s1.76-1.26,2.91-1.24c1.19,0,2.12,0.4,2.77,1.2V349.69z
			 M925.77,360.22c0.48-0.47,0.73-1.14,0.73-1.99c0-0.86-0.25-1.52-0.74-2c-0.49-0.48-1.08-0.72-1.77-0.72
			c-0.72,0-1.33,0.25-1.82,0.76c-0.49,0.51-0.73,1.15-0.73,1.94c0,0.79,0.24,1.44,0.73,1.95c0.48,0.51,1.09,0.77,1.82,0.77
			C924.69,360.93,925.28,360.69,925.77,360.22z"/>
		<path class="st1" d="M936.6,354.07h1.89l-4,8.48h-0.61l-4.02-8.48h1.89l2.43,5.49L936.6,354.07z"/>
		<path class="st1" d="M940.13,351.81c-0.24-0.22-0.35-0.5-0.35-0.83c0-0.33,0.12-0.6,0.35-0.84c0.24-0.23,0.52-0.35,0.86-0.35
			c0.33,0,0.61,0.12,0.84,0.35c0.24,0.23,0.35,0.51,0.35,0.84c0,0.33-0.12,0.6-0.35,0.83c-0.24,0.23-0.52,0.34-0.84,0.34
			C940.65,352.14,940.37,352.03,940.13,351.81z M940.1,362.37v-8.3h1.77v8.3H940.1z"/>
		<path class="st1" d="M943.66,360.95l1.01-1.12c0.75,0.79,1.53,1.18,2.33,1.18c0.39,0,0.71-0.08,0.96-0.25
			c0.25-0.16,0.37-0.39,0.37-0.68c0-0.22-0.08-0.41-0.25-0.55c-0.17-0.14-0.47-0.3-0.91-0.48l-0.85-0.35
			c-0.75-0.32-1.3-0.66-1.65-1.02c-0.34-0.37-0.52-0.83-0.52-1.39c0-0.73,0.27-1.32,0.82-1.75s1.25-0.65,2.1-0.65
			c1.19,0,2.15,0.43,2.87,1.28l-0.96,1.1c-0.54-0.56-1.19-0.84-1.94-0.84c-0.75,0-1.13,0.26-1.13,0.79c0,0.2,0.08,0.37,0.24,0.51
			c0.16,0.14,0.45,0.3,0.86,0.46l0.79,0.32c0.8,0.34,1.38,0.7,1.73,1.07c0.36,0.38,0.53,0.85,0.53,1.43c0,0.8-0.29,1.42-0.88,1.88
			c-0.59,0.44-1.32,0.66-2.2,0.66C945.6,362.55,944.48,362.02,943.66,360.95z"/>
		<path class="st1" d="M951.6,358.21c-0.02-1.18,0.4-2.21,1.28-3.07c0.87-0.86,1.91-1.28,3.1-1.26c1.21-0.02,2.25,0.4,3.13,1.27
			s1.31,1.89,1.28,3.06c0.02,1.18-0.41,2.21-1.28,3.08s-1.92,1.29-3.13,1.27c-1.19,0.02-2.23-0.4-3.1-1.28
			C952,360.4,951.58,359.38,951.6,358.21z M958.56,358.23c0-0.77-0.25-1.41-0.74-1.93c-0.5-0.52-1.1-0.79-1.82-0.79
			c-0.73,0-1.35,0.26-1.84,0.79c-0.5,0.52-0.74,1.17-0.74,1.93c0,0.77,0.25,1.41,0.73,1.92c0.49,0.51,1.1,0.77,1.83,0.77
			s1.35-0.26,1.84-0.78C958.31,359.62,958.56,358.98,958.56,358.23z"/>
		<path class="st1" d="M967.16,354.07v1.57h-0.54c-0.72,0-1.31,0.2-1.76,0.61c-0.45,0.41-0.68,0.97-0.68,1.69v4.43h-1.77v-8.3h1.66
			v1.08c0.62-0.78,1.42-1.17,2.42-1.17C966.71,353.99,966.93,354.01,967.16,354.07z"/>
		<path class="st1" d="M974.53,354.07h1.89l-4.04,9.24c-0.35,0.79-0.77,1.37-1.25,1.73s-1.08,0.55-1.79,0.55
			c-0.47,0-0.93-0.06-1.37-0.17v-1.5c0.46,0.04,0.79,0.07,0.98,0.07c0.86,0,1.46-0.41,1.81-1.22l0.34-0.78l-3.31-7.92h1.91
			l2.38,6.03L974.53,354.07z"/>
		<path class="st1" d="M990.22,358.8h-6.18c0.11,0.68,0.41,1.21,0.9,1.6c0.49,0.39,1.09,0.58,1.8,0.58c0.88,0,1.68-0.33,2.42-0.98
			l0.84,1.22c-0.94,0.89-2.04,1.33-3.31,1.33c-1.26,0-2.32-0.41-3.18-1.24c-0.86-0.83-1.28-1.86-1.28-3.08
			c-0.02-1.19,0.39-2.22,1.25-3.08c0.86-0.86,1.87-1.28,3.04-1.26c1.09,0,2,0.36,2.74,1.09c0.73,0.73,1.1,1.63,1.1,2.71
			C990.36,358.01,990.31,358.38,990.22,358.8z M984.07,357.42h4.51c-0.01-0.62-0.22-1.11-0.63-1.48c-0.41-0.37-0.91-0.55-1.5-0.55
			c-0.59,0-1.1,0.18-1.53,0.55C984.49,356.3,984.21,356.8,984.07,357.42z"/>
		<path class="st1" d="M997.32,360.86v1.5c-0.59,0.12-1.08,0.19-1.47,0.19c-0.97,0-1.72-0.24-2.25-0.73
			c-0.54-0.48-0.8-1.21-0.8-2.16v-4.05h-1.35v-1.54h1.35v-2.18h1.79v2.18h2.47v1.54h-2.47v3.9c0,0.52,0.13,0.89,0.4,1.11
			s0.68,0.33,1.24,0.33C996.41,360.95,996.78,360.92,997.32,360.86z"/>
		<path class="st1" d="M998.43,358.21c-0.02-1.18,0.41-2.21,1.28-3.07c0.88-0.86,1.92-1.28,3.11-1.26c1.55,0,2.72,0.64,3.5,1.93
			l-1.25,0.98c-0.59-0.84-1.33-1.27-2.23-1.27c-0.74,0-1.36,0.26-1.86,0.78c-0.5,0.52-0.74,1.16-0.74,1.91
			c0,0.77,0.25,1.41,0.74,1.93c0.5,0.52,1.12,0.78,1.86,0.78c0.88,0,1.62-0.42,2.23-1.25l1.25,0.96c-0.37,0.61-0.86,1.08-1.47,1.42
			s-1.28,0.51-2.03,0.51c-1.23,0-2.27-0.42-3.12-1.27C998.86,360.44,998.43,359.41,998.43,358.21z"/>
		<path class="st1" d="M1008.43,362.18c-0.26-0.25-0.39-0.56-0.39-0.93c0-0.37,0.13-0.68,0.39-0.94c0.26-0.25,0.57-0.38,0.95-0.38
			c0.37,0,0.68,0.12,0.93,0.37c0.25,0.25,0.37,0.56,0.37,0.95c0,0.37-0.13,0.68-0.37,0.93c-0.25,0.25-0.56,0.37-0.93,0.37
			C1009.01,362.55,1008.69,362.43,1008.43,362.18z"/>
	</g>
	<g>
		<path class="st2" d="M709.33,267.45v-25.74H719c2.7,0,4.93,0.77,6.67,2.3c1.74,1.54,2.61,3.54,2.61,6.01
			c0,2.44-0.87,4.45-2.61,6.01c-1.74,1.56-3.96,2.34-6.67,2.34h-4.41v9.09H709.33z M714.6,253.76H719c1.22,0,2.18-0.34,2.87-1.03
			c0.69-0.69,1.03-1.59,1.03-2.71c0-1.09-0.36-1.98-1.07-2.65c-0.72-0.68-1.66-1.01-2.83-1.01h-4.41V253.76z"/>
		<path class="st2" d="M754.22,267.45h-5.93l-6.67-9.09h-3.86v9.09h-5.26v-25.74h9.67c2.7,0,4.93,0.77,6.67,2.3
			c1.74,1.54,2.61,3.54,2.61,6.01c0,1.61-0.4,3.06-1.19,4.35c-0.79,1.29-1.91,2.28-3.33,2.98L754.22,267.45z M737.76,246.35v7.37
			h4.41c1.22,0,2.18-0.34,2.87-1.01c0.69-0.68,1.03-1.57,1.03-2.69c0-1.09-0.36-1.98-1.07-2.65c-0.72-0.68-1.66-1.01-2.83-1.01
			H737.76z"/>
		<path class="st2" d="M755.43,254.58c-0.05-3.67,1.28-6.83,4-9.48c2.72-2.65,5.93-3.94,9.65-3.86c3.72-0.08,6.95,1.21,9.69,3.86
			c2.74,2.65,4.09,5.81,4.04,9.48c0.05,3.67-1.29,6.83-4.04,9.48c-2.74,2.65-5.97,3.94-9.69,3.86c-3.72,0.08-6.94-1.21-9.65-3.86
			C756.71,261.41,755.38,258.25,755.43,254.58z M777.39,254.58c0-2.44-0.79-4.47-2.36-6.06s-3.54-2.4-5.91-2.4
			c-2.39,0-4.37,0.79-5.93,2.38c-1.56,1.59-2.34,3.61-2.34,6.08c0,2.47,0.78,4.5,2.34,6.08c1.56,1.59,3.54,2.38,5.93,2.38
			c2.37,0,4.33-0.79,5.91-2.38S777.39,257.05,777.39,254.58z"/>
		<path class="st2" d="M787.25,267.45v-25.74h16.93v4.76h-11.66v6.44h9.56v4.76h-9.56v9.79H787.25z"/>
		<path class="st2" d="M808.12,267.45v-25.74h17.32v4.76h-12.05v5.23h8.85v4.48h-8.85v6.51h12.52v4.76H808.12z"/>
		<path class="st2" d="M828.67,262.22l3.63-2.73c1.82,2.5,3.93,3.74,6.32,3.74c1.14,0,2.04-0.25,2.69-0.76
			c0.65-0.51,0.98-1.2,0.98-2.09c0-0.73-0.22-1.29-0.66-1.7c-0.44-0.4-1.31-0.9-2.61-1.5l-2.77-1.25c-4.16-1.85-6.24-4.32-6.24-7.41
			c0-2.18,0.81-3.95,2.42-5.28c1.61-1.34,3.65-2.01,6.12-2.01c1.92,0,3.61,0.44,5.07,1.31c1.46,0.87,2.6,2.06,3.43,3.57l-3.59,2.77
			c-1.33-1.98-2.96-2.96-4.91-2.96c-0.94,0-1.7,0.22-2.3,0.66c-0.6,0.44-0.9,1.05-0.9,1.83c0,0.65,0.21,1.18,0.64,1.58
			s1.21,0.86,2.36,1.38l2.92,1.29c2.21,0.99,3.82,2.06,4.84,3.22c1.01,1.16,1.52,2.59,1.52,4.31c0,2.31-0.85,4.18-2.54,5.6
			c-1.69,1.42-3.85,2.13-6.47,2.13c-2.16,0-4.1-0.51-5.83-1.52C831.06,265.38,829.69,263.99,828.67,262.22z"/>
		<path class="st2" d="M850.32,262.22l3.63-2.73c1.82,2.5,3.93,3.74,6.32,3.74c1.14,0,2.04-0.25,2.69-0.76
			c0.65-0.51,0.98-1.2,0.98-2.09c0-0.73-0.22-1.29-0.66-1.7c-0.44-0.4-1.31-0.9-2.61-1.5l-2.77-1.25c-4.16-1.85-6.24-4.32-6.24-7.41
			c0-2.18,0.81-3.95,2.42-5.28c1.61-1.34,3.65-2.01,6.12-2.01c1.92,0,3.61,0.44,5.07,1.31c1.46,0.87,2.6,2.06,3.43,3.57l-3.59,2.77
			c-1.33-1.98-2.96-2.96-4.91-2.96c-0.94,0-1.7,0.22-2.3,0.66c-0.6,0.44-0.9,1.05-0.9,1.83c0,0.65,0.21,1.18,0.64,1.58
			s1.21,0.86,2.36,1.38l2.92,1.29c2.21,0.99,3.82,2.06,4.84,3.22c1.01,1.16,1.52,2.59,1.52,4.31c0,2.31-0.85,4.18-2.54,5.6
			c-1.69,1.42-3.85,2.13-6.47,2.13c-2.16,0-4.1-0.51-5.83-1.52C852.7,265.38,851.33,263.99,850.32,262.22z"/>
		<path class="st2" d="M873.91,267.45v-25.74h5.26v25.74H873.91z"/>
		<path class="st2" d="M883.58,254.58c-0.05-3.67,1.28-6.83,4-9.48c2.72-2.65,5.93-3.94,9.65-3.86c3.72-0.08,6.95,1.21,9.69,3.86
			c2.74,2.65,4.09,5.81,4.04,9.48c0.05,3.67-1.29,6.83-4.04,9.48c-2.74,2.65-5.97,3.94-9.69,3.86c-3.72,0.08-6.94-1.21-9.65-3.86
			C884.86,261.41,883.53,258.25,883.58,254.58z M905.54,254.58c0-2.44-0.79-4.47-2.36-6.06s-3.54-2.4-5.91-2.4
			c-2.39,0-4.37,0.79-5.93,2.38c-1.56,1.59-2.34,3.61-2.34,6.08c0,2.47,0.78,4.5,2.34,6.08c1.56,1.59,3.54,2.38,5.93,2.38
			c2.37,0,4.33-0.79,5.91-2.38S905.54,257.05,905.54,254.58z"/>
		<path class="st2" d="M932.06,241.71h5.26v26.21h-1.75l-14.9-15.91v15.44h-5.26v-26.21h1.72l14.94,15.83V241.71z"/>
		<path class="st2" d="M959.83,267.45l-1.44-3.35h-10.53l-1.44,3.35h-5.66l11.5-26.21h1.75l11.47,26.21H959.83z M956.55,259.77
			l-3.43-8.7l-3.43,8.7H956.55z"/>
		<path class="st2" d="M968.99,267.45v-25.74h5.26v20.98h11.27v4.76H968.99z"/>
		<path class="st2" d="M996.64,262.22l3.63-2.73c1.82,2.5,3.93,3.74,6.32,3.74c1.14,0,2.04-0.25,2.69-0.76
			c0.65-0.51,0.98-1.2,0.98-2.09c0-0.73-0.22-1.29-0.66-1.7c-0.44-0.4-1.31-0.9-2.61-1.5l-2.77-1.25c-4.16-1.85-6.24-4.32-6.24-7.41
			c0-2.18,0.81-3.95,2.42-5.28c1.61-1.34,3.65-2.01,6.12-2.01c1.92,0,3.61,0.44,5.07,1.31c1.46,0.87,2.6,2.06,3.43,3.57l-3.59,2.77
			c-1.33-1.98-2.96-2.96-4.91-2.96c-0.94,0-1.7,0.22-2.3,0.66c-0.6,0.44-0.9,1.05-0.9,1.83c0,0.65,0.21,1.18,0.64,1.58
			s1.21,0.86,2.36,1.38l2.92,1.29c2.21,0.99,3.82,2.06,4.84,3.22c1.01,1.16,1.52,2.59,1.52,4.31c0,2.31-0.85,4.18-2.54,5.6
			c-1.69,1.42-3.85,2.13-6.47,2.13c-2.16,0-4.1-0.51-5.83-1.52C999.03,265.38,997.66,263.99,996.64,262.22z"/>
		<path class="st2" d="M1020.24,267.45v-25.74h17.32v4.76h-12.05v5.23h8.85v4.48h-8.85v6.51h12.52v4.76H1020.24z"/>
		<path class="st2" d="M1064.31,267.45h-5.93l-6.67-9.09h-3.86v9.09h-5.26v-25.74h9.67c2.7,0,4.93,0.77,6.67,2.3
			c1.74,1.54,2.61,3.54,2.61,6.01c0,1.61-0.4,3.06-1.19,4.35c-0.79,1.29-1.91,2.28-3.33,2.98L1064.31,267.45z M1047.85,246.35v7.37
			h4.41c1.22,0,2.18-0.34,2.87-1.01c0.69-0.68,1.03-1.57,1.03-2.69c0-1.09-0.36-1.98-1.07-2.65c-0.72-0.68-1.66-1.01-2.83-1.01
			H1047.85z"/>
		<path class="st2" d="M1082.56,241.71h5.93l-11.47,26.21h-1.75l-11.5-26.21h5.97l6.44,15.6L1082.56,241.71z"/>
		<path class="st2" d="M1092,267.45v-25.74h5.26v25.74H1092z"/>
		<path class="st2" d="M1101.67,254.58c-0.05-3.69,1.29-6.86,4.02-9.5c2.73-2.64,5.97-3.92,9.71-3.84c2.44,0,4.66,0.57,6.65,1.7
			s3.56,2.7,4.7,4.7l-3.98,2.81c-1.85-2.89-4.3-4.33-7.37-4.33c-2.39,0-4.38,0.81-5.95,2.42c-1.57,1.61-2.36,3.64-2.36,6.08
			c0,2.44,0.79,4.46,2.36,6.04c1.57,1.59,3.55,2.38,5.95,2.38c3.07,0,5.52-1.44,7.37-4.33l3.98,2.81c-1.12,2-2.68,3.57-4.68,4.7
			s-4.24,1.7-6.71,1.7c-3.77,0.08-7.01-1.2-9.73-3.84S1101.59,258.27,1101.67,254.58z"/>
		<path class="st2" d="M1131.23,267.45v-25.74h17.32v4.76h-12.05v5.23h8.85v4.48h-8.85v6.51h12.52v4.76H1131.23z"/>
		<path class="st2" d="M1151.78,262.22l3.63-2.73c1.82,2.5,3.93,3.74,6.32,3.74c1.14,0,2.04-0.25,2.69-0.76
			c0.65-0.51,0.98-1.2,0.98-2.09c0-0.73-0.22-1.29-0.66-1.7c-0.44-0.4-1.31-0.9-2.61-1.5l-2.77-1.25c-4.16-1.85-6.24-4.32-6.24-7.41
			c0-2.18,0.81-3.95,2.42-5.28c1.61-1.34,3.65-2.01,6.12-2.01c1.92,0,3.61,0.44,5.07,1.31c1.46,0.87,2.6,2.06,3.43,3.57l-3.59,2.77
			c-1.33-1.98-2.96-2.96-4.91-2.96c-0.94,0-1.7,0.22-2.3,0.66c-0.6,0.44-0.9,1.05-0.9,1.83c0,0.65,0.21,1.18,0.64,1.58
			s1.21,0.86,2.36,1.38l2.92,1.29c2.21,0.99,3.82,2.06,4.84,3.22c1.01,1.16,1.52,2.59,1.52,4.31c0,2.31-0.85,4.18-2.54,5.6
			c-1.69,1.42-3.85,2.13-6.47,2.13c-2.16,0-4.1-0.51-5.83-1.52C1154.17,265.38,1152.8,263.99,1151.78,262.22z"/>
	</g>
	<g>
		<path class="st3" d="M705.81,185.29c0-6.12,1.51-11.02,4.53-14.71c3.02-3.77,7.46-5.65,13.31-5.65s10.27,1.86,13.24,5.59
			c3.02,3.69,4.53,8.61,4.53,14.77c0,6.24-1.52,11.31-4.57,15.22c-3.04,3.91-7.45,5.86-13.2,5.86c-5.76,0-10.17-1.96-13.24-5.89
			C707.35,196.55,705.81,191.49,705.81,185.29z M733.64,185.35c0-9.68-3.33-14.52-9.98-14.52c-6.7,0-10.05,4.84-10.05,14.52
			c0,10.09,3.35,15.13,10.05,15.13C730.31,200.48,733.64,195.43,733.64,185.35z"/>
		<path class="st3" d="M780.72,192.82c0,3.97-1.66,7.22-4.99,9.75c-3.33,2.53-7.35,3.8-12.07,3.8c-3.68,0-6.94-0.78-9.77-2.34
			s-5.05-3.68-6.66-6.35l5.24-3.16c3.02,3.97,6.68,5.96,10.97,5.96c2.83,0,5.13-0.7,6.9-2.1c1.77-1.4,2.66-3.23,2.66-5.5
			s-0.93-4.01-2.8-5.23c-1.86-1.21-4.52-1.82-7.96-1.82h-5.17v-1.76l10.9-12.58h-17.42v-5.89h29.1v1.76l-11.33,13.13
			c3.4,0.49,6.32,1.8,8.78,3.95C779.51,186.54,780.72,189.34,780.72,192.82z"/>
	</g>
	<g>
		<path class="st4" d="M484.25,265.53c0,1.73-1.41,3.14-3.14,3.14c-1.73,0-3.14-1.41-3.14-3.14c0-1.73,1.41-3.14,3.14-3.14
			C482.85,262.39,484.25,263.8,484.25,265.53 M482.7,265.53c0-0.87-0.71-1.58-1.58-1.58c-0.87,0-1.58,0.71-1.58,1.58
			c0,0.87,0.71,1.58,1.58,1.58C481.99,267.11,482.7,266.4,482.7,265.53"/>
		<path class="st4" d="M536.99,150.67h-17.77c-0.43,0-0.78,0.35-0.78,0.78c0,0.43,0.35,0.78,0.78,0.78h17.77
			c0.43,0,0.78-0.35,0.78-0.78C537.77,151.02,537.42,150.67,536.99,150.67"/>
		<path class="st4" d="M513.57,150.66h-3.47c-0.43,0-0.78,0.35-0.78,0.78c0,0.43,0.35,0.78,0.78,0.78h3.47
			c0.43,0,0.78-0.35,0.78-0.78C514.34,151.01,514,150.66,513.57,150.66"/>
		<path class="st4" d="M528.64,156.86c0,0.43-0.35,0.78-0.78,0.78h-2.22c-0.43,0-0.78-0.35-0.78-0.78c0-0.43,0.35-0.78,0.78-0.78
			h2.22C528.29,156.08,528.64,156.43,528.64,156.86 M522.53,156.86c0,0.43-0.35,0.78-0.78,0.78h-3.89c-0.43,0-0.78-0.35-0.78-0.78
			c0-0.43,0.35-0.78,0.78-0.78h3.89C522.19,156.08,522.53,156.43,522.53,156.86 M514.76,156.86c0,0.43-0.35,0.78-0.78,0.78h-3.89
			c-0.43,0-0.78-0.35-0.78-0.78c0-0.43,0.35-0.78,0.78-0.78h3.89C514.41,156.08,514.76,156.43,514.76,156.86"/>
		<path class="st4" d="M248.72,202.63c-0.43,0-0.78,0.35-0.78,0.78v1.8c0,0.43,0.35,0.78,0.78,0.78c0.43,0,0.78-0.35,0.78-0.78v-1.8
			C249.5,202.98,249.15,202.63,248.72,202.63"/>
		<path class="st4" d="M246.69,200.82h-1.8c-0.43,0-0.78,0.35-0.78,0.78c0,0.43,0.35,0.78,0.78,0.78h1.8c0.43,0,0.78-0.35,0.78-0.78
			C247.46,201.17,247.12,200.82,246.69,200.82"/>
		<path class="st4" d="M248.72,197.09c-0.43,0-0.78,0.35-0.78,0.78v1.8c0,0.43,0.35,0.78,0.78,0.78c0.43,0,0.78-0.35,0.78-0.78v-1.8
			C249.5,197.43,249.15,197.09,248.72,197.09"/>
		<path class="st4" d="M252.56,200.7h-1.8c-0.43,0-0.78,0.35-0.78,0.78c0,0.43,0.35,0.78,0.78,0.78h1.8c0.43,0,0.78-0.35,0.78-0.78
			C253.34,201.05,252.99,200.7,252.56,200.7"/>
		<path class="st4" d="M444.23,152.24c-0.43,0-0.78,0.35-0.78,0.78v1.8c0,0.43,0.35,0.78,0.78,0.78c0.43,0,0.78-0.35,0.78-0.78v-1.8
			C445.01,152.58,444.66,152.24,444.23,152.24"/>
		<path class="st4" d="M442.2,150.43h-1.8c-0.43,0-0.78,0.35-0.78,0.78c0,0.43,0.35,0.78,0.78,0.78h1.8c0.43,0,0.78-0.35,0.78-0.78
			C442.98,150.78,442.63,150.43,442.2,150.43"/>
		<path class="st4" d="M444.23,146.69c-0.43,0-0.78,0.35-0.78,0.78v1.8c0,0.43,0.35,0.78,0.78,0.78c0.43,0,0.78-0.35,0.78-0.78v-1.8
			C445.01,147.04,444.66,146.69,444.23,146.69"/>
		<path class="st4" d="M448.07,150.3h-1.8c-0.43,0-0.78,0.35-0.78,0.78c0,0.43,0.35,0.78,0.78,0.78h1.8c0.43,0,0.78-0.35,0.78-0.78
			C448.85,150.65,448.5,150.3,448.07,150.3"/>
		<path class="st4" d="M371.77,113.63H354c-0.43,0-0.78,0.35-0.78,0.78c0,0.43,0.35,0.78,0.78,0.78h17.77
			c0.43,0,0.78-0.35,0.78-0.78C372.54,113.98,372.2,113.63,371.77,113.63"/>
		<path class="st4" d="M348.34,113.62h-3.47c-0.43,0-0.78,0.35-0.78,0.78s0.35,0.78,0.78,0.78h3.47c0.43,0,0.78-0.35,0.78-0.78
			S348.77,113.62,348.34,113.62"/>
		<path class="st4" d="M363.42,119.82c0,0.43-0.35,0.78-0.78,0.78h-2.22c-0.43,0-0.78-0.35-0.78-0.78c0-0.43,0.35-0.78,0.78-0.78
			h2.22C363.07,119.04,363.42,119.39,363.42,119.82 M357.31,119.82c0,0.43-0.35,0.78-0.78,0.78h-3.89c-0.43,0-0.78-0.35-0.78-0.78
			c0-0.43,0.35-0.78,0.78-0.78h3.89C356.96,119.04,357.31,119.39,357.31,119.82 M349.54,119.82c0,0.43-0.35,0.78-0.78,0.78h-3.89
			c-0.43,0-0.78-0.35-0.78-0.78c0-0.43,0.35-0.78,0.78-0.78h3.89C349.19,119.04,349.54,119.39,349.54,119.82"/>
		<path class="st4" d="M562.75,195.06c0,1.52,1.23,2.75,2.74,2.75c1.52,0,2.74-1.23,2.74-2.75c0-1.52-1.23-2.74-2.74-2.74
			C563.98,192.32,562.75,193.55,562.75,195.06"/>
		<path class="st4" d="M202.93,329.55h17.77c0.43,0,0.78-0.35,0.78-0.78c0-0.43-0.35-0.78-0.78-0.78h-17.77
			c-0.43,0-0.78,0.35-0.78,0.78C202.16,329.2,202.5,329.55,202.93,329.55"/>
		<path class="st4" d="M193.81,329.55h3.47c0.43,0,0.78-0.35,0.78-0.78c0-0.43-0.35-0.78-0.78-0.78h-3.47
			c-0.43,0-0.78,0.35-0.78,0.78C193.03,329.2,193.38,329.55,193.81,329.55"/>
		<path class="st4" d="M538.66,342.19c0,0,1.06,7.57-7.78,7.4c0,0,7.6,0.08,7.4,7.18c0,0,0.68-5.59,7.66-6.84
			C545.93,349.93,540.04,351.28,538.66,342.19"/>
		<path class="st4" d="M580.89,235.39c0,0,1.06,7.57-7.78,7.4c0,0,7.6,0.08,7.4,7.18c0,0,0.68-5.59,7.66-6.84
			C588.16,243.13,582.26,244.48,580.89,235.39"/>
		<path class="st4" d="M300.38,132.88c0,0,1.06,7.57-7.78,7.4c0,0,7.6,0.08,7.4,7.18c0,0,0.68-5.59,7.65-6.84
			C307.65,140.62,301.76,141.98,300.38,132.88"/>
		<path class="st4" d="M224.25,153.79c0,0,1.06,7.57-7.78,7.4c0,0,7.6,0.08,7.4,7.18c0,0,0.68-5.59,7.65-6.84
			C231.52,161.53,225.63,162.89,224.25,153.79"/>
		<path class="st4" d="M270.39,121.43c0,0,0.37,2.64-2.71,2.58c0,0,2.65,0.03,2.58,2.5c0,0,0.24-1.95,2.67-2.38
			C272.93,124.13,270.87,124.6,270.39,121.43"/>
		<path class="st4" d="M408.89,212.41c0,0,0.37,2.64-2.71,2.58c0,0,2.65,0.03,2.58,2.5c0,0,0.24-1.95,2.67-2.38
			C411.42,215.11,409.37,215.58,408.89,212.41"/>
		<path class="st4" d="M152.28,257.52c0,0,0.37,2.64-2.71,2.58c0,0,2.65,0.03,2.58,2.5c0,0,0.24-1.95,2.67-2.38
			C154.81,260.22,152.76,260.69,152.28,257.52"/>
		<path class="st4" d="M382.56,328.67c0,0,0.37,2.64-2.71,2.58c0,0,2.65,0.03,2.58,2.5c0,0,0.24-1.95,2.67-2.38
			C385.09,331.37,383.04,331.84,382.56,328.67"/>
		<path class="st4" d="M277.77,286.13h-17.25c-2.21,0-4-1.79-4-4c0-2.16,1.73-3.93,3.88-4c0.06-3.37,2.81-6.09,6.19-6.09
			c2.1,0,4.05,1.07,5.19,2.81c2.33-0.33,4.4,1.13,4.99,3.27h1.01c2.21,0,4,1.8,4,4S279.98,286.13,277.77,286.13 M260.52,279.31
			c-1.55,0-2.82,1.27-2.82,2.82c0,1.55,1.26,2.82,2.82,2.82h17.25c1.55,0,2.82-1.27,2.82-2.82c0-1.55-1.26-2.82-2.82-2.82h-1.99
			l-0.08-0.5c-0.3-1.89-2.09-3.2-4.08-2.73l-0.44,0.1l-0.22-0.39c-0.89-1.59-2.56-2.57-4.38-2.57c-2.76,0-5.01,2.25-5.01,5.01
			c0,0.15,0.01,0.29,0.02,0.43l0.06,0.64H260.52z"/>
		<path class="st4" d="M585.55,140.13H568.3c-2.21,0-4-1.79-4-4c0-2.17,1.73-3.93,3.88-4c0.06-3.37,2.81-6.09,6.19-6.09
			c2.1,0,4.05,1.07,5.19,2.81c2.32-0.33,4.4,1.13,4.99,3.28h1.01c2.21,0,4,1.8,4,4S587.75,140.13,585.55,140.13 M568.3,133.31
			c-1.55,0-2.82,1.26-2.82,2.82s1.26,2.82,2.82,2.82h17.25c1.55,0,2.82-1.26,2.82-2.82s-1.26-2.82-2.82-2.82h-1.99l-0.08-0.5
			c-0.3-1.89-2.09-3.2-4.08-2.73l-0.44,0.1l-0.22-0.39c-0.89-1.59-2.56-2.57-4.38-2.57c-2.76,0-5.01,2.25-5.01,5.01
			c0,0.15,0.01,0.29,0.02,0.43l0.06,0.64H568.3z"/>
		<path class="st4" d="M318.41,184.18h-17.25c-2.21,0-4-1.8-4-4c0-2.17,1.73-3.93,3.87-4c0.06-3.37,2.81-6.09,6.19-6.09
			c2.1,0,4.05,1.07,5.19,2.81c2.32-0.33,4.4,1.13,4.99,3.28h1.01c2.21,0,4,1.8,4,4C322.41,182.38,320.62,184.18,318.41,184.18
			 M301.16,177.36c-1.55,0-2.82,1.26-2.82,2.82s1.26,2.82,2.82,2.82h17.25c1.55,0,2.82-1.26,2.82-2.82s-1.26-2.82-2.82-2.82h-1.99
			l-0.08-0.5c-0.3-1.89-2.09-3.2-4.08-2.73l-0.44,0.1l-0.22-0.39c-0.89-1.59-2.56-2.57-4.38-2.57c-2.76,0-5.01,2.25-5.01,5.01
			c0,0.15,0.01,0.29,0.02,0.43l0.06,0.64H301.16z"/>
		<path class="st5" d="M372.44,405.34L372.44,405.34c-7.41,2.1-15.12-2.21-17.21-9.62l-11.06-39.1c-2.1-7.41,2.21-15.12,9.62-17.21
			c7.41-2.1,15.12,2.21,17.21,9.62l11.06,39.1C384.16,395.54,379.85,403.25,372.44,405.34"/>
		<path class="st5" d="M356.66,405.01L356.66,405.01c-5.5-5.39-5.58-14.22-0.19-19.72l28.45-29.01c5.39-5.5,14.22-5.58,19.72-0.19
			c5.5,5.39,5.58,14.22,0.19,19.72l-28.45,29.01C370.98,410.32,362.15,410.41,356.66,405.01"/>
		<path class="st6" d="M413.28,349.3c3.74,5.62,2.22,13.2-3.4,16.94c-5.62,3.74-13.2,2.22-16.94-3.4c-3.74-5.62-2.22-13.2,3.4-16.94
			C401.95,342.16,409.54,343.68,413.28,349.3"/>
		<path class="st6" d="M394.92,354.31L394.92,354.31c-1.7,0.44-3.44-0.59-3.88-2.29l-1.08-4.2c-0.44-1.7,0.59-3.44,2.29-3.88
			c1.7-0.44,3.44,0.59,3.88,2.29l1.08,4.2C397.65,352.13,396.63,353.87,394.92,354.31"/>
		<path class="st6" d="M407.18,339.83l-4.33,10.96c-0.67,1.7-2.59,2.53-4.29,1.86c-1.7-0.67-2.53-2.59-1.86-4.29l4.33-10.96
			c0.67-1.7,2.59-2.53,4.29-1.86C407.02,336.22,407.85,338.14,407.18,339.83"/>
		<path class="st6" d="M414.81,342.13l-5.23,10.56c-0.81,1.64-2.79,2.3-4.43,1.5c-1.64-0.81-2.31-2.79-1.49-4.43l5.23-10.56
			c0.81-1.64,2.79-2.3,4.43-1.5C414.95,338.51,415.62,340.49,414.81,342.13"/>
		<path class="st6" d="M420.48,348.01l-7.3,9.25c-1.13,1.43-3.21,1.68-4.64,0.55c-1.43-1.13-1.68-3.21-0.55-4.64l7.3-9.25
			c1.13-1.43,3.21-1.68,4.64-0.55C421.37,344.5,421.61,346.58,420.48,348.01"/>
		<path class="st6" d="M340.94,325.65l-2.09-0.08c-3.92-0.15-6.97-3.45-6.81-7.37l0.94-23.87l16.28,0.64l-0.94,23.87
			C348.15,322.75,344.85,325.8,340.94,325.65"/>
		<path class="st7" d="M349.25,294.08l-16.28-0.64l-0.25,6.39c-0.25,6.26,4.85,11.76,11.11,11.31c0.39-0.03,0.78-0.08,1.17-0.15
			c1.31-0.23,2.52-0.7,3.64-1.33L349.25,294.08z"/>
		<path class="st4" d="M357.42,269.15c4.2,7.65-0.66,17.46-10.87,21.92c-10.21,4.46-21.89,1.88-26.1-5.77
			c-4.2-7.64,0.66-17.46,10.87-21.92C341.53,258.92,353.22,261.5,357.42,269.15"/>
		<path class="st4" d="M368.7,271.45c2.79,6-2.63,13.1-12.11,15.87c-9.48,2.76-19.42,0.14-22.21-5.86c-2.79-6,2.63-13.1,12.11-15.87
			C355.97,262.83,365.91,265.45,368.7,271.45"/>
		<path class="st4" d="M353.16,256.47c5.61,3.5,4.95,12.41-1.48,19.9c-6.43,7.49-16.19,10.72-21.81,7.22
			c-5.61-3.5-4.95-12.41,1.48-19.9C337.78,256.2,347.55,252.97,353.16,256.47"/>
		<path class="st6" d="M358.68,290.05c1.6,8.98-3.1,17.33-10.5,18.65c-7.4,1.32-14.69-4.89-16.29-13.87l-1.26-7.07
			c-1.6-8.98,3.1-17.33,10.49-18.65c7.4-1.32,14.7,4.89,16.3,13.87L358.68,290.05z"/>
		<path class="st4" d="M342.87,268.05c-4.09-3.7-11.21-1.91-15.91,4c-4.69,5.91-5.18,13.71-1.09,17.41c4.09,3.7,11.21,1.91,15.9-4
			C346.48,279.54,346.96,271.75,342.87,268.05"/>
		<path class="st8" d="M345.57,288.05c-0.24,0-0.47-0.11-0.61-0.32c-0.23-0.34-0.15-0.8,0.19-1.03c0.1-0.07,2.46-1.67,4.96-0.21
			c0.35,0.21,0.48,0.66,0.27,1.02c-0.2,0.35-0.66,0.48-1.02,0.27c-1.68-0.98-3.3,0.1-3.37,0.15
			C345.87,288.01,345.72,288.05,345.57,288.05"/>
		<path class="st8" d="M358.41,288.05c-0.15,0-0.29-0.04-0.42-0.13c-0.07-0.05-1.69-1.13-3.37-0.15c-0.36,0.21-0.81,0.09-1.02-0.27
			c-0.21-0.35-0.09-0.81,0.27-1.02c2.51-1.46,4.86,0.14,4.96,0.21c0.34,0.23,0.42,0.7,0.19,1.04
			C358.87,287.94,358.64,288.05,358.41,288.05"/>
		<path class="st8" d="M348.93,290.05c-0.02,0.43-0.38,0.76-0.81,0.75c-0.43-0.02-0.76-0.38-0.74-0.81
			c0.02-0.43,0.38-0.76,0.81-0.75C348.61,289.26,348.95,289.62,348.93,290.05"/>
		<path class="st8" d="M356.37,290.34c-0.02,0.43-0.38,0.76-0.81,0.74c-0.43-0.02-0.76-0.38-0.74-0.81c0.02-0.43,0.38-0.76,0.8-0.74
			C356.06,289.56,356.39,289.92,356.37,290.34"/>
		<path class="st9" d="M358.18,295.74c-0.08,0-0.16,0-0.25-0.01c-1.63-0.06-3.14-0.76-4.24-1.95c-1.1-1.2-1.68-2.76-1.62-4.39
			c0.07-1.63,0.76-3.14,1.96-4.24c1.2-1.11,2.74-1.69,4.38-1.62c1.63,0.06,3.14,0.76,4.24,1.96c1.11,1.2,1.68,2.75,1.62,4.38
			c-0.06,1.63-0.76,3.14-1.96,4.24C361.18,295.17,359.72,295.74,358.18,295.74 M358.17,284.57c-1.28,0-2.49,0.48-3.44,1.35
			c-1,0.92-1.57,2.17-1.63,3.52c-0.05,1.35,0.42,2.65,1.34,3.64c0.92,1,2.17,1.57,3.52,1.63c1.36,0.02,2.65-0.42,3.64-1.34
			c0.99-0.92,1.57-2.17,1.63-3.53c0.05-1.35-0.42-2.65-1.34-3.64c-0.92-0.99-2.17-1.57-3.53-1.63
			C358.31,284.57,358.24,284.57,358.17,284.57"/>
		<path class="st9" d="M345.07,295.98c-0.09,0-0.18,0-0.28-0.01c-3.78-0.15-6.73-3.34-6.58-7.12c0.07-1.83,0.85-3.52,2.2-4.76
			c1.34-1.24,3.09-1.9,4.92-1.81c1.83,0.07,3.52,0.85,4.76,2.19c1.24,1.35,1.89,3.09,1.82,4.92s-0.85,3.52-2.2,4.76
			C348.44,295.34,346.8,295.98,345.07,295.98 M345.05,283.43c-1.44,0-2.8,0.53-3.86,1.51c-1.12,1.03-1.77,2.44-1.83,3.96
			c-0.12,3.14,2.33,5.79,5.47,5.91c1.51,0.07,2.97-0.48,4.09-1.51c1.12-1.03,1.77-2.44,1.83-3.96c0.06-1.52-0.48-2.97-1.51-4.09
			c-1.03-1.12-2.44-1.77-3.96-1.82C345.21,283.43,345.13,283.43,345.05,283.43"/>
		<path class="st9" d="M350.73,290.19l2.52,0.1c0.29,0.01,0.54-0.22,0.55-0.51c0.01-0.29-0.22-0.54-0.51-0.55l-2.52-0.1
			c-0.29-0.01-0.54,0.22-0.55,0.51C350.21,289.94,350.44,290.18,350.73,290.19"/>
		<path class="st8" d="M355.78,293.77c-0.07,0.89-1.1,1.69-2.3,1.8c-1.2,0.11-2.11-0.52-2.04-1.41c0.07-0.89,1.1-1.69,2.3-1.8
			C354.94,292.25,355.85,292.88,355.78,293.77"/>
		<path class="st8" d="M355.27,298.53c-0.08,2.06-1.95,3.65-4.18,3.56c-2.23-0.09-3.51-2.29-3.43-4.35
			C350.28,297.51,352.82,297.76,355.27,298.53"/>
		<path class="st9" d="M351.42,299.82c-1.76-0.2-2.85-0.81-2.95-2.13c2.19-0.12,4.34,0.11,6.42,0.71
			C354.59,299.59,353.14,300.02,351.42,299.82"/>
		<path class="st10" d="M346.21,302.92L346.21,302.92l-4.38,0c-1.77,0-3.46-0.65-4.77-1.84l-2.74-2.47
			c-0.22-0.2-0.24-0.53-0.04-0.75c0.2-0.22,0.53-0.23,0.75-0.04l2.74,2.47c1.12,1.01,2.56,1.56,4.06,1.56l4.38,0
			c0.29,0,0.53,0.24,0.53,0.53C346.75,302.68,346.51,302.92,346.21,302.92"/>
		<path class="st9" d="M346.21,303.45L346.21,303.45l-1.78,0c-0.59,0-1.06-0.48-1.06-1.06c0-0.58,0.48-1.06,1.06-1.06h0l1.77,0
			c0.59,0,1.06,0.48,1.06,1.06C347.28,302.97,346.8,303.45,346.21,303.45"/>
		<path class="st11" d="M340.85,293.45c-0.19,4.91-4.33,8.73-9.24,8.54c-4.91-0.19-8.73-4.33-8.54-9.24
			c0.19-4.91,4.33-8.73,9.24-8.54C337.22,284.4,341.04,288.54,340.85,293.45"/>
		<path class="st5" d="M337.6,293.32c-0.17,4.19-3.41,7.47-7.24,7.32c-3.83-0.15-6.8-3.67-6.64-7.86c0.17-4.19,3.4-7.47,7.24-7.32
			C334.79,285.61,337.76,289.13,337.6,293.32"/>
		<path class="st12" d="M331.74,293.09c-0.07,1.7-1.19,3.03-2.51,2.98c-1.32-0.05-2.33-1.47-2.27-3.17c0.07-1.7,1.19-3.03,2.51-2.98
			C330.8,289.97,331.81,291.39,331.74,293.09"/>
		<path class="st5" d="M353.46,417.31l-42.56,1.2c-7.1-0.28-12.62-6.26-12.34-13.35l2.69-71.22c0.15-3.72,2.61-6.96,6.16-8.09
			l31.73-10.1l25.36,12.16c3.18,1.53,5.16,4.8,5.02,8.33l-2.7,68.74C366.53,412.06,360.55,417.59,353.46,417.31"/>
		<path class="st11" d="M369.51,336.23c0.15,7.43,0.06,14.85-0.06,22.26c-0.1,7.42-0.36,14.83-0.63,22.24
			c-0.32,7.41-0.64,14.82-1.12,22.22c-0.11,1.8-0.2,3.83-0.88,5.67c-0.64,1.84-1.67,3.54-3.03,4.91c-2.73,2.72-6.62,4.19-10.34,3.79
			c3.72-0.08,7.28-1.75,9.57-4.49c1.18-1.34,2.04-2.93,2.52-4.62c0.52-1.69,0.51-3.43,0.52-5.32c0.1-7.42,0.36-14.83,0.63-22.24
			c0.32-7.41,0.64-14.81,1.12-22.22C368.29,351.02,368.78,343.62,369.51,336.23"/>
		<path class="st11" d="M350.78,329.22l-22.97-1.48l0.83-12.95c0.14-2.09,1.94-3.67,4.02-3.53l15.41,0.99
			c2.09,0.14,3.67,1.94,3.54,4.02L350.78,329.22z"/>
		<path class="st5" d="M282.35,396.43L282.35,396.43c-7.11-2.95-10.48-11.11-7.53-18.22l15.59-37.53
			c2.95-7.11,11.11-10.48,18.22-7.53c7.11,2.95,10.48,11.11,7.53,18.22l-15.59,37.53C297.62,396.02,289.46,399.39,282.35,396.43"/>
		<path class="st11" d="M308.63,333.15c2.49,0.81,4.76,2.41,6.44,4.52c1.65,2.14,2.7,4.78,2.93,7.53c0.37,2.73-0.51,5.64-1.51,7.99
			l-2.94,7.24c-2.02,4.8-4.05,9.6-6.22,14.34l-3.27,7.1c-1.16,2.34-2.26,4.71-3.48,7.02c0.78-2.5,1.68-4.94,2.52-7.42l2.72-7.33
			c1.82-4.89,3.79-9.71,5.77-14.53l3.05-7.2c0.52-1.23,1.06-2.32,1.32-3.5c0.29-1.18,0.46-2.4,0.42-3.62
			C316.31,340.38,313.3,335.53,308.63,333.15"/>
		<path class="st4" d="M347.24,376.77l-7.1-0.46c-2.66-0.17-4.69-2.48-4.51-5.14l0.21-3.2c0.17-2.66,2.48-4.69,5.14-4.52l7.1,0.46
			L347.24,376.77z M340.77,366.63c-0.91-0.06-1.69,0.63-1.75,1.54l-0.21,3.2c-0.06,0.91,0.63,1.69,1.54,1.75l3.92,0.25l0.42-6.49
			L340.77,366.63z"/>
		<path class="st13" d="M354.15,386.98l-6.14-0.4c-3.73-0.24-6.56-3.46-6.32-7.19l1.27-19.74c0.14-2.2,19.79-0.94,19.65,1.27
			l-1.27,19.74C361.1,384.39,357.88,387.22,354.15,386.98"/>
		<path class="st4" d="M360.65,361.45c-0.05,0.79-3.7,1.2-8.15,0.92c-4.45-0.29-8.01-1.16-7.96-1.96c0.05-0.79,3.7-1.2,8.15-0.92
			C357.14,359.78,360.7,360.66,360.65,361.45"/>
		<path class="st5" d="M274.62,383.9L274.62,383.9c0.12-7.7,6.46-13.84,14.16-13.72l40.63,0.64c7.7,0.12,13.84,6.46,13.72,14.16
			c-0.12,7.7-6.46,13.84-14.16,13.72l-40.63-0.64C280.64,397.94,274.5,391.6,274.62,383.9"/>
		<path class="st11" d="M288.78,370.17c5.22-0.35,10.43-0.48,15.64-0.57c5.21-0.11,10.42-0.06,15.63,0l7.82,0.18
			c2.55,0.02,5.57,0.37,7.93,1.79c2.43,1.31,4.44,3.33,5.74,5.69c1.27,2.39,1.84,5.11,1.58,7.71c-0.33-5.23-3.57-9.92-8.06-11.94
			c-1.11-0.52-2.3-0.85-3.49-1.06c-1.19-0.23-2.4-0.17-3.74-0.18l-7.82-0.07c-5.21-0.11-10.42-0.22-15.63-0.5
			C299.2,370.98,293.99,370.7,288.78,370.17"/>
		<path class="st6" d="M357.16,380.8c0.63,6.72-4.31,12.67-11.03,13.3c-6.72,0.63-12.67-4.31-13.3-11.03
			c-0.63-6.72,4.31-12.67,11.03-13.3C350.58,369.14,356.53,374.08,357.16,380.8"/>
		<path class="st6" d="M338.68,376.08L338.68,376.08c-1.52-0.53-2.33-2.19-1.81-3.72l1.3-3.76c0.53-1.52,2.19-2.33,3.71-1.81
			c1.52,0.53,2.33,2.19,1.81,3.72l-1.3,3.76C341.86,375.79,340.2,376.6,338.68,376.08"/>
		<path class="st6" d="M362.07,377.67l-10.84,1.01c-1.68,0.16-3.17-1.08-3.32-2.76c-0.16-1.68,1.08-3.17,2.76-3.32l10.84-1.01
			c1.68-0.16,3.17,1.08,3.32,2.76C364.98,376.03,363.75,377.52,362.07,377.67"/>
		<path class="st6" d="M359.77,387.64l-10.87-0.7c-1.68-0.11-2.96-1.56-2.85-3.24c0.11-1.68,1.56-2.96,3.24-2.85l10.87,0.7
			c1.68,0.11,2.96,1.56,2.85,3.25C362.91,386.47,361.46,387.75,359.77,387.64"/>
		<path class="st4" d="M470.27,350.6c-0.33,0-0.65-0.12-0.9-0.37c-0.5-0.5-0.5-1.3,0-1.8l12.17-12.17c0.49-0.5,1.3-0.5,1.8,0
			c0.5,0.5,0.5,1.3,0,1.8l-12.17,12.17C470.93,350.47,470.6,350.6,470.27,350.6"/>
		<path class="st4" d="M461.61,343.13c-0.7,0-1.27-0.57-1.27-1.27v-17.2c0-0.7,0.57-1.27,1.27-1.27c0.7,0,1.27,0.57,1.27,1.27v17.2
			C462.88,342.56,462.31,343.13,461.61,343.13"/>
		<path class="st4" d="M494.94,359.26h-17.21c-0.7,0-1.27-0.57-1.27-1.27c0-0.7,0.57-1.27,1.27-1.27h17.21
			c0.7,0,1.27,0.57,1.27,1.27C496.22,358.69,495.65,359.26,494.94,359.26"/>
		<path class="st11" d="M342.12,412.78H447.4c2.94,0,3.84-2.38,3.84-5.32H336.81C336.81,410.4,339.19,412.78,342.12,412.78"/>
		<path class="st11" d="M336.02,407.46h37.31c0,2.94-2.7,5.32-6.04,5.32h-24.45c-0.03,0-6.95,0-6.98,0
			C332.42,412.73,332.58,407.46,336.02,407.46"/>
		<path class="st14" d="M375.66,409.01h75.57c2.24,0,4.17-1.6,4.59-3.8l10.19-43.71c0.55-2.88-1.66-5.54-4.59-5.54h-75.57
			c-2.25,0-4.17,1.6-4.59,3.8l-10.18,43.71C370.53,406.34,372.73,409.01,375.66,409.01"/>
		<path class="st5" d="M381.26,359.75c0.23-1.21,0.92-2.24,1.86-2.92c1.41,1.02,2.22,2.79,1.86,4.66l-10.18,43.71
			c-0.23,1.21-0.92,2.24-1.86,2.92c-1.41-1.02-2.22-2.79-1.87-4.66L381.26,359.75z"/>
		<path class="st15" d="M428.79,388.05h-12.39c-2.54,0-4.6-2.06-4.6-4.6c0-2.54,2.06-4.6,4.6-4.6h12.39c2.54,0,4.6,2.06,4.6,4.6
			C433.39,385.99,431.33,388.05,428.79,388.05"/>
		<path class="st14" d="M347.29,408.93h-3.72c-0.73,0-1.33-0.59-1.33-1.33c0-0.73,0.59-1.33,1.33-1.33h3.72
			c0.73,0,1.33,0.59,1.33,1.33C348.61,408.33,348.02,408.93,347.29,408.93"/>
		<path class="st14" d="M354.54,408.93h-3.72c-0.73,0-1.33-0.59-1.33-1.33c0-0.73,0.59-1.33,1.33-1.33h3.72
			c0.73,0,1.33,0.59,1.33,1.33C355.87,408.33,355.28,408.93,354.54,408.93"/>
		<path class="st14" d="M361.8,408.93h-3.72c-0.73,0-1.33-0.59-1.33-1.33c0-0.73,0.59-1.33,1.33-1.33h3.72
			c0.73,0,1.33,0.59,1.33,1.33C363.13,408.33,362.54,408.93,361.8,408.93"/>
		<path class="st14" d="M369.06,408.93h-3.72c-0.73,0-1.33-0.59-1.33-1.33c0-0.73,0.59-1.33,1.33-1.33h3.72
			c0.73,0,1.33,0.59,1.33,1.33C370.39,408.33,369.8,408.93,369.06,408.93"/>
		<polygon class="st11" points="286.49,234.27 294.83,243.21 358.39,216.7 		"/>
		<polygon class="st5" points="289.45,204.76 283.18,214.23 287.42,223.51 277.9,225.13 269.48,243.6 360.43,216.08 		"/>
		<polygon class="st11" points="287.42,223.51 283.18,214.23 332.44,216.53 		"/>
		<path class="st4" d="M282.63,315.29c-0.7,0-1.4,0-2.1-0.01c-0.71-0.01-1.27-0.58-1.26-1.29c0.01-0.7,0.62-1.34,1.29-1.26
			c3.3,0.04,6.58-0.01,10.17-0.17h0.05c0.68,0,1.24,0.54,1.28,1.22c0.03,0.7-0.52,1.3-1.22,1.33
			C287.96,315.24,285.28,315.29,282.63,315.29 M270.32,314.79c-0.04,0-0.07,0-0.11,0c-3.51-0.3-6.97-0.75-10.27-1.34
			c-0.69-0.12-1.15-0.78-1.03-1.48c0.13-0.69,0.79-1.13,1.48-1.03c3.23,0.57,6.6,1.01,10.04,1.31c0.7,0.06,1.22,0.68,1.16,1.38
			C271.53,314.29,270.97,314.79,270.32,314.79 M250.2,311.11c-0.12,0-0.25-0.02-0.37-0.06c-3.35-1.03-6.62-2.28-9.72-3.73
			c-0.64-0.3-0.91-1.06-0.61-1.7c0.3-0.64,1.07-0.91,1.7-0.61c2.99,1.4,6.14,2.61,9.38,3.61c0.67,0.2,1.05,0.92,0.85,1.59
			C251.25,310.76,250.75,311.11,250.2,311.11 M231.74,302.42c-0.24,0-0.49-0.07-0.71-0.21c-2.89-1.93-5.65-4.09-8.2-6.44
			c-0.52-0.48-0.55-1.28-0.08-1.8c0.48-0.52,1.29-0.55,1.8-0.07c2.46,2.26,5.11,4.34,7.89,6.2c0.59,0.39,0.74,1.18,0.35,1.77
			C232.56,302.22,232.15,302.42,231.74,302.42 M216.72,288.61c-0.37,0-0.74-0.16-1-0.48c-2.17-2.72-4.13-5.63-5.85-8.64
			c-0.35-0.61-0.14-1.39,0.48-1.74c0.61-0.34,1.39-0.13,1.74,0.48c1.65,2.89,3.55,5.69,5.63,8.31c0.44,0.55,0.35,1.35-0.2,1.79
			C217.28,288.52,217,288.61,216.72,288.61 M206.62,270.88c-0.51,0-1-0.32-1.19-0.83c-1.24-3.3-2.21-6.68-2.87-10.05
			c-0.13-0.69,0.32-1.36,1.01-1.5c0.7-0.14,1.36,0.32,1.5,1.01c0.63,3.22,1.55,6.47,2.75,9.64c0.25,0.66-0.09,1.4-0.74,1.64
			C206.92,270.85,206.77,270.88,206.62,270.88 M202.56,250.88c-0.67,0-1.23-0.52-1.27-1.19c-0.13-2.08-0.2-4.28-0.2-6.51v-0.52
			c0-1.11,0.03-2.22,0.06-3.33c0.02-0.69,0.59-1.23,1.27-1.23h0.04c0.7,0.02,1.25,0.61,1.23,1.32c-0.04,1.09-0.06,2.17-0.06,3.25
			v0.51c0,2.19,0.07,4.32,0.19,6.35c0.04,0.7-0.49,1.31-1.19,1.35C202.61,250.88,202.58,250.88,202.56,250.88"/>
		<path class="st4" d="M213.27,230.67c-1.95,0-3.86-0.02-5.75-0.07c-0.7-0.02-1.26-0.6-1.24-1.31c0.02-0.69,0.59-1.24,1.27-1.24
			h0.03c3.29,0.08,6.68,0.09,10.18,0.03c0.79-0.04,1.29,0.54,1.3,1.25c0.01,0.71-0.55,1.29-1.25,1.3
			C216.29,230.65,214.77,230.67,213.27,230.67 M228.04,230.24c-0.67,0-1.23-0.52-1.27-1.2c-0.04-0.7,0.5-1.3,1.2-1.34
			c3.3-0.19,6.72-0.43,10.18-0.74c0.68-0.07,1.32,0.46,1.38,1.16c0.06,0.7-0.46,1.32-1.16,1.38c-3.48,0.31-6.93,0.56-10.26,0.74
			C228.09,230.24,228.06,230.24,228.04,230.24 M197.33,230.08c-0.03,0-0.07,0-0.1,0c-3.55-0.28-7-0.65-10.26-1.12
			c-0.7-0.1-1.18-0.74-1.08-1.44c0.1-0.7,0.76-1.17,1.44-1.08c3.21,0.46,6.61,0.83,10.1,1.1c0.7,0.06,1.23,0.67,1.17,1.37
			C198.55,229.57,197.99,230.08,197.33,230.08 M248.44,228.45c-0.64,0-1.19-0.48-1.26-1.13c-0.08-0.7,0.42-1.33,1.12-1.41
			c3.31-0.39,6.69-0.83,10.13-1.32c0.7-0.11,1.34,0.39,1.44,1.08c0.1,0.7-0.38,1.34-1.08,1.44c-3.46,0.49-6.86,0.94-10.19,1.32
			C248.54,228.45,248.49,228.45,248.44,228.45 M177.07,227.14c-0.09,0-0.19-0.01-0.28-0.03c-2.47-0.55-4.87-1.18-7.14-1.85
			c-0.97-0.29-1.92-0.59-2.85-0.9c-0.67-0.22-1.03-0.94-0.81-1.61c0.22-0.67,0.94-1.04,1.61-0.81c0.91,0.3,1.84,0.59,2.78,0.87
			c2.22,0.66,4.56,1.27,6.97,1.81c0.69,0.16,1.12,0.84,0.97,1.52C178.18,226.74,177.66,227.14,177.07,227.14 M157.71,220.59
			c-0.19,0-0.38-0.04-0.56-0.13c-3.26-1.58-6.29-3.37-9-5.3c-0.57-0.41-0.71-1.21-0.3-1.78c0.41-0.57,1.2-0.71,1.78-0.3
			c2.59,1.85,5.5,3.56,8.63,5.08c0.63,0.31,0.9,1.07,0.59,1.7C158.64,220.33,158.18,220.59,157.71,220.59 M201.59,219.45
			c-0.7,0-1.27-0.57-1.27-1.27v-0.45c0-3.21-0.13-6.48-0.38-9.71c-0.05-0.7,0.47-1.31,1.17-1.37c0.68-0.06,1.31,0.47,1.37,1.17
			c0.26,3.29,0.39,6.63,0.39,9.91v0.45C202.87,218.88,202.3,219.45,201.59,219.45 M141.23,208.64c-0.34,0-0.69-0.14-0.94-0.42
			c-2.39-2.62-4.45-5.49-6.13-8.55c-0.34-0.62-0.11-1.39,0.5-1.73c0.62-0.34,1.39-0.1,1.73,0.5c1.58,2.88,3.52,5.59,5.77,8.06
			c0.48,0.52,0.44,1.33-0.08,1.8C141.84,208.53,141.54,208.64,141.23,208.64 M199.95,199.01c-0.61,0-1.15-0.44-1.26-1.06
			c-0.59-3.47-1.35-6.78-2.25-9.85c-0.2-0.67,0.19-1.38,0.86-1.58c0.68-0.21,1.38,0.19,1.58,0.86c0.93,3.16,1.71,6.57,2.32,10.14
			c0.12,0.7-0.35,1.35-1.04,1.47C200.1,199.01,200.03,199.01,199.95,199.01 M131.45,190.87c-0.56,0-1.07-0.37-1.23-0.94
			c-0.16-0.57-0.31-1.15-0.44-1.73c-0.45-1.92-0.68-3.82-0.68-5.65c0-1.1,0.08-2.2,0.24-3.27c0.11-0.7,0.77-1.18,1.45-1.07
			c0.7,0.1,1.17,0.75,1.07,1.45c-0.14,0.94-0.22,1.92-0.22,2.89c0,1.63,0.21,3.34,0.61,5.06c0.13,0.55,0.27,1.1,0.42,1.64
			c0.19,0.68-0.21,1.38-0.89,1.57C131.68,190.85,131.57,190.87,131.45,190.87 M194.04,179.43c-0.47,0-0.93-0.27-1.15-0.72
			c-1.52-3.18-3.28-6.02-5.23-8.44c-0.44-0.55-0.35-1.35,0.19-1.79c0.54-0.44,1.34-0.36,1.79,0.2c2.07,2.57,3.93,5.58,5.54,8.93
			c0.3,0.64,0.04,1.4-0.6,1.7C194.42,179.39,194.23,179.43,194.04,179.43 M134.62,171.44c-0.27,0-0.54-0.08-0.77-0.26
			c-0.56-0.43-0.67-1.23-0.24-1.79c2.05-2.69,4.73-5.06,7.98-7.05c0.6-0.36,1.39-0.18,1.75,0.42c0.37,0.6,0.18,1.39-0.42,1.75
			c-2.98,1.83-5.43,3.99-7.28,6.42C135.38,171.27,135,171.44,134.62,171.44 M181.15,163.86c-0.24,0-0.48-0.07-0.7-0.21
			c-2.7-1.77-5.71-3.07-8.93-3.87c-0.68-0.17-1.1-0.86-0.93-1.54c0.17-0.68,0.86-1.1,1.54-0.93c3.51,0.87,6.78,2.28,9.72,4.21
			c0.59,0.39,0.75,1.18,0.37,1.77C181.97,163.66,181.57,163.86,181.15,163.86 M151.62,160.62c-0.55,0-1.06-0.36-1.22-0.91
			c-0.2-0.68,0.19-1.38,0.86-1.58c3.21-0.95,6.59-1.56,10.02-1.81l0.38-0.01c0.63,0.03,1.29,0.55,1.3,1.25
			c0.01,0.7-0.55,1.29-1.25,1.3l-0.28,0.01c-3.22,0.24-6.42,0.81-9.46,1.71C151.86,160.6,151.73,160.62,151.62,160.62"/>
		<path class="st5" d="M458.34,169.29h68.14c8.52,0,15.42,6.91,15.42,15.42v35.15c0,8.52-6.9,15.42-15.42,15.42h-44.56l-16.03,14.14
			v-14.14h-7.56c-8.52,0-15.42-6.91-15.42-15.42v-35.15C442.92,176.2,449.83,169.29,458.34,169.29"/>
		<path class="st4" d="M468.26,191.05h48.31c1.07,0,1.93-0.87,1.93-1.93c0-1.07-0.86-1.93-1.93-1.93h-48.31
			c-1.07,0-1.93,0.86-1.93,1.93C466.32,190.18,467.19,191.05,468.26,191.05"/>
		<path class="st4" d="M468.26,203.93h48.31c1.07,0,1.93-0.87,1.93-1.93c0-1.07-0.86-1.93-1.93-1.93h-48.31
			c-1.07,0-1.93,0.87-1.93,1.93C466.32,203.06,467.19,203.93,468.26,203.93"/>
		<path class="st4" d="M509.49,216.81h7.09c1.07,0,1.93-0.87,1.93-1.93c0-1.07-0.86-1.93-1.93-1.93h-7.09
			c-1.07,0-1.93,0.87-1.93,1.93C507.55,215.95,508.42,216.81,509.49,216.81"/>
		<path class="st4" d="M493.38,216.81h7.09c1.07,0,1.93-0.87,1.93-1.93c0-1.07-0.87-1.93-1.93-1.93h-7.09
			c-1.07,0-1.93,0.87-1.93,1.93C491.45,215.95,492.31,216.81,493.38,216.81"/>
		<path class="st4" d="M468.26,216.81h16.1c1.07,0,1.93-0.87,1.93-1.93c0-1.07-0.87-1.93-1.93-1.93h-16.1
			c-1.07,0-1.93,0.87-1.93,1.93C466.32,215.95,467.19,216.81,468.26,216.81"/>
		<path class="st5" d="M449.73,239.48h-52.16c-5.13,0-9.29,4.16-9.29,9.29v30.08c0,4.9,3.8,8.91,8.61,9.25l-10.76,17.63l28.35-17.59
			h35.25c5.13,0,9.29-4.16,9.29-9.29v-30.08C459.01,243.64,454.86,239.48,449.73,239.48"/>
		<path class="st11" d="M429.82,256.51c0,3.41-2.77,6.18-6.18,6.18c-3.41,0-6.18-2.76-6.18-6.18c0-3.41,2.76-6.17,6.18-6.17
			C427.06,250.33,429.82,253.1,429.82,256.51"/>
		<path class="st11" d="M438.24,277.28h-29.19c0-5.17,4.19-9.36,9.36-9.36h10.48C434.05,267.92,438.24,272.11,438.24,277.28"/>
		<path class="st4" d="M386.77,190.56c-1.73,0-3.46-0.18-5.14-0.52c-0.69-0.14-1.13-0.82-0.99-1.51c0.14-0.69,0.83-1.12,1.51-0.99
			c2.62,0.54,5.38,0.61,8,0.22c0.7-0.1,1.34,0.38,1.45,1.07c0.1,0.7-0.38,1.34-1.07,1.45C389.29,190.47,388.03,190.56,386.77,190.56
			 M398.34,187.59c-0.45,0-0.88-0.24-1.12-0.66c-0.34-0.62-0.12-1.39,0.5-1.73c2.36-1.3,4.44-3,6.21-5.05
			c0.46-0.53,1.27-0.59,1.8-0.13c0.53,0.46,0.59,1.26,0.13,1.8c-1.96,2.28-4.29,4.17-6.9,5.62
			C398.76,187.53,398.54,187.59,398.34,187.59 M374.04,186.9c-0.23,0-0.47-0.06-0.68-0.19c-2.53-1.6-4.75-3.61-6.58-5.99
			c-0.43-0.56-0.33-1.36,0.23-1.79c0.56-0.43,1.36-0.32,1.79,0.23c1.65,2.14,3.64,3.96,5.92,5.39c0.6,0.38,0.78,1.16,0.4,1.76
			C374.88,186.69,374.46,186.9,374.04,186.9 M409.19,174.97c-0.15,0-0.3-0.03-0.44-0.08c-0.66-0.25-1-0.98-0.75-1.64
			c0.93-2.52,1.41-5.17,1.41-7.88c0-0.7,0.57-1.27,1.27-1.27c0.7,0,1.27,0.57,1.27,1.27c0,3.01-0.53,5.96-1.57,8.76
			C410.19,174.65,409.71,174.97,409.19,174.97 M363.91,173.71c-0.55,0-1.05-0.35-1.22-0.9c-0.74-2.4-1.11-4.89-1.11-7.43
			c0-0.48,0.01-0.94,0.04-1.41c0.04-0.7,0.68-1.23,1.34-1.2c0.7,0.04,1.24,0.64,1.2,1.34c-0.02,0.42-0.04,0.84-0.04,1.26
			c0,2.28,0.34,4.53,1,6.68c0.21,0.67-0.17,1.39-0.84,1.59C364.16,173.69,364.03,173.71,363.91,173.71 M409.98,160.88
			c-0.57,0-1.09-0.39-1.24-0.97c-0.65-2.62-1.75-5.07-3.27-7.3c-0.4-0.58-0.25-1.38,0.33-1.77c0.58-0.4,1.37-0.25,1.77,0.33
			c1.7,2.48,2.92,5.21,3.64,8.13c0.17,0.69-0.25,1.38-0.93,1.54C410.18,160.87,410.08,160.88,409.98,160.88 M364.84,157.09
			c-0.17,0-0.34-0.03-0.51-0.11c-0.64-0.28-0.94-1.03-0.66-1.68c1.2-2.75,2.86-5.24,4.95-7.4c0.49-0.51,1.3-0.52,1.8-0.03
			c0.51,0.49,0.52,1.29,0.03,1.8c-1.88,1.95-3.37,4.18-4.45,6.65C365.8,156.81,365.33,157.09,364.84,157.09 M400.59,147.14
			c-0.26,0-0.51-0.07-0.74-0.23c-2.2-1.56-4.63-2.71-7.24-3.4c-0.68-0.18-1.09-0.88-0.9-1.56c0.18-0.68,0.88-1.09,1.56-0.91
			c2.9,0.77,5.61,2.05,8.06,3.79c0.57,0.41,0.71,1.2,0.3,1.78C401.38,146.95,400.99,147.14,400.59,147.14 M376.38,145.11
			c-0.47,0-0.93-0.27-1.15-0.72c-0.31-0.63-0.04-1.4,0.59-1.7c2.7-1.3,5.58-2.1,8.58-2.38c0.68-0.06,1.32,0.45,1.39,1.15
			c0.06,0.7-0.45,1.32-1.15,1.39c-2.69,0.25-5.28,0.97-7.71,2.14C376.76,145.07,376.57,145.11,376.38,145.11"/>
		<path class="st11" d="M386.77,153.27c-9.23,0-16.71,4.95-16.71,11.05v0.03c0.01,1.59,1.26,2.69,2.44,2.18l4.39-1.87
			c1.06-0.45,1.57-1.99,1.09-3.28l-0.54-1.47c0,0,8.06,1.44,18.6,0l-0.54,1.89c-0.35,1.2,0.1,2.53,1.01,3.03l4.34,2.37
			c1.06,0.58,2.29-0.2,2.53-1.64c0.07-0.41,0.1-0.82,0.1-1.23C403.48,158.21,396,153.27,386.77,153.27"/>
		<path class="st5" d="M398.34,177.49h-23.16l3.43-10.75c0.64-2.02,2.52-3.38,4.63-3.38h7.03c2.12,0,3.99,1.37,4.63,3.38
			L398.34,177.49z"/>
		<path class="st4" d="M536.04,321.54c-1.74,0-3.47-0.18-5.15-0.52c-0.69-0.15-1.13-0.82-0.99-1.51c0.15-0.69,0.83-1.12,1.51-0.99
			c2.61,0.55,5.39,0.62,8,0.22c0.7-0.09,1.34,0.38,1.45,1.07c0.1,0.7-0.38,1.34-1.07,1.45C538.57,321.44,537.3,321.54,536.04,321.54
			 M547.61,318.56c-0.45,0-0.88-0.24-1.12-0.66c-0.34-0.62-0.12-1.39,0.5-1.73c2.36-1.31,4.45-3.01,6.21-5.05
			c0.46-0.53,1.26-0.59,1.8-0.13c0.53,0.46,0.59,1.26,0.13,1.8c-1.96,2.27-4.28,4.16-6.9,5.62
			C548.03,318.51,547.82,318.56,547.61,318.56 M523.31,317.88c-0.23,0-0.47-0.06-0.68-0.2c-2.54-1.6-4.75-3.61-6.58-5.99
			c-0.43-0.56-0.32-1.36,0.23-1.79c0.56-0.43,1.36-0.32,1.79,0.23c1.65,2.14,3.64,3.95,5.92,5.39c0.6,0.38,0.78,1.16,0.4,1.76
			C524.15,317.67,523.74,317.88,523.31,317.88 M558.46,305.95c-0.15,0-0.3-0.03-0.44-0.08c-0.66-0.24-1-0.98-0.75-1.64
			c0.93-2.51,1.41-5.16,1.41-7.88c0-0.7,0.57-1.27,1.27-1.27c0.7,0,1.27,0.57,1.27,1.27c0,3.01-0.53,5.96-1.57,8.76
			C559.47,305.63,558.98,305.95,558.46,305.95 M513.18,304.68c-0.55,0-1.05-0.35-1.22-0.9c-0.74-2.4-1.11-4.89-1.11-7.43
			c0-0.47,0.01-0.94,0.04-1.41c0.04-0.7,0.73-1.24,1.34-1.2c0.7,0.04,1.24,0.64,1.2,1.34c-0.02,0.42-0.04,0.84-0.04,1.27
			c0,2.28,0.34,4.52,1,6.68c0.21,0.67-0.17,1.39-0.84,1.59C513.43,304.66,513.3,304.68,513.18,304.68 M559.25,291.86
			c-0.57,0-1.09-0.39-1.24-0.97c-0.65-2.61-1.75-5.07-3.27-7.3c-0.4-0.58-0.25-1.38,0.33-1.77c0.58-0.4,1.37-0.25,1.77,0.33
			c1.7,2.48,2.92,5.21,3.64,8.12c0.17,0.68-0.25,1.38-0.93,1.54C559.46,291.85,559.35,291.86,559.25,291.86 M514.11,288.07
			c-0.17,0-0.34-0.03-0.51-0.11c-0.65-0.28-0.94-1.03-0.66-1.68c1.2-2.75,2.87-5.24,4.95-7.4c0.49-0.51,1.3-0.52,1.8-0.03
			c0.51,0.49,0.52,1.29,0.03,1.8c-1.87,1.95-3.37,4.18-4.45,6.65C515.07,287.78,514.6,288.07,514.11,288.07 M549.87,278.12
			c-0.26,0-0.51-0.07-0.74-0.23c-2.2-1.57-4.64-2.71-7.24-3.41c-0.68-0.18-1.09-0.88-0.9-1.56c0.18-0.68,0.88-1.08,1.56-0.9
			c2.9,0.77,5.61,2.05,8.06,3.79c0.57,0.41,0.71,1.2,0.3,1.78C550.66,277.94,550.27,278.12,549.87,278.12 M525.66,276.08
			c-0.47,0-0.93-0.27-1.15-0.72c-0.31-0.63-0.04-1.4,0.59-1.7c2.7-1.3,5.59-2.1,8.58-2.38c0.72-0.06,1.32,0.45,1.39,1.15
			c0.06,0.7-0.45,1.32-1.15,1.39c-2.69,0.25-5.28,0.97-7.71,2.14C526.03,276.04,525.84,276.08,525.66,276.08"/>
		<rect x="521.02" y="291.82" class="st11" width="29.65" height="16.81"/>
		<path class="st4" d="M546.6,290.49v-2.06c0-1.51,1.23-2.74,2.74-2.74c1.51,0,2.74,1.23,2.74,2.74v3.41h-5.48"/>
		<path class="st14" d="M546.65,288.39v17.47h-20.21v-17.47c0-1.51,1.23-2.74,2.74-2.74h19.98l-0.56,0.11
			C547.48,286.1,546.65,287.15,546.65,288.39"/>
		<rect x="527.7" y="288.49" class="st4" width="4.48" height="4.6"/>
		<path class="st4" d="M544.94,288.73h-11.39c-0.15,0-0.27-0.12-0.27-0.27c0-0.15,0.12-0.27,0.27-0.27h11.39
			c0.15,0,0.27,0.12,0.27,0.27C545.21,288.61,545.09,288.73,544.94,288.73"/>
		<path class="st4" d="M544.94,290.28h-11.39c-0.15,0-0.27-0.12-0.27-0.27c0-0.15,0.12-0.27,0.27-0.27h11.39
			c0.15,0,0.27,0.12,0.27,0.27C545.21,290.16,545.09,290.28,544.94,290.28"/>
		<path class="st4" d="M544.94,291.83h-11.39c-0.15,0-0.27-0.12-0.27-0.27s0.12-0.27,0.27-0.27h11.39c0.15,0,0.27,0.12,0.27,0.27
			S545.09,291.83,544.94,291.83"/>
		<path class="st4" d="M545.05,293.38h-11.39c-0.15,0-0.27-0.12-0.27-0.27c0-0.15,0.12-0.27,0.27-0.27h11.39
			c0.15,0,0.27,0.12,0.27,0.27C545.32,293.26,545.2,293.38,545.05,293.38"/>
		<path class="st4" d="M544.94,294.91H527.7c-0.15,0-0.27-0.12-0.27-0.27c0-0.15,0.12-0.27,0.27-0.27h17.25
			c0.15,0,0.27,0.12,0.27,0.27C545.21,294.79,545.09,294.91,544.94,294.91"/>
		<path class="st4" d="M544.94,296.46H527.7c-0.15,0-0.27-0.12-0.27-0.27c0-0.15,0.12-0.27,0.27-0.27h17.25
			c0.15,0,0.27,0.12,0.27,0.27C545.21,296.34,545.09,296.46,544.94,296.46"/>
		<path class="st4" d="M544.94,297.97H527.7c-0.15,0-0.27-0.12-0.27-0.27s0.12-0.27,0.27-0.27h17.25c0.15,0,0.27,0.12,0.27,0.27
			S545.09,297.97,544.94,297.97"/>
		<path class="st4" d="M536.08,299.52h-8.38c-0.15,0-0.27-0.12-0.27-0.27c0-0.15,0.12-0.27,0.27-0.27h8.38
			c0.15,0,0.27,0.12,0.27,0.27C536.35,299.4,536.23,299.52,536.08,299.52"/>
		<polygon class="st5" points="543.38,308.63 521.02,308.63 521.02,291.82 		"/>
		<polygon class="st5" points="528.3,308.63 550.66,308.63 550.66,291.82 		"/>
		<path class="st5" d="M550.66,308.63h-14.82h-14.82l13.31-7.11c0.91-0.63,2.11-0.63,3.02,0L550.66,308.63z"/>
		<path class="st16" d="M255.75,379.89c0,0-2.34-17.58-6.58-21.91"/>
		<path class="st17" d="M249.86,347.53c1.13,3.75,0.9,7.13-0.52,7.56c-1.42,0.43-3.48-2.26-4.62-6.01
			c-0.01-0.04-0.02-0.07-0.03-0.11c-0.96-3.34,4.08-4.86,5.13-1.55C249.84,347.45,249.85,347.49,249.86,347.53"/>
		<path class="st17" d="M256.58,355.9c-3.75,1.13-7.13,0.9-7.56-0.52c-0.43-1.42,2.26-3.48,6.01-4.62c0.04-0.01,0.07-0.02,0.11-0.03
			c3.34-0.96,4.86,4.08,1.55,5.13C256.66,355.88,256.62,355.89,256.58,355.9"/>
		<path class="st17" d="M243.76,359.77c3.75-1.13,6.44-3.2,6.01-4.62c-0.43-1.42-3.81-1.65-7.56-0.52
			c-0.04,0.01-0.07,0.02-0.11,0.03c-3.31,1.05-1.79,6.09,1.55,5.13C243.69,359.8,243.73,359.78,243.76,359.77"/>
		<path class="st17" d="M250.07,364.03c1.05-3.77,0.75-7.15-0.68-7.55c-1.43-0.4-3.44,2.33-4.49,6.11
			c-0.01,0.04-0.02,0.07-0.03,0.11c-0.89,3.36,4.18,4.77,5.16,1.44C250.05,364.11,250.06,364.07,250.07,364.03"/>
		<path class="st17" d="M253.69,362.94c-2.97-2.56-4.58-5.54-3.62-6.66c0.97-1.12,4.15,0.04,7.12,2.6c0.03,0.03,0.06,0.05,0.09,0.08
			c2.6,2.3-0.84,6.29-3.5,4.06C253.75,362.99,253.72,362.97,253.69,362.94"/>
		<path class="st4" d="M251.11,355.58c0.29,0.97-0.26,1.99-1.23,2.29c-0.97,0.29-1.99-0.26-2.28-1.22
			c-0.29-0.97,0.25-1.99,1.22-2.29C249.79,354.06,250.82,354.61,251.11,355.58"/>
		<path class="st5" d="M248.84,368.59c4.87,3.84,7.64,8.44,6.19,10.28c-1.45,1.84-6.57,0.23-11.44-3.61
			c-4.87-3.84-6.19-10.28-6.19-10.28S243.97,364.76,248.84,368.59"/>
		<path class="st5" d="M265.94,374.4c-5.14,4.83-10.79,7.16-12.61,5.22c-1.83-1.94,0.86-7.43,6-12.26
			c5.14-4.83,12.61-5.22,12.61-5.22S271.08,369.57,265.94,374.4"/>
		<polygon class="st18" points="262.16,400.55 245.35,400.55 242.41,379.4 265.11,379.4 		"/>
		<path class="st11" d="M265.71,384.82H241.8c-0.81,0-1.47-0.66-1.47-1.47v-4.93c0-0.81,0.66-1.47,1.47-1.47h23.91
			c0.81,0,1.47,0.66,1.47,1.47v4.93C267.18,384.16,266.52,384.82,265.71,384.82"/>
		<path class="st4" d="M583.81,418.7H134.36c-1.64,0-2.97-1.33-2.97-2.97c0-1.64,1.33-2.97,2.97-2.97h449.45
			c1.64,0,2.97,1.33,2.97,2.97C586.78,417.37,585.45,418.7,583.81,418.7"/>
	</g>
</g>
</svg>
