<?xml version="1.0" encoding="utf-8"?>
<!-- Generator: Adobe Illustrator 23.0.3, SVG Export Plug-In . SVG Version: 6.00 Build 0)  -->
<svg version="1.1" id="Layer_1" xmlns="http://www.w3.org/2000/svg" xmlns:xlink="http://www.w3.org/1999/xlink" x="0px" y="0px"
	 viewBox="0 0 1349 501.58" style="enable-background:new 0 0 1349 501.58;" xml:space="preserve">
<style type="text/css">
	.st0{fill:#FFA41F;}
	.st1{fill:#D6D6D6;}
	.st2{fill:#A7A9AC;}
	.st3{fill:#D0D2D3;}
	.st4{fill:#DDBC6B;}
	.st5{fill:#404041;}
	.st6{fill:#FFFFFF;}
	.st7{fill:#FFE082;}
	.st8{fill:#BBBDBF;}
	.st9{fill:#E6E7E8;}
	.st10{fill:#929497;}
	.st11{fill:#58595B;}
	.st12{fill:#161515;}
	.st13{fill:#A6A8AB;}
	.st14{fill:#6D6E70;}
	.st15{fill:#FAAF40;}
	.st16{fill:#F9EC31;}
	.st17{fill:none;stroke:#404041;stroke-miterlimit:10;}
	.st18{fill:#808184;}
	.st19{fill:#936500;}
</style>
<g>
	<rect x="65.98" y="0" class="st0" width="1217.04" height="431.93"/>
	<rect x="65.98" y="431.93" class="st1" width="1217.04" height="69.65"/>
	<polygon class="st2" points="569.34,433.62 652.66,501.58 693.34,501.58 586.95,433.62 	"/>
	<polygon class="st2" points="448.18,433.86 523.04,501.58 408.21,501.58 367.88,436.24 384.88,433.18 399.16,452.24 401.68,433.56 
		430.01,435.17 449.01,454.28 441.93,433.62 	"/>
	<polygon class="st2" points="310.73,433.58 325.98,501.58 393.7,501.58 357.33,436.84 340.59,432.85 355.01,486.86 324.18,437.81 	
		"/>
	<polygon class="st2" points="302.53,431.92 315.75,501.58 259.83,501.58 266.53,438.8 279.24,433.18 281.28,487.72 291.99,438.57 	
		"/>
	<polygon class="st2" points="257.55,438.37 251.27,501.58 189.69,501.58 213.83,437.42 226.05,433.4 225.87,493.92 248.41,433.31 	
		"/>
	<polygon class="st2" points="193.44,433.12 167.27,501.58 132.73,501.58 132.73,461.25 138.86,434.56 151.42,433.62 143.96,472.65 
		151.45,491.37 182.87,433.62 	"/>
	<path class="st3" d="M345.49,333.98c0,0-15.33-11.88-20.32-9.14c-4.98,2.74-12.79,24.85-12.96,36.18l9.81,5.94l8.91-0.82
		c0,0,6.92-15.11,12.57-19.77l2.57,14.69l11.54,11.21l3.82-1l-9.68-14.59C351.75,356.67,351.53,338.19,345.49,333.98"/>
	<polygon class="st4" points="341.02,322.79 335.83,328.28 338.36,335.94 345.58,332.75 	"/>
	<polygon class="st5" points="336.92,335.38 338.06,340.01 333.25,362.6 336.06,366.52 339.44,361.81 339.99,339.98 341.3,336.98 	
		"/>
	<polygon class="st6" points="339.04,336.26 335.63,337.8 333.17,326.23 337.71,325.8 339.1,335.55 344.64,331.21 341.65,339.43 	
		"/>
	<path class="st7" d="M343.27,335.86c-2.76-0.33-6.38-7.02-5.04-11.7c1.34-4.68,4.44-9.68,11-6.06c4.75,2.62,3.61,8.76,2.37,11.57
		C350.36,332.47,346.89,336.29,343.27,335.86"/>
	<path class="st5" d="M353.04,325.95c0,0-2.15,1.8-4.63,0.72c-2.48-1.08-4.98-4.11-4.98-4.11s-0.2,3.06-1.96,4.68
		c0,0-0.51-3.57-1.63-2.29c-1.12,1.28-1.31,4.57-1.31,4.57s-1.34-2.08-0.82-3.73c0.52-1.65,0.08-10.17,7.06-9.83
		C351.75,316.3,355.33,320.69,353.04,325.95"/>
	<path class="st5" d="M312.21,361.02c0,0-2.49,10.37,3.04,23.12c5.52,12.76,6.99,12.19,6.93,16.71
		c-0.1,7.97-11.45,32.73-11.45,32.73s8.29,4.82,13.45,4.22c0,0,1.18-1.59-5.17-6.58c0,0,12.47-21.62,13.25-29.62
		c0.43-4.42-2.76-18.57-2.76-18.57s16.89,7.87,19.27,13.35c3.73,8.57-8.17,36.46-8.17,36.46s10.75,6.27,16.74,3.99
		c0,0-1.15-3.16-9.33-7.53c0,0,13.2-26.35,10.62-35.17c-2.6-8.89-26.73-22.92-27.57-24.74c-0.48-1.04-0.12-3.28-0.12-3.28
		S318.7,365.51,312.21,361.02"/>
	<path class="st8" d="M328.17,366.56l-0.14,1.88c0,0-1.26,0.94-4.24-0.32l0.19-2.51C323.98,365.61,324.28,366.1,328.17,366.56"/>
	<path class="st5" d="M350.19,378.24c2.13-1.52,2.55-4.56,0.96-6.79c-1.6-2.23-4.61-2.81-6.74-1.28c-2.13,1.52-2.55,4.56-0.96,6.79
		C345.05,379.19,348.07,379.76,350.19,378.24"/>
	<path class="st3" d="M362.31,345.89c6.42-4.59,15.35-3.11,19.94,3.31c4.59,6.42,3.11,15.34-3.31,19.94
		c-4.84,3.47-10.19,2.85-14.67,3.05c-1.45,0.07-3.63,1.2-3.63,1.2l-8.27-11.55c0,0,1.77-1.7,2.3-3.05
		C356.32,354.62,357.19,349.56,362.31,345.89"/>
	<path class="st9" d="M378.85,367.54c5.81-4.16,7.15-12.23,2.99-18.04c-4.16-5.81-12.23-7.15-18.04-2.99
		c-5.81,4.16-7.15,12.23-2.99,18.04C364.96,370.35,373.04,371.69,378.85,367.54"/>
	<path class="st5" d="M366.79,358.59l1.07-3.12l0.43,0.73l-2.06-0.07l-0.25-0.01l-0.14-0.2l-1.88-2.63l0.91-0.28
		c-0.06,0.86-0.28,1.55-0.54,2.27c-0.27,0.71-0.59,1.38-0.96,2.03c-0.73,1.3-1.61,2.5-2.59,3.6c-0.96,1.12-2.03,2.13-3.12,3.11
		l-1.69,1.4l-1.75,1.32l-0.58-0.81l1.72-1.29l1.65-1.37c1.06-0.96,2.1-1.94,3.02-3.02c0.94-1.06,1.78-2.21,2.47-3.43
		c0.34-0.61,0.65-1.24,0.89-1.89c0.25-0.63,0.44-1.35,0.48-1.93l0.1-1.4l0.8,1.12l1.88,2.63l-0.39-0.21l2.06,0.07l0.94,0.03
		l-0.52,0.7L366.79,358.59z"/>
	<path class="st5" d="M356.68,370.23c1.18-0.91,2.39-1.7,3.65-2.44c1.27-0.73,2.56-1.41,3.92-1.97c1.36-0.55,2.77-1.02,4.23-1.29
		c1.46-0.26,2.97-0.34,4.48-0.12l-0.49,0.78l-1.78-2.49l-0.18-0.25l0.15-0.28l1.66-3.09v0l0.6,0.71l-5.57,1.33l5.25-2.28l1.11-0.48
		l-0.51,1.19l-1.66,3.09l-0.03-0.53l1.78,2.49l0.68,0.95l-1.17-0.17c-1.36-0.2-2.75-0.13-4.13,0.11c-1.38,0.26-2.72,0.71-4.03,1.24
		c-1.31,0.53-2.57,1.2-3.8,1.91c-1.22,0.72-2.43,1.51-3.53,2.36L356.68,370.23z"/>
	<path class="st6" d="M381.63,358.64c2.01-1.44,1.73-5.26-0.62-8.55c-2.35-3.29-5.88-4.79-7.89-3.35c-2.01,1.43-1.73,5.26,0.63,8.55
		C376.09,358.57,379.63,360.07,381.63,358.64"/>
	<path class="st6" d="M365.43,366.62c0.69-0.49,0.1-2.48-1.3-4.45c-1.41-1.96-3.1-3.16-3.79-2.67c-0.69,0.49-0.11,2.48,1.3,4.45
		C363.04,365.92,364.74,367.11,365.43,366.62"/>
	<path class="st10" d="M342.76,367.43c-1.05,0.75-1.29,2.21-0.54,3.25l6.79,9.48c0.75,1.05,2.21,1.29,3.25,0.54l8.64-6.18
		c1.05-0.75,1.29-2.21,0.54-3.25l-6.79-9.48c-0.75-1.05-2.2-1.29-3.25-0.54L342.76,367.43z"/>
	<path class="st8" d="M359.19,372.53c0.51-0.36,0.63-1.07,0.26-1.58l-5.14-7.19c-0.36-0.51-1.07-0.63-1.58-0.26
		c-0.51,0.36-0.63,1.07-0.26,1.58l5.14,7.19C357.97,372.78,358.68,372.89,359.19,372.53"/>
	<path class="st4" d="M350.39,366.45l3.5,0.14l1.48,1.44c0,0-0.46,0.18-1.39-0.65l-1.25,0.17l1.99,1.87l1.31,2.21
		c0,0-0.06,0.53-0.49,0.24c-0.43-0.29-1.22-1.61-1.22-1.61l-0.95-0.77l0.44,1.57l-0.47,2.31c0,0-0.69-0.13-0.31-1.55
		c0.17-0.62-0.61-1.41-0.61-1.41l-0.25,1.34c0,0-0.47,1.04-0.78,0.96c-0.27-0.07-0.12-0.54-0.12-0.54s-0.21,0.23-0.35,0.07
		c-0.18-0.21,0-0.84,0-0.84l-0.6-1.03c0,0-2.26-1.39-1.78-2.92c0.14-0.45-0.85-1.69-0.85-1.69L350.39,366.45z"/>
	<path class="st6" d="M351.02,366.41l-15.59-16.88l-3.53-21.12c0,0-8.24-6.07-8.71,0.14c-0.47,6.21,6.31,24.94,6.31,24.94
		l18.76,15.69L351.02,366.41z"/>
	<path class="st4" d="M377.09,379.13l-3.5-0.09l-1.57,1.35c0,0,0.45,0.21,1.42-0.56l1.24,0.25l-2.1,1.74l-1.45,2.12
		c0,0,0.03,0.54,0.47,0.27c0.44-0.27,1.32-1.52,1.32-1.52l1-0.71l-0.54,1.53l0.32,2.34c0,0,0.7-0.09,0.4-1.53
		c-0.13-0.63,0.7-1.37,0.7-1.37l0.16,1.35c0,0,0.4,1.07,0.72,1.01c0.28-0.05,0.16-0.53,0.16-0.53s0.19,0.24,0.34,0.09
		c0.2-0.2,0.05-0.84,0.05-0.84l0.66-0.99c0,0,2.35-1.24,1.96-2.8c-0.11-0.46,0.96-1.63,0.96-1.63L377.09,379.13z"/>
	<path class="st5" d="M401.68,372.27c0,0-5.22,10.28-12.03,15.86c-6.8,5.58-12.08,40.26-12.08,40.26s-11.01,3.18-9.68,7.86
		c0,0,5.63,3.02,17.01-3.06c0,0,2.65-29.14,8.81-34.3c6.16-5.17,16.55-10.75,16.55-10.75l9.74,27.41l19.69,16.96
		c0,0-10.24,6.77-2.72,8.85c0,0,10.55-2.38,11.23-7.49l-18.75-21.44l-6.52-38.22L401.68,372.27z"/>
	<path class="st3" d="M426.74,338.77c0,0-2.29-3.69-6.76-3.65c-4.47,0.05-15.77-1.18-20.15,2.4c-5.1,4.17-11.76,25.76-11.76,25.76
		l-12.6,15.81l3.29,3.77l14.94-15.67l7.41-16.24c0,0,2.05,10.43,0.57,21.32c0,0,11.79,5.75,21.23,1.94
		C422.91,374.21,431.09,344.92,426.74,338.77"/>
	<polygon class="st4" points="411.07,330.44 415.4,336.63 411.77,343.83 405.1,339.62 	"/>
	<polygon class="st5" points="413.28,343.5 411.47,347.91 412.91,370.96 409.56,374.42 406.91,369.27 409.56,347.6 408.7,344.44 	
		"/>
	<polygon class="st6" points="411.05,344.06 414.2,346.08 418.33,334.99 413.9,333.9 411.1,343.34 406.25,338.24 408.01,346.8 	"/>
	<path class="st7" d="M406.93,343.04c2.78,0.08,7.34-6.01,6.71-10.84c-0.64-4.82-2.98-10.23-9.99-7.61
		c-5.09,1.9-4.85,8.14-4.04,11.09C400.41,338.64,403.28,342.93,406.93,343.04"/>
	<path class="st5" d="M399.3,331.35l0.64-0.91c1.73,5.5,7.91-1.07,10.03,4.35c0,0,1.03-3.46,1.95-2.02
		c0.92,1.43,0.62,4.71,0.62,4.71s1.63-1.86,1.36-3.57c-0.27-1.7,1.42-10.07-5.54-10.76C401.41,322.45,397.8,325.81,399.3,331.35"/>
	<path class="st8" d="M412.21,376.4l-0.14,1.88c0,0-1.26,0.94-4.24-0.32l0.19-2.52C408.01,375.44,408.32,375.93,412.21,376.4"/>
	<polygon class="st11" points="419.98,382.86 401.68,405.49 373.51,399.56 393.7,379.11 	"/>
	<polygon class="st11" points="401.68,405.49 427.96,437.9 441.97,419.24 419.98,382.86 	"/>
	<polygon class="st12" points="427.96,437.9 401.68,433.56 373.51,399.56 401.68,405.49 	"/>
	<polygon class="st10" points="401.68,405.49 373.51,422.29 349.27,413.37 373.51,399.56 	"/>
	<path class="st12" d="M373.51,422.29c0,0-0.47-8.33-12.2-11.91c-16.03-4.89-12.04,2.99-12.04,2.99L373.51,422.29z"/>
	<polygon class="st13" points="393.7,379.11 383.37,373.46 367.88,388.96 373.51,399.56 	"/>
	<polygon class="st13" points="401.68,405.49 410.59,402.01 427.96,380.98 419.98,382.86 	"/>
	<polygon class="st14" points="393.7,379.11 407.97,397.71 401.68,405.49 373.51,399.56 	"/>
	<path class="st4" d="M421.13,385.03l-3.45,0.63l-1.26,1.64c0,0,0.49,0.11,1.28-0.84l1.26-0.01l-1.7,2.13l-0.99,2.37
		c0,0,0.14,0.52,0.52,0.17c0.38-0.35,0.98-1.76,0.98-1.76l0.83-0.9l-0.21,1.61l0.8,2.22c0,0,0.66-0.23,0.08-1.58
		c-0.25-0.59,0.4-1.48,0.4-1.48l0.44,1.29c0,0,0.61,0.96,0.91,0.84c0.26-0.11,0.05-0.55,0.05-0.55s0.24,0.2,0.35,0.02
		c0.15-0.24-0.12-0.83-0.12-0.83l0.44-1.11c0,0,2.04-1.69,1.35-3.14c-0.2-0.43,0.6-1.79,0.6-1.79L421.13,385.03z"/>
	<path class="st6" d="M418.83,341.95c-0.2,4.24,3,20.48,3,20.48l-1.84,22.26l3.91,1.22l5.53-22.23c0,0-0.47-17.38-1.47-22.63
		C427.47,338.48,419.32,331.57,418.83,341.95"/>
	<path class="st7" d="M276.24,314.89c0,0,1.71-1.25,1.85-1.94c0.5-2.41-1.42-10.82-1.42-10.82s-0.88,3.31-1.7,4.31
		c-0.98,1.19,0.16,4.61-0.41,5.56c-0.57,0.95-1.71,6.39-1.71,6.39L276.24,314.89z"/>
	<path class="st4" d="M304.81,308.01c-1.24,4.18-5.4,4.75-6.91,6.08c-1.51,1.32-0.96,4.3-0.96,4.3s-7.02,0-6.26-1.28
		c0.64-1.06-2.34-6.63-3.08-9.87c-0.14-0.61-0.19-1.14-0.14-1.54c0.34-2.26,6.17-6.82,10.52-7.06c0.42-0.02,0.84,0,1.24,0.07
		C303.58,299.47,306.05,303.84,304.81,308.01"/>
	<path class="st5" d="M296.28,298.93c0,0,2.04-1.47,5.07-0.29c5.24,2.04,7.01,8.06,3.78,12.97c-2.53,3.85-7.23,3.42-7.23,3.42
		c-1.9-1.33-1.7-2.85,0-5.5c1.7-2.66,0-4.06,0-4.06S302.83,301.99,296.28,298.93"/>
	<path class="st3" d="M273.99,312.94c0,0-12.56,14.87-9.67,18.6c2.12,2.75,13.47-3.42,13.47-3.42s-4.74,11.38-4.55,25.61l17.95,1.15
		c0,0,0-10.95,5.76-18.78c5.02-6.82,11.19-17.67,3.42-18.33c-7.78-0.66-12.54-1.14-16.5,0c-2.83,0.82-10.43,5.51-10.43,5.51
		l3.23-8.25L273.99,312.94z"/>
	<path class="st7" d="M299.22,306.3c2.08,0.39,4.83,3.39,0.19,4.37c-3.45,0.73-3.13-2.16-3.13-2.16c-3.2,2.73-6.26,0.02-8.68-1.27
		c-0.14-0.61-0.19-1.14-0.14-1.54c0.34-2.26,6.17-6.82,10.52-7.06c3.83,1.07,3.89,3.34,3.89,3.34
		C299.41,303.08,299.22,306.3,299.22,306.3"/>
	<path class="st5" d="M291.13,317.77l-0.45-1.8l-2.47,1.8l-0.78,2.57c-4.95,6.45-10.41,19.6-10.41,19.6l1.52,3.99l2.81-2.7
		c-0.42-6.24,7.24-20.7,7.24-20.7L291.13,317.77z"/>
	<path class="st6" d="M287.46,317.58l-0.99,2.01l3.45-2.35c0,0,1.14,2.15,1.71,2.34c0.57,0.19,6.26-1.97,6.26-1.97l-0.67-2.58
		l-6.54,0.95l-0.21-0.51L287.46,317.58z"/>
	<path class="st7" d="M282,319.23c-0.92-2.43-2.76-1.19-2.7-4.28c0.02-1.11,6.39-0.83,6.39-0.83s-1.16-1.56,0.37-1.17
		c0.78,0.2,0.81,1.77,0.55,2.42c-0.44,1.08-1.69,1.42-1.63,1.89C285.27,319.51,282,319.23,282,319.23"/>
	<path class="st6" d="M284.99,317.25l-3.64,0.78c0,0,1.4,20.69,7.01,21.83c6.13,1.25,17.54-12.81,16.35-18.96
		c-0.26-1.36-2.79-3.74-4.17-3.66c-3.98,0.24-10.81,14.19-10.81,14.19L284.99,317.25z"/>
	<path class="st5" d="M291.18,354.88c0,0,0.48,30.79,2.92,41.03c1.79,7.49,8.5,36.02,8.5,36.02s-3.29,8.34-10.54,6.64
		c0,0-0.92-4.03,4.98-8.75c0,0-8.95-26.49-10.91-33.06c-3.08-10.34-4.66-26.28-6.18-26.28c-1.52,0-4.77,24.7-4.43,28.39
		c1.26,13.95,1.33,26.15,3.79,34.3c0,0-8.34,8.08-12.71,5.62c0,0-0.51-2.23,6.25-7.32c0,0-4.27-29.23-4.95-35.27
		c-1.3-11.35,4.93-34.33,5.33-42.48C273.23,353.73,278.97,351.86,291.18,354.88"/>
	<path class="st8" d="M277.03,356.38c0,0,1.26-1.14,4.33,0v-2.13c0,0-1.86-0.57-4.33-0.36V356.38z"/>
	<path class="st4" d="M187.12,309.11c0,0,0.53,0.14,1.59-0.98c1.06-1.12,3.47-2.3,3.47-2.3l-0.51,4.45c0,0-3.57,1.5-3.83,1.42
		C187.59,311.61,187.12,309.11,187.12,309.11"/>
	<path class="st3" d="M196.04,339.7c0,0-1.41-8.52-3.31-8.55c-0.84-0.01-1.9-0.65-3.04-0.43c-2.83,0.54-6.19,2.3-8.11,2.42
		c-1.18,0.07-1.32-1.48-1.32-1.48s-7.02-7.15-5.92-10.66c0.13-0.41,15.04-9.7,15.04-9.7l-1.45-2.61c0,0-16.9,4.82-19.14,10.23
		c-2.32,5.59,5.52,23.59,5.52,23.59c2.25,4.35,4.24,13.51,2.24,25.01l17.82,4.09C194.36,371.63,201.71,357.8,196.04,339.7"/>
	<path class="st5" d="M194.36,371.63l-15.07,31.8l15.24,29.7c0,0-8.36,6.85-16.19,4.14c0,0,1.07-4.08,9.1-7.24
		c0,0-18.23-21.39-19.15-26.33c-0.9-4.8,9.67-21.61,9.67-21.61l-19.88,13.84l-4.18,37.26c0,0-11.29,4.08-17.08,0
		c0,0,4.92-2.77,12.57-4.59c0,0-1.14-21.35-0.06-34.84c0.51-6.38,22.49-18.44,27.21-26.21
		C176.55,367.54,183.17,366.28,194.36,371.63"/>
	<path class="st8" d="M177.74,369.77c0,0,1.87-0.4,4.33,0.74l0.72-2.04c0,0-2.52-0.98-4.43-0.51L177.74,369.77z"/>
	<path class="st7" d="M188.71,331.57l-3.21,2.46l-6.31-0.45c0,0,2.02-1.63,0.5-3.36c0,0-4.02,0.42-4.48-7.24
		c-0.33-5.52,0.17-9.24,5.76-10.08c4.2-0.62,7.02,1.92,7.56,6.66c0.4,3.47-0.34,5.15-1,6.3
		C186.58,327.54,185.78,328.18,188.71,331.57"/>
	<path class="st4" d="M188.71,331.57l-4.31,4.85l-5.2-2.84c0,0,2.02-1.63,0.5-3.36c2.66-0.61,5.34-1.95,6.12-5.12
		c0.12-0.48,1.1,0.28,1.72,0.76C186.58,327.54,185.78,328.18,188.71,331.57"/>
	<path class="st5" d="M180.89,316.36c0.11-0.23,0.79,2.44,2.41,2.72c1.62,0.28,2.25,2.51,2.25,2.51s0.17-2.61,1.61-1.73
		c1.44,0.88,0.48,5.8-0.97,4.71l0.95,1.97c0,0,1.45-0.6,1.71-1.37c0.26-0.77,1.63-9.57-1.45-11.38c-3.08-1.81-2.49-0.56-2.49-0.56
		s-0.51-2.01-3.58-1.92s-7.35,4.36-7.54,5.98c-0.19,1.61,1.36,4.24,1.36,4.24s-0.16-1.44,1.14-2.19
		C177.6,318.59,180.21,317.87,180.89,316.36"/>
	<path class="st5" d="M183.39,334.52l-1.44,3.12c0,0,2.57,16.63,0.68,22.49l-2.37,2.31l-1.14-3.23c2.03-3.81,1.66-21.83,1.66-21.83
		l-0.99-2.69l1.52-1.21L183.39,334.52z"/>
	<polygon class="st8" points="180.26,331.67 181.57,332.71 186.93,329.04 189.69,330.73 185.52,337.27 181.35,334.06 179.14,336.64 
		177.88,333.9 	"/>
	<path class="st5" d="M240.91,309.41c0,0-1.04-3.03-3.98-2.83c-2.94,0.21-6.97,3.97-5.8,7.69c1.18,3.72,11.21,7.7,11.21,7.7
		s2.96-3.17,2.61-7.17C244.61,310.81,242.76,308.08,240.91,309.41"/>
	<path class="st7" d="M242.33,330.2l-2.82,0.19l-5.8,0.37l-1.2,0.08c0,0,0.34-0.62,0.73-1.44c0.56-1.2,1.22-2.84,1.09-3.62
		c-0.23-1.27-1.32-1.62-2.56-4.4c-0.02-0.03-0.03-0.08-0.05-0.11c-1.69-3.87-0.77-9.83,3-11.49c5.05-2.22,9.07,1.58,8.97,5.04
		c-0.09,3.03-0.44,4.89-0.89,6.14c-0.82,2.35-1.97,2.56-2.34,4.3c-0.16,0.74,0.53,2.32,1.11,3.5
		C241.97,329.58,242.33,330.2,242.33,330.2"/>
	<path class="st4" d="M240.45,325.25c-0.16,0.74,0.53,2.32,1.11,3.5l-0.21,0.95l-1.85,0.68l-5.26,1.91l-0.54-1.54l-0.47-1.36
		c0.56-1.2,1.22-2.84,1.09-3.62c-0.23-1.27-1.32-1.62-2.56-4.41c1.07,0.46,2.67,0.99,4.33,0.86c2.26-0.17,5.46-0.96,6.69-1.28
		C241.97,323.3,240.82,323.51,240.45,325.25"/>
	<path class="st5" d="M242.02,310.28c0,0-0.13,2.04,0.35,3.2c0.48,1.16,0.12,3.78,0.12,3.78s1.08-2.11,1.93-0.83
		C244.41,316.43,245.27,311.9,242.02,310.28"/>
	<path class="st7" d="M242.48,317.26c0,0,0.49-2.17,1.93-0.82c1.44,1.35-1.27,4.06-1.89,3.57
		C241.91,319.5,242.48,317.26,242.48,317.26"/>
	<path class="st6" d="M237.28,328.21c0,0-9.08-2.02-10.55-0.79c-1.48,1.24-7.95-0.79-7.95-0.79l7.22-10.64v-4.68
		c0,0-17.23,12.32-15.99,18.5c0.83,4.13,14.87,7.91,14.87,7.91s0.81,11.26,3.88,21.58l9.92,5.47l6.87-5.6c0,0-0.35-12.5,3.51-21.65
		c0,0,17.46-3.43,17.55-9.27c0.08-4.95-17.92-17.98-17.92-17.98l-2.59,3.49c0,0,10.21,9.01,11.77,12.86c0,0-4.22,2.28-10,0.79
		C241.57,325.79,237.28,328.21,237.28,328.21"/>
	<path class="st4" d="M225.9,295.93l-1.02-3.35l0.88-1.88c0,0,0.32,0.38-0.16,1.52l0.57,1.13l1.12-2.49l1.66-1.97
		c0,0,0.52-0.12,0.39,0.38c-0.14,0.5-1.12,1.68-1.12,1.68l-0.42,1.15l1.34-0.93l2.34-0.31c0,0,0.1,0.69-1.37,0.8
		c-0.64,0.05-1.13,1.04-1.13,1.04l1.35-0.2c0,0,1.14,0.1,1.16,0.42c0.03,0.28-0.47,0.29-0.47,0.29s0.29,0.12,0.18,0.31
		c-0.14,0.24-0.79,0.27-0.79,0.27l-0.78,0.9c0,0-0.57,2.59-2.18,2.64c-0.47,0.01-1.32,1.36-1.32,1.36L225.9,295.93z"/>
	<path class="st5" d="M234.76,327.42l1.54,3.18c0,0-3.5,9.4-4.81,20.13l2.64,1.84l2.64-2.08c0,0-2.44-10.85,0.74-19.38l1.47-3.26
		l-2.21-0.02L234.76,327.42z"/>
	<polygon class="st8" points="232.79,327.38 234.32,325.77 236.77,327.84 233.71,330.76 	"/>
	<polygon class="st8" points="236.77,327.84 240.5,330.52 242.24,327.35 240.47,325.89 	"/>
	<path class="st8" d="M227.83,335.77c0,0,2.64-0.62,4.96,0.52l-1.14,4.72l-2.4,0.94l-1.92-1.39L227.83,335.77z"/>
	<path class="st5" d="M228.76,359.31c0,0,9.39,2.81,16.79-0.13c0,0,1.09,4.73,1.39,6.32c1.68,9.17,9.56,23.49,9.86,32.8
		c0.33,10.04-3.31,32.96-3.31,32.96c5.17,5.8,4.13,7.1,4.13,7.1c-7.46,1.4-9.14-5.06-9.14-5.06s3.05-23.99,1.39-34.19
		c-1.08-6.61-10.36-22.65-13.1-22.65c-1.99,0-11.9,20.62-13.2,25.11c-1.16,3.98,2.55,31.82,2.55,31.82s-6.72,6.57-12.22,4.02
		c0,0-0.35-2.82,7.02-5.77c0,0-3.72-18.04-4.23-31.66c-0.21-5.61,9.32-25.92,11.54-35.57C228.51,363.18,228.76,359.31,228.76,359.31
		"/>
	<path class="st8" d="M233.09,361.18l-0.01,1.92c0,0,2.25,0.88,4.47,0.47l0.2-1.91C237.75,361.67,235.24,361.79,233.09,361.18"/>
	<path class="st7" d="M241.44,208.1l3.14,5.68l5.7-1.63c0,0-1.61-2.03,0.26-3.39c0,0,3.83,1.3,5.96-6.08
		c1.53-5.31,1.87-9.05-3.41-11.1c-3.96-1.53-7.27,0.33-8.84,4.84c-1.15,3.3-0.79,5.09-0.41,6.37
		C244.41,204.63,245.05,205.44,241.44,208.1"/>
	<path class="st4" d="M241.44,208.1l3.14,5.68l5.7-1.63c0,0-1.61-2.03,0.26-3.39c-2.46-1.18-2.97-5.8-4.85-6.34
		c-0.48-0.13-1.13,0.03-1.85,0.37C244.41,204.63,245.05,205.44,241.44,208.1"/>
	<path class="st3" d="M232.51,214.42c0,0-9.59,1.79-10.73-0.64c-2.79-5.97,15.67-21.21,15.67-21.21l2.21,2.07l-9.63,12.17
		c0,0,5.73-0.39,7.58,0c4.13,0.86,15.48,6.75,15.48,6.75v8.39c-3.15,3.75-1.75,15.43-0.76,21.1l-17.82,4.09
		C234.51,247.14,228.42,231.66,232.51,214.42"/>
	<path class="st5" d="M252.41,194.98c-0.05-0.25-1.31,2.21-2.95,2.13s-2.75,1.96-2.75,1.96s0.41-2.58-1.19-2.04
		c-1.6,0.54-1.74,5.55-0.08,4.81l-1.36,1.71c0,0-1.28-0.91-1.37-1.71c-0.08-0.81,0.51-9.7,3.91-10.78c3.4-1.08,2.55,0,2.55,0
		s0.93-1.85,3.91-1.08c2.98,0.77,6.21,5.87,6.04,7.49c-0.17,1.62-2.26,3.84-2.26,3.84s0.47-1.37-0.63-2.39
		C255.14,197.87,252.75,196.6,252.41,194.98"/>
	<path class="st5" d="M245.99,212.14l0.72,3.35c0,0-1.27,12.58-0.72,18.7l4.04,2.72l1.47-2.72c0,0-0.9-0.94-2.04-5.1
		c-1.13-4.17-1.56-13.6-1.56-13.6l1.56-2.41l-1.22-1.52L245.99,212.14z"/>
	<polygon class="st8" points="249.67,210.05 248.16,210.78 243.74,206.02 240.67,207.06 243.31,214.36 248.07,212.14 249.67,215.14 
		251.5,212.75 	"/>
	<path class="st4" d="M237.29,193.11c0,0,2.36-3.83,3.38-3.83c1.02,0,0,4.51,0,4.51S239.44,196.51,237.29,193.11"/>
	<path class="st5" d="M234.51,247.14l10.99,46.09l-1.97,30.72c0,0-0.19,10.92,3.95,10.24c4.14-0.68,2.42-4.88,0.34-9.73
		c0,0,5.28-23.99,5.28-32.77c-0.01-8.54-2.17-34.09-2.17-34.09l17.65,20.76l7.83,37.09c0,0,9.87,0.68,15.65-3.4
		c0,0-2.57-3.16-9.53-1.36c0,0-4.18-28.24-8.11-36.8c-3.96-8.61-17.36-23.06-22.09-30.83C252.33,243.05,245.71,241.8,234.51,247.14"
		/>
	<path class="st8" d="M251.13,245.29c0,0-1.87-0.4-4.33,0.74l-0.72-2.04c0,0,2.52-0.98,4.43-0.51L251.13,245.29z"/>
	<path class="st7" d="M218.39,212c0,0-1.71-1.25-1.85-1.94c-0.5-2.41,1.42-10.82,1.42-10.82s0.88,3.31,1.7,4.31
		c0.98,1.19-0.16,4.61,0.41,5.56c0.57,0.95,1.71,6.39,1.71,6.39L218.39,212z"/>
	<path class="st4" d="M189.82,205.12c1.24,4.18,5.39,4.75,6.91,6.08c1.51,1.32,0.96,4.3,0.96,4.3s7.02,0,6.26-1.27
		c-0.64-1.06,2.34-6.64,3.08-9.87c0.14-0.61,0.19-1.14,0.14-1.54c-0.34-2.26-6.17-6.82-10.52-7.06c-0.42-0.02-0.84,0-1.24,0.07
		C191.05,196.58,188.58,200.95,189.82,205.12"/>
	<path class="st5" d="M198.35,196.04c0,0,0.1-3.82-3.13-3.44c-3.23,0.38-5.4,4.74-5.4,4.74s-5.47,8.54-0.32,11.38
		c5.15,2.84,5.33,4.75,7.23,3.42c1.9-1.33,1.7-2.85,0-5.5c-1.7-2.66,0-4.06,0-4.06S191.8,199.11,198.35,196.04"/>
	<path class="st3" d="M220.64,210.05c0,0,12.56,14.87,9.67,18.6c-2.12,2.75-13.47-3.42-13.47-3.42s4.74,11.38,4.55,25.61
		l-17.95,1.15c0,0,0-10.95-5.76-18.78c-5.02-6.82-11.19-17.67-3.41-18.32c7.78-0.66,12.54-1.14,16.5,0
		c2.83,0.82,10.43,5.51,10.43,5.51l-3.23-8.25L220.64,210.05z"/>
	<path class="st7" d="M195.41,203.42c-2.08,0.39-4.83,3.39-0.19,4.37c3.45,0.73,3.13-2.16,3.13-2.16c3.2,2.73,6.26,0.02,8.68-1.27
		c0.14-0.61,0.19-1.14,0.14-1.54c-0.34-2.26-6.17-6.82-10.52-7.06c-3.83,1.06-3.89,3.34-3.89,3.34
		C195.22,200.19,195.41,203.42,195.41,203.42"/>
	<path class="st5" d="M203.5,214.89l0.45-1.8l2.47,1.8l0.78,2.57c4.95,6.45,10.41,19.6,10.41,19.6l-1.52,3.99l-2.81-2.7
		c0.42-6.24-7.24-20.7-7.24-20.7L203.5,214.89z"/>
	<path class="st6" d="M207.17,214.69l0.99,2.01l-3.45-2.35c0,0-1.14,2.15-1.71,2.34c-0.57,0.19-6.26-1.97-6.26-1.97l0.67-2.58
		l6.54,0.95l0.21-0.51L207.17,214.69z"/>
	<path class="st7" d="M212.62,216.34c0.92-2.43,2.76-1.19,2.69-4.28c-0.02-1.11-6.39-0.83-6.39-0.83s1.16-1.56-0.38-1.17
		c-0.78,0.2-0.81,1.77-0.55,2.42c0.44,1.08,1.69,1.42,1.63,1.89C209.36,216.62,212.62,216.34,212.62,216.34"/>
	<path class="st6" d="M209.64,214.36l3.64,0.78c0,0-1.4,20.69-7.01,21.83c-6.13,1.25-17.54-12.81-16.35-18.96
		c0.26-1.36,2.79-3.74,4.17-3.66c3.98,0.24,10.81,14.19,10.81,14.19L209.64,214.36z"/>
	<path class="st5" d="M203.45,251.99c0,0-9.67,33.85-12.1,44.09c-1.79,7.49-3.39,32.96-3.39,32.96s-5.94,4.1-4.56,5.48
		c1.95,1.96,9.83-1.05,9.37-5.34c0,0,4.61-25.68,6.56-32.25c3.08-10.34,13.85-29.34,15.37-29.34c1.52,0,7.46,22.34,8.42,25.92
		c1.33,4.93,3.09,25.99,0.63,34.15c0,0,5.31,9.29,9.67,6.83c0,0,3.13-3.51-3.62-8.6c0,0,2.85-27.31,1.95-33.32
		c-0.91-6.07-9.93-33.58-10.33-41.73C221.4,250.84,215.65,248.97,203.45,251.99"/>
	<path class="st8" d="M217.6,253.49c0,0-1.26-1.14-4.33,0v-2.13c0,0,1.86-0.57,4.33-0.36V253.49z"/>
	<path class="st15" d="M256.33,63.89c0,7.89-6.4,14.29-14.29,14.29s-14.29-6.4-14.29-14.29c0-5.95,3.61-9.95,6.05-13.71
		c0.79-1.22,1.14-3.65,1.14-3.65h14.2c0,0,0.35,2.43,1.14,3.65C252.72,53.94,256.33,57.59,256.33,63.89"/>
	<path class="st16" d="M229.1,64.74c0,7.14,5.79,12.93,12.93,12.93c7.14,0,12.93-5.79,12.93-12.93c0-7.14-5.79-12.93-12.93-12.93
		C234.89,51.81,229.1,57.6,229.1,64.74"/>
	<path class="st5" d="M252.75,31.39c0-1.69-1.37-3.06-3.06-3.06h-15.31c-1.69,0-3.06,1.37-3.06,3.06v13.95
		c0,1.69,1.37,3.06,3.06,3.06h15.31c1.69,0,3.06-1.37,3.06-3.06V31.39z"/>
	<path class="st17" d="M239.48,45.17c0,0,0.58,11.07-4.59,16.25h3.06l1.55,3.15l1.68-5.45l1.36,3.68l1.02-2.66l1.47,2.91l1.26-1.64
		h3.23c0,0-4.76-3.49-4.76-16.25"/>
	<path class="st6" d="M234.72,72.18c0,2.47,3.28,4.47,7.32,4.47c4.04,0,7.32-2,7.32-4.47c0-2.47-3.28-4.47-7.32-4.47
		C237.99,67.72,234.72,69.72,234.72,72.18"/>
	<path class="st6" d="M237.66,54.36c0,0.85,1.96,1.53,4.38,1.53c2.42,0,4.38-0.68,4.38-1.53c0-0.85-1.96-1.53-4.38-1.53
		C239.62,52.83,237.66,53.51,237.66,54.36"/>
	<path class="st18" d="M234.74,45.04c0,0.82,0.67,1.49,1.49,1.49h11.61c0.82,0,1.49-0.67,1.49-1.49c0-0.82-0.67-1.49-1.49-1.49
		h-11.61C235.41,43.56,234.74,44.22,234.74,45.04"/>
	<path class="st5" d="M235.91,82.79c0,0,1.35-2.91,4.25-2.4c2.9,0.51,6.52,4.68,4.96,8.25c-1.56,3.57-11.95,6.49-11.95,6.49
		s-2.62-3.46-1.85-7.4C232.08,83.79,234.21,81.28,235.91,82.79"/>
	<path class="st4" d="M252.24,70.95l1.36-3.23l-0.68-1.96c0,0-0.36,0.34,0,1.53l-0.68,1.06l-0.85-2.59l-1.45-2.13
		c0,0-0.51-0.17-0.42,0.34c0.08,0.51,0.94,1.79,0.94,1.79l0.3,1.19l-1.23-1.06l-2.3-0.55c0,0-0.17,0.68,1.28,0.94
		c0.63,0.11,1.02,1.15,1.02,1.15l-1.32-0.34c0,0-1.14-0.02-1.2,0.3c-0.05,0.27,0.44,0.34,0.44,0.34s-0.3,0.09-0.21,0.29
		c0.12,0.26,0.76,0.35,0.76,0.35l0.68,0.98c0,0,0.3,2.64,1.89,2.85c0.47,0.06,1.17,1.49,1.17,1.49L252.24,70.95z"/>
	<path class="st7" d="M232.34,103.32l2.79,0.48l5.73,0.97l1.18,0.2c0,0-0.28-0.65-0.57-1.51c-0.43-1.26-0.92-2.95-0.7-3.72
		c0.36-1.24,1.48-1.47,3-4.11c0.02-0.03,0.04-0.07,0.06-0.1c2.08-3.68,1.79-9.7-1.79-11.74c-4.79-2.74-9.19,0.62-9.44,4.08
		c-0.22,3.02-0.07,4.91,0.25,6.2c0.57,2.42,1.69,2.75,1.88,4.52c0.08,0.76-0.76,2.26-1.47,3.37
		C232.76,102.74,232.34,103.32,232.34,103.32"/>
	<path class="st4" d="M234.72,98.6c0.08,0.76-0.77,2.26-1.47,3.37l0.11,0.97l1.77,0.87l5.03,2.45l0.69-1.48l0.61-1.31
		c-0.43-1.26-0.92-2.95-0.7-3.72c0.36-1.23,1.48-1.47,3-4.11c-1.11,0.35-2.76,0.71-4.4,0.41c-2.23-0.41-5.33-1.52-6.52-1.97
		C233.41,96.49,234.53,96.82,234.72,98.6"/>
	<path class="st6" d="M245.12,99.75c-6.6,3.13-12.14,1.62-14.95,0c-3.83-2.21-5.83-15.69-5.83-15.69l8.9-8.9l-2-1.9
		c0,0-10.28,5.67-11.67,9.1c-2.47,6.14,3.74,26.2,3.74,26.2s5.78,11.57,2.38,25.18c0,0,8.51,4.42,16.5,2.04l9.7-31.99
		c0,0,5.49-14.05,5.32-18.97c-0.13-3.68-4.98-13.87-4.98-13.87l-1.68,1.24l0.66,12.55C251.22,84.73,249.16,97.83,245.12,99.75"/>
	<path class="st5" d="M240.16,101.34l-1.86,3c0,0,4.12,15.06,4.5,19.52l-2.25,2.81l-1.82-2.68c0,0,0.57-10.44-1.7-19.26l-1.12-3.39
		l2.2,0.21L240.16,101.34z"/>
	<polygon class="st8" points="242.21,100.65 240.76,99.75 238.11,101.55 240.85,104.77 	"/>
	<polygon class="st8" points="238.11,101.55 234.12,103.83 231.7,100.49 234.64,99.23 	"/>
	<path class="st8" d="M234.9,109.19c0,0-2.57-0.89-4.99,0l0.64,4.82l2.29,1.18l2.05-1.18L234.9,109.19z"/>
	<path class="st5" d="M234.72,83.54c0,0-0.09,2.04-0.68,3.15c-0.59,1.11-0.51,3.74-0.51,3.74s-0.86-2.21-1.83-1.02
		C231.7,89.41,231.32,84.82,234.72,83.54"/>
	<path class="st7" d="M233.53,90.43c0,0-0.26-2.21-1.83-1.02c-1.57,1.19,0.84,4.17,1.51,3.74
		C233.87,92.73,233.53,90.43,233.53,90.43"/>
	<path class="st5" d="M242.8,133.68c0,0-9.63,1.82-16.69-1.88c0,0-1.58,4.59-2.03,6.14c-2.63,8.94-8,23.81-9.27,33.04
		c-1.37,9.95-1.36,35.05-1.36,35.05c-5.74,5.23-4.85,6.64-4.85,6.64c7.27,2.17,9.61-4.08,9.61-4.08s0.69-26.1,3.4-36.07
		c1.76-6.47,7.46-15.61,10.98-25.05c0.22-0.59,1.23-0.98,1.4-0.38c2.67,9.38,8.74,24.58,9.57,29.18c0.74,4.08-9.7,28.92-9.7,28.92
		s6,7.23,11.74,5.27c0,0,0.64-2.76-6.38-6.47c0,0,8.62-17.9,11.98-26.42c2.06-5.23-7.19-28.92-8.4-38.74
		C242.64,137.56,242.8,133.68,242.8,133.68"/>
	<path class="st8" d="M238.3,135.09l-0.19,1.91c0,0-2.33,0.64-4.5,0v-1.91C233.61,135.09,236.09,135.47,238.3,135.09"/>
	<path class="st4" d="M246.58,185.47l2.1-2.81l-0.19-2.06c0,0-0.43,0.25-0.37,1.49l-0.92,0.87l-0.21-2.72l-0.89-2.41
		c0,0-0.45-0.29-0.49,0.23c-0.04,0.52,0.48,1.96,0.48,1.96l0,1.23l-0.94-1.33l-2.1-1.09c0,0-0.33,0.62,1.01,1.21
		c0.58,0.26,0.72,1.36,0.72,1.36l-1.2-0.65c0,0-1.1-0.29-1.24,0c-0.12,0.25,0.34,0.43,0.34,0.43s-0.31,0.02-0.27,0.23
		c0.05,0.28,0.66,0.52,0.66,0.52l0.43,1.11c0,0-0.34,2.63,1.15,3.22c0.44,0.17,0.78,1.72,0.78,1.72L246.58,185.47z"/>
	<path class="st6" d="M256.58,213.78l-7.91-10.03l-1.96-17.78l-3.15-0.43c0,0-1.17,14.38,0,18.97c1.23,4.81,9.53,17.44,9.53,17.44
		S259.14,218.81,256.58,213.78"/>
	<path class="st4" d="M250.68,313.17l0.59-3.45l-1.11-1.75c0,0-0.27,0.42,0.35,1.49l-0.42,1.19l-1.42-2.33l-1.89-1.74
		c0,0-0.53-0.05-0.34,0.43c0.2,0.48,1.32,1.53,1.32,1.53l0.56,1.09l-1.44-0.76l-2.36-0.01c0,0-0.01,0.7,1.46,0.62
		c0.64-0.04,1.26,0.89,1.26,0.89l-1.36-0.03c0,0-1.12,0.24-1.1,0.57c0.01,0.28,0.5,0.23,0.5,0.23s-0.27,0.16-0.14,0.32
		c0.17,0.22,0.82,0.17,0.82,0.17l0.89,0.8c0,0,0.89,2.5,2.49,2.35c0.47-0.04,1.48,1.18,1.48,1.18L250.68,313.17z"/>
	<path class="st4" d="M224.37,313.17l-0.59-3.45l1.11-1.75c0,0,0.27,0.42-0.35,1.49l0.42,1.19l1.42-2.33l1.89-1.74
		c0,0,0.53-0.05,0.34,0.43s-1.32,1.53-1.32,1.53l-0.56,1.09l1.44-0.76l2.36-0.01c0,0,0.01,0.7-1.46,0.62
		c-0.64-0.04-1.26,0.89-1.26,0.89l1.36-0.03c0,0,1.12,0.24,1.1,0.57c-0.01,0.28-0.5,0.23-0.5,0.23s0.27,0.16,0.14,0.32
		c-0.17,0.22-0.82,0.17-0.82,0.17l-0.89,0.8c0,0-0.89,2.5-2.49,2.35c-0.47-0.04-1.48,1.18-1.48,1.18L224.37,313.17z"/>
	<path class="st6" d="M223.78,319.25l2.21-3.25c0,0-0.14-3.77-1.72-3.39l-2.64,2.09L223.78,319.25z"/>
	<path class="st6" d="M250.89,311.93c0,0-1.14,0.39-1.58,1.83c-0.45,1.44,0.1,3.06,0.1,3.06l5.58,3.23L250.89,311.93z"/>
	<path class="st4" d="M197.22,304.07l2.14-2.78l-0.16-2.07c0,0-0.44,0.24-0.39,1.48l-0.93,0.85l-0.16-2.72l-0.86-2.42
		c0,0-0.45-0.29-0.5,0.22c-0.05,0.51,0.45,1.96,0.45,1.96l-0.02,1.23l-0.92-1.34l-2.08-1.12c0,0-0.34,0.61,0.99,1.23
		c0.58,0.27,0.7,1.37,0.7,1.37l-1.19-0.67c0,0-1.1-0.3-1.24-0.01c-0.12,0.25,0.34,0.44,0.34,0.44s-0.31,0.01-0.27,0.22
		c0.05,0.28,0.65,0.53,0.65,0.53l0.41,1.12c0,0-0.38,2.63,1.11,3.24c0.44,0.18,0.75,1.73,0.75,1.73L197.22,304.07z"/>
	<path class="st6" d="M196.04,339.7c0,0,1.69-1.08,2.15-5.48c0.46-4.4-5.7-14.16-5.7-14.16l4.95-15.22c-0.47-0.65-3.18,0-3.18,0
		s-5.95,8.45-7.01,14.09C186.19,324.58,191.91,337.08,196.04,339.7"/>
	<path class="st11" d="M235.91,0h12.59h30.63l-3.4,6.13c-21.78,10.21-20.76,27.22-20.76,27.22h-12.59h-0.34h-12.59
		c0,0,1.02-17.01-20.76-27.22L205.29,0H235.91z"/>
	<polygon class="st5" points="279.13,0 275.72,6.13 208.69,6.13 205.29,0 	"/>
	<path class="st8" d="M565.57,221.72c0,1.08,0.87,1.95,1.95,1.95h36.35c1.08,0,1.95-0.87,1.95-1.95v-36.35
		c0-1.08-0.87-1.95-1.95-1.95h-36.35c-1.08,0-1.95,0.87-1.95,1.95V221.72z"/>
	<path class="st3" d="M566.34,220.27c0,1.04,0.84,1.87,1.87,1.87h34.97c1.04,0,1.87-0.84,1.87-1.87v-34.97
		c0-1.03-0.84-1.87-1.87-1.87h-34.97c-1.03,0-1.87,0.84-1.87,1.87V220.27z"/>
	<rect x="580.72" y="192.88" class="st6" width="9.95" height="21.33"/>
	<rect x="580.72" y="192.88" class="st9" width="9.95" height="10.1"/>
	<rect x="580.72" y="214.21" class="st13" width="9.95" height="1.54"/>
	<path class="st19" d="M578.92,256.8c0.01,0,0.01,0,0.02,0c0.56,0.03,1.05-0.4,1.08-0.96l3.39-59.74c0.03-0.56-0.36-1.02-0.96-1.08
		c-0.56-0.03-1.05,0.4-1.08,0.96l-3.39,59.74C577.94,256.28,578.36,256.76,578.92,256.8"/>
	<path class="st4" d="M578.49,260.86l2.2-3.13c0,0-0.46-3.16-0.18-5.01c0,0-1.01,0.55-1.2,2.24l-0.78-3.89c0,0-0.97-1.68-1.18-0.17
		c-0.21,1.52-1.17,2.24-1.8,3.01c-0.62,0.77,0.54,4.72-0.06,6.52C574.91,262.25,578.49,260.86,578.49,260.86"/>
	<path class="st4" d="M613.52,313.95l-0.59-3.45l1.11-1.75c0,0,0.27,0.42-0.35,1.49l0.42,1.19l1.42-2.33l1.89-1.74
		c0,0,0.53-0.05,0.34,0.43c-0.2,0.48-1.32,1.53-1.32,1.53l-0.56,1.09l1.44-0.76l2.36-0.01c0,0,0.01,0.7-1.46,0.62
		c-0.64-0.04-1.26,0.89-1.26,0.89l1.36-0.03c0,0,1.11,0.24,1.1,0.57c-0.01,0.28-0.5,0.23-0.5,0.23s0.27,0.16,0.14,0.32
		c-0.17,0.22-0.82,0.17-0.82,0.17l-0.89,0.8c0,0-0.89,2.5-2.49,2.35c-0.47-0.04-1.48,1.18-1.48,1.18L613.52,313.95z"/>
	<path class="st4" d="M586.81,309.56c0.49-0.98,0.96-4.89,3.36-5.8c2.4-0.91,5.88,0.02,7.86-6.57c1.99-6.59-5.46-11.86-8.34-10.91
		c-2.88,0.95-7.45,6.36-7.45,9.42v4.77l-3.08,7.87L586.81,309.56z"/>
	<path class="st6" d="M593.66,311.52c0,0-14.22-7.24-15.72-11.75c-1.5-4.51-2.78-20-2.78-20l4-19.02c-0.63-1.62-3.43-1.62-3.43-1.62
		s-5.3,14.48-6.06,19.53c-1,6.6,0,26.71,0,26.71s-1.88,26.37,1.5,39.91h16.92c0,0-0.75-15.52,3.39-20.55c0,0,8.56,9.5,13,8.39
		c5.17-1.29,11.19-17.39,11.19-17.39l-2.74-1.73l-8.1,11.38L593.66,311.52z"/>
	<path class="st5" d="M588.09,345.28c0,0,2.69,35.04-2.67,80.94l1.53,7.4h-6.89l-0.44-6.64c0,0,3.5-63.29-0.58-63.29
		c-4.08,0-1.02,62.53-1.02,62.53l-1.55,7.4h-7.13l2.3-6.64c0,0-5.87-49.51-0.47-81.7C571.17,345.28,579.81,339.19,588.09,345.28"/>
	<path class="st3" d="M588.77,308.81c0,0-1.14-6.48-7.86-5.4C580.91,303.4,581.65,307.52,588.77,308.81"/>
	<path class="st5" d="M586.02,290.7c0,0,1.36-0.85,1.36,0c0,0.85-1.34,3.29-3.23,4.15c0,0-1.53,3.85,0,5.55
		c1.53,1.7,4.62,4.44,4.62,4.44s10.01,0.38,11.2-8.41c1.19-8.79-9.81-12.51-11.2-11.58C588.77,284.84,587.89,286.55,586.02,290.7"/>
	<g>
		<path class="st6" d="M716.09,257.62c-0.03-1.81,0.62-3.36,1.94-4.65c1.32-1.29,2.89-1.93,4.71-1.9c1.81-0.03,3.38,0.61,4.72,1.9
			c1.34,1.29,1.99,2.84,1.95,4.65c0.04,1.81-0.61,3.36-1.95,4.65c-1.34,1.29-2.91,1.93-4.72,1.9c-1.82,0.03-3.39-0.61-4.72-1.9
			C716.7,260.97,716.05,259.42,716.09,257.62z M727.31,257.6c0-1.33-0.44-2.44-1.31-3.33c-0.87-0.89-1.95-1.33-3.25-1.33
			c-1.31,0-2.39,0.44-3.26,1.33s-1.3,2-1.3,3.34c0,1.36,0.43,2.48,1.29,3.37c0.86,0.89,1.95,1.33,3.27,1.33
			c1.29,0,2.38-0.45,3.25-1.34S727.31,258.94,727.31,257.6z"/>
		<path class="st6" d="M731.61,260v-5.47h2v5.63c0,0.64,0.2,1.16,0.6,1.56c0.4,0.4,0.91,0.6,1.54,0.6c0.6,0,1.1-0.2,1.49-0.6
			c0.39-0.4,0.59-0.92,0.59-1.56v-5.63h2.02V260c0,1.24-0.39,2.25-1.16,3.02c-0.77,0.77-1.75,1.15-2.93,1.15
			c-1.2,0-2.19-0.38-2.97-1.14C732,262.26,731.61,261.25,731.61,260z"/>
		<path class="st6" d="M748.06,254.52v1.79h-0.61c-0.82,0-1.49,0.23-2,0.69c-0.51,0.46-0.77,1.1-0.77,1.92v5.03h-2.02v-9.43h1.88
			v1.23c0.7-0.88,1.62-1.33,2.75-1.33C747.55,254.43,747.8,254.46,748.06,254.52z"/>
		<path class="st6" d="M757.41,263.96V253.1h-4.26v-1.83h10.58v1.83h-4.28v10.85H757.41z"/>
		<path class="st6" d="M772.57,259.9h-7.03c0.13,0.77,0.47,1.37,1.03,1.82c0.56,0.44,1.24,0.66,2.05,0.66c1,0,1.91-0.37,2.75-1.11
			l0.96,1.38c-1.06,1.01-2.32,1.52-3.77,1.52c-1.43,0-2.64-0.47-3.61-1.41c-0.97-0.94-1.46-2.11-1.46-3.51
			c-0.03-1.36,0.45-2.53,1.42-3.51c0.97-0.98,2.13-1.46,3.46-1.43c1.24,0,2.28,0.41,3.11,1.24c0.83,0.83,1.25,1.85,1.25,3.08
			C772.73,259.01,772.67,259.43,772.57,259.9z M765.58,258.33h5.13c-0.01-0.7-0.25-1.26-0.71-1.68c-0.46-0.42-1.03-0.62-1.71-0.62
			c-0.67,0-1.25,0.21-1.74,0.62C766.06,257.06,765.73,257.62,765.58,258.33z"/>
		<path class="st6" d="M782.52,258.25v5.71h-1.88v-1.06c-0.71,0.84-1.71,1.27-3.02,1.27c-0.99,0-1.78-0.25-2.38-0.75
			c-0.6-0.5-0.9-1.16-0.9-1.98c0-0.82,0.31-1.47,0.94-1.96c0.63-0.49,1.47-0.73,2.54-0.73h2.67v-0.61c0-0.65-0.18-1.15-0.53-1.5
			c-0.35-0.35-0.85-0.52-1.49-0.52c-0.96,0-1.83,0.47-2.61,1.4l-1.17-1.19c0.92-1.34,2.25-2.02,3.98-2.02
			c1.18,0,2.12,0.35,2.81,1.04C782.17,256.04,782.52,257.01,782.52,258.25z M780.49,260.38v-0.17h-2.42c-1.11,0-1.67,0.38-1.67,1.15
			c0,0.38,0.15,0.69,0.45,0.91c0.3,0.22,0.7,0.34,1.2,0.34c0.69,0,1.27-0.21,1.74-0.63C780.25,261.55,780.49,261.02,780.49,260.38z"
			/>
		<path class="st6" d="M799.49,258.06v5.9h-2.04v-5.61c0-0.67-0.18-1.2-0.53-1.59c-0.35-0.4-0.83-0.6-1.43-0.6
			c-0.62,0-1.11,0.2-1.5,0.59c-0.38,0.39-0.58,0.89-0.58,1.51v5.71h-2.02v-5.61c0-0.65-0.18-1.18-0.54-1.58
			c-0.36-0.4-0.84-0.6-1.44-0.6c-0.61,0-1.11,0.2-1.5,0.6c-0.38,0.4-0.58,0.93-0.58,1.58v5.61h-2.02v-9.43h1.88v0.88
			c0.7-0.73,1.61-1.09,2.73-1.09c1.31,0,2.26,0.49,2.86,1.48c0.75-0.99,1.82-1.48,3.19-1.48c1.08,0,1.93,0.34,2.56,1.03
			C799.17,256.02,799.49,256.93,799.49,258.06z"/>
		<path class="st6" d="M815.91,258.06v5.9h-2.02v-5.61c0-0.65-0.19-1.18-0.56-1.58c-0.37-0.4-0.87-0.6-1.5-0.6
			c-0.63,0-1.14,0.21-1.55,0.61c-0.4,0.41-0.6,0.94-0.6,1.58v5.61h-2.02v-14.41h2.02v5.92c0.65-0.77,1.56-1.15,2.73-1.15
			c1.06,0,1.91,0.34,2.55,1.03C815.6,256.02,815.91,256.93,815.91,258.06z"/>
		<path class="st6" d="M826.21,258.25v5.71h-1.88v-1.06c-0.71,0.84-1.71,1.27-3.02,1.27c-0.99,0-1.78-0.25-2.38-0.75
			c-0.6-0.5-0.9-1.16-0.9-1.98c0-0.82,0.31-1.47,0.94-1.96c0.63-0.49,1.47-0.73,2.54-0.73h2.67v-0.61c0-0.65-0.18-1.15-0.53-1.5
			c-0.35-0.35-0.85-0.52-1.49-0.52c-0.96,0-1.83,0.47-2.61,1.4l-1.17-1.19c0.92-1.34,2.25-2.02,3.98-2.02
			c1.18,0,2.12,0.35,2.81,1.04C825.86,256.04,826.21,257.01,826.21,258.25z M824.17,260.38v-0.17h-2.42c-1.11,0-1.67,0.38-1.67,1.15
			c0,0.38,0.15,0.69,0.45,0.91c0.3,0.22,0.7,0.34,1.2,0.34c0.69,0,1.27-0.21,1.74-0.63C823.94,261.55,824.17,261.02,824.17,260.38z"
			/>
		<path class="st6" d="M828.13,262.34l1.15-1.27c0.86,0.9,1.74,1.34,2.65,1.34c0.45,0,0.81-0.09,1.1-0.28
			c0.28-0.19,0.42-0.45,0.42-0.78c0-0.26-0.1-0.46-0.29-0.62c-0.19-0.16-0.54-0.34-1.04-0.55l-0.96-0.4
			c-0.86-0.36-1.48-0.75-1.87-1.16s-0.59-0.94-0.59-1.58c0-0.83,0.31-1.5,0.93-1.99s1.42-0.74,2.39-0.74c1.36,0,2.45,0.49,3.27,1.46
			l-1.09,1.25c-0.62-0.64-1.35-0.96-2.21-0.96c-0.86,0-1.29,0.3-1.29,0.9c0,0.23,0.09,0.43,0.27,0.59c0.18,0.16,0.51,0.34,0.98,0.53
			l0.9,0.37c0.91,0.38,1.57,0.79,1.97,1.22s0.61,0.97,0.61,1.62c0,0.91-0.33,1.62-1,2.13c-0.67,0.5-1.5,0.75-2.5,0.75
			C830.33,264.17,829.06,263.56,828.13,262.34z"/>
		<path class="st6" d="M851.63,259.9h-7.03c0.13,0.77,0.47,1.37,1.03,1.82c0.56,0.44,1.24,0.66,2.05,0.66c1,0,1.91-0.37,2.75-1.11
			l0.96,1.38c-1.06,1.01-2.32,1.52-3.77,1.52c-1.43,0-2.64-0.47-3.61-1.41c-0.97-0.94-1.46-2.11-1.46-3.51
			c-0.03-1.36,0.45-2.53,1.42-3.51c0.97-0.98,2.13-1.46,3.46-1.43c1.24,0,2.28,0.41,3.11,1.24c0.83,0.83,1.25,1.85,1.25,3.08
			C851.78,259.01,851.73,259.43,851.63,259.9z M844.63,258.33h5.13c-0.01-0.7-0.25-1.26-0.71-1.68c-0.46-0.42-1.03-0.62-1.71-0.62
			c-0.67,0-1.25,0.21-1.74,0.62C845.11,257.06,844.79,257.62,844.63,258.33z"/>
		<path class="st6" d="M862.02,263.96h-2.31l-2.36-3.46l-2.34,3.46h-2.31l3.5-4.9l-3.25-4.53h2.31l2.11,3.11l2.09-3.11h2.31
			l-3.27,4.55L862.02,263.96z"/>
		<path class="st6" d="M869.38,262.25v1.71c-0.67,0.14-1.22,0.21-1.67,0.21c-1.1,0-1.96-0.28-2.56-0.83
			c-0.61-0.55-0.91-1.37-0.91-2.46v-4.61h-1.54v-1.75h1.54v-2.48h2.04v2.48h2.8v1.75h-2.8v4.44c0,0.59,0.15,1.01,0.45,1.26
			c0.3,0.25,0.77,0.37,1.41,0.37C868.35,262.34,868.76,262.31,869.38,262.25z"/>
		<path class="st6" d="M879.73,259.9h-7.03c0.13,0.77,0.47,1.37,1.03,1.82c0.56,0.44,1.24,0.66,2.05,0.66c1,0,1.91-0.37,2.75-1.11
			l0.96,1.38c-1.06,1.01-2.32,1.52-3.77,1.52c-1.43,0-2.64-0.47-3.61-1.41c-0.97-0.94-1.46-2.11-1.46-3.51
			c-0.03-1.36,0.45-2.53,1.42-3.51c0.97-0.98,2.13-1.46,3.46-1.43c1.24,0,2.28,0.41,3.11,1.24c0.83,0.83,1.25,1.85,1.25,3.08
			C879.89,259.01,879.83,259.43,879.73,259.9z M872.74,258.33h5.13c-0.01-0.7-0.25-1.26-0.71-1.68c-0.46-0.42-1.03-0.62-1.71-0.62
			c-0.67,0-1.25,0.21-1.74,0.62C873.22,257.06,872.89,257.62,872.74,258.33z"/>
		<path class="st6" d="M890.43,258.06v5.9h-2.02v-5.63c0-0.65-0.19-1.18-0.57-1.58c-0.38-0.4-0.87-0.61-1.49-0.61
			c-0.63,0-1.14,0.21-1.55,0.62c-0.4,0.41-0.6,0.93-0.6,1.58v5.63h-2.02v-9.43h1.88v0.92c0.72-0.76,1.66-1.13,2.82-1.13
			c1.09,0,1.95,0.34,2.58,1.02S890.43,256.92,890.43,258.06z"/>
		<path class="st6" d="M892.35,262.34l1.15-1.27c0.86,0.9,1.74,1.34,2.65,1.34c0.45,0,0.81-0.09,1.1-0.28
			c0.28-0.19,0.42-0.45,0.42-0.78c0-0.26-0.1-0.46-0.29-0.62c-0.19-0.16-0.54-0.34-1.04-0.55l-0.96-0.4
			c-0.86-0.36-1.48-0.75-1.87-1.16s-0.59-0.94-0.59-1.58c0-0.83,0.31-1.5,0.93-1.99s1.42-0.74,2.39-0.74c1.36,0,2.45,0.49,3.27,1.46
			l-1.09,1.25c-0.62-0.64-1.35-0.96-2.21-0.96c-0.86,0-1.29,0.3-1.29,0.9c0,0.23,0.09,0.43,0.27,0.59c0.18,0.16,0.51,0.34,0.98,0.53
			l0.9,0.37c0.91,0.38,1.57,0.79,1.97,1.22s0.61,0.97,0.61,1.62c0,0.91-0.33,1.62-1,2.13c-0.67,0.5-1.5,0.75-2.5,0.75
			C894.56,264.17,893.29,263.56,892.35,262.34z"/>
		<path class="st6" d="M902.02,251.95c-0.27-0.26-0.4-0.57-0.4-0.94c0-0.37,0.13-0.69,0.4-0.95c0.27-0.26,0.6-0.39,0.98-0.39
			c0.37,0,0.69,0.13,0.96,0.39c0.27,0.26,0.4,0.58,0.4,0.95c0,0.37-0.13,0.69-0.4,0.94c-0.27,0.26-0.59,0.38-0.96,0.38
			C902.61,252.33,902.29,252.21,902.02,251.95z M901.98,263.96v-9.43H904v9.43H901.98z"/>
		<path class="st6" d="M913.49,254.52h2.15l-4.55,9.64h-0.69l-4.57-9.64h2.15l2.77,6.24L913.49,254.52z"/>
		<path class="st6" d="M925.57,259.9h-7.03c0.13,0.77,0.47,1.37,1.03,1.82c0.56,0.44,1.24,0.66,2.05,0.66c1,0,1.91-0.37,2.75-1.11
			l0.96,1.38c-1.06,1.01-2.32,1.52-3.77,1.52c-1.43,0-2.64-0.47-3.61-1.41c-0.97-0.94-1.46-2.11-1.46-3.51
			c-0.03-1.36,0.45-2.53,1.42-3.51c0.97-0.98,2.13-1.46,3.46-1.43c1.24,0,2.28,0.41,3.11,1.24c0.83,0.83,1.25,1.85,1.25,3.08
			C925.72,259.01,925.67,259.43,925.57,259.9z M918.58,258.33h5.13c-0.01-0.7-0.25-1.26-0.71-1.68c-0.46-0.42-1.03-0.62-1.71-0.62
			c-0.67,0-1.25,0.21-1.74,0.62C919.05,257.06,918.73,257.62,918.58,258.33z"/>
		<path class="st6" d="M941.9,259.9h-7.03c0.13,0.77,0.47,1.37,1.03,1.82c0.56,0.44,1.24,0.66,2.05,0.66c1,0,1.91-0.37,2.75-1.11
			l0.96,1.38c-1.06,1.01-2.32,1.52-3.77,1.52c-1.43,0-2.64-0.47-3.61-1.41c-0.97-0.94-1.46-2.11-1.46-3.51
			c-0.03-1.36,0.45-2.53,1.42-3.51c0.97-0.98,2.13-1.46,3.46-1.43c1.24,0,2.28,0.41,3.11,1.24c0.83,0.83,1.25,1.85,1.25,3.08
			C942.05,259.01,942,259.43,941.9,259.9z M934.91,258.33h5.13c-0.01-0.7-0.25-1.26-0.71-1.68c-0.46-0.42-1.03-0.62-1.71-0.62
			c-0.67,0-1.25,0.21-1.74,0.62C935.38,257.06,935.06,257.62,934.91,258.33z"/>
		<path class="st6" d="M952.31,263.96h-2.31l-2.36-3.46l-2.34,3.46h-2.31l3.5-4.9l-3.25-4.53h2.31l2.11,3.11l2.09-3.11h2.31
			l-3.27,4.55L952.31,263.96z"/>
		<path class="st6" d="M963.86,259.23c0,1.41-0.44,2.58-1.32,3.53c-0.88,0.94-1.98,1.41-3.31,1.41c-1.31,0-2.36-0.45-3.15-1.36v4.61
			h-2.02v-12.89h1.88v1.33c0.72-1.02,1.81-1.54,3.29-1.54c1.33,0,2.44,0.47,3.31,1.41C963.42,256.67,963.86,257.83,963.86,259.23z
			 M960.96,261.46c0.55-0.58,0.83-1.31,0.83-2.21s-0.28-1.64-0.83-2.22c-0.55-0.58-1.24-0.87-2.06-0.87c-0.79,0-1.47,0.27-2.02,0.81
			s-0.83,1.29-0.83,2.27c0,0.99,0.28,1.75,0.83,2.29c0.55,0.54,1.22,0.81,2.02,0.81C959.72,262.32,960.41,262.03,960.96,261.46z"/>
		<path class="st6" d="M974.67,259.9h-7.03c0.13,0.77,0.47,1.37,1.03,1.82c0.56,0.44,1.24,0.66,2.05,0.66c1,0,1.91-0.37,2.75-1.11
			l0.96,1.38c-1.06,1.01-2.32,1.52-3.77,1.52c-1.43,0-2.64-0.47-3.61-1.41c-0.97-0.94-1.46-2.11-1.46-3.51
			c-0.03-1.36,0.45-2.53,1.42-3.51c0.97-0.98,2.13-1.46,3.46-1.43c1.24,0,2.28,0.41,3.11,1.24c0.83,0.83,1.25,1.85,1.25,3.08
			C974.83,259.01,974.78,259.43,974.67,259.9z M967.68,258.33h5.13c-0.01-0.7-0.25-1.26-0.71-1.68c-0.46-0.42-1.03-0.62-1.71-0.62
			c-0.67,0-1.25,0.21-1.74,0.62C968.16,257.06,967.83,257.62,967.68,258.33z"/>
		<path class="st6" d="M982.53,254.52v1.79h-0.61c-0.82,0-1.49,0.23-2,0.69c-0.51,0.46-0.77,1.1-0.77,1.92v5.03h-2.02v-9.43h1.88
			v1.23c0.7-0.88,1.62-1.33,2.75-1.33C982.02,254.43,982.28,254.46,982.53,254.52z"/>
		<path class="st6" d="M984.38,251.95c-0.27-0.26-0.4-0.57-0.4-0.94c0-0.37,0.13-0.69,0.4-0.95c0.27-0.26,0.6-0.39,0.98-0.39
			c0.37,0,0.69,0.13,0.96,0.39c0.27,0.26,0.4,0.58,0.4,0.95c0,0.37-0.13,0.69-0.4,0.94c-0.27,0.26-0.59,0.38-0.96,0.38
			C984.97,252.33,984.65,252.21,984.38,251.95z M984.34,263.96v-9.43h2.02v9.43H984.34z"/>
		<path class="st6" d="M997.77,259.9h-7.03c0.13,0.77,0.47,1.37,1.03,1.82c0.56,0.44,1.24,0.66,2.05,0.66c1,0,1.91-0.37,2.75-1.11
			l0.96,1.38c-1.06,1.01-2.32,1.52-3.77,1.52c-1.43,0-2.64-0.47-3.61-1.41c-0.97-0.94-1.46-2.11-1.46-3.51
			c-0.03-1.36,0.45-2.53,1.42-3.51c0.97-0.98,2.13-1.46,3.46-1.43c1.24,0,2.28,0.41,3.11,1.24c0.83,0.83,1.25,1.85,1.25,3.08
			C997.92,259.01,997.87,259.43,997.77,259.9z M990.77,258.33h5.13c-0.01-0.7-0.25-1.26-0.71-1.68c-0.46-0.42-1.03-0.62-1.71-0.62
			c-0.67,0-1.25,0.21-1.74,0.62C991.25,257.06,990.93,257.62,990.77,258.33z"/>
		<path class="st6" d="M1008.47,258.06v5.9h-2.02v-5.63c0-0.65-0.19-1.18-0.57-1.58s-0.87-0.61-1.49-0.61
			c-0.63,0-1.14,0.21-1.55,0.62c-0.4,0.41-0.6,0.93-0.6,1.58v5.63h-2.02v-9.43h1.88v0.92c0.72-0.76,1.66-1.13,2.82-1.13
			c1.09,0,1.95,0.34,2.58,1.02C1008.15,256.01,1008.47,256.92,1008.47,258.06z"/>
		<path class="st6" d="M1010.68,259.23c-0.03-1.34,0.46-2.51,1.46-3.49c1-0.98,2.18-1.46,3.54-1.43c1.77,0,3.09,0.73,3.98,2.19
			l-1.42,1.11c-0.67-0.96-1.51-1.44-2.54-1.44c-0.85,0-1.55,0.29-2.11,0.88c-0.56,0.59-0.85,1.31-0.85,2.17
			c0,0.87,0.28,1.6,0.85,2.19c0.56,0.59,1.27,0.88,2.11,0.88c1,0,1.84-0.47,2.54-1.42l1.42,1.09c-0.42,0.69-0.98,1.23-1.67,1.61
			s-1.46,0.58-2.31,0.58c-1.4,0-2.58-0.48-3.54-1.44C1011.16,261.77,1010.68,260.6,1010.68,259.23z"/>
		<path class="st6" d="M1030.19,259.9h-7.03c0.13,0.77,0.47,1.37,1.03,1.82c0.56,0.44,1.24,0.66,2.04,0.66c1,0,1.91-0.37,2.75-1.11
			l0.96,1.38c-1.06,1.01-2.32,1.52-3.77,1.52c-1.44,0-2.64-0.47-3.61-1.41c-0.97-0.94-1.46-2.11-1.46-3.51
			c-0.03-1.36,0.45-2.53,1.42-3.51c0.97-0.98,2.13-1.46,3.46-1.43c1.24,0,2.28,0.41,3.11,1.24c0.83,0.83,1.25,1.85,1.25,3.08
			C1030.35,259.01,1030.3,259.43,1030.19,259.9z M1023.2,258.33h5.13c-0.01-0.7-0.25-1.26-0.71-1.68c-0.46-0.42-1.03-0.62-1.71-0.62
			c-0.67,0-1.25,0.21-1.74,0.62C1023.68,257.06,1023.36,257.62,1023.2,258.33z"/>
		<path class="st6" d="M1037.44,259.23c-0.03-1.34,0.46-2.51,1.45-3.49c0.99-0.98,2.17-1.46,3.52-1.43
			c1.37-0.03,2.56,0.46,3.55,1.44c1,0.99,1.49,2.14,1.46,3.48c0.03,1.34-0.46,2.51-1.46,3.5c-1,0.99-2.18,1.47-3.55,1.44
			c-1.36,0.03-2.53-0.46-3.52-1.45C1037.89,261.72,1037.41,260.56,1037.44,259.23z M1045.35,259.25c0-0.87-0.28-1.6-0.84-2.2
			c-0.56-0.59-1.26-0.89-2.08-0.89c-0.83,0-1.53,0.3-2.09,0.89c-0.56,0.6-0.85,1.33-0.85,2.2s0.28,1.6,0.84,2.18
			s1.25,0.87,2.08,0.87c0.83,0,1.53-0.29,2.1-0.88C1045.07,260.83,1045.35,260.11,1045.35,259.25z"/>
		<path class="st6" d="M1052.1,252.79v1.73h2.23v1.75h-2.23v7.68h-2.02v-7.68h-1.35v-1.75h1.35v-1.9c0-1.09,0.29-1.91,0.88-2.46
			c0.59-0.55,1.42-0.83,2.48-0.83c0.5,0,0.94,0.06,1.31,0.17v1.71c-0.31-0.04-0.58-0.06-0.81-0.06c-0.63,0-1.09,0.13-1.39,0.37
			C1052.25,251.79,1052.1,252.21,1052.1,252.79z"/>
		<path class="st6" d="M1060.14,259.23c-0.03-1.34,0.46-2.51,1.45-3.49c0.99-0.98,2.17-1.46,3.52-1.43
			c1.37-0.03,2.56,0.46,3.55,1.44c1,0.99,1.49,2.14,1.46,3.48c0.03,1.34-0.46,2.51-1.46,3.5c-1,0.99-2.18,1.47-3.55,1.44
			c-1.36,0.03-2.53-0.46-3.52-1.45C1060.6,261.72,1060.12,260.56,1060.14,259.23z M1068.06,259.25c0-0.87-0.28-1.6-0.84-2.2
			c-0.56-0.59-1.26-0.89-2.08-0.89c-0.83,0-1.53,0.3-2.09,0.89c-0.56,0.6-0.85,1.33-0.85,2.2s0.28,1.6,0.84,2.18
			s1.25,0.87,2.08,0.87c0.83,0,1.53-0.29,2.1-0.88C1067.78,260.83,1068.06,260.11,1068.06,259.25z"/>
		<path class="st6" d="M1078.63,254.52h2.15l-4.55,9.64h-0.69l-4.57-9.64h2.15l2.77,6.24L1078.63,254.52z"/>
		<path class="st6" d="M1090.73,259.9h-7.03c0.13,0.77,0.47,1.37,1.03,1.82c0.56,0.44,1.24,0.66,2.04,0.66c1,0,1.91-0.37,2.75-1.11
			l0.96,1.38c-1.06,1.01-2.32,1.52-3.77,1.52c-1.44,0-2.64-0.47-3.61-1.41c-0.97-0.94-1.46-2.11-1.46-3.51
			c-0.03-1.36,0.45-2.53,1.42-3.51c0.97-0.98,2.13-1.46,3.46-1.43c1.24,0,2.28,0.41,3.11,1.24c0.83,0.83,1.25,1.85,1.25,3.08
			C1090.88,259.01,1090.83,259.43,1090.73,259.9z M1083.74,258.33h5.13c-0.01-0.7-0.25-1.26-0.71-1.68
			c-0.46-0.42-1.03-0.62-1.71-0.62c-0.67,0-1.25,0.21-1.74,0.62C1084.21,257.06,1083.89,257.62,1083.74,258.33z"/>
		<path class="st6" d="M1098.59,254.52v1.79h-0.61c-0.82,0-1.49,0.23-2,0.69c-0.51,0.46-0.77,1.1-0.77,1.92v5.03h-2.02v-9.43h1.88
			v1.23c0.71-0.88,1.62-1.33,2.75-1.33C1098.07,254.43,1098.33,254.46,1098.59,254.52z"/>
	</g>
	<g>
		<path class="st6" d="M720.12,284.57h0.71v12.68h-2.04v-10.28l-2.57,0.83l-0.5-1.79L720.12,284.57z"/>
		<path class="st6" d="M727.37,295.48h5.36v1.77h-9.09v-0.46l4.51-4.86c0.73-0.77,1.25-1.41,1.56-1.92
			c0.31-0.51,0.46-1.03,0.46-1.56c0-0.65-0.19-1.19-0.58-1.6c-0.38-0.42-0.9-0.63-1.54-0.63c-0.64,0-1.16,0.22-1.56,0.65
			s-0.6,0.99-0.6,1.65c0,0.23,0.03,0.56,0.1,0.98h-2.06c-0.09-0.32-0.13-0.68-0.13-1.09c0-1.09,0.4-2.04,1.19-2.84
			c0.79-0.81,1.82-1.21,3.07-1.21c1.2,0,2.21,0.38,3.01,1.13s1.2,1.69,1.2,2.8c0,0.87-0.23,1.66-0.69,2.36
			c-0.41,0.65-1.08,1.47-2,2.46L727.37,295.48z"/>
		<path class="st6" d="M747.15,287.82h2.15l-4.59,10.51c-0.4,0.9-0.87,1.55-1.42,1.97s-1.23,0.63-2.04,0.63
			c-0.54,0-1.06-0.06-1.56-0.19v-1.71c0.53,0.05,0.9,0.08,1.11,0.08c0.97,0,1.66-0.46,2.06-1.38l0.38-0.88l-3.77-9.01h2.17
			l2.71,6.86L747.15,287.82z"/>
		<path class="st6" d="M759.24,293.2h-7.03c0.13,0.77,0.47,1.37,1.03,1.82c0.56,0.44,1.24,0.66,2.05,0.66c1,0,1.91-0.37,2.75-1.11
			l0.96,1.38c-1.06,1.01-2.32,1.52-3.77,1.52c-1.43,0-2.64-0.47-3.61-1.41c-0.97-0.94-1.46-2.11-1.46-3.51
			c-0.03-1.36,0.45-2.53,1.42-3.51c0.97-0.98,2.13-1.46,3.46-1.43c1.24,0,2.28,0.41,3.11,1.24c0.83,0.83,1.25,1.85,1.25,3.08
			C759.39,292.3,759.34,292.72,759.24,293.2z M752.25,291.62h5.13c-0.01-0.7-0.25-1.26-0.71-1.68s-1.03-0.63-1.71-0.63
			c-0.67,0-1.25,0.21-1.74,0.63S752.4,290.92,752.25,291.62z"/>
		<path class="st6" d="M769.19,291.54v5.71h-1.88v-1.06c-0.71,0.85-1.71,1.27-3.02,1.27c-0.99,0-1.78-0.25-2.38-0.75
			c-0.6-0.5-0.9-1.16-0.9-1.98c0-0.82,0.31-1.47,0.94-1.96c0.63-0.49,1.47-0.73,2.54-0.73h2.67v-0.62c0-0.65-0.18-1.15-0.53-1.5
			s-0.85-0.52-1.49-0.52c-0.96,0-1.83,0.47-2.61,1.4l-1.17-1.19c0.92-1.34,2.25-2.02,3.98-2.02c1.18,0,2.12,0.35,2.81,1.04
			S769.19,290.3,769.19,291.54z M767.15,293.68v-0.17h-2.42c-1.11,0-1.67,0.38-1.67,1.15c0,0.38,0.15,0.69,0.45,0.91
			c0.3,0.22,0.7,0.34,1.2,0.34c0.69,0,1.27-0.21,1.74-0.63S767.15,294.32,767.15,293.68z"/>
		<path class="st6" d="M777.39,287.82v1.79h-0.61c-0.82,0-1.49,0.23-2,0.69c-0.51,0.46-0.77,1.1-0.77,1.92v5.03h-2.02v-9.43h1.88
			v1.23c0.7-0.88,1.62-1.33,2.75-1.33C776.88,287.72,777.14,287.75,777.39,287.82z"/>
		<path class="st6" d="M778.32,295.64l1.15-1.27c0.86,0.9,1.74,1.34,2.65,1.34c0.45,0,0.81-0.09,1.1-0.28
			c0.28-0.19,0.42-0.44,0.42-0.78c0-0.26-0.1-0.46-0.29-0.62c-0.19-0.16-0.54-0.34-1.04-0.55l-0.96-0.4
			c-0.86-0.36-1.48-0.75-1.87-1.16s-0.59-0.94-0.59-1.58c0-0.83,0.31-1.5,0.93-1.99s1.42-0.74,2.39-0.74c1.36,0,2.45,0.49,3.27,1.46
			l-1.09,1.25c-0.62-0.64-1.35-0.96-2.21-0.96c-0.86,0-1.29,0.3-1.29,0.9c0,0.23,0.09,0.43,0.27,0.59c0.18,0.16,0.51,0.34,0.98,0.53
			l0.9,0.37c0.91,0.38,1.57,0.79,1.97,1.22c0.4,0.43,0.61,0.97,0.61,1.62c0,0.91-0.33,1.62-1,2.13c-0.67,0.5-1.5,0.75-2.5,0.75
			C780.52,297.46,779.25,296.85,778.32,295.64z"/>
		<path class="st6" d="M792.72,292.52c-0.03-1.34,0.46-2.51,1.46-3.49c1-0.98,2.18-1.46,3.54-1.43c1.77,0,3.09,0.73,3.98,2.19
			l-1.42,1.11c-0.67-0.96-1.51-1.44-2.54-1.44c-0.85,0-1.55,0.29-2.11,0.88s-0.85,1.31-0.85,2.17c0,0.87,0.28,1.6,0.85,2.19
			c0.56,0.59,1.27,0.88,2.11,0.88c1,0,1.84-0.47,2.54-1.42l1.42,1.09c-0.42,0.69-0.98,1.23-1.67,1.61
			c-0.69,0.38-1.46,0.58-2.31,0.58c-1.4,0-2.58-0.48-3.54-1.44C793.21,295.06,792.72,293.89,792.72,292.52z"/>
		<path class="st6" d="M803.16,292.52c-0.03-1.34,0.46-2.51,1.45-3.49c0.99-0.98,2.17-1.46,3.52-1.43c1.37-0.03,2.56,0.45,3.55,1.44
			s1.49,2.15,1.46,3.48c0.03,1.34-0.46,2.51-1.46,3.5s-2.18,1.47-3.55,1.44c-1.36,0.03-2.53-0.46-3.52-1.45
			C803.61,295.02,803.13,293.86,803.16,292.52z M811.07,292.54c0-0.87-0.28-1.6-0.84-2.2s-1.26-0.89-2.08-0.89
			c-0.83,0-1.53,0.3-2.09,0.89s-0.85,1.33-0.85,2.2c0,0.87,0.28,1.6,0.84,2.18c0.56,0.58,1.25,0.87,2.08,0.87
			c0.83,0,1.53-0.29,2.09-0.88C810.79,294.12,811.07,293.4,811.07,292.54z"/>
		<path class="st6" d="M815.45,297.25v-14.41h2.02v14.41H815.45z"/>
		<path class="st6" d="M820.39,297.25v-14.41h2.02v14.41H820.39z"/>
		<path class="st6" d="M833.82,293.2h-7.03c0.13,0.77,0.47,1.37,1.03,1.82c0.56,0.44,1.24,0.66,2.05,0.66c1,0,1.91-0.37,2.75-1.11
			l0.96,1.38c-1.06,1.01-2.32,1.52-3.77,1.52c-1.43,0-2.64-0.47-3.61-1.41c-0.97-0.94-1.46-2.11-1.46-3.51
			c-0.03-1.36,0.45-2.53,1.42-3.51c0.97-0.98,2.13-1.46,3.46-1.43c1.24,0,2.28,0.41,3.11,1.24c0.83,0.83,1.25,1.85,1.25,3.08
			C833.97,292.3,833.92,292.72,833.82,293.2z M826.82,291.62h5.13c-0.01-0.7-0.25-1.26-0.71-1.68s-1.03-0.63-1.71-0.63
			c-0.67,0-1.25,0.21-1.74,0.63S826.98,290.92,826.82,291.62z"/>
		<path class="st6" d="M835.68,292.52c-0.03-1.34,0.46-2.51,1.46-3.49c1-0.98,2.18-1.46,3.54-1.43c1.77,0,3.09,0.73,3.98,2.19
			l-1.42,1.11c-0.67-0.96-1.51-1.44-2.54-1.44c-0.85,0-1.55,0.29-2.11,0.88s-0.85,1.31-0.85,2.17c0,0.87,0.28,1.6,0.85,2.19
			c0.56,0.59,1.27,0.88,2.11,0.88c1,0,1.84-0.47,2.54-1.42l1.42,1.09c-0.42,0.69-0.98,1.23-1.67,1.61
			c-0.69,0.38-1.46,0.58-2.31,0.58c-1.4,0-2.58-0.48-3.54-1.44C836.16,295.06,835.68,293.89,835.68,292.52z"/>
		<path class="st6" d="M852.49,295.54v1.71c-0.67,0.14-1.22,0.21-1.67,0.21c-1.1,0-1.96-0.28-2.56-0.83
			c-0.61-0.55-0.91-1.37-0.91-2.46v-4.61h-1.54v-1.75h1.54v-2.48h2.04v2.48h2.8v1.75h-2.8V294c0,0.59,0.15,1.01,0.45,1.26
			s0.77,0.38,1.41,0.38C851.46,295.64,851.88,295.6,852.49,295.54z"/>
		<path class="st6" d="M854.56,285.24c-0.27-0.26-0.4-0.57-0.4-0.94s0.13-0.69,0.4-0.95c0.27-0.26,0.6-0.39,0.98-0.39
			c0.37,0,0.69,0.13,0.96,0.39c0.27,0.26,0.4,0.58,0.4,0.95s-0.13,0.69-0.4,0.94c-0.27,0.26-0.59,0.38-0.96,0.38
			C855.16,285.63,854.83,285.5,854.56,285.24z M854.53,297.25v-9.43h2.02v9.43H854.53z"/>
		<path class="st6" d="M866.03,287.82h2.15l-4.55,9.64h-0.69l-4.57-9.64h2.15l2.77,6.24L866.03,287.82z"/>
		<path class="st6" d="M878.12,293.2h-7.03c0.13,0.77,0.47,1.37,1.03,1.82c0.56,0.44,1.24,0.66,2.05,0.66c1,0,1.91-0.37,2.75-1.11
			l0.96,1.38c-1.06,1.01-2.32,1.52-3.77,1.52c-1.43,0-2.64-0.47-3.61-1.41c-0.97-0.94-1.46-2.11-1.46-3.51
			c-0.03-1.36,0.45-2.53,1.42-3.51c0.97-0.98,2.13-1.46,3.46-1.43c1.24,0,2.28,0.41,3.11,1.24c0.83,0.83,1.25,1.85,1.25,3.08
			C878.27,292.3,878.22,292.72,878.12,293.2z M871.12,291.62h5.13c-0.01-0.7-0.25-1.26-0.71-1.68s-1.03-0.63-1.71-0.63
			c-0.67,0-1.25,0.21-1.74,0.63S871.28,290.92,871.12,291.62z"/>
		<path class="st6" d="M880.58,297.25v-14.41h2.02v14.41H880.58z"/>
		<path class="st6" d="M892.08,287.82h2.15l-4.59,10.51c-0.4,0.9-0.87,1.55-1.42,1.97s-1.23,0.63-2.04,0.63
			c-0.54,0-1.06-0.06-1.56-0.19v-1.71c0.53,0.05,0.9,0.08,1.11,0.08c0.97,0,1.66-0.46,2.06-1.38l0.38-0.88l-3.77-9.01h2.17
			l2.71,6.86L892.08,287.82z"/>
		<path class="st6" d="M913.31,287.82h2.15l-4.19,9.64h-0.69l-2.96-6.28l-2.96,6.28h-0.69l-4.19-9.64h2.15l2.48,6.17l2.86-6.38h0.69
			l2.9,6.3L913.31,287.82z"/>
		<path class="st6" d="M917.33,285.24c-0.27-0.26-0.4-0.57-0.4-0.94s0.13-0.69,0.4-0.95c0.27-0.26,0.6-0.39,0.98-0.39
			c0.37,0,0.69,0.13,0.96,0.39c0.27,0.26,0.4,0.58,0.4,0.95s-0.13,0.69-0.4,0.94c-0.27,0.26-0.59,0.38-0.96,0.38
			C917.92,285.63,917.6,285.5,917.33,285.24z M917.29,297.25v-9.43h2.02v9.43H917.29z"/>
		<path class="st6" d="M927.84,295.54v1.71c-0.67,0.14-1.22,0.21-1.67,0.21c-1.1,0-1.96-0.28-2.56-0.83
			c-0.61-0.55-0.91-1.37-0.91-2.46v-4.61h-1.54v-1.75h1.54v-2.48h2.04v2.48h2.8v1.75h-2.8V294c0,0.59,0.15,1.01,0.45,1.26
			s0.77,0.38,1.41,0.38C926.81,295.64,927.22,295.6,927.84,295.54z"/>
		<path class="st6" d="M938.11,291.35v5.9h-2.02v-5.61c0-0.65-0.19-1.18-0.56-1.58c-0.37-0.4-0.87-0.61-1.5-0.61
			c-0.63,0-1.14,0.21-1.55,0.62c-0.4,0.41-0.6,0.93-0.6,1.58v5.61h-2.02v-14.41h2.02v5.92c0.65-0.77,1.56-1.15,2.73-1.15
			c1.06,0,1.91,0.34,2.55,1.03C937.8,289.32,938.11,290.22,938.11,291.35z"/>
		<path class="st6" d="M953.79,291.54v5.71h-1.88v-1.06c-0.71,0.85-1.71,1.27-3.02,1.27c-0.99,0-1.78-0.25-2.38-0.75
			c-0.6-0.5-0.9-1.16-0.9-1.98c0-0.82,0.31-1.47,0.94-1.96c0.63-0.49,1.47-0.73,2.54-0.73h2.67v-0.62c0-0.65-0.18-1.15-0.53-1.5
			s-0.85-0.52-1.49-0.52c-0.96,0-1.83,0.47-2.61,1.4l-1.17-1.19c0.92-1.34,2.25-2.02,3.98-2.02c1.18,0,2.12,0.35,2.81,1.04
			S953.79,290.3,953.79,291.54z M951.75,293.68v-0.17h-2.42c-1.11,0-1.67,0.38-1.67,1.15c0,0.38,0.15,0.69,0.45,0.91
			c0.3,0.22,0.7,0.34,1.2,0.34c0.69,0,1.27-0.21,1.74-0.63S951.75,294.32,951.75,293.68z"/>
		<path class="st6" d="M967.58,295.54v1.71c-0.67,0.14-1.22,0.21-1.67,0.21c-1.1,0-1.96-0.28-2.56-0.83
			c-0.61-0.55-0.91-1.37-0.91-2.46v-4.61h-1.54v-1.75h1.54v-2.48h2.04v2.48h2.8v1.75h-2.8V294c0,0.59,0.15,1.01,0.45,1.26
			s0.77,0.38,1.41,0.38C966.55,295.64,966.97,295.6,967.58,295.54z"/>
		<path class="st6" d="M968.83,292.52c-0.03-1.34,0.46-2.51,1.45-3.49c0.99-0.98,2.17-1.46,3.52-1.43c1.37-0.03,2.56,0.45,3.55,1.44
			s1.49,2.15,1.46,3.48c0.03,1.34-0.46,2.51-1.46,3.5s-2.18,1.47-3.55,1.44c-1.36,0.03-2.53-0.46-3.52-1.45
			C969.29,295.02,968.81,293.86,968.83,292.52z M976.75,292.54c0-0.87-0.28-1.6-0.84-2.2s-1.26-0.89-2.08-0.89
			c-0.83,0-1.53,0.3-2.09,0.89s-0.85,1.33-0.85,2.2c0,0.87,0.28,1.6,0.84,2.18c0.56,0.58,1.25,0.87,2.08,0.87
			c0.83,0,1.53-0.29,2.09-0.88C976.47,294.12,976.75,293.4,976.75,292.54z"/>
		<path class="st6" d="M986.74,295.54v1.71c-0.67,0.14-1.22,0.21-1.67,0.21c-1.1,0-1.96-0.28-2.56-0.83
			c-0.61-0.55-0.91-1.37-0.91-2.46v-4.61h-1.54v-1.75h1.54v-2.48h2.04v2.48h2.8v1.75h-2.8V294c0,0.59,0.15,1.01,0.45,1.26
			s0.77,0.38,1.41,0.38C985.71,295.64,986.12,295.6,986.74,295.54z"/>
		<path class="st6" d="M996.27,291.54v5.71h-1.88v-1.06c-0.71,0.85-1.71,1.27-3.02,1.27c-0.99,0-1.78-0.25-2.38-0.75
			c-0.6-0.5-0.9-1.16-0.9-1.98c0-0.82,0.31-1.47,0.94-1.96c0.63-0.49,1.47-0.73,2.54-0.73h2.67v-0.62c0-0.65-0.18-1.15-0.53-1.5
			s-0.85-0.52-1.49-0.52c-0.96,0-1.83,0.47-2.61,1.4l-1.17-1.19c0.92-1.34,2.25-2.02,3.98-2.02c1.18,0,2.12,0.35,2.81,1.04
			S996.27,290.3,996.27,291.54z M994.23,293.68v-0.17h-2.42c-1.11,0-1.67,0.38-1.67,1.15c0,0.38,0.15,0.69,0.45,0.91
			c0.3,0.22,0.7,0.34,1.2,0.34c0.69,0,1.27-0.21,1.74-0.63S994.23,294.32,994.23,293.68z"/>
		<path class="st6" d="M999.07,297.25v-14.41h2.02v14.41H999.07z"/>
		<path class="st6" d="M1015,295.54v1.71c-0.67,0.14-1.22,0.21-1.67,0.21c-1.1,0-1.96-0.28-2.56-0.83
			c-0.61-0.55-0.91-1.37-0.91-2.46v-4.61h-1.54v-1.75h1.54v-2.48h2.04v2.48h2.8v1.75h-2.8V294c0,0.59,0.15,1.01,0.45,1.26
			s0.77,0.38,1.41,0.38C1013.97,295.64,1014.38,295.6,1015,295.54z"/>
		<path class="st6" d="M1025.35,293.2h-7.03c0.13,0.77,0.47,1.37,1.03,1.82c0.56,0.44,1.24,0.66,2.04,0.66c1,0,1.91-0.37,2.75-1.11
			l0.96,1.38c-1.06,1.01-2.32,1.52-3.77,1.52c-1.44,0-2.64-0.47-3.61-1.41c-0.97-0.94-1.46-2.11-1.46-3.51
			c-0.03-1.36,0.45-2.53,1.42-3.51c0.97-0.98,2.13-1.46,3.46-1.43c1.24,0,2.28,0.41,3.11,1.24c0.83,0.83,1.25,1.85,1.25,3.08
			C1025.51,292.3,1025.46,292.72,1025.35,293.2z M1018.36,291.62h5.13c-0.01-0.7-0.25-1.26-0.71-1.68s-1.03-0.63-1.71-0.63
			c-0.67,0-1.25,0.21-1.74,0.63C1018.84,290.36,1018.51,290.92,1018.36,291.62z"/>
		<path class="st6" d="M1035.3,291.54v5.71h-1.88v-1.06c-0.71,0.85-1.71,1.27-3.02,1.27c-0.99,0-1.78-0.25-2.38-0.75
			c-0.6-0.5-0.9-1.16-0.9-1.98c0-0.82,0.31-1.47,0.94-1.96c0.63-0.49,1.47-0.73,2.54-0.73h2.67v-0.62c0-0.65-0.18-1.15-0.53-1.5
			c-0.35-0.35-0.85-0.52-1.49-0.52c-0.96,0-1.83,0.47-2.61,1.4l-1.17-1.19c0.92-1.34,2.25-2.02,3.98-2.02
			c1.18,0,2.12,0.35,2.81,1.04C1034.96,289.33,1035.3,290.3,1035.3,291.54z M1033.27,293.68v-0.17h-2.42
			c-1.11,0-1.67,0.38-1.67,1.15c0,0.38,0.15,0.69,0.45,0.91c0.3,0.22,0.7,0.34,1.2,0.34c0.69,0,1.27-0.21,1.74-0.63
			C1033.03,294.85,1033.27,294.32,1033.27,293.68z"/>
		<path class="st6" d="M1052.27,291.35v5.9h-2.04v-5.61c0-0.67-0.18-1.2-0.53-1.59c-0.35-0.4-0.83-0.6-1.43-0.6
			c-0.62,0-1.11,0.2-1.5,0.59s-0.58,0.89-0.58,1.51v5.71h-2.02v-5.61c0-0.65-0.18-1.18-0.54-1.58c-0.36-0.4-0.84-0.61-1.44-0.61
			c-0.62,0-1.12,0.2-1.5,0.61c-0.38,0.4-0.58,0.93-0.58,1.58v5.61h-2.02v-9.43h1.88v0.88c0.7-0.73,1.61-1.09,2.73-1.09
			c1.3,0,2.26,0.49,2.86,1.48c0.76-0.99,1.82-1.48,3.19-1.48c1.08,0,1.93,0.34,2.55,1.03
			C1051.95,289.32,1052.27,290.22,1052.27,291.35z"/>
	</g>
	<g>
		<path class="st6" d="M715.84,328.93l1.15-1.27c0.86,0.9,1.74,1.34,2.65,1.34c0.45,0,0.81-0.09,1.1-0.28
			c0.28-0.19,0.42-0.45,0.42-0.78c0-0.26-0.1-0.46-0.29-0.62c-0.19-0.16-0.54-0.34-1.04-0.55l-0.96-0.4
			c-0.86-0.36-1.48-0.75-1.87-1.16s-0.59-0.94-0.59-1.58c0-0.83,0.31-1.5,0.93-1.99s1.42-0.74,2.39-0.74c1.36,0,2.45,0.49,3.27,1.46
			l-1.09,1.25c-0.62-0.64-1.35-0.96-2.21-0.96c-0.86,0-1.29,0.3-1.29,0.9c0,0.23,0.09,0.43,0.27,0.59c0.18,0.16,0.51,0.34,0.98,0.53
			l0.9,0.37c0.91,0.38,1.57,0.79,1.97,1.22s0.61,0.97,0.61,1.62c0,0.91-0.33,1.62-1,2.13c-0.67,0.5-1.5,0.75-2.5,0.75
			C718.04,330.75,716.77,330.15,715.84,328.93z"/>
		<path class="st6" d="M731.08,328.83v1.71c-0.67,0.14-1.22,0.21-1.67,0.21c-1.1,0-1.96-0.28-2.56-0.83
			c-0.61-0.55-0.91-1.37-0.91-2.46v-4.61h-1.54v-1.75h1.54v-2.48h2.04v2.48h2.8v1.75h-2.8v4.44c0,0.59,0.15,1.01,0.45,1.26
			c0.3,0.25,0.77,0.37,1.41,0.37C730.04,328.93,730.46,328.9,731.08,328.83z"/>
		<path class="st6" d="M738.51,321.11v1.79h-0.61c-0.82,0-1.49,0.23-2,0.69c-0.51,0.46-0.77,1.1-0.77,1.92v5.03h-2.02v-9.43h1.88
			v1.23c0.7-0.88,1.62-1.33,2.75-1.33C738,321.01,738.25,321.05,738.51,321.11z"/>
		<path class="st6" d="M748.63,326.49h-7.03c0.13,0.77,0.47,1.37,1.03,1.82c0.56,0.44,1.24,0.66,2.05,0.66c1,0,1.91-0.37,2.75-1.11
			l0.96,1.38c-1.06,1.01-2.32,1.52-3.77,1.52c-1.43,0-2.64-0.47-3.61-1.41c-0.97-0.94-1.46-2.11-1.46-3.51
			c-0.03-1.36,0.45-2.53,1.42-3.51c0.97-0.98,2.13-1.46,3.46-1.43c1.24,0,2.28,0.41,3.11,1.24c0.83,0.83,1.25,1.85,1.25,3.08
			C748.79,325.59,748.74,326.02,748.63,326.49z M741.64,324.91h5.13c-0.01-0.7-0.25-1.26-0.71-1.68c-0.46-0.42-1.03-0.62-1.71-0.62
			c-0.67,0-1.25,0.21-1.74,0.62C742.12,323.65,741.79,324.21,741.64,324.91z"/>
		<path class="st6" d="M759.34,324.64v5.9h-2.02v-5.63c0-0.65-0.19-1.18-0.57-1.58c-0.38-0.4-0.87-0.61-1.49-0.61
			c-0.63,0-1.14,0.21-1.55,0.62c-0.4,0.41-0.6,0.93-0.6,1.58v5.63h-2.02v-9.43h1.88v0.92c0.72-0.76,1.66-1.13,2.82-1.13
			c1.09,0,1.95,0.34,2.58,1.02S759.34,323.51,759.34,324.64z"/>
		<path class="st6" d="M769.54,321.11h1.86v8.45c0,1.47-0.43,2.62-1.28,3.43s-2,1.22-3.45,1.22c-1.74,0-3.25-0.6-4.53-1.79l1.11-1.4
			c1.11,0.9,2.22,1.34,3.3,1.34c0.87,0,1.56-0.23,2.07-0.69c0.51-0.46,0.76-1.13,0.76-2v-0.67c-0.74,0.9-1.81,1.34-3.19,1.34
			c-1.32,0-2.41-0.45-3.29-1.33c-0.87-0.89-1.31-2.02-1.31-3.39c0-1.37,0.44-2.5,1.31-3.39c0.87-0.89,1.97-1.33,3.29-1.33
			c1.5,0,2.61,0.52,3.34,1.56V321.11z M769.4,325.61c0-0.92-0.27-1.64-0.81-2.14c-0.54-0.51-1.22-0.76-2.04-0.76
			c-0.82,0-1.5,0.27-2.06,0.81c-0.55,0.54-0.83,1.24-0.83,2.11c0,0.88,0.28,1.6,0.83,2.15c0.56,0.54,1.25,0.81,2.06,0.81
			c0.78,0,1.45-0.26,2-0.77C769.12,327.29,769.4,326.55,769.4,325.61z"/>
		<path class="st6" d="M779.93,328.83v1.71c-0.67,0.14-1.22,0.21-1.67,0.21c-1.1,0-1.96-0.28-2.56-0.83
			c-0.61-0.55-0.91-1.37-0.91-2.46v-4.61h-1.54v-1.75h1.54v-2.48h2.04v2.48h2.8v1.75h-2.8v4.44c0,0.59,0.15,1.01,0.45,1.26
			c0.3,0.25,0.77,0.37,1.41,0.37C778.9,328.93,779.31,328.9,779.93,328.83z"/>
		<path class="st6" d="M790.21,324.64v5.9h-2.02v-5.61c0-0.65-0.19-1.18-0.56-1.58c-0.37-0.4-0.87-0.6-1.5-0.6
			c-0.63,0-1.14,0.21-1.55,0.61c-0.4,0.41-0.6,0.94-0.6,1.58v5.61h-2.02v-14.41h2.02v5.92c0.65-0.77,1.56-1.15,2.73-1.15
			c1.06,0,1.91,0.34,2.55,1.03C789.89,322.61,790.21,323.52,790.21,324.64z"/>
		<path class="st6" d="M797.8,325.82c-0.03-1.34,0.46-2.51,1.45-3.49c0.99-0.98,2.17-1.46,3.52-1.43c1.37-0.03,2.56,0.46,3.55,1.44
			s1.49,2.14,1.46,3.48c0.03,1.34-0.46,2.51-1.46,3.5s-2.18,1.47-3.55,1.44c-1.36,0.03-2.53-0.46-3.52-1.45
			C798.25,328.31,797.77,327.15,797.8,325.82z M805.71,325.84c0-0.87-0.28-1.6-0.84-2.2c-0.56-0.59-1.26-0.89-2.08-0.89
			c-0.83,0-1.53,0.3-2.09,0.89c-0.56,0.6-0.85,1.33-0.85,2.2s0.28,1.6,0.84,2.18c0.56,0.58,1.25,0.87,2.08,0.87
			c0.83,0,1.53-0.29,2.09-0.88S805.71,326.69,805.71,325.84z"/>
		<path class="st6" d="M812.45,319.38v1.73h2.23v1.75h-2.23v7.68h-2.02v-7.68h-1.34v-1.75h1.34v-1.9c0-1.09,0.29-1.91,0.88-2.46
			s1.42-0.83,2.48-0.83c0.5,0,0.93,0.06,1.31,0.17v1.71c-0.31-0.04-0.58-0.06-0.81-0.06c-0.63,0-1.09,0.13-1.39,0.37
			C812.6,318.37,812.45,318.79,812.45,319.38z"/>
		<path class="st6" d="M835.24,324.64v5.9h-2.04v-5.61c0-0.67-0.18-1.2-0.53-1.59c-0.35-0.4-0.83-0.6-1.43-0.6
			c-0.62,0-1.11,0.2-1.5,0.59c-0.38,0.39-0.58,0.89-0.58,1.51v5.71h-2.02v-5.61c0-0.65-0.18-1.18-0.54-1.58
			c-0.36-0.4-0.84-0.6-1.44-0.6c-0.61,0-1.11,0.2-1.5,0.6c-0.38,0.4-0.58,0.93-0.58,1.58v5.61h-2.02v-9.43h1.88v0.88
			c0.7-0.73,1.61-1.09,2.73-1.09c1.31,0,2.26,0.49,2.86,1.48c0.75-0.99,1.82-1.48,3.19-1.48c1.08,0,1.93,0.34,2.56,1.03
			C834.92,322.61,835.24,323.52,835.24,324.64z"/>
		<path class="st6" d="M837.45,325.82c-0.03-1.34,0.46-2.51,1.45-3.49c0.99-0.98,2.17-1.46,3.52-1.43c1.37-0.03,2.56,0.46,3.55,1.44
			s1.49,2.14,1.46,3.48c0.03,1.34-0.46,2.51-1.46,3.5s-2.18,1.47-3.55,1.44c-1.36,0.03-2.53-0.46-3.52-1.45
			C837.91,328.31,837.42,327.15,837.45,325.82z M845.36,325.84c0-0.87-0.28-1.6-0.84-2.2c-0.56-0.59-1.26-0.89-2.08-0.89
			c-0.83,0-1.53,0.3-2.09,0.89c-0.56,0.6-0.85,1.33-0.85,2.2s0.28,1.6,0.84,2.18c0.56,0.58,1.25,0.87,2.08,0.87
			c0.83,0,1.53-0.29,2.09-0.88S845.36,326.69,845.36,325.84z"/>
		<path class="st6" d="M855.14,321.11v1.79h-0.61c-0.82,0-1.49,0.23-2,0.69c-0.51,0.46-0.77,1.1-0.77,1.92v5.03h-2.02v-9.43h1.88
			v1.23c0.7-0.88,1.62-1.33,2.75-1.33C854.63,321.01,854.89,321.05,855.14,321.11z"/>
		<path class="st6" d="M865.25,326.49h-7.03c0.13,0.77,0.47,1.37,1.03,1.82c0.56,0.44,1.24,0.66,2.05,0.66c1,0,1.91-0.37,2.75-1.11
			l0.96,1.38c-1.06,1.01-2.32,1.52-3.77,1.52c-1.43,0-2.64-0.47-3.61-1.41c-0.97-0.94-1.46-2.11-1.46-3.51
			c-0.03-1.36,0.45-2.53,1.42-3.51c0.97-0.98,2.13-1.46,3.46-1.43c1.24,0,2.28,0.41,3.11,1.24c0.83,0.83,1.25,1.85,1.25,3.08
			C865.4,325.59,865.35,326.02,865.25,326.49z M858.25,324.91h5.13c-0.01-0.7-0.25-1.26-0.71-1.68c-0.46-0.42-1.03-0.62-1.71-0.62
			c-0.67,0-1.25,0.21-1.74,0.62C858.73,323.65,858.41,324.21,858.25,324.91z"/>
		<path class="st6" d="M878.69,328.83v1.71c-0.67,0.14-1.22,0.21-1.67,0.21c-1.1,0-1.96-0.28-2.56-0.83
			c-0.61-0.55-0.91-1.37-0.91-2.46v-4.61h-1.54v-1.75h1.54v-2.48h2.04v2.48h2.8v1.75h-2.8v4.44c0,0.59,0.15,1.01,0.45,1.26
			c0.3,0.25,0.77,0.37,1.41,0.37C877.66,328.93,878.08,328.9,878.69,328.83z"/>
		<path class="st6" d="M888.97,324.64v5.9h-2.02v-5.61c0-0.65-0.19-1.18-0.56-1.58c-0.37-0.4-0.87-0.6-1.5-0.6
			c-0.63,0-1.14,0.21-1.55,0.61c-0.4,0.41-0.6,0.94-0.6,1.58v5.61h-2.02v-14.41h2.02v5.92c0.65-0.77,1.56-1.15,2.73-1.15
			c1.06,0,1.91,0.34,2.55,1.03C888.66,322.61,888.97,323.52,888.97,324.64z"/>
		<path class="st6" d="M899.27,324.84v5.71h-1.88v-1.06c-0.71,0.84-1.71,1.27-3.02,1.27c-0.99,0-1.78-0.25-2.38-0.75
			c-0.6-0.5-0.9-1.16-0.9-1.98c0-0.82,0.31-1.47,0.94-1.96c0.63-0.49,1.47-0.73,2.54-0.73h2.67v-0.61c0-0.65-0.18-1.15-0.53-1.5
			c-0.35-0.35-0.85-0.52-1.49-0.52c-0.96,0-1.83,0.47-2.61,1.4l-1.17-1.19c0.92-1.34,2.25-2.02,3.98-2.02
			c1.18,0,2.12,0.35,2.81,1.04C898.92,322.63,899.27,323.59,899.27,324.84z M897.23,326.97v-0.17h-2.42c-1.11,0-1.67,0.38-1.67,1.15
			c0,0.38,0.15,0.69,0.45,0.91c0.3,0.22,0.7,0.34,1.2,0.34c0.69,0,1.27-0.21,1.74-0.63C897,328.14,897.23,327.61,897.23,326.97z"/>
		<path class="st6" d="M910.32,324.64v5.9h-2.02v-5.63c0-0.65-0.19-1.18-0.57-1.58c-0.38-0.4-0.87-0.61-1.49-0.61
			c-0.63,0-1.14,0.21-1.55,0.62c-0.4,0.41-0.6,0.93-0.6,1.58v5.63h-2.02v-9.43h1.88v0.92c0.72-0.76,1.66-1.13,2.82-1.13
			c1.09,0,1.95,0.34,2.58,1.02S910.32,323.51,910.32,324.64z"/>
		<path class="st6" d="M926.53,326.47c0,1.26-0.45,2.28-1.35,3.08c-0.9,0.8-2,1.2-3.28,1.2c-1,0-1.88-0.25-2.65-0.74
			s-1.37-1.16-1.81-2.01l1.42-1c0.82,1.25,1.81,1.88,2.98,1.88c0.77,0,1.39-0.22,1.87-0.66c0.48-0.44,0.72-1.02,0.72-1.74
			c0-0.72-0.25-1.27-0.76-1.65s-1.23-0.58-2.16-0.58h-1.4v-0.56l2.96-3.98h-4.73v-1.86h7.9v0.56l-3.07,4.15
			c0.92,0.15,1.72,0.57,2.38,1.25C926.2,324.48,926.53,325.37,926.53,326.47z"/>
		<path class="st6" d="M937.27,326.45c0,1.26-0.46,2.29-1.36,3.09s-2.01,1.21-3.3,1.21c-1.03,0-1.93-0.24-2.71-0.73
			c-0.78-0.49-1.4-1.15-1.84-2l1.42-1.02c0.82,1.25,1.84,1.88,3.07,1.88c0.77,0,1.4-0.22,1.89-0.66c0.49-0.44,0.74-1.02,0.74-1.74
			c0-0.72-0.25-1.27-0.76-1.66c-0.51-0.39-1.23-0.59-2.16-0.59h-2.92v-6.38h7.22v1.83h-5.23v2.98c0.5-0.12,1.04-0.17,1.61-0.17
			c1.2,0,2.22,0.35,3.06,1.06S937.27,325.22,937.27,326.45z"/>
		<path class="st6" d="M948.41,327.24c0,1.06-0.43,1.92-1.28,2.56c-0.85,0.64-1.96,0.96-3.31,0.96c-1.37,0-2.48-0.32-3.34-0.96
			c-0.86-0.64-1.29-1.49-1.29-2.56c0-1.52,0.92-2.62,2.75-3.29c-1.43-0.78-2.15-1.8-2.15-3.05c0-1.02,0.38-1.82,1.13-2.38
			c0.77-0.58,1.74-0.87,2.9-0.87c1.15,0,2.11,0.29,2.86,0.87c0.75,0.56,1.13,1.36,1.13,2.38c0,1.27-0.72,2.29-2.15,3.05
			C947.5,324.63,948.41,325.73,948.41,327.24z M946.36,327.16c0-0.55-0.2-0.99-0.6-1.33c-0.4-0.33-1.05-0.67-1.96-1
			c-0.9,0.32-1.55,0.65-1.95,1s-0.61,0.79-0.61,1.33c0,0.59,0.23,1.05,0.68,1.39c0.45,0.34,1.08,0.51,1.89,0.51
			c0.81,0,1.43-0.17,1.87-0.51C946.14,328.21,946.36,327.75,946.36,327.16z M941.73,320.98c0,0.45,0.16,0.82,0.47,1.11
			s0.85,0.61,1.6,0.94c0.75-0.32,1.29-0.63,1.6-0.93c0.31-0.3,0.47-0.68,0.47-1.12c0-0.5-0.19-0.9-0.57-1.2
			c-0.38-0.3-0.87-0.45-1.49-0.45c-0.63,0-1.13,0.15-1.52,0.45C941.92,320.08,941.73,320.48,941.73,320.98z"/>
		<path class="st6" d="M966.05,325.82c0,1.41-0.44,2.58-1.32,3.53c-0.88,0.94-1.98,1.41-3.31,1.41c-1.31,0-2.36-0.45-3.15-1.36V334
			h-2.02v-12.89h1.88v1.33c0.72-1.02,1.81-1.54,3.29-1.54c1.33,0,2.44,0.47,3.31,1.41C965.61,323.25,966.05,324.42,966.05,325.82z
			 M963.15,328.05c0.55-0.58,0.83-1.31,0.83-2.21s-0.28-1.64-0.83-2.22c-0.55-0.58-1.24-0.87-2.06-0.87c-0.79,0-1.47,0.27-2.02,0.81
			s-0.83,1.29-0.83,2.27c0,0.99,0.28,1.75,0.83,2.29c0.55,0.54,1.22,0.81,2.02,0.81C961.91,328.91,962.6,328.62,963.15,328.05z"/>
		<path class="st6" d="M973.77,321.11v1.79h-0.61c-0.82,0-1.49,0.23-2,0.69c-0.51,0.46-0.77,1.1-0.77,1.92v5.03h-2.02v-9.43h1.88
			v1.23c0.7-0.88,1.62-1.33,2.75-1.33C973.26,321.01,973.52,321.05,973.77,321.11z"/>
		<path class="st6" d="M974.81,325.82c-0.03-1.34,0.46-2.51,1.45-3.49c0.99-0.98,2.17-1.46,3.52-1.43c1.37-0.03,2.56,0.46,3.55,1.44
			s1.49,2.14,1.46,3.48c0.03,1.34-0.46,2.51-1.46,3.5s-2.18,1.47-3.55,1.44c-1.36,0.03-2.53-0.46-3.52-1.45
			C975.27,328.31,974.78,327.15,974.81,325.82z M982.72,325.84c0-0.87-0.28-1.6-0.84-2.2c-0.56-0.59-1.26-0.89-2.08-0.89
			c-0.83,0-1.53,0.3-2.09,0.89c-0.56,0.6-0.85,1.33-0.85,2.2s0.28,1.6,0.84,2.18c0.56,0.58,1.25,0.87,2.08,0.87
			c0.83,0,1.53-0.29,2.09-0.88S982.72,326.69,982.72,325.84z"/>
		<path class="st6" d="M989.47,319.38v1.73h2.23v1.75h-2.23v7.68h-2.02v-7.68h-1.34v-1.75h1.34v-1.9c0-1.09,0.29-1.91,0.88-2.46
			s1.42-0.83,2.48-0.83c0.5,0,0.93,0.06,1.31,0.17v1.71c-0.31-0.04-0.58-0.06-0.81-0.06c-0.63,0-1.09,0.13-1.39,0.37
			C989.62,318.37,989.47,318.79,989.47,319.38z"/>
		<path class="st6" d="M1001.78,326.49h-7.03c0.13,0.77,0.47,1.37,1.03,1.82c0.56,0.44,1.24,0.66,2.05,0.66c1,0,1.91-0.37,2.75-1.11
			l0.96,1.38c-1.06,1.01-2.32,1.52-3.77,1.52c-1.43,0-2.64-0.47-3.61-1.41c-0.97-0.94-1.46-2.11-1.46-3.51
			c-0.03-1.36,0.45-2.53,1.42-3.51c0.97-0.98,2.13-1.46,3.46-1.43c1.24,0,2.28,0.41,3.11,1.24c0.83,0.83,1.25,1.85,1.25,3.08
			C1001.94,325.59,1001.88,326.02,1001.78,326.49z M994.79,324.91h5.13c-0.01-0.7-0.25-1.26-0.71-1.68
			c-0.46-0.42-1.03-0.62-1.71-0.62c-0.67,0-1.25,0.21-1.74,0.62C995.27,323.65,994.94,324.21,994.79,324.91z"/>
		<path class="st6" d="M1003.36,328.93l1.15-1.27c0.86,0.9,1.74,1.34,2.65,1.34c0.45,0,0.81-0.09,1.1-0.28s0.42-0.45,0.42-0.78
			c0-0.26-0.1-0.46-0.29-0.62s-0.54-0.34-1.04-0.55l-0.96-0.4c-0.86-0.36-1.48-0.75-1.87-1.16c-0.39-0.42-0.59-0.94-0.59-1.58
			c0-0.83,0.31-1.5,0.93-1.99c0.62-0.49,1.42-0.74,2.39-0.74c1.36,0,2.45,0.49,3.27,1.46l-1.1,1.25c-0.62-0.64-1.35-0.96-2.21-0.96
			s-1.29,0.3-1.29,0.9c0,0.23,0.09,0.43,0.27,0.59c0.18,0.16,0.51,0.34,0.98,0.53l0.9,0.37c0.91,0.38,1.56,0.79,1.97,1.22
			c0.4,0.43,0.61,0.97,0.61,1.62c0,0.91-0.33,1.62-1,2.13c-0.67,0.5-1.5,0.75-2.5,0.75
			C1005.56,330.75,1004.29,330.15,1003.36,328.93z"/>
		<path class="st6" d="M1012.1,328.93l1.15-1.27c0.86,0.9,1.74,1.34,2.65,1.34c0.45,0,0.81-0.09,1.1-0.28s0.42-0.45,0.42-0.78
			c0-0.26-0.1-0.46-0.29-0.62s-0.54-0.34-1.04-0.55l-0.96-0.4c-0.86-0.36-1.48-0.75-1.87-1.16s-0.59-0.94-0.59-1.58
			c0-0.83,0.31-1.5,0.93-1.99s1.42-0.74,2.39-0.74c1.36,0,2.45,0.49,3.27,1.46l-1.1,1.25c-0.62-0.64-1.35-0.96-2.21-0.96
			s-1.29,0.3-1.29,0.9c0,0.23,0.09,0.43,0.27,0.59c0.18,0.16,0.51,0.34,0.98,0.53l0.9,0.37c0.91,0.38,1.56,0.79,1.97,1.22
			c0.4,0.43,0.61,0.97,0.61,1.62c0,0.91-0.33,1.62-1,2.13c-0.67,0.5-1.5,0.75-2.5,0.75C1014.3,330.75,1013.03,330.15,1012.1,328.93z
			"/>
		<path class="st6" d="M1021.76,318.54c-0.27-0.26-0.4-0.57-0.4-0.94c0-0.37,0.13-0.69,0.4-0.95c0.27-0.26,0.6-0.39,0.98-0.39
			c0.37,0,0.69,0.13,0.96,0.39s0.4,0.58,0.4,0.95c0,0.37-0.13,0.69-0.4,0.94c-0.27,0.26-0.59,0.38-0.96,0.38
			C1022.36,318.92,1022.03,318.79,1021.76,318.54z M1021.72,330.54v-9.43h2.02v9.43H1021.72z"/>
		<path class="st6" d="M1026.06,325.82c-0.03-1.34,0.46-2.51,1.45-3.49c0.99-0.98,2.17-1.46,3.52-1.43
			c1.37-0.03,2.56,0.46,3.55,1.44c1,0.99,1.49,2.14,1.46,3.48c0.03,1.34-0.46,2.51-1.46,3.5c-1,0.99-2.18,1.47-3.55,1.44
			c-1.36,0.03-2.53-0.46-3.52-1.45C1026.52,328.31,1026.04,327.15,1026.06,325.82z M1033.98,325.84c0-0.87-0.28-1.6-0.84-2.2
			c-0.56-0.59-1.26-0.89-2.08-0.89c-0.83,0-1.53,0.3-2.09,0.89c-0.56,0.6-0.85,1.33-0.85,2.2s0.28,1.6,0.84,2.18
			s1.25,0.87,2.08,0.87c0.83,0,1.53-0.29,2.1-0.88C1033.7,327.42,1033.98,326.69,1033.98,325.84z"/>
		<path class="st6" d="M1046.6,324.64v5.9h-2.02v-5.63c0-0.65-0.19-1.18-0.57-1.58c-0.38-0.4-0.88-0.61-1.49-0.61
			c-0.63,0-1.14,0.21-1.55,0.62c-0.4,0.41-0.6,0.93-0.6,1.58v5.63h-2.02v-9.43h1.88v0.92c0.72-0.76,1.66-1.13,2.82-1.13
			c1.09,0,1.95,0.34,2.58,1.02C1046.28,322.6,1046.6,323.51,1046.6,324.64z"/>
		<path class="st6" d="M1056.9,324.84v5.71h-1.88v-1.06c-0.71,0.84-1.71,1.27-3.02,1.27c-0.99,0-1.78-0.25-2.38-0.75
			c-0.6-0.5-0.9-1.16-0.9-1.98c0-0.82,0.31-1.47,0.94-1.96c0.63-0.49,1.47-0.73,2.54-0.73h2.67v-0.61c0-0.65-0.18-1.15-0.53-1.5
			c-0.35-0.35-0.85-0.52-1.49-0.52c-0.96,0-1.83,0.47-2.61,1.4l-1.17-1.19c0.92-1.34,2.25-2.02,3.98-2.02
			c1.18,0,2.12,0.35,2.81,1.04C1056.55,322.63,1056.9,323.59,1056.9,324.84z M1054.86,326.97v-0.17h-2.42
			c-1.12,0-1.67,0.38-1.67,1.15c0,0.38,0.15,0.69,0.45,0.91c0.3,0.22,0.7,0.34,1.2,0.34c0.69,0,1.27-0.21,1.74-0.63
			C1054.63,328.14,1054.86,327.61,1054.86,326.97z"/>
		<path class="st6" d="M1059.7,330.54v-14.41h2.02v14.41H1059.7z"/>
		<path class="st6" d="M1063.76,328.93l1.15-1.27c0.86,0.9,1.74,1.34,2.65,1.34c0.45,0,0.81-0.09,1.1-0.28
			c0.28-0.19,0.42-0.45,0.42-0.78c0-0.26-0.1-0.46-0.29-0.62c-0.19-0.16-0.54-0.34-1.04-0.55l-0.96-0.4
			c-0.86-0.36-1.48-0.75-1.87-1.16s-0.59-0.94-0.59-1.58c0-0.83,0.31-1.5,0.93-1.99s1.42-0.74,2.39-0.74c1.36,0,2.45,0.49,3.27,1.46
			l-1.09,1.25c-0.62-0.64-1.35-0.96-2.21-0.96c-0.86,0-1.29,0.3-1.29,0.9c0,0.23,0.09,0.43,0.27,0.59s0.51,0.34,0.98,0.53l0.9,0.37
			c0.91,0.38,1.57,0.79,1.97,1.22c0.4,0.43,0.61,0.97,0.61,1.62c0,0.91-0.33,1.62-1,2.13c-0.67,0.5-1.5,0.75-2.5,0.75
			C1065.96,330.75,1064.69,330.15,1063.76,328.93z"/>
	</g>
	<g>
		<path class="st6" d="M716.76,351.83c-0.27-0.26-0.4-0.57-0.4-0.94s0.13-0.69,0.4-0.95c0.27-0.26,0.6-0.39,0.98-0.39
			c0.37,0,0.69,0.13,0.96,0.39c0.27,0.26,0.4,0.58,0.4,0.95s-0.13,0.69-0.4,0.94c-0.27,0.26-0.59,0.38-0.96,0.38
			C717.36,352.21,717.03,352.09,716.76,351.83z M716.72,363.84v-9.43h2.02v9.43H716.72z"/>
		<path class="st6" d="M729.9,357.94v5.9h-2.02v-5.63c0-0.65-0.19-1.18-0.57-1.58c-0.38-0.4-0.87-0.6-1.49-0.6
			c-0.63,0-1.14,0.2-1.55,0.61c-0.4,0.41-0.6,0.94-0.6,1.58v5.63h-2.02v-9.43h1.88v0.92c0.72-0.75,1.66-1.13,2.82-1.13
			c1.09,0,1.95,0.34,2.58,1.02C729.59,355.89,729.9,356.8,729.9,357.94z"/>
		<path class="st6" d="M732.11,359.11c-0.03-1.34,0.46-2.51,1.46-3.49c1-0.98,2.18-1.46,3.54-1.43c1.77,0,3.09,0.73,3.98,2.19
			l-1.42,1.11c-0.67-0.96-1.51-1.44-2.54-1.44c-0.85,0-1.55,0.29-2.11,0.88s-0.85,1.31-0.85,2.17c0,0.87,0.28,1.6,0.85,2.19
			c0.56,0.59,1.27,0.88,2.11,0.88c1,0,1.84-0.47,2.54-1.42l1.42,1.09c-0.42,0.69-0.98,1.23-1.67,1.61
			c-0.69,0.38-1.46,0.58-2.31,0.58c-1.4,0-2.58-0.48-3.54-1.44C732.6,361.65,732.11,360.48,732.11,359.11z"/>
		<path class="st6" d="M743.31,363.84v-14.41h2.02v14.41H743.31z"/>
		<path class="st6" d="M748.15,359.88v-5.48h2v5.63c0,0.64,0.2,1.16,0.6,1.56c0.4,0.4,0.91,0.59,1.54,0.59c0.6,0,1.1-0.2,1.49-0.59
			c0.39-0.4,0.59-0.92,0.59-1.56v-5.63h2.02v5.48c0,1.24-0.39,2.25-1.16,3.02c-0.77,0.77-1.75,1.15-2.93,1.15
			c-1.2,0-2.19-0.38-2.97-1.14C748.54,362.14,748.15,361.13,748.15,359.88z"/>
		<path class="st6" d="M766.37,349.43h2.04v14.41h-1.88v-1.34c-0.73,1.04-1.83,1.56-3.3,1.56c-1.32,0-2.42-0.47-3.29-1.41
			c-0.88-0.94-1.32-2.11-1.32-3.51c-0.03-1.38,0.41-2.56,1.31-3.52c0.9-0.97,2-1.44,3.3-1.41c1.36,0,2.41,0.45,3.15,1.36V349.43z
			 M765.58,361.4c0.55-0.54,0.83-1.29,0.83-2.27c0-0.97-0.28-1.73-0.83-2.28c-0.56-0.54-1.23-0.82-2.01-0.82
			c-0.82,0-1.51,0.29-2.07,0.86c-0.56,0.58-0.84,1.31-0.84,2.21s0.28,1.64,0.83,2.22s1.24,0.87,2.08,0.87
			C764.35,362.2,765.03,361.93,765.58,361.4z"/>
		<path class="st6" d="M779.81,359.78h-7.03c0.13,0.77,0.47,1.37,1.03,1.82c0.56,0.44,1.24,0.66,2.05,0.66c1,0,1.91-0.37,2.75-1.11
			l0.96,1.38c-1.06,1.01-2.32,1.52-3.77,1.52c-1.43,0-2.64-0.47-3.61-1.41c-0.97-0.94-1.46-2.11-1.46-3.51
			c-0.03-1.36,0.45-2.53,1.42-3.51c0.97-0.98,2.13-1.46,3.46-1.43c1.24,0,2.28,0.41,3.11,1.24c0.83,0.83,1.25,1.85,1.25,3.08
			C779.97,358.89,779.92,359.31,779.81,359.78z M772.82,358.21h5.13c-0.01-0.7-0.25-1.26-0.71-1.68s-1.03-0.63-1.71-0.63
			c-0.67,0-1.25,0.21-1.74,0.63S772.97,357.5,772.82,358.21z"/>
		<path class="st6" d="M787.02,357.5c-0.04-1.81,0.61-3.36,1.94-4.65c1.33-1.29,2.91-1.93,4.73-1.9c1.15,0,2.21,0.26,3.17,0.79
			c0.96,0.52,1.72,1.24,2.27,2.13l-1.54,1.13c-0.94-1.46-2.23-2.19-3.88-2.19c-1.31,0-2.4,0.45-3.27,1.33
			c-0.87,0.89-1.31,2.01-1.31,3.35s0.44,2.46,1.31,3.35c0.87,0.89,1.96,1.33,3.27,1.33c1.65,0,2.95-0.73,3.88-2.19l1.54,1.13
			c-0.55,0.91-1.3,1.62-2.26,2.14s-2.01,0.78-3.18,0.78c-1.82,0.03-3.39-0.61-4.73-1.9C787.63,360.85,786.98,359.3,787.02,357.5z"/>
		<path class="st6" d="M809.88,363.84l-0.9-2.11h-5.71l-0.9,2.11h-2.17l5.59-12.89h0.69l5.59,12.89H809.88z M808.25,359.97
			l-2.11-5.25l-2.13,5.25H808.25z"/>
		<path class="st6" d="M814.36,367.26l0.19-5.46h2.34l-0.9,5.46H814.36z"/>
		<path class="st6" d="M824.46,357.5c-0.04-1.81,0.61-3.36,1.94-4.65c1.33-1.29,2.91-1.93,4.73-1.9c1.15,0,2.21,0.26,3.17,0.79
			c0.96,0.52,1.72,1.24,2.27,2.13l-1.54,1.13c-0.94-1.46-2.23-2.19-3.88-2.19c-1.31,0-2.4,0.45-3.27,1.33
			c-0.87,0.89-1.31,2.01-1.31,3.35s0.44,2.46,1.31,3.35c0.87,0.89,1.96,1.33,3.27,1.33c1.65,0,2.95-0.73,3.88-2.19l1.54,1.13
			c-0.55,0.91-1.3,1.62-2.26,2.14s-2.01,0.78-3.18,0.78c-1.82,0.03-3.39-0.61-4.73-1.9C825.07,360.85,824.42,359.3,824.46,357.5z"/>
		<path class="st6" d="M838.1,361.3l1.44-1.09c0.92,1.34,2.03,2.02,3.32,2.02c0.65,0,1.18-0.16,1.58-0.48s0.61-0.75,0.61-1.29
			c0-0.44-0.13-0.78-0.4-1.03c-0.27-0.25-0.76-0.54-1.46-0.87l-1.4-0.65c-0.99-0.45-1.73-0.94-2.22-1.49s-0.74-1.22-0.74-2.03
			c0-1.01,0.38-1.84,1.15-2.48s1.72-0.96,2.84-0.96c0.88,0,1.69,0.21,2.41,0.61c0.72,0.41,1.28,0.96,1.68,1.65l-1.42,1.1
			c-0.69-1.02-1.58-1.54-2.67-1.54c-0.56,0-1.03,0.13-1.38,0.4s-0.54,0.65-0.54,1.13c0.01,0.23,0.04,0.42,0.09,0.57
			s0.16,0.3,0.36,0.46s0.33,0.26,0.4,0.3s0.33,0.17,0.75,0.38c0.08,0.04,0.13,0.07,0.17,0.1l1.42,0.65c1.06,0.49,1.83,1,2.32,1.56
			c0.48,0.55,0.72,1.24,0.72,2.06c0,1.09-0.4,1.97-1.2,2.65c-0.8,0.68-1.82,1.02-3.04,1.02c-1.03,0-1.95-0.24-2.79-0.73
			C839.27,362.83,838.6,362.16,838.1,361.3z"/>
		<path class="st6" d="M865.48,358.21l-0.56,0.81c-0.71,1.06-1.24,1.82-1.61,2.27l2.11,2.55h-2.4l-0.98-1.19
			c-1.08,0.93-2.27,1.4-3.57,1.4c-1.17,0-2.13-0.32-2.88-0.96s-1.13-1.45-1.13-2.44c0-0.69,0.2-1.32,0.6-1.88
			c0.4-0.56,1.1-1.24,2.11-2.02c-0.82-1.04-1.23-2-1.23-2.9c0-0.87,0.28-1.57,0.84-2.1c0.56-0.53,1.29-0.8,2.2-0.8
			c0.87,0,1.58,0.25,2.14,0.75c0.56,0.5,0.84,1.15,0.84,1.94c0,1.14-0.72,2.27-2.17,3.38l2.29,2.75c0.09-0.12,0.49-0.7,1.19-1.75
			c0.24-0.37,0.45-0.68,0.62-0.92L865.48,358.21z M860.83,361.18l-2.54-3.07c-0.72,0.56-1.19,1-1.42,1.31
			c-0.23,0.31-0.35,0.65-0.35,1.04c0,0.51,0.19,0.93,0.57,1.27s0.87,0.5,1.47,0.5C859.34,362.22,860.1,361.88,860.83,361.18z
			 M857.81,353.87c0,0.46,0.3,1.08,0.9,1.86c0.5-0.38,0.85-0.72,1.05-1.01c0.2-0.29,0.3-0.6,0.3-0.93c0-0.33-0.1-0.59-0.3-0.79
			c-0.2-0.19-0.47-0.29-0.82-0.29C858.19,352.71,857.81,353.1,857.81,353.87z"/>
		<path class="st6" d="M880.54,363.84l-0.9-2.11h-5.71l-0.9,2.11h-2.17l5.59-12.89h0.69l5.59,12.89H880.54z M878.91,359.97
			l-2.11-5.25l-2.13,5.25H878.91z"/>
		<path class="st6" d="M891.47,349.43h2.04v14.41h-1.88v-1.34c-0.73,1.04-1.83,1.56-3.3,1.56c-1.32,0-2.42-0.47-3.29-1.41
			c-0.88-0.94-1.32-2.11-1.32-3.51c-0.03-1.38,0.41-2.56,1.31-3.52c0.9-0.97,2-1.44,3.3-1.41c1.36,0,2.41,0.45,3.15,1.36V349.43z
			 M890.68,361.4c0.55-0.54,0.83-1.29,0.83-2.27c0-0.97-0.28-1.73-0.83-2.28c-0.56-0.54-1.23-0.82-2.01-0.82
			c-0.82,0-1.51,0.29-2.07,0.86c-0.56,0.58-0.84,1.31-0.84,2.21s0.28,1.64,0.83,2.22s1.24,0.87,2.08,0.87
			C889.46,362.2,890.13,361.93,890.68,361.4z"/>
		<path class="st6" d="M903,354.4h2.15l-4.55,9.64h-0.69l-4.57-9.64h2.15l2.77,6.24L903,354.4z"/>
		<path class="st6" d="M906.01,359.11c-0.03-1.34,0.46-2.51,1.45-3.49c0.99-0.98,2.17-1.46,3.52-1.43c1.37-0.03,2.56,0.45,3.55,1.44
			s1.49,2.15,1.46,3.48c0.03,1.34-0.46,2.51-1.46,3.5s-2.18,1.47-3.55,1.44c-1.36,0.03-2.53-0.46-3.52-1.45
			C906.47,361.6,905.99,360.44,906.01,359.11z M913.93,359.13c0-0.87-0.28-1.6-0.84-2.2s-1.26-0.89-2.08-0.89
			c-0.83,0-1.53,0.3-2.09,0.89s-0.85,1.33-0.85,2.2c0,0.87,0.28,1.6,0.84,2.18c0.56,0.58,1.25,0.87,2.08,0.87
			c0.83,0,1.53-0.29,2.09-0.88C913.65,360.71,913.93,359.99,913.93,359.13z"/>
		<path class="st6" d="M917.71,359.11c-0.03-1.34,0.46-2.51,1.46-3.49c1-0.98,2.18-1.46,3.54-1.43c1.77,0,3.09,0.73,3.98,2.19
			l-1.42,1.11c-0.67-0.96-1.51-1.44-2.54-1.44c-0.85,0-1.55,0.29-2.11,0.88s-0.85,1.31-0.85,2.17c0,0.87,0.28,1.6,0.85,2.19
			c0.56,0.59,1.27,0.88,2.11,0.88c1,0,1.84-0.47,2.54-1.42l1.42,1.09c-0.42,0.69-0.98,1.23-1.67,1.61
			c-0.69,0.38-1.46,0.58-2.31,0.58c-1.4,0-2.58-0.48-3.54-1.44C918.2,361.65,917.71,360.48,917.71,359.11z"/>
		<path class="st6" d="M936.4,358.13v5.71h-1.88v-1.06c-0.71,0.85-1.71,1.27-3.02,1.27c-0.99,0-1.78-0.25-2.38-0.75
			c-0.6-0.5-0.9-1.16-0.9-1.98c0-0.82,0.31-1.47,0.94-1.96c0.63-0.49,1.47-0.73,2.54-0.73h2.67v-0.62c0-0.65-0.18-1.15-0.53-1.5
			s-0.85-0.52-1.49-0.52c-0.96,0-1.83,0.47-2.61,1.4l-1.17-1.19c0.92-1.34,2.25-2.02,3.98-2.02c1.18,0,2.12,0.35,2.81,1.04
			S936.4,356.89,936.4,358.13z M934.37,360.26v-0.17h-2.42c-1.11,0-1.67,0.38-1.67,1.15c0,0.38,0.15,0.69,0.45,0.91
			c0.3,0.22,0.7,0.34,1.2,0.34c0.69,0,1.27-0.21,1.74-0.63S934.37,360.9,934.37,360.26z"/>
		<path class="st6" d="M944.82,362.13v1.71c-0.67,0.14-1.22,0.21-1.67,0.21c-1.1,0-1.96-0.28-2.56-0.83
			c-0.61-0.55-0.91-1.37-0.91-2.46v-4.61h-1.54v-1.75h1.54v-2.48h2.04v2.48h2.8v1.75h-2.8v4.44c0,0.59,0.15,1.01,0.45,1.26
			s0.77,0.38,1.41,0.38C943.79,362.22,944.2,362.19,944.82,362.13z"/>
		<path class="st6" d="M955.17,359.78h-7.03c0.13,0.77,0.47,1.37,1.03,1.82c0.56,0.44,1.24,0.66,2.05,0.66c1,0,1.91-0.37,2.75-1.11
			l0.96,1.38c-1.06,1.01-2.32,1.52-3.77,1.52c-1.43,0-2.64-0.47-3.61-1.41c-0.97-0.94-1.46-2.11-1.46-3.51
			c-0.03-1.36,0.45-2.53,1.42-3.51c0.97-0.98,2.13-1.46,3.46-1.43c1.24,0,2.28,0.41,3.11,1.24c0.83,0.83,1.25,1.85,1.25,3.08
			C955.33,358.89,955.28,359.31,955.17,359.78z M948.18,358.21h5.13c-0.01-0.7-0.25-1.26-0.71-1.68s-1.03-0.63-1.71-0.63
			c-0.67,0-1.25,0.21-1.74,0.63S948.34,357.5,948.18,358.21z"/>
		<path class="st6" d="M956.75,362.22l1.15-1.27c0.86,0.9,1.74,1.34,2.65,1.34c0.45,0,0.81-0.09,1.1-0.28
			c0.28-0.19,0.42-0.44,0.42-0.78c0-0.26-0.1-0.46-0.29-0.62c-0.19-0.16-0.54-0.34-1.04-0.55l-0.96-0.4
			c-0.86-0.36-1.48-0.75-1.87-1.16s-0.59-0.94-0.59-1.58c0-0.83,0.31-1.5,0.93-1.99s1.42-0.74,2.39-0.74c1.36,0,2.45,0.49,3.27,1.46
			l-1.09,1.25c-0.62-0.64-1.35-0.96-2.21-0.96c-0.86,0-1.29,0.3-1.29,0.9c0,0.23,0.09,0.43,0.27,0.59c0.18,0.16,0.51,0.34,0.98,0.53
			l0.9,0.37c0.91,0.38,1.57,0.79,1.97,1.22c0.4,0.43,0.61,0.97,0.61,1.62c0,0.91-0.33,1.62-1,2.13c-0.67,0.5-1.5,0.75-2.5,0.75
			C958.95,364.05,957.68,363.44,956.75,362.22z"/>
		<path class="st6" d="M966.55,363.63c-0.29-0.28-0.44-0.63-0.44-1.06s0.15-0.78,0.44-1.07s0.65-0.43,1.08-0.43s0.77,0.14,1.06,0.42
			c0.28,0.28,0.42,0.64,0.42,1.08c0,0.42-0.14,0.78-0.42,1.06c-0.28,0.28-0.63,0.42-1.06,0.42S966.84,363.91,966.55,363.63z"/>
	</g>
	<g>
		<path class="st6" d="M717.79,222.61v-31.44h20.67v4.53h-15.62v8.05h11.77v4.38h-11.77v9.96h16.2v4.53H717.79z"/>
		<path class="st6" d="M768.76,222.61h-5.76l-7.62-11.72l-7.57,11.72h-5.81l10.62-16.05l-9.96-15.39h5.81l6.95,11.1l6.86-11.1h5.76
			l-9.76,15.39L768.76,222.61z"/>
		<path class="st6" d="M773.81,222.61v-31.44h11.48c3.17,0,5.75,0.9,7.72,2.69c1.97,1.79,2.95,4.1,2.95,6.93
			c0,2.83-0.99,5.14-2.98,6.95s-4.55,2.72-7.69,2.72h-6.43v12.15H773.81z M778.86,205.99h6.33c1.75,0,3.11-0.46,4.1-1.38
			c0.98-0.92,1.48-2.17,1.48-3.76c0-1.59-0.49-2.85-1.48-3.79c-0.98-0.94-2.35-1.41-4.1-1.41h-6.33V205.99z"/>
		<path class="st6" d="M801.58,222.61v-31.44h20.67v4.53h-15.62v8.05h11.77v4.38h-11.77v9.96h16.2v4.53H801.58z"/>
		<path class="st6" d="M854.21,222.61h-5.76l-8.96-12.15h-5.76v12.15h-5.05v-31.44h11.48c3.17,0,5.75,0.9,7.72,2.69
			c1.97,1.79,2.95,4.1,2.95,6.93c0,2.06-0.53,3.88-1.6,5.43c-1.06,1.56-2.55,2.7-4.45,3.43L854.21,222.61z M833.73,195.65v10.34
			h6.33c1.71,0,3.07-0.47,4.07-1.41c1-0.94,1.5-2.18,1.5-3.74c0-1.56-0.5-2.81-1.5-3.76c-1-0.95-2.36-1.43-4.07-1.43H833.73z"/>
		<path class="st6" d="M858.74,222.61v-31.44h5.05v31.44H858.74z"/>
		<path class="st6" d="M871.69,222.61v-31.44h20.67v4.53h-15.62v8.05h11.77v4.38h-11.77v9.96h16.2v4.53H871.69z"/>
		<path class="st6" d="M919.66,191.18h5.05v31.96h-1.71l-19.15-21.82v21.29h-5.05v-31.96h1.76l19.1,21.72V191.18z"/>
		<path class="st6" d="M930.76,206.9c-0.09-4.48,1.51-8.32,4.81-11.53c3.3-3.21,7.21-4.78,11.72-4.72c2.86,0,5.48,0.65,7.86,1.95
			c2.38,1.3,4.25,3.06,5.62,5.29l-3.81,2.81c-2.32-3.62-5.53-5.43-9.62-5.43c-3.24,0-5.94,1.1-8.1,3.31
			c-2.16,2.21-3.24,4.98-3.24,8.31s1.08,6.11,3.24,8.31c2.16,2.21,4.86,3.31,8.1,3.31c4.1,0,7.3-1.81,9.62-5.43l3.81,2.81
			c-1.37,2.25-3.23,4.02-5.6,5.31c-2.37,1.29-4.99,1.93-7.88,1.93c-4.51,0.06-8.42-1.51-11.72-4.72
			C932.27,215.22,930.66,211.37,930.76,206.9z"/>
		<path class="st6" d="M966.82,222.61v-31.44h20.67v4.53h-15.62v8.05h11.77v4.38h-11.77v9.96h16.2v4.53H966.82z"/>
		<path class="st6" d="M993.92,222.61v-31.44h9.86c5.11,0,9.24,1.45,12.38,4.33c3.14,2.89,4.72,6.67,4.72,11.34
			c0,4.6-1.58,8.38-4.74,11.34c-3.16,2.95-7.28,4.43-12.36,4.43H993.92z M998.97,218.09h4.76c3.62,0,6.52-1.04,8.69-3.12
			c2.17-2.08,3.26-4.79,3.26-8.12c0-3.37-1.08-6.06-3.24-8.07c-2.16-2.02-5.06-3.02-8.72-3.02h-4.76V218.09z"/>
		<path class="st6" d="M1045.22,222.61V195.7h-10.57v-4.53h26.25v4.53h-10.62v26.91H1045.22z"/>
		<path class="st6" d="M1065.61,222.61v-31.44h20.67v4.53h-15.62v8.05h11.77v4.38h-11.77v9.96h16.2v4.53H1065.61z"/>
		<path class="st6" d="M1113.81,222.61l-2.24-5.24h-14.15l-2.24,5.24h-5.38l13.86-31.96h1.71l13.86,31.96H1113.81z M1109.76,213.04
			l-5.24-13l-5.29,13H1109.76z"/>
		<path class="st6" d="M1152.4,190.65h1.71v31.96h-5.05v-19.72l-9,11.81h-1.71l-9.05-11.86v19.77h-5.05v-31.96h1.76l13.2,17.58
			L1152.4,190.65z"/>
	</g>
	<g>
		<path class="st6" d="M713.21,129.19c0-6.96,1.72-12.53,5.15-16.72c3.43-4.28,8.48-6.43,15.13-6.43c6.65,0,11.67,2.12,15.05,6.36
			c3.43,4.19,5.15,9.79,5.15,16.79c0,7.09-1.73,12.86-5.19,17.31c-3.46,4.45-8.47,6.67-15.01,6.67c-6.55,0-11.57-2.23-15.05-6.7
			C714.95,141.99,713.21,136.23,713.21,129.19z M744.84,129.26c0-11.01-3.78-16.51-11.35-16.51c-7.62,0-11.43,5.51-11.43,16.51
			c0,11.47,3.81,17.21,11.43,17.21C741.06,146.46,744.84,140.73,744.84,129.26z"/>
		<path class="st6" d="M778.98,106.8h2.98v45.6h-8.53v-36.97l-10.79,2.97l-2.09-6.43L778.98,106.8z"/>
	</g>
</g>
</svg>
