<?xml version="1.0" encoding="utf-8"?>
<!-- Generator: Adobe Illustrator 23.0.3, SVG Export Plug-In . SVG Version: 6.00 Build 0)  -->
<svg version="1.1" id="Layer_1" xmlns="http://www.w3.org/2000/svg" xmlns:xlink="http://www.w3.org/1999/xlink" x="0px" y="0px"
	 viewBox="0 0 50 49.5" style="enable-background:new 0 0 50 49.5;" xml:space="preserve">
<style type="text/css">
	.st0{fill:#FF7E02;}
</style>
<title>about-model-inclusive</title>
<path class="st0" d="M24.2,16L39.3,0.9L38.5,0L23.3,15.1c-0.8,0.8-0.8,2.2,0,3l6.1,6.1c0.8,0.8,2.2,0.8,3,0l4-4l0.1,2.6
	c0.2,1.2,1.3,2.1,2.5,2c0.7,0,1.4-0.3,1.9-0.7c0.4-0.4,0.6-0.8,0.7-1.3l-0.2-7.5L47.5,9l-0.9-0.9l-6.3,6.3c-0.1,0.1-0.2,0.3-0.2,0.4
	l0.2,7.7c-0.2,0.6-0.7,1-1.4,0.9c-0.6,0.1-1.2-0.3-1.3-0.9c0,0,0,0,0,0l-0.1-4c0-0.3-0.3-0.6-0.6-0.6c-0.2,0-0.3,0.1-0.4,0.2l-5,5
	c-0.4,0.4-0.9,0.4-1.3,0l-0.4-0.4l3.4-3.4c0.2-0.3,0.2-0.7-0.1-0.9c-0.2-0.2-0.5-0.2-0.8,0L29,22l-1.4-1.4l3.5-3.5
	c0.2-0.3,0.2-0.7-0.1-0.9c-0.2-0.2-0.5-0.2-0.8,0l-3.5,3.5l-1.2-1.2l3.6-3.6c0.2-0.3,0.2-0.7-0.1-0.9c-0.2-0.2-0.5-0.2-0.8,0
	l-3.6,3.6l-0.4-0.4C23.8,16.9,23.8,16.3,24.2,16"/>
<path class="st0" d="M34,24l15.1,15.1l0.9-0.9L34.8,23.1c-0.8-0.8-2.2-0.8-3,0l-6.1,6.1c-0.8,0.8-0.8,2.2,0,3l4,4l-2.6,0.1
	c-1.2,0.2-2.1,1.3-2,2.5c0,0.7,0.3,1.4,0.7,1.9c0.4,0.4,0.8,0.6,1.3,0.7l7.5-0.2l6.2,6.2l0.9-0.9l-6.3-6.3c-0.1-0.1-0.3-0.2-0.5-0.2
	l-7.7,0.2c-0.6-0.2-1-0.7-0.9-1.4c-0.1-0.6,0.3-1.2,0.9-1.3c0,0,0,0,0,0l4-0.1c0.3,0,0.6-0.3,0.6-0.7c0-0.1-0.1-0.3-0.2-0.4l-5-5
	c-0.4-0.4-0.4-0.9,0-1.3l0.4-0.4l3.4,3.4c0.3,0.2,0.7,0.2,0.9-0.1c0.2-0.2,0.2-0.5,0-0.8L28,28.7l1.4-1.4l3.5,3.5
	c0.2,0.3,0.6,0.3,0.9,0.1c0.3-0.2,0.3-0.6,0.1-0.9c0,0-0.1-0.1-0.1-0.1l-3.5-3.5l1.2-1.2l3.6,3.6c0.2,0.3,0.6,0.3,0.9,0.1
	c0.3-0.2,0.3-0.6,0.1-0.9c0,0-0.1-0.1-0.1-0.1l-3.6-3.6l0.4-0.4C33.1,23.6,33.7,23.6,34,24"/>
<path class="st0" d="M25.8,33.5L10.6,48.6l0.9,0.9l15.1-15.1c0.8-0.8,0.8-2.2,0-3l-6.1-6.1c-0.8-0.8-2.2-0.8-3,0l-4,4l-0.1-2.6
	c-0.2-1.2-1.3-2.1-2.5-2c-0.7,0-1.4,0.3-1.9,0.7c-0.4,0.4-0.6,0.8-0.7,1.3l0.2,7.5l-6.2,6.2l0.9,0.9L9.6,35c0.1-0.1,0.2-0.3,0.2-0.4
	l-0.2-7.7c0.2-0.6,0.7-1,1.4-0.9c0.6-0.1,1.2,0.3,1.3,0.9c0,0,0,0,0,0l0.1,4c0,0.3,0.3,0.6,0.6,0.6c0.2,0,0.3-0.1,0.4-0.2l5-5
	c0.4-0.4,0.9-0.4,1.3,0l0.4,0.4L16.8,30c-0.2,0.3-0.2,0.7,0.1,0.9c0.2,0.2,0.5,0.2,0.8,0l3.4-3.4l1.4,1.4l-3.5,3.5
	c-0.2,0.3-0.2,0.7,0.1,0.9c0.2,0.2,0.5,0.2,0.8,0l3.5-3.5l1.2,1.2l-3.6,3.6c-0.3,0.2-0.3,0.6-0.1,0.9c0.2,0.3,0.6,0.3,0.9,0.1
	c0,0,0.1-0.1,0.1-0.1l3.6-3.6l0.4,0.4C26.1,32.6,26.1,33.2,25.8,33.5"/>
<path class="st0" d="M16,25.5L0.9,10.4L0,11.3l15.1,15.1c0.8,0.8,2.2,0.8,3,0l6.1-6.1c0.8-0.8,0.8-2.2,0-3l-4-4l2.6-0.1
	c1.2-0.2,2.1-1.3,2-2.5c0-0.7-0.3-1.4-0.7-1.9c-0.4-0.4-0.8-0.6-1.3-0.7l-7.5,0.2L9,2.2L8.2,3l6.3,6.3c0.1,0.1,0.3,0.2,0.5,0.2
	l7.7-0.2c0.6,0.2,1,0.7,0.9,1.4c0.1,0.6-0.3,1.2-0.9,1.3c0,0,0,0,0,0l-4,0.1c-0.3,0-0.6,0.3-0.6,0.7c0,0.1,0.1,0.3,0.2,0.4l5,5
	c0.4,0.4,0.4,0.9,0,1.3l-0.4,0.4l-3.4-3.4c-0.3-0.2-0.7-0.2-0.9,0.1c-0.2,0.2-0.2,0.5,0,0.8l3.4,3.4l-1.4,1.4l-3.5-3.5
	c-0.2-0.3-0.6-0.3-0.9-0.1c-0.3,0.2-0.3,0.6-0.1,0.9c0,0,0.1,0.1,0.1,0.1l3.5,3.5l-1.2,1.2l-3.6-3.6c-0.3-0.2-0.7-0.2-0.9,0.1
	c-0.2,0.2-0.2,0.5,0,0.8l3.6,3.6l-0.4,0.4C16.9,25.9,16.3,25.9,16,25.5"/>
</svg>
