<?xml version="1.0" encoding="utf-8"?>
<!-- Generator: Adobe Illustrator 23.0.3, SVG Export Plug-In . SVG Version: 6.00 Build 0)  -->
<svg version="1.1" id="Layer_1" xmlns="http://www.w3.org/2000/svg" xmlns:xlink="http://www.w3.org/1999/xlink" x="0px" y="0px"
	 viewBox="0 0 54.5 52.7" style="enable-background:new 0 0 54.5 52.7;" xml:space="preserve">
<style type="text/css">
	.st0{fill:#FF7E02;}
</style>
<title>about-sector-agnostic</title>
<path class="st0" d="M54.2,27.5c-1-0.9-2.3-1.4-3.7-1.4c-0.7,0-1.5,0.1-2.1,0.4c-0.4,0.2-0.8,0.4-1.2,0.6v-0.8c0-1.2,0-2.3-0.2-3.4
	h0.3c1.3,0,2.6-0.6,3.5-1.6c1.5-1.3,2-3.4,1.2-5.3l-0.4-0.4c-0.5-0.2-1.1-0.4-1.7-0.4c-1.3,0-2.6,0.6-3.5,1.6L46,17.4
	c-0.4-1.3-0.8-2.5-1.4-3.7c1.3-0.5,2.2-1.5,2.7-2.8c0.8-1.7,0.4-3.7-1-4.9l-0.6-0.2c-1.8,0.1-3.4,1.3-3.9,3.1l-0.1,0.3
	c-0.4-0.4-0.7-0.8-1.1-1.2s-0.8-0.7-1.1-1c0.8-0.9,1.2-2.1,1-3.3c0-1.7-1.2-3.2-2.8-3.7L37.1,0c-1.5,0.8-2.3,2.4-2.1,4
	c-0.4-0.2-0.8-0.3-1.2-0.5c-0.5-0.1-1,0.1-1.1,0.6s0.1,1,0.6,1.1l0,0c0.5,0.2,0.9,0.4,1.4,0.6L34,6.4c-1.4,0.9-2.2,2.6-1.8,4.2
	l0.3,0.5c0.6,0.4,1.3,0.6,2.1,0.6c0.9,0,1.8-0.3,2.5-0.8c0.8-0.5,1.4-1.3,1.7-2.1c0.7,0.6,1.3,1.3,1.8,1.9c-0.4,0-0.7,0-1.1,0.1
	c-1.8,0.2-3.4,1.6-3.8,3.4l0.1,0.6c0.8,1.3,2.2,2,3.7,2c0.3,0,0.7,0,1-0.1c1.1-0.2,2-0.7,2.8-1.4c0.4,1,0.8,2,1.1,3.1
	c-0.8-0.4-1.7-0.6-2.6-0.6c-1.4,0-2.8,0.6-3.6,1.8L38,19.9c0.2,2,1.7,3.6,3.7,3.9c0.5,0.1,1,0.2,1.5,0.2c0.7,0,1.5-0.2,2.1-0.5
	c0.1,0.9,0.1,1.8,0.1,2.7l0,0l-0.5-0.5c-1-0.9-2.2-1.3-3.5-1.4c-0.8,0-1.5,0.2-2.2,0.6l-0.4,0.4c-0.6,2,0.1,4.2,1.8,5.4
	c1,0.9,2.2,1.3,3.5,1.4h0.4c-0.4,1.2-0.9,2.4-1.5,3.6c-0.1-0.4-0.2-0.8-0.4-1.1c-0.8-2-2.6-3.3-4.7-3.3h-0.3L37,31.6
	c-1.5,1.6-1.8,4.1-0.7,6c0.6,1.4,1.7,2.5,3.1,3c-0.9,0.9-1.9,1.7-2.9,2.5c0.1-0.4,0.1-0.9,0.1-1.3c0.2-2.3-1.2-4.5-3.3-5.4h-0.6
	c-2.2,0.9-3.5,3.1-3.3,5.4c-0.1,1.7,0.6,3.3,1.8,4.5c-0.8,0.4-1.6,0.7-2.4,1c-0.5,0.2-0.7,0.7-0.6,1.2c0.1,0.4,0.5,0.6,0.8,0.6h0.3
	c0.9-0.3,1.9-0.7,2.8-1.2c0.4,1.7,1.5,3.1,3,3.9c1,0.6,2,0.9,3.2,0.9c1.2,0,2.3-0.4,3.2-1.1l0.3-0.5c0.3-2.3-0.9-4.6-3-5.6
	c-0.5-0.3-1-0.5-1.5-0.7c1.4-1,2.6-2.1,3.8-3.3c1,1.4,2.5,2.2,4.2,2.3h0.6c2,0.1,3.8-1,4.7-2.7v-0.6C50,38.5,48,37,45.8,37
	c-0.4,0-0.9,0-1.3,0c0.8-1.4,1.4-2.9,1.9-4.4c0.7,0.4,1.5,0.6,2.3,0.6c0.7,0,1.4-0.1,2-0.4c2-0.6,3.5-2.4,3.8-4.5L54.2,27.5z
	 M36.1,9.4c-0.4,0.3-0.9,0.5-1.5,0.5l-0.7-0.1c0-0.8,0.4-1.5,1.1-1.9c0.6-0.5,1.3-0.6,2.1-0.4h0.1C37.2,8.3,36.7,9,36.1,9.4
	 M38.1,5.8l-0.7-0.5c-0.3-0.4-0.5-0.9-0.5-1.4c-0.5-0.5-0.5-1.2-0.1-1.7c0.5-0.5,1.2-0.5,1.7-0.1c0.4,0.4,0.5,1.1,0.1,1.6
	C38.8,4.5,38.6,5.3,38.1,5.8 M40.2,14.8l-0.7,0.1c-0.7,0-1.4-0.3-1.9-0.8c0.4-0.9,1.2-1.4,2.2-1.5c0.9-0.2,1.8,0,2.4,0.6l0.1,0.1
	l0,0.1C42,14.1,41.1,14.7,40.2,14.8 M43.8,12.1l-0.5-0.8c-0.2-0.6-0.1-1.3,0.1-1.9c0.7-0.4,1.6-0.2,2,0.5c0.4,0.7,0.2,1.6-0.5,2
	C44.6,12.2,44.2,12.2,43.8,12.1 M43.2,22.3c-0.4,0-0.7-0.1-1-0.2c-1.1-0.2-1.9-1-2.3-2c0.5-0.5,1.2-0.7,1.9-0.7c0.4,0,0.7,0.1,1,0.2
	c1,0.2,1.8,0.8,2.2,1.7l0.1,0.1v0.1C44.6,22,43.9,22.2,43.2,22.3 M33.3,45l-0.1,0.1L33,45.3c-1.2-0.7-2-2.1-1.8-3.6
	c-0.7-1-0.5-2.4,0.5-3.1c1-0.7,2.4-0.5,3.1,0.5c0.6,0.8,0.6,1.8,0,2.6C34.9,43,34.3,44.2,33.3,45 M37.8,47c1.3,0.6,2.1,1.9,2.2,3.3
	c-0.5,0.3-1.1,0.5-1.7,0.5c-0.8,0-1.6-0.2-2.3-0.7c-1.3-0.6-2.1-1.8-2.2-3.2l0.7-0.4C35.7,46.2,36.8,46.4,37.8,47 M41,38.8L41,38.8
	l-0.3,0.3c-1.3-0.2-2.4-1-2.8-2.2c-0.6-1.1-0.6-2.5,0.1-3.6c1.3,0.1,2.4,1,2.9,2.3C41.5,36.5,41.5,37.7,41,38.8 M45.6,38.7
	c1.3,0,2.5,0.7,3.1,1.9c-0.7,0.9-1.8,1.4-2.9,1.4h-0.5c-1.3,0-2.5-0.7-3.1-1.9l0.4-0.5C43.5,38.9,44.6,38.6,45.6,38.7 M45,30.3
	c-0.3,0.1-0.6,0.2-0.9,0.2c-0.9,0-1.7-0.4-2.3-0.9c-1-0.7-1.5-1.8-1.3-3c0.3-0.1,0.6-0.2,0.9-0.2c0.9,0,1.7,0.4,2.3,0.9
	c0.9,0.6,1.4,1.6,1.4,2.7l0,0L45,30.3z M47.8,18.3c0.6-0.6,1.4-1,2.3-1l0.6,0.1c0.2,1.1-0.2,2.2-1,2.8c-0.6,0.6-1.4,1-2.3,1
	l-0.5-0.1l-0.1-0.8C46.8,19.5,47.1,18.8,47.8,18.3 M50,31c-0.5,0.2-0.9,0.3-1.4,0.3c-0.7,0-1.3-0.2-1.8-0.6l0.1-0.5
	c0.4-0.9,1.2-1.7,2.2-1.9c0.5-0.2,1-0.3,1.5-0.3c0.7,0,1.4,0.2,2,0.6C52.1,29.7,51.2,30.6,50,31"/>
<path class="st0" d="M25.7,47.3c-0.8-0.3-1.6-0.6-2.4-1c1.2-1.1,1.9-2.8,1.8-4.5c0.2-2.3-1.2-4.5-3.3-5.4h-0.6
	c-2.2,0.9-3.5,3.1-3.3,5.4c0,0.4,0,0.9,0.1,1.3c-1-0.8-2-1.6-2.9-2.5c1.4-0.5,2.5-1.6,3.1-3c1.1-1.9,0.8-4.4-0.7-6L17,31.3h-0.3
	c-2.1,0.1-4,1.4-4.7,3.3c-0.2,0.4-0.3,0.7-0.4,1.1c-0.6-1.1-1.1-2.3-1.5-3.6h0.4c1.3,0,2.5-0.5,3.5-1.4c1.7-1.2,2.4-3.4,1.8-5.4
	L15.3,25c-0.7-0.4-1.4-0.6-2.2-0.6c-1.3,0-2.5,0.5-3.5,1.4l-0.5,0.5l0,0c0-1,0-1.9,0.1-2.7c0.7,0.3,1.4,0.5,2.1,0.5
	c0.5,0,1-0.1,1.5-0.2c2-0.4,3.4-2,3.7-3.9l-0.2-0.6c-0.9-1.1-2.2-1.8-3.6-1.8c-0.5,0-1,0.1-1.5,0.2c-0.4,0.1-0.8,0.2-1.1,0.4
	c0.3-1.1,0.7-2.1,1.1-3.1c0.7,0.8,1.7,1.3,2.8,1.5c0.3,0.1,0.7,0.1,1,0.1c1.5,0,2.9-0.7,3.7-2l0.1-0.6c-0.4-1.8-1.9-3.2-3.7-3.4
	c-0.4-0.1-0.8-0.1-1.2-0.1c0.6-0.7,1.2-1.4,1.9-2c0.3,0.9,0.9,1.7,1.7,2.2c0.7,0.5,1.6,0.8,2.5,0.8c0.7,0,1.5-0.2,2.1-0.6l0.3-0.5
	c0.4-1.6-0.3-3.3-1.8-4.2l-0.8-0.4c0.5-0.2,0.9-0.4,1.4-0.6c0.5-0.1,0.8-0.6,0.6-1.1s-0.6-0.8-1.1-0.6c-0.4,0.1-0.8,0.3-1.2,0.4
	c0.2-1.6-0.6-3.2-2.1-4h-0.6c-1.6,0.5-2.7,2-2.8,3.7c-0.2,1.2,0.2,2.4,1,3.3c-0.4,0.3-0.8,0.7-1.1,1s-0.7,0.7-1.1,1.2l-0.1-0.3
	c-0.5-1.8-2.1-3-4-3.1l0,0L8.2,6c-1.4,1.3-1.8,3.2-1,4.9c0.4,1.3,1.4,2.3,2.7,2.8c-0.6,1.2-1,2.4-1.4,3.7L8,17
	c-0.9-1-2.2-1.6-3.5-1.6c-0.6,0-1.2,0.1-1.7,0.4l-0.4,0.4c-0.8,1.8-0.3,3.9,1.2,5.3c0.9,1,2.2,1.6,3.5,1.6h0.3
	c-0.1,1.1-0.2,2.2-0.2,3.4v0.8c-0.4-0.2-0.8-0.4-1.2-0.6c-0.7-0.3-1.4-0.4-2.1-0.4c-1.4,0-2.7,0.5-3.7,1.4L0,28.3
	c0.3,2.1,1.8,3.8,3.8,4.5c0.6,0.2,1.3,0.4,2,0.4c0.8,0,1.6-0.2,2.3-0.6c0.5,1.6,1.1,3,1.9,4.4c-0.4,0-0.9,0-1.3,0
	c-2.2,0-4.2,1.5-4.8,3.6l0,0.6c0.9,1.8,2.8,2.8,4.7,2.7h0.6c1.7-0.1,3.2-0.9,4.2-2.3c1.2,1.2,2.4,2.3,3.8,3.3
	c-0.5,0.2-1,0.4-1.5,0.7c-2.1,1-3.3,3.3-3,5.6l0.3,0.5c0.9,0.7,2,1.1,3.2,1.1c1.1,0,2.2-0.3,3.2-0.9c1.5-0.8,2.6-2.2,3-3.9
	c0.9,0.4,1.8,0.8,2.8,1.2h0.3c0.5,0,0.9-0.4,0.9-0.9C26.3,47.8,26.1,47.4,25.7,47.3 M19.5,7.9c0.7,0.4,1.1,1.1,1.1,1.9l-0.7,0.1
	c-0.5,0-1.1-0.2-1.5-0.5c-0.7-0.4-1.1-1.1-1.1-1.9h0.1C18.1,7.3,18.9,7.5,19.5,7.9 M15.8,3.9c-0.4-0.5-0.3-1.3,0.2-1.7
	c0.5-0.4,1.3-0.3,1.7,0.2c0.4,0.5,0.3,1.2-0.1,1.6c0,0.5-0.2,1-0.5,1.4l-0.7,0.5C15.9,5.3,15.7,4.6,15.8,3.9 M12.3,13.2
	c0.7-0.6,1.6-0.8,2.4-0.6c0.9,0.1,1.8,0.7,2.2,1.5c-0.5,0.5-1.2,0.8-1.9,0.8l-0.7-0.1c-1-0.1-1.8-0.7-2.2-1.6L12.3,13.2z M8.9,10.3
	C8.2,9.9,8,9,8.4,8.3c0.4-0.7,1.3-0.9,2-0.5C11,8.2,11.3,8.9,11,9.5c0.2,0.6,0.3,1.2,0.1,1.9l-0.5,0.8C9.8,11.9,9.2,11.2,8.9,10.3
	 M9.4,21.5l0.1-0.1c0.4-0.9,1.2-1.5,2.2-1.7c0.3-0.1,0.7-0.1,1-0.2c0.7,0,1.4,0.2,1.9,0.7c-0.3,1-1.2,1.8-2.3,2
	c-0.3,0.1-0.7,0.1-1,0.2c-0.7,0-1.4-0.2-1.9-0.7L9.4,21.5z M5.9,31.3c-0.5,0-1-0.1-1.4-0.3c-1.2-0.4-2.1-1.3-2.5-2.5
	c0.6-0.4,1.3-0.6,2-0.6c0.5,0,1,0.1,1.5,0.3c1,0.3,1.8,1,2.2,1.9l0.1,0.5C7.2,31.1,6.5,31.3,5.9,31.3 M7.6,21.2l-0.5,0.1
	c-0.9,0-1.7-0.4-2.3-1c-0.8-0.7-1.2-1.8-1-2.8l0.6-0.1c0.9,0,1.7,0.4,2.3,1.1c0.6,0.5,0.9,1.3,1,2.1L7.6,21.2z M9.4,30L9.4,30
	c0-1.1,0.5-2.1,1.4-2.7c0.6-0.6,1.4-0.9,2.3-0.9c0.3,0,0.6,0.1,0.9,0.2c0.1,1.2-0.4,2.3-1.3,3c-0.6,0.6-1.4,0.9-2.3,0.9
	c-0.3,0-0.6,0-0.9-0.2L9.4,30z M9.2,42c-1.3,0.2-2.6-0.3-3.4-1.4c0.6-1.2,1.8-1.9,3.1-1.9c1.1-0.2,2.2,0.2,3,0.9l0.4,0.5
	C11.7,41.3,10.5,42,9.2,42 M13.8,39.1l-0.3-0.3l0,0c-0.5-1-0.5-2.3,0.1-3.3c0.5-1.2,1.6-2.1,2.9-2.3c0.7,1.1,0.8,2.5,0.1,3.6
	C16.1,38.1,15.1,38.9,13.8,39.1 M18.6,50.2c-0.7,0.4-1.5,0.6-2.3,0.7c-0.6,0-1.2-0.2-1.7-0.5c0-1.4,0.9-2.7,2.2-3.3
	c1-0.6,2.1-0.8,3.2-0.5l0.7,0.4C20.6,48.4,19.8,49.6,18.6,50.2 M21.5,45.4l-0.3-0.2l-0.1-0.1c-1-0.8-1.5-2-1.4-3.3
	c0.7-1,2.1-1.2,3.1-0.5c1,0.7,1.2,2.1,0.5,3.1C23,45,22.3,45.4,21.5,45.4"/>
</svg>
