<?xml version="1.0" encoding="utf-8"?>
<!-- Generator: Adobe Illustrator 23.0.3, SVG Export Plug-In . SVG Version: 6.00 Build 0)  -->
<svg version="1.1" id="Layer_1" xmlns="http://www.w3.org/2000/svg" xmlns:xlink="http://www.w3.org/1999/xlink" x="0px" y="0px"
	 viewBox="0 0 53.8 67.2" style="enable-background:new 0 0 53.8 67.2;" xml:space="preserve">
<style type="text/css">
	.st0{fill:#FF7E02;}
</style>
<title>about-entrepreneur</title>
<path class="st0" d="M13.7,43.9c2,0,3.8-1.4,4.3-3.3l2.3,2.3c1.8,1.8,4.6,1.8,6.3,0c1.8-1.8,1.8-4.6,0-6.3l0,0l-2-2
	c2.4-0.6,3.8-3.1,3.2-5.5c-0.2-0.8-0.6-1.4-1.2-2l-2.8-2.8c2.4-0.6,3.8-3.1,3.2-5.5c-0.2-0.8-0.6-1.5-1.2-2l-8-7.9V1.2
	c0-0.6-0.5-1.1-1.1-1.1s-1.1,0.5-1.1,1.1v6c-1.7-0.6-3.6-0.3-4.9,1c-1.4,1.4-1.7,3.4-0.8,5.2c-0.9,0.1-1.7,0.6-2.3,1.2
	c1.1,2.2,0.2,4.9-2,6c-0.4,0.2-0.7,0.3-1.1,0.4c1.1,2.2,0.2,4.9-2,6c-0.4,0.2-0.7,0.3-1.1,0.4c-1.8,1.7-1.8,4.6,0,6.3c0,0,0,0,0,0
	l9.2,9.2c0.8,0.8,2,1.3,3.2,1.3 M12.4,9.8c0.9-0.9,2.3-0.9,3.2,0l0.4,0.4l8.3,8.3c0.9,0.9,0.9,2.3,0,3.2c0,0,0,0,0,0
	c-0.9,0.8-2.3,0.8-3.2,0l-8.7-8.7C11.5,12,11.5,10.6,12.4,9.8 M9.2,16.1c0.9-0.9,2.3-0.9,3.2,0c0,0,0,0,0,0l12.7,12.7
	c0.9,0.9,0.9,2.3,0,3.2c-0.9,0.8-2.3,0.8-3.2,0L10.8,20.8l-1.6-1.6C8.3,18.4,8.3,17,9.2,16.1 M6,22.4c0.9-0.9,2.3-0.9,3.2,0
	c0,0,0,0,0,0l6.2,6.2l9.7,9.7c0.9,0.9,0.9,2.3,0,3.2c0,0,0,0,0,0c-0.9,0.8-2.3,0.8-3.2,0l-5.1-5.1l0,0l-4.6-4.6L6,25.6
	C5.2,24.7,5.2,23.3,6,22.4 M2.2,30.4c0-1.2,1-2.2,2.2-2.2c0.6,0,1.2,0.2,1.6,0.7l0.7,0.7l8.5,8.5c0.9,0.9,0.9,2.3,0,3.2
	c-0.9,0.8-2.3,0.8-3.2,0l-9.2-9.2C2.5,31.5,2.2,30.9,2.2,30.4"/>
<path class="st0" d="M49.3,28c0,0.6,0.5,1.1,1.1,1.1s1.1-0.5,1.1-1.1l0,0c0-5.7-1.9-11.2-5.4-15.7c-0.6-0.7-1-1.4-1.3-2.2v-9
	c0-0.6-0.5-1.1-1.1-1.1s-1.1,0.5-1.1,1.1v9c0,1,0.7,2.1,1.7,3.5C47.6,17.7,49.3,22.8,49.3,28"/>
<path class="st0" d="M16.8,62.8c-0.6,0-1.1,0.5-1.1,1.1v0v2.2c0,0.6,0.5,1.1,1.1,1.1s1.1-0.5,1.1-1.1l0,0v-2.2
	C17.9,63.3,17.4,62.8,16.8,62.8L16.8,62.8"/>
<path class="st0" d="M46.5,29.3c-2.6-1.8-10.9-6.6-11.3-6.8c-0.8-0.4-1.6-0.3-2.3,0.2c-1.6,1-2.6,3.8-2.6,5.3c0,2.2,1.5,3.5,3.1,4.8
	c0.6,0.5,1.1,1,1.7,1.6l5.6,5.6c0.3,0.3,0.5,0.5,0.8,0.8v0.5c-1.2,1.8-2.6,3.4-4.1,4.9L24.9,57.5c-0.4,0.4-0.9,0.7-1.5,0.8H13.4
	c-1.2,0-2.2-1-2.2-2.2c0-1.2,1-2.2,2.2-2.2h7.8c1.1-0.1,2.2-0.6,3-1.4l7.8-7.8c0.4-0.5,0.4-1.2-0.1-1.6c-0.4-0.4-1-0.4-1.5,0
	l-7.8,7.8c-0.4,0.4-0.9,0.7-1.5,0.8H10c-1.2,0-2.2-1-2.2-2.2c0-1.2,1-2.2,2.2-2.2c0,0,0,0,0,0h9c0.6,0,1.1-0.5,1.1-1.1
	s-0.5-1.1-1.1-1.1c0,0,0,0,0,0H6.7c-1.2,0-2.2-1-2.2-2.2c0-0.6,0.2-1.1,0.6-1.5c0.4-0.5,0.3-1.2-0.2-1.6c-0.5-0.4-1.1-0.3-1.5,0.1
	C6.2,42,7.1,46,5.6,49.3c0,2.3,1.7,4.2,4,4.4c-0.4,0.7-0.6,1.5-0.7,2.3c0,2.5,2,4.5,4.5,4.5h10.1c1.1-0.1,2.2-0.6,3-1.4l12.4-11.2
	c4.8-4.8,4.8-6,4.8-6.4c0-1.5-0.2-1.8-1.5-3l-5.6-5.6c-0.6-0.6-1.3-1.2-1.8-1.7c-1.5-1.3-2.3-2.1-2.3-3.2c0-1.4,1.2-3.5,1.7-3.5
	c0.1,0,8.6,5,11.1,6.7c4,2.4,6.4,6.7,6.2,11.4c0,4.8-3.8,11.3-6.3,15.6c-1.8,3.1-2.7,4.6-2.7,5.6v2.2c0,0.6,0.5,1.1,1.1,1.1
	s1.1-0.5,1.1-1.1l0,0v-2.2c0.6-1.6,1.4-3.1,2.3-4.5c2.8-4.8,6.6-11.4,6.6-16.8C53.9,37.2,51.2,32.1,46.5,29.3"/>
</svg>
