<svg xmlns="http://www.w3.org/2000/svg" width="81.345" height="73.211" viewBox="0 0 81.345 73.211"><defs><style>.a{fill:#ff7e02;}</style></defs><g transform="translate(-538.782 -5746.222)"><path class="a" d="M616.06,5757.068h-4.585l-2.329-4.673a1.358,1.358,0,0,0-1.221-.75H581.647l-1.591-3.167a4.048,4.048,0,0,0-3.638-2.256H542.849a4.067,4.067,0,0,0-4.067,4.068v56.941a4.066,4.066,0,0,0,4.067,4.067H590.3v4.068a4.067,4.067,0,0,0,4.067,4.067h16.269a4.067,4.067,0,0,0,4.067-4.067V5811.3h1.356a4.066,4.066,0,0,0,4.067-4.067v-46.095A4.068,4.068,0,0,0,616.06,5757.068Zm-7.617,0H597.917l-1.356-2.711h10.526Zm-14.913-2.711,1.356,2.711H585.2a1.353,1.353,0,0,1-1.22-.757l-.976-1.954Zm-50.681-5.423h33.569a1.357,1.357,0,0,1,1.22.758l3.931,7.832a4.046,4.046,0,0,0,3.634,2.256H616.06a1.356,1.356,0,0,1,1.356,1.356v1.355H541.493v-12.2A1.356,1.356,0,0,1,542.849,5748.934Zm69.144,66.432a1.355,1.355,0,0,1-1.356,1.355H594.368a1.355,1.355,0,0,1-1.356-1.355v-27.115a1.356,1.356,0,0,1,1.356-1.356h16.269a1.356,1.356,0,0,1,1.356,1.356Zm-6.779-31.183h-5.423v-2.711h5.423Zm10.846,24.4H614.7v-20.336a4.067,4.067,0,0,0-4.067-4.068h-2.712v-4.067a1.356,1.356,0,0,0-1.355-1.356h-8.135a1.356,1.356,0,0,0-1.356,1.356v4.067h-2.711a4.067,4.067,0,0,0-4.067,4.068v20.336H542.849a1.356,1.356,0,0,1-1.356-1.356V5765.2h75.923v42.028A1.356,1.356,0,0,1,616.06,5808.587Z"/><path class="a" d="M562.983,5779.4a1.354,1.354,0,0,0-1.153-.644h-6.779v-9.49a1.356,1.356,0,0,0-2.569-.606l-8.135,16.269a1.356,1.356,0,0,0,1.214,1.962h6.778v9.49a1.356,1.356,0,0,0,1.046,1.321,1.413,1.413,0,0,0,.31.035,1.357,1.357,0,0,0,1.214-.75l8.134-16.269A1.355,1.355,0,0,0,562.983,5779.4Zm-7.932,11.238v-5.1a1.356,1.356,0,0,0-1.356-1.356h-5.941l4.585-9.17v5.1a1.356,1.356,0,0,0,1.356,1.356h5.941Z"/><path class="a" d="M545.561,5759.78h5.423a1.356,1.356,0,0,0,1.355-1.356V5753a1.356,1.356,0,0,0-1.355-1.356h-5.423a1.356,1.356,0,0,0-1.356,1.356v5.423A1.356,1.356,0,0,0,545.561,5759.78Zm1.355-5.423h2.712v2.711h-2.712Z"/><path class="a" d="M556.407,5759.78h5.423a1.356,1.356,0,0,0,1.355-1.356V5753a1.356,1.356,0,0,0-1.355-1.356h-5.423a1.356,1.356,0,0,0-1.356,1.356v5.423A1.356,1.356,0,0,0,556.407,5759.78Zm1.355-5.423h2.712v2.711h-2.712Z"/><path class="a" d="M567.253,5759.78h5.423a1.356,1.356,0,0,0,1.356-1.356V5753a1.356,1.356,0,0,0-1.356-1.356h-5.423A1.356,1.356,0,0,0,565.9,5753v5.423A1.356,1.356,0,0,0,567.253,5759.78Zm1.355-5.423h2.712v2.711h-2.712Z"/><path class="a" d="M609.281,5807.231H595.724a1.356,1.356,0,0,0-1.356,1.356v5.423a1.356,1.356,0,0,0,1.356,1.356h13.557a1.356,1.356,0,0,0,1.356-1.356v-5.423A1.356,1.356,0,0,0,609.281,5807.231Zm-1.356,5.423H597.079v-2.711h10.846Z"/><path class="a" d="M609.281,5797.741H595.724a1.356,1.356,0,0,0-1.356,1.356v5.423a1.356,1.356,0,0,0,1.356,1.355h13.557a1.356,1.356,0,0,0,1.356-1.355V5799.1A1.356,1.356,0,0,0,609.281,5797.741Zm-1.356,5.423H597.079v-2.712h10.846Z"/><path class="a" d="M609.281,5788.251H595.724a1.356,1.356,0,0,0-1.356,1.355v5.423a1.356,1.356,0,0,0,1.356,1.356h13.557a1.356,1.356,0,0,0,1.356-1.356v-5.423A1.356,1.356,0,0,0,609.281,5788.251Zm-1.356,5.423H597.079v-2.712h10.846Z"/><rect class="a" width="2.712" height="2.712" transform="translate(557.762 5767.915)"/><path class="a" d="M602.5,5767.914H563.185v2.712h37.962v5.423h2.711v-6.779A1.356,1.356,0,0,0,602.5,5767.914Z"/><rect class="a" width="2.712" height="2.712" transform="translate(557.762 5795.029)"/><path class="a" d="M560.474,5800.452h-2.712v4.068a1.356,1.356,0,0,0,1.356,1.355h28.471v-2.711H560.474Z"/></g></svg>