<svg xmlns="http://www.w3.org/2000/svg" width="34.244" height="50.485" viewBox="0 0 34.244 50.485"><defs><style>.a{fill:none;stroke:#ff7e02;stroke-linejoin:round;stroke-width:2px;}</style></defs><g transform="translate(-764.574 -2832.638)"><path class="a" d="M769.707,2837.586c-1.292.385-2.649-.021-3.929.248a2.525,2.525,0,0,0-.17,1.559q-.016,20.211-.009,40.42c0,2.3,0,2.3,2.3,2.3q10.434,0,20.867.009a2.907,2.907,0,0,0,2.166-.8c2.311-2.078,4.346-4.421,6.566-6.58a1.117,1.117,0,0,0,.3-1.01q.015-17.416.023-34.834c0-.76-.25-1.132-1-1.148-.384-.009-.767,0-1.151,0q-11.829,0-23.66-.007c-.657,0-1.314-.1-1.972-.157"/><path class="a" d="M772.664,2841.694a22.2,22.2,0,0,0-.1,5.909,2.675,2.675,0,0,0,3.062,2.652,2.645,2.645,0,0,0,2.461-2.975q.008-4.518,0-9.037c0-2.843-1.422-4.5-3.943-4.6-2.384-.092-4.167,1.434-4.249,4.437-.1,3.613-.062,7.23-.011,10.844a5.381,5.381,0,0,0,5.41,5.264,5.327,5.327,0,0,0,5.093-5.428q.006-3.369,0-6.737"/><path class="a" d="M793.367,2858.289h-23.66"/><path class="a" d="M793.367,2869.462h-23.66"/><path class="a" d="M796.325,2875.295c-1.676-.545-3.4-.057-5.285-.325-.1,1.94-.46,3.8.191,5.665"/><path class="a" d="M780.058,2872.584H769.542"/><path class="a" d="M793.531,2843.337h-9.2"/><path class="a" d="M793.531,2847.28h-9.2"/><path class="a" d="M793.531,2850.9h-9.2"/><path class="a" d="M793.531,2854.51h-9.2"/><path class="a" d="M770.035,2861.411c-.891.329-.422,1.088-.47,1.645-.082.927-.023,1.866-.023,2.873h10.434v-4.518H770.2"/><path class="a" d="M783.509,2861.411c-.891.329-.422,1.088-.471,1.645-.082.927-.022,1.866-.022,2.873h10.433v-4.518h-9.776"/></g></svg>