<svg xmlns="http://www.w3.org/2000/svg" width="72.167" height="72.167" viewBox="0 0 72.167 72.167"><defs><style>.a{fill:#ff7e02;}</style></defs><g transform="translate(-1015.232 -5525.273)"><path class="a" d="M1059.466,5547.512l.016.088-.016-.088Z"/><path class="a" d="M1062.561,5545.68v0Z"/><path class="a" d="M1059.449,5547.414l.017.1h0Z"/><path class="a" d="M1066.341,5538.485a1.784,1.784,0,0,0-1.426,2.857l-1.1,1.1-.182.182a4.219,4.219,0,0,1,.36.361,4.049,4.049,0,0,1,1.013,2.441h.511a4.556,4.556,0,0,0-1.163-2.8l.921-.922a1.784,1.784,0,1,0,1.065-3.216Zm0,3.06a1.273,1.273,0,0,1-.7-.209l.884-.884a.255.255,0,0,0-.361-.359l-.884.884a1.263,1.263,0,0,1-.215-.707,1.275,1.275,0,1,1,1.275,1.275Z"/><path class="a" d="M1061.193,5551.537v-1.276a4.567,4.567,0,0,0,2.8-1.164l-.18-.179-.181-.182a4.073,4.073,0,0,1-2.1.979l-.04.04c.013-.013.025-.027.039-.04-.112.016-.224.027-.337.034-.084.006-.17.009-.256.009s-.17,0-.254-.009c-.114-.007-.227-.018-.338-.034a4.058,4.058,0,0,1-2.1-.979l-.361.361a4.562,4.562,0,0,0,2.8,1.164v1.276a1.784,1.784,0,1,0,.51,0Zm-.256,3.04a1.274,1.274,0,0,1-.254-2.523v1.274a.255.255,0,0,0,.51,0v-1.274a1.274,1.274,0,0,1-.256,2.523Z"/><path class="a" d="M1057.881,5542.984a4.069,4.069,0,0,0-1.014,2.441h-.511a4.575,4.575,0,0,1,1.164-2.8l.179.179Z"/><path class="a" d="M1057.881,5548.375l-.182.182-.179.181a4.58,4.58,0,0,1-1.164-2.8h.511A4.067,4.067,0,0,0,1057.881,5548.375Z"/><path class="a" d="M1060.937,5541.346a.6.6,0,0,0-.125.014.5.5,0,0,0-.081.021c-.016.006-.033.012-.048.02v-.047C1060.767,5541.349,1060.852,5541.346,1060.937,5541.346Z"/><path class="a" d="M1056.867,5545.425h-1.8a1.782,1.782,0,1,0,0,.51h1.8c0-.084-.007-.17-.007-.256S1056.863,5545.51,1056.867,5545.425Zm-3.576.51h1.258a1.278,1.278,0,1,1,0-.51h-1.262a.255.255,0,1,0,0,.51Z"/><path class="a" d="M1058.242,5548.736a3.965,3.965,0,0,1-.361-.361l-.182.182-.179.181-.922.921a1.767,1.767,0,0,0-1.069-.356,1.782,1.782,0,1,0,1.43.715Zm-2.713,3.625a1.274,1.274,0,1,1,.7-2.336l-.883.882a.254.254,0,0,0,.179.435.258.258,0,0,0,.181-.074l.882-.883a1.273,1.273,0,0,1-1.063,1.976Z"/><path class="a" d="M1065.518,5545.935a4.561,4.561,0,0,1-1.163,2.8l-.179-.181-.182-.182a4.048,4.048,0,0,0,1.013-2.44Z"/><path class="a" d="M1068.573,5543.883a1.787,1.787,0,0,0-1.768,1.542h-1.8c.006.085.009.169.009.254s0,.172-.009.256h1.8a1.785,1.785,0,1,0,1.765-2.052Zm0,3.059a1.277,1.277,0,0,1-1.246-1.007h1.258a.255.255,0,0,0,0-.51h-1.264a1.275,1.275,0,1,1,1.252,1.517Z"/><path class="a" d="M1066.341,5549.292a1.77,1.77,0,0,0-1.072.36l-.914-.914-.179-.181-.182-.182a4.219,4.219,0,0,1-.36.361l.181.182.18.179.914.915a1.784,1.784,0,1,0,1.432-.72Zm0,3.06a1.274,1.274,0,0,1-1.065-1.974l.889.89a.254.254,0,0,0,.18.074.26.26,0,0,0,.181-.074.256.256,0,0,0,0-.361l-.892-.89a1.275,1.275,0,1,1,.707,2.335Z"/><path class="a" d="M1061.531,5549.715l-.04.04c.013-.013.025-.027.039-.04Z"/><path class="a" d="M1062.566,5545.935h-.008v-.007c-.051-.05-.1-.1-.159-.145a2.309,2.309,0,0,0,.162-.21c.032-.048.062-.1.089-.148a1.933,1.933,0,0,0,.237-.932,2.029,2.029,0,0,0-.034-.368,1.951,1.951,0,0,0-.187-.534,1.979,1.979,0,0,0-.445-.565,1.953,1.953,0,0,0-1.284-.483,1.908,1.908,0,0,0-.254.017,1.948,1.948,0,0,0-1.458,2.865,1.64,1.64,0,0,0,.09.148,1.872,1.872,0,0,0,.161.21c-.056.045-.108.095-.16.145v.007h-.006a2.275,2.275,0,0,0-.663,1.609v1.018a.255.255,0,0,0,.256.255h4.068a.255.255,0,0,0,.256-.255v-1.018A2.278,2.278,0,0,0,1062.566,5545.935Zm-2.973-1.959a1.449,1.449,0,0,1,1.09-.9,1.408,1.408,0,0,1,.254-.022,1.429,1.429,0,0,1,.256.022,1.447,1.447,0,0,1,1.088.9,1.422,1.422,0,0,1,.1.517c0,.038,0,.074-.005.111a1.443,1.443,0,0,1-.523,1l-.008.006-.06.045-.012.009-.061.041a.079.079,0,0,1-.02.012c-.021.014-.044.026-.065.038l-.013.007a1.571,1.571,0,0,1-.155.072.493.493,0,0,1-.065.023,1.138,1.138,0,0,1-.131.037l-.067.014v.024h-.51v-.024l-.067-.014a1.109,1.109,0,0,1-.133-.037.481.481,0,0,1-.064-.023,1.541,1.541,0,0,1-.158-.073l-.008-.005c-.024-.012-.046-.025-.069-.039l-.015-.01c-.023-.014-.044-.029-.066-.044l0,0a1.4,1.4,0,0,1-.261-.239,1.436,1.436,0,0,1-.339-.821c0-.037,0-.073,0-.111A1.421,1.421,0,0,1,1059.593,5543.976Zm3.124,3.568v.762h-3.558v-.762a1.848,1.848,0,0,1,.076-.523,1.805,1.805,0,0,1,.632-.9l.033.021h0c.033.021.067.041.1.059l.024.013.01.005.036.019.036.017c.011.006.021.009.032.015.033.015.068.028.1.042h.005c.019.008.039.015.06.023l.01,0c.062.021.127.039.19.054l.012,0,.052.01.005,0a.144.144,0,0,1,.028.006.41.41,0,0,1,.05.007.149.149,0,0,0,.03,0,.28.28,0,0,0,.047.006.137.137,0,0,0,.028,0c.021,0,.044,0,.065.006h.024l.09,0,.09,0h.025c.022,0,.043,0,.064-.006a.149.149,0,0,0,.03,0,.347.347,0,0,0,.047-.006.135.135,0,0,0,.028,0l.05-.009.03,0,.005,0,.051-.01.012,0c.064-.015.128-.033.189-.054l.011,0,.061-.023h0c.036-.013.071-.028.107-.045l.028-.012.036-.019.036-.018.011-.005.024-.013a1.1,1.1,0,0,0,.1-.059h0l.033-.021a1.769,1.769,0,0,1,.506.594,1.947,1.947,0,0,1,.125.3A1.782,1.782,0,0,1,1062.717,5547.544Z"/><path class="a" d="M1060.718,5545.917l-.035-.007h0Z"/><path class="a" d="M1060.826,5545.929l-.031,0,.031,0Z"/><path class="a" d="M1061.192,5545.91l-.034.007.034-.006Z"/><path class="a" d="M1061.079,5545.926l-.03,0h0Z"/><path class="a" d="M1060.937,5545.933h0Z"/><path class="a" d="M1061.049,5545.929l-.026,0,.026,0Z"/><path class="a" d="M1060.852,5545.931l-.026,0h0Z"/><path class="a" d="M1059.317,5545.928v.007h-.006Z"/><path class="a" d="M1062.566,5545.935h-.008v-.007Z"/><path class="a" d="M1060.683,5546.425v0l-.03,0A.149.149,0,0,0,1060.683,5546.425Z"/><path class="a" d="M1061.221,5546.422l-.028,0v0A.135.135,0,0,0,1061.221,5546.422Z"/><path class="a" d="M1061.193,5546.425v0l-.047,0A.347.347,0,0,0,1061.193,5546.425Z"/><path class="a" d="M1060.73,5546.431l-.047,0v0A.28.28,0,0,0,1060.73,5546.431Z"/><path class="a" d="M1060.938,5545.933h0Z"/><path class="a" d="M1060.832,5545.935h-.149v-.024l.035.006h0l.065.008h.012l.03,0Z"/><path class="a" d="M1061.193,5545.911v.024h-.151l.007-.006.03,0h.013l.063-.008h0C1061.169,5545.915,1061.181,5545.912,1061.193,5545.911Z"/><path class="a" d="M1061.049,5545.929l-.007.006h-.21l-.006-.006.026,0h.016l.069,0,.071,0h.015Z"/><path class="a" d="M1061.193,5541.1v-1.3a1.785,1.785,0,1,0-.51,0v1.3a4.565,4.565,0,0,0-2.8,1.164l-.922-.922a1.782,1.782,0,1,0-.361.361l1.1,1.1.182.182a3.965,3.965,0,0,1,.361-.361,4.062,4.062,0,0,1,2.1-.979c.111-.015.224-.027.338-.034.084,0,.169-.008.254-.008s.172,0,.256.008c.113.007.225.019.337.034h0a4.077,4.077,0,0,1,2.1.979l.182-.182.179-.179A4.57,4.57,0,0,0,1061.193,5541.1Zm-4.6-.123-.882-.882a.254.254,0,0,0-.36.359l.883.882a1.274,1.274,0,1,1,.359-.359Zm4.22.385a.5.5,0,0,0-.081.021c-.016.006-.033.012-.048.02v-.047c.084,0,.169-.008.254-.008A.6.6,0,0,0,1060.812,5541.36Zm.125-3.583a.255.255,0,0,0-.254.256v1.248a1.274,1.274,0,1,1,.51,0v-1.248A.255.255,0,0,0,1060.937,5537.777Z"/><path class="a" d="M1082.467,5587.927a5.949,5.949,0,0,0,1.323-3.718v-2.4a6.014,6.014,0,1,0-12.027,0v2.4a5.942,5.942,0,0,0,1.323,3.718,4.147,4.147,0,0,1-7.458,0,5.949,5.949,0,0,0,1.323-3.718v-2.4a6.014,6.014,0,1,0-12.027,0v2.4a3.334,3.334,0,0,1-2.406,6.051,3.334,3.334,0,0,1-2.406-6.051v-2.4a6.014,6.014,0,1,0-12.027,0v2.4a5.949,5.949,0,0,0,1.323,3.718,6.015,6.015,0,0,0-4.932,5.9v3.609h2.406v-3.609a3.608,3.608,0,0,1,3.608-3.608h7.217a3.608,3.608,0,0,1,3.608,3.608v3.609h2.406v-3.609a3.608,3.608,0,0,1,3.608-3.608h7.217a3.608,3.608,0,0,1,3.608,3.608v3.609h2.406v-3.609a3.608,3.608,0,0,1,3.608-3.608h7.217a3.608,3.608,0,0,1,3.608,3.608v3.609h2.406v-3.609A6.015,6.015,0,0,0,1082.467,5587.927Zm-34.76-3.718a3.609,3.609,0,0,1-7.217,0v-2.4a3.609,3.609,0,1,1,7.217,0Zm16.839,0a3.609,3.609,0,0,1-7.217,0v-2.4a3.609,3.609,0,1,1,7.217,0Zm16.839,0a3.609,3.609,0,0,1-7.217,0v-2.4a3.609,3.609,0,1,1,7.217,0Z"/><path class="a" d="M1044.538,5549.412a1.218,1.218,0,0,0-.439-.084h-4.812a1.2,1.2,0,0,0-1.13.792l-1.275,3.506-.042-.114a6.375,6.375,0,0,0-5.972-4.184h-.031a5.952,5.952,0,0,0,1.234-3.608v-2.406a6.014,6.014,0,0,0-12.028,0v2.406a5.946,5.946,0,0,0,1.234,3.608h-.031a6.021,6.021,0,0,0-6.014,6.014v14.434a1.2,1.2,0,0,0,1.2,1.2h3.609v11.667l-2.2,3.3a1.2,1.2,0,0,0,1,1.87h14.433a1.2,1.2,0,0,0,1-1.87l-2.2-3.3v-22.209l.3.6a4.918,4.918,0,0,0,8.964-.373l1.953-4.882,1.925-4.811A1.2,1.2,0,0,0,1044.538,5549.412Zm-22.09-6.1a3.609,3.609,0,0,1,7.217,0v2.406a3.609,3.609,0,0,1-7.217,0Zm-2.4,25.259h-2.406v-2.406h2.406Zm7.217,16.839v-14.433h-2.406v14.433h-3.766l1.158-1.738a1.2,1.2,0,0,0,.2-.668v-14.433h7.217v14.433a1.218,1.218,0,0,0,.2.668l1.158,1.738Zm11.845-25.634a2.512,2.512,0,0,1-4.579.19l-2.576-5.163a1.2,1.2,0,0,0-2.285.537v10.825h-7.217v-10.825a1.2,1.2,0,0,0-2.4,0v8.42h-2.406v-8.42a3.608,3.608,0,0,1,3.609-3.608h3.608v12.028h2.406v-12.028h3.608a3.959,3.959,0,0,1,3.71,2.6l1.173,3.225a1.2,1.2,0,0,0,2.261,0l.368-1.013h2.018Zm2.255-5.638h-2.1l.874-2.406h2.193Z"/><path class="a" d="M1086.2,5532.489a1.2,1.2,0,0,0,1.2-1.2v-4.811a1.2,1.2,0,0,0-1.2-1.2h-50.517a1.2,1.2,0,0,0-1.2,1.2v4.811a1.2,1.2,0,0,0,1.2,1.2h1.2v14.434h2.405v-14.434h43.3v26.462H1044.1v2.4h15.636v5.317l-7.818,4.464,1.193,2.088,6.625-3.782v3.941h2.405v-3.941l6.616,3.782,1.193-2.088-7.809-4.464v-5.317H1087.4v-2.4h-2.406v-26.462Zm-49.314-2.4v-2.406h48.111v2.406Z"/></g></svg>