<svg xmlns="http://www.w3.org/2000/svg" width="72.686" height="72.686" viewBox="0 0 72.686 72.686"><defs><style>.a{fill:#ff7e02;}</style></defs><g transform="translate(-297.93 -5524.754)"><path class="a" d="M368.272,5574.208v-9.955a17.473,17.473,0,0,0-1.257-6.523,15.152,15.152,0,0,1-1.088-5.651V5537.65a3.517,3.517,0,1,0-7.034,0v14.429a15.153,15.153,0,0,1-1.088,5.652,17.452,17.452,0,0,0-1.257,6.522v9.74H354.2v-3.517a1.172,1.172,0,0,0-1.172-1.173H315.516a1.173,1.173,0,0,0-1.173,1.173v3.517H312v-9.74a17.453,17.453,0,0,0-1.257-6.523,15.152,15.152,0,0,1-1.088-5.651V5537.65a3.517,3.517,0,1,0-7.034,0v14.429a15.154,15.154,0,0,1-1.088,5.652,17.451,17.451,0,0,0-1.257,6.522v9.955a3.513,3.513,0,0,0-2.345,3.3v16.413a3.521,3.521,0,0,0,3.517,3.517H367.1a3.521,3.521,0,0,0,3.517-3.517V5577.51A3.512,3.512,0,0,0,368.272,5574.208Zm-9.379-9.955a15.132,15.132,0,0,1,1.088-5.652,17.47,17.47,0,0,0,1.256-6.522V5537.65a1.173,1.173,0,1,1,2.345,0v14.429a17.453,17.453,0,0,0,1.257,6.523,15.148,15.148,0,0,1,1.088,5.651v9.74h-7.034Zm-42.205,7.4h35.171v2.345H316.688Zm-12.98-13.046a17.48,17.48,0,0,0,1.256-6.523V5537.65a1.173,1.173,0,1,1,2.345,0v14.429a17.453,17.453,0,0,0,1.257,6.523,15.149,15.149,0,0,1,1.088,5.651v9.74H302.62v-9.74a15.148,15.148,0,0,1,1.088-5.651Zm64.564,35.321a1.175,1.175,0,0,1-1.173,1.172H301.447a1.174,1.174,0,0,1-1.172-1.172V5577.51a1.174,1.174,0,0,1,1.172-1.173H367.1a1.175,1.175,0,0,1,1.173,1.173Z"/><path class="a" d="M362.41,5578.682a3.517,3.517,0,1,0,3.517,3.517A3.521,3.521,0,0,0,362.41,5578.682Zm0,4.69a1.173,1.173,0,1,1,1.172-1.173A1.175,1.175,0,0,1,362.41,5583.372Z"/><path class="a" d="M353.031,5585.716a3.517,3.517,0,1,0-3.517-3.517A3.521,3.521,0,0,0,353.031,5585.716Zm0-4.689a1.173,1.173,0,1,1-1.172,1.172A1.174,1.174,0,0,1,353.031,5581.027Z"/><path class="a" d="M303.792,5585.716h4.689a1.172,1.172,0,0,0,1.173-1.172v-4.69a1.172,1.172,0,0,0-1.173-1.172h-4.689a1.172,1.172,0,0,0-1.172,1.172v4.69A1.172,1.172,0,0,0,303.792,5585.716Zm1.172-4.689h2.345v2.345h-2.345Z"/><path class="a" d="M313.171,5585.716h4.689a1.173,1.173,0,0,0,1.173-1.172v-4.69a1.173,1.173,0,0,0-1.173-1.172h-4.689a1.172,1.172,0,0,0-1.172,1.172v4.69A1.172,1.172,0,0,0,313.171,5585.716Zm1.172-4.689h2.345v2.345h-2.345Z"/><path class="a" d="M322.55,5585.716h4.689a1.173,1.173,0,0,0,1.173-1.172v-4.69a1.173,1.173,0,0,0-1.173-1.172H322.55a1.173,1.173,0,0,0-1.173,1.172v4.69A1.173,1.173,0,0,0,322.55,5585.716Zm1.172-4.689h2.345v2.345h-2.345Z"/><path class="a" d="M330.756,5542.339a3.517,3.517,0,1,0,3.517-3.517A3.521,3.521,0,0,0,330.756,5542.339Zm4.69,0a1.173,1.173,0,1,1-1.173-1.172A1.175,1.175,0,0,1,335.446,5542.339Z"/><path class="a" d="M341.651,5539.651l1.658-1.658-.2-.2a12.493,12.493,0,0,0-17.67,0l-.2.2,1.658,1.658.2-.2a10.149,10.149,0,0,1,14.354,0Z"/><path class="a" d="M346.826,5534.476a17.069,17.069,0,0,0-12.151-5.033h-.8a17.067,17.067,0,0,0-12.15,5.033l1.657,1.658a14.747,14.747,0,0,1,10.494-4.346h.806a14.741,14.741,0,0,1,10.492,4.346Z"/><path class="a" d="M333.184,5527.1h2.177a18.719,18.719,0,0,1,13.323,5.518l1.658-1.658a21.047,21.047,0,0,0-14.98-6.205h-2.177a21.047,21.047,0,0,0-14.98,6.205l1.658,1.658A18.714,18.714,0,0,1,333.184,5527.1Z"/><path class="a" d="M302.62,5590.406h63.307v2.344H302.62Z"/></g></svg>