<svg xmlns="http://www.w3.org/2000/svg" width="57.854" height="37.998" viewBox="0 0 57.854 37.998"><defs><style>.a{fill:#ff7e02;}</style></defs><g transform="translate(-248.61 -4275.574)"><g transform="translate(0 -555)"><path class="a" d="M306.433,4856.852a54.056,54.056,0,0,0-1.586-10.449,40.072,40.072,0,0,0-3.242-8.791c-5.045-8.863-10.521-7.494-17.079-5.765a46.792,46.792,0,0,1-6.629,1.3h-.721a46.82,46.82,0,0,1-6.629-1.3c-6.558-1.657-12.034-3.1-17.078,5.837a36.747,36.747,0,0,0-3.243,8.791,53.971,53.971,0,0,0-1.585,10.449c-.144,3.675.216,6.341,1.009,8.215a5.457,5.457,0,0,0,3.458,3.242,7.041,7.041,0,0,0,4.612-.5c2.811-1.153,6.053-3.6,9.224-6.558,2.234-2.161,6.413-3.242,10.593-3.242s8.359,1.081,10.592,3.242c3.171,2.955,6.414,5.405,9.224,6.558a7.535,7.535,0,0,0,4.612.5,5.384,5.384,0,0,0,3.459-3.314C306.216,4863.265,306.577,4860.6,306.433,4856.852Zm-3.459,7.206a2.857,2.857,0,0,1-1.73,1.8,4.975,4.975,0,0,1-2.954-.36,29.392,29.392,0,0,1-8.359-5.981c-2.738-2.738-7.566-4.107-12.394-4.107s-9.656,1.369-12.467,3.963c-2.954,2.738-5.909,5.044-8.359,5.981a4.47,4.47,0,0,1-2.954.36,2.856,2.856,0,0,1-1.729-1.8c-.577-1.37-.865-3.6-.721-6.918a49.666,49.666,0,0,1,1.513-9.944,34.393,34.393,0,0,1,3.027-8.143c3.963-7.134,8.575-5.981,14.051-4.54a42.222,42.222,0,0,0,7.062,1.369h1.081a41.7,41.7,0,0,0,7.134-1.369c5.476-1.369,10.088-2.594,14.052,4.54a33.234,33.234,0,0,1,3.026,8.143,54.493,54.493,0,0,1,1.513,9.944C303.91,4860.311,303.622,4862.544,302.974,4864.058Z"/></g><g transform="translate(0 -555)"><path class="a" d="M270.907,4842.8a4.377,4.377,0,0,0-2.594-1.225,4.1,4.1,0,0,0-1.153-2.522l-.072-.072a4.081,4.081,0,0,0-2.954-1.225,4.254,4.254,0,0,0-2.955,1.225,4.191,4.191,0,0,0-1.225,2.594,4.3,4.3,0,0,0-2.594,1.153l-.072.072a4.082,4.082,0,0,0-1.225,2.955,4.253,4.253,0,0,0,1.225,2.954,4.014,4.014,0,0,0,2.666,1.225,3.84,3.84,0,0,0,1.225,2.594,4.082,4.082,0,0,0,2.955,1.225,4.254,4.254,0,0,0,2.954-1.225,4.372,4.372,0,0,0,1.225-2.594,3.841,3.841,0,0,0,2.594-1.225,4.079,4.079,0,0,0,1.225-2.954A4.256,4.256,0,0,0,270.907,4842.8Zm-1.8,4.035a1.466,1.466,0,0,1-1.081.433h-1.009a1.368,1.368,0,0,0-1.369,1.369v.937a1.514,1.514,0,1,1-3.027,0v-1.009a1.368,1.368,0,0,0-1.369-1.369h-1.009a1.478,1.478,0,0,1-1.081-2.522l.072-.072a1.718,1.718,0,0,1,1.009-.361h1.009a1.368,1.368,0,0,0,1.369-1.369v-1.009a1.529,1.529,0,0,1,2.594-1.081l.072.073a1.715,1.715,0,0,1,.361,1.008v1.009a1.368,1.368,0,0,0,1.369,1.369h1.009a1.529,1.529,0,0,1,1.081,2.594Z"/></g><g transform="translate(0 -555)"><circle class="a" cx="2.522" cy="2.522" r="2.522" transform="translate(287.553 4838.116)"/></g><g transform="translate(0 -555)"><circle class="a" cx="2.522" cy="2.522" r="2.522" transform="translate(287.553 4848.349)"/></g><g transform="translate(0 -555)"><circle class="a" cx="2.522" cy="2.522" r="2.522" transform="translate(282.437 4843.232)"/></g><g transform="translate(0 -555)"><circle class="a" cx="2.522" cy="2.522" r="2.522" transform="translate(292.669 4843.232)"/></g></g></svg>