<svg xmlns="http://www.w3.org/2000/svg" xmlns:xlink="http://www.w3.org/1999/xlink" width="592" height="326.915" viewBox="0 0 592 326.915"><defs><style>.a,.al,.ar,.c{fill:none;}.a,.c{stroke:#f2b78b;}.a,.al,.c{stroke-linejoin:round;}.b{fill:#ffb583;}.c{stroke-width:2px;}.d{fill:#fff3ee;stroke:#f2aa8b;}.ar,.d{stroke-miterlimit:10;}.e{fill:#ff7d12;}.f{fill:#fff;}.g{fill:#333;}.h{clip-path:url(#a);}.i{fill:#757575;}.j{fill:#f2b78b;}.k{fill:#161616;opacity:0.55;}.ac,.k{mix-blend-mode:multiply;isolation:isolate;}.l{fill:#232323;}.m{fill:#e9f1ff;}.n{fill:#ffac06;}.o{fill:#ffcd2e;}.p{fill:#ffcc5a;}.q{fill:#ffead7;}.r{fill:#a5a5a5;}.s{fill:#ffceb6;}.t{fill:#1a1a1a;}.aj,.u{fill:#f2b18f;}.v{fill:#212237;}.w{fill:#ffd9c0;}.x{fill:#ffc088;}.y{fill:#ffaf5f;}.z{fill:#f78d37;}.aa{fill:#ffcda4;}.ab{fill:#f76400;}.ac{fill:#c7e2ff;}.ad{fill:#f0f8ff;}.ae{clip-path:url(#b);}.af{opacity:0.35;}.ag{fill:#ff5b00;}.ah{clip-path:url(#c);}.ai{fill:#202263;}.aj{fill-rule:evenodd;}.ak{fill:#22252d;}.al{stroke:#f76400;}.am{fill:#ffd19f;}.an{fill:#6486f2;}.ao{fill:#ff8f08;}.ap{fill:#ffd8bd;}.aq{fill:#ffc69f;}.ar{stroke:#1a1a1a;}</style><clipPath id="a"><circle class="a" cx="11.578" cy="11.578" r="11.578" transform="matrix(0.925, -0.381, 0.381, 0.925, 941.081, 4060.19)"/></clipPath><clipPath id="b"><path class="a" d="M1050.837,4195.813h-19.19l-3.267-12.4h19.189Z"/></clipPath><clipPath id="c"><path class="a" d="M1056.24,4202.589h-18.288l-3.114-11.818h18.287Z"/></clipPath></defs><g transform="translate(-680.5 -3414.615)"><path class="b" d="M1042.556,4011.393a6.417,6.417,0,0,1,2.631.564,4.791,4.791,0,0,1,9.251-2.487,10.841,10.841,0,1,1,21.473,2.525,7.462,7.462,0,1,1,5.671,12.308h-39.026a6.455,6.455,0,1,1,0-12.91Z" transform="translate(10 -528)"/><path class="a" d="M916.952,4193.392c-24.361-5.256-57.424,9.03-82.384,11.244-47.22,4.188-75.36-17.436-87.77-38.658-15.553-26.6-10.783-61.036,15.979-86.722,29.9-28.7,60.913-26.269,97.72-38.512,33.088-11.006,60.861-38.5,86.238-67.227,42.53-48.155,124.392-39.9,146.284,30.959,7.466,24.169,8.9,48.117,32.162,63.032,28.053,17.986,63.965,16.037,94.365,28,25.845,10.167,45.983,36.809,41.405,65.41-5.08,31.732-37.231,56.717-66.37,65.352-31.425,9.311-61.017,5.141-92.793,6.931" transform="translate(10 -528)"/><line class="c" y1="54.446" x2="6.967" transform="translate(921.401 3686.957)"/><line class="c" x1="6.968" y1="54.446" transform="translate(1003.253 3686.957)"/><rect class="d" width="175.588" height="234.488" transform="translate(878.017 3456.812)"/><rect class="d" width="215.208" height="156.309" transform="translate(1043.965 3466.452) rotate(90)"/><path class="a" d="M928.452,4099.988s13.426,35.129,3.6,38.958-19.643,30.993-19.643,30.993c-.011-.064-5.136-29.409-1.909-45.126C913.726,4109.08,928.452,4099.988,928.452,4099.988Z" transform="translate(10 -528)"/><path class="a" d="M983.936,4099.988s-13.426,35.129-3.6,38.958,19.644,30.993,19.644,30.993c.011-.064,5.135-29.409,1.908-45.126C998.662,4109.08,983.936,4099.988,983.936,4099.988Z" transform="translate(10 -528)"/><line class="a" y1="19.759" transform="translate(966.074 3485.101)"/><path class="a" d="M977.664,4139.712c1.295,24.1-21.467,38.718-21.467,38.718s-21.495-14.2-21.467-38.718C934.743,4128.6,977.069,4128.621,977.664,4139.712Z" transform="translate(10 -528)"/><path class="a" d="M956.274,4170.684c-5.246-4.584-15.191-15.212-15.529-30.145,1.575-1.166,6.923-2.936,15.221-2.936,8.707,0,14.232,1.915,15.731,3.135C972.155,4155.44,961.741,4166.114,956.274,4170.684Z" transform="translate(10 -528)"/><path class="a" d="M956.364,4162.236c-3.779-4.132-9.537-13.48-9.293-21.715a44.67,44.67,0,0,1,18.316.153C965.59,4149.07,960.309,4158.107,956.364,4162.236Z" transform="translate(10 -528)"/><path class="e" d="M983.739,4054.089c-9.025-20.511-27.537-29.412-27.537-29.412-3.279,1.379-18.528,8.9-27.553,29.412-10.9,24.781,1.336,88.481,1.336,88.481H982.4S994.643,4078.87,983.739,4054.089Z" transform="translate(10 -528)"/><path class="f" d="M928.639,4134.748H983.75c.2-1.268.42-2.666.646-4.177h-56.4C928.218,4132.082,928.436,4133.48,928.639,4134.748Z" transform="translate(10 -528)"/><circle class="g" cx="11.578" cy="11.578" r="11.578" transform="matrix(0.925, -0.381, 0.381, 0.925, 951.081, 3532.19)"/><g transform="translate(10 -528)"><g class="h"><rect class="f" width="2.768" height="28.868" transform="matrix(0.741, 0.672, -0.672, 0.741, 964.873, 4054.874)"/><rect class="f" width="1.78" height="28.868" transform="translate(967.963 4057.943) rotate(42.202)"/><rect class="f" width="1.78" height="28.868" transform="translate(962.25 4052.762) rotate(42.202)"/></g><circle class="a" cx="11.578" cy="11.578" r="11.578" transform="matrix(0.925, -0.381, 0.381, 0.925, 941.081, 4060.19)"/></g><path class="a" d="M956.194,4050.816a15.673,15.673,0,1,0,15.673,15.673A15.673,15.673,0,0,0,956.194,4050.816Zm0,27.251a11.578,11.578,0,1,1,11.578-11.578A11.578,11.578,0,0,1,956.194,4078.067Z" transform="translate(10 -528)"/><path class="g" d="M977.135,4042.8a63.721,63.721,0,0,0-20.931-18.123c-2.588,1.087-12.633,6.006-21.192,18.112Z" transform="translate(10 -528)"/><path class="f" d="M932.563,4046.547h47.151c-.175-.276-.35-.549-.528-.82H933.065Q932.813,4046.132,932.563,4046.547Z" transform="translate(10 -528)"/><path class="a" d="M956.194,4104.223c-11.1,1.849-3.567,58.08-.86,76.1a.861.861,0,0,0,1.72,0C959.761,4162.3,967.293,4106.072,956.194,4104.223Z" transform="translate(10 -528)"/><line class="a" x2="15.902" transform="translate(1008.854 3486.964)"/><line class="a" x2="25.345" transform="translate(1008.854 3489.871)"/><line class="a" x2="25.345" transform="translate(1008.854 3492.778)"/><line class="a" x2="25.345" transform="translate(1008.854 3495.684)"/><line class="a" x2="15.902" transform="translate(901.815 3505.089)"/><line class="a" x2="25.345" transform="translate(901.815 3507.996)"/><line class="a" x2="25.345" transform="translate(901.815 3510.902)"/><line class="a" x2="25.345" transform="translate(901.815 3513.809)"/><line class="a" x2="8.835" transform="translate(1025.434 3539.173)"/><line class="a" x2="25.345" transform="translate(1008.854 3542.08)"/><line class="a" x2="25.345" transform="translate(1008.854 3544.986)"/><line class="a" x2="25.345" transform="translate(1008.854 3547.893)"/><line class="a" x2="8.835" transform="translate(913.949 3654.762)"/><line class="a" x2="25.344" transform="translate(897.369 3657.668)"/><line class="a" x2="25.344" transform="translate(897.369 3660.575)"/><line class="a" x2="25.344" transform="translate(897.369 3663.482)"/><line class="a" x1="15.795" transform="translate(998.702 3650.777)"/><line class="a" x1="25.344" transform="translate(998.773 3653.685)"/><line class="a" x1="25.344" transform="translate(998.773 3656.591)"/><line class="a" x1="25.344" transform="translate(998.773 3659.498)"/><path class="a" d="M958.248,4035.6h17.043v-17.043h18.937" transform="translate(10 -528)"/><circle class="i" cx="0.967" cy="0.967" r="0.967" transform="translate(967.281 3506.635)"/><path class="a" d="M940.539,4066.489H902.416v-20.63" transform="translate(10 -528)"/><path class="i" d="M941.505,4066.522a.966.966,0,1,0-.966.967A.967.967,0,0,0,941.505,4066.522Z" transform="translate(10 -528)"/><path class="a" d="M917.919,4122.8h-22.8v55.629" transform="translate(10 -528)"/><path class="i" d="M918.886,4122.8a.967.967,0,1,0-.967.967A.967.967,0,0,0,918.886,4122.8Z" transform="translate(10 -528)"/><path class="a" d="M955.309,4121.889h21.336v56.541H986.1" transform="translate(10 -528)"/><path class="i" d="M956.276,4121.889a.967.967,0,1,0-.967.967A.967.967,0,0,0,956.276,4121.889Z" transform="translate(10 -528)"/><path class="a" d="M994.522,4118.242h15.5v-38.986" transform="translate(10 -528)"/><circle class="i" cx="0.967" cy="0.967" r="0.967" transform="translate(1003.556 3589.503)"/><path class="a" d="M1092.982,4098.435" transform="translate(10 -528)"/><line class="a" x2="11.24" transform="translate(1060.682 3443.879)"/><line class="a" x2="11.24" transform="translate(1109.57 3621.776)"/><line class="a" x2="6.693" transform="translate(1049.763 3443.879)"/><line class="a" x2="11.24" transform="translate(1229.91 3546.279)"/><line class="a" x2="6.693" transform="translate(1218.991 3546.279)"/><line class="a" x2="6.693" transform="translate(1119.78 3616.833)"/><line class="a" x2="11.24" transform="translate(769.093 3598.386)"/><line class="a" x2="6.693" transform="translate(758.174 3598.386)"/><path class="a" d="M737.362,4042.8a2.057,2.057,0,1,1-2.057-2.057A2.057,2.057,0,0,1,737.362,4042.8Z" transform="translate(10 -528)"/><path class="a" d="M907.29,3969.822a2.057,2.057,0,1,1-2.057-2.057A2.057,2.057,0,0,1,907.29,3969.822Z" transform="translate(10 -528)"/><path class="a" d="M1205.044,4056.964a2.056,2.056,0,1,1-2.057-2.057A2.056,2.056,0,0,1,1205.044,4056.964Z" transform="translate(10 -528)"/><path class="a" d="M1069.836,4127.179a2.057,2.057,0,1,1-2.057-2.057A2.057,2.057,0,0,1,1069.836,4127.179Z" transform="translate(10 -528)"/><line class="a" y2="5.772" transform="translate(796.169 3570.58)"/><line class="a" x1="5.772" transform="translate(793.283 3573.466)"/><line class="a" y2="5.772" transform="translate(824.504 3463.566)"/><line class="a" x1="5.772" transform="translate(821.618 3466.452)"/><line class="a" y2="5.772" transform="translate(1094.475 3508.016)"/><line class="a" x1="5.772" transform="translate(1091.589 3510.902)"/><line class="a" y2="5.772" transform="translate(1228.696 3647.544)"/><line class="a" x1="5.772" transform="translate(1225.81 3650.43)"/><path class="a" d="M785.928,4145.5a10.788,10.788,0,1,1-14.179-5.634A10.788,10.788,0,0,1,785.928,4145.5Z" transform="translate(10 -528)"/><path class="a" d="M778.336,4155.141c-8.564,3.695-18.477,5.74-19.98,2.255-1.18-2.735,4.051-6.789,6.931-8.685l-.05,1.562c-4.721,3.108-4.664,4.88-4.2,5.965.86,1.993,7.066,1.951,16.8-2.247s14.023-8.683,13.163-10.677c-.477-1.107-1.743-2.364-7.227-1.056l-1.136-.988c5.7-1.358,10.174-1.142,11.048.885C795.192,4145.64,786.9,4151.447,778.336,4155.141Z" transform="translate(10 -528)"/><circle class="a" cx="15.366" cy="15.366" r="15.366" transform="matrix(0.129, -0.992, 0.992, 0.129, 1134.968, 3501.863)"/><path class="a" d="M1139.774,4024.6c-12.739-3.768-25.45-10.569-23.917-15.753,1.2-4.068,10.624-3.734,15.5-3.181l-1.479,1.663c-8-.9-9.552,1.087-10.029,2.7-.878,2.966,5.952,8.578,20.428,12.859s23.261,3.287,24.138.321c.487-1.646.248-4.175-6.944-7.745l-.343-2.116c7.471,3.708,12.174,8.027,11.282,11.043C1166.88,4029.578,1152.513,4028.371,1139.774,4024.6Z" transform="translate(10 -528)"/><path class="a" d="M1094.557,4093.76l-13.938,7.707-8.806-1.06,13.938-7.707Z" transform="translate(10 -528)"/><path class="a" d="M1086.635,4079.147l-13.938,7.707-8.806-1.06,13.938-7.707Z" transform="translate(10 -528)"/><line class="a" x2="7.922" y2="14.612" transform="translate(1096.635 3551.147)"/><line class="a" x2="8.066" y2="14.483" transform="translate(1082.552 3558.984)"/><line class="a" x2="8.066" y2="14.483" transform="translate(1073.746 3557.923)"/><line class="a" x2="8.066" y2="14.483" transform="translate(1087.684 3550.217)"/><path class="a" d="M1214.763,4133.76l.317-9.719,7.521,6.164,9.342-2.7-3.538,9.058,5.456,8.05-9.708-.566-5.97,7.676-2.462-9.407-9.145-3.306Z" transform="translate(10 -528)"/><path class="a" d="M849.106,3961.991l5.633-5.566.991,7.857,7.035,3.637-7.166,3.371-1.286,7.814-5.42-5.773-7.829,1.192,3.816-6.939-3.553-7.077Z" transform="translate(10 -528)"/><path class="a" d="M776.026,4016.591l-11.976,1.584-15.728-10.741,10.428-2.217Z" transform="translate(10 -528)"/><path class="a" d="M764.049,4018.175l9.044-23.4,2.932,21.811" transform="translate(10 -528)"/><path class="a" d="M748.321,4007.434l24.772-12.654-14.344,10.437" transform="translate(10 -528)"/><path class="b" d="M752.643,4081.935a11.351,11.351,0,0,0-4.647,1,8.465,8.465,0,0,0-16.347-4.392A19.156,19.156,0,1,0,693.708,4083a13.184,13.184,0,1,0-10.021,21.747h68.956a11.406,11.406,0,0,0,0-22.812Z" transform="translate(10 -528)"/><rect class="j" width="579.278" height="1.303" transform="translate(693.222 3740.1)"/><path class="g" d="M6.913,0H29.3a6.913,6.913,0,0,1,6.913,6.913V143.749a0,0,0,0,1,0,0H0a0,0,0,0,1,0,0V6.913A6.913,6.913,0,0,1,6.913,0Z" transform="translate(1256.096 3705.19) rotate(90)"/><path class="k" d="M1233.719,4233.19h-3.194a9.02,9.02,0,0,1,9.008,9.008v18.2a9.019,9.019,0,0,1-9.008,9.008h3.194a9.019,9.019,0,0,0,9.007-9.008v-18.2A9.019,9.019,0,0,0,1233.719,4233.19Z" transform="translate(10 -528)"/><path class="k" d="M1214.43,4233.19h-3.193a9.019,9.019,0,0,1,9.007,9.008v18.2a9.019,9.019,0,0,1-9.007,9.008h3.193a9.019,9.019,0,0,0,9.008-9.008v-18.2A9.02,9.02,0,0,0,1214.43,4233.19Z" transform="translate(10 -528)"/><path class="l" d="M6.913,0H29.3a6.913,6.913,0,0,1,6.913,6.913V139.432a0,0,0,0,1,0,0H0a0,0,0,0,1,0,0V6.913A6.913,6.913,0,0,1,6.913,0Z" transform="translate(1223.283 3705.19) rotate(90)"/><path class="m" d="M0,0H131.516a3.6,3.6,0,0,1,3.6,3.6V23.979a3.6,3.6,0,0,1-3.6,3.6H0a0,0,0,0,1,0,0V0A0,0,0,0,1,0,0Z" transform="translate(1083.85 3709.507)"/><line class="a" x1="125.782" transform="translate(1093.184 3716.549)"/><line class="a" x1="48.401" transform="translate(1170.565 3723.296)"/><line class="a" x1="119.723" transform="translate(1099.243 3729.693)"/><line class="a" x1="48.401" transform="translate(1115.636 3723.296)"/><path class="n" d="M6.913,0H29.3a6.913,6.913,0,0,1,6.913,6.913V143.749a0,0,0,0,1,0,0H0a0,0,0,0,1,0,0V6.913A6.913,6.913,0,0,1,6.913,0Z" transform="translate(1239.69 3668.978) rotate(90)"/><path class="o" d="M1217.312,4196.978h-3.194a9.019,9.019,0,0,1,9.008,9.007v18.2a9.019,9.019,0,0,1-9.008,9.008h3.194a9.018,9.018,0,0,0,9.007-9.008v-18.2A9.018,9.018,0,0,0,1217.312,4196.978Z" transform="translate(10 -528)"/><path class="o" d="M1198.023,4196.978h-3.193a9.019,9.019,0,0,1,9.008,9.007v18.2a9.019,9.019,0,0,1-9.008,9.008h3.193a9.018,9.018,0,0,0,9.008-9.008v-18.2A9.018,9.018,0,0,0,1198.023,4196.978Z" transform="translate(10 -528)"/><path class="p" d="M6.913,0H29.3a6.913,6.913,0,0,1,6.913,6.913V139.433a0,0,0,0,1,0,0H0a0,0,0,0,1,0,0V6.913A6.913,6.913,0,0,1,6.913,0Z" transform="translate(1206.876 3668.978) rotate(90)"/><path class="q" d="M0,0H131.516a3.6,3.6,0,0,1,3.6,3.6V23.979a3.6,3.6,0,0,1-3.6,3.6H0a0,0,0,0,1,0,0V0A0,0,0,0,1,0,0Z" transform="translate(1067.443 3673.294)"/><line class="a" x1="125.782" transform="translate(1076.778 3680.336)"/><line class="a" x1="48.401" transform="translate(1154.158 3687.084)"/><line class="a" x1="119.723" transform="translate(1082.836 3693.481)"/><line class="a" x1="48.401" transform="translate(1099.229 3687.084)"/><path class="a" d="M1169.9,4255.364" transform="translate(10 -528)"/><path class="r" d="M1144.712,4264.371l23.881-10.883-.9-1.9-23.881,10.884Z" transform="translate(10 -528)"/><path class="e" d="M1160.695,4245.145l2.289-.453s2.019,2.34,3.177,4.082a14.136,14.136,0,0,1,1.532,2.816l-23.882,10.883s.1-1.526,4.278-7.457a13.657,13.657,0,0,0,2.106-4.363Z" transform="translate(10 -528)"/><path class="s" d="M1159.547,4236.64l3.437,8.052s-.451,1.669-4.507,3.517a34.087,34.087,0,0,1-8.282,2.444l-6.384-12.269" transform="translate(10 -528)"/><rect class="r" width="26.244" height="1.73" transform="translate(1193.972 3741.374) rotate(179.935)"/><path class="e" d="M1180.232,4258.51l2.272.535s.869,2.966,1.2,5.031a19.021,19.021,0,0,1,.262,3.567l-26.244.03s.685-1.72,6.946-5.391a13.66,13.66,0,0,0,3.723-3.1Z" transform="translate(10 -528)"/><path class="s" d="M1182.7,4250.292l-.2,8.753s-1.1,1.333-5.558,1.338a34.078,34.078,0,0,1-8.551-1.2l-.737-13.811" transform="translate(10 -528)"/><path class="t" d="M1141.422,4121.3s-16.759,42.807-18.2,63.041,18.789,64.076,18.789,64.076l22.644-9.153s-15.417-39.024-13.008-51.069,12.526-38.542,12.526-38.542l2.891-31.8" transform="translate(10 -528)"/><path class="t" d="M1181.845,4124.082c6.894,13.046,4.711,61.666,4,77.6s.963,52.514.963,52.514h-25.854s-4.419-39.583-5.99-59.481c-1.366-17.305-4.713-47.128-2.618-67.026" transform="translate(10 -528)"/><g transform="translate(10 -528)"><path d="M1182.073,4254.145c-.022-.305-2.211-30.747-1.905-53.385.069-5.116.23-9.661.386-14.056.527-14.91.982-27.787-2.857-51.783l.494-.079c3.847,24.045,3.39,36.944,2.862,51.88-.156,4.392-.316,8.934-.385,14.045-.3,22.616,1.882,53.037,1.9,53.342Z"/></g><line class="a" y1="0.369" x2="26.016" transform="translate(1170.502 3720.958)"/><g transform="translate(10 -528)"><path d="M1177.735,4144.341c-1.945,0-5.394-.314-7.732-2.3a6.812,6.812,0,0,1-2.358-5.052l.5-.027a6.326,6.326,0,0,0,2.182,4.7c3.181,2.7,8.767,2.125,8.821,2.118l.055.5A14.315,14.315,0,0,1,1177.735,4144.341Z"/></g><g transform="translate(10 -528)"><path d="M1153.06,4180.274c-.029-.258-2.817-25.966-1.966-42.807l.5.026c-.849,16.8,1.934,42.469,1.962,42.726Z"/></g><g transform="translate(10 -528)"><path d="M1151.287,4151.147a3.244,3.244,0,0,1-2.1-1.144c-1.29-1.355-2.779-4.456-2.538-11.536l.5.016c-.234,6.874,1.164,9.858,2.376,11.15a2.849,2.849,0,0,0,1.776,1.014Z"/></g><g transform="translate(10 -528)"><path d="M1135.567,4142.65a8.781,8.781,0,0,1-1.763-.166l.113-.487c.23.054,5.652,1.253,7.305-3.5l.472.164C1140.512,4142.06,1137.509,4142.65,1135.567,4142.65Z"/></g><g transform="translate(10 -528)"><path d="M1157.078,4228.249c-.495-1.112-12.113-27.342-10.976-37.339,1.132-9.973,6.136-20.071,6.187-20.172l.447.224c-.049.1-5.014,10.121-6.138,20-1.12,9.861,10.816,36.807,10.937,37.078Z"/></g><line class="a" y1="7.261" x2="18.914" transform="translate(1149.938 3708.175)"/><path class="u" d="M1150.867,4050.649s-3.822,9.918-.682,13.236c1.632,1.724,6.551,2.126,8.683.5,1.583-1.209,4.052-8.845,3.2-10.21C1158.808,4048.954,1150.867,4050.649,1150.867,4050.649Z" transform="translate(10 -528)"/><path class="u" d="M1162.687,4060.816l.736,10.378s-5.422,5.506-11.094-.583l.813-6.778Z" transform="translate(10 -528)"/><path class="v" d="M1160.7,4057.681" transform="translate(10 -528)"/><path class="v" d="M1165.251,4058.383c.416-2.124,1.494-3.28,1.352-5.744a2.918,2.918,0,0,0-2.335-2.9s-.269-1.251-2.4-2.21-9.608-2.74-13.028.2c-.66.568-1.363,4.058,1.131,4.86,4.081,1.312,9.624-1,10.685,1.6a4.733,4.733,0,0,1,.13,2.613,7.213,7.213,0,0,0-.085.873l1.254.566c1.587.669-.968,3.722-.508,4.85.242.591,1.532.61,2.524-.112S1164.8,4060.693,1165.251,4058.383Z" transform="translate(10 -528)"/><path class="u" d="M1161.27,4058.5c.988-1.528,1.918-1.387,2.487-.653.759.979-.363,3.269-.946,3.7-1.181.866-2.2.883-2.393-.124" transform="translate(10 -528)"/><path class="e" d="M1163.446,4071.075a10.9,10.9,0,0,1-6.076,1.692c-3.78,0-4.972-2.244-4.972-2.244s-14.939.393-22.418,7.564c-8.172,7.836-16.134,24.224-9.756,34.854s24.221-2.626,24.221-2.626" transform="translate(10 -528)"/><path class="e" d="M1147.385,4073.477c-11.554-3.224-12.672,61.615-12.672,61.615,7.472,4.644,52,3.14,52,3.14s4.361-37.706-9.412-60.145c-2.688-4.38-13.856-7.012-13.856-7.012S1155.48,4075.736,1147.385,4073.477Z" transform="translate(10 -528)"/><path class="w" d="M1118.412,4066.02l14.847-2.835,10.925,62.547s-1.112,2.984-5.752,3.87a9.272,9.272,0,0,1-7.371-1.364Z" transform="translate(10 -528)"/><path class="x" d="M1123.835,4059.193s7.487-1.206,9.241,2.709-2.294,6.142-5.706,7.018-9.918.591-8.733-4.149c1.04-4.163,7.922-4.2,9.485-3.042s1.754,3.916-2.711,4.545-2.849-3.165-.547-3.317" transform="translate(10 -528)"/><path class="y" d="M1122.7,4065.577s1.482,1.892,4.438.471,3.091-6.692-4.394-4.728c-7.546,1.98-4.524,8.519.741,8.128Z" transform="translate(10 -528)"/><path class="z" d="M1125.222,4066.593l-.7-3.686s-2.26.856-2.082,2.209C1122.656,4066.787,1125.222,4066.593,1125.222,4066.593Z" transform="translate(10 -528)"/><path class="aa" d="M1122.452,4065.245l.791,4.221a14.712,14.712,0,0,0,6.737-1.475l-.917-4.806s.214,2.331-2.7,3.086S1122.452,4065.245,1122.452,4065.245Z" transform="translate(10 -528)"/><path class="q" d="M1137.08,4070.7l10.818-.407,1.331,54.379a5.006,5.006,0,0,1-4.475,2.5,6.244,6.244,0,0,1-5.086-2.142Z" transform="translate(10 -528)"/><path class="x" d="M1141.625,4065.651s5.433-.017,6.275,3.531-2.257,4.888-4.766,5.171-7.092-.83-5.766-4.68c1.164-3.383,6.047-2.489,7.037-1.3s.842,3.547-2.389,3.48-1.695-3.059-.047-2.879" transform="translate(10 -528)"/><path class="y" d="M1140.163,4070.9a2.352,2.352,0,0,0,3.1.993c2.242-.805,2.877-5.247-2.631-4.589-5.553.664-4.082,6.6-.308,6.976Z" transform="translate(10 -528)"/><path class="z" d="M1141.85,4072.1l-.121-3.214s-1.69.421-1.7,1.59C1140.011,4071.917,1141.85,4072.1,1141.85,4072.1Z" transform="translate(10 -528)"/><path class="aa" d="M1140.024,4070.585l.128,3.678a8.883,8.883,0,0,0,4.928-.345l-.157-4.188a2.423,2.423,0,0,1-2.235,2.247A2.315,2.315,0,0,1,1140.024,4070.585Z" transform="translate(10 -528)"/><path class="w" d="M1158.836,4071.374l13.035,4.242-17.7,51.441s-2.146,1.754-6.22.428a8.619,8.619,0,0,1-5.3-4.178Z" transform="translate(10 -528)"/><path class="x" d="M1166.042,4068.594s6.479,2.306,6.225,5.985-4.423,3.609-7.513,2.8-8.157-3.808-5.212-6.844c2.587-2.666,8.089.258,8.847,1.791s-.254,3.679-4.08,2.236-.935-3.587.965-2.714" transform="translate(10 -528)"/><path class="y" d="M1162.439,4072.879s.382,2.049,3.34,2.253,5.289-3.679-1.508-5.417c-6.853-1.753-7.2,4.43-2.841,6.394Z" transform="translate(10 -528)"/><path class="z" d="M1164.023,4074.721l1-3.058s-2.164-.329-2.593.76C1161.9,4073.766,1164.023,4074.721,1164.023,4074.721Z" transform="translate(10 -528)"/><path class="aa" d="M1162.384,4072.525l-1.151,3.5a14.094,14.094,0,0,0,5.994,1.784l1.3-3.985s-.813,1.834-3.46,1.148S1162.384,4072.525,1162.384,4072.525Z" transform="translate(10 -528)"/><g transform="translate(10 -528)"><path class="u" d="M1147.035,4096.154c1.418-1.126,7.155-5.6,7.437-5.2s-1.627,2.388-1.377,2.5c.354.158,2.078-1.041,2.983-1.8.806-.679,2.213-1.637,2.554-1.324.648.595-3.826,4.262-3.826,4.262.2.18,4.073-4.843,4.667-4.4.856.637-3.648,5.6-3.631,5.93,0,0,2.71-5.387,3.344-4.916s-1.667,5.342-2.81,6.464c.765-1.1,2.078-5.321,2.539-4.978s-1,3.761-1.34,4.209a31.5,31.5,0,0,1-5.946,5.939"/></g><path class="e" d="M1121.9,4099.573c9.838-.205,28.516-8.549,28.516-8.549l7.4,10.385s-16.817,14.876-31.6,15.543Z" transform="translate(10 -528)"/><path class="ab" d="M1148.531,4108.44l-.293-.4,9.229-6.683-7.137-10.015c-1.71.779-14.64,6.536-26.5,8.336l-.074-.494c12.6-1.912,26.418-8.317,26.557-8.382l.188-.088,7.665,10.757Z" transform="translate(10 -528)"/><g transform="translate(10 -528)"><path class="u" d="M1143.28,4123.382c-1.8-.182-9.961-.878-9.982-.39-.019.469,2.659,1.132,2.509,1.36-.212.324-2.311.246-3.483.095-1.046-.136-2.747-.182-2.865.265-.224.851,5.522,1.521,5.522,1.521-.068.258-6.044-1.876-6.3-1.184-.376,1,6.094,2.744,6.258,3.031,0,0-5.19-3.071-5.469-2.333s4.288,3.6,5.856,3.923c-1.236-.509-4.622-3.356-4.826-2.818s2.873,2.626,3.4,2.819a32.13,32.13,0,0,0,8.638,1.758"/></g><path class="e" d="M1171.1,4133.085c8.438-4.946,16.584-18.182,17.494-31.619.595-8.78-5.28-20.056-12.818-25.071" transform="translate(10 -528)"/><path class="e" d="M1162.215,4115.961a109.8,109.8,0,0,1-23.112,6.672l-1.966,15.448c6.316.5,23.178.586,34.843-5.431" transform="translate(10 -528)"/><path class="ab" d="M1151.825,4138.129l-.07-.5c.148-.021,14.881-2.115,20.1-5.2,8.67-5.126,12.351-15.461,12.387-15.565l.473.164c-.037.106-3.775,10.611-12.607,15.832C1166.805,4136,1152.434,4138.043,1151.825,4138.129Z" transform="translate(10 -528)"/><path class="ab" d="M1139.145,4122.879l-.084-.493c.162-.027,16.3-2.808,24.262-7.289,6.215-3.5,7.514-21.1,7.527-21.272l.5.035c-.051.735-1.332,18.043-7.779,21.673C1155.533,4120.056,1139.308,4122.852,1139.145,4122.879Z" transform="translate(10 -528)"/><path class="g" d="M1029.695,4207.373a1.753,1.753,0,0,1-1.7-1.311l-6.444-24.45a1.757,1.757,0,0,1,1.7-2.2h31.071a1.755,1.755,0,0,1,1.7,1.308l6.443,24.451a1.758,1.758,0,0,1-1.7,2.2Z" transform="translate(10 -528)"/><path class="j" d="M1060.766,4206.116h-31.071a.5.5,0,0,1-.481-.371l-6.443-24.453a.5.5,0,0,1,.481-.625h31.071a.5.5,0,0,1,.481.371l6.444,24.454A.5.5,0,0,1,1060.766,4206.116Z" transform="translate(10 -528)"/><path class="ac" d="M1051.454,4197.961H1029.82l-3.684-13.98h21.634Z" transform="translate(10 -528)"/><path class="ad" d="M1052.267,4196.6h-21.634l-3.684-13.981h21.634Z" transform="translate(10 -528)"/><g transform="translate(10 -528)"><g class="ae"><g class="af"><rect class="ag" width="28.044" height="0.988" transform="translate(1026.272 4184.907)"/><rect class="ag" width="28.044" height="0.988" transform="translate(1026.272 4187.715)"/><rect class="ag" width="28.044" height="0.988" transform="translate(1026.272 4190.522)"/><rect class="ag" width="28.044" height="0.988" transform="translate(1026.272 4193.331)"/></g></g><path class="a" d="M1050.837,4195.813h-19.19l-3.267-12.4h19.189Z"/></g><path class="ac" d="M1056.828,4204.636h-20.617l-3.511-13.324h20.617Z" transform="translate(10 -528)"/><path class="ad" d="M1057.6,4203.342h-20.617l-3.51-13.324h20.617Z" transform="translate(10 -528)"/><g transform="translate(10 -528)"><g class="ah"><rect class="ag" width="26.725" height="0.942" transform="translate(1032.831 4192.196)"/><rect class="ag" width="26.725" height="0.942" transform="translate(1032.831 4194.872)"/><rect class="ag" width="26.725" height="0.942" transform="translate(1032.831 4197.547)"/><rect class="ag" width="26.725" height="0.942" transform="translate(1032.831 4200.223)"/></g><path class="a" d="M1056.24,4202.589h-18.288l-3.114-11.818h18.287Z"/></g><rect class="g" width="26.244" height="1.175" transform="translate(955.58 3740.652) rotate(-95.969)"/><path class="e" d="M956,4263.815l-.3,2.314s-2.861,1.17-4.881,1.715a24.166,24.166,0,0,1-4.073.686l-2.729-26.1s2.333.448,6.628,6.3a13.668,13.668,0,0,0,3.467,3.384Z" transform="translate(10 -528)"/><path class="u" d="M974.725,4264.8l-19.022,1.333s-1.44-.958-1.9-5.391a34.116,34.116,0,0,1,.315-8.629l19.006-1.227" transform="translate(10 -528)"/><path class="t" d="M1087.219,4268.861c-12.948.466-33.752.576-54.518.534-33.583-.068-67.067-.534-67.067-.534l-2.451-20.1s31.631-3.231,62.018-7.449c29.9-4.15,58.895,1.968,58.895,1.968" transform="translate(10 -528)"/><rect width="102.652" height="0.5" transform="translate(974.725 3733.201)"/><rect class="g" width="26.244" height="1.175" transform="matrix(-0.587, -0.809, 0.809, -0.587, 983.039, 3740.652)"/><path class="e" d="M979.644,4259.251l.9,2.154s-1.892,2.444-3.368,3.926a24.169,24.169,0,0,1-3.184,2.63l-15.418-21.238s2.244-.779,8.889,2.138a13.642,13.642,0,0,0,4.694,1.2Z" transform="translate(10 -528)"/><path class="u" d="M992.421,4256.079l-11.878,5.326s-1.725-.11-4.343-3.717a34.089,34.089,0,0,1-4.044-7.63l18.949-8.742" transform="translate(10 -528)"/><path class="g" d="M1105.406,4229.7s11.123,39.159-16.751,39.159-46.15-19.155-50.076-19.625-46.125,15.938-46.125,15.938l-12.384-19.145s33.752-17.4,46.944-20.1,48.642,5.982,48.642,5.982" transform="translate(10 -528)"/><path class="ai" d="M1092.752,4268.861" transform="translate(10 -528)"/><path class="t" d="M1083.568,4259.7c-8.579,0-21.978-6.568-32.369-11.66-5.981-2.932-11.146-5.464-13.005-5.464-5.806,0-48.991,16.923-49.426,17.093l-.184-.465c1.782-.7,43.71-17.128,49.61-17.128,1.974,0,6.94,2.434,13.225,5.514,13.134,6.438,31.121,15.253,37.669,10.054,6.745-5.356,3.421-24.781,3.387-24.976l.492-.087c.142.81,3.409,19.914-3.569,25.455A9.182,9.182,0,0,1,1083.568,4259.7Z" transform="translate(10 -528)"/><path class="t" d="M1093.094,4241.714c-.482,0-6.464-.072-9.88-3.521a8.051,8.051,0,0,1-2.285-6.033l.5.008a7.573,7.573,0,0,0,2.138,5.672c3.307,3.34,9.378,3.374,9.543,3.374h0l0,.5Z" transform="translate(10 -528)"/><rect class="t" width="0.501" height="22.339" transform="matrix(0.858, -0.514, 0.514, 0.858, 994.495, 3716.615)"/><path class="aj" d="M1074.966,4155.822c-1.494,4.921-1.475,9.457,2.7,10.724s10.261.874,12.411-6.138c1.507-4.918-.677-9.938-4.848-11.205S1076.46,4150.9,1074.966,4155.822Z" transform="translate(10 -528)"/><path class="aj" d="M1079.669,4171.368a12.307,12.307,0,0,0,5.994.82c3.822-.5,4.572-1.957,4.572-1.957l-3.146-10.55-8.374,2.494Z" transform="translate(10 -528)"/><path class="aj" d="M1075.888,4155.794s-2.565,2.855-2.535,3.433,1.542,1.041,1.542,1.041" transform="translate(10 -528)"/><path class="a" d="M1075.414,4152.991" transform="translate(10 -528)"/><path class="ak" d="M1084.434,4159.635a7.752,7.752,0,0,1-4.539-7.644,4.983,4.983,0,0,1-4.481,1c1.95-3.794,6.112-6.436,10.439-5.66a8.827,8.827,0,0,1,5.919,3.755c2.155,3.187,2.187,4.955,3.207,8.572.365,1.293,1.332,4.188,2.837,5.119-1.974,1.542-8.449,4.255-16.647,2.529a10.826,10.826,0,0,0,3.405-8.9" transform="translate(10 -528)"/><path class="u" d="M1083.191,4158.386a1.552,1.552,0,0,1,2.245-.172c1.52,1.365-.6,4.12-1.855,4.541s-1.572-.973-1.572-.973" transform="translate(10 -528)"/><g transform="translate(10 -528)"><path class="u" d="M1036.829,4202.874c-1.633-.782-9.072-4.2-9.258-3.752-.177.435,2.117,1.966,1.9,2.13-.31.233-2.258-.552-3.309-1.092-.937-.482-2.522-1.1-2.784-.722-.5.724,4.678,3.3,4.678,3.3-.151.219-5.049-3.815-5.53-3.252-.692.811,4.8,4.648,4.86,4.974,0,0-3.841-4.65-4.354-4.05s2.814,4.838,4.178,5.676c-.99-.9-3.21-4.725-3.584-4.287s1.812,3.444,2.244,3.8a32.107,32.107,0,0,0,7.53,4.584"/></g><path class="e" d="M1080.969,4200.338s-3.944,21.639-16.323,23.647c-15.125,2.453-36.58-10.59-36.58-10.59l6.022-12.044c14.15,3.919,22.626,4.038,24.864,1.991s4.658-15.2,10.768-23.931,9.875-8.493,9.875-8.493,1.266,1.251,5,1.134a9.285,9.285,0,0,0,5.641-1.821s5.941,1.385,12.052,12.515,4.382,49.418,4.382,49.418-22.018,4.465-44.1-3.343c0,0-.781-36.043,4.525-44" transform="translate(10 -528)"/><path class="al" d="M1062.573,4224.213c16.142-2.659,19.436-30.544,19.436-30.544" transform="translate(10 -528)"/><path class="w" d="M803.028,4189.7l14.208,12-44.469,50.1s-3.372.843-7.812-2.908-4.745-7.7-4.745-7.7Z" transform="translate(10 -528)"/><path class="x" d="M813.041,4190.443s6.978,6.193,5.117,10.281-6.946,1.73-10.4-.887-8.4-8.835-3.512-10.714c4.3-1.65,9.816,4.717,10.1,6.894s-1.861,4.089-5.948.339.363-4.634,2.327-2.592" transform="translate(10 -528)"/><path class="y" d="M806.815,4193.4s-.393,2.563,3.149,4.415,8.04-1.337.432-7.05c-7.67-5.761-10.705,1.153-6.179,5.795Z" transform="translate(10 -528)"/><path class="z" d="M807.984,4196.381l2.509-2.97s-2.516-1.56-3.5-.544C805.776,4194.122,807.984,4196.381,807.984,4196.381Z" transform="translate(10 -528)"/><path class="am" d="M806.9,4192.962l-2.884,3.388a21.384,21.384,0,0,0,6.6,5.326l3.271-3.871s-1.77,1.664-4.728-.571S806.9,4192.962,806.9,4192.962Z" transform="translate(10 -528)"/><path class="q" d="M698.269,4209.522l17.5-12.852,37.27,53.18s.115,4.167-5.355,8.184-10.115,3.176-10.115,3.176Z" transform="translate(10 -528)"/><path class="x" d="M701.681,4198.133s8.941-6.223,13.2-2.828.23,8.581-3.677,11.793-12.361,7.078-13.288.836c-.814-5.484,7.958-9.961,10.549-9.633s4.255,3.394-1.124,7-5.267-1.822-2.405-3.483" transform="translate(10 -528)"/><path class="y" d="M703.513,4206.248s2.865,1.231,5.91-2.318.5-9.73-8.045-2.632c-8.618,7.156-1.394,12.766,5.128,8.919Z" transform="translate(10 -528)"/><path class="z" d="M707.261,4205.794l-2.8-3.808s-2.446,2.447-1.522,3.9C704.085,4207.672,707.261,4205.794,707.261,4205.794Z" transform="translate(10 -528)"/><path class="am" d="M703.029,4206.021l3.184,4.37a24,24,0,0,0,7.843-6.05l-3.643-4.964s1.473,2.556-1.867,5.312S703.029,4206.021,703.029,4206.021Z" transform="translate(10 -528)"/><path class="r" d="M731.945,4201.371l2.045,8.814-3.2,3.382-4.77-1.534-2.045-8.814a8.312,8.312,0,1,0,7.966-1.848Z" transform="translate(10 -528)"/><rect class="r" width="8.178" height="34.891" transform="translate(737.156 3688.914) rotate(-13.06)"/><path class="an" d="M738.448,4247.5a8.313,8.313,0,1,0,9.976,6.22A8.314,8.314,0,0,0,738.448,4247.5Zm6.491,9.5-3.523,3.293-4.613-1.4-1.09-4.7,3.524-3.292,4.613,1.4Z" transform="translate(10 -528)"/><path class="an" d="M735.257,4265.735l2.692-9.4,4.8-1.52,3.705,3.953-2.693,9.406a8.989,8.989,0,1,0-8.5-2.434Z" transform="translate(10 -528)"/><rect class="r" width="37.726" height="8.842" transform="matrix(0.275, -0.961, 0.961, 0.275, 749.44, 3723.122)"/><path class="r" d="M753.315,4218.717a8.988,8.988,0,1,0-6.168-11.115A8.988,8.988,0,0,0,753.315,4218.717Zm-1.15-12.391,5.059-1.263,3.623,3.749-1.435,5.013-5.058,1.263-3.624-3.749Z" transform="translate(10 -528)"/><path class="q" d="M776.149,4183.393l19.269,10.009L759.989,4258.5s-3.909,2.376-9.931-.752-7.1-8.1-7.1-8.1Z" transform="translate(10 -528)"/><path class="x" d="M788.339,4180.516s9.518,5.3,8.014,11.277-8.052,4.887-12.679,2.839-11.713-8.155-6.161-12.448c4.877-3.77,12.67,2.313,13.405,5.007s-1.5,5.977-7.1,2.714-.4-6.1,2.334-4.228" transform="translate(10 -528)"/><path class="y" d="M781.375,4186.705s-.012,3.451,4.588,4.478,9.439-4.8-.752-9.241c-10.273-4.479-12.681,5.584-6.394,9.827Z" transform="translate(10 -528)"/><path class="z" d="M783.32,4190.1l2.485-4.785s-3.31-1.045-4.313.64C780.254,4188.034,783.32,4190.1,783.32,4190.1Z" transform="translate(10 -528)"/><path class="am" d="M781.4,4186.112l-2.862,5.466a21.131,21.131,0,0,0,8.911,4.328l3.24-6.236s-1.831,2.82-5.8,1.075S781.4,4186.112,781.4,4186.112Z" transform="translate(10 -528)"/><rect class="n" width="67.568" height="40.339" transform="translate(715.945 3701.064)"/><rect class="ao" width="36.977" height="40.339" transform="translate(782.84 3701.064)"/><path class="ap" d="M758.379,4248.526h-67.25l14.46-19.462h67.25Z" transform="translate(10 -528)"/><path class="aq" d="M781.09,4248.527h37.162l-8.435-19.462H772.655Z" transform="translate(10 -528)"/><g transform="translate(10 -528)"><line class="a" y1="142.793" x2="16.293" transform="translate(836.734 4126.61)"/><line class="a" y1="142.793" x2="16.293" transform="translate(790.987 4126.61)"/><line class="a" x2="45.54" transform="translate(793.502 4249.174)"/><line class="a" x2="45.454" transform="translate(795.583 4231.688)"/><line class="a" x2="45.36" transform="translate(797.34 4213.723)"/><line class="a" x2="45.263" transform="translate(799.294 4196.599)"/><line class="a" x2="45.537" transform="translate(801.335 4178.711)"/><line class="a" x2="45.268" transform="translate(803.358 4160.985)"/><line class="a" x2="45.427" transform="translate(805.588 4144.243)"/></g><line class="a" x1="16.293" y1="142.793" transform="translate(817.28 3598.61)"/><g transform="translate(10 -528)"><rect class="j" width="1.001" height="143.719" transform="translate(852.529 4126.667) rotate(-6.509)"/></g><line class="a" x1="45.54" transform="translate(831.265 3721.174)"/><line class="a" x1="45.454" transform="translate(829.27 3703.688)"/><line class="a" x1="45.36" transform="translate(827.607 3685.723)"/><line class="a" x1="45.263" transform="translate(825.75 3668.599)"/><line class="a" x1="45.537" transform="translate(823.435 3650.711)"/><line class="a" x1="45.268" transform="translate(821.681 3632.985)"/><line class="a" x1="45.427" transform="translate(819.292 3616.243)"/><rect class="e" width="58.973" height="4.132" transform="translate(810.375 3595.309)"/><path class="g" d="M892.913,4051.649,876.7,4082.39H833.888v-3.842h41.854l14.975-28.344Z" transform="translate(10 -528)"/><path class="aj" d="M837.123,4019.17c.22,5.172-.938,9.59-5.323,9.776s-10.221-1.726-10.555-9.1c-.234-5.172,3.156-9.517,7.541-9.7S836.9,4014,837.123,4019.17Z" transform="translate(10 -528)"/><path class="aj" d="M828.633,4033.142a15.286,15.286,0,0,1-5.946-1.047c-3.6-1.445-4.068-2.716-4.068-2.716l5.717-9.493,7.536,4.535Z" transform="translate(10 -528)"/><path class="aj" d="M836.231,4018.912s1.784,3.427,1.608,3.983-1.763.627-1.763.627" transform="translate(10 -528)"/><path class="v" d="M825.919,4019.61c.676,1.314,2.6,2.209,3.353-.144s.455-3.017,1.644-3.263c1.5-.309,1.075.777,6.191,1.111,3.057.2,4.466-2.119,4.123-3.781a3.249,3.249,0,0,0-2.7-2.8c-2.725-.477-1.852.1-3.6-.463s-2.429-2.066-5.223-2.188a5.338,5.338,0,0,0-4.343,2.064,3.349,3.349,0,0,0-4.064,1.464c-1.7,2.342-.664,3.318-1.7,5.689-.906,2.072-.259,5.6.782,6.632a3.874,3.874,0,0,0,5.5.111s-2.81-4.716-.755-4.575" transform="translate(10 -528)"/><path class="u" d="M826.986,4019.811a1.562,1.562,0,0,0-2.144-.732c-1.826.949-.449,4.168.666,4.893s1.777-.553,1.777-.553" transform="translate(10 -528)"/><g transform="translate(10 -528)"><rect class="r" width="26.244" height="1.175" transform="translate(860.637 4185.366) rotate(6.832)"/><path class="ak" d="M865.491,4176.186l-2.319.264s-1.213,2.842-1.788,4.854a24.076,24.076,0,0,0-.747,4.062l26.058,3.122s-.412-2.34-6.2-6.722a13.652,13.652,0,0,1-3.331-3.518Z"/><path class="u" d="M859.82,4158.479l3.352,17.971s.936,1.453,5.362,1.983a34.11,34.11,0,0,0,8.633-.185l-2.119-22.9"/></g><path class="t" d="M878.678,4112.16l4.086,60.474-23.807,3.1-4.734-53.471" transform="translate(10 -528)"/><line class="ar" y1="2.997" x2="22.85" transform="translate(868.758 3640.278)"/><g transform="translate(10 -528)"><rect class="r" width="26.244" height="1.175" transform="matrix(0.908, 0.419, -0.419, 0.908, 835.061, 4170.808)"/><path class="ak" d="M842.51,4163.573l-2.287-.464s-2.031,2.329-3.2,4.065a24.227,24.227,0,0,0-1.963,3.634l23.824,11.009s.329-2.354-3.821-8.307a13.661,13.661,0,0,1-2.084-4.373Z"/><path class="u" d="M843.723,4156.669l-3.5,6.44s.442,1.671,4.488,3.54a34.088,34.088,0,0,0,8.269,2.488l7.159-10.991"/></g><path class="g" d="M799.928,4084.046s-7.342,39.263,11.8,39.263c14.958,0,32.324.245,39.2.351a2.206,2.206,0,0,1,2.052,2.918l-10.9,32.087,23.225,10.154s18.928-42.62,16.834-58.591-55.244-18.065-55.244-18.065l-5.5-10.473" transform="translate(10 -528)"/><path class="ar" d="M809.576,4088.91s-3.941,21.537,6.071,24.724,33.762,3.569,40.862,5.18a5.012,5.012,0,0,1,3.759,6.079l-12.914,36.092" transform="translate(10 -528)"/><path class="ar" d="M824.3,4091.674c-.937,7.117-15.347,9.8-15.347,9.8" transform="translate(10 -528)"/><line class="ar" x2="23.48" y2="10.367" transform="translate(853.4 3626.792)"/><g transform="translate(10 -528)"><path class="u" d="M866.017,4081.215c1.807-.12,9.986-.531,9.989-.042,0,.47-2.7,1.038-2.554,1.272.2.331,2.3.327,3.477.216,1.05-.1,2.752-.086,2.854.365.194.858-5.571,1.328-5.571,1.328.058.259,6.105-1.665,6.342-.963.341,1.01-6.187,2.529-6.36,2.81,0,0,5.294-2.888,5.547-2.14s-4.411,3.444-5.989,3.716c1.253-.466,4.736-3.193,4.921-2.648s-2.962,2.523-3.5,2.7a32.107,32.107,0,0,1-8.694,1.456"/></g><path class="e" d="M830.224,4046.993c0,17.374,2.5,23.474,8.582,27.187,6.231,3.8,20.151,5.006,28.628,5.728l-.978,13.278s-32.388-.653-40.684-5.162-9.559-29.4-9.559-29.4" transform="translate(10 -528)"/><path class="e" d="M828.794,4032.812c8.354,8.149,11.771,60.5,11.771,60.5-20.019,1.082-48.088,1.31-48.088,1.31s2.454-38.344,9.849-50.247a43.915,43.915,0,0,1,16.437-15.319,9.641,9.641,0,0,0,4.943,3.175,18.7,18.7,0,0,0,5.088.578" transform="translate(10 -528)"/><path class="al" d="M840.2,4074.9c-9.512-3.685-9.243-23.976-9.243-23.976" transform="translate(10 -528)"/><path class="al" d="M840.429,4091.418s-14.057-.041-20.6-12.085-7.526-25.61-7.526-25.61" transform="translate(10 -528)"/></g></svg>