<svg xmlns="http://www.w3.org/2000/svg" width="55.046" height="47.632" viewBox="0 0 55.046 47.632"><defs><style>.a{fill:#ff7e02;}</style></defs><g transform="translate(-504.877 -4265.583)"><g transform="translate(0 -555)"><path class="a" d="M542.039,4842.766h-4.621v-4.622a1.689,1.689,0,0,0-1.677-1.7H529.07a1.689,1.689,0,0,0-1.688,1.688v4.621h-4.609a1.688,1.688,0,0,0-1.7,1.676v6.672a1.687,1.687,0,0,0,1.687,1.687h4.621v4.61a1.689,1.689,0,0,0,1.677,1.7h6.66a1.687,1.687,0,0,0,1.687-1.687h0v-4.622h4.621a1.687,1.687,0,0,0,1.7-1.676v-6.66A1.687,1.687,0,0,0,542.039,4842.766Zm-.578,7.758h-5.176a1.133,1.133,0,0,0-1.133,1.133v5.176h-5.5v-5.176a1.133,1.133,0,0,0-1.133-1.133h-5.176v-5.493h5.176a1.133,1.133,0,0,0,1.133-1.133v-5.187h5.493v5.176a1.133,1.133,0,0,0,1.133,1.133h5.187Z"/></g><g transform="translate(0 -555)"><path class="a" d="M552.108,4827.973h-9.333v-3.987a3.3,3.3,0,0,0-3.188-3.4c-.093,0-.185,0-.278,0H525.491a3.3,3.3,0,0,0-3.463,3.12c-.005.093-.006.186,0,.278v3.965h-9.333c-3.6,0-7.815,2.05-7.815,7.815V4860.4c0,5.765,4.213,7.815,7.815,7.815h39.416c3.6,0,7.815-2.05,7.815-7.815v-24.612C559.923,4830.023,555.721,4827.973,552.108,4827.973Zm-27.818-3.987a1.062,1.062,0,0,1,1.212-1.212h13.807c1.212,0,1.212.873,1.212,1.212v3.965H524.29Zm33.368,36.415c0,5.006-3.874,5.55-5.55,5.55H512.692c-1.665,0-5.55-.544-5.55-5.55v-24.613c0-5.006,3.874-5.549,5.55-5.549h39.416c1.665,0,5.55.543,5.55,5.549V4860.4Z"/></g></g></svg>