<svg xmlns="http://www.w3.org/2000/svg" width="48" height="48" viewBox="0 0 48 48"><defs><style>.a{fill:#ff7e02;}</style></defs><g transform="translate(-1026 -4820)"><path class="a" d="M1073.2,4860.8h-.8V4836a4,4,0,0,0-4-4h-4.8v-1.6H1062v1.6h-1.6v-2.4h-1.6v2.4H1054v-1.6h-1.6v1.6h-4.8v-3.2H1046v3.2h-4.8v-1.6h-1.6v1.6H1038v-2.4h-1.6v2.4h-4a4,4,0,0,0-4,4v24.8h-1.6a.8.8,0,0,0-.8.8v2.4a4,4,0,0,0,4,4h40a4,4,0,0,0,4-4v-2.4A.8.8,0,0,0,1073.2,4860.8ZM1030,4836a2.4,2.4,0,0,1,2.4-2.4h36a2.4,2.4,0,0,1,2.4,2.4v24.8h-15.2a.8.8,0,0,0-.716.442l-.578,1.158h-8.612l-.579-1.158a.8.8,0,0,0-.715-.442H1030Zm42.4,28a2.4,2.4,0,0,1-2.4,2.4h-40a2.4,2.4,0,0,1-2.4-2.4v-1.6h16.306l.579,1.158a.8.8,0,0,0,.715.442h9.6a.8.8,0,0,0,.716-.442l.578-1.158H1072.4Z"/><path class="a" d="M1069.2,4858.4V4836a.8.8,0,0,0-.8-.8h-36a.8.8,0,0,0-.8.8v22.4a.8.8,0,0,0,.8.8h36A.8.8,0,0,0,1069.2,4858.4Zm-1.6-8.331-2.966,2.965a.8.8,0,0,0-.234.566v4H1062v-4.469l2.166-2.165a.8.8,0,0,0,.234-.566v-7.347a2.387,2.387,0,0,0,0-4.506V4836.8h3.2ZM1042,4852a.8.8,0,1,1,.8.8A.8.8,0,0,1,1042,4852Zm1.6,2.253a2.4,2.4,0,1,0-1.6,0v3.347h-3.2v-7.669l3.766-3.765a.8.8,0,0,0,.234-.566v-8.8h1.6v10.4a.8.8,0,0,0,.234.566l4.566,4.565v5.269h-5.6Zm6.4-8.653a.8.8,0,1,1,.8-.8A.8.8,0,0,1,1050,4845.6Zm-.8-3.053a2.387,2.387,0,0,0,0,4.506v3.016l-3.2-3.2V4836.8h3.2Zm1.6,4.506a2.387,2.387,0,0,0,0-4.506V4836.8h3.2v1.6a.8.8,0,0,0,.234.566l2.166,2.165v3.016a2.386,2.386,0,0,0,0,4.506v1.416l-3.766,3.765a.8.8,0,0,0-.234.566v3.2h-1.6Zm6.4.147a.8.8,0,1,1,.8-.8A.8.8,0,0,1,1057.2,4847.2Zm0-7.531-1.6-1.6V4836.8h3.2v1.269Zm-3.2,15.062,2.4-2.4v5.269H1054Zm4-6.078a2.386,2.386,0,0,0,0-4.506v-3.016l2.166-2.165a.8.8,0,0,0,.234-.566v-1.6h2.4v1.747a2.386,2.386,0,0,0,0,4.506v7.016l-2.166,2.165a.8.8,0,0,0-.234.566v4.8H1058Zm5.6-7.053a.8.8,0,1,1,.8-.8A.8.8,0,0,1,1063.6,4841.6Zm-26.4,0a.8.8,0,1,1,.8-.8A.8.8,0,0,1,1037.2,4841.6Zm-.8-4.8v1.747a2.387,2.387,0,0,0,0,4.506v1.416l-3.2,3.2V4836.8Zm-3.2,13.131,4.566-4.565a.8.8,0,0,0,.234-.566v-1.747a2.387,2.387,0,0,0,0-4.506V4836.8h3.2v8.469l-3.766,3.765a.8.8,0,0,0-.234.566v8h-4Zm32.8,7.669v-3.669l1.6-1.6v5.269Z"/><path class="a" d="M1049.2,4828.8h1.6v1.6h-1.6Z"/><path class="a" d="M1049.2,4823.2h1.6v4h-1.6Z"/><path class="a" d="M1049.2,4820h1.6v1.6h-1.6Z"/><path class="a" d="M1052.4,4827.2h1.6v1.6h-1.6Z"/><path class="a" d="M1052.4,4820h1.6v5.6h-1.6Z"/><path class="a" d="M1062,4827.2h1.6v1.6H1062Z"/><path class="a" d="M1062,4820h1.6v5.6H1062Z"/><path class="a" d="M1039.6,4827.2h1.6v1.6h-1.6Z"/><path class="a" d="M1039.6,4820h1.6v2.4h-1.6Z"/><path class="a" d="M1055.6,4826.4h1.6v4h-1.6Z"/><path class="a" d="M1055.6,4823.2h1.6v1.6h-1.6Z"/><path class="a" d="M1055.6,4820h1.6v1.6h-1.6Z"/><path class="a" d="M1042.8,4820h1.6v2.4h-1.6Z"/><path class="a" d="M1042.8,4824h1.6v1.6h-1.6Z"/><path class="a" d="M1042.8,4827.2h1.6v3.2h-1.6Z"/><path class="a" d="M1046,4820h1.6v4H1046Z"/><path class="a" d="M1046,4825.6h1.6v1.6H1046Z"/><path class="a" d="M1039.6,4824h1.6v1.6h-1.6Z"/><path class="a" d="M1058.8,4820h1.6v8h-1.6Z"/><path class="a" d="M1036.4,4820h1.6v8h-1.6Z"/></g></svg>