<svg xmlns="http://www.w3.org/2000/svg" width="54.706" height="38.641" viewBox="0 0 54.706 38.641"><defs><style>.a{fill:#ff7e02;}</style></defs><g transform="translate(-760.756 -4829.359)"><path class="a" d="M793.452,4862.658a1.069,1.069,0,1,1-1.069-1.069A1.069,1.069,0,0,1,793.452,4862.658Z"/><path class="a" d="M814.394,4846.63h-8.548a1.069,1.069,0,0,0-1.068,1.069v6.411a5.35,5.35,0,0,0,4.274,5.234v6.519h-5.1a3.208,3.208,0,0,0-1.985-4.1,13.919,13.919,0,0,0-10.965-12.691,3.206,3.206,0,1,0-5.791,0,13.919,13.919,0,0,0-10.965,12.689,3.2,3.2,0,0,0-1.983,4.1h-5.1v-6.519a5.35,5.35,0,0,0,4.274-5.234V4847.7a1.069,1.069,0,0,0-1.068-1.069h-8.548a1.07,1.07,0,0,0-1.069,1.069v6.411a5.35,5.35,0,0,0,4.274,5.234v6.519h-3.205a1.069,1.069,0,1,0,0,2.137h52.569a1.069,1.069,0,0,0,0-2.137h-3.2v-6.519a5.35,5.35,0,0,0,4.273-5.234V4847.7A1.069,1.069,0,0,0,814.394,4846.63Zm-45.09,2.137v2.137h-6.411v-2.137Zm-6.411,5.343v-1.069H769.3v1.069a3.206,3.206,0,0,1-6.411,0Zm24.148-6.411a1.068,1.068,0,1,1,1.068,1.068A1.07,1.07,0,0,1,787.041,4847.7Zm-12.822,17.1a1.069,1.069,0,0,1,1.069-1.069h12.821a1.069,1.069,0,1,0,0-2.137h-11.7a11.753,11.753,0,0,1,23.408,0h-3.156a1.069,1.069,0,0,0,0,2.137h4.274a1.068,1.068,0,1,1,0,2.137H775.288A1.069,1.069,0,0,1,774.219,4864.795Zm39.107-16.028v2.137h-6.411v-2.137Zm-3.206,8.548a3.208,3.208,0,0,1-3.205-3.205v-1.069h6.411v1.069A3.209,3.209,0,0,1,810.12,4857.315Z"/><path class="a" d="M802.651,4833.746a1.07,1.07,0,0,0,0,1.912l2.531,1.265,1.265,2.531a1.07,1.07,0,0,0,.956.59h0a1.068,1.068,0,0,0,.955-.59l1.267-2.531,2.529-1.265a1.069,1.069,0,0,0,0-1.912l-2.529-1.265-1.267-2.531a1.068,1.068,0,0,0-1.911,0l-1.265,2.531Zm3.8.487a1.063,1.063,0,0,0,.478-.478l.469-.938.47.939a1.069,1.069,0,0,0,.477.477l.938.469-.938.468a1.071,1.071,0,0,0-.477.478l-.47.939-.469-.938a1.07,1.07,0,0,0-.478-.479l-.937-.468Z"/><path class="a" d="M768.937,4829.359a1.068,1.068,0,0,0-.955.591l-1.265,2.531-2.531,1.265a1.069,1.069,0,0,0,0,1.912l2.531,1.265,1.265,2.531a1.07,1.07,0,0,0,.955.59h0a1.07,1.07,0,0,0,.955-.59l1.266-2.531,2.53-1.265a1.069,1.069,0,0,0,0-1.912l-2.53-1.265-1.266-2.531A1.069,1.069,0,0,0,768.937,4829.359Zm.948,5.811a1.066,1.066,0,0,0-.477.478l-.47.939-.469-.939a1.068,1.068,0,0,0-.478-.478l-.937-.468.937-.469a1.066,1.066,0,0,0,.478-.477l.469-.939.47.939a1.059,1.059,0,0,0,.477.477l.937.469Z"/></g></svg>