<svg xmlns="http://www.w3.org/2000/svg" width="63.6" height="63.6" viewBox="0 0 63.6 63.6"><defs><style>.a{fill:#ff7e02;}</style></defs><g transform="translate(-783.835 -5533.84)"><rect class="a" width="2.12" height="2.12" transform="translate(814.575 5563.52)"/><rect class="a" width="6.36" height="2.12" transform="translate(812.455 5567.76)"/><path class="a" d="M837.95,5586.837a7.448,7.448,0,0,1-8.415-5.232,6.35,6.35,0,0,0-5.341,5.341,6.064,6.064,0,0,0-2.279,0,6.35,6.35,0,0,0-12.561,0,6.064,6.064,0,0,0-2.279,0,11.138,11.138,0,0,0-20.06,6.254v3.18a1.06,1.06,0,0,0,1.06,1.06h10.6a1.061,1.061,0,0,0,1.06-1.06v-3.18a6.379,6.379,0,0,0-.1-1.06h2.311a6.378,6.378,0,0,0-.1,1.06v3.18a1.06,1.06,0,0,0,1.06,1.06h10.6a1.061,1.061,0,0,0,1.06-1.06v-3.18a6.379,6.379,0,0,0-.1-1.06h2.311a6.384,6.384,0,0,0-.095,1.06v3.18a1.06,1.06,0,0,0,1.06,1.06h10.6a1.061,1.061,0,0,0,1.06-1.06v-3.18a6.27,6.27,0,0,0-.1-1.06h2.311a6.378,6.378,0,0,0-.1,1.06v3.18a1.06,1.06,0,0,0,1.06,1.06h10.6a1.061,1.061,0,0,0,1.06-1.06v-3.18A6.335,6.335,0,0,0,837.95,5586.837Zm-40.335,8.483h-8.48v-2.12a4.24,4.24,0,1,1,8.48,0Zm5.1-5.3h-3.841a6.4,6.4,0,0,0-2.3-2.308,4.224,4.224,0,0,1,8.442,0A6.4,6.4,0,0,0,802.715,5590.02Zm9.74,5.3h-8.48v-2.12a4.24,4.24,0,1,1,8.48,0Zm5.1-5.3h-3.841a6.4,6.4,0,0,0-2.3-2.308,4.224,4.224,0,0,1,8.442,0A6.4,6.4,0,0,0,817.555,5590.02Zm9.74,5.3h-8.48v-2.12a4.24,4.24,0,1,1,8.48,0Zm5.1-5.3h-3.841a6.4,6.4,0,0,0-2.3-2.308,4.224,4.224,0,0,1,8.442,0A6.4,6.4,0,0,0,832.4,5590.02Zm9.74,5.3h-8.48v-2.12a4.24,4.24,0,1,1,8.48,0Z"/><path class="a" d="M846.375,5533.84H784.9a1.059,1.059,0,0,0-1.06,1.06v4.24a1.06,1.06,0,0,0,1.06,1.06h2.12v28.62a1.06,1.06,0,0,0,1.06,1.06H807.55l.489,3.18h-.884a1.059,1.059,0,0,0-1.06,1.06v4.24a1.06,1.06,0,0,0,1.06,1.06h16.96a1.061,1.061,0,0,0,1.06-1.06v-4.24a1.06,1.06,0,0,0-1.06-1.06h-.884l.488-3.18H843.2a1.061,1.061,0,0,0,1.06-1.06V5540.2h2.12a1.061,1.061,0,0,0,1.06-1.06v-4.24A1.06,1.06,0,0,0,846.375,5533.84Zm-23.32,43.46h-14.84v-2.12h14.84Zm-14.664-15.9h14.488l-1.794,11.66h-10.9Zm-3.589-2.12-.53-2.12H827l-.53,2.12Zm37.333,8.48H824.046l.978-6.36h2.271a1.061,1.061,0,0,0,1.028-.8l1.06-4.24a1.057,1.057,0,0,0-1.028-1.316h-2.12v-3.18a1.06,1.06,0,0,0-.311-.75l-2.127-2.128a3.139,3.139,0,0,0,.318-1.362,3.18,3.18,0,1,0-3.18,3.18,3.139,3.139,0,0,0,1.362-.318l1.818,1.816v2.742h-16.96V5552.3l1.817-1.816a3.14,3.14,0,0,0,1.363.318,3.18,3.18,0,1,0-3.18-3.18,3.111,3.111,0,0,0,.318,1.362l-2.129,2.128a1.06,1.06,0,0,0-.309.75v3.18h-2.12a1.061,1.061,0,0,0-1.029,1.316l1.06,4.24a1.061,1.061,0,0,0,1.029.8h2.27l.978,6.36H789.135V5540.2h53Zm-20.14-20.14a1.06,1.06,0,1,1-1.06-1.06A1.061,1.061,0,0,1,821.995,5547.62Zm-12.72,0a1.06,1.06,0,1,1,1.06,1.06A1.059,1.059,0,0,1,809.275,5547.62Zm36.04-9.54h-59.36v-2.12h59.36Z"/></g></svg>