<svg xmlns="http://www.w3.org/2000/svg" width="35.824" height="31.358" viewBox="0 0 35.824 31.358"><defs><style>.a{fill:none;stroke:#ff7e02;stroke-linejoin:round;stroke-width:2px;}</style></defs><g transform="translate(-304.744 -3006.643)"><path class="a" d="M335.11,3014.72c0-1.585,0-3.169,0-4.754a2.23,2.23,0,0,0-2.326-2.323q-11.731-.009-23.462,0c-2.409.007-4.176,2.576-3.332,4.541a1.585,1.585,0,0,1,.064,1.2,5.932,5.932,0,0,0-.264,2.644q-.023,9.2-.008,18.406c0,1.811.819,2.641,2.628,2.506.718-.053,1.417.029,2.125.029,8.394-.009,16.788-.04,25.182.025a2.283,2.283,0,0,0,2.4-2.155,46.6,46.6,0,0,0-.075-5.967"/><path class="a" d="M330.863,3014.72v-3.284a2.606,2.606,0,0,0-1.214-.154c-6.371,0-12.743.024-19.114-.019a6.7,6.7,0,0,0-4.349,1.131"/><path class="a" d="M338.043,3022.1a30,30,0,0,0,.069-5.156c-.054-1.315-1.45-2.248-3.1-2.1-1.959.171-3.913.044-5.868.06-6.2.051-12.407-.059-18.607.068a5.811,5.811,0,0,1-4.35-1.566"/><path class="a" d="M309.22,3015.225v21.44"/><path class="a" d="M338.043,3022.2a2.466,2.466,0,0,1-1.213.207c-1.686-.01-3.371,0-5.057,0a3.059,3.059,0,0,0-.5,6.057,46.911,46.911,0,0,0,5.358.113,5.2,5.2,0,0,1,1.116.087,1.468,1.468,0,0,0,1.808-1.4c.037-1.213-.014-2.428.017-3.641.025-1-.755-1.14-1.424-1.416"/><path class="a" d="M332.683,3026.754c1.232-.441,1.613-1.534.809-2.326a1.447,1.447,0,0,0-1.914.108c-.4.487-.563,1.532.2,1.915.269.136.539.27.809.405"/></g></svg>