<svg xmlns="http://www.w3.org/2000/svg" width="80.554" height="80.554" viewBox="0 0 80.554 80.554"><defs><style>.a{fill:#ff7e02;}</style></defs><g transform="translate(-293.733 -5744.558)"><path class="a" d="M348.512,5760.759a1.188,1.188,0,0,0,1.189-1.188h0V5752.6a1.189,1.189,0,1,0-2.379,0v6.968a1.189,1.189,0,0,0,1.188,1.189Z"/><path class="a" d="M369.019,5770.118h-6.757v-16.553a1.192,1.192,0,0,0-1.19-1.19h-7.294v-6.627a1.19,1.19,0,0,0-1.19-1.19H315.432a1.19,1.19,0,0,0-1.19,1.19v6.627h-7.294a1.19,1.19,0,0,0-1.189,1.19v16.553H299a5.274,5.274,0,0,0-5.269,5.268v32.432a5.274,5.274,0,0,0,5.269,5.268H314.24v10.836a1.19,1.19,0,0,0,1.19,1.19h37.16a1.19,1.19,0,0,0,1.19-1.19v-10.836h15.239a5.274,5.274,0,0,0,5.268-5.268v-32.432A5.274,5.274,0,0,0,369.019,5770.118Zm-9.137-15.363v15.363h-6.1v-15.363Zm-43.261-7.818H351.4v23.181H316.621Zm-8.483,7.818h6.1v15.363h-6.1Zm0,55.952V5798.6h6.1v12.107Zm8.481,12.025V5798.6H351.4v24.132Zm37.161-12.025V5798.6h6.1v12.107Zm18.128-2.889a2.893,2.893,0,0,1-2.889,2.889h-6.757v-13.3a1.191,1.191,0,0,0-1.19-1.19H306.948a1.189,1.189,0,0,0-1.189,1.19v13.3H299a2.893,2.893,0,0,1-2.89-2.889v-32.432A2.893,2.893,0,0,1,299,5772.5h70.017a2.893,2.893,0,0,1,2.889,2.889Z"/><path class="a" d="M317.922,5778.272H301.041a1.189,1.189,0,1,0,0,2.379h16.881a1.189,1.189,0,0,0,0-2.379Z"/><path class="a" d="M344.207,5802H323.813a1.189,1.189,0,0,0,0,2.379h20.394a1.189,1.189,0,0,0,0-2.379Z"/><path class="a" d="M344.207,5808.117H323.813a1.189,1.189,0,0,0,0,2.379h20.394a1.189,1.189,0,0,0,0-2.379Z"/><path class="a" d="M344.207,5814.235H323.813a1.189,1.189,0,0,0,0,2.379h20.394a1.189,1.189,0,0,0,0-2.379Z"/><path class="a" d="M364.94,5776.233a3.229,3.229,0,1,0,3.229,3.229h0A3.233,3.233,0,0,0,364.94,5776.233Zm0,4.079a.85.85,0,1,1,.85-.85A.851.851,0,0,1,364.94,5780.312Z"/><path class="a" d="M356.868,5776.233a3.229,3.229,0,1,0,3.229,3.229h0A3.233,3.233,0,0,0,356.868,5776.233Zm0,4.079a.85.85,0,1,1,.849-.85A.85.85,0,0,1,356.868,5780.312Z"/><path class="a" d="M348.8,5776.233a3.229,3.229,0,1,0,3.229,3.232A3.23,3.23,0,0,0,348.8,5776.233Zm0,4.079a.85.85,0,1,1,.85-.85v0A.851.851,0,0,1,348.8,5780.312Z"/></g></svg>