<svg xmlns="http://www.w3.org/2000/svg" width="73.385" height="63.6" viewBox="0 0 73.385 63.6"><defs><style>.a{fill:#ff7e02;}</style></defs><g transform="translate(-1011.629 -5744.476)"><path class="a" d="M1078.9,5751.814h-27.959a3.668,3.668,0,0,1-3.058-1.63l-1.979-2.987a6.1,6.1,0,0,0-5.09-2.721h-23.067a6.122,6.122,0,0,0-6.116,6.115v51.369a6.124,6.124,0,0,0,6.116,6.116H1078.9a6.124,6.124,0,0,0,6.115-6.116v-44.03A6.124,6.124,0,0,0,1078.9,5751.814Zm-64.823-1.223a3.669,3.669,0,0,1,3.67-3.669h23.067a3.668,3.668,0,0,1,3.058,1.63l1.982,2.986a6.1,6.1,0,0,0,5.087,2.722h27.96a3.67,3.67,0,0,1,3.669,3.67v2.446c-.047-.035-.1-.06-.149-.094-.1-.073-.209-.135-.316-.2a6.022,6.022,0,0,0-.636-.346c-.122-.056-.245-.109-.367-.158a6.271,6.271,0,0,0-.725-.225c-.115-.029-.228-.065-.345-.087a6.025,6.025,0,0,0-1.131-.112h-61.154a5.97,5.97,0,0,0-1.134.115c-.122.022-.23.057-.345.086a6.186,6.186,0,0,0-.725.226c-.123.048-.245.1-.367.157a6.309,6.309,0,0,0-.636.346c-.106.067-.214.129-.316.2-.047.034-.1.06-.149.094Zm68.493,51.369a3.67,3.67,0,0,1-3.67,3.67h-61.153a3.67,3.67,0,0,1-3.67-3.67v-36.692a3.669,3.669,0,0,1,3.67-3.669H1078.9a3.669,3.669,0,0,1,3.669,3.669v36.692Z"/><path class="a" d="M1063.84,5778.91a15.9,15.9,0,0,0-31.037,0,11.007,11.007,0,0,0,2.065,21.827h26.907a11.008,11.008,0,0,0,2.065-21.827Zm-2.065,19.381h-26.907a8.561,8.561,0,0,1-.9-17.08l.93-.1.15-.922a13.454,13.454,0,0,1,26.549,0l.15.922.93.1a8.561,8.561,0,0,1-.9,17.08Z"/><path class="a" d="M1052.646,5788.568l-3.1,3.1v-12.947a1.224,1.224,0,0,0-2.447,0v12.947l-3.1-3.1a1.223,1.223,0,1,0-1.76,1.7c.01.009.019.02.03.03l5.19,5.19a1.223,1.223,0,0,0,1.729,0l5.19-5.19a1.223,1.223,0,0,0-1.73-1.729Z"/></g></svg>