<svg xmlns="http://www.w3.org/2000/svg" width="61.329" height="61.329" viewBox="0 0 61.329 61.329"><defs><style>.a{fill:#ff7e02;}</style></defs><g transform="translate(-783.353 -5744.476)"><path class="a" d="M843.484,5769.211h-9.822v-2.536a1.2,1.2,0,0,0-1.2-1.2H806.591a1.2,1.2,0,1,0,0,2.4h24.675v9.183A22.824,22.824,0,0,1,820,5796.7H797.01a22.824,22.824,0,0,1-11.262-19.645v-9.183h8.026a1.2,1.2,0,1,0,0-2.4h-9.223a1.2,1.2,0,0,0-1.2,1.2v10.381A25.112,25.112,0,0,0,792.8,5796.7h-8.248a1.2,1.2,0,0,0-1.2,1.2,7.914,7.914,0,0,0,7.9,7.905h37.373a7.915,7.915,0,0,0,7.906-7.905,1.2,1.2,0,0,0-1.2-1.2H824.215a25.319,25.319,0,0,0,5.547-6.189h3.381a11.552,11.552,0,0,0,11.539-11.539v-8.565A1.2,1.2,0,0,0,843.484,5769.211ZM834.01,5799.1a5.521,5.521,0,0,1-5.379,4.312H791.258a5.519,5.519,0,0,1-5.378-4.312h48.13Zm-.348-22.041v-.658h3.833v2.575a4.357,4.357,0,0,1-4.352,4.352h-.272A25.209,25.209,0,0,0,833.662,5777.056Zm8.624,1.917a9.153,9.153,0,0,1-9.143,9.143H831.1a25.258,25.258,0,0,0,1.023-2.4h1.016a6.755,6.755,0,0,0,6.747-6.748V5775.2a1.2,1.2,0,0,0-1.2-1.2h-5.031v-2.4h8.624Z"/><path class="a" d="M809.651,5751.1l-.623-.782a3.122,3.122,0,0,1,0-3.9,1.2,1.2,0,1,0-1.877-1.489,5.507,5.507,0,0,0,.006,6.886l.623.782a4.08,4.08,0,0,1,0,5.1l-.638.8a1.2,1.2,0,0,0,1.876,1.489l.639-.805A6.466,6.466,0,0,0,809.651,5751.1Z"/><path class="a" d="M816.291,5753.8l-.624-.783a3.122,3.122,0,0,1,0-3.9,1.2,1.2,0,0,0-1.876-1.489,5.507,5.507,0,0,0,.005,6.886l.624.782a4.083,4.083,0,0,1,0,5.1l-.639.8a1.2,1.2,0,1,0,1.877,1.489l.638-.8A6.465,6.465,0,0,0,816.291,5753.8Z"/><path class="a" d="M803.012,5753.8l-.624-.783a3.122,3.122,0,0,1,0-3.9,1.2,1.2,0,0,0-1.877-1.489,5.508,5.508,0,0,0,.006,6.886l.624.782a4.081,4.081,0,0,1,0,5.1l-.639.8a1.2,1.2,0,0,0,1.877,1.49l.638-.805A6.465,6.465,0,0,0,803.012,5753.8Z"/><path class="a" d="M801.354,5765.828a1.2,1.2,0,1,0,.351.847A1.206,1.206,0,0,0,801.354,5765.828Z"/><path class="a" d="M826.714,5775.859a1.2,1.2,0,0,0-1.2,1.2,17.161,17.161,0,0,1-4.948,11.989,1.2,1.2,0,1,0,1.7,1.686,19.574,19.574,0,0,0,5.642-13.675A1.2,1.2,0,0,0,826.714,5775.859Z"/><path class="a" d="M818.555,5792.3a1.2,1.2,0,0,0-1.632-.455l-.027.015a1.2,1.2,0,1,0,1.177,2.087l.027-.015A1.2,1.2,0,0,0,818.555,5792.3Z"/></g></svg>