<svg xmlns="http://www.w3.org/2000/svg" width="37.907" height="37.771" viewBox="0 0 37.907 37.771"><defs><style>.a{fill:none;stroke:#ff7e02;stroke-linejoin:round;stroke-width:2px;}</style></defs><g transform="translate(-761.493 -3001.566)"><path class="a" d="M793.4,3014.237c-.924-1.819,0-3.2,1.238-4.489-.835-1.439-2.087-2.292-3.121-3.471-1.944,1.241-3.436,2.866-6.167,1.589-2.647-1.237-1.732-3.543-2.618-5.3H778.08c-.772,1.787.037,4.032-2.561,5.3-2.763,1.351-4.221-.38-5.883-1.424l-3.213,3.212c.226,1.567,2.8,2.364,1.906,4.58"/><path class="a" d="M780.433,3026.557c-1.153-.5-2.289-1.052-3.463-1.5a1.941,1.941,0,0,0-2.779,1.718c-.078,3.818-.026,7.639-.026,11.563H786.7c0-3.924.052-7.745-.026-11.563a1.951,1.951,0,0,0-2.781-1.723c-1.093.4-2.164.858-3.245,1.29"/><path class="a" d="M784.54,3013.589c.241,2.432.784,4.847-1.272,6.941a4.239,4.239,0,0,1-6.973-2.18,20.82,20.82,0,0,1,.052-5.408,2.126,2.126,0,0,1,2.142-2.139c1.944-.091,3.895-.024,5.8-.024.34,2.513-.353,3.4-2.564,3.451-1.729.037-3.458.007-5.187.007"/><path class="a" d="M766.816,3027.638c-3.446-1.042-4.323-.384-4.323,3.242v7.457h8.646c0-3.059.088-6.018-.032-8.969-.076-1.864-1.59-2.509-4.075-1.946"/><path class="a" d="M794.05,3027.638c-3.446-1.042-4.323-.384-4.323,3.242v7.457h8.646c0-3.059.088-6.018-.032-8.969-.077-1.864-1.59-2.509-4.075-1.946"/><path class="a" d="M780.433,3026.773c.373,2.524-1.295,4.667-1.32,7.133-.014,1.37-.265,2.738-.409,4.107"/><path class="a" d="M766.816,3027.854v10.159"/><path class="a" d="M794.05,3027.854v10.159"/><path class="a" d="M780.865,3029.8c1.123,1.785.841,3.931,1.495,5.842a16.574,16.574,0,0,1,.451,2.372"/><path class="a" d="M765.736,3017.047a5.326,5.326,0,0,0-1.931,5.615,3.092,3.092,0,0,0,3.227,2.141,2.922,2.922,0,0,0,2.806-2.785c.029-.5-.035-1.012.011-1.512.163-1.775-.423-2.913-2.383-3.043a7.622,7.622,0,0,1-1.514-.416"/><path class="a" d="M793.618,3017.263c-2.736,1.3-3.657,4.9-1.734,6.705a3.361,3.361,0,0,0,3.438.566,2.715,2.715,0,0,0,1.8-2.73c.083-2.35-.815-4.6-3.288-4.541"/></g></svg>