<svg xmlns="http://www.w3.org/2000/svg" width="36.928" height="42.39" viewBox="0 0 36.928 42.39"><defs><style>.a{fill:none;stroke:#ff7e02;stroke-linejoin:round;stroke-width:2px;}</style></defs><g transform="translate(-39.774 -38.733)"><g transform="translate(-262 -2385)"><g transform="translate(0 -414)"><path class="a" d="M336.736,2839.709q-7.038,3.484-14.074,6.971-10.218,5.091-20.423,10.208"/><path class="a" d="M333.424,2837.984c-.121.474.164.575.549.7,2.947.958,3.06,1.2,2.073,4.268"/><path class="a" d="M331.354,2849.989c-.69.115-.55.651-.55,1.1q0,13.247-.009,26.494c0,1.067.388,1.588,1.526,1.532,1.239-.062,2.483-.011,3.725-.015,1.414,0,1.652-.23,1.653-1.655q.009-11.109,0-22.216v-5.244h-6.21"/><path class="a" d="M317.28,2857.164c-.691.115-.55.651-.55,1.1,0,6.44,0,12.879-.01,19.319,0,1.067.388,1.585,1.526,1.532,1.331-.062,2.667-.013,4-.015,1.306,0,1.505-.176,1.513-1.517.017-2.944.005-5.888.005-8.832q0-5.035,0-10.073a2.7,2.7,0,0,0-.2-1.518h-6.139"/><path class="a" d="M303.067,2864.34c-.436.391-.268.911-.27,1.38q-.016,5.795-.005,11.591c0,1.794.008,1.794,1.793,1.794,1.288,0,2.577-.039,3.863.013.842.034,1.347-.406,1.355-1.118.05-4.507.025-9.016.025-13.66H303.2"/></g></g></g></svg>