<svg xmlns="http://www.w3.org/2000/svg" width="56.222" height="56.2" viewBox="0 0 56.222 56.2"><defs><style>.a{fill:#ff7e02;}</style></defs><g transform="translate(-250.389 -4606.412)"><path class="a" d="M253.251,4628.4a2.759,2.759,0,0,0,2.76,3.289h1.43a14.488,14.488,0,0,0,10.751,9.863v3.256h-3.748a12.089,12.089,0,0,0-4.054.708.762.762,0,0,0-.09.033,12.192,12.192,0,0,0-8.037,11.44v2.812a2.813,2.813,0,0,0,2.811,2.81h33.734a2.812,2.812,0,0,0,2.81-2.81v-2.812a12.19,12.19,0,0,0-8.037-11.44.7.7,0,0,0-.09-.033,12.089,12.089,0,0,0-4.054-.708h-3.748v-3.256a14.5,14.5,0,0,0,10.752-9.863h1.429a2.742,2.742,0,0,0,2.767-3.238c.109-.091.222-.173.332-.271a6.682,6.682,0,0,0,2.524-4.924c0-2.742-2.114-5.276-5.95-7.17a19.012,19.012,0,0,0-1.814-5.973,6.994,6.994,0,0,0-6.657-3.684,7.6,7.6,0,0,0-3.852,1.38c-.215.153-.418.323-.618.492a3.827,3.827,0,0,1-.858.609,4.444,4.444,0,0,1-1.719.29h-.084a4.491,4.491,0,0,1-1.809-.293,3.84,3.84,0,0,1-.853-.606c-.2-.169-.4-.339-.622-.495a7.588,7.588,0,0,0-3.851-1.377,6.961,6.961,0,0,0-6.655,3.686,19.024,19.024,0,0,0-1.813,5.971c-3.838,1.9-5.949,4.429-5.949,7.17C250.389,4625,251.847,4627.025,253.251,4628.4Zm33.328-5.946a14.654,14.654,0,0,1,.354,3.144v.469h-.188c-.014-.09-.021-.17-.036-.262-.086-.419-.19-.829-.312-1.238a1,1,0,0,0-.042-.1c-.008-.024-.005-.05-.015-.073a23.449,23.449,0,0,0-1.4-2.713A16.026,16.026,0,0,1,286.579,4622.455Zm-4.613-1.735a19.082,19.082,0,0,1,2.623,4.345c.111.368.206.738.277,1.082.052.312.105.625.134.968.015.124.029.247.037.369-.161,1.88-1.08,6.08-6.069,6.08a5.17,5.17,0,0,1-3.059-.716,8.746,8.746,0,0,0-7.937,0,5.166,5.166,0,0,1-3.059.716c-4.986,0-5.906-4.195-6.068-6.077.009-.129.022-.253.039-.4.027-.311.079-.624.126-.9.076-.375.171-.743.281-1.11a19.118,19.118,0,0,1,2.624-4.35,39.861,39.861,0,0,1,10.026-1.211A39.405,39.405,0,0,1,281.966,4620.72Zm-24.424,3.67a.562.562,0,0,0-.014.069.744.744,0,0,0-.032.07c-.127.422-.235.845-.329,1.31-.013.079-.019.151-.032.229h-.187v-.468a14.582,14.582,0,0,1,.355-3.144,15.809,15.809,0,0,1,1.643-.779A23.681,23.681,0,0,0,257.542,4624.39Zm-2.468,4.489a.915.915,0,0,1,.1-.414.814.814,0,0,1,.188-.253.9.9,0,0,1,.659-.27h.935c0,.091-.007.18-.007.272a13.239,13.239,0,0,0,.081,1.435c.007.057.02.111.027.167h-1.045A.938.938,0,0,1,255.074,4628.879Zm23.426,24.363h4.685v7.5H260.7v-7.5Zm-14.056-1.874h-2.811v-4.286a10.271,10.271,0,0,1,2.811-.4Zm-10.307,8.434v-2.812a10.31,10.31,0,0,1,5.622-9.169v3.807a1.87,1.87,0,0,0-.937,1.614v7.5h-3.748A.938.938,0,0,1,254.137,4659.8Zm35.607-2.812v2.812a.936.936,0,0,1-.936.936h-3.749v-7.5a1.87,1.87,0,0,0-.937-1.614v-3.807A10.309,10.309,0,0,1,289.744,4656.99Zm-7.5-9.908v4.286h-2.811v-4.685A10.271,10.271,0,0,1,282.248,4647.082Zm-8.433,1.475a.937.937,0,1,0,1.874,0v-1.874h1.874v4.685H266.318v-4.685h1.874v1.874a.938.938,0,0,0,1.875,0v-6.681a14.5,14.5,0,0,0,3.748,0Zm-1.874-8.434a13.485,13.485,0,0,1-11.246-5.775,7.953,7.953,0,0,0,4.218,1.09,6.951,6.951,0,0,0,3.968-.951,6.888,6.888,0,0,1,6.119,0,6.951,6.951,0,0,0,3.968.951,7.962,7.962,0,0,0,4.216-1.088A13.482,13.482,0,0,1,271.941,4640.123Zm15.929-10.307h-1.045c.007-.059.021-.113.028-.172a12.906,12.906,0,0,0,.08-1.43c0-.09-.005-.182-.007-.272h.944a.9.9,0,0,1,.659.278.931.931,0,0,1-.659,1.6Zm-28.06-18.829a5.1,5.1,0,0,1,4.869-2.688,5.808,5.808,0,0,1,2.9,1.037c.174.124.335.262.5.4a5.473,5.473,0,0,0,1.291.883,6.226,6.226,0,0,0,2.579.458h.1a6.148,6.148,0,0,0,2.48-.457,5.494,5.494,0,0,0,1.294-.884c.161-.136.323-.274.492-.4a5.809,5.809,0,0,1,2.9-1.04,5.109,5.109,0,0,1,4.869,2.685,15.988,15.988,0,0,1,1.428,4.209c-.315-.12-.64-.239-.989-.357-.023-.008-.047-.015-.071-.021a42.781,42.781,0,0,0-24.989,0c-.025.006-.05.014-.075.022-.349.119-.674.238-.989.357A15.975,15.975,0,0,1,259.81,4610.987Zm-2.225,6.575a22.22,22.22,0,0,1,2.331-.931.7.7,0,0,0,.067-.02,40.89,40.89,0,0,1,23.916,0c.021.007.042.013.064.019a22.2,22.2,0,0,1,2.341.936c3.377,1.57,5.314,3.645,5.314,5.691a5.008,5.008,0,0,1-1.9,3.527,2.707,2.707,0,0,0-.914-.545c0-.294,0-.569,0-.64a16.637,16.637,0,0,0-.5-3.992l0-.006a.918.918,0,0,0-.429-.573l-.005,0a20.808,20.808,0,0,0-5.122-2.043,41.074,41.074,0,0,0-10.812-1.346,41.588,41.588,0,0,0-10.8,1.343,20.831,20.831,0,0,0-5.132,2.046l-.005,0a.924.924,0,0,0-.429.573l0,.006a16.584,16.584,0,0,0-.5,3.992c0,.071,0,.346,0,.639a2.691,2.691,0,0,0-.843.486,6.451,6.451,0,0,1-1.969-3.467C252.263,4621.211,254.2,4619.136,257.585,4617.562Z"/><path class="a" d="M264.444,4656.053a.937.937,0,1,1-.937-.937A.937.937,0,0,1,264.444,4656.053Z"/><path class="a" d="M281.311,4656.053a.937.937,0,1,1-.937-.937A.937.937,0,0,1,281.311,4656.053Z"/><path class="a" d="M289.744,4639.186v8.434a2.816,2.816,0,0,0,2.812,2.811h2.811v10.307a1.875,1.875,0,0,0,1.874,1.874h1.874a1.875,1.875,0,0,0,1.874-1.874v-10.307H303.8a2.814,2.814,0,0,0,2.811-2.811v-8.434a7.5,7.5,0,0,0-7.5-7.5h-1.874A7.506,7.506,0,0,0,289.744,4639.186Zm7.5-5.622h1.874a5.629,5.629,0,0,1,5.622,5.622v8.434a.939.939,0,0,1-.937.937h-2.811v-2.811a.937.937,0,0,0-1.874,0v14.992h-1.874v-14.992a.937.937,0,1,0-1.874,0v2.811h-2.811a.939.939,0,0,1-.938-.937v-8.434A5.63,5.63,0,0,1,297.241,4633.564Z"/><path class="a" d="M294.43,4642a.937.937,0,0,0,.937-.936v-2.812a.937.937,0,1,0-1.874,0v2.812A.936.936,0,0,0,294.43,4642Z"/></g></svg>