<svg xmlns="http://www.w3.org/2000/svg" width="41" height="41" viewBox="0 0 41 41"><defs><style>.a{fill:#fff;}</style></defs><g transform="translate(-769.5 -4624)"><path class="a" d="M809.817,4624H770.183a.683.683,0,0,0-.683.683h0v13.667h1.367v-12.984h38.266V4640.4H785.217v1.366h24.6a.683.683,0,0,0,.683-.683h0v-16.4A.683.683,0,0,0,809.817,4624Z"/><rect class="a" width="13.667" height="1.367" transform="translate(792.05 4627.417)"/><rect class="a" width="13.667" height="1.367" transform="translate(794.1 4631.516)"/><rect class="a" width="13.667" height="1.367" transform="translate(791.367 4635.616)"/><path class="a" d="M791.312,4629.891a2.2,2.2,0,0,0-2.883-1.189l-.057.025-5.541,2.874a3.416,3.416,0,1,0-5.8.6h-.028a4.688,4.688,0,0,0-4.356,3.033l-1.824,6.288a2.188,2.188,0,1,0,4.109,1.5l.715-2.274v9.89a3.406,3.406,0,0,0-4.434,5.156,3.146,3.146,0,0,0-1.716,2.792v5.726a.684.684,0,0,0,.683.684h6.834a.683.683,0,0,0,.683-.683h0v-5.726a3.141,3.141,0,0,0-1.219-2.474h5.172a3.145,3.145,0,0,0-1.22,2.474v5.726a.684.684,0,0,0,.683.684h6.834a.683.683,0,0,0,.683-.683h0v-5.726a3.147,3.147,0,0,0-1.715-2.792,3.414,3.414,0,0,0-3.068-5.788v-13.979l6.273-3.257A2.2,2.2,0,0,0,791.312,4629.891ZM779.75,4628.1a2.05,2.05,0,1,1-2.05,2.05A2.05,2.05,0,0,1,779.75,4628.1Zm-6.15,23.208a2.05,2.05,0,1,1-2.05,2.05A2.05,2.05,0,0,1,773.6,4651.308Zm2.733,12.325h-5.466v-5.043a1.792,1.792,0,0,1,1.79-1.79h1.886a1.792,1.792,0,0,1,1.79,1.79Zm10.934-5.043v5.043H781.8v-5.043a1.792,1.792,0,0,1,1.791-1.79h1.885A1.794,1.794,0,0,1,787.267,4658.59Zm-2.734-7.282a2.05,2.05,0,1,1-2.05,2.05A2.051,2.051,0,0,1,784.533,4651.308Zm5.529-20.277a.881.881,0,0,1-.516.506l-6.694,3.473a.684.684,0,0,0-.369.606v15.026a3.37,3.37,0,0,0-1.063,4.108h-.987v-11.617h-1.366v11.617h-2.354a3.38,3.38,0,0,0,.3-1.367h0V4636.3a.684.684,0,0,0-1.336-.2l-2.04,6.493a.822.822,0,0,1-1.052.492c-.03-.011-.059-.024-.088-.038a.839.839,0,0,1-.381-1.085l1.824-6.287a3.3,3.3,0,0,1,3.062-2.1h4.838a.689.689,0,0,0,.315-.076l6.791-3.526a.842.842,0,0,1,1.076.4A.832.832,0,0,1,790.062,4631.031Z"/><path class="a" d="M797.851,4655.8a3.417,3.417,0,1,0-4.832-.063l.063.063a3.147,3.147,0,0,0-1.715,2.792v5.726a.683.683,0,0,0,.683.684h6.833a.684.684,0,0,0,.684-.683h0v-5.726A3.146,3.146,0,0,0,797.851,4655.8Zm-2.384-4.49a2.05,2.05,0,1,1-2.05,2.05A2.05,2.05,0,0,1,795.467,4651.308Zm2.733,12.325h-5.467v-5.043a1.794,1.794,0,0,1,1.791-1.79h1.885a1.792,1.792,0,0,1,1.791,1.79Z"/><path class="a" d="M808.784,4655.8a3.417,3.417,0,1,0-4.831-.063l.063.063a3.146,3.146,0,0,0-1.716,2.792v5.726a.684.684,0,0,0,.683.684h6.834a.683.683,0,0,0,.683-.683h0v-5.726A3.146,3.146,0,0,0,808.784,4655.8Zm-2.384-4.49a2.05,2.05,0,1,1-2.05,2.05A2.05,2.05,0,0,1,806.4,4651.308Zm2.733,12.325h-5.466v-5.043a1.792,1.792,0,0,1,1.79-1.79h1.886a1.792,1.792,0,0,1,1.79,1.79Z"/></g></svg>