<svg xmlns="http://www.w3.org/2000/svg" width="50.26" height="48.002" viewBox="0 0 50.26 48.002"><defs><style>.a{fill:#ff7e02;}</style></defs><path class="a" d="M552.953,4617.321H549.4l-3-3.936a.982.982,0,0,0-.781-.387H519.893a.983.983,0,0,0-.761.361l-3.228,3.962h-3.861a4.679,4.679,0,0,0-4.674,4.673v26.828a4.68,4.68,0,0,0,4.674,4.675h14.8l-.564,1.908h-2.826a2.8,2.8,0,1,0,0,5.6h18.084a2.8,2.8,0,1,0,0-5.6h-2.826l-.564-1.908h14.8a4.681,4.681,0,0,0,4.676-4.675v-26.828A4.68,4.68,0,0,0,552.953,4617.321Zm-29.564,23.428v-7.841a.819.819,0,0,1,.819-.816h4.647a.827.827,0,0,1,.817.816v7.841Zm5.466-10.619h-4.647a2.783,2.783,0,0,0-2.781,2.778v7.841h-2.713v-14.985a4.691,4.691,0,0,0,2.726-1.719,4.684,4.684,0,0,0,7.418,0,4.682,4.682,0,0,0,7.416,0,4.682,4.682,0,0,0,7.416,0,4.692,4.692,0,0,0,2.892,1.75v14.954H531.634v-7.841A2.782,2.782,0,0,0,528.855,4630.13Zm-.007-15.17-.828,5.241H522.9l2.142-5.241Zm5.447,0,.831,5.241h-5.12l.828-5.241Zm5.792,0,2.142,5.241h-5.118l-.83-5.241Zm2.438,7.2a2.728,2.728,0,0,1-5.087,0Zm-7.416,0a2.727,2.727,0,0,1-5.086,0Zm-7.415,0a2.73,2.73,0,0,1-5.09,0Zm-9.961,1.743a2.733,2.733,0,0,1-2.545-1.743h5.088A2.73,2.73,0,0,1,517.733,4623.906Zm29.666,0a2.732,2.732,0,0,1-2.545-1.743h5.09A2.731,2.731,0,0,1,547.4,4623.906Zm.735-5.013.027.036.968,1.272h-4.781l-2.142-5.241h2.934Zm-27.776-3.933h2.565l-2.142,5.241h-4.693Zm22.02,43.243a.838.838,0,0,1-.837.835H523.457a.835.835,0,1,1,0-1.671h18.084A.836.836,0,0,1,542.378,4658.2Zm-5.708-2.8h-8.342l.565-1.908h7.213Zm16.283-3.87h-40.91a2.716,2.716,0,0,1-2.712-2.714v-.922h19a.98.98,0,1,0,0-1.961h-19v-23.944a2.714,2.714,0,0,1,2.712-2.711h2.263l-1.039,1.274a.986.986,0,0,0-.223.648,4.7,4.7,0,0,0,3.708,4.559v14.985H513.89a.981.981,0,1,0,0,1.962H551.1a.981.981,0,1,0,0-1.962h-2.561v-15.023a4.7,4.7,0,0,0,3.544-4.5.987.987,0,0,0-.2-.637l-.992-1.3h2.057a2.715,2.715,0,0,1,2.714,2.711v23.944H536.4a.98.98,0,1,0,0,1.961h19.268v.923A2.716,2.716,0,0,1,552.953,4651.535Z" transform="translate(-507.369 -4612.998)"/></svg>