<svg xmlns="http://www.w3.org/2000/svg" width="44.485" height="45.067" viewBox="0 0 44.485 45.067"><defs><style>.a{fill:#ff7e02;}</style></defs><g transform="translate(-1026.015 -4621.466)"><path class="a" d="M1049.364,4621.466a21.163,21.163,0,0,0-21.125,21.125,16.788,16.788,0,0,0,.074,1.927l1.482-.148a14.293,14.293,0,0,1-.074-1.779,19.643,19.643,0,1,1,20.384,19.643l1.631-1.631-1.038-1.038-3.484,3.484,3.484,3.484,1.038-1.038-1.779-1.779a21.129,21.129,0,0,0-.593-42.25Z"/><path class="a" d="M1063.077,4630.36h-26.685V4643.7h26.685Zm-1.483,11.86h-23.719v-10.377h23.719Z"/><path class="a" d="M1049.734,4640a2.965,2.965,0,1,0-2.964-2.965A2.973,2.973,0,0,0,1049.734,4640Zm0-4.448a1.483,1.483,0,1,1-1.482,1.483A1.487,1.487,0,0,1,1049.734,4635.549Z"/><path class="a" d="M1040.84,4634.808h1.482v-1.483h-2.965v2.965h1.483Z"/><path class="a" d="M1042.322,4639.255h-1.482v-1.482h-1.483v2.965h2.965Z"/><path class="a" d="M1060.112,4637.773h-1.483v1.482h-1.482v1.483h2.965Z"/><path class="a" d="M1058.629,4636.29h1.483v-2.965h-2.965v1.483h1.482Z"/><path class="a" d="M1043.063,4636.29h2.224v1.483h-2.224Z"/><path class="a" d="M1054.182,4636.29h2.224v1.483h-2.224Z"/><path class="a" d="M1030.462,4653.339h1.483v2.224h-1.483Z"/><path class="a" d="M1063.077,4651.782a2.785,2.785,0,0,0-2.743-2.742,2.533,2.533,0,0,0-.741.074l-8.969,2.594c-.074,0-.222.074-.3,0l-2.076-.371a3.023,3.023,0,0,0,1.186-4,2.908,2.908,0,0,0-2.594-1.557h-9.34a2.087,2.087,0,0,0-1.112.3l-1.482.963v-1.111h-8.9v12.6h8.9v-1.854l7.338,3.04a2.055,2.055,0,0,0,1.482.074l17.346-5.411A2.631,2.631,0,0,0,1063.077,4651.782Zm-29.65,5.263h-5.93v-9.636h2.965v4.447h1.483v-4.447h1.482Zm9.933,1.334a.633.633,0,0,1-.519,0l-7.931-3.335v-6.3l2.223-1.26a.56.56,0,0,1,.371-.074h9.266a1.482,1.482,0,0,1,0,2.965h-5.189v.741l-.148.741,8.524,1.409a2.141,2.141,0,0,0,.964-.074l8.969-2.595a1.264,1.264,0,0,1,1.556.89,1.221,1.221,0,0,1-.815,1.556Z"/></g></svg>