<svg xmlns="http://www.w3.org/2000/svg" width="94.35" height="75.508" viewBox="0 0 94.35 75.508"><defs><style>.a{fill:#ff7e02;}</style></defs><g transform="translate(-524.779 -5521.932)"><path class="a" d="M602.786,5541.564a25.146,25.146,0,0,0-46.32-7.035h-.234a20.488,20.488,0,0,0-20.1,16.783,17.3,17.3,0,0,0,5.943,33.546h6.291v-3.146h-6.291a14.155,14.155,0,0,1-4.089-27.706,1.572,1.572,0,0,0,1.1-1.3,17.326,17.326,0,0,1,17.143-15.031c.247,0,.489.017.731.033l.315.02a1.539,1.539,0,0,0,1.485-.838,22,22,0,0,1,41.135,6.252,1.572,1.572,0,0,0,1.216,1.258,18.873,18.873,0,0,1-3.99,37.312h-1.573v3.146h1.573a22.019,22.019,0,0,0,5.662-43.294Z"/><path class="a" d="M590.833,5565.984H553.087a1.573,1.573,0,0,0-1.573,1.573v28.31a1.573,1.573,0,0,0,1.573,1.573h37.746a1.573,1.573,0,0,0,1.573-1.573v-28.31A1.573,1.573,0,0,0,590.833,5565.984Zm-1.573,28.31h-34.6v-15.727h34.6Zm0-18.873h-34.6v-1.573h34.6Zm0-4.718h-34.6v-1.573h34.6Z"/><path class="a" d="M586.17,5582.939a4.717,4.717,0,0,0-3.2-1.227h0a4.682,4.682,0,0,0-3.145,1.227,4.719,4.719,0,1,0,0,6.983,4.718,4.718,0,1,0,6.347-6.983ZM576.678,5588a1.573,1.573,0,1,1,1.573-1.573A1.573,1.573,0,0,1,576.678,5588Zm6.291,0a1.573,1.573,0,1,1,1.573-1.573A1.573,1.573,0,0,1,582.969,5588Z"/><rect class="a" width="9.437" height="3.146" transform="translate(557.805 5588.003)"/></g></svg>