<svg xmlns="http://www.w3.org/2000/svg" width="85" height="85.142" viewBox="0 0 85 85.142"><defs><style>.a{fill:#ff6f00;}</style></defs><g transform="translate(-0.003 0.001)"><g transform="translate(6.725 8.959)"><g transform="translate(0 0)"><rect class="a" width="19" height="2" transform="translate(0.278 0.182)"/></g></g><g transform="translate(6.725 14.561)"><g transform="translate(0 0)"><rect class="a" width="19" height="3" transform="translate(0.278 -0.419)"/></g></g><g transform="translate(6.725 20.162)"><g transform="translate(0 0)"><rect class="a" width="13" height="2" transform="translate(0.278 -0.021)"/></g></g><g transform="translate(6.725 25.764)"><g transform="translate(0 0)"><rect class="a" width="13" height="2" transform="translate(0.278 0.377)"/></g></g><g transform="translate(0.003 81.78)"><g transform="translate(0 0)"><rect class="a" width="85" height="3" transform="translate(0 0.361)"/></g></g><g transform="translate(5.559 -0.001)"><g transform="translate(0 0)"><path class="a" d="M107.925,12.138,102.249.785a1.419,1.419,0,0,0-1.9-.636h0L88.992,5.826a1.42,1.42,0,0,0,1.269,2.54l8.222-4.108-2.244,6.406A75.729,75.729,0,0,1,31.323,61.021l.241,2.838A78.568,78.568,0,0,0,98.919,11.6l2.29-6.545,4.175,8.351a1.42,1.42,0,0,0,2.54-1.269Z" transform="translate(-31.323 0.001)"/></g></g><g transform="translate(5.679 68.116)"><path class="a" d="M43.356,384.006H33.422A1.419,1.419,0,0,0,32,385.425v8.514a1.419,1.419,0,0,0,1.419,1.419h9.934a1.419,1.419,0,0,0,1.419-1.419v-8.514A1.419,1.419,0,0,0,43.356,384.006Zm-1.419,8.514h-7.1v-5.676h7.1Z" transform="translate(-32.003 -384.006)"/></g><g transform="translate(21.289 63.859)"><path class="a" d="M131.356,360.006h-9.934A1.419,1.419,0,0,0,120,361.425V374.2a1.419,1.419,0,0,0,1.419,1.419h9.934a1.419,1.419,0,0,0,1.419-1.419V361.425A1.419,1.419,0,0,0,131.356,360.006Zm-1.419,12.772h-7.1v-9.934h7.1Z" transform="translate(-120.003 -360.006)"/></g><g transform="translate(36.899 56.764)"><path class="a" d="M219.356,320.006h-9.934A1.419,1.419,0,0,0,208,321.425v19.867a1.419,1.419,0,0,0,1.419,1.419h9.934a1.419,1.419,0,0,0,1.419-1.419V321.425A1.419,1.419,0,0,0,219.356,320.006Zm-1.419,19.867h-7.1V322.844h7.1Z" transform="translate(-208.003 -320.006)"/></g><g transform="translate(52.509 46.83)"><path class="a" d="M307.356,264.006h-9.934A1.419,1.419,0,0,0,296,265.425v29.8a1.419,1.419,0,0,0,1.419,1.419h9.934a1.419,1.419,0,0,0,1.419-1.419v-29.8A1.419,1.419,0,0,0,307.356,264.006Zm-1.419,29.8h-7.1V266.844h7.1Z" transform="translate(-296.003 -264.006)"/></g><g transform="translate(68.119 26.963)"><path class="a" d="M395.356,152.006h-9.934A1.419,1.419,0,0,0,384,153.425v49.668a1.419,1.419,0,0,0,1.419,1.419h9.934a1.419,1.419,0,0,0,1.419-1.419V153.425A1.419,1.419,0,0,0,395.356,152.006Zm-1.419,49.668h-7.1v-46.83h7.1Z" transform="translate(-384.003 -152.006)"/></g></g></svg>