<svg xmlns="http://www.w3.org/2000/svg" width="85.875" height="96" viewBox="0 0 85.875 96"><defs><style>.a{fill:#ff6f00;}</style></defs><g transform="translate(0 75.187)"><path class="a" d="M30.2,401.549a1.874,1.874,0,1,0,.549,1.326A1.889,1.889,0,0,0,30.2,401.549Z" transform="translate(-27 -401)"/></g><path class="a" d="M105.492,21.748l0,0L92.99,13.3a11.3,11.3,0,0,0-7.985-1.815,8.909,8.909,0,0,0,.186-1.81A8.773,8.773,0,0,0,82.6,3.434l-.848-.848A8.83,8.83,0,0,0,69.269,15.074l.848.848a8.784,8.784,0,0,0,3.75,2.229L61.252,27.657a5.222,5.222,0,0,0-1.728,2.277,5.21,5.21,0,0,0-2.79.2L44.512,34.492a8.781,8.781,0,0,0,.693-3.43v-1.2a8.83,8.83,0,0,0-17.661,0v1.2a8.837,8.837,0,0,0,4.726,7.815A8.646,8.646,0,0,0,27,46.823V69.187a1.875,1.875,0,0,0,3.75,0V65.756h7.4a1.866,1.866,0,0,0,1.053-.324l8.479-5.755A5.009,5.009,0,0,1,55.5,63.821v11.62l-5.25,2.1V68.156a1.875,1.875,0,0,0-2.837-1.609l-9.5,5.683A3.949,3.949,0,0,0,36,75.6V92.25H30.75V84.378a1.875,1.875,0,0,0-3.75,0v9.746A1.875,1.875,0,0,0,28.875,96h9a1.875,1.875,0,0,0,1.875-1.875V75.6a.181.181,0,0,1,.088-.155L46.5,71.463V94.125A1.875,1.875,0,0,0,48.375,96H111a1.875,1.875,0,0,0,1.875-1.875V35.385A16.231,16.231,0,0,0,105.492,21.748ZM72.769,13.271l-.848-.848a5.08,5.08,0,1,1,7.185-7.184l.848.848a5.08,5.08,0,0,1-7.185,7.185ZM63.508,30.651l18.6-14.015a7.563,7.563,0,0,1,8.781-.226l10.394,7.021L92.112,30.81l-7.194-4.86a1.874,1.874,0,0,0-1.76-.181L64.968,33.218a1.5,1.5,0,0,1-1.839-.612l-.005-.009A1.485,1.485,0,0,1,63.508,30.651Zm-32.214.41v-1.2a5.08,5.08,0,1,1,10.161,0v1.2a5.08,5.08,0,1,1-10.161,0ZM42,49.187V59l-4.43,3.007H30.75V46.823a4.888,4.888,0,0,1,3.238-4.594l24-8.566a1.487,1.487,0,0,1,1.342,2.626L42.813,47.642A1.875,1.875,0,0,0,42,49.187Zm8.491,5.875a8.724,8.724,0,0,0-4.741,1.4V50.174l15.709-10.8a5.206,5.206,0,0,0,1.907-2.414,5.281,5.281,0,0,0,1.06.109,5.17,5.17,0,0,0,1.963-.386L83.65,29.62l7.45,5.033a6.8,6.8,0,0,1,2.649,5.367V54.75H90.062a1.876,1.876,0,0,0-1.147.391l-18.638,14.4L59.25,73.949V63.821A8.769,8.769,0,0,0,50.491,55.062ZM109.125,92.25H50.25V81.582l21.663-8.654a1.873,1.873,0,0,0,.451-.257L90.7,58.5h18.422Zm0-37.5h-3.75V39.962a1.875,1.875,0,1,0-3.75,0V54.75H97.5V40.019a10.574,10.574,0,0,0-2.461-6.751l9.46-7.61a12.489,12.489,0,0,1,4.626,9.726Z" transform="translate(-27)"/><g transform="translate(68.75 66.062)"><path class="a" d="M399.917,352.333h-4.375a1.875,1.875,0,0,0,0,3.75h2.5v7.25a1.875,1.875,0,0,0,3.75,0v-9.125A1.875,1.875,0,0,0,399.917,352.333Z" transform="translate(-393.667 -352.333)"/></g><g transform="translate(73.125 82.503)"><path class="a" d="M420.2,440.57a1.874,1.874,0,1,0,.549,1.325A1.889,1.889,0,0,0,420.2,440.57Z" transform="translate(-417 -440.02)"/></g></svg>