<?xml version="1.0" encoding="utf-8"?>
<!-- Generator: Adobe Illustrator 24.0.1, SVG Export Plug-In . SVG Version: 6.00 Build 0)  -->
<svg version="1.1" id="Layer_1" xmlns="http://www.w3.org/2000/svg" xmlns:xlink="http://www.w3.org/1999/xlink" x="0px" y="0px"
	 viewBox="0 0 100 100" style="enable-background:new 0 0 100 100;" xml:space="preserve">
<style type="text/css">
	.st0{fill:#FF7E02;}
	.st1{fill:#F8F8F8;}
	.st2{fill:#CACACA;}
</style>
<g>
	<ellipse transform="matrix(0.1904 -0.9817 0.9817 0.1904 -7.046 88.2793)" class="st0" cx="50" cy="48.41" rx="37.71" ry="37.71"/>
	
		<ellipse transform="matrix(0.9268 -0.3756 0.3756 0.9268 -14.5228 22.3253)" class="st1" cx="50" cy="48.41" rx="30.85" ry="30.85"/>
	<path class="st2" d="M49.99,94.65c-11.8,0-23.61-4.49-32.59-13.48c-17.97-17.97-17.97-47.22,0-65.19
		c17.97-17.97,47.22-17.97,65.19,0c8.71,8.71,13.5,20.28,13.5,32.6c0,12.31-4.8,23.89-13.5,32.6C73.6,90.16,61.79,94.65,49.99,94.65
		z M49.99,4.4c-11.32,0-22.63,4.31-31.25,12.92c-17.23,17.23-17.23,45.27,0,62.5c17.23,17.23,45.27,17.23,62.5,0
		c8.35-8.35,12.94-19.45,12.94-31.25c0-11.81-4.6-22.9-12.94-31.25C72.62,8.71,61.31,4.4,49.99,4.4z"/>
	<path class="st0" d="M15.65,83.19l5.38-5.38c16.12,16.12,42.35,16.12,58.47,0l5.38,5.38C65.79,102.27,34.74,102.27,15.65,83.19z"/>
	<path d="M59.49,60.92H40.51c-0.2,0-0.35-0.16-0.35-0.35v-23.6c0-0.2,0.16-0.35,0.35-0.35h5.57v0.71h-5.21v22.89h18.27V37.32h-5.21
		v-0.71h5.57c0.2,0,0.35,0.16,0.35,0.35v23.6C59.84,60.76,59.68,60.92,59.49,60.92z"/>
	<path d="M42.42,45.5c-0.2,0-0.42-0.07-0.65-0.27l0.46-0.54c0.18,0.15,0.27,0.16,0.62-0.19c0.06-0.05,0.11-0.11,0.16-0.15
		c1.6-1.37,3.49-1.91,5.63-1.62c0.62,0.09,1.18-0.1,1.77-0.57c1.33-1.06,2.96-2.19,5.03-2.55c0.21-0.04,0.43-0.05,0.64-0.07
		c0.41-0.03,0.79-0.06,1.14-0.24l0.32,0.63c-0.46,0.23-0.94,0.27-1.4,0.31c-0.19,0.02-0.39,0.03-0.58,0.06
		c-1.91,0.33-3.45,1.4-4.71,2.4c-0.74,0.59-1.5,0.83-2.31,0.72c-1.95-0.27-3.61,0.21-5.07,1.45c-0.04,0.03-0.08,0.07-0.12,0.12
		C43.17,45.18,42.84,45.5,42.42,45.5z"/>
	<rect x="42.32" y="56.84" width="15.37" height="0.71"/>
	<path d="M53.43,38.97h-7.04c-0.2,0-0.35-0.16-0.35-0.35v-3.29c0-0.2,0.16-0.35,0.35-0.35h7.09c0.17,0,0.32,0.12,0.35,0.3l0.27,1.65
		l-0.7,0.12l-0.23-1.35h-6.44v2.59h6.47c0.07-0.19,0.05-0.39,0.04-0.62c-0.01-0.18-0.02-0.37,0-0.57l0.7,0.1
		c-0.02,0.12-0.01,0.27,0,0.42c0.02,0.34,0.05,0.77-0.22,1.21C53.67,38.9,53.56,38.97,53.43,38.97z"/>
	<rect x="42.32" y="54.96" width="8.47" height="0.71"/>
	<rect x="49.84" y="58.56" width="8.15" height="0.71"/>
	<rect x="42" y="58.56" width="6.59" height="0.71"/>
	<rect x="52.67" y="54.96" width="5.02" height="0.71"/>
	<path d="M57.68,54.02h-2.51c-0.2,0-0.35-0.16-0.35-0.35l0-2.19c0-2.77,0-5.51,0-8.24c0-0.45,0.31-0.77,0.78-0.82l0.07,0.7
		c-0.15,0.02-0.15,0.06-0.15,0.12c0,2.73,0,5.47,0,8.24l0,1.83h1.8V43.12l-1.53,0v-0.71l1.88,0c0.2,0,0.35,0.16,0.35,0.35v10.9
		C58.04,53.86,57.88,54.02,57.68,54.02z"/>
	<path d="M52.2,54.11c-0.23,0-0.5-0.01-0.8-0.02c-0.14,0-0.28-0.04-0.43-0.08c-0.08-0.02-0.16-0.04-0.27-0.07
		c-0.16-0.04-0.28-0.18-0.28-0.35l0-1.93c0-2.29,0-4.58,0-6.87c0-0.45,0.31-0.77,0.78-0.82l0.07,0.7c-0.15,0.02-0.15,0.06-0.15,0.12
		c0,2.29,0,4.57,0,6.87l0,1.65c0.01,0,0.01,0,0.02,0c0.12,0.03,0.2,0.05,0.27,0.06c0.9,0.02,1.49,0.04,1.66-0.12
		c0.17-0.17,0.17-0.78,0.17-1.71v-5.02c0-0.9,0-1.5-0.17-1.67c-0.17-0.17-0.77-0.17-1.67-0.17v-0.71c2.38,0,2.55,0.17,2.55,2.55
		v5.02c0,1.23,0,1.84-0.39,2.22C53.29,54.05,52.88,54.11,52.2,54.11z"/>
	<path d="M47.42,54.13c-0.43,0-0.75-0.11-0.99-0.32c-0.43-0.39-0.44-1.04-0.42-1.5c0.05-1.05,0.04-2.13,0.03-3.17
		c-0.01-0.61-0.01-1.22-0.01-1.83c0-0.07-0.01-0.14-0.01-0.22c-0.03-0.34-0.1-1.04,0.76-1.22l0.14,0.69
		c-0.21,0.04-0.24,0.06-0.2,0.46c0.01,0.1,0.02,0.2,0.02,0.29c-0.01,0.61,0,1.21,0,1.82c0.01,1.05,0.02,2.14-0.03,3.21
		c-0.03,0.48,0.04,0.8,0.19,0.94c0.14,0.13,0.42,0.17,0.84,0.11c0.31-0.04,0.62-0.03,0.94-0.02c0.03,0,0.06,0,0.09,0v-6.81h-1.76
		v-0.71h2.12c0.2,0,0.35,0.16,0.35,0.35v7.53c0,0.2-0.16,0.35-0.35,0.35c-0.16,0-0.31-0.01-0.46-0.01
		c-0.29-0.01-0.57-0.02-0.82,0.02C47.7,54.12,47.56,54.13,47.42,54.13z"/>
	<path d="M44.75,54.02h-2.59c-0.2,0-0.35-0.16-0.35-0.35l0-1.41c0-1.2,0-2.37,0.01-3.54c0.01-0.65,0.42-1.07,1.1-1.13l0.06,0.7
		c-0.4,0.04-0.45,0.24-0.46,0.44c-0.01,1.17-0.01,2.33-0.01,3.53l0,1.05h1.88v-4.96l-1.31-0.06l0.03-0.71l1.65,0.08
		c0.19,0.01,0.34,0.16,0.34,0.35v5.65C45.1,53.86,44.94,54.02,44.75,54.02z"/>
</g>
</svg>
