<?xml version="1.0" encoding="utf-8"?>
<!-- Generator: Adobe Illustrator 24.0.1, SVG Export Plug-In . SVG Version: 6.00 Build 0)  -->
<svg version="1.1" id="Layer_1" xmlns="http://www.w3.org/2000/svg" xmlns:xlink="http://www.w3.org/1999/xlink" x="0px" y="0px"
	 viewBox="0 0 100 100" style="enable-background:new 0 0 100 100;" xml:space="preserve">
<style type="text/css">
	.st0{fill:#FF7E02;}
	.st1{fill:#F8F8F8;}
	.st2{fill:#CACACA;}
</style>
<g>
	<path d="M50.27,46.66c0.12,0,0.23-0.05,0.32-0.13l2.96-2.84l3.06,2.41c0.17,0.13,0.4,0.13,0.56,0l4.27-3.32l-0.15,1.91
		c-0.02,0.25,0.17,0.47,0.42,0.49c0.01,0,0.02,0,0.04,0c0.24,0,0.44-0.18,0.46-0.42l0.23-2.94c0.01-0.12-0.03-0.24-0.11-0.33
		c-0.08-0.09-0.19-0.15-0.31-0.16l-3.17-0.23c-0.25-0.02-0.47,0.17-0.49,0.42c-0.02,0.25,0.17,0.47,0.42,0.49l1.98,0.14l-3.87,3.01
		l-3.09-2.44c-0.18-0.14-0.44-0.13-0.6,0.03l-3.24,3.11c-0.13,0.13-0.18,0.33-0.11,0.5C49.92,46.54,50.09,46.66,50.27,46.66z"/>
	
		<ellipse transform="matrix(0.8485 -0.5291 0.5291 0.8485 -19.1629 33.0526)" class="st0" cx="48.15" cy="50" rx="36.83" ry="36.83"/>
	<ellipse transform="matrix(0.4003 -0.9164 0.9164 0.4003 -16.9421 74.11)" class="st1" cx="48.15" cy="50" rx="30.13" ry="30.13"/>
	<path class="st2" d="M78.81,82.97c-18.18,16.91-46.72,15.87-63.63-2.31s-15.87-46.72,2.31-63.63C35.67,0.13,64.22,1.16,81.12,19.34
		S96.99,66.06,78.81,82.97z M18.76,18.39C1.33,34.6,0.34,61.97,16.55,79.4s43.57,18.42,61,2.21c17.43-16.21,18.42-43.57,2.21-61
		S36.19,2.18,18.76,18.39z"/>
	<path d="M63.33,59.7h-2.17v-11.7c0-0.25-0.22-0.43-0.48-0.43h-4.42c-0.25,0-0.48,0.18-0.48,0.43v11.7h-2.8v-9.49
		c-0.01-0.26-0.21-0.47-0.47-0.47h-4.42c-0.25,0-0.43,0.22-0.43,0.47v9.49h-2.86v-5.35c0-0.26-0.21-0.47-0.47-0.48H39.9
		c-0.25,0-0.43,0.23-0.43,0.48v5.35h-2.35V38.73c0-0.25-0.21-0.46-0.46-0.46s-0.46,0.21-0.46,0.46v21.44c0,0.12,0.05,0.23,0.14,0.32
		c0.09,0.08,0.2,0.13,0.32,0.12h26.67c0.25,0,0.46-0.21,0.46-0.46S63.59,59.7,63.33,59.7z M40.39,59.7v-4.92h3.49v4.92H40.39z
		 M48.57,59.7v-9.04h3.49v9.04H48.57z M56.7,59.7V48.48h3.55V59.7H56.7z"/>
	<path d="M43.34,47.61c-0.5,0-0.91-0.41-0.91-0.91c0-0.25-0.21-0.46-0.46-0.46s-0.46,0.21-0.46,0.46c0,0.81,0.54,1.53,1.33,1.75
		v0.42c0,0.25,0.21,0.46,0.46,0.46s0.46-0.21,0.46-0.46v-0.4c0.9-0.21,1.5-1.07,1.39-1.99c-0.11-0.92-0.89-1.61-1.81-1.61
		c-0.5,0-0.91-0.41-0.91-0.91c0-0.5,0.41-0.91,0.91-0.91c0.5,0,0.91,0.41,0.91,0.91c0,0.25,0.21,0.46,0.46,0.46s0.46-0.21,0.46-0.46
		c0-0.87-0.61-1.61-1.46-1.79v-0.4c0-0.25-0.21-0.46-0.46-0.46s-0.46,0.21-0.46,0.46v0.45c-0.86,0.27-1.39,1.13-1.25,2.02
		c0.14,0.89,0.9,1.54,1.8,1.54c0.5,0,0.91,0.41,0.91,0.91C44.25,47.2,43.85,47.61,43.34,47.61z"/>
	<path d="M43.34,51.01c3.11,0,5.64-2.52,5.64-5.64c0-3.11-2.52-5.64-5.64-5.64s-5.64,2.52-5.64,5.64
		C37.71,48.48,40.23,51.01,43.34,51.01z M43.34,40.65c2.61,0,4.72,2.11,4.72,4.72c0,2.61-2.11,4.72-4.72,4.72
		c-2.61,0-4.72-2.11-4.72-4.72C38.62,42.76,40.74,40.65,43.34,40.65z"/>
	<path class="st0" d="M76.83,88.26l-4.31-6.05c18.12-12.93,22.35-38.2,9.41-56.32l6.05-4.31C103.28,43.03,98.28,72.95,76.83,88.26z"
		/>
</g>
</svg>
