<?xml version="1.0" encoding="utf-8"?>
<!-- Generator: Adobe Illustrator 24.0.1, SVG Export Plug-In . SVG Version: 6.00 Build 0)  -->
<svg version="1.1" id="Layer_1" xmlns="http://www.w3.org/2000/svg" xmlns:xlink="http://www.w3.org/1999/xlink" x="0px" y="0px"
	 viewBox="0 0 100 100" style="enable-background:new 0 0 100 100;" xml:space="preserve">
<style type="text/css">
	.st0{fill:#FF7E02;}
	.st1{fill:#F8F8F8;}
	.st2{fill:#CACACA;}
</style>
<g>
	
		<ellipse transform="matrix(0.6015 -0.7989 0.7989 0.6015 -18.6462 59.1813)" class="st0" cx="50" cy="48.28" rx="37.46" ry="37.46"/>
	<ellipse transform="matrix(0.0441 -0.999 0.999 0.0441 -0.438 96.1053)" class="st1" cx="50" cy="48.28" rx="30.64" ry="30.64"/>
	<path class="st2" d="M29.93,89.43C7.24,78.36-2.22,50.9,8.85,28.21S47.38-3.94,70.07,7.13c22.69,11.07,32.15,38.53,21.08,61.22
		S52.62,100.5,29.93,89.43z M69.24,8.83C47.49-1.78,21.16,7.28,10.55,29.04S9,77.12,30.75,87.73c21.75,10.61,48.09,1.55,58.7-20.21
		S91,19.44,69.24,8.83z"/>
	<path class="st0" d="M24.18,89.48l4.16-6.31c18.9,12.47,44.42,7.24,56.89-11.66l6.31,4.16C76.77,98.05,46.56,104.24,24.18,89.48z"
		/>
	<path d="M57,53.14l-0.67-0.21c0.16-0.53-0.08-0.81-0.53-1.26c-0.19-0.19-0.38-0.38-0.53-0.61c-0.5-0.79-0.67-1.62-0.46-2.34
		c0.17-0.62,0.6-1.12,1.24-1.43l0.31,0.63c-0.45,0.22-0.75,0.57-0.87,0.99c-0.15,0.53-0.01,1.16,0.38,1.77
		c0.11,0.17,0.27,0.33,0.43,0.5C56.74,51.63,57.3,52.18,57,53.14z"/>
	<path d="M53.09,61.54h-5.67c-0.19,0-0.35-0.16-0.35-0.35V46.77c0-0.17,0.12-0.32,0.29-0.35c0.84-0.15,1.67-0.13,2.48-0.1
		c0.89,0.03,1.73,0.05,2.55-0.15l0.17,0.68c-0.91,0.22-1.84,0.2-2.73,0.17c-0.67-0.02-1.36-0.04-2.04,0.05v13.76h4.96v-9.51h0.7
		v9.86C53.45,61.38,53.29,61.54,53.09,61.54z"/>
	<path d="M61.79,61.54h-5.74c-0.19,0-0.35-0.16-0.35-0.35l0-2.06c0-1.74,0-3.45,0.01-5.16c0-0.24,0.03-0.6,0.28-0.83
		c0.28-0.26,0.68-0.23,1.13-0.2l0.13,0.01c1.21,0.09,2.45,0.18,3.64-0.06c-0.23-0.33-0.22-1,0.03-1.31c0.76-0.91,0.73-1.92,0.69-3.1
		c-0.02-0.47-0.03-0.96,0.01-1.46c-0.38,0.01-0.7-0.12-1-0.23c-0.43-0.16-0.7-0.25-1.03-0.12l-0.26-0.65
		c0.59-0.23,1.09-0.05,1.53,0.11c0.37,0.14,0.69,0.25,1.04,0.13c0.12-0.04,0.24-0.02,0.34,0.06c0.09,0.08,0.14,0.2,0.12,0.32
		c-0.09,0.6-0.07,1.21-0.05,1.81c0.04,1.21,0.08,2.46-0.85,3.57c-0.05,0.08-0.05,0.37,0.01,0.45c0.73,0.86,0.7,1.86,0.68,2.75
		c0,0.2-0.01,0.4-0.01,0.59c0.02,1.28,0.01,2.56,0.01,3.81l0,1.56C62.14,61.38,61.98,61.54,61.79,61.54z M56.4,60.84h5.04l0-1.21
		c0-1.25,0.01-2.52-0.01-3.79c0-0.21,0-0.41,0.01-0.62c0.02-0.64,0.03-1.26-0.22-1.82l0.03,0.13c-1.36,0.32-2.73,0.22-4.05,0.12
		l-0.09-0.01c-0.28-0.02-0.59-0.04-0.65,0.01c0,0-0.05,0.05-0.06,0.31c-0.01,1.71-0.01,3.42-0.01,5.16L56.4,60.84z"/>
	<path d="M44.78,61.54h-5.81c-0.19,0-0.35-0.16-0.35-0.35l0-1.5c0-1.2,0-2.37,0.01-3.55c0-0.25,0.04-0.6,0.29-0.83
		c0.29-0.26,0.69-0.23,1.15-0.19c1.15,0.1,2.43,0.2,3.67-0.07c-0.14-0.39-0.14-0.97,0.11-1.28c0.74-0.96,0.72-2.02,0.69-3.26
		c-0.01-0.4-0.02-0.82,0-1.24c-0.44,0.07-0.81-0.13-1.11-0.29c-0.37-0.2-0.58-0.3-0.86-0.14l-0.35-0.61
		c0.63-0.36,1.16-0.08,1.54,0.13c0.43,0.23,0.63,0.32,0.96,0.07c0.11-0.08,0.26-0.09,0.39-0.03c0.12,0.07,0.19,0.2,0.18,0.34
		c-0.06,0.59-0.05,1.18-0.04,1.74c0.03,1.31,0.06,2.55-0.84,3.71c-0.07,0.09-0.08,0.49,0.02,0.66c0.79,1.32,0.71,2.66,0.64,3.96
		c-0.05,0.8-0.09,1.56,0.07,2.29c0.02,0.1,0,0.21-0.07,0.29C44.98,61.49,44.88,61.54,44.78,61.54z M39.32,60.84h5.04
		c-0.09-0.69-0.05-1.38-0.01-2.06c0.07-1.14,0.13-2.22-0.38-3.26l0.04,0.19c-1.38,0.33-2.83,0.21-3.99,0.11
		c-0.26-0.02-0.59-0.05-0.65,0c0,0-0.06,0.05-0.06,0.32c-0.01,1.17-0.01,2.34-0.01,3.54L39.32,60.84z"/>
	<path d="M39.92,55.32l-0.67-0.21c0.16-0.53-0.08-0.81-0.53-1.26c-0.19-0.19-0.38-0.38-0.53-0.61c-0.54-0.85-0.7-1.82-0.42-2.6
		c0.21-0.58,0.65-1.01,1.24-1.2l0.21,0.67c-0.38,0.12-0.66,0.39-0.79,0.77c-0.21,0.57-0.08,1.31,0.35,1.98
		c0.11,0.17,0.27,0.33,0.43,0.49C39.66,53.8,40.22,54.36,39.92,55.32z"/>
	<rect x="47.66" y="48.34" width="5.12" height="0.7"/>
	<rect x="56.36" y="55.02" width="5.12" height="0.7"/>
	<rect x="39.28" y="57.19" width="5.12" height="0.7"/>
	<path d="M48.48,46.53l-0.7-0.02c0.03-1.12,0.02-2.05-0.55-2.91c-0.63-0.95-0.64-2.04-0.03-3.15l0.61,0.34
		c-0.48,0.88-0.48,1.69,0,2.42C48.49,44.24,48.51,45.32,48.48,46.53z"/>
	<path d="M48.86,39.2c-0.84-0.58-1.81-0.65-2.84-0.73c-0.96-0.07-1.96-0.15-2.87-0.65l0.34-0.61c0.78,0.43,1.65,0.5,2.58,0.57
		c1.08,0.08,2.2,0.16,3.19,0.85L48.86,39.2z"/>
	<path d="M52.75,50.46c-0.1-0.55-0.07-1.09-0.04-1.62c0.04-0.82,0.09-1.6-0.34-2.32c-0.26-0.45-0.25-1.23,0.3-1.81
		c0.33-0.35,0.59-0.77,0.86-1.21c0.12-0.2,0.24-0.39,0.37-0.58l0.58,0.39c-0.12,0.18-0.24,0.37-0.35,0.56
		c-0.28,0.45-0.57,0.93-0.94,1.33c-0.33,0.35-0.31,0.79-0.2,0.98c0.53,0.91,0.48,1.83,0.44,2.72c-0.03,0.51-0.05,0.99,0.03,1.46
		L52.75,50.46z"/>
	<path d="M56.86,48.88l-0.7-0.07c0.02-0.24-0.01-0.48-0.05-0.74c-0.06-0.4-0.13-0.86,0.03-1.36c0.03-0.11,0.05-0.23,0.07-0.35
		c0.07-0.41,0.19-1.11,1.07-1.11c0,0,0,0,0,0c0.33,0,0.59,0.09,0.76,0.27c0.26,0.28,0.24,0.67,0.22,0.98
		c-0.01,0.1-0.01,0.2-0.01,0.29c0.01,0.19,0.01,0.37,0.01,0.56l0,0.24h-0.7l0-0.25c0-0.17,0.01-0.34,0-0.51
		c-0.01-0.12,0-0.25,0.01-0.38c0.01-0.16,0.03-0.4-0.03-0.46c-0.02-0.02-0.1-0.05-0.25-0.05c0,0,0,0,0,0c-0.27,0-0.3,0.05-0.38,0.52
		c-0.03,0.15-0.05,0.3-0.1,0.44c-0.11,0.34-0.06,0.68,0,1.04C56.85,48.26,56.89,48.56,56.86,48.88z"/>
	<path d="M56.18,43.52c-0.08-0.24-0.22-0.35-0.5-0.39c-0.5-0.08-0.93-0.36-1.21-0.79c-0.25-0.38-0.34-0.82-0.25-1.17
		c0.1-0.38,0.09-0.67-0.02-0.86c-0.18-0.3-0.64-0.42-1.09-0.53L53,39.75c-0.9-0.23-1.63-0.72-2.28-1.15
		c-0.19-0.13-0.38-0.25-0.57-0.37c-0.5,0.32-0.57,0.79-0.65,1.38c-0.07,0.47-0.14,0.95-0.45,1.37c-0.09,0.11-0.24,0.17-0.37,0.13
		c-0.11-0.03-0.22-0.05-0.33-0.07c-0.29-0.05-0.61-0.11-0.87-0.31c-0.23-0.17-0.54-0.28-0.87-0.4c-0.74-0.27-1.65-0.6-1.77-1.85
		l0.7-0.07c0.07,0.77,0.55,0.98,1.31,1.25c0.36,0.13,0.73,0.26,1.05,0.5c0.13,0.1,0.35,0.14,0.58,0.18
		c0.04,0.01,0.09,0.02,0.13,0.02c0.12-0.25,0.16-0.55,0.21-0.86c0.1-0.68,0.22-1.52,1.2-2c0.1-0.05,0.23-0.05,0.33,0.01
		c0.26,0.15,0.51,0.32,0.78,0.49c0.63,0.42,1.29,0.85,2.07,1.05l0.1,0.03c0.56,0.14,1.2,0.3,1.53,0.85c0.22,0.36,0.25,0.82,0.1,1.4
		c-0.03,0.13,0,0.37,0.16,0.61c0.1,0.15,0.33,0.42,0.73,0.48c0.54,0.08,0.89,0.37,1.05,0.86L56.18,43.52z"/>
	<path d="M39.78,51.02h-0.7c0-0.25,0-0.49,0-0.74c-0.01-0.59-0.01-1.17,0.01-1.76c0.02-0.37,0.15-0.67,0.39-0.87
		c0.24-0.2,0.56-0.28,0.93-0.23c0.81,0.11,0.79,0.84,0.78,1.19l0,0.09c-0.01,0.32-0.01,0.64,0,0.96l0,0.42h-0.7l0-0.42
		c0-0.33,0-0.66,0-0.99l0-0.09c0.02-0.45-0.02-0.45-0.17-0.47c-0.12-0.02-0.28-0.02-0.38,0.07c-0.11,0.09-0.13,0.25-0.14,0.36
		c-0.02,0.57-0.02,1.15-0.01,1.72C39.78,50.52,39.78,50.77,39.78,51.02z"/>
	<path d="M50.65,40.81l-0.7-0.08c0.07-0.65,0.24-1.5,0.86-2.21l0.53,0.46C50.95,39.43,50.74,39.99,50.65,40.81z"/>
	<path d="M41.89,50.18c-0.08-0.28-0.05-0.59-0.01-0.89c0.03-0.28,0.07-0.62-0.04-0.71c-0.04-0.03-0.2-0.13-0.78-0.01l-0.14-0.69
		c0.67-0.13,1.11-0.08,1.39,0.18c0.37,0.33,0.31,0.85,0.26,1.31c-0.02,0.23-0.05,0.48-0.01,0.63L41.89,50.18z"/>
	<path d="M58.97,48.01c-0.08-0.28-0.04-0.59-0.01-0.89c0.03-0.28,0.06-0.62-0.04-0.71c-0.04-0.03-0.2-0.13-0.78-0.01l-0.14-0.69
		c0.67-0.13,1.11-0.08,1.39,0.18c0.37,0.33,0.31,0.85,0.26,1.31c-0.02,0.23-0.05,0.48-0.01,0.62L58.97,48.01z"/>
</g>
</svg>
