<?xml version="1.0" encoding="utf-8"?>
<!-- Generator: Adobe Illustrator 24.0.1, SVG Export Plug-In . SVG Version: 6.00 Build 0)  -->
<svg version="1.1" id="Layer_1" xmlns="http://www.w3.org/2000/svg" xmlns:xlink="http://www.w3.org/1999/xlink" x="0px" y="0px"
	 viewBox="0 0 100 100" style="enable-background:new 0 0 100 100;" xml:space="preserve">
<style type="text/css">
	.st0{fill:#FF7E02;}
	.st1{fill:#F8F8F8;}
	.st2{fill:#CACACA;}
</style>
<g>
	
		<ellipse transform="matrix(0.8546 -0.5193 0.5193 0.8546 -19.2374 34.1491)" class="st0" cx="51.36" cy="51.43" rx="37.7" ry="37.7"/>
	
		<ellipse transform="matrix(0.7071 -0.7071 0.7071 0.7071 -21.3207 51.3787)" class="st1" cx="51.36" cy="51.43" rx="30.84" ry="30.84"/>
	<path class="st2" d="M51.36,97.5c-25.41,0-46.07-20.67-46.07-46.07S25.95,5.35,51.36,5.35c25.41,0,46.08,20.67,46.08,46.08
		S76.76,97.5,51.36,97.5z M51.36,7.25C27,7.25,7.18,27.07,7.18,51.43S27,95.6,51.36,95.6c24.36,0,44.17-19.82,44.17-44.17
		S75.72,7.25,51.36,7.25z"/>
	<path class="st0" d="M10.17,51.43h-7.6C2.57,24.45,24.51,2.5,51.49,2.5v7.6C28.71,10.1,10.17,28.64,10.17,51.43z"/>
	<path d="M43.87,59.38c-0.1,0-0.19-0.04-0.26-0.11c-0.07-0.08-0.11-0.18-0.09-0.29l0.06-0.41c0.27-2,0.55-4.06,3.01-4.91l0.23,0.67
		c-2.04,0.7-2.27,2.37-2.54,4.31c2.28-0.19,3.75-0.74,4.49-2.67l0.66,0.25c-1.01,2.65-3.29,3.01-5.53,3.16
		C43.89,59.38,43.88,59.38,43.87,59.38z"/>
	<path d="M52.71,59.01c-0.4-0.54-0.09-0.99,0.08-1.23c0.08-0.12,0.16-0.23,0.15-0.3c-0.02-0.23,0-0.46,0.03-0.69
		c0.05-0.49,0.07-0.78-0.21-1c-0.2-0.16-0.28-0.13-0.62,0.13c-0.16,0.12-0.33,0.25-0.55,0.32l-0.12,0.04
		c-1,0.34-2.37,0.81-3.29-0.74c-0.25-0.42-0.65-0.82-1.07-1.06c-0.78-0.46-1.03-1.24-0.7-2.22l0.18-0.54
		c0.26-0.79,0.53-1.6,0.89-2.34c2.88-5.89,7.89-9.39,14.9-10.4c0.58-0.08,1.02,0.02,1.3,0.3c0.28,0.28,0.38,0.72,0.29,1.3
		c-0.43,2.87-1.19,5.3-2.32,7.43c-1.66,3.14-4.34,5.59-8.19,7.5c0.31,0.43,0.26,0.94,0.21,1.36c-0.02,0.2-0.04,0.38-0.03,0.54
		c0.03,0.33-0.15,0.59-0.28,0.77c-0.19,0.27-0.18,0.29-0.09,0.4L52.71,59.01z M62.75,39.66c-0.09,0-0.19,0.01-0.28,0.02
		c-6.76,0.98-11.59,4.35-14.36,10.01c-0.34,0.69-0.6,1.48-0.85,2.25l-0.18,0.54c-0.33,0.97,0.21,1.28,0.38,1.39
		c0.52,0.3,1,0.78,1.32,1.31c0.59,0.99,1.32,0.82,2.46,0.44l0.13-0.04c0.1-0.04,0.22-0.12,0.35-0.22c0.25-0.19,0.65-0.49,1.13-0.32
		c3.88-1.86,6.55-4.27,8.19-7.35c1.09-2.06,1.83-4.42,2.24-7.21c0.04-0.24,0.05-0.55-0.1-0.7C63.08,39.68,62.92,39.66,62.75,39.66z"
		/>
	<path d="M44.05,50.65l-0.68-0.19c0.07-0.27,0.14-0.54,0.21-0.8c0.31-1.21,0.62-2.45,1.49-3.53c1.49-1.84,3.07-2.1,5.12-0.82
		l-0.37,0.6c-1.75-1.09-2.92-0.91-4.19,0.66c-0.77,0.95-1.05,2.07-1.35,3.26C44.19,50.11,44.12,50.38,44.05,50.65z"/>
	<path d="M52.49,59.58L52.3,58.9c0.27-0.08,0.55-0.15,0.82-0.21c1.18-0.3,2.3-0.58,3.26-1.35c1.57-1.27,1.75-2.44,0.66-4.19
		l0.6-0.37c1.28,2.05,1.03,3.63-0.82,5.12c-1.07,0.87-2.32,1.18-3.53,1.49C53.02,59.44,52.75,59.51,52.49,59.58z"/>
	<path d="M52.12,55.43c-1.4-1.65-2.95-3.2-4.6-4.6l0.46-0.54c1.68,1.43,3.25,3,4.68,4.68L52.12,55.43z"/>
	<path d="M62.05,44.99c-1.48-1.23-2.86-2.61-4.09-4.09l0.54-0.45c1.2,1.45,2.55,2.79,4,4L62.05,44.99z"/>
	<path d="M39.49,64.26l-0.55-0.45c0.42-0.51,0.91-0.95,1.38-1.38c0.81-0.74,1.58-1.44,2.01-2.43l0.65,0.28
		c-0.49,1.13-1.35,1.91-2.19,2.67C40.32,63.38,39.87,63.79,39.49,64.26z"/>
	<path d="M43.53,64.26l-0.55-0.44c1.01-1.26,2.14-2.38,3.35-3.35l0.44,0.55C45.6,61.95,44.51,63.04,43.53,64.26z"/>
	<path d="M39.14,59.97l-0.44-0.55c1.22-0.98,2.31-2.07,3.24-3.24l0.55,0.44C41.52,57.83,40.39,58.96,39.14,59.97z"/>
	<path d="M44.2,50.31c-0.02,0-0.04,0-0.05,0l0.02-0.71c0.33,0.01,0.67-0.08,1.04-0.17c0.75-0.19,1.61-0.4,2.46,0.24l-0.42,0.57
		c-0.59-0.44-1.18-0.29-1.87-0.12C44.99,50.22,44.61,50.31,44.2,50.31z"/>
	<path d="M56.58,48.7c-0.74,0-1.41-0.37-1.92-1.08c-0.37-0.5-0.49-1.06-0.36-1.62c0.19-0.79,0.9-1.52,1.98-2.05l0.24,0.5l0.17-0.52
		c0.09,0.03,0.18,0.06,0.27,0.09c0.22,0.07,0.45,0.14,0.66,0.23c0.9,0.41,1.43,1.29,1.37,2.28c-0.06,1.03-0.8,1.85-1.89,2.1
		C56.93,48.68,56.75,48.7,56.58,48.7z M56.52,44.62c-0.85,0.43-1.4,0.98-1.54,1.55c-0.09,0.35-0.01,0.7,0.24,1.04
		c0.33,0.45,0.89,0.94,1.73,0.74c0.78-0.18,1.3-0.74,1.34-1.46c0.04-0.71-0.31-1.3-0.96-1.6c-0.18-0.08-0.38-0.14-0.57-0.2
		C56.69,44.67,56.6,44.65,56.52,44.62z"/>
</g>
</svg>
