<?xml version="1.0" encoding="utf-8"?>
<!-- Generator: Adobe Illustrator 24.0.1, SVG Export Plug-In . SVG Version: 6.00 Build 0)  -->
<svg version="1.1" id="Layer_1" xmlns="http://www.w3.org/2000/svg" xmlns:xlink="http://www.w3.org/1999/xlink" x="0px" y="0px"
	 viewBox="0 0 100 100" style="enable-background:new 0 0 100 100;" xml:space="preserve">
<style type="text/css">
	.st0{fill:#FF7E02;}
	.st1{fill:#F8F8F8;}
	.st2{fill:#CACACA;}
</style>
<g>
	
		<ellipse transform="matrix(0.1904 -0.9817 0.9817 0.1904 -10.4906 90.3085)" class="st0" cx="49.51" cy="51.51" rx="37.62" ry="37.62"/>
	
		<ellipse transform="matrix(0.9172 -0.3984 0.3984 0.9172 -16.4245 23.9881)" class="st1" cx="49.51" cy="51.51" rx="30.78" ry="30.78"/>
	<path class="st2" d="M49.51,97.5c-25.36,0-45.99-20.63-45.99-45.99S24.15,5.53,49.51,5.53c25.36,0,45.99,20.63,45.99,45.99
		S74.86,97.5,49.51,97.5z M49.51,7.43C25.2,7.43,5.42,27.2,5.42,51.51S25.2,95.6,49.51,95.6c24.31,0,44.09-19.78,44.09-44.09
		S73.82,7.43,49.51,7.43z"/>
	<path class="st0" d="M96.48,36.7l-7.24,2.27c-6.82-21.7-30.01-33.8-51.71-26.99l-2.27-7.24C60.94-3.32,88.41,11.01,96.48,36.7z"/>
	<g>
		<path d="M58.82,46.37c-0.71-1.39-0.06-2.48,0.75-3.37c-0.34-0.51-0.76-0.91-1.2-1.33c-0.21-0.2-0.42-0.4-0.62-0.62
			c-0.12,0.08-0.25,0.17-0.37,0.25c-1.11,0.77-2.27,1.58-4.08,0.73c-1.41-0.66-1.57-1.73-1.7-2.67c-0.05-0.37-0.1-0.72-0.22-1.04
			h-2.81c-0.1,0.3-0.14,0.62-0.19,0.96c-0.13,0.96-0.29,2.05-1.71,2.75c-1.8,0.88-2.92,0.08-3.91-0.63
			c-0.12-0.08-0.23-0.16-0.35-0.24l-1.92,1.92c0.1,0.27,0.33,0.52,0.57,0.79c0.52,0.58,1.18,1.3,0.71,2.46l-0.65-0.26
			c0.29-0.71-0.03-1.12-0.58-1.72c-0.35-0.39-0.71-0.79-0.79-1.32c-0.02-0.11,0.02-0.22,0.1-0.3l2.27-2.27
			c0.12-0.12,0.3-0.14,0.44-0.05c0.21,0.13,0.41,0.28,0.61,0.42c0.95,0.68,1.77,1.26,3.19,0.57c1.08-0.53,1.19-1.31,1.32-2.21
			c0.06-0.45,0.13-0.91,0.32-1.36c0.06-0.13,0.18-0.21,0.32-0.21h3.28c0.13,0,0.25,0.08,0.31,0.19c0.24,0.47,0.31,0.96,0.38,1.45
			c0.13,0.88,0.24,1.63,1.3,2.13c1.44,0.67,2.29,0.08,3.38-0.67c0.21-0.14,0.42-0.29,0.64-0.43c0.15-0.09,0.34-0.07,0.46,0.06
			c0.25,0.28,0.51,0.53,0.79,0.8c0.52,0.49,1.05,1,1.45,1.7c0.08,0.14,0.06,0.31-0.05,0.42c-0.89,0.93-1.34,1.72-0.81,2.76
			L58.82,46.37z"/>
	</g>
	<g>
		<path d="M54.41,63.57h-8.84c-0.19,0-0.35-0.16-0.35-0.35c0-0.79,0-1.58-0.01-2.36c-0.01-1.99-0.01-3.88,0.02-5.8
			c0.01-0.57,0.28-1.07,0.73-1.38c0.48-0.32,1.12-0.38,1.71-0.16c0.58,0.22,1.16,0.48,1.71,0.73c0.23,0.1,0.45,0.2,0.68,0.3
			l-0.05-0.13l0.7-0.28c0.53-0.22,1.06-0.43,1.6-0.63c0.6-0.22,1.24-0.15,1.72,0.17c0.44,0.3,0.7,0.8,0.71,1.37
			c0.04,1.93,0.03,3.81,0.02,5.8c0,0.78-0.01,1.57-0.01,2.36C54.76,63.41,54.61,63.57,54.41,63.57z M45.92,62.86h8.14
			c0-0.67,0-1.34,0.01-2.01c0.01-1.99,0.01-3.87-0.02-5.79c-0.01-0.34-0.15-0.62-0.41-0.8c-0.29-0.2-0.69-0.23-1.08-0.09
			c-0.53,0.19-1.05,0.41-1.57,0.62l-0.71,0.29l-0.17-0.43l-0.25,0.58c-0.25-0.11-0.5-0.22-0.75-0.34c-0.55-0.25-1.11-0.5-1.67-0.72
			c-0.38-0.14-0.77-0.11-1.07,0.08c-0.26,0.18-0.41,0.46-0.42,0.81c-0.04,1.92-0.03,3.8-0.02,5.79
			C45.92,61.52,45.92,62.19,45.92,62.86z"/>
	</g>
	<g>
		<path d="M50.06,51.8c-0.33,0-0.67-0.05-1.01-0.15c-1.21-0.36-2.1-1.31-2.33-2.46c-0.21-1.05-0.12-2.07-0.03-3.06
			c0.02-0.28,0.05-0.56,0.07-0.85c0.07-1.07,0.79-1.79,1.85-1.84c0.97-0.05,1.96-0.04,2.91-0.03c0.4,0,0.8,0.01,1.2,0.01
			c0.18,0,0.33,0.13,0.35,0.31c0.13,0.94,0.06,1.58-0.23,2.04l0.41-0.04c0.02,0.18,0.04,0.36,0.06,0.54
			c0.18,1.57,0.36,3.2-1.06,4.64C51.66,51.49,50.89,51.8,50.06,51.8z M47.36,46.57c-0.07,0.84-0.11,1.65,0.06,2.48
			c0.18,0.9,0.88,1.64,1.84,1.93c0.93,0.28,1.86,0.07,2.48-0.57c1.18-1.2,1.02-2.59,0.86-4.07c-0.01-0.09-0.02-0.18-0.03-0.27
			c-0.36,0.32-0.89,0.47-1.65,0.49c-0.85,0.02-1.7,0.01-2.54,0.01L47.36,46.57z M47.42,45.86l0.95,0c0.84,0,1.68,0.01,2.53-0.01
			c0.66-0.01,1.06-0.14,1.28-0.39c0.21-0.25,0.29-0.68,0.23-1.34c-0.3,0-0.6,0-0.89-0.01c-0.94-0.01-1.92-0.02-2.87,0.02
			c-0.7,0.03-1.13,0.46-1.18,1.18C47.45,45.5,47.43,45.68,47.42,45.86z"/>
	</g>
	<g>
		<path d="M43.43,63.57h-6.1c-0.19,0-0.35-0.16-0.35-0.35v-5.26c0-1.49,0.22-2.26,0.76-2.66c0.54-0.4,1.33-0.39,2.75,0.04l-0.2,0.68
			c-1.14-0.34-1.79-0.39-2.12-0.15c-0.33,0.24-0.47,0.89-0.47,2.1v4.91h5.39c0-0.53,0.01-1.05,0.01-1.57
			c0.01-1.51,0.03-2.94-0.03-4.39c-0.02-0.42-0.15-0.71-0.4-0.9c-0.4-0.3-1.11-0.35-2.05-0.14l-0.16-0.69
			c1.17-0.27,2.05-0.17,2.63,0.27c0.42,0.32,0.65,0.81,0.67,1.44c0.06,1.47,0.05,2.9,0.03,4.42c-0.01,0.63-0.01,1.27-0.01,1.92
			C43.78,63.41,43.63,63.57,43.43,63.57z"/>
	</g>
	<g>
		<path d="M62.65,63.57h-6.1c-0.19,0-0.35-0.16-0.35-0.35v-5.26c0-1.49,0.22-2.26,0.76-2.66c0.54-0.4,1.33-0.39,2.75,0.04l-0.2,0.68
			c-1.14-0.34-1.79-0.39-2.12-0.15c-0.33,0.24-0.47,0.89-0.47,2.1v4.91h5.39c0-0.53,0.01-1.05,0.01-1.57
			c0.01-1.51,0.03-2.94-0.03-4.39c-0.02-0.42-0.15-0.71-0.4-0.9c-0.4-0.3-1.1-0.35-2.05-0.14l-0.16-0.69
			c1.17-0.27,2.05-0.18,2.63,0.27c0.42,0.32,0.65,0.81,0.67,1.44c0.06,1.47,0.05,2.9,0.03,4.42C63,61.93,63,62.57,63,63.22
			C63,63.41,62.84,63.57,62.65,63.57z"/>
	</g>
	<g>
		<path d="M49.12,63.03l-0.7-0.07c0.03-0.3,0.07-0.61,0.11-0.91c0.08-0.64,0.17-1.31,0.18-1.96c0.01-0.83,0.26-1.6,0.5-2.35
			c0.29-0.89,0.56-1.73,0.43-2.63l0.7-0.1c0.16,1.07-0.16,2.03-0.46,2.95c-0.24,0.73-0.46,1.41-0.47,2.13
			c-0.01,0.69-0.1,1.37-0.18,2.04C49.19,62.43,49.15,62.73,49.12,63.03z"/>
	</g>
	<g>
		<rect x="40.03" y="55.82" width="0.71" height="7.17"/>
	</g>
	<g>
		<rect x="59.24" y="55.82" width="0.71" height="7.17"/>
	</g>
	<g>
		<path d="M51.32,63.05c-0.03-0.18-0.06-0.36-0.08-0.54c-0.05-0.38-0.11-0.75-0.22-1.08c-0.19-0.57-0.28-1.16-0.36-1.73
			c-0.12-0.83-0.23-1.62-0.66-2.31l0.6-0.38c0.52,0.82,0.64,1.72,0.76,2.59c0.08,0.56,0.15,1.1,0.33,1.6
			c0.14,0.4,0.19,0.81,0.25,1.21c0.02,0.17,0.05,0.35,0.08,0.52L51.32,63.05z"/>
	</g>
	<g>
		<path d="M40.52,54.02c-1.31,0-2.23-0.62-2.6-1.75c-0.48-1.49,0.12-3.28,1.48-4.35l0.33,0.42l0.14-0.48
			c0.12,0.03,0.24,0.07,0.35,0.11c0.23,0.08,0.44,0.15,0.64,0.17c0.71,0.05,1.24,0.27,1.58,0.67c0.37,0.43,0.51,1.04,0.43,1.86
			c-0.02,0.18-0.01,0.36-0.01,0.53c0,0.17,0.01,0.35,0,0.52c-0.07,1.26-1.12,2.29-2.33,2.3C40.53,54.02,40.53,54.02,40.52,54.02z
			 M39.74,48.55c-1.04,0.88-1.52,2.33-1.15,3.49c0.34,1.05,1.27,1.27,1.94,1.27c0.85,0,1.58-0.74,1.63-1.63c0.01-0.15,0-0.31,0-0.46
			c-0.01-0.21-0.01-0.41,0.01-0.62c0.06-0.62-0.03-1.06-0.27-1.34c-0.21-0.25-0.57-0.39-1.09-0.43c-0.29-0.02-0.56-0.11-0.82-0.2
			C39.91,48.61,39.82,48.58,39.74,48.55z"/>
	</g>
	<g>
		<path d="M59.52,53.99c-0.66,0-1.23-0.22-1.69-0.66c-0.66-0.62-0.94-1.53-0.79-2.51c0.19-1.2,0.99-2.27,2.1-2.79l0.3,0.64
			c-0.9,0.43-1.56,1.3-1.71,2.26c-0.12,0.75,0.09,1.44,0.58,1.89c0.64,0.6,1.48,0.51,2.08,0.32c0.63-0.2,0.99-0.77,1.02-1.6
			c0.04-1.03-0.21-1.89-0.69-2.37c-0.32-0.32-0.75-0.48-1.27-0.47L59.43,48c0.72-0.02,1.33,0.21,1.79,0.67
			c0.62,0.63,0.94,1.65,0.89,2.89c-0.04,1.14-0.59,1.96-1.52,2.25C60.22,53.93,59.86,53.99,59.52,53.99z"/>
	</g>
</g>
</svg>
