<svg xmlns="http://www.w3.org/2000/svg" width="96" height="96" viewBox="0 0 96 96"><defs><style>.a{fill:#ff6f00;}</style></defs><g transform="translate(38.4 22.4)"><path class="a" d="M201.6,112a9.6,9.6,0,1,0,9.6,9.6A9.6,9.6,0,0,0,201.6,112Zm0,16a6.4,6.4,0,1,1,6.4-6.4A6.4,6.4,0,0,1,201.6,128Z" transform="translate(-192 -112.001)"/></g><g transform="translate(24.874)"><g transform="translate(0 0)"><path class="a" d="M164.648,45.84a20.428,20.428,0,0,0-1.668-1.5L163,44.3A39.166,39.166,0,0,0,148.425.3a1.6,1.6,0,0,0-1.859,0,39.166,39.166,0,0,0-14.571,44l.016.046a20.428,20.428,0,0,0-1.646,30.387,1.6,1.6,0,0,0,1.131.469,1.621,1.621,0,0,0,.506-.082,1.6,1.6,0,0,0,1.078-1.291l1.208-8.454A1.6,1.6,0,0,1,135.87,64h4.874l-1.216,6.08A1.6,1.6,0,0,0,141.1,72h12.8a1.6,1.6,0,0,0,1.568-1.92L154.247,64h4.874a1.6,1.6,0,0,1,1.582,1.374l1.208,8.453a1.6,1.6,0,0,0,1.078,1.291,1.621,1.621,0,0,0,.506.082,1.6,1.6,0,0,0,1.131-.469A20.429,20.429,0,0,0,164.648,45.84ZM147.5,3.588A36.1,36.1,0,0,1,156.955,14.4H138.036A36.1,36.1,0,0,1,147.5,3.588ZM135.87,60.8a4.822,4.822,0,0,0-4.75,4.122l-.693,4.853a17.2,17.2,0,0,1-2.8-10.939h0a17.253,17.253,0,0,1,5.44-11.216L137.3,60.8Zm7.178,8,.96-4.8h6.976l.96,4.8Zm-2.386-8-5.267-16.387-.352-1.1A35.976,35.976,0,0,1,136.427,17.6h22.138a35.975,35.975,0,0,1,1.384,25.717l-.352,1.1L154.329,60.8Zm23.9,8.974-.693-4.853a4.822,4.822,0,0,0-4.75-4.122h-1.43l4.237-13.181a17.282,17.282,0,0,1,2.637,22.155Z" transform="translate(-124.369 0.001)"/></g></g><g transform="translate(0 65.6)"><path class="a" d="M41.6,337.473v5.216a11.094,11.094,0,0,0-11.008,2.691A12.84,12.84,0,0,0,20.8,340.8a12.6,12.6,0,0,0-3.445.48A15.919,15.919,0,0,0,1.6,328H0v3.2H1.6a12.726,12.726,0,0,1,12.7,11.427,12.824,12.824,0,0,0-3.954,3.589A15.919,15.919,0,0,0,0,342.4v3.2a12.814,12.814,0,0,1,12.8,12.8H16a15.9,15.9,0,0,0-3.36-9.782,9.631,9.631,0,0,1,3.978-3.658.062.062,0,0,0,.05-.016A9.493,9.493,0,0,1,20.8,344a9.62,9.62,0,0,1,7.8,4.051,11.951,11.951,0,0,0-1.4,5.549h3.2a8.657,8.657,0,0,1,1.333-4.622h-.01c.022-.03.053-.053.075-.085a7.973,7.973,0,0,1,9.8-2.813v4.192h3.2v-12.8Z" transform="translate(0 -328)"/></g><g transform="translate(51.2 65.6)"><path class="a" d="M299.2,331.2h1.6V328h-1.6a15.919,15.919,0,0,0-15.755,13.28A12.6,12.6,0,0,0,280,340.8a12.84,12.84,0,0,0-9.792,4.574,11.094,11.094,0,0,0-11.008-2.691v-5.216H256v12.8h3.2v-4.187a7.973,7.973,0,0,1,9.8,2.811c.022.032.053.054.075.085h-.01A8.657,8.657,0,0,1,270.4,353.6h3.2a11.951,11.951,0,0,0-1.4-5.549A9.62,9.62,0,0,1,280,344a9.495,9.495,0,0,1,4.133.947c.016.008.034.01.05.016a9.632,9.632,0,0,1,3.986,3.654A15.9,15.9,0,0,0,284.8,358.4H288a12.814,12.814,0,0,1,12.8-12.8v-3.2a15.923,15.923,0,0,0-10.346,3.816,12.824,12.824,0,0,0-3.954-3.589A12.726,12.726,0,0,1,299.2,331.2Z" transform="translate(-256 -328.001)"/></g><g transform="translate(40 45.999)"><rect class="a" width="3" height="4"/></g><g transform="translate(46 45.999)"><rect class="a" width="4" height="4"/></g><g transform="translate(53 45.999)"><rect class="a" width="3" height="4"/></g><g transform="translate(18 84.999)"><rect class="a" width="3" height="3"/></g><g transform="translate(0 58.999)"><rect class="a" width="3" height="3"/></g><g transform="translate(90 73.999)"><rect class="a" width="3" height="3"/></g><g transform="translate(77 66.999)"><rect class="a" width="3" height="3"/></g><g transform="translate(59 92.999)"><rect class="a" width="3" height="3"/></g><g transform="translate(93 55.999)"><rect class="a" width="3" height="3"/></g></svg>