<svg xmlns="http://www.w3.org/2000/svg" width="36.651" height="36.651" viewBox="0 0 36.651 36.651"><defs><style>.a{fill:#ff7e02;}</style></defs><g transform="translate(-623.238 -946.53)"><path class="a" d="M624.459,1034.181h3.665a1.223,1.223,0,0,0,1.222-1.221v-1.222h13.809a16.358,16.358,0,0,0,16.11-13.516l.265-1.5a2.293,2.293,0,0,0-3.306-2.444v-2.7h.611a.611.611,0,0,0,.432-1.043l-4.887-4.887a.61.61,0,0,0-.864,0l-1.4,1.4v-8.3a.61.61,0,0,0-.611-.611H643.4a.61.61,0,0,0-.611.611v6.719H640.31a9.955,9.955,0,0,0-1.085-1.968l1.544-3.772a1.059,1.059,0,0,0-1.451-1.354l-1.155.577-.728-.97a1.06,1.06,0,0,0-1.6-.114l-.929.929-.61-.815a1.06,1.06,0,0,0-1.6-.114l-1.172,1.172-1.762-.5a1.059,1.059,0,0,0-1.221,1.524l1.847,3.41a11.624,11.624,0,0,0-2.88,7.455v1.873a3.668,3.668,0,0,0,3.665,3.665h23.446l-1.291,2.581-3.359,1.44a3.05,3.05,0,0,0-2.914-2.188h-8.795a16.9,16.9,0,0,0-8.92,2.533v-1.311a1.223,1.223,0,0,0-1.222-1.222h-3.665a1.223,1.223,0,0,0-1.221,1.222v13.439a1.223,1.223,0,0,0,1.221,1.221Zm6.828-33.937a1.059,1.059,0,0,0,1.04-.269l1.107-1.108.611.816a1.06,1.06,0,0,0,1.6.113l.929-.929.7.929a1.056,1.056,0,0,0,1.321.312l.889-.444-1.379,3.364h-1.655l.78-1.56-1.093-.547-1.053,2.107h-1.071l-.851-1.772-1.1.53.6,1.242h-1.108l-1.736-3.207Zm6,5.838v9.163h-6.108a2.446,2.446,0,0,1-2.444-2.444v-1.873a10.338,10.338,0,0,1,2.6-6.679h6.919a6.613,6.613,0,0,1,.7,1.222H637.9a.611.611,0,0,0-.611.611Zm1.222.611h4.276v8.552h-4.276Zm13.439.253,3.412,3.412h-6.824Zm-7.941-7.583h4.887v8.909l-2.265,2.265a.611.611,0,0,0,.432,1.043h.611v3.665h-3.665Zm4.887,12.217H655v3.665H653.78V1012.8a.611.611,0,0,0-.61-.611h-2.444a.611.611,0,0,0-.611.611v2.444h-1.221Zm3.665,3.665h-1.222v-1.833h1.222Zm-14.293,4.276h8.795a1.832,1.832,0,1,1,0,3.665h-9.774v1.222h9.774a3.049,3.049,0,0,0,3.011-2.634l3.948-1.692a.6.6,0,0,0,.306-.288l1.977-3.954a1.078,1.078,0,0,1,2.025.669l-.266,1.5a15.135,15.135,0,0,1-14.907,12.506H629.346v-8.223a15.684,15.684,0,0,1,8.92-2.772Zm-13.807,0h3.665v13.439h-3.666Z" transform="translate(0 -51)"/><path class="a" d="M625.681,1021.353H626.9v1.833h-1.222Z" transform="translate(0 -51)"/><path class="a" d="M645.228,1000.584h.611v1.222h-.611Z" transform="translate(0 -51)"/><path class="a" d="M647.061,1000.584h.611v1.222h-.611Z" transform="translate(0 -51)"/><path class="a" d="M645.228,1003.028h.611v1.221h-.611Z" transform="translate(0 -51)"/><path class="a" d="M647.061,1003.028h.611v1.221h-.611Z" transform="translate(0 -51)"/><path class="a" d="M645.228,1005.471h.611v1.222h-.611Z" transform="translate(0 -51)"/><path class="a" d="M647.061,1005.471h.611v1.222h-.611Z" transform="translate(0 -51)"/><path class="a" d="M639.731,1007.914h.611v1.222h-.611Z" transform="translate(0 -51)"/><path class="a" d="M641.563,1007.914h.611v1.222h-.611Z" transform="translate(0 -51)"/><path class="a" d="M639.731,1010.358h.611v1.222h-.611Z" transform="translate(0 -51)"/><path class="a" d="M641.563,1010.358h.611v1.222h-.611Z" transform="translate(0 -51)"/><path class="a" d="M639.731,1012.8h.611v1.222h-.611Z" transform="translate(0 -51)"/><path class="a" d="M641.563,1012.8h.611v1.222h-.611Z" transform="translate(0 -51)"/><path class="a" d="M645.228,1007.914h.611v1.222h-.611Z" transform="translate(0 -51)"/><path class="a" d="M647.061,1007.914h.611v1.222h-.611Z" transform="translate(0 -51)"/><path class="a" d="M635.455,1007.3h-.611v-.611h-1.222v.611h-.611a.61.61,0,0,0-.611.61v1.833a.611.611,0,0,0,.611.611h1.833v.611H632.4v.611a.61.61,0,0,0,.611.61h.611v.611h1.222v-.611h.611a.61.61,0,0,0,.611-.61v-1.833a.611.611,0,0,0-.611-.611h-1.833v-.611h2.444v-.611A.61.61,0,0,0,635.455,1007.3Z" transform="translate(0 -51)"/><path class="a" d="M654.391,998.752h1.222v1.221h-1.222Z" transform="translate(0 -51)"/><path class="a" d="M655.613,997.53h1.222v1.222h-1.222Z" transform="translate(0 -51)"/><path class="a" d="M656.835,998.752h1.221v1.221h-1.221Z" transform="translate(0 -51)"/><path class="a" d="M655.613,999.973h1.222v1.222h-1.222Z" transform="translate(0 -51)"/><path class="a" d="M658.667,1001.806h1.222v1.222h-1.222Z" transform="translate(0 -51)"/><path class="a" d="M654.391,1003.638h1.222v1.222h-1.222Z" transform="translate(0 -51)"/><path class="a" d="M623.238,1003.028h1.221v1.221h-1.221Z" transform="translate(0 -51)"/><path class="a" d="M624.459,1001.806h1.222v1.222h-1.222Z" transform="translate(0 -51)"/><path class="a" d="M625.681,1003.028H626.9v1.221h-1.222Z" transform="translate(0 -51)"/><path class="a" d="M624.459,1004.249h1.222v1.222h-1.222Z" transform="translate(0 -51)"/><path class="a" d="M623.238,1007.914h1.221v1.222h-1.221Z" transform="translate(0 -51)"/><path class="a" d="M625.681,997.53H626.9v1.222h-1.222Z" transform="translate(0 -51)"/></g></svg>