<svg xmlns="http://www.w3.org/2000/svg" width="37.641" height="37.701" viewBox="0 0 37.641 37.701"><defs><style>.a{fill:#ff7e02;}</style></defs><g transform="translate(-42.228 -28.5)"><path class="a" d="M358.234,1008.957a1.426,1.426,0,0,0-.783-.776l-2.515-1.03a1.442,1.442,0,0,0-1.879.788l-2.863,7V1003.5a.559.559,0,0,0-.164-.4l-7.367-7.367a.559.559,0,0,0-.4-.164h-21a.56.56,0,0,0-.56.56v4.321a.56.56,0,1,0,1.119,0V996.7h19.882v6.807a.56.56,0,0,0,.56.56h6.807v13.612l-2.468,6.033a.564.564,0,0,0-.041.24l.264,5.27a.559.559,0,0,0,.938.384l1.307-1.2v3.759H321.825V1002.7a.56.56,0,1,0-1.119,0v30.02a.56.56,0,0,0,.56.56h28.368a.56.56,0,0,0,.56-.56v-5.35l1.455-1.339a.556.556,0,0,0,.139-.2l2.539-6.2a.56.56,0,0,0-1.037-.424l-2.326,5.686-3.11-1.272,4.778-11.677,3.109,1.272-1.648,4.029a.56.56,0,0,0,1.036.424l3.111-7.6A1.435,1.435,0,0,0,358.234,1008.957Zm-15.407-11.471,5.456,5.456h-5.456Zm4.9,27.284,2.516,1.029-2.356,2.169Zm9.476-15.135-1.038,2.536-3.109-1.272,1.038-2.536a.321.321,0,0,1,.418-.175l2.515,1.029a.322.322,0,0,1,.176.418Z" transform="translate(-278.478 -967.075)"/><path class="a" d="M339.339,1001.688H332.4a.56.56,0,1,0,0,1.12h6.943a.56.56,0,0,0,0-1.12Z" transform="translate(-277.772 -967.5)"/><path class="a" d="M325.036,1013.968h4.426a.56.56,0,0,0,.56-.56v-3.965l.836-1.064a.56.56,0,0,0-.881-.692l-.577.735h-4.364a.559.559,0,0,0-.56.559v4.427A.56.56,0,0,0,325.036,1013.968Zm.56-4.427h2.924l-.891,1.134-.623-.623a.56.56,0,0,0-.791.792l1.069,1.069a.557.557,0,0,0,.4.164h.033a.558.558,0,0,0,.407-.213l.782-.995v1.98H325.6Z" transform="translate(-277.772 -967.5)"/><path class="a" d="M345.31,1009.291H333.329a.56.56,0,0,0,0,1.12H345.31a.56.56,0,0,0,0-1.12Z" transform="translate(-277.772 -967.5)"/><path class="a" d="M333.329,1013.1h9.63a.56.56,0,1,0,0-1.119h-9.63a.56.56,0,1,0,0,1.119Z" transform="translate(-277.772 -967.5)"/><path class="a" d="M324.476,1020.761a.56.56,0,0,0,.56.56h4.426a.56.56,0,0,0,.56-.56V1016.8l.836-1.064a.56.56,0,0,0-.881-.692l-.577.735h-4.364a.559.559,0,0,0-.56.559Zm1.12-3.867h2.924l-.891,1.134-.623-.623a.56.56,0,0,0-.791.792l1.069,1.069a.557.557,0,0,0,.4.164h.033a.562.562,0,0,0,.407-.214l.782-.995v1.98H325.6Z" transform="translate(-277.772 -967.5)"/><path class="a" d="M345.31,1016.644H333.329a.56.56,0,0,0,0,1.12H345.31a.56.56,0,0,0,0-1.12Z" transform="translate(-277.772 -967.5)"/><path class="a" d="M333.329,1020.451h3.583a.56.56,0,1,0,0-1.119h-3.583a.56.56,0,1,0,0,1.119Z" transform="translate(-277.772 -967.5)"/><path class="a" d="M324.476,1028.114a.56.56,0,0,0,.56.56h4.426a.56.56,0,0,0,.56-.56v-4.426a.559.559,0,0,0-.56-.56h-4.426a.56.56,0,0,0-.56.56Zm1.12-3.867H328.9v3.307H325.6Z" transform="translate(-277.772 -967.5)"/><path class="a" d="M345.87,1024.557a.56.56,0,0,0-.56-.56H333.329a.56.56,0,1,0,0,1.12H345.31A.56.56,0,0,0,345.87,1024.557Z" transform="translate(-277.772 -967.5)"/><path class="a" d="M333.329,1026.684a.561.561,0,0,0,0,1.121h10.19a.561.561,0,0,0,0-1.121Z" transform="translate(-277.772 -967.5)"/></g></svg>