<svg xmlns="http://www.w3.org/2000/svg" width="36.91" height="36.771" viewBox="0 0 36.91 36.771"><g transform="translate(-385.273 -2377.066)"><path d="M416.235,2389.464c-1-1.97-.087-3.515,1.057-4.778a11.447,11.447,0,0,0-1.694-1.884c-.292-.28-.592-.567-.882-.873-.175.118-.348.238-.519.357-1.579,1.1-3.213,2.233-5.778,1.033-2-.936-2.222-2.45-2.415-3.786a7.028,7.028,0,0,0-.318-1.467h-3.98a8.1,8.1,0,0,0-.268,1.361c-.191,1.363-.407,2.907-2.42,3.891-2.558,1.25-4.144.115-5.547-.886-.163-.117-.326-.234-.49-.346l-2.726,2.726a3.9,3.9,0,0,0,.811,1.124c.744.823,1.668,1.847,1.007,3.488l-.928-.374c.407-1.009-.046-1.586-.821-2.444a3.7,3.7,0,0,1-1.116-1.877.5.5,0,0,1,.141-.425l3.213-3.213a.5.5,0,0,1,.62-.07c.294.185.581.39.871.6,1.344.96,2.5,1.79,4.525.8,1.536-.751,1.691-1.854,1.87-3.131a7.3,7.3,0,0,1,.452-1.922.5.5,0,0,1,.459-.3h4.653a.5.5,0,0,1,.446.275,6.455,6.455,0,0,1,.535,2.048c.18,1.243.336,2.317,1.85,3.024,2.041.955,3.252.115,4.784-.949.293-.2.592-.411.9-.609a.5.5,0,0,1,.645.092c.349.4.722.756,1.116,1.134a10.961,10.961,0,0,1,2.061,2.416.5.5,0,0,1-.072.6c-1.268,1.323-1.9,2.44-1.153,3.917Z"/><path d="M409.98,2413.837H397.444a.5.5,0,0,1-.5-.5q0-1.686-.008-3.348c-.011-2.826-.021-5.5.035-8.225A2.367,2.367,0,0,1,398,2399.81a2.653,2.653,0,0,1,2.427-.221c.825.316,1.639.683,2.426,1.038.32.144.639.288.96.429l-.072-.179.994-.4c.752-.307,1.5-.614,2.265-.892a2.692,2.692,0,0,1,2.44.246,2.365,2.365,0,0,1,1.012,1.937c.056,2.73.046,5.4.035,8.225,0,1.109-.009,2.224-.009,3.348A.5.5,0,0,1,409.98,2413.837Zm-12.036-1h11.537q0-1.434.008-2.852c.011-2.819.021-5.483-.035-8.2a1.359,1.359,0,0,0-.577-1.132,1.689,1.689,0,0,0-1.532-.131c-.75.273-1.49.576-2.229.878l-1,.406-.243-.609-.359.819c-.357-.156-.712-.316-1.068-.476-.774-.35-1.574-.711-2.373-1.016a1.648,1.648,0,0,0-1.51.117,1.359,1.359,0,0,0-.59,1.144c-.056,2.718-.046,5.382-.035,8.2Q397.94,2411.4,397.944,2412.837Z"/><path d="M403.816,2397.155a4.987,4.987,0,0,1-1.431-.215,4.644,4.644,0,0,1-3.3-3.493,15.331,15.331,0,0,1-.049-4.337c.034-.4.068-.8.092-1.2a2.638,2.638,0,0,1,2.618-2.608c1.382-.064,2.776-.049,4.125-.036.57.006,1.139.012,1.7.012a.5.5,0,0,1,.495.433,4.243,4.243,0,0,1-.329,2.885l.577-.058c.025.255.054.51.082.764.251,2.23.511,4.535-1.5,6.577A4.275,4.275,0,0,1,403.816,2397.155Zm-3.831-7.417a12.658,12.658,0,0,0,.08,3.516,3.65,3.65,0,0,0,2.607,2.728,3.445,3.445,0,0,0,3.518-.8c1.673-1.7,1.451-3.675,1.216-5.764-.014-.126-.029-.252-.042-.378a3.547,3.547,0,0,1-2.344.693c-1.2.026-2.4.019-3.606.013Zm.084-1,1.35,0c1.193.007,2.386.013,3.58-.013a2.376,2.376,0,0,0,1.807-.549,2.579,2.579,0,0,0,.321-1.9q-.63,0-1.268-.011c-1.333-.014-2.714-.027-4.067.035a1.632,1.632,0,0,0-1.667,1.67C400.11,2388.228,400.09,2388.483,400.069,2388.738Z"/><path d="M394.418,2413.837h-8.645a.5.5,0,0,1-.5-.5v-7.457c0-2.115.312-3.209,1.076-3.777s1.89-.549,3.891.056l-.289.957c-1.616-.488-2.542-.553-3.006-.21s-.672,1.263-.672,2.974v6.957h7.646c0-.748.009-1.489.015-2.227.019-2.142.037-4.166-.047-6.221a1.592,1.592,0,0,0-.563-1.282,3.632,3.632,0,0,0-2.9-.2l-.22-.975c1.657-.375,2.912-.247,3.73.379a2.59,2.59,0,0,1,.954,2.035c.085,2.08.067,4.116.048,6.271-.008.9-.016,1.8-.016,2.718A.5.5,0,0,1,394.418,2413.837Z"/><path d="M421.652,2413.837h-8.646a.5.5,0,0,1-.5-.5v-7.457c0-2.115.312-3.209,1.077-3.777s1.889-.549,3.891.056l-.289.957c-1.616-.488-2.544-.553-3.006-.21s-.673,1.263-.673,2.974v6.957h7.647c0-.749.008-1.492.014-2.231.02-2.141.037-4.164-.046-6.217a1.592,1.592,0,0,0-.563-1.282,3.631,3.631,0,0,0-2.9-.2l-.221-.975c1.656-.375,2.912-.248,3.731.379a2.593,2.593,0,0,1,.954,2.035c.084,2.079.067,4.113.047,6.267-.007.9-.015,1.806-.015,2.722A.5.5,0,0,1,421.652,2413.837Z"/><path d="M402.48,2413.065l-.994-.1c.045-.429.1-.858.157-1.287a23.793,23.793,0,0,0,.249-2.772,11.023,11.023,0,0,1,.714-3.324,8.1,8.1,0,0,0,.612-3.731l.989-.146a8.974,8.974,0,0,1-.651,4.188,10.137,10.137,0,0,0-.664,3.023,24.588,24.588,0,0,1-.258,2.891C402.58,2412.223,402.525,2412.644,402.48,2413.065Z"/><rect width="1" height="10.159" transform="translate(389.596 2402.854)"/><rect width="1" height="10.159" transform="translate(416.829 2402.854)"/><path d="M405.6,2413.1c-.046-.254-.083-.512-.12-.769a8.349,8.349,0,0,0-.312-1.53,13.074,13.074,0,0,1-.506-2.457,8,8,0,0,0-.939-3.28l.847-.533a8.891,8.891,0,0,1,1.082,3.675,12.191,12.191,0,0,0,.462,2.272,9.166,9.166,0,0,1,.356,1.712c.035.245.07.489.114.731Z"/><path d="M390.294,2400.3a3.559,3.559,0,0,1-3.685-2.487,5.8,5.8,0,0,1,2.1-6.162l.467.594.2-.682c.168.048.335.106.5.163a3.692,3.692,0,0,0,.908.235,3.075,3.075,0,0,1,2.236.951,3.419,3.419,0,0,1,.612,2.637,6.6,6.6,0,0,0-.008.758c.007.246.013.492,0,.737a3.435,3.435,0,0,1-3.3,3.256Zm-1.11-7.748a4.829,4.829,0,0,0-1.623,4.953,2.649,2.649,0,0,0,2.749,1.795,2.421,2.421,0,0,0,2.308-2.314c.013-.217.006-.435,0-.653a7.517,7.517,0,0,1,.012-.876,2.513,2.513,0,0,0-.377-1.9,2.109,2.109,0,0,0-1.541-.6,4.5,4.5,0,0,1-1.169-.287C389.423,2392.633,389.3,2392.592,389.184,2392.555Z"/><path d="M417.223,2400.262a3.4,3.4,0,0,1-2.4-.93,3.957,3.957,0,0,1-1.119-3.564,5.369,5.369,0,0,1,2.981-3.956l.428.9a4.36,4.36,0,0,0-2.421,3.208,2.97,2.97,0,0,0,.817,2.681,2.9,2.9,0,0,0,2.946.453,2.223,2.223,0,0,0,1.449-2.271,4.591,4.591,0,0,0-.976-3.363,2.353,2.353,0,0,0-1.8-.66l-.026-1a3.293,3.293,0,0,1,2.537.956,5.487,5.487,0,0,1,1.264,4.1,3.191,3.191,0,0,1-2.15,3.19A5.146,5.146,0,0,1,417.223,2400.262Z"/></g></svg>