<svg xmlns="http://www.w3.org/2000/svg" width="39.935" height="32.339" viewBox="0 0 39.935 32.339"><g transform="translate(-920.926 -2001.062)"><path d="M960.2,2413.075h-3.145V2396.13a.653.653,0,0,0-.691-.621h-6.4a.661.661,0,0,0-.7.621v16.945H945.2v-13.733a.7.7,0,0,0-.685-.685h-6.4a.65.65,0,0,0-.623.685v13.733h-4.143v-7.751a.711.711,0,0,0-.679-.7h-6.4a.669.669,0,0,0-.629.7v7.751h-3.4v-30.35a.663.663,0,1,0-1.326,0v31.036a.647.647,0,0,0,.667.64h38.6a.663.663,0,1,0,0-1.326Zm-33.223,0v-7.126h5.054v7.126Zm11.849,0v-13.092h5.054v13.092Zm11.766,0v-16.241h5.137v16.241Z" transform="translate(0 -381)"/><path d="M931.258,2395.578a1.316,1.316,0,0,1-1.314-1.314.663.663,0,0,0-1.326,0,2.644,2.644,0,0,0,1.92,2.539v.611a.662.662,0,1,0,1.325,0v-.581a2.639,2.639,0,0,0-.6-5.208,1.314,1.314,0,1,1,1.314-1.314.662.662,0,1,0,1.325,0,2.642,2.642,0,0,0-2.116-2.587v-.584a.663.663,0,0,0-1.326,0v.657a2.639,2.639,0,0,0,.8,5.154,1.313,1.313,0,1,1,0,2.627Z" transform="translate(0 -381)"/><path d="M931.258,2400.5a8.164,8.164,0,1,0-8.164-8.164A8.164,8.164,0,0,0,931.258,2400.5Zm0-15a6.839,6.839,0,1,1-6.839,6.838A6.837,6.837,0,0,1,931.258,2385.5Z" transform="translate(0 -381)"/></g></svg>