<svg xmlns="http://www.w3.org/2000/svg" width="27.828" height="36.698" viewBox="0 0 27.828 36.698"><g transform="translate(-558.449 -1996.737)"><g transform="translate(0 -381)"><path d="M585.777,2414.435H558.949a.5.5,0,0,1-.5-.5v-33.37a.5.5,0,0,1,.5-.5h7.871v1h-7.371v32.37h25.828v-32.37h-7.371v-1h7.871a.5.5,0,0,1,.5.5v33.37A.5.5,0,0,1,585.777,2414.435Z"/></g><g transform="translate(0 -381)"><path d="M561.65,2392.635a1.413,1.413,0,0,1-.918-.38l.646-.764c.259.218.378.22.872-.266.08-.077.154-.15.224-.21a9.721,9.721,0,0,1,7.96-2.285,3.149,3.149,0,0,0,2.5-.8,15.756,15.756,0,0,1,7.113-3.606c.3-.051.6-.076.908-.1a4.316,4.316,0,0,0,1.608-.334l.447.9a5.134,5.134,0,0,1-1.973.435c-.275.023-.55.045-.821.091a14.843,14.843,0,0,0-6.657,3.4,4.143,4.143,0,0,1-3.26,1.012,8.655,8.655,0,0,0-7.173,2.055c-.054.047-.111.1-.172.163A1.985,1.985,0,0,1,561.65,2392.635Z"/></g><g transform="translate(0 -381)"><rect width="21.729" height="1" transform="translate(561.499 2408.668)"/></g><g transform="translate(0 -381)"><path d="M577.22,2383.393h-9.956a.5.5,0,0,1-.5-.5v-4.656a.5.5,0,0,1,.5-.5H577.3a.5.5,0,0,1,.493.418l.389,2.328-.987.164-.318-1.91h-9.109v3.656h9.144a2.214,2.214,0,0,0,.054-.874,3.736,3.736,0,0,1,.006-.8l.99.144a2.947,2.947,0,0,0,0,.594,2.644,2.644,0,0,1-.316,1.706A.5.5,0,0,1,577.22,2383.393Z"/></g><g transform="translate(0 -381)"><rect width="11.973" height="1" transform="translate(561.499 2406.007)"/></g><g transform="translate(0 -381)"><rect width="11.53" height="1" transform="translate(572.142 2411.107)"/></g><g transform="translate(0 -381)"><rect width="9.313" height="1" transform="translate(561.055 2411.107)"/></g><g transform="translate(0 -381)"><rect width="7.095" height="1" transform="translate(576.132 2406.007)"/></g><g transform="translate(0 -381)"><path d="M583.228,2404.679H579.68a.5.5,0,0,1-.5-.5v-3.093c0-3.92,0-7.786.006-11.653a1.144,1.144,0,0,1,1.107-1.161l.1.994c-.211.023-.211.087-.211.169-.007,3.866-.007,7.732-.006,11.651v2.593h2.548V2389.27h-2.161v-1l2.662,0a.5.5,0,0,1,.5.5v15.408A.5.5,0,0,1,583.228,2404.679Z"/></g><g transform="translate(0 -381)"><path d="M575.475,2404.8c-.328,0-.7-.01-1.13-.021a2.675,2.675,0,0,1-.6-.11c-.107-.028-.23-.061-.378-.094a.5.5,0,0,1-.391-.488v-2.729q0-4.866.006-9.713a1.146,1.146,0,0,1,1.108-1.161l.1.995c-.21.022-.211.087-.211.169q-.011,4.849-.006,9.709v2.338l.022.006a1.921,1.921,0,0,0,.378.078c1.268.034,2.107.058,2.347-.176s.244-1.107.244-2.422v-7.1c0-1.277,0-2.121-.242-2.362s-1.085-.242-2.362-.242v-1c3.368,0,3.6.236,3.6,3.6v7.1c0,1.735,0,2.606-.547,3.138A2.608,2.608,0,0,1,575.475,2404.8Z"/></g><g transform="translate(0 -381)"><path d="M568.722,2404.842a1.974,1.974,0,0,1-1.4-.457,2.658,2.658,0,0,1-.594-2.118c.077-1.485.063-3.007.049-4.479-.008-.865-.016-1.73-.007-2.594a3.058,3.058,0,0,0-.02-.31,1.361,1.361,0,0,1,1.073-1.727l.2.979c-.3.063-.333.089-.28.655.013.142.025.282.024.413-.009.858,0,1.716.007,2.574.014,1.487.029,3.025-.05,4.54a1.764,1.764,0,0,0,.272,1.331,1.523,1.523,0,0,0,1.191.158,7.843,7.843,0,0,1,1.327-.031l.123,0v-9.633H568.15v-1h2.994a.5.5,0,0,1,.5.5v10.643a.5.5,0,0,1-.5.5c-.226,0-.444-.007-.656-.014a7.119,7.119,0,0,0-1.16.022A4.607,4.607,0,0,1,568.722,2404.842Z"/></g><g transform="translate(0 -381)"><path d="M564.936,2404.679h-3.659a.5.5,0,0,1-.5-.5l0-1.989c0-1.692-.005-3.346.01-5a1.553,1.553,0,0,1,1.555-1.6l.091,1c-.564.051-.643.34-.646.616-.015,1.65-.013,3.3-.01,4.989v1.49h2.66v-7.008l-1.852-.086.046-1,2.328.108a.5.5,0,0,1,.478.5v7.986A.5.5,0,0,1,564.936,2404.679Z"/></g></g></svg>