<svg xmlns="http://www.w3.org/2000/svg" width="35.803" height="35.806" viewBox="0 0 35.803 35.806"><g transform="translate(-222.098 -1998.1)"><g transform="translate(0 -381)"><path d="M229.424,2408a.5.5,0,0,1-.495-.569l.078-.576c.381-2.826.775-5.749,4.259-6.939l.323.947c-2.887.986-3.217,3.351-3.587,6.094,3.224-.271,5.309-1.049,6.347-3.779l.935.355c-1.427,3.754-4.65,4.265-7.828,4.466Z"/></g><g transform="translate(0 -381)"><path d="M241.924,2407.473a1.34,1.34,0,0,1,.118-1.737c.118-.166.229-.322.22-.425a4.733,4.733,0,0,1,.041-.971c.077-.69.1-1.1-.3-1.419-.288-.228-.4-.184-.88.182a2.832,2.832,0,0,1-.773.459l-.177.06c-1.412.484-3.345,1.146-4.657-1.048a4.47,4.47,0,0,0-1.51-1.5,2.424,2.424,0,0,1-.986-3.144l.253-.764a26.486,26.486,0,0,1,1.256-3.31c4.072-8.329,11.162-13.278,21.072-14.712a1.776,1.776,0,0,1,2.26,2.263,32.331,32.331,0,0,1-3.278,10.514c-2.352,4.436-6.144,7.91-11.581,10.611a2.6,2.6,0,0,1,.3,1.923,4,4,0,0,0-.039.77,1.623,1.623,0,0,1-.4,1.093c-.268.379-.248.407-.133.56Zm14.211-27.374a2.772,2.772,0,0,0-.393.031c-9.564,1.383-16.4,6.148-20.317,14.161a25.725,25.725,0,0,0-1.205,3.184l-.256.771c-.463,1.372.295,1.815.544,1.961a5.446,5.446,0,0,1,1.864,1.854c.836,1.4,1.871,1.164,3.474.615l.179-.061a2.038,2.038,0,0,0,.491-.31,1.7,1.7,0,0,1,1.595-.456c5.482-2.636,9.271-6.038,11.585-10.4a31.32,31.32,0,0,0,3.173-10.194,1.263,1.263,0,0,0-.137-.983A.848.848,0,0,0,256.135,2380.1Z"/></g><g transform="translate(0 -381)"><path d="M229.672,2395.656l-.964-.267c.105-.378.2-.758.3-1.137a12.291,12.291,0,0,1,2.107-4.99c2.108-2.61,4.341-2.966,7.24-1.154l-.531.848c-2.475-1.547-4.137-1.286-5.931.934a11.353,11.353,0,0,0-1.916,4.608C229.877,2394.885,229.779,2395.271,229.672,2395.656Z"/></g><g transform="translate(0 -381)"><path d="M241.611,2408.291l-.268-.964c.385-.107.773-.2,1.159-.3a11.339,11.339,0,0,0,4.607-1.916c2.22-1.792,2.482-3.455.935-5.931l.848-.53c1.812,2.9,1.456,5.132-1.155,7.239a12.28,12.28,0,0,1-4.989,2.107C242.369,2408.09,241.989,2408.186,241.611,2408.291Z"/></g><g transform="translate(0 -381)"><path d="M241.1,2402.414a57.824,57.824,0,0,0-6.51-6.511l.648-.761a58.86,58.86,0,0,1,6.624,6.623Z"/></g><g transform="translate(0 -381)"><path d="M255.139,2387.645a44.649,44.649,0,0,1-5.785-5.784l.77-.64a43.517,43.517,0,0,0,5.654,5.655Z"/></g><g transform="translate(0 -381)"><path d="M223.221,2414.906l-.772-.636a19.474,19.474,0,0,1,1.951-1.954,10.494,10.494,0,0,0,2.85-3.436l.916.4a11.41,11.41,0,0,1-3.093,3.776A18.277,18.277,0,0,0,223.221,2414.906Z"/></g><g transform="translate(0 -381)"><path d="M228.944,2414.9l-.779-.628a30.775,30.775,0,0,1,4.738-4.738l.624.782A29.674,29.674,0,0,0,228.944,2414.9Z"/></g><g transform="translate(0 -381)"><path d="M222.725,2408.834l-.627-.779a29.731,29.731,0,0,0,4.583-4.583l.781.624A30.657,30.657,0,0,1,222.725,2408.834Z"/></g><g transform="translate(0 -381)"><path d="M229.89,2395.176h-.075l.021-1a5.634,5.634,0,0,0,1.466-.237,3.777,3.777,0,0,1,3.482.335l-.6.8a2.866,2.866,0,0,0-2.646-.169A6.843,6.843,0,0,1,229.89,2395.176Z"/></g><g transform="translate(0 -381)"><path d="M247.4,2392.892a3.358,3.358,0,0,1-2.722-1.521,2.705,2.705,0,0,1-.5-2.3,4.841,4.841,0,0,1,2.805-2.9l.346.706.243-.731c.128.043.258.082.388.121a7.408,7.408,0,0,1,.929.329,3.268,3.268,0,0,1-.733,6.2A3.338,3.338,0,0,1,247.4,2392.892Zm-.076-5.769a3.827,3.827,0,0,0-2.177,2.19,1.715,1.715,0,0,0,.337,1.466,2.311,2.311,0,0,0,2.444,1.05,2.269,2.269,0,0,0,.545-4.318,6.4,6.4,0,0,0-.8-.282Z"/></g></g></svg>