<svg xmlns="http://www.w3.org/2000/svg" width="35.201" height="34.641" viewBox="0 0 35.201 34.641"><g transform="translate(-734.746 -1999.089)"><g transform="translate(0 -381)"><path d="M762.312,2402.776l-.955-.3c.235-.751-.117-1.149-.756-1.788a5.255,5.255,0,0,1-.756-.875,4.151,4.151,0,0,1-.66-3.334,3.231,3.231,0,0,1,1.766-2.039l.442.9a2.253,2.253,0,0,0-1.245,1.411,3.178,3.178,0,0,0,.54,2.526,4.449,4.449,0,0,0,.62.706A2.577,2.577,0,0,1,762.312,2402.776Z"/></g><g transform="translate(0 -381)"><path d="M756.752,2414.73h-8.066a.5.5,0,0,1-.5-.5v-20.519a.5.5,0,0,1,.413-.492,17.091,17.091,0,0,1,3.524-.145,13.5,13.5,0,0,0,3.627-.215l.236.972a14.467,14.467,0,0,1-3.892.242,18.85,18.85,0,0,0-2.908.068v19.589h7.066V2400.2h1v14.034A.5.5,0,0,1,756.752,2414.73Z"/></g><g transform="translate(0 -381)"><path d="M769.128,2414.73h-8.177a.5.5,0,0,1-.5-.5l0-2.931c0-2.476-.006-4.912.01-7.349a1.57,1.57,0,0,1,.4-1.177,2.034,2.034,0,0,1,1.616-.278l.187.014a18.918,18.918,0,0,0,5.185-.085,1.793,1.793,0,0,1,.043-1.861c1.079-1.29,1.032-2.736.977-4.41a19.4,19.4,0,0,1,.009-2.072,3.755,3.755,0,0,1-1.42-.323,1.915,1.915,0,0,0-1.461-.169l-.367-.93a2.84,2.84,0,0,1,2.176.161,2.087,2.087,0,0,0,1.474.185.5.5,0,0,1,.661.545,14.293,14.293,0,0,0-.072,2.57c.056,1.722.113,3.5-1.211,5.085a1.036,1.036,0,0,0,.008.642,5.361,5.361,0,0,1,.963,3.909c-.007.282-.015.563-.011.842.027,1.819.021,3.639.015,5.417l-.005,2.215A.5.5,0,0,1,769.128,2414.73Zm-7.677-1h7.178l0-1.718c.006-1.773.012-3.586-.015-5.4,0-.293,0-.588.012-.884a5.717,5.717,0,0,0-.316-2.585l.046.191a18.6,18.6,0,0,1-5.771.171l-.122-.009a2.475,2.475,0,0,0-.929.012s-.077.075-.079.448c-.016,2.434-.013,4.867-.01,7.341Z"/></g><g transform="translate(0 -381)"><path d="M744.912,2414.73h-8.271a.5.5,0,0,1-.5-.5l0-2.139c0-1.707-.007-3.378.01-5.049a1.579,1.579,0,0,1,.411-1.183,2.072,2.072,0,0,1,1.643-.267,17.448,17.448,0,0,0,5.221-.1,2.119,2.119,0,0,1,.15-1.823c1.061-1.361,1.027-2.881.986-4.641-.014-.574-.027-1.161,0-1.765a2.463,2.463,0,0,1-1.585-.414c-.533-.287-.829-.425-1.22-.2l-.5-.868a2.076,2.076,0,0,1,2.192.189c.611.329.9.458,1.367.1a.5.5,0,0,1,.8.453,18.777,18.777,0,0,0-.053,2.479c.043,1.87.084,3.636-1.2,5.279a1.28,1.28,0,0,0,.032.937c1.125,1.875,1.014,3.786.909,5.633a12.116,12.116,0,0,0,.1,3.266.5.5,0,0,1-.488.606Zm-7.772-1h7.179a15.67,15.67,0,0,1-.015-2.929,8.992,8.992,0,0,0-.537-4.636l.063.263a17.813,17.813,0,0,1-5.679.163,2.452,2.452,0,0,0-.92.007s-.079.077-.083.455c-.017,1.666-.014,3.333-.01,5.036Z"/></g><g transform="translate(0 -381)"><path d="M738,2405.87l-.955-.3c.233-.752-.117-1.15-.759-1.79a5.313,5.313,0,0,1-.754-.873,4.3,4.3,0,0,1-.592-3.7,2.719,2.719,0,0,1,1.768-1.7l.3.953a1.716,1.716,0,0,0-1.13,1.09,3.3,3.3,0,0,0,.493,2.819,4.476,4.476,0,0,0,.619.7A2.58,2.58,0,0,1,738,2405.87Z"/></g><g transform="translate(0 -381)"><rect width="7.293" height="1" transform="translate(749.017 2395.939)"/></g><g transform="translate(0 -381)"><rect width="7.293" height="1" transform="translate(761.394 2405.442)"/></g><g transform="translate(0 -381)"><rect width="7.294" height="1" transform="translate(737.082 2408.537)"/></g><g transform="translate(0 -381)"><path d="M750.18,2393.36l-1-.03a6.678,6.678,0,0,0-.784-4.143,4.126,4.126,0,0,1-.038-4.481l.875.482a3.146,3.146,0,0,0,0,3.45A7.6,7.6,0,0,1,750.18,2393.36Z"/></g><g transform="translate(0 -381)"><path d="M750.723,2382.927a7.833,7.833,0,0,0-4.05-1.035,9.606,9.606,0,0,1-4.087-.928l.484-.875a8.741,8.741,0,0,0,3.678.806,8.693,8.693,0,0,1,4.541,1.209Z"/></g><g transform="translate(0 -381)"><path d="M756.26,2398.959a9.833,9.833,0,0,1-.06-2.308,5.587,5.587,0,0,0-.486-3.307,2.258,2.258,0,0,1,.422-2.579,10.485,10.485,0,0,0,1.221-1.727c.172-.281.345-.561.526-.832l.832.554c-.174.261-.34.531-.505.8a11.533,11.533,0,0,1-1.344,1.888,1.267,1.267,0,0,0-.289,1.389,6.444,6.444,0,0,1,.621,3.866,8.993,8.993,0,0,0,.046,2.077Z"/></g><g transform="translate(0 -381)"><path d="M762.111,2396.712l-.994-.1a4.247,4.247,0,0,0-.074-1.056,4.084,4.084,0,0,1,.039-1.932,3.8,3.8,0,0,0,.105-.5c.1-.59.269-1.576,1.531-1.576h0a1.421,1.421,0,0,1,1.082.389,1.771,1.771,0,0,1,.309,1.4,3.549,3.549,0,0,0-.011.42c.016.266.012.533.008.8l0,.337h-1l0-.352c0-.241.008-.482-.006-.722a4.608,4.608,0,0,1,.011-.546c.015-.227.037-.57-.041-.653a.562.562,0,0,0-.352-.073h0c-.378,0-.429.07-.543.743a4.558,4.558,0,0,1-.139.63,3.236,3.236,0,0,0,0,1.484A5.021,5.021,0,0,1,762.111,2396.712Z"/></g><g transform="translate(0 -381)"><path d="M761.141,2389.084a.755.755,0,0,0-.706-.56,2.514,2.514,0,0,1-1.73-1.123,2.159,2.159,0,0,1-.354-1.672,1.65,1.65,0,0,0-.033-1.229c-.252-.426-.916-.594-1.557-.756l-.145-.037a10.763,10.763,0,0,1-3.252-1.634c-.275-.183-.545-.361-.813-.525-.711.453-.809,1.129-.931,1.965a3.991,3.991,0,0,1-.646,1.948.5.5,0,0,1-.533.18c-.152-.042-.312-.072-.471-.1a2.9,2.9,0,0,1-1.234-.437,4.844,4.844,0,0,0-1.232-.573c-1.048-.379-2.352-.851-2.522-2.629l1-.095c.1,1.093.776,1.39,1.865,1.784a5.646,5.646,0,0,1,1.49.711,2.133,2.133,0,0,0,.821.256l.182.035a4.379,4.379,0,0,0,.294-1.222,3.219,3.219,0,0,1,1.709-2.847.5.5,0,0,1,.47.016c.365.21.73.452,1.106.7a9.838,9.838,0,0,0,2.948,1.5l.142.036a3.2,3.2,0,0,1,2.174,1.216,2.54,2.54,0,0,1,.139,1.99,1.2,1.2,0,0,0,.222.871,1.532,1.532,0,0,0,1.046.684,1.75,1.75,0,0,1,1.5,1.23Z"/></g><g transform="translate(0 -381)"><path d="M737.8,2399.754h-1c0-.352,0-.7-.007-1.056-.008-.834-.016-1.668.019-2.5a1.553,1.553,0,0,1,1.879-1.565c1.16.161,1.122,1.2,1.1,1.7l0,.122c-.012.456-.009.913-.006,1.371l0,.6h-1l0-.6c0-.468-.006-.936.006-1.4l.005-.132c.022-.635-.029-.642-.242-.672a.568.568,0,0,0-.743.617c-.035.815-.027,1.632-.019,2.448C737.8,2399.043,737.8,2399.4,737.8,2399.754Z"/></g><g transform="translate(0 -381)"><path d="M753.271,2385.222l-.995-.109a5.506,5.506,0,0,1,1.227-3.148l.752.659A4.453,4.453,0,0,0,753.271,2385.222Z"/></g><g transform="translate(0 -381)"><path d="M740.8,2398.562a3.422,3.422,0,0,1-.02-1.262c.041-.393.093-.882-.054-1.016-.052-.047-.286-.185-1.114-.018l-.2-.98a2.19,2.19,0,0,1,1.983.258,2.074,2.074,0,0,1,.377,1.86,2.844,2.844,0,0,0-.012.89Z"/></g><g transform="translate(0 -381)"><path d="M765.11,2395.468a3.461,3.461,0,0,1-.018-1.261c.041-.394.092-.883-.056-1.017-.051-.047-.284-.185-1.113-.018l-.2-.98a2.194,2.194,0,0,1,1.984.258,2.077,2.077,0,0,1,.376,1.861,2.876,2.876,0,0,0-.013.889Z"/></g></g></svg>