<?xml version="1.0" encoding="utf-8"?>
<!-- Generator: Adobe Illustrator 24.0.1, SVG Export Plug-In . SVG Version: 6.00 Build 0)  -->
<svg version="1.1" id="Layer_1" xmlns="http://www.w3.org/2000/svg" xmlns:xlink="http://www.w3.org/1999/xlink" x="0px" y="0px"
	 viewBox="0 0 1366 377" style="enable-background:new 0 0 1366 377;" xml:space="preserve">
<style type="text/css">
	.st0{fill:#FAE9DF;}
	.st1{fill:#FFFFFF;}
	.st2{fill:none;stroke:#BAFFE6;stroke-width:3;stroke-miterlimit:10;}
	.st3{fill:#FADFCD;}
	.st4{fill:none;stroke:#1B1C1C;stroke-width:6;stroke-miterlimit:10;}
	.st5{fill:none;stroke:#131414;stroke-width:8;stroke-linecap:round;stroke-linejoin:round;stroke-miterlimit:10;}
	.st6{fill:#FFCB75;}
	.st7{fill:#FFBDB1;}
	.st8{fill:#FC790D;}
	.st9{fill:#FF8777;}
	.st10{fill:#141413;}
	.st11{fill:#D76E3E;}
	.st12{fill:#7B064A;}
	.st13{fill:#38192F;}
	.st14{fill:#7A1304;}
	.st15{fill:#F70D34;}
	.st16{fill:#E6E6E6;}
	.st17{fill:#D68676;}
	.st18{fill:#E25B00;}
	.st19{fill:#FF6F2D;}
	.st20{fill:#414042;}
	.st21{fill:#C97260;}
	.st22{fill:none;stroke:#282626;stroke-width:20;stroke-miterlimit:10;}
	.st23{fill:#FFAD2D;}
</style>
<rect y="0.53" class="st0" width="1366.5" height="376.77"/>
<path class="st1" d="M1058.99,241.55c-2.44-10.43-3.33-19.94-1.69-30.6c1.6-10.45,4.04-20.9,3.75-31.53
	c-0.54-19.6-8.8-37.83-22.38-52.01c-6.07-6.34-13.19-12.05-17.98-19.45c-5.47-8.45-5.93-18.51-7.39-28.16
	c-5.15-33.94-32.17-66.17-69.37-64.91c-20.21,0.69-38.73,9.93-56.28,18.97c-17,8.75-35.41,20.65-54.68,11.4
	c-8.12-3.9-15.42-9.23-23.37-13.44c-8.41-4.45-17.27-7.27-26.83-7.82c-20.4-1.19-40.19,7.73-56.24,19.43
	c-8.32,6.06-16.07,12.79-23.74,19.62c-7.46,6.64-15.23,12.99-22.55,19.79c-14.75,13.72-23.59,30.53-25.84,50.43
	c-2.19,19.35,2.51,38.55,10.66,56.09c4.21,9.04,9.44,17.6,15.22,25.75c5.31,7.5,13.6,14.94,16.77,23.63
	c3.17,8.69-3.77,18.18-7.06,25.87c-3.82,8.93-5.58,18.71-4.76,28.39c1.6,18.97,11.51,35.83,27.58,46.44
	c6.21,4.1,13.24,7.03,20.54,8.65l271.67-1.42c2.95-1.06,5.86-2.54,8.7-4.56c7.79-5.54,13.66-12.86,19.47-20.29
	c6.09-7.79,12.09-15.7,17.04-24.26c4.67-8.08,8.66-16.92,10.33-26.11C1062.4,261.23,1061.34,251.6,1058.99,241.55z"/>
<g>
	<g>
		<g>
			<path id="XMLID_11_" class="st2" d="M999.42,314.49c-0.2-1.23,0.95-2.06,2.06-1.49l2.85,1.46l2.85,1.46
				c1.11,0.57,1.36,2.11,0.44,2.78l-2.35,1.7l-2.34,1.7c-0.91,0.66-2.31-0.05-2.5-1.28l-0.51-3.17L999.42,314.49z"/>
			<path id="XMLID_10_" class="st2" d="M1002.7,197.13c1.06-0.66,2.27,0.06,2.18,1.31l-0.23,3.2l-0.23,3.2
				c-0.09,1.25-1.41,2.08-2.38,1.5l-2.48-1.49l-2.48-1.49c-0.97-0.58-0.86-2.14,0.2-2.81l2.71-1.7L1002.7,197.13z"/>
			<path id="XMLID_6_" class="st2" d="M894.11,149.56c1.06-0.66,2.27,0.06,2.18,1.31l-0.23,3.2l-0.23,3.2
				c-0.09,1.25-1.41,2.08-2.38,1.5l-2.48-1.49l-2.48-1.49c-0.97-0.58-0.86-2.14,0.2-2.81l2.71-1.7L894.11,149.56z"/>
			<path id="XMLID_5_" class="st2" d="M743.03,302.44c1.06-0.66,2.27,0.06,2.18,1.31l-0.23,3.2l-0.23,3.2
				c-0.09,1.25-1.41,2.08-2.38,1.5l-2.48-1.49l-2.48-1.49c-0.97-0.58-0.86-2.14,0.2-2.81l2.71-1.7L743.03,302.44z"/>
			<path id="XMLID_4_" class="st2" d="M713.36,195.92c-0.2-1.23,0.95-2.06,2.06-1.49l2.85,1.46l2.85,1.46
				c1.11,0.57,1.36,2.11,0.44,2.78l-2.35,1.7l-2.34,1.7c-0.91,0.66-2.3-0.05-2.5-1.29l-0.51-3.17L713.36,195.92z"/>
			<path id="XMLID_3_" class="st2" d="M685.47,254.56c1.11-0.58,2.26,0.24,2.07,1.48l-0.49,3.17l-0.49,3.17
				c-0.19,1.24-1.57,1.96-2.49,1.3l-2.36-1.69l-2.36-1.69c-0.92-0.66-0.68-2.2,0.43-2.78l2.84-1.48L685.47,254.56z"/>
			<path id="XMLID_2_" class="st2" d="M838.86,110.94c1.11-0.58,2.26,0.24,2.07,1.48l-0.49,3.17l-0.49,3.17
				c-0.19,1.24-1.57,1.96-2.49,1.3l-2.36-1.69l-2.36-1.69c-0.92-0.66-0.68-2.2,0.43-2.78l2.84-1.48L838.86,110.94z"/>
			<path id="XMLID_1_" class="st2" d="M1039.22,263.3c-0.2-1.23,0.95-2.06,2.06-1.49l2.85,1.46l2.85,1.46
				c1.11,0.57,1.36,2.11,0.44,2.78l-2.35,1.7l-2.34,1.7c-0.91,0.66-2.31-0.05-2.5-1.29l-0.51-3.17L1039.22,263.3z"/>
		</g>
		<g>
			<path class="st3" d="M730.26,241.16c0,1.58-1.28,2.86-2.86,2.86s-2.86-1.28-2.86-2.86s1.28-2.86,2.86-2.86
				S730.26,239.59,730.26,241.16z"/>
			<path class="st3" d="M693.47,316.42c0,1.58-1.28,2.86-2.86,2.86s-2.86-1.28-2.86-2.86s1.28-2.86,2.86-2.86
				S693.47,314.84,693.47,316.42z"/>
			<path class="st3" d="M696.16,152.48c0,1.58-1.28,2.86-2.86,2.86s-2.86-1.28-2.86-2.86s1.28-2.86,2.86-2.86
				S696.16,150.9,696.16,152.48z"/>
			<path class="st3" d="M702.44,62.9c0,1.58-1.28,2.86-2.86,2.86s-2.86-1.28-2.86-2.86c0-1.58,1.28-2.86,2.86-2.86
				S702.44,61.32,702.44,62.9z"/>
			<circle class="st3" cx="737.28" cy="177.61" r="2.86"/>
			<path class="st3" d="M779.62,65.59c0,1.58-1.28,2.86-2.86,2.86c-1.58,0-2.86-1.28-2.86-2.86s1.28-2.86,2.86-2.86
				C778.34,62.73,779.62,64.01,779.62,65.59z"/>
			<circle class="st3" cx="880.87" cy="115.85" r="2.86"/>
			<path class="st3" d="M898.26,193.76c0,1.58-1.28,2.86-2.86,2.86s-2.86-1.28-2.86-2.86s1.28-2.86,2.86-2.86
				S898.26,192.19,898.26,193.76z"/>
			<circle class="st3" cx="868.31" cy="39.56" r="2.86"/>
			<path class="st3" d="M981.56,33.11c0,1.58-1.28,2.86-2.86,2.86c-1.58,0-2.86-1.28-2.86-2.86c0-1.58,1.28-2.86,2.86-2.86
				C980.28,30.25,981.56,31.53,981.56,33.11z"/>
			<path class="st3" d="M828.69,276.93c0,1.58-1.28,2.86-2.86,2.86c-1.58,0-2.86-1.28-2.86-2.86c0-1.58,1.28-2.86,2.86-2.86
				C827.41,274.07,828.69,275.35,828.69,276.93z"/>
			<circle class="st3" cx="1031.65" cy="224.28" r="2.86"/>
			<path class="st3" d="M1011.18,275.44c0,1.58-1.28,2.86-2.86,2.86s-2.86-1.28-2.86-2.86c0-1.58,1.28-2.86,2.86-2.86
				S1011.18,273.86,1011.18,275.44z"/>
			<path class="st3" d="M1044.22,320.61c0,1.58-1.28,2.86-2.86,2.86c-1.58,0-2.86-1.28-2.86-2.86s1.28-2.86,2.86-2.86
				C1042.94,317.75,1044.22,319.03,1044.22,320.61z"/>
			<circle class="st3" cx="1003.83" cy="137.22" r="2.86"/>
			<path class="st3" d="M961.82,79.05c0,1.58-1.28,2.86-2.86,2.86s-2.86-1.28-2.86-2.86s1.28-2.86,2.86-2.86
				S961.82,77.47,961.82,79.05z"/>
			<path class="st3" d="M832.58,172.95c0,1.58-1.28,2.86-2.86,2.86c-1.58,0-2.86-1.28-2.86-2.86c0-1.58,1.28-2.86,2.86-2.86
				C831.3,170.1,832.58,171.38,832.58,172.95z"/>
			<path class="st3" d="M900.49,324.07c0,1.58-1.28,2.86-2.86,2.86c-1.58,0-2.86-1.28-2.86-2.86c0-1.58,1.28-2.86,2.86-2.86
				C899.21,321.21,900.49,322.49,900.49,324.07z"/>
		</g>
	</g>
	<g>
		<g>
			<polyline class="st4" points="682.53,346.34 734.58,279.92 791.12,290.69 823.43,208.12 909.59,245.82 964.34,154.27 
				1028.06,173.12 1042.42,47.47 			"/>
			<polyline class="st5" points="1026.47,60.54 1043.02,42.62 1054.39,63.73 			"/>
		</g>
		<path class="st6" d="M1032.85,172.52c0,2.64-2.14,4.79-4.79,4.79s-4.79-2.14-4.79-4.79c0-2.64,2.14-4.79,4.79-4.79
			S1032.85,169.88,1032.85,172.52z"/>
		<path class="st6" d="M914.38,245.62c0,2.64-2.14,4.79-4.79,4.79c-2.64,0-4.79-2.14-4.79-4.79s2.14-4.79,4.79-4.79
			C912.24,240.83,914.38,242.98,914.38,245.62z"/>
		<path class="st6" d="M828.08,208.71c0,2.64-2.14,4.79-4.79,4.79s-4.79-2.14-4.79-4.79s2.14-4.79,4.79-4.79
			S828.08,206.06,828.08,208.71z"/>
		<path class="st6" d="M968.89,155.66c0,2.64-2.14,4.79-4.79,4.79s-4.79-2.14-4.79-4.79c0-2.64,2.14-4.79,4.79-4.79
			S968.89,153.01,968.89,155.66z"/>
		<path class="st6" d="M739.97,281.42c0,2.64-2.14,4.79-4.79,4.79s-4.79-2.14-4.79-4.79c0-2.64,2.14-4.79,4.79-4.79
			S739.97,278.78,739.97,281.42z"/>
	</g>
</g>
<g>
	<path class="st7" d="M918.9,227.09c1.74-1.99,4.2-3.22,5.77-5.34c1.93-2.35,2.91-5.64,4.49-8.22c2.63-2.09,4.33-5.27,6.52-8.07
		c2.64-3.37,8.83-7.51,8.87-12.33c0.02-3.2-3.4-3.24-5.68-2.31c-3.77,1.53-7.07,5.76-9.76,9.39c-2.09,2.31-3.62,5.15-4.55,8.15
		c-0.19,0.15-2.85,1.62-9.29,5.87L918.9,227.09z"/>
	<polygon class="st1" points="914.22,214.41 918.26,211.91 922,225.29 918.85,229.41 	"/>
	<path class="st8" d="M919.53,229.71c-7.05,8.08-40.86,30.98-48.94,35.44c-14.31,7.9-24.72,4.6-33.63-2.14
		c-8.9-6.74-60.73-53.99-61.95-57.95c-1.1-3.58,0.65-11.69,6.3-14.25c12.76-5.78,32.28,23.31,41.09,31.31
		c10.97,9.97,28.52,24.13,32.85,27.1c5.89-2.63,52.84-31.32,59.29-35.58L919.53,229.71z"/>
</g>
<g>
	<g>
		<path class="st9" d="M896.59,265.71c-2.82,2.82-9.78,8.19-12.86,10.77c-3.07,2.56-6.58,6.78-12.96,7.58
			c-0.42,0.05,10.26,10.64,7.78,17.85c-0.15,0.43,8.94-7.22,14.86-12.27c3.39-2.89,7.25-4.54,8.78-7.98
			C902.64,281.02,898.39,263.91,896.59,265.71z"/>
		
			<rect x="877.94" y="278.68" transform="matrix(0.866 -0.5 0.5 0.866 -25.6329 480.3222)" class="st1" width="11.07" height="18.64"/>
		<path class="st10" d="M949.37,190.77c-0.37-0.35-0.79-0.65-1.26-0.88c-0.46-0.23-0.96-0.38-1.48-0.42
			c-5.79-0.43-12.84,9.3-15.58,13.06c-5.37,7.37-9.72,15.33-13.73,23.4c-3.91,7.86-7.47,15.87-11.43,23.71
			c-2.69,5.34-6.37,10.56-9.12,16.02c-3.79,3.07-13.09,9.44-14.34,10.16l-4.86,2.8c-1.31,0.75-1.73,2.46-0.95,3.82l7.89,13.66
			c0.78,1.36,2.48,1.85,3.78,1.09l4.86-2.8c1.29-0.74,13.04-12.49,15.9-15.51c5.31-4.14,8.15-8.19,10.18-11.18
			c10.82-15.9,16.09-22.07,24.73-39.13c3.96-7.83,7-16.16,7.82-24.81C952.15,199.74,952.72,193.92,949.37,190.77z"/>
	</g>
	<g>
		<path class="st10" d="M983.05,114.34c-9.63-12.2-26.57-14.84-39.4-8.33c-0.05-0.1-0.15-0.17-0.29-0.15
			c-7.89,1.09-13.36,9.82-14.75,17.05c-0.92,4.82-0.37,9.83,1.24,14.5c-0.37,3.63-0.7,7.26-0.97,10.9
			c-0.53,7.16-0.9,14.33-1.23,21.5c-0.15,3.35-2.13,9.75,2.29,10.72c5.55,1.22,12.69,0.63,18.24-0.44
			c5.12-0.99,36.57-23.97,39.85-35.36C991.03,134.34,989.9,123.01,983.05,114.34z"/>
		<g>
			<path class="st9" d="M942.02,165.78c9.24-2.49,17.74-6.58,25.4-12.26c-4.35,0.51-15.13,1.96-20.09,4.39
				c-2.16,1.06-6.48,3.34-6.55,6.38c-0.03,0.07,0.17,0.9,0.51,2.25C941.36,166.2,941.58,165.9,942.02,165.78z"/>
			<path class="st9" d="M962.44,298.37c3.62-9.43,8.08-18.51,11.67-27.96c3.67-9.66,6.89-19.48,9.58-29.45
				c1.83-6.79,1.56-30.29-2.23-37.87c-2.27-4.54-13.88-15.35-15.54-17.25c-0.24-1.33-0.27-3.23-0.21-5.14l1.73-13.16
				c-0.37,0.47-0.79,0.87-1.28,1.18c-2.93,1.89-7.49,2.63-10.8,3.77c-3.84,1.33-7.69,2.66-11.55,3.94
				c-0.09,0.03-0.19,0.03-0.29,0.02c0.63,3.32,1.19,6.96,1.44,10.48c-0.15,1.07-1.36,4.03-1.78,4.89
				c-8.69,11.86-14.55,20.96-20.34,25.93c-5.58,4.79-16.19,10.82-17.35,21.54c-0.8,7.38,2.99,11.97,5.98,15.56
				c0.51,3.84,0.59,7.92,0.53,11.79c-0.14,8.29-0.26,16.57-0.35,24.86c-0.17,15.5-0.63,30.98-1.29,46.47
				c-0.05,1.25,69.84,1.98,69.29,1.12c-3.69-5.84-7.43-11.66-10.92-17.62c-2.99-5.1-8.63-12.29-7.95-18.68
				C961.47,301.13,962.01,299.48,962.44,298.37z"/>
			<path class="st11" d="M955.36,172.48c3.3-1.14,7.87-1.88,10.8-3.77c0.49-0.32,0.91-0.72,1.28-1.18l1.87-14.21
				c0,0-0.71,0.07-1.88,0.21c-7.67,5.68-16.17,9.77-25.4,12.26c-0.43,0.12-0.66,0.42-0.72,0.76c0.55,2.19,1.44,5.79,2.22,9.9
				c0.1,0,0.2,0.01,0.29-0.02C947.67,175.15,951.51,173.81,955.36,172.48z"/>
		</g>
		<g>
			<path class="st9" d="M924.08,142.45c0.98-2.41,2.76-3.76,4.32-5.64c2-2.42,1.22-5.73,1.81-9.92c1.14-7.96,4.55-11.77,10.77-13.76
				c6.66-2.13,17.38-0.61,23.48,2.39c6.26,3.08,6.96,7.73,8.53,14.36c0.92,5.2-0.75,13.33-1.89,18.45
				c-1.65,7.33-4.85,10.92-8.49,13.16c-6.78,4.19-23.65,7.96-27.38,7.87c-3.73-0.09-6.99-3.03-9.12-8.87
				C924.99,157.45,922.89,145.37,924.08,142.45z"/>
			<g>
				<path class="st9" d="M968.28,154.63c3.21,1.69,6.96,1.3,10.11-0.37c2.86-1.51,3.77-3.87,3.82-6.98
					c0.06-3.36-0.52-7.24-3.49-9.32c-1.32-0.93-2.92-1.25-4.51-0.93c-0.76,0.15-3.06,0.7-3.58,1.23c-0.17,0.17-0.25,0.4-0.32,0.63
					c-0.72,2.33-0.96,4.79-1.42,7.17c-0.42,2.11-1.28,4.39-1.02,6.55C967.43,153.19,967.42,154.18,968.28,154.63z"/>
				<path class="st12" d="M970.35,149.81c0.23-0.51,0.96-1.14,0.63-1.73c-0.34-0.61,0.36-1.4,1-1c0.61,0.4,0.85,1.09,0.7,1.8
					c-0.07,0.35-0.25,0.68-0.43,0.99c-0.14,0.23-0.4,0.54-0.41,0.83c1,0.09,1.97,0.12,2.94-0.26c-0.01-0.05-0.02-0.1-0.02-0.15
					c0.01-0.81,0.35-1.54,0.14-2.36c-0.24-0.94-0.97-1.39-1.57-2.08c-0.66-0.75-1.13-1.89-0.34-2.7c0.04-0.05,0.14-0.05,0.18,0
					c0.65,0.77,1,1.42,1.83,2.09c0.6,0.48,1.03,0.96,1.34,1.68c0.2,0.46,0.34,1.03,0.37,1.6c0.41-0.85,0.62-1.83,0.67-2.7
					c0.07-1.34-0.36-2.9-1.55-3.67c-1.25-0.82-2.28-0.01-3.56-0.01c-0.25,0-0.36-0.22-0.33-0.44c0.25-1.82,2.93-1.83,4.26-1.25
					c1.8,0.78,2.81,2.76,2.94,4.65c0.14,2.12-0.64,5.16-2.42,6.48c-1.48,1.1-4.03,1.67-5.61,0.59c-0.24-0.02-0.48-0.12-0.66-0.37
					C970,151.2,970.06,150.44,970.35,149.81z"/>
			</g>
		</g>
		<g>
			<path d="M991.42,147.78c-0.62-16.32-2.49-34.1-13.45-42.32c-7.98-5.98-14.75-6.65-23.33-6.18c-6.58,0.36-16.57,3.96-19.33,6.24
				c-5.83,4.82-8.15,12.32-7.79,19.79c0.01,0.19,0.02,0.38,0.12,0.54c0.65,1.02,6.13-4.83,7.05-5.43c2.03-1.33,4.29-2.23,6.34-3.53
				c1.21-0.77,2.49-1.72,3.52-2.86c-0.08,6.19,4.16,11.64,9.74,14.38c5.23,2.57,9.51,12.18,9.28,18.36
				c-0.47,12.61-7.14,33.87-5.3,33.67c5.34-0.58,15.73-1.32,21.06-2.02c3.06-0.4,6.45-1.04,8.73-3.41c2.32-2.4,2.68-5.82,2.96-9.04
				C991.52,159.92,991.65,153.83,991.42,147.78z"/>
			<g>
				<path class="st10" d="M961.94,100.55c-4.17-0.78-8.14,0.78-11.46,3.25c-2.84,2.11-6.22,4.98-6.11,8.84
					c0.01,0.23,0.39,0.31,0.43,0.06c1.13-7.31,10.47-11.47,17.02-11.26C962.32,101.45,962.44,100.64,961.94,100.55z"/>
				<path class="st10" d="M945.64,103.49c-4.08,0.54-7.41,3.09-10.06,6.12c-2.72,3.11-5.95,7.1-6.04,11.39
					c0,0.12,0.16,0.13,0.19,0.03c2.5-7.27,8.53-14.35,16.04-16.55C946.3,104.33,946.23,103.41,945.64,103.49z"/>
				<path class="st10" d="M942.67,108.45c-1.87,1.53-3.28,3.57-4.97,5.29c-1.67,1.71-3.59,3.01-5.43,4.5
					c-0.06,0.05,0.01,0.13,0.07,0.12c4.37-0.87,9.02-5.57,11.05-9.36C943.64,108.53,943.06,108.13,942.67,108.45z"/>
				<path class="st10" d="M982.99,116.18c-4.1-7.09-12.46-14.4-21.25-13.22c-0.06,0.01-0.06,0.11,0,0.12
					c9.78,2.36,16.93,6.94,21.41,16.31c4.55,9.52,4.63,20.26,5.4,30.57c0.03,0.38,0.58,0.38,0.59,0
					C989.45,138.55,988.85,126.31,982.99,116.18z"/>
				<path class="st10" d="M954.56,106.38c-0.34-0.06-0.47,0.4-0.14,0.52c11.26,4.07,19.06,11.34,23.22,22.68
					c4.04,10.99,3.38,22.45,3.77,33.92c0.02,0.7,1.04,0.69,1.08,0C983.89,142.96,980.03,110.56,954.56,106.38z"/>
				<path class="st10" d="M969.82,148.11c-0.02-0.08-0.16-0.07-0.15,0.02c0.88,8.55-1.58,16.77-3.22,25.06
					c-0.12,0.58,0.71,0.82,0.89,0.25C969.99,165.12,971.39,156.73,969.82,148.11z"/>
				<path class="st10" d="M974.59,134.92c-0.02-0.06-0.1-0.03-0.09,0.03c1.02,6.75,1.59,13.62,1.77,20.44
					c0.17,6.31-0.55,12.58-0.48,18.87c0.01,0.48,0.74,0.61,0.86,0.12C979.64,161.73,977.67,147.36,974.59,134.92z"/>
				<path class="st10" d="M986.34,154.48c-0.4-7.91-1.12-16.66-3.92-24.11c-0.02-0.06-0.11-0.05-0.11,0.01
					c0.84,14.28,5.24,29.8,0.89,43.93c-0.2,0.64,0.82,1.1,1.1,0.47C987.11,168.51,986.68,161.2,986.34,154.48z"/>
			</g>
			<g>
				<g>
					<path class="st10" d="M936.44,129.04c-1.86-1.3-5.17-1.13-6.55,0.78c-0.37,0.51,0.24,1.19,0.79,1.03
						c0.78-0.23,1.5-0.58,2.33-0.63c0.88-0.05,1.61,0.22,2.39,0.59C936.6,131.37,937.53,129.8,936.44,129.04z"/>
					<path class="st13" d="M933.33,136.16c-0.13-0.92-0.21-1.95-0.72-2.74c-0.26-0.41-0.8-0.29-0.96,0.13
						c-0.35,0.89-0.22,1.93-0.17,2.87c0.05,0.95-0.02,1.92,0.41,2.79c0.35,0.7,1.43,0.49,1.62-0.21
						C933.76,138.07,933.47,137.08,933.33,136.16z"/>
				</g>
				<g>
					<path class="st10" d="M949.67,129.7c-1.25-0.27-3.16-0.23-3.8,1.1c-0.17,0.36-0.05,0.85,0.39,0.95
						c0.98,0.22,1.98-0.14,2.97,0.12c1.06,0.28,1.61,1.26,2.68,1.4c0.53,0.07,0.9-0.49,0.93-0.93
						C952.94,130.87,950.85,129.96,949.67,129.7z"/>
					<path class="st13" d="M950.01,138.03c-0.13-0.92-0.21-1.95-0.72-2.74c-0.26-0.41-0.8-0.29-0.96,0.13
						c-0.35,0.89-0.22,1.93-0.17,2.87c0.05,0.95-0.02,1.92,0.41,2.79c0.35,0.7,1.43,0.49,1.62-0.21
						C950.43,139.94,950.14,138.95,950.01,138.03z"/>
				</g>
				<g>
					<path class="st14" d="M934.34,145.32c1.07-2.28,2.9-7.67,2.82-8.35c0-0.03-0.06-0.03-0.07-0.01c-0.77,1.44-1.45,2.86-2.03,4.3
						c-0.72,1.78-1.76,3.42-2.42,5.17c-0.7,1.85,1.41,2.93,3,2.41c0.21-0.07,0.3-0.34,0.25-0.55
						C934.71,147.79,933.62,146.87,934.34,145.32z"/>
					<path class="st14" d="M939.99,147.64c-0.13-0.58-0.76-0.56-0.97-0.06c-0.11,0.26-0.16,0.47-0.42,0.63
						c-0.21,0.12-0.51,0.18-0.74,0.19c-0.31,0.02-0.36,0.43-0.16,0.6c0.47,0.39,1.03,0.32,1.52,0.01
						C939.65,148.75,940.11,148.19,939.99,147.64z"/>
				</g>
				<g>
					<path class="st14" d="M936.87,155.15c2.75-1.34,5.78-1.82,8.81-1.47c0.23,0.03,0.42,0.11,0.59,0.21
						c0.49-0.84,0.69-1.7,0.23-2.44c-1.1-1.76-4.42,0.61-5.67,0.92c-2.79,0.69-5.47,0.29-8.17-0.55c-0.77-0.24-1.58-0.69-2.41-0.38
						c-1.97,0.74-1.18,2.9-0.24,4.16c0.58,0.77,1.24,1.38,1.94,1.85c0.29,0.2,0.6,0.37,0.91,0.52
						C933.72,156.67,935.77,155.68,936.87,155.15z"/>
					<path class="st15" d="M941.54,157.84c0.61-0.27,1.21-0.59,1.78-0.97c0.77-0.5,2.19-1.7,2.94-2.98
						c-0.17-0.1-0.36-0.18-0.59-0.21c-3.03-0.35-6.05,0.13-8.81,1.47c-1.1,0.53-3.14,1.52-4.01,2.82c0.85,0.41,1.77,0.66,2.7,0.75
						C937.45,159.06,939.56,158.73,941.54,157.84z"/>
				</g>
			</g>
		</g>
	</g>
	<g>
		<path class="st1" d="M962.44,298.37c3.62-9.43,8.08-18.51,11.67-27.96c3.67-9.66,6.89-19.48,9.58-29.45
			c1.83-6.79,1.56-30.29-2.23-37.87c-2.27-4.54-13.88-15.35-15.54-17.25c-0.24-1.33-24.93,18.61-24.87,16.69
			c0,0,2.01-19.24,2.87-13.7c-0.15,1.07-0.31,2.13-0.74,2.99c-8.69,11.86-14.55,20.96-20.34,25.93
			c-5.58,4.79-16.19,10.82-17.35,21.54c-0.8,7.38,2.99,11.97,5.98,15.56c0.51,3.84,0.59,7.92,0.53,11.79
			c-0.14,8.29-0.26,16.57-0.35,24.86c-0.17,15.5-0.63,30.98-1.29,46.47c-0.05,1.25,69.84,1.98,69.29,1.12
			c-3.69-5.84-7.43-11.66-10.92-17.62c-2.99-5.1-8.63-12.29-7.95-18.68C961.47,301.13,962.01,299.48,962.44,298.37z"/>
		<path class="st10" d="M981.46,203.08c-1.27-2.54-5.45-7.03-9.18-10.83c-1.52-1.8-3.14-3.52-4.76-5.21
			c-0.19-0.2-0.45-0.28-0.71-0.27c-0.4-0.41-0.71-0.73-0.9-0.94c-0.03-0.14-2.58,3.12-6.56,8.37c-3.93,3.81-6.97,8.14-10.91,11.97
			c-4.99,4.86-9.34,10.68-13.16,16.45c-7.23,10.92-15.72,21.41-20.12,33.93l-3.17,10.07c-0.14,8.29-0.26,16.57-0.35,24.86
			c-0.18,16.31-2.32,31.03-4.05,48.15h72.22c-0.01-0.19-0.06-0.38-0.18-0.57c-3.69-5.84-7.43-11.66-10.92-17.62
			c-2.99-5.1-8.63-12.29-7.95-18.68c0.7-1.65,1.24-3.3,1.66-4.41c3.62-9.43,8.08-18.51,11.67-27.96c1.31-3.44,2.54-6.91,3.72-10.39
			c1.23-1.94,1.84-4.13,2.11-6.4c1.33-4.19,2.59-8.41,3.74-12.66C985.52,234.17,985.24,210.66,981.46,203.08z"/>
		<g>
			<path class="st16" d="M949.73,202.1c-1.75-0.28-3.68,0.06-5.43,0.28c-1.03,0.13-2.17,0.2-3.1,0.67
				c-0.11-0.06-0.25-0.07-0.38-0.04c-0.03-1-0.12-2.01-0.15-2.99c-0.03-1.26,0.12-2.59-0.27-3.8c-0.07-0.21-0.39-0.29-0.5-0.07
				c-0.57,1.18-0.55,2.58-0.58,3.87c-0.03,1.45,0.27,2.4,0.61,3.83c-6.74,8.97-13.4,18.64-17.85,28.98
				c-4.13,9.58-9.22,20.46-9.42,31.07c0,0.17,0.24,0.2,0.29,0.04c1.52-5.33,2.52-10.7,4.34-15.96c1.98-5.73,4.37-11.3,6.79-16.85
				c4.33-9.92,10.35-17.53,16.4-26.43c1.3-0.45,3.25-0.78,4.44-0.9c1.59-0.16,3.29-0.29,4.82-0.77
				C950.13,202.88,950.22,202.17,949.73,202.1z"/>
			<path class="st16" d="M956.15,194.36c-0.33-0.16-0.63-0.34-0.9-0.59c-0.25-0.23-0.72-0.08-0.71,0.29
				c0.03,0.69,0.1,1.29,0.28,1.95c0.02,0.06,0.06,0.09,0.11,0.1c0.13,0.1,0.32,0.13,0.48,0.06c0.43-0.19,0.7-0.83,0.89-1.24
				C956.39,194.75,956.37,194.47,956.15,194.36z"/>
		</g>
	</g>
	<path class="st10" d="M989.56,252.06c-0.31-13.25-0.19-27.15-3.61-40.5c-0.17-0.82-0.38-1.65-0.66-2.48
		c-0.03-0.08-0.06-0.15-0.09-0.23c-0.13-0.45-0.26-0.91-0.4-1.36c-0.07-0.22-0.19-0.37-0.32-0.45
		c-3.69-8.19-11.82-13.03-19.02-10.96c-6.74,1.93-10.44,9.27-9.25,17.32c0.27,4.33,0.93,8.76,1.39,13.1
		c0.97,9.18,1.87,18.36,2.98,27.54c0.95,7.79,5.72,30.18,8.02,36.51c0.37,1.02,0.85,2.1,1.41,3.19
		c-2.77,4.42-8.73,14.59-16.16,24.14c-6.55,8.42-14.12,16.41-18.21,21.74h25.8c4.91-5.04,11.74-12.53,14.84-16.46
		c3.13-3.95,6.53-7.89,8.45-12.61c1.73-4.25,2.31-8.83,2.6-13.39c0.36-2.03,0.54-4.01,0.63-5.41
		C988.93,276.18,989.9,266.64,989.56,252.06z"/>
	<g>
		<g>
			<path d="M943.41,192.46c-2.17,1.8-6.89,7.98-9.82,12.2c-2.29,3.22-4.11,5.88-4.7,6.61c-2.1,2.6-4.08,4.77-6.06,6.47
				c-5.58,4.79-16.19,10.82-17.35,21.54c-0.76,7.01,2.63,11.5,5.53,15.01c0.26,1.88,0.56,3.75,0.88,5.58
				c0.11,2.27,0.14,4.54,0.1,6.75c0,0,0.66-1.02,1.03-5.66c0.37-4.64-1.12-16.38,1.12-23.11c3.07-9.57,9.27-13.61,13.33-21.65
				c0.02-0.03,0.04-0.06,0.06-0.09c0.07-0.1,0.11-0.2,0.13-0.29c2.23-4.39,4.74-8.43,7.01-12.03
				C937.79,199.99,941.46,194.27,943.41,192.46z"/>
			<path d="M970.13,189.78c-0.85-1.37-1.7-2.77-2.54-4.15c-0.35-0.58-1.21-0.72-1.74-0.22c-19.63,18.4-29.57,33.03-32.36,37.81
				c-2.79,4.79-10.12,15.17-13.46,21.84c-3.5,6.99-5.85,13.76-8.05,21.22c-0.03,1.69-0.42,30.77-0.42,31.84
				c2.18-4.27-0.1-22.43,5.78-32.11c6.48-10.67,15.03-16.34,18.94-19.7c2.51-2.16,2.41-4.82,2.9-8.02c0.41-2.64,0.62-5.44,1.25-8.04
				c0.73-2.98,2.01-2.01,4.95-1.91c2.12,0.07,3.06-0.09,4.09-2.02c2.25-4.21,3.18-9.08,4.2-13.69c2.17-9.77,8.7-14.66,15.83-20.66
				C970.01,191.56,970.91,191.04,970.13,189.78z"/>
		</g>
		<g>
			<path class="st1" d="M971.21,191.11c-1.61-2.88-3.7-5.76-5.39-8.06c-0.29-0.39-8.11,4.69-10.59,6.45
				c-4.55,3.24-9.8,8.98-13.87,13.05c0.86-4.04,3.59-15.78,3.59-15.78c-0.11-1.27-0.09-1.23-0.26-2.43
				c-2.09,2.54-3.94,4.47-5.07,7.07c-0.85,1.94-1.15,2.99-0.85,3.79c0.3,0.8,1.26,1.17,1.6,1.25c-0.95,3.24-0.23,6.51,0.55,6.93
				c0.44,0.24,13.08-1.14,14.29-2.09c2.34-1.86-0.19-3.95,0.07-6.51c4.11,0,9.95-1.2,14.36-2.21
				C970.32,192.41,971.56,191.75,971.21,191.11z"/>
		</g>
		<g>
			<path d="M961.31,306.66c-5.34,5.9-9.85,12.64-14.8,18.87c-3.8,4.77-7.71,9.46-11.5,14.23c0.11,0,0.22,0,0.34,0
				c0.05,0,0.11,0,0.16-0.01c0.01,0,0.02,0,0.04-0.01c0.36-0.09,0.71-0.07,1.05,0c4.12-4.75,8.04-9.68,11.94-14.6
				c4.6-5.8,9.66-11.6,13.52-17.92C962.33,306.78,961.68,306.26,961.31,306.66z"/>
			<path d="M968.28,286.75c-2.32-10.86-4.81-21.62-6.48-32.61c-1.67-10.96-2.92-21.98-4.77-32.91c-0.04-0.25-0.46-0.19-0.44,0.06
				c0.86,10.82,2.29,21.57,3.99,32.28c1.78,11.18,3.5,22.58,6.65,33.47C967.42,287.73,968.42,287.44,968.28,286.75z"/>
		</g>
		<path d="M942.14,268.32c-3.28-0.33-6.51,0.03-9.75-0.78c-3.04-0.76-4.96-2.7-7.68-3.93c-0.07-0.03-0.17,0.02-0.14,0.11
			c1.87,6.04,12.78,6.79,17.72,5.7C942.94,269.26,942.73,268.37,942.14,268.32z"/>
		<path d="M909.63,273.96c-0.14-0.86-0.65-1.7-1.29-2.47c0.06-0.07,0.1-0.16,0.1-0.24c-0.02-0.88-0.88-1.49-1.44-2.08
			c-0.33-0.35-0.67-0.68-1.01-1.02c-0.35-0.35-0.84-0.68-1.06-1.14c-0.08-0.17-0.25-0.2-0.4-0.16c-0.65-0.71-1.43-1.31-2.04-2.05
			c-0.83-1.01-1.42-2.24-2.36-3.15c-0.07-0.07-0.19-0.02-0.19,0.08c0.02,1.36,0.88,2.69,1.67,3.74c0.48,0.64,1.01,1.34,1.64,1.89
			c-1.11-0.6-2.29-1.04-3.58-1.29c-0.14-0.03-0.22,0.15-0.1,0.23c1.86,1.22,3.76,2.44,5.38,3.97c1.39,1.31,2.34,3.21,3.89,4.28
			C909.27,274.85,909.7,274.37,909.63,273.96z"/>
		<path d="M971.46,327.11c-2.7,2.26-4.87,5.31-7.23,7.92c-1.39,1.54-2.98,3.03-4.38,4.63c0.45,0.02,0.9,0.09,1.34,0.18
			c1.43-1.47,2.77-3.08,4.12-4.53c2.31-2.46,4.99-4.84,6.83-7.68C972.43,327.2,971.82,326.81,971.46,327.11z"/>
	</g>
</g>
<g>
	<g>
		<g>
			<path class="st10" d="M751.07,103.42c-1.24-2.52-3.59-4.47-6.61-5.25c-0.98-0.25-1.97-0.37-2.97-0.37
				c-0.59-0.09-7.06-0.22-10.65,3.07c-1.58,1.45-4.88,5.82-5.91,9.26c-1.92,6.37-1.95,15.04,4.9,18.54
				c0.27,0.14,0.54,0.26,0.81,0.37c1.72,1.16,3.8,1.85,6.21,1.86c12.68,0.06,22.34-17.3,14.25-27.43
				C751.1,103.45,751.09,103.43,751.07,103.42z"/>
			<path class="st10" d="M786.48,106.65c-13.07-7.84-31.33-5.5-41.41,7.43c-6.8,8.71-7.86,20.05-4.82,30.42
				c3.33,11.37,11.5,17.86,22.8,21.15c0.75,0.22,1.2-0.85,0.53-1.23c-0.16-0.09-0.32-0.17-0.47-0.26c1.16-0.4,2-1.27,2.95-2.35
				c2.95-3.33,5.78-6.78,8.66-10.16c6.13-7.18,12.69-14.16,18.41-21.65c2.1-2.75,3.21-5.28,3.4-7.84c0.09,0.38,0.18,0.76,0.25,1.15
				c0.11,0.61,0.99,0.41,1.04-0.14C798.5,115.72,793.1,110.06,786.48,106.65z"/>
		</g>
		<g>
			<path class="st7" d="M784.37,188.42c0.37-2.37,1.01-7.14,1.63-11.85l-25.23-10.42l1.81,14.14c0.07,1.91,0.21,3.44-0.03,4.77
				l25.06,18.47l-2.49-12.12C784.68,190.55,784.52,189.49,784.37,188.42z"/>
			<path class="st7" d="M787.5,163.89c-0.07-3.04-4.39-5.32-6.55-6.38c-6.29-3.07-21.97-4.59-21.97-4.59l0.6,4.53l27.77,8.19
				C787.46,164.59,787.52,163.94,787.5,163.89z"/>
			<path class="st17" d="M787.34,165.64l-28.21-11.46l1.63,12.1l25.22,10.29C786.56,172.23,787.09,167.96,787.34,165.64z"/>
		</g>
		<g>
			<path class="st1" d="M785.1,191.41c8.69,11.86,14.55,20.96,20.34,25.93c5.58,4.79,16.19,10.82,17.35,21.54
				c0.8,7.38-2.99,11.97-5.98,15.56c-0.51,3.84-0.59,7.92-0.53,11.79c0.14,8.29,0.26,16.57,0.35,24.86
				c0.18,16.75,0.52,32.29,1.27,49.03c-9.72-1.2-20.7-1.12-30.96-1.05c-12.64,0.09-24.98-0.07-37.23,1.47
				c-0.88,0.11-1.62-1-1.07-1.87c3.69-5.84,7.43-11.66,10.92-17.62c2.99-5.1,8.63-12.29,7.95-18.68c-0.7-1.65-1.24-3.3-1.66-4.41
				c-3.62-9.43-8.08-18.51-11.67-27.96c-3.67-9.66-6.89-19.48-9.58-29.45c-1.83-6.79-4.16-30.59-0.37-38.17
				c2.27-4.54,7.86-9.71,12.17-12.37c1.75-1.08,4.32-2.69,5.98-4.59c0.55,0.15,25.08,16.87,25.08,16.87L785.1,191.41z"/>
			<path class="st16" d="M806.72,231.12c-5.3-9.58-13.05-18.49-18.38-28.04c0.05-0.46,0.63-1.41,0.79-3.25
				c0.17-2.06,0.05-4.5,0.05-6.22c0-1.39-2.16-1.4-2.16,0c0,0.72-0.02,1.46-0.03,2.22c-0.38,0.95,0.07,2.14,0.06,3.14
				c-0.01,0.87,0.38,2.38,0.45,3.25c-4.77-0.89-9.26-4.11-13.15-6.62c-0.92-0.86-1.83-1.72-2.86-2.47c-0.39-0.29-0.77-0.17-1.02,0.1
				c-1.43-0.8-2.9-1.52-4.48-2.07c-0.13-0.05-0.24,0.14-0.14,0.23c1.68,1.47,3.44,2.99,5.27,4.45c1.62,2.36,4.34,5.33,8.08,6.64
				c3.78,1.32,8.58,0.96,8.6,0.97c3.72,9.22,11.58,17.04,16.71,25.45c6.48,10.62,8.72,21.58,10.69,33.64
				c0.05,0.3,0.5,0.21,0.51-0.07C815.94,251.77,811.84,240.37,806.72,231.12z"/>
			<g>
				<path class="st13" d="M785.1,191.41c0.27,0.36,0.52,0.72,0.79,1.08C785.34,191.71,785.05,191.3,785.1,191.41z"/>
				<path class="st13" d="M816.81,254.44c-0.31,2.32-0.45,4.73-0.51,7.13c0.15-2.19,0.37-4.61,0.54-7.17
					C816.83,254.41,816.82,254.43,816.81,254.44z"/>
				<path class="st13" d="M822.8,238.88c-1.16-10.72-11.77-16.75-17.35-21.54c-5.62-4.82-11.3-13.52-19.56-24.85
					c3.72,5.32,19.34,28.27,19.21,27.34c0.25-1.63,6.88,7.93,8.83,11.97c3.43,7.13,3.4,15.41,2.92,22.6
					C819.83,250.82,823.59,246.24,822.8,238.88z"/>
				<path class="st8" d="M765.84,297.97c0.43,1.11,0.97,2.76,1.66,4.41c0.68,6.39-4.96,13.57-7.95,18.68
					c-3.49,5.96-7.23,11.78-10.92,17.62c-0.21,0.33-0.23,1.75-0.12,2.04l69.51-0.3c-0.71-16.18-1.21-33.13-1.38-49.33
					c-0.09-8.29-0.21-16.57-0.35-24.86c-0.03-1.53-0.02-3.09,0.02-4.66c-0.07,1-0.12,1.95-0.14,2.84
					c-6.15-0.52-53.66-79.73-53.8-78.98c-1.67,1.9-4.24,3.51-5.98,4.59c-4.31,2.65-9.9,7.82-12.17,12.37
					c-3.79,7.58-1.46,31.38,0.37,38.17c2.69,9.97,5.91,19.8,9.58,29.45C757.76,279.46,762.22,288.54,765.84,297.97z"/>
			</g>
		</g>
		<g>
			<path class="st18" d="M785.12,192.46c2.17,1.8,6.89,7.98,9.82,12.2c2.29,3.22,4.11,5.88,4.7,6.61c2.1,2.6,4.08,4.77,6.06,6.47
				c5.58,4.79,16.19,10.82,17.35,21.54c0.76,7.01-2.63,11.5-5.53,15.01c-0.26,1.88-0.56,3.75-0.88,5.58
				c-0.11,2.27-0.14,4.54-0.1,6.75c0,0-0.66-1.02-1.03-5.66c-0.37-4.64,1.12-16.38-1.12-23.11c-3.07-9.57-9.27-13.61-13.33-21.65
				c-0.02-0.03-0.04-0.06-0.06-0.09c-0.07-0.1-0.11-0.2-0.13-0.29c-2.23-4.39-4.74-8.43-7.01-12.03
				C790.74,199.99,787.07,194.27,785.12,192.46z"/>
			<path class="st18" d="M759.02,191.97c7.13,6,13.66,10.89,15.83,20.66c1.02,4.6,1.95,9.48,4.2,13.69
				c1.03,1.93,1.97,2.09,4.09,2.02c2.94-0.1,4.22-1.07,4.95,1.91c0.64,2.59,0.84,5.4,1.25,8.04c0.5,3.2,0.39,5.87,2.9,8.02
				c3.91,3.36,12.46,9.03,18.94,19.7c5.88,9.68,3.61,27.84,5.78,32.11c0-1.06-0.39-30.14-0.42-31.84
				c-2.2-7.45-4.55-14.23-8.05-21.22c-3.34-6.67-10.67-17.05-13.46-21.84c-2.79-4.79-12.73-19.41-32.36-37.81
				c-0.53-0.5-1.39-0.35-1.74,0.22c-0.84,1.38-1.68,2.78-2.54,4.15C757.62,191.04,758.52,191.56,759.02,191.97z"/>
		</g>
		<path class="st9" d="M878.75,292.27c-1.43-5-6.98-9.83-12.89-8.49c-0.27,0.06-0.22,0.39,0,0.47c0.04,0.01,0.08,0.03,0.11,0.04
			c-0.11,0.07-0.2,0.17-0.27,0.31c-1.2,2.43-2.5,5.19-1.24,7.84c0.41,0.86,1.06,1.26,1.63,1.98c2.13,2.67,2.49,5.18,2.91,8.36
			c0.22,1.7-0.6,6.87,1.36,8.14c1.84,1.19,3.77-0.81,4.79-1.95C879.19,304.47,880.35,297.86,878.75,292.27z"/>
		<g>
			<path class="st7" d="M876.02,303.23c-0.79-4.95-4.25-8.7-8.11-11.62c-1.71-1.29-7.2-1.65-7.31-3.97
				c2.69-2.69,6.58-4.99,5.29-7.68c-1.24-2.57-7.22,0.65-12.27,3.49c-0.43,0.09-10.77,2.09-17.25,3.09c-6.48,1-21.88,0.85-34.1,1.5
				c-8.97,0.48-18.25,1.07-19.89,3.29c-0.27,0.37-8.6,1.11-6.96,3.59c3.07,4.64,5.12,11.11,10.02,13.31
				c5.16,2.32,10.71,2.21,16.14,2.05c7.57-0.22,15.12-1.13,22.52-2.7c7.28-1.54,16.8-5.66,24.14-6.88
				c2.99-0.5,7.09,12.28,11.41,15.03c1.94,1.23,6.12,1.93,6.6-0.47c1.9,0.07,3.09-1.37,3.78-3.17c0.67,0.3,1.49,0.37,2.37,0.1
				C875.87,311.13,876.5,306.26,876.02,303.23z"/>
			<g>
				<polygon class="st1" points="838.06,285.75 842.14,285.05 841.94,303.2 837.16,304.7 				"/>
				<path class="st8" d="M838.9,284.45c-2.39-0.3-24.42,2.94-36.65,3.59c-1.98,0.11-3.97,0.22-5.89,0.35
					c-0.88-4.55-2.17-9.11-3.25-13.28c-2.15-8.29-4.76-16.42-7.52-24.46c-3.26-9.47-6.7-18.85-10.09-28.25
					c-1.6-4.45-3.06-9.07-4.83-13.43c-2.66-8.39-9.41-13.99-16.4-13c-7.47,1.06-12.57,9.28-12.1,18.89
					c-0.08,0.14-0.12,0.33-0.08,0.58c0.08,0.51,0.18,1.01,0.27,1.51c0.01,0.09,0.01,0.18,0.03,0.26c0.13,0.93,0.33,1.83,0.56,2.71
					c3.11,14.55,9.68,28.1,15.55,41.21c5.14,11.48,10.59,22.79,16.76,33.45c0.04,0.11,0.08,0.22,0.16,0.34
					c0.15,0.23,0.3,0.47,0.45,0.71c0.37,0.63,0.73,1.26,1.1,1.88c2.33,4.2,4.44,8.91,8.48,10.72c5.16,2.32,10.71,2.21,16.14,2.05
					c7.57-0.22,32.3-0.6,37.34-2.2C838.93,302.42,839.95,286.85,838.9,284.45z"/>
			</g>
		</g>
		<g>
			<path class="st9" d="M863.94,311.87c0.2-0.58,0.19-1.21-0.2-1.86c-0.66-1.12-2.19-1.51-3.58-1.29c0.99-1.1,1.71-2.14,0.98-3.64
				c-0.89-1.82-3.08-1.94-4.45-1.24c1.17-1.95,2.64-3.64,0.49-5.15c-3.98-2.8-12.21,5.13-7.61,8.21c0.51,0.34,1.25,0.24,1.48,0.78
				c0.21,0.47-0.29,1.59-0.04,2.27c0.35,0.94,1,1.41,1.79,1.55c-0.3,1.42,0.18,2.81,1.53,3.75c0.34,0.24,0.7,0.42,1.07,0.55
				c-0.2,1.62,1.46,3.22,3,3.55c2.59,0.54,5.36-1.28,6.48-3.56C865.61,314.33,865.27,312.49,863.94,311.87z"/>
			<path class="st9" d="M869.04,285.67c-1.57-2.6-4.59-2.29-6.72-0.63c-2.61,2.03-3.77,5.11-2.81,8.29
				c0.63,2.06,0.15,6.66,3.65,6.05c0.54-0.09,0.97-0.28,1.31-0.52c1.71-0.59,1.68-3.91,1.96-5.23
				C867.08,290.6,871.23,289.32,869.04,285.67z"/>
		</g>
		<g>
			<g>
				<path class="st1" d="M758.89,192.57c4.41,1.01,10.25,2.21,14.36,2.21c0.26,2.56-2.27,4.65,0.07,6.51
					c1.2,0.95,13.72,1.36,14.16,1.12c0.78-0.43,1.62-2.72,0.68-5.96c0.33-0.07,1.3-0.45,1.6-1.25c0.3-0.8,0-1.84-0.85-3.79
					c-1.13-2.6-1.81-4.76-3.91-7.3c-0.17,1.2-0.59,3.27-0.7,4.54c0,0,2.13,9.39,2.99,13.43c-4.07-4.07-9.45-9.32-14-12.56
					c-2.48-1.76-10.3-6.85-10.59-6.45c-1.69,2.3-3.78,5.18-5.39,8.06C756.97,191.75,758.21,192.41,758.89,192.57z"/>
			</g>
			<path class="st18" d="M803.42,259.61c-2.72,1.24-4.63,3.17-7.68,3.93c-1.95,0.49-3.89,0.55-5.85,0.6
				c0.13,0.57,0.28,1.13,0.43,1.69c5.26-0.02,11.82-1.56,13.23-6.12C803.59,259.63,803.49,259.57,803.42,259.61z"/>
			<g>
				<path class="st18" d="M815.28,286.5c-6.01,0.26-12.34,0.55-18.34,1.48c0.03-0.12,0.04-0.24,0-0.39
					c-5.09-18.53-8.39-37.99-17.69-55.02c-0.04-0.07-0.17-0.02-0.14,0.06c7.15,17.97,11.18,36.79,16.33,55.37
					c0.02,0.08,0.06,0.14,0.1,0.2c-0.17,0.03-0.34,0.05-0.51,0.08c-0.22,0.04-0.16,0.37,0.05,0.37c6.63,0.09,13.62-0.76,20.2-1.58
					C815.64,287.05,815.67,286.49,815.28,286.5z"/>
				<path class="st18" d="M817.23,309.26c-9.29,0.61-23.48,2.08-30.53-1.32c-6.81-3.29-10.66-12.34-15.03-21.24
					c-9.14-18.6-17.69-35.56-25.2-55.12c-0.08-0.21-1.35-3.61-1.28-3.38c6.8,21.52,18.68,44.44,28.81,64.56
					c3.75,7.44,6.81,13.54,12.64,16.01c8.92,3.04,21.39,1.35,30.68,1.03C817.6,309.78,817.53,309.24,817.23,309.26z"/>
			</g>
		</g>
	</g>
	<g>
		<g>
			<g>
				<path class="st7" d="M804.2,142.05c-0.98-2.41-2.76-3.76-4.32-5.64c-2-2.42-1.22-5.73-1.81-9.92
					c-1.14-7.96-4.55-11.77-10.77-13.76c-6.66-2.13-17.38-0.61-23.48,2.39c-6.26,3.08-6.96,7.73-8.53,14.36
					c-0.92,5.2,0.75,13.33,1.89,18.45c1.65,7.33,4.54,11.72,8.18,13.96c6.78,4.19,12.89,5.51,17.25,6.2
					c2.9,0.46,5.81,1.01,8.72,0.91c0.57,0,1.15-0.01,1.72-0.04c5.45-0.28,9.81-1.9,10.85-7.92
					C804.46,157.84,805.39,144.97,804.2,142.05z"/>
				<g>
					<path class="st7" d="M760.41,152.2c0.26-2.15-0.6-4.43-1.02-6.55c-0.47-2.38-0.71-4.85-1.42-7.17
						c-0.07-0.23-0.15-0.46-0.32-0.63c-0.52-0.52-2.82-1.07-3.58-1.23c-1.58-0.32-3.18,0-4.51,0.93c-2.97,2.08-3.56,5.96-3.49,9.32
						c0.06,3.12,0.96,5.47,3.82,6.98c3.16,1.67,6.9,2.05,10.11,0.37C760.85,153.78,760.85,152.79,760.41,152.2z"/>
					<path class="st17" d="M757.93,149.41c-0.23-0.51-0.96-1.14-0.63-1.73c0.34-0.61-0.36-1.4-1-1c-0.61,0.4-0.85,1.09-0.7,1.8
						c0.07,0.35,0.25,0.68,0.43,0.99c0.14,0.23,0.4,0.54,0.41,0.83c-1,0.09-1.97,0.12-2.94-0.26c0.01-0.05,0.02-0.1,0.02-0.15
						c-0.01-0.81-0.35-1.54-0.14-2.36c0.24-0.94,0.97-1.39,1.57-2.08c0.66-0.75,1.13-1.89,0.34-2.7c-0.04-0.05-0.14-0.05-0.18,0
						c-0.65,0.77-1,1.42-1.83,2.09c-0.6,0.48-1.03,0.96-1.34,1.68c-0.2,0.46-0.34,1.03-0.37,1.6c-0.41-0.85-0.62-1.83-0.67-2.7
						c-0.07-1.34,0.36-2.9,1.55-3.67c1.25-0.82,2.28-0.01,3.56-0.01c0.25,0,0.36-0.22,0.33-0.44c-0.25-1.82-2.93-1.83-4.26-1.25
						c-1.8,0.78-2.81,2.76-2.94,4.65c-0.14,2.12,0.64,5.16,2.42,6.48c1.48,1.1,4.03,1.67,5.61,0.59c0.24-0.02,0.48-0.12,0.66-0.37
						C758.28,150.8,758.22,150.04,757.93,149.41z"/>
				</g>
			</g>
			<path class="st10" d="M792.12,111.19c-0.74-0.47-1.55-0.87-2.26-1.25c-1.12-0.6-2.39-1-3.63-0.51c-0.91,0.37-1.57,1.23-1.64,2.22
				c-6.82-3.67-17.3-1.05-23.02,3.57c-5.56,4.49-10.38,14.24-6.24,21.48c0.25,0.44,0.86,0.72,1.36,0.55
				c0.03-0.01,0.07-0.02,0.1-0.03c0.01,0.02,0.01,0.04,0.02,0.06c1.25,2.95,5.07,1.65,6.81-0.02c1.54-1.48,2.74-3.35,3.67-5.36
				c1.32-1.15,2.42-2.49,3.19-4.1c0.86,1,2.14,1.63,3.75,1.6c3.43-0.06,5.41-2.72,6.54-5.62c1.36,1.2,3.39,1.52,5.23,0.57
				c1.21-0.63,2.01-1.53,2.52-2.57c0.69,0.86,1.47,1.56,2.38,1.92c1.65,0.67,2.77,0.03,3.47-1.07c1.06,2.01,2.45,4.14,4.33,4.82
				c2.43,0.88,3.21-1.03,3.24-3.12C802.01,118.62,797.47,113.09,792.12,111.19z"/>
			<path class="st19" d="M758.2,136.73"/>
		</g>
		<g>
			<path d="M754,107.09c-7.81,2.49-16.99,14.65-15.12,23.13c0.03,0.15,0.28,0.2,0.35,0.05c1.8-4.16,2.19-8.45,4.73-12.45
				c2.76-4.36,6.56-6.86,10.45-10.02C754.74,107.53,754.39,106.97,754,107.09z"/>
			<path d="M764.24,127c-1.22,1.4-2.01,3.04-2.99,4.59c-0.58,0.92-1.21,1.75-2.19,2.24c-0.82,0.41-1.61,0.23-2.45,0.42
				c-0.06,0.01-0.09,0.09-0.06,0.14c0.81,1.52,3.17,0.57,4.16-0.25c1.93-1.59,3.36-4.46,4.18-6.78
				C765.01,127.02,764.48,126.71,764.24,127z"/>
			<path d="M799.18,118.79c-2.43-3.15-6.32-6.17-10.23-7.14c-0.11-0.03-0.19,0.13-0.08,0.19c1.71,0.99,3.49,1.78,5.12,2.91
				c1.81,1.26,3.32,2.73,4.87,4.28C799.02,119.2,799.32,118.98,799.18,118.79z"/>
			<path d="M775.09,116.18c-2.52,2.13-3.78,5.12-3.36,8.43c0.05,0.37,0.62,0.4,0.6,0c-0.15-3.03,0.83-6.03,2.9-8.29
				C775.31,116.23,775.18,116.1,775.09,116.18z"/>
			<path d="M785.04,115.57c-0.85-0.8-2.49-2.03-3.73-1.58c-0.09,0.03-0.13,0.15-0.06,0.22c0.36,0.39,0.87,0.53,1.33,0.78
				c0.64,0.35,1.26,0.75,1.79,1.25c1.02,0.96,1.55,2.13,2.17,3.35c0.13,0.26,0.56,0.14,0.55-0.15
				C787.02,117.94,786.11,116.57,785.04,115.57z"/>
			<path d="M793.78,118.53c-0.52-1.79-2.03-3.01-3.53-4.01c-1.35-0.9-2.93-2.08-4.57-1.33c-0.09,0.04-0.02,0.19,0.07,0.15
				c1.53-0.62,3.78,1.4,4.86,2.28c1.1,0.89,1.88,1.94,2.6,3.15C793.39,119.08,793.88,118.88,793.78,118.53z"/>
			<path d="M779.92,121.36c-0.94-1.58-1.9-3.66-1.78-5.55c0.01-0.14-0.23-0.18-0.25-0.03c-0.18,1.13-0.37,2.03-0.12,3.19
				c0.24,1.11,0.75,2.06,1.52,2.88C779.61,122.18,780.15,121.75,779.92,121.36z"/>
			<path d="M764.26,131.86c-1.08,1.26-2.12,3.24-3.52,4.1c-2.04,1.25-3.95-0.09-5.88-0.93c-0.13-0.05-0.26,0.09-0.15,0.2
				c1.37,1.43,3.29,2.66,5.37,2.15c2.2-0.55,3.5-3.47,4.54-5.24C764.76,131.92,764.44,131.66,764.26,131.86z"/>
			<path d="M738.56,121.79c-2.2-0.92-4.46-0.97-6.55-2.33c-2-1.3-4.08-3.31-5.1-5.48c-0.09-0.2-0.44-0.06-0.36,0.15
				c0.96,2.68,2.05,4.7,4.44,6.42c1.96,1.4,5.11,2.98,7.57,2.16C739.04,122.55,738.98,121.97,738.56,121.79z"/>
			<path d="M740.34,116.86c-2.12-0.72-4.22-0.82-6.25-1.87c-2.18-1.12-3.99-2.74-5.22-4.87c-0.11-0.18-0.36-0.02-0.28,0.16
				c1.82,4.02,6.85,9.01,11.75,7.37C740.74,117.53,740.73,117,740.34,116.86z"/>
			<path d="M740.56,101.44c-3.18-0.58-8.71,0.31-9.76,3.95c-0.05,0.18,0.2,0.35,0.33,0.19c2.47-3.03,6.97-3.75,10.52-2.48
				c3.36,1.2,4.64,3.75,6.43,6.55c0.21,0.33,0.84,0.23,0.8-0.22C748.54,105.35,744.38,102.14,740.56,101.44z"/>
			<path d="M739.85,109.28c-2.18-1.28-5.11-2.76-7.65-1.82c-0.16,0.06-0.19,0.3,0,0.35c2.27,0.58,4.24,0.97,6.32,2.19
				c2,1.17,3.41,2.35,4.71,4.25c0.26,0.38,0.77,0.21,0.83-0.22C744.35,111.77,741.5,110.25,739.85,109.28z"/>
			<path d="M769.03,106.64c-0.34,0.05-0.24,0.56,0.08,0.58c2.67,0.14,5.45,0.13,8.02,0.97c2.39,0.78,4.04,2.31,5.77,4.05
				c0.13,0.13,0.37,0,0.32-0.18C781.46,106.5,773.76,106,769.03,106.64z"/>
			<path d="M774.72,114.62c-3.31-3.57-9.56-4.94-13.96-2.94c-0.37,0.17-0.11,0.76,0.28,0.66c2.58-0.72,5.18-0.58,7.72,0.22
				c2,0.63,3.78,1.84,5.83,2.3C774.72,114.88,774.82,114.72,774.72,114.62z"/>
			<path d="M770.12,118.08c-5.92,2.02-11.83,1.44-17.93,1.82c-0.34,0.02-0.45,0.54-0.08,0.62c6.08,1.39,12.68,0.97,18.13-2.17
				C770.37,118.27,770.28,118.03,770.12,118.08z"/>
		</g>
		<path class="st20" d="M763.42,152.78c-3.03-2.01-1.39-6.42-2.04-9.42c-0.42-1.93-1.49-3.18-2.86-4.36
			c-0.02-1.21-1.23-2.25-2.35-2.49c-0.59-0.13-0.97,0.68-0.42,1c0.38,0.22,0.69,0.51,0.96,0.85c-0.01,0.05-0.01,0.09,0.02,0.14
			c1.47,2.23,1.83,4.29,1.88,6.94c0.03,1.86,0,3.7,0.98,5.34c0.13,0.21,0.34,0.25,0.5,0.17c0.36,1.54,1.22,2.78,3.08,2.79
			C763.69,153.73,763.83,153.05,763.42,152.78z M759.94,146.79c-0.11-1.39-0.2-2.78-0.43-4.16c-0.03-0.18-0.06-0.35-0.1-0.53
			c0.11,0.24,0.22,0.5,0.29,0.76C760.06,144.14,760.01,145.47,759.94,146.79z"/>
		<g>
			<g>
				<path class="st21" d="M795.69,147.17c-0.42-1.25-1.88-2.14-2.65-3.14c-1.32-1.71-2.09-3.65-2.67-5.7
					c-0.11-0.38-0.75-0.25-0.68,0.14c0.32,1.97,1.08,3.83,2.21,5.47c0.51,0.73,1.13,1.32,1.69,2c0.45,0.55,1.41,1.71,1.03,2.53
					c-0.34,0.73-2.71,0.86-3.37,0.94c-0.51,0.06-0.46,0.84,0.06,0.8C792.94,150.09,796.5,149.62,795.69,147.17z"/>
				<path class="st21" d="M789.53,149.45c-0.23,0-0.53-0.06-0.65-0.29c-0.13-0.25,0.06-0.45,0.14-0.67
					c0.06-0.18,0.03-0.38-0.16-0.47c-0.25-0.12-0.49,0.09-0.62,0.29c-0.62,0.94,0.45,2.29,1.47,1.66
					C789.97,149.81,789.79,149.45,789.53,149.45z"/>
			</g>
			<g>
				<path class="st20" d="M780.92,133.57c-1.31-1.26-3.57-0.62-5,0.19c-1.51,0.86-3.04,2.33-3.62,3.99
					c-0.27,0.77,0.69,1.42,1.34,1.03c1.12-0.66,1.88-1.74,2.99-2.43c0.58-0.36,1.2-0.64,1.88-0.76c0.68-0.11,1.28,0.04,1.94-0.22
					C781.17,135.09,781.56,134.18,780.92,133.57z"/>
				<path d="M784.16,140.21c-0.54-0.48-2.34-1.5-4.14-1.3c-1.64,0.18-3.27,1.03-3.89,2.21c-0.2-0.01-2.28-0.51-2.26-0.03
					c0,0.12,1.82,2.33,3.11,2.04c0.4-0.09,0.63-0.35,0.82-0.65c0.41-0.39,0.88-1.36,1.91-1.62c1.6-0.4,2.54-0.45,4.09,0.55
					C784.52,141.86,784.95,140.91,784.16,140.21z"/>
			</g>
			<g>
				<path d="M799.41,134.33c-0.05-0.16-0.26-0.18-0.35-0.05c-0.24,0.38-0.35,0.79-0.49,1.21c-0.01,0.02-0.02,0.06-0.03,0.09
					c-0.14,0.22-0.29,0.46-0.52,0.52c-0.06,0.02-0.12,0.01-0.19,0c-0.85-0.62-2.19-0.63-3.11-0.3c-1.22,0.45-2.12,1.5-2.12,2.82
					c0,0.56,0.83,0.72,1.13,0.3c0.46-0.63,0.87-1.33,1.68-1.53c0.81-0.2,1.42,0.25,2.16,0.45c0.2,0.05,0.37,0.01,0.5-0.07
					c0.2-0.05,0.39-0.14,0.55-0.29C799.32,136.82,799.69,135.21,799.41,134.33z"/>
				<path class="st20" d="M797.64,129.52c-2.07-1.27-6.06-1.59-7.49,0.81c-0.33,0.54,0.26,1.21,0.83,1.15
					c0.9-0.1,1.68-0.58,2.6-0.65c0.98-0.07,2,0.15,2.83,0.68C797.84,132.41,799.1,130.42,797.64,129.52z"/>
			</g>
			<path class="st15" d="M799,151.78c-4.23,2.55-8.57,2.68-13.41,2.73c-0.31,0-0.34,0.41-0.07,0.52c3.76,1.48,11.24,0.69,14.06-2.49
				C799.93,152.14,799.48,151.49,799,151.78z"/>
		</g>
	</g>
</g>
<path class="st22" d="M439.41,345.49c3.41,0,927.09,0,927.09,0"/>
<g>
	<path class="st23" d="M858.49,57.74c-0.19,4.36-0.54,8.8-0.13,13.16c0.2,2.21,3.68,3.1,4.18,0.57c0.88-4.5,1.01-9.15,1.27-13.72
		C863.99,54.33,858.64,54.32,858.49,57.74z"/>
	<path class="st23" d="M838.56,65.84c-1.51-2.37-2.91-4.8-5.57-5.91c-2.15-0.9-3.7,1.6-3.39,3.39c0.41,2.36,2.65,4.48,4.04,6.39
		c1.4,1.92,2.65,4.22,4.67,5.53c1.43,0.93,3.41-0.29,3.38-1.94C841.65,70.63,839.96,68.03,838.56,65.84z"/>
	<path class="st23" d="M888.41,61.6c-0.21-0.79-0.96-1.31-1.75-1.33c-2.99-0.1-4.98,3.95-6.35,6.19c-1.62,2.66-3.43,5.66-3.58,8.83
		c-0.04,0.77,0.93,1.36,1.59,0.91c2.58-1.77,4.31-4.64,6.19-7.09C886.12,67,889.15,64.44,888.41,61.6z"/>
	<path class="st23" d="M910.51,73.25c-0.1-0.8-0.52-1.7-1.42-1.87c-3.39-0.63-5.77,3.01-7.99,5.11c-2.47,2.33-6.07,5.05-7.42,8.2
		c-0.56,1.3,0.37,2.99,1.95,2.54c3.22-0.92,6.15-3.99,8.62-6.16C906.37,79.21,910.93,76.42,910.51,73.25z"/>
	<path class="st23" d="M821.77,84.92c-1.73-2.83-4.68-4.83-7.27-6.84c-2.34-1.81-4.84-4.44-8.01-4.15c-1.14,0.1-1.86,0.99-1.63,2.14
		c0.63,3.1,3.82,4.75,6.21,6.46c2.67,1.9,5.46,4.18,8.68,5.02C821.23,87.94,822.6,86.28,821.77,84.92z"/>
</g>
</svg>
