<svg xmlns="http://www.w3.org/2000/svg" width="61.56" height="71.031" viewBox="0 0 61.56 71.031"><defs><style>.a{fill:#ff7e02;}</style></defs><g transform="translate(-955.19 -3410.598)"><rect class="a" width="2.368" height="2.368" transform="translate(978.867 3474.525)"/><path class="a" d="M1012.015,3417.7h-46.17v-5.919a1.184,1.184,0,0,0-1.184-1.184h-4.736a4.735,4.735,0,0,0-4.735,4.735V3454.4a4.735,4.735,0,0,0,4.735,4.735h.024a6.291,6.291,0,0,0,2.789,4.877l3.236,2.157a2.366,2.366,0,0,1,1.054,1.97v1.651h-1.183a1.184,1.184,0,0,0-1.184,1.184v9.471a1.184,1.184,0,0,0,1.184,1.184h18.941a1.184,1.184,0,0,0,1.184-1.184v-9.471a1.184,1.184,0,0,0-1.184-1.184H983.6v-3.277a23.68,23.68,0,0,0,2.177-7.378h20.316v5.92a1.184,1.184,0,0,0,1.184,1.184h4.736a4.736,4.736,0,0,0,4.735-4.736v-39.067A4.735,4.735,0,0,0,1012.015,3417.7Zm-52.09-4.736h3.552v4.736h-3.552a2.368,2.368,0,0,1,0-4.736Zm23.677,66.3H967.028v-7.1H983.6Zm0-23.052a21.337,21.337,0,0,1-2.243,9.5,1.176,1.176,0,0,0-.124.53v3.551H969.4v-1.657a4.735,4.735,0,0,0-2.108-3.94l-3.237-2.157a3.95,3.95,0,0,1,.425-6.818l.185-.086v2.82h2.367v-16.574a1.184,1.184,0,0,1,2.368,0v11.838h2.368V3447.3a1.184,1.184,0,1,1,2.368,0v3.552H976.5v-1.184a1.184,1.184,0,1,1,2.368,0v3.551h2.368v-2.367a1.184,1.184,0,1,1,2.367,0Zm2.353.559c0-.186.015-.372.015-.559v-5.36a25.044,25.044,0,0,0-9.608-4.477,3.493,3.493,0,0,0-4.249-2.518,3.538,3.538,0,0,0-.349.109v-2.585a3.551,3.551,0,1,0-7.1,0v11.107l-1.244.621a6.275,6.275,0,0,0-3.161,3.662h-.331a2.368,2.368,0,0,1-2.367-2.368v-34.99a4.688,4.688,0,0,0,2.367.659h52.09a2.367,2.367,0,0,1,2.367,2.367v34.99a4.685,4.685,0,0,0-2.367-.658Zm26.06,7.1h-3.552v-4.736h3.552a2.368,2.368,0,0,1,0,4.736Z"/><path class="a" d="M1008.463,3440.194H1006.1v10.655h-2.368v-8.287h-2.368v8.287h-2.368v-5.919h-2.368v5.919h-2.368V3447.3h-2.368v3.552h-2.368v2.368h21.309v-2.368h-2.368Z"/><path class="a" d="M1003.728,3423.62a7.1,7.1,0,1,0,7.1,7.1A7.1,7.1,0,0,0,1003.728,3423.62Zm-1.184,2.536v4.077l-2.88,2.88a4.661,4.661,0,0,1-.672-2.39A4.736,4.736,0,0,1,1002.544,3426.156Zm1.184,9.3a4.672,4.672,0,0,1-2.39-.672l3.227-3.227a1.184,1.184,0,0,0,.347-.837v-4.567a4.726,4.726,0,0,1-1.184,9.3Z"/><rect class="a" width="21.309" height="2.368" transform="translate(970.58 3423.62)"/><rect class="a" width="30.78" height="2.368" transform="translate(961.109 3428.355)"/><rect class="a" width="26.045" height="2.368" transform="translate(961.109 3433.091)"/><rect class="a" width="2.368" height="2.368" transform="translate(965.845 3423.62)"/><rect class="a" width="2.368" height="2.368" transform="translate(989.522 3439.01)"/><rect class="a" width="2.368" height="2.368" transform="translate(984.786 3439.01)"/><rect class="a" width="2.368" height="2.368" transform="translate(980.051 3439.01)"/><rect class="a" width="13.022" height="2.368" transform="translate(989.522 3461.503)"/><rect class="a" width="24.861" height="2.368" transform="translate(978.867 3412.966)"/><rect class="a" width="2.368" height="2.368" transform="translate(1006.095 3412.966)"/></g></svg>