<svg xmlns="http://www.w3.org/2000/svg" width="75.6" height="85.575" viewBox="0 0 75.6 85.575"><defs><style>.a{fill:#ff7e02;}</style></defs><g transform="translate(-302.381 -3400.126)"><path class="a" d="M369.424,3401.552a1.427,1.427,0,0,0-2.435-1.009l-12.836,12.837a1.427,1.427,0,0,0-.418,1.008v1.466a32.791,32.791,0,0,0-39.042,52.64l-6.484,15.221a1.426,1.426,0,0,0,1.312,1.986h51.346a1.427,1.427,0,0,0,1.312-1.986l-6.484-15.221A32.787,32.787,0,0,0,364.421,3428l-2.542,1.3a29.609,29.609,0,0,1,3.266,13.613,30,30,0,1,1-11.41-23.5v2.939l-2.46,2.46a24.2,24.2,0,0,0-39.563,12.037l2.761.713a21.359,21.359,0,0,1,34.785-10.733l-4.032,4.032a15.689,15.689,0,1,0-13.17,27.424l.571-2.8a12.836,12.836,0,1,1,10.571-22.6l-4.076,4.076a7.153,7.153,0,1,0,2.017,2.017l4.076-4.076a12.821,12.821,0,0,1-6.169,20.253l.856,2.721a15.678,15.678,0,0,0,7.342-25l4.032-4.032a21.382,21.382,0,1,1-36.8,19.413l-2.761.713a24.246,24.246,0,1,0,41.574-22.144l2.46-2.46h7.967a1.428,1.428,0,0,0,1.008-.418l12.837-12.836a1.427,1.427,0,0,0-1.009-2.435h-7.131Zm-16.091,68.675,5.376,12.621h-47.03l1.216-2.852h10.889v-2.853H314.11l2.945-6.916A32.71,32.71,0,0,0,353.333,3470.227Zm6.107-58.1v4.524l-2.852,2.853v-4.524Zm-19.967,30.787a4.279,4.279,0,1,1-4.279-4.279,4.22,4.22,0,0,1,1.833.428l-2.841,2.841,2.016,2.017,2.843-2.84a4.221,4.221,0,0,1,.428,1.833Zm33.639-31.377-9.983,9.983H358.6l7.55-7.549-2.017-2.017-1.844,1.845v-4.525l4.279-4.278v5.114a1.426,1.426,0,0,0,1.426,1.427Z"/><path class="a" d="M310.995,3441.4c-.032.5-.047,1.006-.047,1.515s.015,1.014.047,1.515l2.852-.177q-.046-.663-.047-1.338t.042-1.338Z"/><path class="a" d="M326.636,3477.143h2.853V3480h-2.853Z"/></g></svg>