<svg xmlns="http://www.w3.org/2000/svg" width="76.05" height="70.98" viewBox="0 0 76.05 70.98"><defs><style>.a{fill:#ff7e02;}</style></defs><g transform="translate(-616.051 -3411.488)"><path class="a" d="M690.833,3472.328h-1.267V3426.7a5.07,5.07,0,0,0-5.07-5.07H673.088v-8.872a1.268,1.268,0,0,0-1.267-1.268,1.311,1.311,0,0,0-.233.022l-7.605,1.426-1.268.238-11.292,2.117h-7.487a2.535,2.535,0,0,0-2.535,2.535,6.338,6.338,0,0,0-5.8,3.8H623.656a5.07,5.07,0,0,0-5.07,5.07v45.63h-1.267a1.268,1.268,0,0,0-1.268,1.267v3.8a5.07,5.07,0,0,0,5.07,5.07h65.91a5.07,5.07,0,0,0,5.07-5.07v-3.8A1.268,1.268,0,0,0,690.833,3472.328Zm-20.28-58.045v19.767l-17.744-3.334v-13.1Zm-20.279,26.358h-3.8v-7.605h3.8Zm-3.8,2.535h3.8v1.9a1.9,1.9,0,0,1-3.8,0Zm6.338-9.887,2.535.476v1.806h-2.535Zm-8.873-15.463h6.338V3430.5h-6.338Zm-2.535,2.535v7.6a3.8,3.8,0,0,1,0-7.6Zm-20.28,6.337a2.535,2.535,0,0,1,2.535-2.535h11.408a6.344,6.344,0,0,0,6.337,6.338,2.535,2.535,0,0,0,2.535,2.535v12.041a4.437,4.437,0,0,0,8.873,0v-6.971h3.8a1.267,1.267,0,0,0,1.267-1.268v-2.592l13.71,2.571a1.287,1.287,0,0,0,.233.021,1.267,1.267,0,0,0,1.267-1.267v-11.408H684.5a2.535,2.535,0,0,1,2.535,2.535v45.63H665.483a1.271,1.271,0,0,0-.9.37l-2.163,2.165h-16.7l-2.163-2.165a1.269,1.269,0,0,0-.9-.37H621.121Zm68.445,50.7a2.535,2.535,0,0,1-2.535,2.535h-65.91a2.535,2.535,0,0,1-2.535-2.535v-2.535h23.558l2.164,2.163a1.264,1.264,0,0,0,.9.372h17.744a1.268,1.268,0,0,0,.9-.372l2.163-2.163h23.558Z"/><path class="a" d="M683.228,3465.99v-36.757a1.267,1.267,0,0,0-1.267-1.267h-5.07v2.535h3.8v34.222H627.459V3430.5H633.8v-2.535h-7.605a1.267,1.267,0,0,0-1.267,1.267v36.757a1.268,1.268,0,0,0,1.267,1.268h55.77A1.267,1.267,0,0,0,683.228,3465.99Z"/><path class="a" d="M652.809,3469.793h2.535v2.535h-2.535Z"/><path class="a" d="M633.8,3453.316h2.535v2.535H633.8Z"/><path class="a" d="M638.866,3453.316h38.025v2.535H638.866Z"/><path class="a" d="M631.261,3458.386h41.827v2.535H631.261Z"/></g></svg>