<svg xmlns="http://www.w3.org/2000/svg" xmlns:xlink="http://www.w3.org/1999/xlink" width="1366" height="500" viewBox="0 0 1366 500"><defs><style>.a,.o,.p,.q{fill:none;}.b{clip-path:url(#a);}.c{fill:#f2f2f2;}.d{fill:#dcd0fe;}.e{fill:#6242ba;}.f{fill:#bba4ff;}.g{fill:#f3a9b8;}.h{fill:#ea4272;}.i{fill:#e87d91;}.j{fill:#4f2caf;}.k{fill:#dfd2fd;}.l{fill:#d7c5ff;}.m{fill:#9c89e5;}.n{fill:#31193b;}.o{stroke:#31193b;}.o,.p,.q{stroke-miterlimit:10;}.o,.q{stroke-width:0.25px;}.p{stroke:#f96c96;stroke-width:0.517px;}.q{stroke:#bba4ff;}.r{fill:#fff;}.s{fill:#480058;font-size:52px;font-family:CeraPro-Bold, Cera Pro;font-weight:700;}</style><clipPath id="a"><rect class="a" width="1366" height="500"/></clipPath></defs><g transform="translate(0 -106)"><g transform="translate(0 106)"><g class="b"><rect class="c" width="1366" height="733.617" transform="translate(0 -233.617)"/><path class="a" d="M298.143,423.932l3.223,5.262q-1.291-2.547-2.561-5.24Z"/><path class="d" d="M234.779,467.3c6.6,16.132,16.344,30.462,22.129,36.665l54.536-.368-23.616-36.3Z"/><path class="d" d="M262.133,427.806l-32.818-2.178c-3.523,12.412-.286,27.475,5.3,41.269h52.952Z"/><path class="d" d="M374.482,503.169l23.834-.161s-1.872-11.849-5.942-28.683l-21.035,21.827Z"/><path class="d" d="M310.788,361.963c-15.914,2.366-21.864,11.521-22.39,23.178l33.871,2.451Z"/><path class="d" d="M346.782,503.355l27.263-.184-12.4-27.681H329.718Z"/><path class="d" d="M371.163,495.759l21.1-21.894c-3.852-15.867-9.644-36.054-17.646-54.945L350.575,449.8Z"/><path class="d" d="M317.761,456.732l-17.393,29.1,11.551,17.754,34.4-.232Z"/><path class="d" d="M350.39,449.387,374.438,418.5c-6.284-14.756-13.917-28.686-23.039-39.091L332.54,409.539Z"/><path class="d" d="M322.455,388.005l-34.067-2.464c-.4,11.669,4.5,25.748,10.226,38.006l40.364,1.343Z"/><path class="d" d="M351.12,379.1c-10.123-11.43-22.061-18.525-36-17.612-1.374.09-2.674.231-3.925.406L332.343,409.1Z"/><path class="d" d="M300.125,485.464l17.4-29.117L300.041,427.8a87.838,87.838,0,0,0-16.32-16.873l-9.569,34.621Z"/><path class="d" d="M301.366,429.194l28.107,45.9h31.993L339.16,425.3,298.8,423.954Q300.07,426.642,301.366,429.194Z"/><path class="d" d="M283.379,410.66c-10.234-7.655-22.383-11.58-35.6-5.655L273.861,445.1Z"/><path class="d" d="M247.408,405.173c-.666.308-1.335.633-2.007.992-8.722,4.655-13.681,11.335-15.976,19.071l32.436,2.151Z"/><path class="e" d="M300.368,485.837l-.064.106-.343-.2.164-.275-25.973-39.92-.024.087-.385-.107.118-.428-26.084-40.091c-.123.055-.246.112-.369.168l14.453,22.214.4.027-.026.4-.1-.006L287.567,466.9h.37v.4h-.109l23.616,36.3.475,0Z"/><path class="e" d="M371.245,496.25l-.288-.278.206-.213L350.575,449.8l-.074.1-.315-.245.2-.263-17.85-39.848-.057.092-.339-.213.2-.318L311.2,361.893c-.141.02-.268.049-.408.07l11.481,25.629.334.024-.028.4-.12-.009,16.523,36.885.32.011-.014.4-.124,0,22.306,49.793h.309v.4h-.13l12.4,27.682.437,0-3.143-7.017Z"/><path class="e" d="M317.587,456.244l.344.2-.17.284,28.555,46.626.466,0L329.718,475.49h-.357v-.4h.112l-28.107-45.9c.212.42.425.846.638,1.258-.633-.881-1.291-1.768-1.963-2.656l17.485,28.551Z"/><path class="e" d="M261.861,427.387l-32.436-2.151c-.039.13-.073.261-.11.392l32.818,2.178Z"/><path class="e" d="M262.234,427.812l.027-.4-.4-.027.272.418Z"/><path class="e" d="M274.152,445.544l9.569-34.621c-.114-.087-.227-.177-.342-.263L273.861,445.1Z"/><path class="e" d="M273.743,445.524l.386.106.024-.087-.291-.448Z"/><path class="e" d="M287.567,466.9H234.615c.054.133.11.266.164.4h53.049Z"/><path class="e" d="M287.937,467.3v-.4h-.369l.26.4Z"/><path class="e" d="M317.526,456.347l-17.4,29.117.243.373,17.393-29.1Z"/><path class="e" d="M299.961,485.739l.344.2.064-.107-.243-.373Z"/><path class="e" d="M317.931,456.448l-.344-.2-.062.1.236.385Z"/><path class="e" d="M322.269,387.592,288.4,385.141c-.006.132-.005.267-.01.4l34.067,2.464Z"/><path class="e" d="M322.575,388.014l.028-.4-.334-.024.185.414Z"/><path class="e" d="M332.54,409.539,351.4,379.407c-.092-.105-.186-.2-.279-.308l-18.777,30Z"/><path class="e" d="M332.144,409.418l.339.213.057-.091-.2-.439Z"/><path class="e" d="M339.16,425.3l-.182-.407-40.364-1.343c.064.136.128.271.191.407Z"/><path class="e" d="M339.284,425.3l.014-.4-.321-.011.182.406Z"/><path class="e" d="M350.575,449.8l24.041-30.88c-.06-.141-.119-.281-.178-.422L350.39,449.387Z"/><path class="e" d="M350.186,449.65l.316.245.074-.095-.185-.413Z"/><path class="e" d="M329.718,475.49h31.927l-.179-.4H329.473Z"/><path class="e" d="M361.775,475.49v-.4h-.309l.179.4Z"/><path class="e" d="M329.361,475.09v.4h.357l-.245-.4Z"/><path class="e" d="M961.72,390.879l.088-5.3-1.724,5.3Z"/><path class="a" d="M363.58,523.893l-.051-1.07-.232.01Z"/><path class="e" d="M358.861,417.575l5.068,105.23,2.93-.126S374.676,419.252,358.861,417.575Z"/><path class="e" d="M363.529,522.823l-5.07-105.271c-.052,0-.1-.011-.154-.009-7.735.335-7.247,23.344-4.532,47.767-5.237-28.408-12.492-56.447-20.554-54.953L363.3,522.833Z"/><path class="e" d="M357.86,522.295l.075-.04c.246.659.385,1.025.385,1.025l3.072-.686-54.5-92.407C295.66,440.871,357.86,522.295,357.86,522.295Z"/><path class="e" d="M362.224,522.408l.639.443h.025L332.834,410.463c-8.484,2.629.056,36.449,9.475,66.391-12.092-25.3-26.874-51.456-34.652-47.242a3.575,3.575,0,0,0-.46.313L361.8,522.5Z"/><path class="f" d="M306.888,430.187a3.389,3.389,0,0,1,.309-.262l-1.5-2.55"/><path class="f" d="M307.2,429.925a3.389,3.389,0,0,0-.309.262l54.5,92.407.41-.092Z"/><path class="f" d="M363.3,522.833,333.219,410.357c-.042.008-.084.005-.126.014-.092.021-.171.065-.259.092L362.888,522.85Z"/><path class="f" d="M358.459,417.552l5.07,105.271.4-.018-5.068-105.23A3.82,3.82,0,0,0,358.459,417.552Z"/><path class="f" d="M344.506,344.618c-26.7,6.106,38.845,169.826,38.845,169.826l.136-.032c.1,1.16.159,1.8.159,1.8l4.75.246L345.455,344.506A6.047,6.047,0,0,0,344.506,344.618Z"/><path class="f" d="M390.248,516.558l.821.989.883.205,1.543-192.49c-15.068-.669-16.5,57.6-14.759,109.936-7.781-44.2-19.223-90.783-32.881-90.735l42.958,172.02Z"/><path class="f" d="M393.752,518.17l37.033-170.216c-.1-.028-.186-.075-.286-.1-12.464-2.9-21.888,33.955-28.392,74.045,4.239-47.371,5.125-95.039-8.213-96.583l-1.543,192.527Z"/><path class="f" d="M431.165,348.084,394.141,518.261l3.368.782S456.121,356.962,431.165,348.084Z"/><path class="e" d="M392.351,517.845l1.543-192.527c-.121-.014-.234-.052-.358-.059-.014,0-.027,0-.041,0l-1.543,192.49Z"/><path class="e" d="M345.855,344.463c-.133,0-.267.034-.4.043L388.4,516.462l.417.021Z"/><path class="e" d="M430.785,347.954,393.752,518.17l.389.091,37.024-170.177C431.039,348.039,430.915,347.99,430.785,347.954Z"/><path class="f" d="M961.808,385.577l-.088,5.3h.4l.109-6.6Z"/><path class="e" d="M1004.323,363.7,962.23,493.16l-.11,6.6h2.8s.073-.516.2-1.444l.109.031S1023.145,372.847,1004.323,363.7Z"/><path class="e" d="M953.652,501.457l4.285-.765L932.417,363.13C914.985,374.406,953.652,501.457,953.652,501.457Z"/><path class="e" d="M958.893,500.521l.7-.761h.069l2.168-6.668,2.441-147.248c-10.486,1.447-11.712,39.419-10.285,77.3-3.567-32.511-9.616-62.539-19.76-60.728a4.9,4.9,0,0,0-1.439.522L958.33,500.622Z"/><path class="e" d="M1003.95,363.55c-.144-.056-.278-.127-.43-.171-11.328-3.213-22.932,35.052-31.29,71.427,3.576-42.06,4.844-89.033-7.338-89.031-.075,0-.145.021-.219.024l-2.421,146Z"/><path class="f" d="M932.417,363.13c.118-.076.248-.129.371-.2"/><path class="f" d="M932.788,362.935c-.123.066-.253.119-.371.2l25.52,137.562.393-.07Z"/><path class="f" d="M962.252,491.8l2.421-146c-.136.007-.268.027-.4.045l-2.441,147.248Z"/><path class="f" d="M962.23,493.16,1004.323,363.7c-.119-.058-.248-.1-.373-.148L962.252,491.8Z"/><path class="a" d="M1063.342,417.546a137.874,137.874,0,0,1-8.572,11.521c1.7-2.034,3.363-3.97,5.006-5.84l4.195-5.8Z"/><path class="a" d="M1068.14,412.346l-5.741,7.937c2.181-2.412,4.316-4.694,6.4-6.823Z"/><path class="d" d="M1024.574,472.578l18.711,25.84,23.377-29.356-19.334-27.944Z"/><path class="d" d="M1063.342,417.546l-36.03,6.853-13.745,33.8,22.291-1.907,23.918-33.067c-1.643,1.87-3.308,3.806-5.006,5.84A137.874,137.874,0,0,0,1063.342,417.546Z"/><path class="d" d="M1109.653,415.08l-14.274-23.387c-7.69,4.5-16.429,11.423-26.292,21.475l17.886,30.391Z"/><path class="d" d="M1062.4,420.283l-14.822,20.492,19.346,27.961,19.784-24.842L1068.8,413.46C1066.715,415.589,1064.58,417.871,1062.4,420.283Z"/><path class="d" d="M1141.37,407.8c-1.149-6.693-4.567-14.03-10.6-18.593l-12.248,15.38Z"/><path class="d" d="M1098.19,430.115l37.642,7.153c4.132-9.661,5.981-18.176,5.981-24.474a29.556,29.556,0,0,0-.378-4.583l-23.2-3.262Z"/><path class="d" d="M1130.445,388.971c-7.467-5.442-18.833-6.661-34.721,2.522l14.193,23.255Z"/><path class="d" d="M1065.366,329.753c-6.7-1.9-15.308-1.03-25.836,3.5a42.476,42.476,0,0,0-12.368,8.413l22.982,25.518Z"/><path class="d" d="M1055.075,484.255l38.147,6.541a161.444,161.444,0,0,0,24.61-24.26l-42.364-7.89Z"/><path class="d" d="M1019.459,442.646,993.214,416c-3.962,16.732-6.763,33.619-8.72,48.313l20.317,14.355Z"/><path class="d" d="M984.434,464.762c-3.334,25.168-4.193,43.77-4.193,43.77h12.427l11.988-29.482Z"/><path class="d" d="M1013.4,458.616l-20.3,49.915h4.974l37.474-51.81Z"/><path class="d" d="M1080.868,346.016c-2.594-8.073-7.631-13.876-15.116-16.148l-7.591,18.668Z"/><path class="d" d="M1049.977,367.6l-23.1-25.652c-8.1,7.812-14.827,19.086-20.4,32.158l28.236,31.035Z"/><path class="d" d="M1034.544,405.549,1006.3,374.511a263.311,263.311,0,0,0-12.982,41.032l26.3,26.7Z"/><path class="d" d="M1027.491,423.958l36.165-6.878a121.787,121.787,0,0,0,16.827-37.574l-37.34,5.961Z"/><path class="d" d="M1024.327,472.919l-25.759,35.612h36.663l7.795-9.788Z"/><path class="d" d="M1035.742,508.532h30.945a191,191,0,0,0,26.112-17.4l-38.008-6.517Z"/><path class="d" d="M1043.319,385.034l37.262-5.949c2.991-12.46,3.133-23.884.416-32.682l-23.007,2.553Z"/><path class="d" d="M1097.909,430.468l-22.158,27.824,42.361,7.89a125.265,125.265,0,0,0,17.563-28.538Z"/><path class="e" d="M1013.276,458.627l-.035-.4.326-.028,13.745-33.8-.107.02-.075-.392.361-.069,15.652-38.491-.112.018-.063-.395.351-.056,14.671-36.078-.119.013-.044-.4.334-.036,7.591-18.668c-.129-.039-.257-.078-.386-.115l-15.222,37.434.213.236-.3.267-.083-.093-15.266,37.541.214.235-.3.269-.084-.093-14.921,36.694.214.216-.285.281-.093-.094-14.648,36.024.206.145-.231.327-.13-.092-11.988,29.482h.433l20.3-49.916Z"/><path class="e" d="M1054.674,484.592l.069-.394.332.057,20.393-25.609-.116-.021.072-.394.327.061,22.158-27.824-.119-.023.075-.392.325.062,20.041-25.166-.113-.016.057-.4.346.048,12.248-15.38c-.106-.08-.216-.156-.324-.234l-20.528,25.777.149.243-.341.208-.072-.119-22.68,28.479.147.25-.344.2-.069-.119-19.784,24.842.153.221-.328.228-.085-.122-23.377,29.355.154.213-.325.235-.088-.123-7.795,9.789h.51l19.049-23.92Z"/><path class="e" d="M1024.164,472.7l.325-.235.085.118,22.755-31.46-.161-.232.328-.228.081.117,14.822-20.492q-1.3,1.439-2.623,2.944l-23.918,33.067.092-.008.034.4-.435.037-37.475,51.811h.495l25.758-35.613Z"/><path class="e" d="M1024.327,472.919l18.7,25.824.259-.325-18.711-25.84Z"/><path class="e" d="M1043.115,498.866l.325-.234-.154-.213-.259.325Z"/><path class="e" d="M1024.489,472.46l-.325.234.163.225.247-.342Z"/><path class="e" d="M1047.329,441.118l19.334,27.944.26-.326-19.346-27.961Z"/><path class="e" d="M1066.748,469.185l.328-.228-.153-.221-.26.326Z"/><path class="e" d="M1047.5,440.658l-.328.228.161.233.248-.343Z"/><path class="e" d="M1086.707,443.894l.266-.335-17.886-30.391c-.1.1-.193.192-.291.292Z"/><path class="e" d="M1086.776,444.013l.344-.2-.147-.25-.266.334Z"/><path class="e" d="M1109.917,414.748l-14.193-23.255c-.115.066-.23.132-.345.2l14.274,23.387Z"/><path class="e" d="M1109.725,415.2l.34-.208-.149-.243-.265.332Z"/><path class="e" d="M1118.231,404.949l23.2,3.262c-.022-.138-.042-.275-.065-.413l-22.849-3.213Z"/><path class="e" d="M1118.175,404.537l-.056.4.113.016.289-.363Z"/><path class="e" d="M1097.909,430.468l37.766,7.176c.055-.126.1-.25.157-.376l-37.642-7.153Z"/><path class="e" d="M1097.865,430.053l-.075.392.119.023.281-.353Z"/><path class="e" d="M1075.468,458.646l42.364,7.89c.1-.118.185-.236.28-.354l-42.361-7.89Z"/><path class="e" d="M1075.352,458.625l.116.022.282-.354-.327-.061Z"/><path class="e" d="M1054.791,484.612l38.008,6.517c.14-.111.284-.221.423-.333l-38.147-6.541Z"/><path class="e" d="M1054.674,484.592l.117.02.284-.357-.332-.057Z"/><path class="e" d="M1013.4,458.616l22.151-1.9.309-.428-22.291,1.907Z"/><path class="e" d="M1013.241,458.229l.034.4.122-.011.169-.415Z"/><path class="e" d="M1035.984,456.684l-.034-.4-.091.008-.309.428Z"/><path class="e" d="M1004.811,478.67l-20.317-14.355-.06.447,20.222,14.288Z"/><path class="e" d="M1004.786,479.142l.231-.326-.206-.146-.155.381Z"/><path class="e" d="M1019.623,442.243l-26.3-26.7c-.037.153-.073.306-.109.459l26.245,26.644Z"/><path class="e" d="M1019.552,442.74l.284-.281-.213-.217-.164.4Z"/><path class="e" d="M1063.971,417.426l.341-.471-.656.125c-.1.156-.21.31-.314.466Z"/><path class="e" d="M1027.312,424.4l36.03-6.853c.1-.156.211-.31.314-.466l-36.165,6.878Z"/><path class="e" d="M1027.13,424.027l.075.392.107-.02.179-.44Z"/><path class="e" d="M1034.711,405.138,1006.475,374.1c-.057.135-.113.273-.17.408l28.239,31.038Z"/><path class="e" d="M1034.628,405.642l.3-.269-.214-.235-.167.411Z"/><path class="e" d="M1043.143,385.467l37.34-5.961c.034-.141.064-.28.1-.421l-37.262,5.949Z"/><path class="e" d="M1042.968,385.09l.063.4.112-.018.176-.433Z"/><path class="e" d="M1050.144,367.187l-22.982-25.518c-.1.092-.192.183-.288.276l23.1,25.652Z"/><path class="e" d="M1050.06,367.69l.3-.267-.213-.237-.167.411Z"/><path class="f" d="M1025.883,426.015a3.239,3.239,0,0,0-1.268-1.251c-7-3.79-20.294,19.736-31.171,42.495,8.362-26.581,15.955-56.562,8.816-59.615l-26.109,97.328Z"/><path class="f" d="M1001.882,407.509c-.051-.015-.1-.041-.148-.053-7.3-1.63-13.866,23.733-18.6,49.419,2.442-21.969,2.881-42.666-4.077-42.967-.036,0-.069.006-.1.006l-3.291,91.352Z"/><path class="f" d="M974.332,508.607l.426.018.324-1.209Z"/><path class="f" d="M978.549,413.937c-14.217,1.537-7.188,94.542-7.188,94.542l2.512.109,1.343-2.132Z"/><path class="f" d="M975.594,507.049l-.043,1.191,3.491.78s.125-.329.347-.922l.067.036s52.33-68.5,46.636-81.7L975.8,506.275Z"/><path class="e" d="M976.151,504.972l26.109-97.328a2.826,2.826,0,0,0-.378-.135l-26.223,97.757,3.291-91.352a3.318,3.318,0,0,0-.4.023l-3.333,92.519Z"/><path class="e" d="M975.8,506.275l-.719,1.142-.324,1.209.2.009.575-.4.02,0,.043-1.191Z"/><path class="e" d="M975.2,506.989l.019-.533-1.343,2.132.459.02.75-1.191Z"/><path class="e" d="M976.151,504.972l-.35,1.3,50.291-79.844a3.69,3.69,0,0,0-.209-.416Z"/><path class="e" d="M975.2,506.989l-.115.427.719-1.142.35-1.3-.935,1.484Z"/><path class="e" d="M371.245,496.25l.094-.1-.176-.393-.205.213Z"/><path class="e" d="M984.434,464.762l.06-.447"/><path class="e" d="M1026.874,341.945c.1-.093.192-.184.288-.276"/><path class="e" d="M1057.99,348.956,1081,346.4c-.04-.132-.087-.257-.129-.387l-22.707,2.52Z"/><path class="e" d="M1057.827,348.572l.044.4.119-.013.171-.42Z"/><path class="g" d="M952.624,223.655s-4.817-7.663-3.884-9c.816-1.061,3.426,3.9,3.426,3.9s-.849-5.218-1.58-7.747,2.4-3.33,4.993,1.047,1.514,11.793,1.514,11.793Z"/><path class="g" d="M742.547,302.409s-5.792-1.831-6.517,6.854c0,4.973,1.593,4.839,1.593,4.839l6.2-4.839Z"/><path class="h" d="M579.894,400.452l-11.47,193.017h11.6L610.19,429.657l17.73,163.812h10.868l.617-193.017Z"/><path class="i" d="M5.756,0h6.9a5.756,5.756,0,0,1,5.756,5.756V24.55a0,0,0,0,1,0,0H0a0,0,0,0,1,0,0V5.756A5.756,5.756,0,0,1,5.756,0Z" transform="translate(619.293 317.601) rotate(-180)"/><path class="g" d="M595.338,275.476s-4.875-.517-4.875,4.592,6.28,5.627,6.28,5.627Z"/><path class="g" d="M624.835,275.476s4.875-.517,4.875,4.592-6.28,5.627-6.28,5.627Z"/><rect class="g" width="29.982" height="41.808" rx="9.374" transform="translate(625.078 299.786) rotate(-180)"/><path class="j" d="M502.209,407.973l-9.885,185.5H507.9l28.031-147.8,18,147.8h15.588l1.015-185.5Z"/><path class="k" d="M568.318,336.423c0-41.944-20.944-35.827-41.916-35.827s-20.1,35.827-20.1,35.827L500.2,415.281c24.08,8.166,47.906,8.349,71.46,0Z"/><line class="g" x1="1.35" y1="9.82" transform="translate(522.616 271.172)"/><path class="i" d="M536.79,307.821h0c-4.887,0-8.848-.127-8.848-5.013V288.062h17.7v14.746C545.637,307.694,541.676,307.821,536.79,307.821Z"/><rect class="g" width="28.814" height="40.179" rx="9.009" transform="translate(551.197 294.535) rotate(180)"/><path class="f" d="M940.463,336.423c0-41.944-20.943-35.827-41.915-35.827s-20.1,35.827-20.1,35.827l-4.1,71.55q34.161,13.664,68.322,0Z"/><path class="h" d="M874.354,407.973l-9.885,185.5h15.573l28.992-157.43,17.039,157.43h15.588l1.015-185.5A98.435,98.435,0,0,1,874.354,407.973Z"/><path class="g" d="M894.761,271.172s-4.685-.5-4.685,4.413,6.035,5.407,6.035,5.407Z"/><path class="g" d="M923.109,271.172s4.685-.5,4.685,4.413-6.035,5.407-6.035,5.407Z"/><path class="i" d="M908.935,308.349h0c-4.886,0-8.848-.655-8.848-5.541V288.062h17.7v14.746C917.782,307.694,913.821,308.349,908.935,308.349Z"/><path class="g" d="M9.008,0h10.8a9.009,9.009,0,0,1,9.009,9.009V31.171a9.008,9.008,0,0,1-9.008,9.008H9.009A9.009,9.009,0,0,1,0,31.171V9.008A9.008,9.008,0,0,1,9.008,0Z" transform="translate(923.342 294.535) rotate(180)"/><path class="l" d="M755.869,305.326s-20.744-1.357-24.44,21.841c-4.453,27.952,11.648,31.143-4.453,73.285h59.511s-13.2-15.3-2.676-50.267S772.291,305.326,755.869,305.326Z"/><path class="i" d="M757.168,314.3h0c-5.084,0-9.206-.816-9.206-5.9V293.051h18.412v15.344C766.374,313.479,762.253,314.3,757.168,314.3Z"/><line class="g" x1="1.405" y1="10.219" transform="translate(742.42 275.476)"/><path class="g" d="M757.168,299.786h0A15.035,15.035,0,0,1,742.177,284.8V272.969a15.035,15.035,0,0,1,14.991-14.991h0a15.035,15.035,0,0,1,14.991,14.991V284.8A15.035,15.035,0,0,1,757.168,299.786Z"/><path class="g" d="M428.142,411.1,417.3,593.469h10.958l28.5-154.776,16.752,154.776h10.268L484.37,411.1Z"/><path class="h" d="M455.442,321.221s-19.6-1.282-23.092,20.636c-4.208,26.41,11.005,29.425-4.208,69.243H484.37s-12.474-14.459-2.528-47.495S470.958,321.221,455.442,321.221Z"/><path class="i" d="M456.669,332.819h0a8.7,8.7,0,0,1-8.7-8.7v-14.5h17.4v14.5A8.7,8.7,0,0,1,456.669,332.819Z"/><path class="g" d="M442.734,293.018s-4.606-.489-4.606,4.338,5.934,5.316,5.934,5.316Z"/><path class="g" d="M470.6,293.018s4.606-.489,4.606,4.338-5.933,5.316-5.933,5.316Z"/><path class="g" d="M456.669,315.987h0a14.206,14.206,0,0,1-14.164-14.165V290.649a14.205,14.205,0,0,1,14.164-14.164h0a14.2,14.2,0,0,1,14.164,14.164v11.173A14.205,14.205,0,0,1,456.669,315.987Z"/><path class="g" d="M798.309,399.5l-11.823,193.97h11.954l31.095-164.621,18.275,164.621h11.2l.636-193.97Z"/><path class="e" d="M828.091,301.45s-21.382-1.4-25.191,22.512c-4.591,28.811,12.006,32.1-4.591,75.537h61.34s-13.609-15.773-2.758-51.812S845.017,301.45,828.091,301.45Z"/><path class="i" d="M829.43,314.1h0a9.489,9.489,0,0,1-9.489-9.489V288.8h18.978v15.815A9.489,9.489,0,0,1,829.43,314.1Z"/><path class="g" d="M814.228,270.683s-5.025-.533-5.025,4.733,6.473,5.8,6.473,5.8Z"/><path class="g" d="M844.631,270.683s5.025-.533,5.025,4.733-6.472,5.8-6.472,5.8Z"/><path class="g" d="M829.43,295.74h0a15.5,15.5,0,0,1-15.452-15.452V268.1a15.5,15.5,0,0,1,15.452-15.452h0A15.5,15.5,0,0,1,844.882,268.1v12.189A15.5,15.5,0,0,1,829.43,295.74Z"/><path class="m" d="M716.9,331.355c0-42.77-21.356-36.533-42.741-36.533s-20.494,36.533-20.494,36.533l-4.177,72.961a104.725,104.725,0,0,0,69.669,0Z"/><path class="d" d="M649.485,404.316l-10.08,189.153h15.88l29.564-160.534,17.375,160.534h15.9l1.034-189.153C696.123,411.051,672.9,410.942,649.485,404.316Z"/><path class="i" d="M684.748,302.793h0c-4.983,0-9.022-.733-9.022-5.716V282.041H693.77v15.036C693.77,302.06,689.731,302.793,684.748,302.793Z"/><path class="g" d="M684.748,288.641h0a14.734,14.734,0,0,1-14.691-14.691V262.361a14.734,14.734,0,0,1,14.691-14.691h0a14.734,14.734,0,0,1,14.691,14.691V273.95A14.734,14.734,0,0,1,684.748,288.641Z"/><path class="e" d="M597.705,307.821s-11.867,4.106-32.941,21.331-36.812,19.107-36.812,19.107l.131,13.176s39.246-4.865,66.655-32.1"/><path class="h" d="M447.43,324.187s-27.839-17.508-32.235-68.055c-3.907,0-4.35.022-4.35.022s-6.029,62.513,22.053,93.037"/><path class="h" d="M465.368,322.538s12.557,0,38.107,9.378,40.642,3.814,40.642,3.814l2.044,3.841s-36.139,19.093-70.951,2.326"/><path class="e" d="M646.114,450.059a189.575,189.575,0,0,1-73.265,0,204.392,204.392,0,0,1,10.588-66.005,57.983,57.983,0,0,0,2.3-29.832c-1.478-7.806-3.279-15.209-1.392-27.055,3.7-23.2,24.44-21.841,24.44-21.841,16.422,0,38.469,9.894,27.942,44.859q-.273.9-.523,1.79a59.723,59.723,0,0,0,1.3,35.533C647.138,415.876,646.114,450.059,646.114,450.059Z"/><path class="e" d="M621.847,307.821s11.866,4.106,32.94,21.331S691.5,345.509,691.5,345.509v13.349s-39.274-2.288-66.683-29.523"/><path class="k" d="M527.942,300.587s-15.225-1.578-43.471,20.165c-27.312,17.819-51.932,5.79-51.932,5.79l-1.666,4.019s12.611,18.408,39.136,15.466a110.57,110.57,0,0,0,46.07-16.478Z"/><path class="l" d="M764.877,306.1s12.273,2.656,35.257,17.236S840.98,336.6,840.98,336.6l-.821,5.621s-39.29,8.643-69.762-15.116"/><path class="k" d="M545.637,300.35s13.165-4.177,44.734,12.378c29.973,12.849,52.141-2.518,52.141-2.518l3.6,5.287s-10.509,17.967-37.145,19.637a110.576,110.576,0,0,1-48.219-8.3Z"/><path class="l" d="M741.611,309.263S731.379,316.542,716.005,339s-31.69,26.631-31.69,26.631l2.58,7.786s39.288-8.829,57.924-42.677"/><path class="m" d="M693.657,294.5s15.307-1.46,41.174,23.066c25.34,20.527,50.592,10.911,50.592,10.911l2.038,8.552s-14.754,12.809-40.838,7.161a110.574,110.574,0,0,1-44.137-21.116Z"/><path class="m" d="M674.156,294.822s-15.865-.326-41.732,24.2c-25.34,20.526-50.589,10.814-50.589,10.814l-3.029,7.306s15.742,14.152,41.826,8.5a110.574,110.574,0,0,0,44.137-21.116Z"/><path class="f" d="M896.111,300.975s-15.306.158-40.907,24.961c-21.234,23.474-49.185,12.643-49.185,12.643l-1.066,4.292s12.725,15.744,38.746,9.815A110.573,110.573,0,0,0,887.606,331.1Z"/><path class="f" d="M917.782,300.476s29.859-18.322,34.812-75.282h4.5s19.655,36.156-22.935,103.3"/><path class="e" d="M838.919,302.284s12.523.926,37.308,12.174,41.1,6.331,41.1,6.331l1.666,4.019s-28.913,17.016-71.688-2.489"/><path class="e" d="M819.941,302.607s-12.371-2.746-39.151,2.117c-19.644,3.567-32.687-.105-38.243-2.315a3.59,3.59,0,0,0-4.575,1.839h0A3.6,3.6,0,0,0,739.4,308.9c8.733,5.118,36.752,19.233,67.526,10.5"/><path class="n" d="M456.669,272.743s-13.694,0-18.541,13.639-17.69,24.466-8.091,31.219,2.47,20.238,22.309,23.028,22.864-10.23,22.864-21.7,8.909-8.346,5.344-22.694S465.487,272.743,456.669,272.743Z"/><path class="h" d="M536.37,252.749s-13.349-.34-16.758,15.406S527,297.838,536.79,297.838s18.779-10.681,17.074-28.97S536.37,252.749,536.37,252.749Z"/><path class="n" d="M762.9,254.023c9-9.638-12.422-12.339-14.054-5.077-.165.733,1.057,5.444,2.178,5.077,0,0-14.922,4.872-12.407,23.392.883,6.5,2.716,14.259,8.4,18.975,5.105,4.236,13.746,4.542,19.292.736,6.464-4.437,8.091-13.018,9-19.711C777.826,258.893,762.9,254.023,762.9,254.023Z"/><path class="h" d="M850.119,268.7c-5.244-23.7-38.917-22.5-42.867,1.445a67.265,67.265,0,0,0-.833,10.942V334.56c15.806,4.1,30.859,4.048,45.187,0V281.641A63.122,63.122,0,0,0,850.119,268.7Z"/><path class="j" d="M921.222,251.961c-4.118-8.043-20.855-8.086-24.994,0-3.44,6.72-11.575,8.32-10.025,18.947s7.46,10.964,10.025,17.962c3.8,10.372,21.193,10.371,24.994,0,2.564-7,8.475-7.335,10.025-17.962S924.661,258.682,921.222,251.961Z"/><path class="g" d="M415.2,256.132s1.469-8.932.092-9.8c-1.164-.661-1.644,4.928-1.644,4.928s-1.242-5.14-1.548-7.754-3.5-2.141-4.2,2.9,2.947,9.747,2.947,9.747Z"/><path class="g" d="M432.539,326.542s-7.664-4.817-9-3.884c-1.061.816,3.9,3.426,3.9,3.426s-5.218-.849-7.747-1.58-3.33,2.4,1.047,4.993,10.127,1.064,10.127,1.064Z"/><path class="g" d="M527.952,348.259s-8.957-1.31-9.8.082c-.64,1.176,4.955,1.557,4.955,1.557s-5.116,1.332-7.725,1.685-2.078,3.537,2.975,4.144a19.225,19.225,0,0,0,9.725-1.743Z"/><path class="g" d="M544.117,335.73S551.284,330.2,552.7,331c1.134.711-3.558,3.784-3.558,3.784s5.113-1.345,7.56-2.314,3.544,2.065-.564,5.07-9.978,2.029-9.978,2.029Z"/><path class="g" d="M581.835,329.837s-7.664-4.817-9-3.884c-1.061.817,3.9,3.426,3.9,3.426s-5.218-.849-7.747-1.579-3.33,2.4,1.047,4.993,10.127,1.063,10.127,1.063Z"/><path class="g" d="M684.315,365.633s-8.948,1.37-9.346,2.948c-.268,1.311,5.2.037,5.2.037s-4.5,2.772-6.894,3.873-.951,3.991,4.059,3.092,8.355-5.821,8.355-5.821Z"/><path class="g" d="M691.5,345.509s8.33-3.542,9.5-2.409c.918.975-4.4,2.764-4.4,2.764s5.287-.011,7.9-.332,2.908,2.893-1.825,4.764-11.176.709-11.176.709Z"/><path class="g" d="M785.423,328.481s8.33-3.542,9.5-2.409c.917.974-4.4,2.764-4.4,2.764s5.287-.011,7.9-.332,2.908,2.893-1.825,4.764-10.168-.555-10.168-.555Z"/><path class="g" d="M804.526,338.081s-8.33-3.542-9.5-2.409c-.918.974,4.4,2.764,4.4,2.764s-5.287-.011-7.9-.332-2.908,2.893,1.825,4.764,10.168-.555,10.168-.555Z"/><path class="g" d="M917.323,320.789s7.663-4.817,9-3.884c1.06.816-3.9,3.426-3.9,3.426s5.218-.849,7.747-1.58,3.33,2.4-1.047,4.993-10.127,1.064-10.127,1.064Z"/><path class="n" d="M435.056,381.238s-20.849,45.953-20.849,101.454c14.833,6.88,68.975,4.573,78.116,0,0,0,1.935-74.518-14.032-101.454C478.291,381.238,461.622,386.459,435.056,381.238Z"/><path class="n" d="M782.055,391.477c-16.5,5.463-42.126,4.065-51.943,0,0,0-8.021,11.415-6.693,36.956a356.847,356.847,0,0,1-.464,39.678l-7.45,125.358h11.6l30.167-163.812L775,593.469h10.868l.568-126.16a319.748,319.748,0,0,1,2.238-38.191C791.059,410.03,787.866,400.026,782.055,391.477Z"/><path class="n" d="M855.153,354.128c-17.3,3.381-34.124,3.487-50.422-.144,0,0-11.871,41.288-11.871,94.646,17.934,6.113,62.479,2.92,72.5,0C865.36,448.63,864.469,379.472,855.153,354.128Z"/><path class="f" d="M526.4,300.6l1.54-.716s-.009,7.393,8.848,7.393,8.857-7.706,8.857-7.706l1.35.515s1.527,9.78-10.207,9.78S526.4,300.6,526.4,300.6Z"/><path class="e" d="M675.726,293.051s.535,8.336,9.022,8.336,9.022-8.674,9.022-8.674l2.7,1.951s.133,9.956-11.723,9.956-11.856-9.71-11.856-9.71Z"/><path class="n" d="M586.622,368.171l-.338,3.69s20.587,6.97,47.987,0l-.163-3.69C607.059,374.05,586.622,368.171,586.622,368.171Z"/><path class="o" d="M656.671,330.656s13.042-12.294.9-30.372"/><path class="o" d="M716.191,332.335s-18.542-7.967-3.034-31.36"/><path class="o" d="M508.075,424.077l22.224,4.241s1.548,17.353-12.459,17.353S508.075,424.077,508.075,424.077Z"/><path class="o" d="M563.781,424.077l-22.224,4.241s-1.549,17.353,12.458,17.353S563.781,424.077,563.781,424.077Z"/><path class="o" d="M878.954,403.051s32.4,9.438,59.032,0"/><path class="p" d="M751.883,254.175s4.3,3.241,10.136,0"/><path class="e" d="M730.739,389.437s26.761,7.067,50.719,0l.6,2.04s-8.033,4.188-25.658,4.188-26.285-4.188-26.285-4.188Z"/><path class="n" d="M741.358,395.5v-4.072l2.01.266v4.267Z"/><path class="n" d="M770.7,395.665v-3.946l-1.823.232v3.714Z"/><path class="e" d="M488.16,484.025l-.455.1c0-68.371-12.863-101.716-12.993-102.044l.406-.081C475.248,382.332,488.16,415.578,488.16,484.025Z"/><path class="q" d="M509.291,306.877s5.327,10.717,0,25.12"/><path class="q" d="M564.384,326.774s-5.676-9.772,0-23.188"/><line class="q" x1="11.851" y2="187.735" transform="translate(643.062 405.733)"/><line class="q" x2="2.789" y2="174.295" transform="translate(712.716 406.017)"/><line class="q" x2="2.66" y2="6.481" transform="translate(688.836 365.633)"/><path class="n" d="M618.421,256.256a20.5,20.5,0,0,0-16.077,1.4,25.366,25.366,0,0,0-7.857,6.159l.013-.052a66.123,66.123,0,0,0-6.56,9.138c-1.993,3.781-13.981,14.672-12.233,25.045a16.98,16.98,0,0,1,3.212-8.121c-1.141,2.749-1.174,5.8.975,9.965,4.659-6.894,16.9,2.87,37.051,2.87C635.079,302.656,640.344,263.989,618.421,256.256Z"/><path class="j" d="M702.5,257.978c0-5.42-4.338-8.539-8.726-10.308-6.186-2.494-13.264-2.481-18.955,1a14.587,14.587,0,0,0-7.006,10h-.035v.178a18.046,18.046,0,0,0-.3,3.206c0,2.918.072,5.679.188,8.239l-.188,18.354,1.038-3.621v3.621H700.9s.136-1.318.516-7.191l1.082,7.191Z"/><path class="m" d="M886.368,303.673a10.637,10.637,0,0,1,11.4-5.467c8.024,1.448,9.228,4.893,14.042,2.769s7.29-5.232,11.468-5.232c0,12.2-1.588,21.555-12.671,23.57S897.565,302.477,886.368,303.673Z"/><path class="m" d="M803.518,342.313l1.008-4.232,1.493.5-1.066,4.291Z"/><rect class="m" width="4.498" height="1.539" transform="translate(952.594 223.655)"/><path class="r" d="M244.7,190.712h67.2s-3.5-16.8-23.1-11.2c-18.9-18.9-32.2-1.143-32.2-1.143S244.7,177.412,244.7,190.712Z" transform="translate(-17 28)"/><path class="r" d="M1066.166,231.5h67.2s-3.5-16.8-23.1-11.2c-18.9-18.9-32.2-1.142-32.2-1.142S1066.166,218.2,1066.166,231.5Z" transform="translate(99.632 -78)"/><path class="r" d="M604,141.331h51.91s-4.963-12.922-18.222-7.425C628.671,118.974,604,124.371,604,141.331Z" transform="translate(-115 -29)"/></g></g><path class="r" d="M66.093,295.429H183.94s-6.138-29.461-40.51-19.642c-33.144-33.144-56.467-2-56.467-2S66.093,272.105,66.093,295.429Z" transform="translate(-39.94 164.334)"/><path class="r" d="M630.018,268.217H747.865s-6.138-29.463-40.51-19.641c-33.144-33.145-56.467-2-56.467-2S630.018,244.893,630.018,268.217Z" transform="translate(589.29 208.645)"/><path class="r" d="M558.235,232.137h91.03s-8.7-22.66-31.953-13.02C601.5,192.931,558.235,202.4,558.235,232.137Z" transform="translate(472.439 138.062)"/><text class="s" transform="translate(683 246)"><tspan x="-244.79" y="0">BUILD YOUR DREAM</tspan><tspan x="-183.066" y="55">STARTUP TEAM</tspan></text></g></svg>