<svg xmlns="http://www.w3.org/2000/svg" xmlns:xlink="http://www.w3.org/1999/xlink" width="1045.044" height="163.133" viewBox="0 0 1045.044 163.133"><defs><style>.a,.b{fill:none;}.b{stroke:#bcbec0;stroke-miterlimit:10;stroke-width:0.75px;}.c{clip-path:url(#a);}.d{opacity:0.2;}.e{clip-path:url(#b);}.f{fill:#ff7e02;}.g{clip-path:url(#c);}.h{clip-path:url(#d);}.i{clip-path:url(#e);}.j{clip-path:url(#f);}.k{clip-path:url(#g);}.l{clip-path:url(#h);}.m{clip-path:url(#i);}</style><clipPath id="a"><rect class="a" width="1044.294" height="162.383" transform="translate(150.577 2656.719)"/></clipPath><clipPath id="b"><rect class="a" width="103.79" height="85.48" transform="translate(122.46 2634.42)"/></clipPath><clipPath id="c"><rect class="a" width="103.79" height="85.48" transform="translate(121.977 2782.58)"/></clipPath><clipPath id="d"><rect class="a" width="103.791" height="85.48" transform="translate(548.584 2776.36)"/></clipPath><clipPath id="e"><rect class="a" width="103.79" height="85.48" transform="translate(401.807 2602.49)"/></clipPath><clipPath id="f"><rect class="a" width="103.79" height="85.48" transform="translate(694.198 2620.28)"/></clipPath><clipPath id="g"><rect class="a" width="103.79" height="85.48" transform="translate(790.368 2755.54)"/></clipPath><clipPath id="h"><rect class="a" width="103.79" height="85.48" transform="translate(1009.186 2613.98)"/></clipPath><clipPath id="i"><rect class="a" width="103.79" height="85.48" transform="translate(1116.646 2784.59)"/></clipPath></defs><g transform="translate(-150.203 -2656.344)"><rect class="b" width="1044.294" height="162.383" transform="translate(150.578 2656.719)"/><g class="c"><g class="d"><g class="e"><path class="f" d="M226.223,2655.443a22.2,22.2,0,0,0-5.034-12.875,22.971,22.971,0,0,0-12.048-7.646c-.44-.1-8.823-2.051-15.521,2.551a22.962,22.962,0,0,0-2.7,2.318c-4,3.709-39.808,40.173-41.993,42.606a7.941,7.941,0,0,0-.2,7.654,8.62,8.62,0,0,0,7.266,4.612,7.053,7.053,0,0,0,4.663-1.639c1.843-1.847,38.419-38.89,38.492-39.053a.648.648,0,0,0,.066-.424.8.8,0,0,0-.372-.477l-3.3-3.253a1.082,1.082,0,0,1-.379-.588,1.029,1.029,0,0,1,.744-1.112q7.808-.294,15.626-.593a1.559,1.559,0,0,1,1.084.357,1.581,1.581,0,0,1,.421.963c.11.967-.057,7.06-.413,15.376a.963.963,0,0,1-.631,1,1.164,1.164,0,0,1-1.281-.455l-3.634-3.582c-2.617,3.612-38.072,39.027-40,40.344a16.484,16.484,0,0,1-13.5,2.85,20.269,20.269,0,0,1-15.222-14.35,20.048,20.048,0,0,1,3.606-16.133l21.205-21.515a7.119,7.119,0,0,0,.971-5.169,8.726,8.726,0,0,0-3.647-5.325,10.312,10.312,0,0,0-2.027-1.029,7.813,7.813,0,0,0-2-.45,6.513,6.513,0,0,0-2.783.4c-1.619.58-8.037,7.128-8.527,7.737-5.984,6.3-11.638,12.253-17.621,18.555a31.236,31.236,0,0,0-4.729,21.7,35.975,35.975,0,0,0,6.945,16.333,38.265,38.265,0,0,0,20.771,13.805c11.858,2.888,22.378-1.207,27.092-5.565.169-.156,34.6-35.1,39.219-39.605,6.55-6.393,5.056-4.841,5.656-5.686a19.806,19.806,0,0,0,3.742-12.636"/></g></g><g class="d"><g class="g"><path class="f" d="M225.74,2803.6a22.2,22.2,0,0,0-5.034-12.873,22.983,22.983,0,0,0-12.049-7.648c-.439-.1-8.822-2.049-15.52,2.551a23.257,23.257,0,0,0-2.7,2.319c-4,3.708-39.808,40.174-41.994,42.606a7.939,7.939,0,0,0-.2,7.654,8.62,8.62,0,0,0,7.266,4.612,7.059,7.059,0,0,0,4.663-1.639c1.843-1.848,38.419-38.89,38.491-39.054a.645.645,0,0,0,.067-.424.806.806,0,0,0-.373-.476l-3.3-3.254a1.081,1.081,0,0,1-.38-.587,1.031,1.031,0,0,1,.745-1.112q7.808-.3,15.626-.593a1.342,1.342,0,0,1,1.5,1.32c.11.966-.056,7.06-.412,15.376a.966.966,0,0,1-.631,1,1.167,1.167,0,0,1-1.281-.456l-3.634-3.583c-2.617,3.613-38.072,39.029-40,40.345a16.5,16.5,0,0,1-13.5,2.851,20.27,20.27,0,0,1-15.222-14.352,20.056,20.056,0,0,1,3.606-16.133l21.205-21.515a7.11,7.11,0,0,0,.97-5.168,8.721,8.721,0,0,0-3.647-5.325,10.218,10.218,0,0,0-2.026-1.028,7.767,7.767,0,0,0-2-.452,6.506,6.506,0,0,0-2.783.4c-1.62.579-8.037,7.128-8.527,7.736-5.984,6.3-11.638,12.254-17.621,18.556a31.23,31.23,0,0,0-4.73,21.694,36,36,0,0,0,6.946,16.335,38.269,38.269,0,0,0,20.771,13.8c11.858,2.888,22.378-1.207,27.092-5.564.169-.157,34.594-35.1,39.218-39.6,6.551-6.394,5.057-4.842,5.656-5.686a19.816,19.816,0,0,0,3.743-12.638"/></g></g><g class="d"><g class="h"><path class="f" d="M652.349,2797.381a22.2,22.2,0,0,0-5.035-12.873,22.99,22.99,0,0,0-12.048-7.648c-.439-.1-8.822-2.049-15.52,2.551a23.41,23.41,0,0,0-2.7,2.32c-4,3.708-39.807,40.173-41.993,42.606a7.941,7.941,0,0,0-.2,7.654,8.627,8.627,0,0,0,7.267,4.612,7.053,7.053,0,0,0,4.663-1.64c1.843-1.847,38.418-38.889,38.491-39.053a.647.647,0,0,0,.067-.425.813.813,0,0,0-.373-.476l-3.3-3.254a1.073,1.073,0,0,1-.38-.587,1.031,1.031,0,0,1,.744-1.112q7.809-.3,15.627-.593a1.342,1.342,0,0,1,1.5,1.321c.11.966-.056,7.06-.412,15.376a.964.964,0,0,1-.631,1,1.165,1.165,0,0,1-1.281-.455l-3.634-3.583c-2.617,3.613-38.072,39.028-40,40.345a16.494,16.494,0,0,1-13.5,2.85,20.268,20.268,0,0,1-15.222-14.351,20.056,20.056,0,0,1,3.606-16.133l21.2-21.515a7.112,7.112,0,0,0,.97-5.169,8.729,8.729,0,0,0-3.647-5.325,10.256,10.256,0,0,0-2.026-1.028,7.817,7.817,0,0,0-2-.451,6.531,6.531,0,0,0-2.784.4c-1.619.579-8.036,7.129-8.526,7.736l-17.622,18.557a31.236,31.236,0,0,0-4.729,21.693,36,36,0,0,0,6.946,16.335,38.261,38.261,0,0,0,20.77,13.8c11.859,2.889,22.379-1.206,27.093-5.564.168-.157,34.594-35.1,39.218-39.6,6.551-6.394,5.057-4.841,5.656-5.686a19.811,19.811,0,0,0,3.743-12.638"/></g></g><g class="d"><g class="i"><path class="f" d="M505.57,2623.509a22.208,22.208,0,0,0-5.034-12.875,22.988,22.988,0,0,0-12.049-7.646c-.439-.1-8.822-2.05-15.52,2.551a23.078,23.078,0,0,0-2.7,2.32c-4,3.708-39.808,40.172-41.994,42.6a7.944,7.944,0,0,0-.2,7.656,8.626,8.626,0,0,0,7.266,4.612,7.065,7.065,0,0,0,4.663-1.64c1.843-1.847,38.419-38.89,38.491-39.054a.645.645,0,0,0,.067-.424.807.807,0,0,0-.373-.476l-3.3-3.254a1.082,1.082,0,0,1-.38-.587,1.032,1.032,0,0,1,.745-1.113q7.808-.294,15.626-.593a1.343,1.343,0,0,1,1.5,1.321c.11.967-.056,7.061-.412,15.375a.967.967,0,0,1-.631,1.006,1.168,1.168,0,0,1-1.281-.455l-3.634-3.583c-2.617,3.613-38.072,39.028-40,40.345a16.5,16.5,0,0,1-13.5,2.849A20.264,20.264,0,0,1,417.7,2658.1a20.054,20.054,0,0,1,3.606-16.134l21.2-21.514a7.116,7.116,0,0,0,.97-5.169,8.721,8.721,0,0,0-3.647-5.325,10.235,10.235,0,0,0-2.026-1.029,7.817,7.817,0,0,0-2-.451,6.5,6.5,0,0,0-2.783.4c-1.62.579-8.037,7.128-8.527,7.736-5.984,6.3-11.638,12.254-17.621,18.556a31.231,31.231,0,0,0-4.73,21.694,35.982,35.982,0,0,0,6.946,16.333A38.264,38.264,0,0,0,429.861,2687c11.858,2.888,22.378-1.206,27.092-5.566.169-.155,34.594-35.1,39.218-39.6,6.551-6.392,5.057-4.84,5.656-5.685a19.806,19.806,0,0,0,3.743-12.637"/></g></g><g class="d"><g class="j"><path class="f" d="M797.962,2641.3a22.194,22.194,0,0,0-5.034-12.873,23,23,0,0,0-12.048-7.648c-.44-.1-8.823-2.049-15.521,2.552a23.17,23.17,0,0,0-2.7,2.319c-4,3.708-39.808,40.172-41.993,42.6a7.941,7.941,0,0,0-.2,7.655,8.624,8.624,0,0,0,7.266,4.612,7.063,7.063,0,0,0,4.663-1.639c1.843-1.848,38.419-38.891,38.492-39.054a.648.648,0,0,0,.066-.425.809.809,0,0,0-.372-.476l-3.3-3.253a1.085,1.085,0,0,1-.38-.588,1.032,1.032,0,0,1,.745-1.112q7.807-.294,15.626-.593a1.344,1.344,0,0,1,1.505,1.321c.109.966-.057,7.06-.413,15.376a.964.964,0,0,1-.631,1,1.165,1.165,0,0,1-1.281-.455l-3.634-3.583c-2.617,3.613-38.072,39.028-40,40.345a16.49,16.49,0,0,1-13.5,2.849,20.264,20.264,0,0,1-15.222-14.35,20.056,20.056,0,0,1,3.606-16.133l21.205-21.515a7.116,7.116,0,0,0,.971-5.169,8.729,8.729,0,0,0-3.647-5.325,10.372,10.372,0,0,0-2.027-1.029,7.866,7.866,0,0,0-2-.45,6.513,6.513,0,0,0-2.783.4c-1.619.579-8.037,7.128-8.527,7.736-5.984,6.3-11.638,12.254-17.621,18.556a31.234,31.234,0,0,0-4.729,21.694,35.994,35.994,0,0,0,6.945,16.335,38.268,38.268,0,0,0,20.771,13.8c11.858,2.889,22.378-1.206,27.092-5.566.169-.155,34.594-35.1,39.219-39.605,6.55-6.392,5.056-4.84,5.656-5.685a19.807,19.807,0,0,0,3.742-12.637"/></g></g><g class="d"><g class="k"><path class="f" d="M894.132,2776.562a22.2,22.2,0,0,0-5.034-12.874,22.981,22.981,0,0,0-12.048-7.647c-.44-.1-8.823-2.051-15.521,2.551a23.037,23.037,0,0,0-2.7,2.319c-4,3.708-39.808,40.172-41.993,42.605a7.94,7.94,0,0,0-.2,7.655,8.624,8.624,0,0,0,7.266,4.612,7.066,7.066,0,0,0,4.663-1.639c1.843-1.848,38.419-38.891,38.492-39.054a.648.648,0,0,0,.066-.424.807.807,0,0,0-.373-.477l-3.3-3.253a1.089,1.089,0,0,1-.38-.588,1.031,1.031,0,0,1,.745-1.112q7.808-.294,15.626-.593a1.564,1.564,0,0,1,1.084.357,1.581,1.581,0,0,1,.421.964c.109.966-.057,7.06-.413,15.375a.964.964,0,0,1-.631,1,1.166,1.166,0,0,1-1.281-.455l-3.634-3.583c-2.617,3.613-38.072,39.028-40,40.345a16.488,16.488,0,0,1-13.5,2.849,20.264,20.264,0,0,1-15.222-14.35,20.046,20.046,0,0,1,3.606-16.133l21.205-21.515a7.117,7.117,0,0,0,.971-5.169,8.722,8.722,0,0,0-3.647-5.324,10.366,10.366,0,0,0-2.027-1.03,7.868,7.868,0,0,0-2-.45,6.515,6.515,0,0,0-2.783.4c-1.619.58-8.037,7.128-8.527,7.737-5.984,6.3-11.638,12.253-17.621,18.555a31.231,31.231,0,0,0-4.729,21.7,35.979,35.979,0,0,0,6.945,16.333,38.266,38.266,0,0,0,20.771,13.8c11.858,2.889,22.378-1.206,27.092-5.565.169-.156,34.594-35.1,39.219-39.6,6.55-6.393,5.056-4.841,5.656-5.686a19.806,19.806,0,0,0,3.742-12.636"/></g></g><g class="d"><g class="l"><path class="f" d="M1112.954,2635a22.2,22.2,0,0,0-5.034-12.874,22.988,22.988,0,0,0-12.048-7.647c-.44-.1-8.823-2.051-15.521,2.551a23.158,23.158,0,0,0-2.7,2.319c-4,3.708-39.808,40.172-41.993,42.6a7.941,7.941,0,0,0-.2,7.655,8.624,8.624,0,0,0,7.266,4.612,7.066,7.066,0,0,0,4.663-1.639c1.843-1.848,38.419-38.891,38.492-39.054a.647.647,0,0,0,.066-.424.806.806,0,0,0-.373-.477l-3.3-3.253a1.086,1.086,0,0,1-.38-.588,1.032,1.032,0,0,1,.745-1.112q7.808-.294,15.626-.593a1.562,1.562,0,0,1,1.084.357,1.58,1.58,0,0,1,.421.964c.109.966-.057,7.06-.413,15.375a.964.964,0,0,1-.631,1.005,1.165,1.165,0,0,1-1.281-.455l-3.634-3.583c-2.617,3.613-38.072,39.028-40,40.345a16.488,16.488,0,0,1-13.5,2.849,20.264,20.264,0,0,1-15.222-14.35,20.054,20.054,0,0,1,3.606-16.133l21.205-21.515a7.115,7.115,0,0,0,.971-5.169,8.722,8.722,0,0,0-3.647-5.324,10.43,10.43,0,0,0-2.027-1.03,7.868,7.868,0,0,0-2-.45,6.515,6.515,0,0,0-2.783.4c-1.619.58-8.037,7.128-8.527,7.737-5.984,6.3-11.638,12.253-17.621,18.555a31.231,31.231,0,0,0-4.729,21.7,35.987,35.987,0,0,0,6.945,16.334,38.268,38.268,0,0,0,20.771,13.8c11.858,2.889,22.378-1.206,27.092-5.565.169-.156,34.594-35.1,39.219-39.6,6.55-6.393,5.056-4.841,5.656-5.686a19.806,19.806,0,0,0,3.742-12.636"/></g></g><g class="d"><g class="m"><path class="f" d="M1220.412,2805.609a22.2,22.2,0,0,0-5.034-12.875,22.979,22.979,0,0,0-12.048-7.646c-.44-.1-8.823-2.051-15.521,2.551a22.967,22.967,0,0,0-2.7,2.318c-4,3.709-39.808,40.173-41.994,42.606a7.942,7.942,0,0,0-.2,7.654,8.621,8.621,0,0,0,7.266,4.612,7.055,7.055,0,0,0,4.663-1.639c1.843-1.847,38.419-38.89,38.491-39.053a.648.648,0,0,0,.067-.424.809.809,0,0,0-.373-.477l-3.3-3.253a1.088,1.088,0,0,1-.38-.588,1.03,1.03,0,0,1,.745-1.112q7.808-.294,15.626-.593a1.559,1.559,0,0,1,1.084.357,1.58,1.58,0,0,1,.421.963c.109.967-.057,7.06-.413,15.376a.963.963,0,0,1-.631,1,1.163,1.163,0,0,1-1.281-.455l-3.634-3.582c-2.617,3.612-38.072,39.027-40,40.344a16.483,16.483,0,0,1-13.5,2.85,20.269,20.269,0,0,1-15.222-14.35,20.049,20.049,0,0,1,3.606-16.133l21.205-21.515a7.116,7.116,0,0,0,.97-5.169,8.721,8.721,0,0,0-3.647-5.325,10.312,10.312,0,0,0-2.026-1.029,7.837,7.837,0,0,0-2-.45,6.51,6.51,0,0,0-2.783.4c-1.62.58-8.037,7.128-8.527,7.737-5.984,6.3-11.638,12.253-17.621,18.555a31.234,31.234,0,0,0-4.73,21.695,35.988,35.988,0,0,0,6.946,16.333A38.265,38.265,0,0,0,1144.7,2869.1c11.858,2.888,22.378-1.207,27.092-5.565.169-.156,34.594-35.1,39.219-39.6,6.55-6.393,5.056-4.841,5.655-5.686a19.8,19.8,0,0,0,3.743-12.636"/></g></g></g></g></svg>