<svg xmlns="http://www.w3.org/2000/svg" width="171.085" height="171.085" viewBox="0 0 171.085 171.085"><defs><style>.a{fill:#ff7e02;}.b{fill:#f8f8f8;}.c{fill:#cacaca;}.d{fill:none;stroke:#000;stroke-linecap:round;stroke-linejoin:round;stroke-width:2px;}</style></defs><g transform="translate(-179 -5393.849)"><circle class="a" cx="62.263" cy="62.263" r="62.263" transform="translate(179 5458.516) rotate(-31.286)"/><circle class="b" cx="50.933" cy="50.933" r="50.933" transform="translate(192.511 5479.392) rotate(-45)"/><path class="c" d="M246.677,5744.493a76.1,76.1,0,1,1,76.1-76.1A76.188,76.188,0,0,1,246.677,5744.493Zm0-149.064a72.962,72.962,0,1,0,72.963,72.963A73.045,73.045,0,0,0,246.677,5595.429Z" transform="translate(17.865 -189)"/><g transform="translate(17.865 -189)"><path class="a" d="M178.641,5668.392H166.085a80.9,80.9,0,0,1,80.811-80.811v12.556A68.332,68.332,0,0,0,178.641,5668.392Z"/></g><g transform="translate(17.865 -189)"><path class="d" d="M238.986,5672.647c-3.98,1.359-4.182,4.779-4.674,8.3,3.843-.243,7.142-.922,8.631-4.84"/><path class="d" d="M249.374,5674.873c5.806-2.791,10.744-6.648,13.793-12.4a37.5,37.5,0,0,0,3.766-12.089c.23-1.536-.439-2.2-1.977-1.978-10.877,1.574-19.254,6.818-24.162,16.856a39.653,39.653,0,0,0-1.734,4.687,2.3,2.3,0,0,0,.894,2.98,5.816,5.816,0,0,1,1.969,1.96c1.343,2.247,3.249,1.48,4.954.9.83-.282,1.432-1.487,2.481-.652,1.074.854.426,2.109.524,3.194.075.817-1.205,1.294-.508,2.227"/><path class="d" d="M244.427,5658.8c-3.167-1.98-5.455-1.547-7.689,1.219-1.661,2.058-2.031,4.541-2.7,6.943"/><path class="d" d="M256.547,5670.915c1.979,3.168,1.547,5.455-1.219,7.689-2.058,1.662-4.541,2.032-6.943,2.7"/><path class="d" d="M248.385,5674.625a67.812,67.812,0,0,0-7.668-7.667"/><path class="d" d="M258.031,5650.634a51.375,51.375,0,0,0,6.678,6.678"/><path class="d" d="M232.308,5682.787c-1.2,2.756-3.865,4.223-5.689,6.431"/><path class="d" d="M238.739,5683.777a35.113,35.113,0,0,0-5.442,5.441"/><path class="d" d="M231.566,5676.6a35.085,35.085,0,0,1-5.441,5.441"/><path class="d" d="M240.223,5665.969c-1.814-1.346-3.628.038-5.442,0"/><path class="d" d="M255.063,5656.57c-2.786,1.367-3.768,3.435-2.475,5.2a3.3,3.3,0,1,0,4.2-4.692,14.833,14.833,0,0,0-1.481-.5"/></g></g></svg>