<svg xmlns="http://www.w3.org/2000/svg" width="84" height="84" viewBox="0 0 84 84"><defs><style>.a,.b{fill:none;stroke:#ff7e02;}.a{stroke-width:2px;}.b{stroke-miterlimit:10;stroke-width:1.5px;}</style></defs><g transform="translate(-1016 -2406)"><rect class="a" width="82" height="82" rx="8.75" transform="translate(1017 2407)"/><path class="b" d="M747.986,2249.463c-1.291.385-2.649-.021-3.929.248a2.535,2.535,0,0,0-.17,1.56q-.017,20.209-.008,40.419c0,2.3,0,2.3,2.3,2.3q10.432,0,20.867.009a2.908,2.908,0,0,0,2.165-.8c2.312-2.079,4.346-4.422,6.567-6.581a1.12,1.12,0,0,0,.3-1.01q.015-17.417.022-34.833c0-.76-.249-1.132-1-1.149-.383-.009-.767,0-1.15,0q-11.831,0-23.661-.007c-.657,0-1.314-.1-1.971-.157" transform="translate(298.155 178)"/><path class="b" d="M750.944,2253.571a22.171,22.171,0,0,0-.1,5.91,2.674,2.674,0,0,0,3.061,2.651,2.645,2.645,0,0,0,2.461-2.975q.009-4.518,0-9.037c0-2.843-1.423-4.5-3.944-4.6-2.383-.093-4.167,1.433-4.248,4.437-.1,3.612-.063,7.229-.011,10.843a5.253,5.253,0,1,0,10.5-.164q0-3.367,0-6.737" transform="translate(298.155 178)"/><path class="b" d="M771.647,2270.166H747.986" transform="translate(298.155 178)"/><path class="b" d="M771.647,2281.339H747.986" transform="translate(298.155 178)"/><path class="b" d="M774.6,2287.172c-1.675-.544-3.4-.057-5.284-.325-.1,1.941-.46,3.8.191,5.665" transform="translate(298.155 178)"/><path class="b" d="M758.338,2284.461H747.822" transform="translate(298.155 178)"/><path class="b" d="M771.811,2255.214h-9.2" transform="translate(298.155 178)"/><path class="b" d="M771.811,2259.157h-9.2" transform="translate(298.155 178)"/><path class="b" d="M771.811,2262.772h-9.2" transform="translate(298.155 178)"/><path class="b" d="M771.811,2266.387h-9.2" transform="translate(298.155 178)"/><path class="b" d="M748.315,2273.288c-.891.33-.422,1.088-.471,1.645-.081.927-.022,1.867-.022,2.873h10.433v-4.518h-9.776" transform="translate(298.155 178)"/><path class="b" d="M761.788,2273.288c-.891.33-.422,1.088-.471,1.645-.081.927-.022,1.867-.022,2.873h10.434v-4.518h-9.777" transform="translate(298.155 178)"/></g></svg>