<svg xmlns="http://www.w3.org/2000/svg" width="84" height="84" viewBox="0 0 84 84"><defs><style>.a,.b{fill:none;stroke:#ff7e02;}.a{stroke-width:2px;}.b{stroke-linecap:round;stroke-linejoin:round;stroke-width:1.5px;}</style></defs><g transform="translate(-246 -2405)"><rect class="a" width="82" height="82" rx="8.75" transform="translate(247 2406)"/><path class="b" d="M780.534,2567.416c.573-.008.811-.5,1.162-.821a.765.765,0,0,0,.012-1.286q-5.156-5.112-10.279-10.254c-.039-.039-.151,0,.005,0l-3.723,3.722.318.382-3.04,3.04c-1.825-1.121-2.861-.846-4.4.675-1.683,1.661-3.378,3.312-5.009,5.023a2.76,2.76,0,0,0-.01,4.191,2.8,2.8,0,0,0,3.841-.126c1.129-1.045,2.184-2.171,3.279-3.254.16-.158.269-.43.592-.366.548.11.786.615,1.15.952,2.259,2.093,4.267,4.441,6.627,6.443a2.863,2.863,0,0,1,.8,2.987,2.532,2.532,0,0,1-2.169,1.9c-.864.111-1.674.25-2.336-.486" transform="translate(-471.611 -121)"/><path class="b" d="M747.4,2555.05c-.309-.075-.42.194-.58.353q-4.906,4.893-9.8,9.8c-.193.193-.545.309-.36.573l3.623,3.624c3.328-3.556,7.067-7.167,10.821-10.923l-3.59-3.43" transform="translate(-471.611 -121)"/><path class="b" d="M768.167,2559.483c.443-.044.578.361.809.591,2.656,2.633,5.283,5.295,7.953,7.914.528.518.743,1.382,1.709,1.543a8.142,8.142,0,0,0,1.97-2.041l-3.574-3.574" transform="translate(-471.611 -121)"/><path class="b" d="M750.55,2559.366l2.769,2.769c1.219-.691,2.42-1.051,3.644-.2.337.235.62.546.939.809.457.378.75.943,1.34,1.168" transform="translate(-471.611 -121)"/><path class="b" d="M740.984,2569.166c3.072,3.073,6.192,6.1,9.2,9.23,2.973,3.094,6.219,5.919,9.006,9.2a3.057,3.057,0,0,0,3.374.708,3.136,3.136,0,0,0,1.517-3.5" transform="translate(-471.611 -121)"/><path class="b" d="M777.5,2569.4l-6.066,6.066" transform="translate(-471.611 -121)"/><path class="b" d="M750.434,2580.95a4.12,4.12,0,0,0,.474,2.561c1.146,1.6,2.9,1.721,4.426.355" transform="translate(-471.611 -121)"/><path class="b" d="M754.284,2584.916c.319.667-.054,1.415.333,2.11a2.68,2.68,0,0,0,4.45.69" transform="translate(-471.611 -121)"/><path class="b" d="M768.05,2580.833a4.785,4.785,0,0,0-.11.817,2.5,2.5,0,0,1-2.69,2.912c-.64.007-1.38.257-1.75-.579" transform="translate(-471.611 -121)"/><path class="b" d="M747.517,2576.166c-1.174,1.3-1.218,2.77-.117,3.85a2.717,2.717,0,0,0,3.967,0" transform="translate(-471.611 -121)"/><path class="b" d="M741.567,2563.916a39.2,39.2,0,0,0-3.383,3.559" transform="translate(-471.611 -121)"/></g></svg>