<svg xmlns="http://www.w3.org/2000/svg" width="171.555" height="171.556" viewBox="0 0 171.555 171.556"><defs><style>.a{fill:#ff7e02;}.b{fill:#f8f8f8;}.c{fill:#cacaca;}</style></defs><g transform="translate(-997.318 -5396.285)"><g transform="translate(17.865 -189)"><circle class="a" cx="62.263" cy="62.263" r="62.263" transform="matrix(0.849, -0.529, 0.529, 0.849, 979.454, 5651.174)"/><circle class="b" cx="50.933" cy="50.933" r="50.933" transform="matrix(0.4, -0.916, 0.916, 0.4, 998.167, 5697.345)"/><path class="c" d="M1117.056,5726.79a76.1,76.1,0,1,1,3.9-107.553A76.187,76.187,0,0,1,1117.056,5726.79Zm-101.513-109.156a72.963,72.963,0,1,0,103.118,3.74A73.045,73.045,0,0,0,1015.543,5617.634Z"/><path class="a" d="M1113.695,5735.734l-7.293-10.22a68.332,68.332,0,0,0,15.909-95.207l10.22-7.293A80.9,80.9,0,0,1,1113.695,5735.734Z"/></g><path d="M1068.812,5665.412a.77.77,0,0,0,.535-.215l5-4.793,5.176,4.077a.773.773,0,0,0,.954,0l7.224-5.615-.248,3.223a.774.774,0,0,0,.713.831l.06,0a.774.774,0,0,0,.771-.714l.382-4.973a.773.773,0,0,0-.716-.831l-5.355-.382a.774.774,0,0,0-.11,1.544l3.346.239-6.539,5.082-5.23-4.119a.774.774,0,0,0-1.014.049l-5.482,5.259a.774.774,0,0,0,.536,1.332Z" transform="translate(17.865 -189)"/><path d="M1090.889,5687.452h-3.672v-19.785a.763.763,0,0,0-.807-.725h-7.47a.773.773,0,0,0-.817.725v19.785h-4.74v-16.034a.819.819,0,0,0-.8-.8h-7.47a.758.758,0,0,0-.727.8v16.034h-4.838v-9.05a.828.828,0,0,0-.792-.818h-7.471a.781.781,0,0,0-.734.818v9.05h-3.966v-35.436a.774.774,0,0,0-1.548,0v36.237a.755.755,0,0,0,.778.747h45.074a.774.774,0,0,0,0-1.548Zm-38.79,0v-8.32h5.9v8.32Zm13.834,0v-15.286h5.9v15.286Zm13.738,0V5668.49h6v18.962Z" transform="translate(17.865 -189)"/><path d="M1057.1,5667.023a1.536,1.536,0,0,1-1.534-1.534.774.774,0,0,0-1.548,0,3.088,3.088,0,0,0,2.241,2.965v.713a.774.774,0,0,0,1.548,0v-.679a3.081,3.081,0,0,0-.707-6.081,1.534,1.534,0,1,1,1.534-1.534.774.774,0,0,0,1.548,0,3.088,3.088,0,0,0-2.472-3.021v-.681a.774.774,0,0,0-1.548,0v.767a3.081,3.081,0,0,0,.938,6.017,1.534,1.534,0,1,1,0,3.068Z" transform="translate(17.865 -189)"/><path d="M1057.1,5672.768a9.532,9.532,0,1,0-9.532-9.532A9.532,9.532,0,0,0,1057.1,5672.768Zm0-17.517a7.985,7.985,0,1,1-7.985,7.985A7.984,7.984,0,0,1,1057.1,5655.251Z" transform="translate(17.865 -189)"/></g></svg>