<svg xmlns="http://www.w3.org/2000/svg" width="85.867" height="85.867" viewBox="0 0 85.867 85.867"><defs><style>.a{fill:none;stroke:#ff7e02;stroke-miterlimit:10;stroke-width:2px;}.b{fill:#ff7e02;}</style></defs><g transform="translate(-219.8 -949.192)"><circle class="a" cx="41.933" cy="41.933" r="41.933" transform="translate(220.8 950.192)"/><g transform="translate(-1)"><path class="b" d="M266.349,1000.358a4.807,4.807,0,1,0-5.231,0,8.421,8.421,0,0,0-5.8,7.989v2.4h16.822v-2.4A8.422,8.422,0,0,0,266.349,1000.358Zm.74,6.787-2.4,2.4h-.121l2.506-7.586a7.3,7.3,0,0,1,1.209.8l-.287,1.627-2.2,1.465Zm-7.615-2.76-.287-1.627a7.2,7.2,0,0,1,1.21-.8l2.505,7.586h-.121l-2.4-2.4,1.3-1.3Zm.655-8.054a3.6,3.6,0,1,1,3.6,3.6A3.607,3.607,0,0,1,260.129,996.331Zm5.831,5.162-2.227,6.74-2.226-6.74a7.141,7.141,0,0,1,4.453,0Zm-9.436,6.854a7.173,7.173,0,0,1,1.626-4.553l.23,1.306,1.406.937-1.108,1.108,2.4,2.4h-4.558Zm14.419,1.2h-4.558l2.4-2.4-1.108-1.108,1.407-.938.23-1.306a7.177,7.177,0,0,1,1.626,4.554Z"/><path class="b" d="M260.729,990.323h6.008v-7.209h2.925l-5.929-8.893-5.929,8.893h2.925Zm-.679-8.41,3.683-5.526,3.684,5.526h-1.881v7.209h-3.605v-7.209Z"/><path class="b" d="M246.146,981.747l2.072,10.362,2.036-2.036,5.11,5.314,4.42-4.421-5.313-5.11,2.036-2.036Zm11.923,9.236-2.688,2.688-5.11-5.314-1.315,1.315-1.278-6.393,6.392,1.279-1.314,1.315Z"/><path class="b" d="M267.682,990.966l4.42,4.421,5.11-5.314,2.036,2.036,2.072-10.362-10.361,2.072,2.036,2.036Zm12.107-7.687-1.278,6.393-1.315-1.314-5.111,5.314-2.688-2.688,5.314-5.111-1.314-1.315Z"/><path class="b" d="M246.912,977.106a1.8,1.8,0,1,0-1.8-1.8A1.8,1.8,0,0,0,246.912,977.106Zm0-2.4a.6.6,0,1,1-.6.6A.6.6,0,0,1,246.912,974.7Z"/><path class="b" d="M251.686,980.93l.849-.85.807.807-.849.85Z"/><path class="b" d="M248.288,977.531l.85-.849.849.849-.849.85Z"/><path class="b" d="M249.988,979.231l.849-.85.85.85-.85.849Z"/><path class="b" d="M246.912,1007.145a1.8,1.8,0,1,0,1.8,1.8A1.805,1.805,0,0,0,246.912,1007.145Zm0,2.4a.6.6,0,1,1,.6-.6A.6.6,0,0,1,246.912,1009.548Z"/><path class="b" d="M251.684,1003.32l.807-.808.849.85-.807.807Z"/><path class="b" d="M248.285,1006.718l.85-.85.849.85-.849.849Z"/><path class="b" d="M249.985,1005.018l.849-.85.85.85-.85.849Z"/><path class="b" d="M280.555,1007.145a1.8,1.8,0,1,0,1.8,1.8A1.8,1.8,0,0,0,280.555,1007.145Zm0,2.4a.6.6,0,1,1,.6-.6A.6.6,0,0,1,280.555,1009.548Z"/><path class="b" d="M277.471,1006.72l.85-.849.849.849-.849.85Z"/><path class="b" d="M274.116,1003.365l.85-.85.807.807-.85.85Z"/><path class="b" d="M275.772,1005.021l.849-.85.85.85-.85.849Z"/><path class="b" d="M280.555,977.106a1.8,1.8,0,1,0-1.8-1.8A1.8,1.8,0,0,0,280.555,977.106Zm0-2.4a.6.6,0,1,1-.6.6A.6.6,0,0,1,280.555,974.7Z"/><path class="b" d="M275.775,979.234l.85-.85.849.85-.849.849Z"/><path class="b" d="M277.474,977.535l.85-.85.849.85-.849.849Z"/><path class="b" d="M274.119,980.889l.807-.807.849.85-.807.807Z"/><path class="b" d="M280.555,995.73a1.8,1.8,0,1,0,1.8,1.8A1.8,1.8,0,0,0,280.555,995.73Zm0,2.4a.6.6,0,1,1,.6-.6A.6.6,0,0,1,280.555,998.134Z"/><path class="b" d="M276.35,996.932h1.2v1.2h-1.2Z"/><path class="b" d="M271.543,996.932h1.2v1.2h-1.2Z"/><path class="b" d="M273.947,996.932h1.2v1.2h-1.2Z"/><path class="b" d="M246.912,999.335a1.8,1.8,0,1,0-1.8-1.8A1.8,1.8,0,0,0,246.912,999.335Zm0-2.4a.6.6,0,1,1-.6.6A.6.6,0,0,1,246.912,996.932Z"/><path class="b" d="M252.319,996.932h1.2v1.2h-1.2Z"/><path class="b" d="M249.916,996.932h1.2v1.2h-1.2Z"/><path class="b" d="M254.722,996.932h1.2v1.2h-1.2Z"/></g></g></svg>