<svg xmlns="http://www.w3.org/2000/svg" width="84" height="84" viewBox="0 0 84 84"><defs><style>.a,.b{fill:none;stroke:#ff7e02;}.a{stroke-width:2px;}.b{stroke-linecap:round;stroke-linejoin:round;stroke-width:1.5px;}</style></defs><g transform="translate(-746 -2405)"><rect class="a" width="82" height="82" rx="8.75" transform="translate(747 2406)"/><path class="b" d="M291.21,2726.167a2.637,2.637,0,0,0-2.151-2.269,2.576,2.576,0,0,0-2.388,1.268,2.3,2.3,0,0,0,.871,3.025,2.215,2.215,0,0,0,3.182-.746,10.28,10.28,0,0,0,.486-1.151" transform="translate(489.917 -270)"/><path class="b" d="M309.8,2710.864h-4.047" transform="translate(489.917 -270)"/><path class="b" d="M309.676,2708.714h-3.795" transform="translate(489.917 -270)"/><path class="b" d="M290.578,2710.864h-3.794" transform="translate(489.917 -270)"/><path class="b" d="M309.676,2713.014h-3.795" transform="translate(489.917 -270)"/><path class="b" d="M290.451,2708.714H286.91" transform="translate(489.917 -270)"/><path class="b" d="M290.451,2713.014H286.91" transform="translate(489.917 -270)"/><path class="b" d="M281.6,2701.631c-.633.1-.5.6-.5,1.012q0,17.454,0,34.907c0,1.331.091,1.391,1.386,1.391q6.261,0,12.522,0c1.261,0,1.512-.209,1.513-1.39q.01-17.58,0-35.16a5.006,5.006,0,0,0-.136-.759H281.725" transform="translate(489.917 -270)"/><path class="b" d="M300.569,2701.631c-.632.1-.5.6-.5,1.012q0,17.454-.008,34.907c0,.978.357,1.416,1.4,1.407q6.323-.056,12.647,0c1.041.009,1.4-.429,1.4-1.407q-.015-17.58-.011-35.16a4.9,4.9,0,0,0-.137-.759H300.7" transform="translate(489.917 -270)"/><path class="b" d="M284.886,2705.678c-.453.063-.51.373-.51.759.007,3.963,0,7.926.01,11.889a1.707,1.707,0,0,0,.145.442h8.513v-13.09h-8.031" transform="translate(489.917 -270)"/><path class="b" d="M303.858,2705.678c-.468.124-.514.464-.513.886.012,3.92.006,7.841.012,11.762a1.787,1.787,0,0,0,.145.442h8.514v-13.09h-8.032" transform="translate(489.917 -270)"/><path class="b" d="M307.526,2723.891c-1.74.461-2.543,1.821-1.894,3.287a2.453,2.453,0,0,0,2.526,1.392,2.729,2.729,0,0,0,2.024-2.15,2.43,2.43,0,0,0-1.515-2.283,1.963,1.963,0,0,0-1.015-.246" transform="translate(489.917 -270)"/></g></svg>