<svg xmlns="http://www.w3.org/2000/svg" width="153.831" height="157.216" viewBox="0 0 153.831 157.216"><defs><style>.a{fill:#ff7e02;}.b{fill:#f8f8f8;}.c{fill:#cacaca;}.d{fill:none;stroke:#000;stroke-linecap:round;stroke-linejoin:round;stroke-width:2px;}</style></defs><g transform="translate(-393.611 -5398.277)"><g transform="translate(17.865 -189)"><circle class="a" cx="62.263" cy="62.263" r="62.263" transform="matrix(0.19, -0.982, 0.982, 0.19, 378.869, 5717.66)"/><circle class="b" cx="50.933" cy="50.933" r="50.933" transform="translate(384.839 5641.966) rotate(-23.478)"/><path class="c" d="M451.847,5744.493a76.1,76.1,0,1,1,76.1-76.1A76.188,76.188,0,0,1,451.847,5744.493Zm0-149.064a72.962,72.962,0,1,0,72.964,72.963A73.045,73.045,0,0,0,451.847,5595.429Z"/><path class="a" d="M529.577,5643.876l-11.978,3.763a68.332,68.332,0,0,0-85.574-44.661L428.262,5591A80.9,80.9,0,0,1,529.577,5643.876Z"/></g><path class="d" d="M467.785,5659.62c-1.08-2.124,0-3.734,1.445-5.242-.975-1.68-2.437-2.676-3.644-4.053-2.27,1.45-4.012,3.347-7.2,1.856-3.091-1.445-2.023-4.137-3.058-6.189H449.9c-.9,2.088.043,4.709-2.991,6.192-3.225,1.577-4.927-.443-6.868-1.663l-3.751,3.751c.264,1.83,3.27,2.76,2.225,5.348" transform="translate(17.865 -189)"/><path class="d" d="M452.643,5674c-1.346-.589-2.672-1.229-4.043-1.753a2.265,2.265,0,0,0-3.244,2.006c-.091,4.458-.031,8.919-.031,13.5h14.637c0-4.582.06-9.043-.031-13.5a2.278,2.278,0,0,0-3.247-2.012c-1.276.466-2.527,1-3.788,1.507" transform="translate(17.865 -189)"/><path class="d" d="M457.438,5658.863c.282,2.839.916,5.659-1.485,8.1-2.585,2.63-7.435,1.048-8.141-2.545a24.3,24.3,0,0,1,.061-6.315,2.48,2.48,0,0,1,2.5-2.5c2.27-.106,4.548-.028,6.779-.028.4,2.934-.413,3.973-2.995,4.029-2.018.043-4.037.009-6.056.009" transform="translate(17.865 -189)"/><path class="d" d="M436.745,5675.266c-4.024-1.216-5.047-.449-5.047,3.785v8.707h10.094c0-3.571.1-7.027-.038-10.472-.088-2.177-1.856-2.93-4.757-2.272" transform="translate(17.865 -189)"/><path class="d" d="M468.542,5675.266c-4.024-1.216-5.047-.449-5.047,3.785v8.707h10.094c0-3.571.1-7.027-.038-10.472-.088-2.177-1.856-2.93-4.757-2.272" transform="translate(17.865 -189)"/><path class="d" d="M452.643,5674.256c.436,2.947-1.512,5.449-1.541,8.328-.016,1.6-.309,3.2-.478,4.795" transform="translate(17.865 -189)"/><path class="d" d="M436.745,5675.518v11.861" transform="translate(17.865 -189)"/><path class="d" d="M468.542,5675.518v11.861" transform="translate(17.865 -189)"/><path class="d" d="M453.148,5677.789c1.311,2.084.982,4.59,1.745,6.821a19.083,19.083,0,0,1,.526,2.769" transform="translate(17.865 -189)"/><path class="d" d="M435.483,5662.9a6.222,6.222,0,0,0-2.254,6.556,3.612,3.612,0,0,0,3.768,2.5,3.41,3.41,0,0,0,3.275-3.252c.035-.587-.04-1.181.014-1.765.19-2.073-.494-3.4-2.783-3.553a8.889,8.889,0,0,1-1.768-.486" transform="translate(17.865 -189)"/><path class="d" d="M468.037,5663.153c-3.194,1.516-4.269,5.715-2.024,7.828a3.925,3.925,0,0,0,4.015.661,3.172,3.172,0,0,0,2.1-3.188c.1-2.743-.952-5.376-3.84-5.3" transform="translate(17.865 -189)"/></g></svg>