<svg xmlns="http://www.w3.org/2000/svg" width="84" height="84" viewBox="0 0 84 84"><defs><style>.a,.b{fill:none;stroke:#ff7e02;}.a{stroke-width:2px;}.b{stroke-linecap:round;stroke-linejoin:round;stroke-width:1.5px;}</style></defs><g transform="translate(-505 -2140)"><rect class="a" width="82" height="82" rx="8.75" transform="translate(506 2141)"/><path class="b" d="M313.39,2412.72c0-1.585,0-3.169,0-4.754a2.229,2.229,0,0,0-2.325-2.323q-11.731-.009-23.463,0c-2.408.007-4.176,2.576-3.332,4.541a1.585,1.585,0,0,1,.065,1.2,5.919,5.919,0,0,0-.265,2.644q-.023,9.2-.008,18.406c0,1.811.82,2.641,2.628,2.506.718-.053,1.418.029,2.126.029,8.394-.009,16.788-.04,25.181.025a2.283,2.283,0,0,0,2.4-2.155,46.787,46.787,0,0,0-.075-5.967" transform="translate(245.955 -237)"/><path class="b" d="M309.142,2412.72v-3.284a2.6,2.6,0,0,0-1.213-.154c-6.372,0-12.743.024-19.114-.019a6.7,6.7,0,0,0-4.349,1.131" transform="translate(245.955 -237)"/><path class="b" d="M316.323,2420.1a30,30,0,0,0,.069-5.156c-.054-1.315-1.451-2.248-3.1-2.1-1.96.171-3.914.044-5.868.06-6.2.051-12.407-.059-18.607.068a5.809,5.809,0,0,1-4.35-1.566" transform="translate(245.955 -237)"/><path class="b" d="M287.5,2413.225v21.44" transform="translate(245.955 -237)"/><path class="b" d="M316.323,2420.2a2.47,2.47,0,0,1-1.214.207c-1.685-.01-3.371,0-5.056,0a3.059,3.059,0,0,0-.505,6.057,46.929,46.929,0,0,0,5.359.113,5.214,5.214,0,0,1,1.116.087,1.468,1.468,0,0,0,1.808-1.4c.037-1.213-.015-2.428.016-3.641.026-1-.755-1.14-1.423-1.416" transform="translate(245.955 -237)"/><path class="b" d="M310.963,2424.754c1.232-.441,1.612-1.534.809-2.326a1.447,1.447,0,0,0-1.914.108c-.4.487-.564,1.532.2,1.915.269.136.539.27.809.405" transform="translate(245.955 -237)"/></g></svg>