<svg xmlns="http://www.w3.org/2000/svg" width="152.168" height="156.839" viewBox="0 0 152.168 156.839"><defs><style>.a{fill:#ff7e02;}.b{fill:#f8f8f8;}.c{fill:#cacaca;}.d{fill:none;stroke:#000;stroke-linecap:round;stroke-linejoin:round;stroke-width:1.5px;}</style></defs><g transform="translate(-597.672 -5403.594)"><g transform="translate(17.865 -189)"><circle class="a" cx="62.263" cy="62.263" r="62.263" transform="translate(582.913 5717.66) rotate(-79.024)"/><circle class="b" cx="50.933" cy="50.933" r="50.933" transform="translate(589.556 5640.318) rotate(-22.062)"/><path class="c" d="M655.873,5744.726a76.038,76.038,0,1,1,53.812-22.252A75.867,75.867,0,0,1,655.873,5744.726Zm0-148.994a72.9,72.9,0,1,0,51.593,21.336A72.741,72.741,0,0,0,655.873,5595.732Z"/><path class="a" d="M599.183,5725.8l8.878-8.878a68.331,68.331,0,0,0,96.526,0l8.879,8.878A80.9,80.9,0,0,1,599.183,5725.8Z"/></g><path class="d" d="M649.419,5649.494h-9.19v38.962h31.324v-38.962h-9.19" transform="translate(17.865 -189)"/><path class="d" d="M668.059,5653.9a10.5,10.5,0,0,1-3.1.562,17.808,17.808,0,0,0-8.039,4.09,4.256,4.256,0,0,1-3.361,1.058,10.717,10.717,0,0,0-8.834,2.534c-.463.4-1.107,1.345-2.037.558" transform="translate(17.865 -189)"/><path class="d" d="M668.576,5682.89h-25.37" transform="translate(17.865 -189)"/><path class="d" d="M662.1,5649.494l-.454-2.718H649.937v5.437h11.625c.537-.859.171-1.686.283-2.46" transform="translate(17.865 -189)"/><path class="d" d="M657.186,5679.783h-13.98" transform="translate(17.865 -189)"/><path class="d" d="M669.094,5685.737H655.632" transform="translate(17.865 -189)"/><path class="d" d="M653.561,5685.737H642.688" transform="translate(17.865 -189)"/><path class="d" d="M668.576,5679.783h-8.284" transform="translate(17.865 -189)"/><path class="d" d="M665.211,5659.073a.752.752,0,0,0-.77.777c-.01,5.7-.007,11.393-.007,17.215h4.142v-17.99q-1.552,0-3.106,0" transform="translate(17.865 -189)"/><path class="d" d="M657.962,5661.662a.752.752,0,0,0-.77.776q-.015,7.251-.006,14.526a6.925,6.925,0,0,0,1.035.224c3.624.1,3.624.1,3.624-3.618v-8.284c0-3.624,0-3.624-3.624-3.624" transform="translate(17.865 -189)"/><path class="d" d="M650.714,5664.768c-1.125.233-.758,1.134-.765,1.813-.029,2.761.093,5.528-.049,8.282-.1,1.852.514,2.6,2.369,2.347a17.027,17.027,0,0,1,2.2-.016v-12.426h-3.494" transform="translate(17.865 -189)"/><path class="d" d="M644.242,5667.616a1.242,1.242,0,0,0-1.285,1.294c-.026,2.678-.01,5.356-.01,8.155h4.272v-9.324l-2.718-.125" transform="translate(17.865 -189)"/></g></svg>