<svg xmlns="http://www.w3.org/2000/svg" width="174.383" height="174.383" viewBox="0 0 174.383 174.383"><defs><style>.a{fill:#ff7e02;}.b{fill:#f8f8f8;}.c{fill:#cacaca;}.d{fill:none;stroke:#000;stroke-linecap:round;stroke-linejoin:round;}</style></defs><g transform="translate(-790.794 -5391.156)"><g transform="translate(17.865 -189)"><circle class="a" cx="62.263" cy="62.263" r="62.263" transform="matrix(0.602, -0.799, 0.799, 0.602, 772.93, 5679.633)"/><circle class="b" cx="50.933" cy="50.933" r="50.933" transform="translate(806.993 5715.987) rotate(-87.474)"/><path class="c" d="M826.756,5735.745a76.1,76.1,0,1,1,101.763-35.033A76.188,76.188,0,0,1,826.756,5735.745Zm65.353-133.974a72.963,72.963,0,1,0,33.589,97.566A73.045,73.045,0,0,0,892.109,5601.771Z"/><path class="a" d="M817.2,5735.824l6.914-10.48a68.331,68.331,0,0,0,94.559-19.389l10.481,6.914A80.9,80.9,0,0,1,817.2,5735.824Z"/></g><path class="d" d="M864.233,5664.416c-2.722.664-5.531-.077-8.386.427V5688.8h9.418v-16.386" transform="translate(17.865 -189)"/><path class="d" d="M878.683,5675.512a21.711,21.711,0,0,1-6.7.174c-1.153-.086-1.795-.164-1.8,1.116-.025,3.958-.009,7.917-.009,12h9.547c0-2.878.033-5.891-.012-8.9-.026-1.771.341-3.617-.983-5.191a1.548,1.548,0,0,1,0-1.489c2.119-2.53.9-5.522,1.37-8.65-1.576.559-2.705-1.019-4.243-.41" transform="translate(17.865 -189)"/><path class="d" d="M850.041,5679.124a20.066,20.066,0,0,1-6.444.176c-1.157-.1-1.791-.166-1.8,1.114-.03,2.755-.01,5.511-.01,8.387h9.658c-.718-3.3.9-6.87-1.106-10.215a1.941,1.941,0,0,1,0-1.753c1.992-2.556.984-5.51,1.339-8.762-1.66,1.255-2.621-1.217-4.218-.3" transform="translate(17.865 -189)"/><path class="d" d="M842.041,5669.835c-2.04.648-2.476,3.215-1.057,5.435.719,1.125,2.386,1.813,1.832,3.6" transform="translate(17.865 -189)"/><path class="d" d="M870.426,5666.222c-2.064,1.015-2.439,3.268-1.058,5.435.718,1.127,2.387,1.814,1.832,3.6" transform="translate(17.865 -189)"/><path class="d" d="M856.234,5668.028h8.515" transform="translate(17.865 -189)"/><path class="d" d="M879.2,5679.124h-8.515" transform="translate(17.865 -189)"/><path class="d" d="M850.815,5682.737H842.3" transform="translate(17.865 -189)"/><path class="d" d="M855.976,5654.61a4.257,4.257,0,0,0,.021,4.631,8.393,8.393,0,0,1,1.011,5.175" transform="translate(17.865 -189)"/><path class="d" d="M858.556,5651.772c-2.887-1.988-6.577-.678-9.547-2.323" transform="translate(17.865 -189)"/><path class="d" d="M867.071,5658.739a22.848,22.848,0,0,1-2.1,3.064,2.057,2.057,0,0,0-.415,2.316c1.284,2.191.3,4.528.708,6.748" transform="translate(17.865 -189)"/><path class="d" d="M873.264,5666.222c0-.43.023-.861,0-1.29-.053-.827.416-2.032-1.028-2.033-1.291,0-1.077,1.127-1.355,2.012-.378,1.2.181,2.257.065,3.375" transform="translate(17.865 -189)"/><path class="d" d="M852.1,5651c.24,2.516,2.73,2.267,4.15,3.326a5.547,5.547,0,0,0,1.8.534c1.1-1.446.082-3.8,2.317-4.89,1.461.842,2.93,2.13,4.881,2.63,1.389.355,3.068.673,2.445,3.073a2.3,2.3,0,0,0,1.957,2.539,1.454,1.454,0,0,1,1.288,1.045" transform="translate(17.865 -189)"/><path class="d" d="M844.88,5670.351c0-.774-.015-1.549.005-2.323.017-.665.115-1.407-.782-1.531a1.234,1.234,0,0,0-1.53,1.274c-.059,1.374-.016,2.752-.016,4.128" transform="translate(17.865 -189)"/><path class="d" d="M861.911,5651.514a5.835,5.835,0,0,0-1.291,3.354" transform="translate(17.865 -189)"/><path class="d" d="M845.138,5667.254c3.2-.644,1.714,1.839,2.064,3.1" transform="translate(17.865 -189)"/><path class="d" d="M873.522,5663.642c3.2-.645,1.715,1.839,2.065,3.1" transform="translate(17.865 -189)"/></g></svg>