<svg xmlns="http://www.w3.org/2000/svg" width="84" height="84" viewBox="0 0 84 84"><defs><style>.a,.b{fill:none;stroke:#ff7e02;stroke-width:2px;}.b{stroke-miterlimit:10;}</style></defs><g transform="translate(-246 -2140)"><rect class="a" width="82" height="82" rx="8.75" transform="translate(247 2141)"/><path class="b" d="M315.015,2251.586q-7.037,3.484-14.073,6.971-10.218,5.091-20.424,10.209" transform="translate(-10.517 -88)"/><path class="b" d="M311.7,2249.861c-.122.475.163.575.548.7,2.948.958,3.061,1.206,2.074,4.268" transform="translate(-10.517 -88)"/><path class="b" d="M309.634,2261.866c-.69.115-.55.651-.55,1.1q0,13.247-.009,26.494c0,1.067.388,1.589,1.526,1.532,1.238-.062,2.483-.011,3.725-.015,1.414,0,1.652-.23,1.653-1.655q.008-11.108,0-22.216v-5.244h-6.209" transform="translate(-10.517 -88)"/><path class="b" d="M295.559,2269.042c-.69.114-.55.651-.55,1.1,0,6.44.006,12.879-.009,19.319,0,1.067.388,1.585,1.526,1.532,1.331-.062,2.667-.012,4-.015,1.306,0,1.5-.176,1.512-1.517.018-2.944.006-5.888.006-8.831q0-5.037,0-10.074a2.693,2.693,0,0,0-.2-1.517H295.7" transform="translate(-10.517 -88)"/><path class="b" d="M281.346,2276.217c-.435.391-.268.911-.269,1.38q-.018,5.8-.005,11.591c0,1.794.008,1.794,1.792,1.794,1.288,0,2.577-.039,3.863.013.843.035,1.348-.406,1.356-1.117.049-4.508.025-9.016.025-13.661h-6.624" transform="translate(-10.517 -88)"/></g></svg>