<svg xmlns="http://www.w3.org/2000/svg" width="84" height="84" viewBox="0 0 84 84"><defs><style>.a,.b{fill:none;stroke:#ff7e02;stroke-width:2px;}.b{stroke-linecap:round;stroke-linejoin:round;}</style></defs><g transform="translate(-746 -2140)"><rect class="a" width="82" height="82" rx="8.75" transform="translate(747 2141)"/><path class="b" d="M762.9,2413.5h-8.545" transform="translate(29.568 -237)"/><path class="b" d="M744.44,2398.855c-1.613.557-2.012,1.743-2.007,3.357.042,12.716.023,25.432.024,38.148a3.311,3.311,0,0,0,3.509,3.506q12.512.011,25.024,0a3.163,3.163,0,0,0,3.51-3.506v-38.453c0-2.277-.775-3.051-3.052-3.051H744.593" transform="translate(29.568 -237)"/><path class="b" d="M747.034,2402.823a.62.62,0,0,0-.6.61c-.015,2.188-.007,4.377-.007,6.638h24.032v-7.248H747.187" transform="translate(29.568 -237)"/><path class="b" d="M747.034,2418.692c-1.328.9-.205,2.151-.768,3.281H752.4a9.007,9.007,0,0,0-.014-3.281h-5.2" transform="translate(29.568 -237)"/><path class="b" d="M756.189,2418.692c-1.327.9-.205,2.151-.806,3.357,1.973,0,3.607.073,5.23-.025,1.14-.068.9-1.059.913-1.806s.048-1.537-1.064-1.529c-1.373.011-2.747,0-4.12,0" transform="translate(29.568 -237)"/><path class="b" d="M765.04,2418.692c-1.328.9-.2,2.151-.768,3.281h6.133a9.007,9.007,0,0,0-.014-3.281h-5.2" transform="translate(29.568 -237)"/><path class="b" d="M747.034,2424.49c-1.328.9-.205,2.151-.768,3.281H752.4a9.007,9.007,0,0,0-.014-3.281h-5.2" transform="translate(29.568 -237)"/><path class="b" d="M756.189,2424.49c-1.327.9-.205,2.151-.806,3.357,1.973,0,3.607.073,5.23-.024,1.14-.069.9-1.06.913-1.807s.048-1.537-1.064-1.528c-1.373.01-2.747,0-4.12,0" transform="translate(29.568 -237)"/><path class="b" d="M765.04,2424.49c-1.328.9-.2,2.151-.768,3.281h6.133a9.007,9.007,0,0,0-.014-3.281h-5.2" transform="translate(29.568 -237)"/><path class="b" d="M747.034,2430.289c-1.328.9-.205,2.15-.768,3.28H752.4a9,9,0,0,0-.014-3.28h-5.2" transform="translate(29.568 -237)"/><path class="b" d="M756.189,2430.289c-1.327.9-.205,2.15-.806,3.357,1.973,0,3.607.072,5.23-.025,1.14-.069.9-1.059.913-1.806s.048-1.537-1.064-1.529c-1.373.011-2.747,0-4.12,0" transform="translate(29.568 -237)"/><path class="b" d="M765.04,2430.289a.62.62,0,0,0-.6.61c-.013,2.8-.007,5.6-.007,8.469h6.027v-9.079h-5.264" transform="translate(29.568 -237)"/><path class="b" d="M747.034,2436.087c-1.328.9-.205,2.151-.768,3.281H752.4a9.007,9.007,0,0,0-.014-3.281h-5.2" transform="translate(29.568 -237)"/><path class="b" d="M756.189,2436.087c-1.327.9-.205,2.151-.806,3.357,1.973,0,3.607.073,5.23-.025,1.14-.068.9-1.059.913-1.806s.048-1.537-1.064-1.528c-1.373.01-2.747,0-4.12,0" transform="translate(29.568 -237)"/></g></svg>