<svg xmlns="http://www.w3.org/2000/svg" xmlns:xlink="http://www.w3.org/1999/xlink" width="157" height="158" viewBox="0 0 157 158"><defs><style>.a{opacity:0.8;fill:url(#a);}.b{fill:#fff;}.c{filter:url(#b);}</style><linearGradient id="a" x1="0.5" x2="0.5" y2="1" gradientUnits="objectBoundingBox"><stop offset="0" stop-color="#ff9402"/><stop offset="1" stop-color="#ff6802"/></linearGradient><filter id="b" x="0" y="0" width="157" height="158" filterUnits="userSpaceOnUse"><feOffset dy="21" input="SourceAlpha"/><feGaussianBlur stdDeviation="11" result="c"/><feFlood flood-color="#ff8100" flood-opacity="0.231"/><feComposite operator="in" in2="c"/><feComposite in="SourceGraphic"/></filter></defs><g transform="translate(-1042 -1383)"><g class="c" transform="matrix(1, 0, 0, 1, 1042, 1383)"><ellipse class="a" cx="45.5" cy="46" rx="45.5" ry="46" transform="translate(33 12)"/></g><g transform="translate(1102 1422)"><g transform="translate(0)"><path class="b" d="M37.732,15.945a.741.741,0,0,0-.67-.2l-6.381,1.284a.74.74,0,0,0-.378,1.249l.863.863-3.388,3.388-2.623-2.623a.74.74,0,0,0-1.047,0L20.89,23.124,22.1,18.786A3.476,3.476,0,0,0,19.971,14.6l.965-2.757c.266.023.532.035.795.035A9.206,9.206,0,0,0,27.6,9.759l.176-.147a2.063,2.063,0,0,0,.338-2.854,2.054,2.054,0,0,0-2.939-.325l-.2.167a5.1,5.1,0,0,1-.96.629A3.07,3.07,0,0,1,20.5,6.61a3.384,3.384,0,1,0-3.731-1.244,3.857,3.857,0,0,0-1.991,1.123.739.739,0,0,0-.087.089A10.044,10.044,0,0,1,9.659,9.9a2.048,2.048,0,0,0-1.219.965L6.922,9.351a1.705,1.705,0,0,0-2.408,0L2.528,11.337h0L.542,13.323a1.7,1.7,0,0,0,0,2.408L6.014,21.2a1.7,1.7,0,0,0,2.408,0l2.056-2.056L9.5,21.7a.74.74,0,1,0,1.384.528l2.428-6.368h5.437a1.991,1.991,0,0,1,1.918,2.525l-1.682,6.045a.633.633,0,0,1-.608.462.631.631,0,0,1-.624-.73l.9-5.628a.74.74,0,0,0-.731-.857H16.165a.74.74,0,0,0-.661.406c-.043.085-4.339,8.58-5.787,11.45a.76.76,0,0,1-.783.407l-.035,0a.724.724,0,0,1-.58-.976l.456-1.2a.74.74,0,1,0-1.384-.528l-.456,1.2A2.205,2.205,0,0,0,8.7,31.407l.035,0a2.246,2.246,0,0,0,2.3-1.208C12.3,27.7,15.743,20.9,16.62,19.162h.433l-.759,4.771a2.111,2.111,0,0,0,1.444,2.343L9.49,34.524a.74.74,0,0,0,0,1.047L11.613,37.7a.74.74,0,0,0,1.047,0l4.083-4.083A.74.74,0,1,0,15.7,32.565l-3.559,3.559L11.06,35.048,24.632,21.476,27.255,24.1a.74.74,0,0,0,1.047,0l4.435-4.435a.741.741,0,0,0,0-1.047l-.41-.41,3.935-.792-.792,3.935-.609-.609a.741.741,0,0,0-1.047,0l-6.036,6.036-2.623-2.623a.741.741,0,0,0-1.047,0l-4.224,4.224a.74.74,0,0,0,1.047,1.047l3.7-3.7,2.623,2.623a.741.741,0,0,0,1.047,0l6.036-6.036L35.4,23.374A.74.74,0,0,0,36.65,23l1.284-6.381A.741.741,0,0,0,37.732,15.945ZM19.5,1.481a1.9,1.9,0,1,1-1.9,1.9A1.9,1.9,0,0,1,19.5,1.481ZM12.175,14.6l-.9-.9q.642-.209,1.26-.478Zm-2.5-2.568a.574.574,0,0,1,.392-.709,11.549,11.549,0,0,0,3.375-1.6l-.418,1.607a12.769,12.769,0,0,1-2.64,1.093l-.053.013a.568.568,0,0,1-.388-.067l-.217-.217A.563.563,0,0,1,9.677,12.036ZM5.561,10.4a.222.222,0,0,1,.314,0l2.7,2.7a2.035,2.035,0,0,0,.443.443l2.331,2.331a.222.222,0,0,1,0,.314L9.885,17.647,8.258,16.021l.31-.31a.741.741,0,0,0,0-1.047L6.9,13a.741.741,0,0,0-1.047,0l-.31.31L4.1,11.861ZM6.574,15.61a.278.278,0,0,1-.393,0h0l-.226-.226a.278.278,0,0,1,0-.393l.423-.423.62.62Zm.8,4.546a.222.222,0,0,1-.314,0L1.589,14.685a.222.222,0,0,1,0-.314l1.462-1.462,1.515,1.515a1.761,1.761,0,0,0,.341,2.008l.226.226h0A1.761,1.761,0,0,0,7.142,17l1.7,1.7Zm10.576-5.773H13.763l1.521-5.847a2.374,2.374,0,0,1,2.3-1.776,2.347,2.347,0,0,1,1.738.758A4.565,4.565,0,0,0,24.682,8.55a6.574,6.574,0,0,0,1.239-.813l.2-.167a.573.573,0,0,1,.821.091.6.6,0,0,1-.112.81l-.176.147a7.68,7.68,0,0,1-6.107,1.687.74.74,0,0,0-.813.487l-1.257,3.59Z" transform="translate(-0.043)"/><path class="b" d="M237.736,408.8a.741.741,0,1,0,.523.217A.746.746,0,0,0,237.736,408.8Z" transform="translate(-219.452 -378.532)"/><path class="b" d="M113.626,325.621a.739.739,0,1,0-.524-.217A.746.746,0,0,0,113.626,325.621Z" transform="translate(-104.531 -300.14)"/></g></g></g></svg>