<svg xmlns="http://www.w3.org/2000/svg" width="63.987" height="64.414" viewBox="0 0 63.987 64.414"><defs><style>.a{fill:#ffa034;}</style></defs><g transform="translate(-763 -2953)"><g transform="translate(762 2952.414)"><path class="a" d="M21.616,43.461l-1.959.649a13.243,13.243,0,0,0,.779,1.865l1.838-.937a11.4,11.4,0,0,1-.658-1.577Z" transform="translate(0.598 1.374)"/><path class="a" d="M41.8,33.953a11.354,11.354,0,0,1-18.684,12.9L21.44,48.057A13.418,13.418,0,0,0,43.519,32.811Z" transform="translate(0.655 1.033)"/><path class="a" d="M61.891,15a3.1,3.1,0,0,0-3.1,3.1,3.066,3.066,0,0,0,.457,1.6l-5.607,6.853a3.068,3.068,0,0,0-1.042-.193,3.154,3.154,0,0,0-.444.044l-5.944-5.944-5.483,4.264a3.058,3.058,0,0,0-1.546-.429c-.08,0-.156.018-.235.024l-.012-.005-.905-7.243H27.954l-.9,7.231q-.762.277-1.521.637l-5.758-4.478L12.646,27.58l4.478,5.758c-.028.06-.047.12-.075.18L7.18,29.569c0-.04.012-.079.012-.121a3.131,3.131,0,1,0-.783,2.037l8.822,3.529-5.975.747V45.841l7.231.9q.277.76.637,1.52l-4.478,5.758,7.126,7.126,5.758-4.478q.757.359,1.521.637l.9,7.231H38.033l.9-7.231q.762-.277,1.521-.637l5.758,4.478,7.126-7.126-4.478-5.758q.359-.757.637-1.52l7.231-.9V35.762l-7.231-.9q-.277-.76-.637-1.52L50.3,31.494a3.081,3.081,0,0,0,4.945-3.642L60.848,21a3.044,3.044,0,0,0,1.042.194,3.1,3.1,0,1,0,0-6.192ZM4.1,30.481a1.032,1.032,0,1,1,1.032-1.032A1.033,1.033,0,0,1,4.1,30.481Zm46.177-3.05a3.107,3.107,0,0,0-.384.557l-7.666-1.18a3.022,3.022,0,0,0-.152-.518L46.043,23.2Zm-10.055-.046a1.032,1.032,0,1,1-1.032-1.032A1.033,1.033,0,0,1,40.218,27.385Zm-24.825.366,4.55-4.55L25.3,27.364l.586-.3a15.32,15.32,0,0,1,2.423-1.012l.63-.2.841-6.72H36.21l.763,6.1a3.079,3.079,0,0,0,.055,4.372l-1.105,2.4a9.254,9.254,0,0,0-11.167,4.534l-2.091-.8c0-.028.008-.054.008-.082a3.1,3.1,0,0,0-3.1-3.1,3.161,3.161,0,0,0-.422.042ZM25.954,39.2l3.952,1.52c0,.028-.008.054-.008.082a3.1,3.1,0,1,0,5.254-2.213l1.772-3.84A7.232,7.232,0,1,1,25.954,39.2Zm7.04.57A1.032,1.032,0,1,1,31.961,40.8,1.033,1.033,0,0,1,32.993,39.769Zm.28-2.036c-.094-.008-.184-.028-.28-.028a3.075,3.075,0,0,0-2.34,1.091l-3.959-1.522a7.2,7.2,0,0,1,8.356-3.394Zm-13.7-3.124a1.032,1.032,0,1,1-1.032,1.032A1.033,1.033,0,0,1,19.577,34.609Zm27.157-.917a15.2,15.2,0,0,1,1.012,2.422l.2.631,6.721.84v6.434l-6.72.839-.2.631a15.472,15.472,0,0,1-1.012,2.422l-.3.587,4.163,5.353-4.55,4.55L40.69,54.237l-.586.3a15.32,15.32,0,0,1-2.423,1.012l-.63.2-.841,6.721H29.777l-.84-6.72-.63-.2a15.32,15.32,0,0,1-2.423-1.012l-.586-.3L19.944,58.4l-4.55-4.55L19.557,48.5l-.3-.587a15.2,15.2,0,0,1-1.012-2.422l-.2-.631-6.721-.84V37.584l5.437-.679a3.073,3.073,0,0,0,5.159.741l2.1.808a9.284,9.284,0,1,0,13.776-5.591l1.113-2.412a2.79,2.79,0,0,0,.28.029A3.084,3.084,0,0,0,41.9,28.846l7,1.078L46.43,33.1ZM52.6,30.481a1.032,1.032,0,1,1,1.032-1.032A1.033,1.033,0,0,1,52.6,30.481Zm9.288-11.353A1.032,1.032,0,1,1,62.923,18.1,1.033,1.033,0,0,1,61.891,19.128Z" transform="translate(0 0.462)"/><path class="a" d="M26.081,11.32H21.526V1H19.462V13.385H21.1L15.334,19.15,9.569,13.385h1.637V5.128H9.141V11.32H4.586L15.334,22.068Z" transform="translate(0.115 0.013)"/><path class="a" d="M9,1h2.064V3.064H9Z" transform="translate(0.256 0.013)"/><path class="a" d="M43.141,19.59h2.064V9.27H43.569L49.334,3.5,55.1,9.27H53.462v6.192h2.064V11.334h4.555L49.334.586,38.586,11.334h4.555Z" transform="translate(1.204)"/><path class="a" d="M53,17h2.064v2.064H53Z" transform="translate(1.666 0.526)"/></g></g></svg>