<svg xmlns="http://www.w3.org/2000/svg" xmlns:xlink="http://www.w3.org/1999/xlink" width="157" height="158" viewBox="0 0 157 158"><defs><style>.a{opacity:0.8;fill:url(#a);}.b{fill:#fff;}.c{filter:url(#b);}</style><linearGradient id="a" x1="0.5" x2="0.5" y2="1" gradientUnits="objectBoundingBox"><stop offset="0" stop-color="#ff9402"/><stop offset="1" stop-color="#ff6802"/></linearGradient><filter id="b" x="0" y="0" width="157" height="158" filterUnits="userSpaceOnUse"><feOffset dy="21" input="SourceAlpha"/><feGaussianBlur stdDeviation="11" result="c"/><feFlood flood-color="#ff8100" flood-opacity="0.231"/><feComposite operator="in" in2="c"/><feComposite in="SourceGraphic"/></filter></defs><g transform="translate(-620 -905)"><g transform="translate(-2 -481)"><g class="c" transform="matrix(1, 0, 0, 1, 622, 1386)"><ellipse class="a" cx="45.5" cy="46" rx="45.5" ry="46" transform="translate(33 12)"/></g><g transform="translate(682 1426)"><path class="b" d="M36.874,14.868A4.168,4.168,0,0,0,32.711,10.7h-.246l-5.106,5.106V0H6.3L0,6.3V36.874H27.358V24.63l9.516-9.516ZM15.709,29.142,27.953,16.9l.943.943L16.652,30.085ZM15.289,30.4l1.886,1.886-2.2.315Zm3.148,1.466-.943-.943L29.737,18.683l.943.943ZM28.794,16.058l.943-.943,2.727,2.727-.943.943ZM5.947,2.03V5.947H2.03ZM26.168,35.684H1.189V7.136H7.136V1.189H26.168V17L14.307,28.862l-.735,5.145,5.145-.735,7.451-7.451ZM33.305,17l-2.727-2.727L32.947,11.9a2.978,2.978,0,0,1,2.727,2.727Zm0,0" transform="translate(0 0.001)"/><path class="b" d="M289.784,35.568A1.784,1.784,0,1,0,288,33.784,1.787,1.787,0,0,0,289.784,35.568Zm0-2.379a.595.595,0,1,1-.595.595A.6.6,0,0,1,289.784,33.189Zm0,0" transform="translate(-266.589 -29.621)"/><path class="b" d="M225.784,35.568A1.784,1.784,0,1,0,224,33.784,1.787,1.787,0,0,0,225.784,35.568Zm0-2.379a.595.595,0,1,1-.595.595A.6.6,0,0,1,225.784,33.189Zm0,0" transform="translate(-207.347 -29.621)"/><path class="b" d="M161.784,35.568A1.784,1.784,0,1,0,160,33.784,1.787,1.787,0,0,0,161.784,35.568Zm0-2.379a.595.595,0,1,1-.595.595A.6.6,0,0,1,161.784,33.189Zm0,0" transform="translate(-148.105 -29.621)"/><path class="b" d="M128,96h15.463v1.189H128Zm0,0" transform="translate(-118.484 -88.863)"/><path class="b" d="M32,128H54.6v1.189H32Zm0,0" transform="translate(-29.621 -118.484)"/><path class="b" d="M32,448H42.111v1.19H32Zm0,0" transform="translate(-29.621 -414.694)"/><path class="b" d="M152,416h1.189v1.189H152Zm0,0" transform="translate(-140.7 -385.073)"/><path class="b" d="M32,416h7.732v1.189H32Zm0,0" transform="translate(-29.621 -385.073)"/><path class="b" d="M32,384H42.111v1.19H32Zm0,0" transform="translate(-29.621 -355.452)"/><path class="b" d="M32,352H42.111v1.189H32Zm0,0" transform="translate(-29.621 -325.831)"/><path class="b" d="M46.274,160H32v13.084H46.274Zm-1.189,11.895H33.189V161.189H45.084Zm0,0" transform="translate(-29.621 -148.105)"/><path class="b" d="M240,160h7.137v1.189H240Zm0,0" transform="translate(-222.158 -148.105)"/><path class="b" d="M240,192h7.137v1.189H240Zm0,0" transform="translate(-222.158 -177.726)"/><path class="b" d="M240,224h7.137v1.189H240Zm0,0" transform="translate(-222.158 -207.347)"/><path class="b" d="M64,272h1.189v1.19H64Zm0,0" transform="translate(-59.242 -251.779)"/><path class="b" d="M65.189,193.189h2.379V192H64v4.758h1.189Zm0,0" transform="translate(-59.242 -177.726)"/><path class="b" d="M306.379,392h-1.19v4.163H304v1.19h2.379Zm0,0" transform="translate(-281.4 -362.857)"/><path class="b" d="M272,448h1.19v1.19H272Zm0,0" transform="translate(-251.779 -414.694)"/></g></g></g></svg>