<svg xmlns="http://www.w3.org/2000/svg" xmlns:xlink="http://www.w3.org/1999/xlink" width="158" height="158" viewBox="0 0 158 158"><defs><style>.a{opacity:0.8;fill:url(#a);}.b{fill:#fff;}.c{filter:url(#b);}</style><linearGradient id="a" x1="0.5" x2="0.5" y2="1" gradientUnits="objectBoundingBox"><stop offset="0" stop-color="#ff9402"/><stop offset="1" stop-color="#ff6802"/></linearGradient><filter id="b" x="0" y="0" width="158" height="158" filterUnits="userSpaceOnUse"><feOffset dy="21" input="SourceAlpha"/><feGaussianBlur stdDeviation="11" result="c"/><feFlood flood-color="#ff8100" flood-opacity="0.231"/><feComposite operator="in" in2="c"/><feComposite in="SourceGraphic"/></filter></defs><g transform="translate(-841 -1386)"><g class="c" transform="matrix(1, 0, 0, 1, 841, 1386)"><circle class="a" cx="46" cy="46" r="46" transform="translate(33 12)"/></g><g transform="translate(900 1424)"><path class="b" d="M35.262,19.525A7.262,7.262,0,1,0,28,12.262,7.271,7.271,0,0,0,35.262,19.525Zm0-13.2a5.942,5.942,0,1,1-5.942,5.942A5.949,5.949,0,0,1,35.262,6.32Z" transform="translate(-10.174 -2.359)"/><path class="b" d="M34,10.382V17.8l7.418-3.709Zm1.32,2.136,3.145,1.573L35.32,15.664Z" transform="translate(-12.213 -4.188)"/><path class="b" d="M38.632,1H13.544a3.3,3.3,0,0,0-3.3,3.3v12.88l-7.208,3.93a1.319,1.319,0,0,0-.571,1.77l.32.629a1.962,1.962,0,0,0-.464,1.258v3.489A3.034,3.034,0,0,0,1,30.71a1.981,1.981,0,1,0,3.961,0,3.034,3.034,0,0,0-1.32-2.453V24.768a.68.68,0,0,1,.017-.137,1.332,1.332,0,0,0,.169.073,1.292,1.292,0,0,0,.4.064,1.349,1.349,0,0,0,.616-.153l.381-.208,1.217,2.445.51-.122.166-.041a4.6,4.6,0,0,0,1.818,2.539A7.269,7.269,0,0,0,4.3,35.991v5.942H16.845V38.412l.066.088a5.282,5.282,0,0,0,8.451,0l2.215-2.954a2.475,2.475,0,0,0,.492-1.475v-.243a2.452,2.452,0,0,0-1.32-2.166V28.729H38.632a3.3,3.3,0,0,0,3.3-3.3V4.3A3.3,3.3,0,0,0,38.632,1ZM11.563,4.3A1.983,1.983,0,0,1,13.544,2.32H38.632A1.983,1.983,0,0,1,40.613,4.3V19.486H14.424l-.037-.075.423-.23a1.319,1.319,0,0,0,.571-1.77l-.6-1.169a1.3,1.3,0,0,0-.767-.654A1.319,1.319,0,0,0,13,15.677l-1.437.784ZM2.981,31.37a.661.661,0,0,1-.66-.66c0-.541.449-1.291.658-1.32.213.029.662.779.662,1.32A.661.661,0,0,1,2.981,31.37Zm1.256-7.92-.583-1.171,9.956-5.436.595,1.168Zm2.149.325,6.841-3.73.819,1.643a20.454,20.454,0,0,1-3.225,2.289,20.06,20.06,0,0,1-3.668,1.338Zm2.008,2.558a18.489,18.489,0,0,0,3.04-1.186,18.663,18.663,0,0,0,2.679-1.808,3.3,3.3,0,1,1-5.719,2.995Zm18.355,7.739a1.15,1.15,0,0,1-.228.683l-2.215,2.954a3.962,3.962,0,0,1-6.338,0l-2.575-3.433-1.056.792,1.188,1.585v3.961h-9.9V35.991a5.949,5.949,0,0,1,5.942-5.942h.778a6.724,6.724,0,0,1,5.506,2.867l2.615,3.736h1.313l2.96-3.551a1.138,1.138,0,0,1,2.013.728Zm-1.32-2.682a2.441,2.441,0,0,0-1.707.865l-2.564,3.077L18.93,32.159c-.032-.046-.071-.086-.1-.131V23.447h6.6Zm13.2-3.981H26.748V24.768H39.293v-1.32H26.748v-1.32H17.505v8.49a8.053,8.053,0,0,0-3.045-1.594,4.6,4.6,0,0,0,.669-6.525l.176-.154.374-.335-.6-1.2H40.613v4.622A1.983,1.983,0,0,1,38.632,27.409Z" transform="translate(-1 -1)"/><path class="b" d="M30,41h3.961v1.32H30Z" transform="translate(-10.854 -14.591)"/><path class="b" d="M30,45h2.641v1.32H30Z" transform="translate(-10.854 -15.95)"/><path class="b" d="M30,37h3.961v1.32H30Z" transform="translate(-10.854 -13.232)"/><path class="b" d="M19,13h1.32v1.32H19Z" transform="translate(-7.116 -5.077)"/><path class="b" d="M57,25h1.32v1.32H57Z" transform="translate(-20.028 -9.155)"/><path class="b" d="M57,21h1.32v1.32H57Z" transform="translate(-20.028 -7.796)"/><path class="b" d="M57,17h1.32v1.32H57Z" transform="translate(-20.028 -6.437)"/><path class="b" d="M20.32,6.32H25.6V5H20.32A1.322,1.322,0,0,0,19,6.32V8.961h1.32Z" transform="translate(-7.116 -2.359)"/></g></g></svg>