<svg xmlns="http://www.w3.org/2000/svg" xmlns:xlink="http://www.w3.org/1999/xlink" width="542.279" height="547.044" viewBox="0 0 542.279 547.044"><defs><style>.a,.s{fill:none;}.b{fill:#333;}.c{fill:#ffc299;}.d{fill:url(#a);}.e{clip-path:url(#b);}.f{fill:url(#c);}.g{clip-path:url(#d);}.h{fill:#1e1e1e;}.i{fill:#ff9203;}.j{fill:#f26d00;}.k{fill:url(#e);}.l,.u{fill:#fff;}.m{fill:url(#f);}.ad,.n{opacity:0.1;}.n{fill:url(#g);}.o{fill:url(#h);}.am,.p{fill:#fef8f6;}.ao,.p{opacity:0.7;}.q{fill:url(#i);}.r{fill:url(#j);}.s{stroke:#707070;stroke-miterlimit:10;stroke-width:0.5px;stroke-dasharray:3;}.t{fill:#ff7e02;}.ag,.u{opacity:0.5;}.v{clip-path:url(#k);}.w{fill:url(#l);}.x{opacity:0.15;}.y{clip-path:url(#m);}.z{fill:url(#n);}.aa{fill:url(#o);}.ab{clip-path:url(#p);}.ac{fill:url(#q);}.ae{clip-path:url(#r);}.af{fill:#fceeea;}.ah{fill:#edd7d1;}.ai{clip-path:url(#s);}.aj,.at{opacity:0.6;}.ak{fill:url(#t);}.al{fill:url(#x);}.an{opacity:0.3;fill:url(#y);}.ap{clip-path:url(#z);}.aq{fill:#e2e2e2;}.ar{clip-path:url(#aa);}.as{clip-path:url(#ab);}.at,.au{fill:#ead1cc;}.au{opacity:0.4;}</style><linearGradient id="a" x1="-9.797" y1="0.5" x2="-8.797" y2="0.5" gradientUnits="objectBoundingBox"><stop offset="0" stop-color="#6d6e71"/><stop offset="1" stop-color="#414042"/></linearGradient><clipPath id="b"><path class="a" d="M887.487,506.865l62.62,18.017s20.213,3.639,10.454,20.881c0,0-36.309,49.406-41.234,63.194,0,0-2.567,6.041-7.35-1.183,0,0-9.693-7.909,25-65.532,0,0-3.543-3.247-18.268-2.155,0,0-17.423-.07-28.468-3.482l-18.419-18.1,2.5-14.87Z" transform="translate(-871.821 -503.64)"/></clipPath><linearGradient id="c" x1="-7.88" y1="0.5" x2="-6.88" y2="0.5" xlink:href="#a"/><clipPath id="d"><path class="a" d="M872.394,510.784s19.8,22.041,42.695,51.282c0,0,11.763,13.175,17.622,29.8,0,0,17.043,44.928,23.842,67.419,0,0-9.844,5.019-15.927-3.18,0,0-16.9-26.564-31.8-66.1a70.278,70.278,0,0,0-12.8-15.029l-30.609-28.22s-14.547-14.321-19.076-25.029C846.342,521.736,859.928,504.733,872.394,510.784Z" transform="translate(-846.342 -509.482)"/></clipPath><linearGradient id="e" x1="-70.028" y1="0.5" x2="-69.027" y2="0.5" gradientUnits="objectBoundingBox"><stop offset="0" stop-color="#ef9881"/><stop offset="1" stop-color="#ff5e36"/></linearGradient><linearGradient id="f" x1="66.092" y1="90.654" x2="67.16" y2="90.654" xlink:href="#a"/><linearGradient id="g" x1="-7.664" y1="0.5" x2="-6.664" y2="0.5" xlink:href="#a"/><linearGradient id="h" x1="-7.88" y1="0.5" x2="-6.88" y2="0.5" xlink:href="#a"/><linearGradient id="i" x1="-3.617" y1="-0.215" x2="10.555" y2="2.147" xlink:href="#a"/><linearGradient id="j" x1="49.435" y1="-56.297" x2="49.891" y2="-56.297" xlink:href="#a"/><clipPath id="k"><path class="a" d="M755.229,299.57l17.485-23.451-11.148-35.17-14.374,14.967Z" transform="translate(-747.193 -240.949)"/></clipPath><linearGradient id="l" x1="82.909" y1="-0.348" x2="83.939" y2="-0.348" xlink:href="#a"/><clipPath id="m"><path class="a" d="M783.885,322.736,800,298.325l36.866-1.46-9.2,18.6Z" transform="translate(-783.885 -296.866)"/></clipPath><linearGradient id="n" x1="39.981" y1="-3.967" x2="40.96" y2="-3.967" xlink:href="#a"/><linearGradient id="o" x1="70.73" y1="-5.637" x2="71.742" y2="-5.637" xlink:href="#a"/><clipPath id="p"><path class="a" d="M765.147,359.313c-26.009,32.5-55.475,28.477-55.475,28.477s-13.914-26.37,7.825-61.871c19.2-31.349,53.593-51.844,53.593-51.844l12.339,8.664,12.158,8.536S788.113,330.611,765.147,359.313Z" transform="translate(-705.287 -274.075)"/></clipPath><linearGradient id="q" x1="31.341" y1="-6.099" x2="32.488" y2="-6.099" xlink:href="#a"/><clipPath id="r"><path class="a" d="M761.585,348.614a14.574,14.574,0,1,0-20.3,3.554A14.573,14.573,0,0,0,761.585,348.614Z" transform="translate(-735.082 -325.664)"/></clipPath><clipPath id="s"><path class="a" d="M778.908,313.206a7.261,7.261,0,1,0-10.116,1.771A7.261,7.261,0,0,0,778.908,313.206Z" transform="translate(-765.703 -301.772)"/></clipPath><linearGradient id="t" x1="-0.967" y1="0.5" x2="1.967" y2="0.5" xlink:href="#a"/><linearGradient id="x" x1="-0.967" y1="0.5" x2="1.967" y2="0.5" xlink:href="#a"/><linearGradient id="y" x1="-8.871" y1="0.5" x2="-7.871" y2="0.5" gradientUnits="objectBoundingBox"><stop offset="0" stop-color="#f6ce7d"/><stop offset="1" stop-color="#e8a623"/></linearGradient><clipPath id="z"><path class="a" d="M1242.183,497.177c-3.17-1.211-8.336-1.992-8.979,5.4a15.7,15.7,0,0,0,.3,4.518c1.307,6.372,6.3,28.471,13.4,32.238a1.153,1.153,0,0,0,1.595-.531c1.251-2.713,3.664-12.087-3.244-38.2A5.044,5.044,0,0,0,1242.183,497.177Z" transform="translate(-1233.153 -496.395)"/></clipPath><clipPath id="aa"><path class="b" d="M1279.742,474.107s-18.693-6.311-7.98,10.5c0,0,25.462,30.362,18.8,10.913C1290.559,495.522,1282.828,475.26,1279.742,474.107Z" transform="translate(-1268.449 -472.946)"/></clipPath><clipPath id="ab"><path class="a" d="M1178.748,396.47s11.415,3.805,16.975,22.536c0,0,8.487,22.681,43.316,36.95,0,0,2.634,10.239-7.9,19.863,0,0-45.071-12.326-63.8-47.74V463.2l31.316,12.619s2.634,8.16-7.317,17.819c0,0-25.756-5.561-38.633-15.511,0,0-12.292-7.584-20.194-68.473l21.658-16.558Z" transform="translate(-1132.506 -393.095)"/></clipPath></defs><g transform="translate(-773.865 -126.563)"><g transform="translate(885.535 325.636)"><path class="c" d="M973.44,681.265a30.364,30.364,0,0,0,8.82,4.109,18.1,18.1,0,0,1,3.7,1.01,3.613,3.613,0,0,1,2.227,2.894,3.325,3.325,0,0,1-1.718,2.82,7.847,7.847,0,0,1-3.31.918,45.33,45.33,0,0,1-11.026-.567c-3.344-.484-6.762-1.1-9.662-2.835a27.725,27.725,0,0,1-3.709-2.828,13.2,13.2,0,0,1-3.563-4.011,12.55,12.55,0,0,1-.962-3.9q-.361-2.789-.609-5.589a.568.568,0,0,1,.646-.742l3.322-.3a6,6,0,0,1,2.349.1c1.18.373,1.973,1.382,2.979,2.042.955.628,1.951,1.088,2.888,1.765Q969.535,678.835,973.44,681.265Z" transform="translate(-842.037 -393.54)"/><path class="c" d="M922.038,633.477a16.675,16.675,0,0,0,1.621,5.747c.8,1.43,2.024,2.764,2.021,4.4a.657.657,0,0,1-.109.422c-.169.2-.489.165-.746.1a12.969,12.969,0,0,1-7.653-5.586,24.881,24.881,0,0,1-1.76-3.58q-1.717-4.032-3.36-8.094A54.481,54.481,0,0,1,909.942,621c-.8-2.888-1.016-6.336,1.019-8.536a10.491,10.491,0,0,1,3.237-2.1,2.754,2.754,0,0,1,2.056-.393,2.479,2.479,0,0,1,1.063.915,17.416,17.416,0,0,1,3.546,9.944A93.108,93.108,0,0,0,922.038,633.477Z" transform="translate(-837.568 -387.249)"/><path class="d" d="M887.487,506.865l62.62,18.017s20.213,3.639,10.454,20.881c0,0-36.309,49.406-41.234,63.194,0,0-2.567,6.041-7.35-1.183,0,0-9.693-7.909,25-65.532,0,0-3.543-3.247-18.268-2.155,0,0-17.423-.07-28.468-3.482l-18.419-18.1,2.5-14.87Z" transform="translate(-833.776 -376.519)"/><g transform="translate(38.045 127.121)"><g class="e"><path class="b" d="M892.4,509.147a9.158,9.158,0,0,0-3.638,1.107c-1.8,1.115-2.485,3.354-2.951,5.416s-.939,4.3-2.533,5.689c-3.048,2.65-8.092.6-11.635,2.54a9.017,9.017,0,0,0-3.619,4.5,57.242,57.242,0,0,1-2.291,5.415,16.416,16.416,0,0,1-7.976,6.638l-12.142-15.563,8.172-13,25.594-6.24,11.285-1.207Z" transform="translate(-869.174 -503.721)"/><path class="b" d="M928.477,572.015a1.578,1.578,0,0,1,.795-.3,1.555,1.555,0,0,1,.905.4,15.884,15.884,0,0,1,2.682,2.776A51.042,51.042,0,0,1,940.7,588.68c.521,1.381.977,2.949.368,4.293a6,6,0,0,1-2.122,2.185,3.332,3.332,0,0,1-1.367.7c-1.291.208-2.286-1.067-2.965-2.185q-4.581-7.541-9.161-15.083a4.862,4.862,0,0,1-.784-1.809C924.408,574.831,927.045,572.894,928.477,572.015Z" transform="translate(-877.157 -510.516)"/></g></g><path class="f" d="M872.394,510.784s19.8,22.041,42.695,51.282c0,0,11.763,13.175,17.622,29.8,0,0,17.043,44.928,23.842,67.419,0,0-9.844,5.019-15.927-3.18,0,0-16.9-26.564-31.8-66.1a70.278,70.278,0,0,0-12.8-15.029l-30.609-28.22s-14.547-14.321-19.076-25.029C846.342,521.736,859.928,504.733,872.394,510.784Z" transform="translate(-831.203 -377.109)"/><g transform="translate(15.139 132.373)"><g class="g"><path class="b" d="M892.473,509.139a9.164,9.164,0,0,0-3.638,1.107c-1.8,1.115-2.484,3.354-2.951,5.416s-.94,4.3-2.533,5.688c-3.048,2.652-8.092.6-11.636,2.541a9.025,9.025,0,0,0-3.619,4.5A57.125,57.125,0,0,1,865.8,533.8a16.419,16.419,0,0,1-7.976,6.639l-12.142-15.564,8.172-13,25.595-6.24,11.285-1.207Z" transform="translate(-846.276 -508.972)"/></g></g><path class="h" d="M885.4,389.163s10.954-11.59,3.414-21.866a6.144,6.144,0,0,0-3.627-2.361,5.01,5.01,0,0,0-3.677.587,3.589,3.589,0,0,1-3.721.067,25.186,25.186,0,0,0-6.513-2.847A14.17,14.17,0,0,0,859.1,365a18.434,18.434,0,0,0-7.531,14.188,41.3,41.3,0,0,0,1.18,6.074,21.653,21.653,0,0,1,.931,7.9,16.994,16.994,0,0,1-1.437,5.645s-1.794,3.818.575,5.378c0,0,3.292,1.72,6.009-1.938Z" transform="translate(-831.73 -362.237)"/><path class="i" d="M877.076,417.443s-29-9.592-42.915,7.174c0,0-5.038,7.209-4.175,21.319,0,0,4.738,72.44,15.489,72.365,0,0,4.11.206,8.777-8.47,0,0,1.368-5.31,11.831-4.063,0,0,7.438,1.141,11.709-3.19a9.411,9.411,0,0,1,9.156-2.916s9.656,1.765,2.273-6.913c0,0-5.85-2.387-6.075-16.565l6.786-6.966a133.883,133.883,0,0,0-1.667-35.541S886.689,419.551,877.076,417.443Z" transform="translate(-829.541 -367.537)"/><path class="c" d="M885.411,381.974s1.618,16.862-3.419,25.274a5.605,5.605,0,0,1-4.131,2.681,10.892,10.892,0,0,1-7.831-1.987,15.5,15.5,0,0,1,1.4,9.964s-1.3,4.079-5.071.994l-7.721-6.327s-1.608-2.69-.885-8.27c0,0,.988-5.168,1.466-6.87,0,0-7.508.8-6.275-5.161,0,0,1.015-5.942,7.294-1.771,0,0,3.555,2.371,2.487-2.467,0,0-2.194-10.221,4.642-6C867.369,382.033,875.3,387.238,885.411,381.974Z" transform="translate(-831.856 -364.133)"/><path class="j" d="M830,449.444s5.871,44.257,23.19,53.075c0,0,12.862,4.311,31.937-10.508l-16-2.419s-7.842-.419-11.736-4.341-12.779-19.9-12.779-19.9Z" transform="translate(-829.552 -371.045)"/><path class="j" d="M891.408,468.747s-6.613-4.566-8.645-33.1c0,0-.156,21.452,3.113,38.965Z" transform="translate(-834.881 -369.652)"/><path class="k" d="M915.255,475.736s1.1,12.442-12.435,9.934l2.158-8.834Z" transform="translate(-836.907 -373.701)"/><path class="i" d="M830.819,434.96s3.636-6.663,9.706-2.677c0,0,2.868,2.314,6.075,13.46,0,0,3.984,19.039,12.661,34.25a5.707,5.707,0,0,0,5.247,2.9c7.222-.367,24.4-2.06,37.823-9.85,0,0-4.582,14.982-32.283,23.265a19.722,19.722,0,0,1-19.614-4.669,50.587,50.587,0,0,1-11.064-16.121S825.2,446.055,830.819,434.96Z" transform="translate(-829.502 -369.184)"/><path class="h" d="M897.15,465.395s-18.018,10.152-25.13,17.985a.989.989,0,0,0,.7,1.648,62.478,62.478,0,0,0,23.756-3.753Z" transform="translate(-833.771 -372.656)"/><path class="b" d="M946.716,418.872l-7.5,37.033a8.82,8.82,0,0,1-4.2,5.868c-5.34,3.129-17.017,9.114-36,14.6a1.573,1.573,0,0,1-2.01-1.46c-.122-5.078-.184-18.779,2.206-29.662a10.652,10.652,0,0,1,4.122-6.287c5.031-3.7,16.872-11.282,41.105-21.928A1.645,1.645,0,0,1,946.716,418.872Z" transform="translate(-836.316 -367.758)"/><path class="l" d="M919.914,451.14c-.743,2-.485,3.939.576,4.333s2.524-.905,3.268-2.9.486-3.939-.576-4.333S920.658,449.141,919.914,451.14Z" transform="translate(-838.591 -370.916)"/><path class="l" d="M861.366,441.939a39.627,39.627,0,0,1-9.248,1.692s.356,9.892,5.322,10.364C857.44,453.995,864.661,454.927,861.366,441.939Z" transform="translate(-831.786 -370.287)"/></g><g transform="translate(801.806 406.746)"><path class="b" d="M753.576,452.459l17.209,13.791-34.418,5.921Z" transform="translate(-736.367 -452.459)"/><path class="i" d="M770.785,476.051V467.8l-34.418,5.921v7.888Z" transform="translate(-736.367 -454.009)"/></g><g transform="translate(1121.053 146.501)"><path class="m" d="M1096.474,183.042l-4.995-14.634,22.593,9.444Z" transform="translate(-1091.479 -163.526)"/><path class="i" d="M1094.583,162.977l-3.1,4.882,22.593,9.444,2.967-4.667Z" transform="translate(-1091.479 -162.977)"/></g><g transform="translate(942.745 175.731)"><rect class="n" width="126.416" height="83.392" rx="4.604" transform="translate(126.416 83.392) rotate(-180)"/><rect class="o" width="126.416" height="83.392" rx="4.604" transform="translate(140.044 89.676) rotate(-180)"/><g transform="translate(31.924 42.879)"><rect class="i" width="7.767" height="34.015" transform="translate(34.664 34.015) rotate(-180)"/><rect class="i" width="7.767" height="34.015" transform="translate(14.974 34.015) rotate(-180)"/><g transform="translate(0 11.096)"><path class="b" d="M973.747,267.353a.9.9,0,0,0,.636-1.545c-.61-.6-15.005-14.587-25.711-6.966-.4.339-8.433,7-18.48-3.046a.9.9,0,1,0-1.277,1.277c11.27,11.27,20.778,3.27,20.871,3.187,9.414-6.695,23.19,6.7,23.327,6.834A.894.894,0,0,0,973.747,267.353Z" transform="translate(-928.65 -255.53)"/></g></g><g transform="translate(85.472 16.986)"><ellipse class="p" cx="17.261" cy="17.261" rx="17.261" ry="17.261" transform="translate(0.837 2.028)"/><path class="i" d="M988.214,227.054a19.279,19.279,0,0,1,18.1-12.668v19.289Z" transform="translate(-988.214 -214.386)"/></g></g><g transform="translate(1143.004 602.978)"><path class="q" d="M1152.6,670.737l-10.442,36.942-5.568-17.918Z" transform="translate(-1117.987 -670.737)"/><path class="r" d="M1150.513,670.737l-34.616,16.6,18.606,2.427Z" transform="translate(-1115.897 -670.737)"/></g><path class="s" d="M1093.838,683.291c-9.22,10.531-134.411,95.562-229.825-7.9-13.386-14.515-18.472-35.665-16.71-55.331.566-6.32,3.357-13.969,9.674-14.566,7.268-.688,11.131,10.161,6.684,15.951s-12.85,5.914-20.094,5.008c-65.693-8.22-67.107-89.341-62.195-103.781" transform="translate(61.068 -52.805)"/><g transform="translate(773.865 197.565)"><path class="t" d="M801.014,276.987l-14.02-11.122s-5.417-12.2,5.943-23.415c12.435-12.281,28.659-15.821,42.091-22.672-4.115,14.242-3.522,31.159-12.651,46.063C814.038,279.456,801.014,276.987,801.014,276.987Z" transform="translate(-713.409 -219.778)"/><path class="u" d="M799.968,280.909l-7.186-5.7-6.977-5.534a77.192,77.192,0,0,1,33.178-27.149A76.153,76.153,0,0,1,799.968,280.909Z" transform="translate(-713.419 -222.075)"/><g transform="translate(37.673 19.033)"><g class="v"><path class="w" d="M755.229,299.57l17.485-23.451-11.148-35.17-14.374,14.967Z" transform="translate(-747.193 -240.949)"/><path class="x" d="M748.451,249.27l13.518,45.03-7.581,10.8-8.539-17.356-3.781-33.972Z" transform="translate(-746.675 -241.789)"/></g><g transform="translate(32.987 50.269)"><g class="y"><path class="z" d="M783.885,322.736,800,298.325l36.866-1.46-9.2,18.6Z" transform="translate(-783.885 -296.866)"/><path class="x" d="M833.629,312.871l-46.945,2.579-7.581,10.8,19.224,2.137,33.237-7.982Z" transform="translate(-783.402 -298.482)"/></g></g></g><rect class="aa" width="29.924" height="9.486" transform="translate(71.531 40.758) rotate(35.073)"/><g transform="translate(0 48.813)"><g class="ab"><path class="t" d="M765.273,359.114c-26.009,32.5-55.531,28.559-55.531,28.559s-13.829-26.492,7.91-61.994c19.2-31.348,53.678-51.965,53.678-51.965l12.34,8.664,12.157,8.536S788.239,330.411,765.273,359.114Z" transform="translate(-705.299 -274.038)"/><rect class="ac" width="67.501" height="38.195" transform="translate(-5.389 64.974) rotate(35.073)"/><rect class="ad" width="67.501" height="3.662" transform="translate(-5.389 64.974) rotate(35.073)"/><path class="ad" d="M710.871,385.751s-10.621-60.574,71.947-107.915l-7.952-5.583S687.749,328.988,710.871,385.751Z" transform="translate(-705.456 -273.891)"/></g></g><circle class="ad" cx="18.846" cy="18.846" r="18.846" transform="translate(16.801 99.416) rotate(-22.147)"/><path class="ad" d="M762.649,349.311a16.082,16.082,0,1,0-22.4,3.921A16.082,16.082,0,0,0,762.649,349.311Z" transform="translate(-708.127 -230.303)"/><g transform="translate(26.786 95.191)"><g class="ae"><path class="af" d="M761.585,348.614a14.574,14.574,0,1,0-20.3,3.554A14.573,14.573,0,0,0,761.585,348.614Z" transform="translate(-735.082 -325.664)"/><g class="ag" transform="translate(6.319 -4.183)"><rect class="ah" width="5.859" height="35.557" transform="matrix(-0.985, 0.172, -0.172, -0.985, 16.937, 35.024)"/><rect class="ah" width="2.93" height="35.557" transform="translate(9.015 36.411) rotate(170.073)"/></g></g></g><path class="ad" d="M780.411,314.191a9.39,9.39,0,1,0-13.08,2.289A9.391,9.391,0,0,0,780.411,314.191Z" transform="translate(-711.15 -227.82)"/><path class="ad" d="M779.438,313.554a8.013,8.013,0,1,0-11.162,1.953A8.014,8.014,0,0,0,779.438,313.554Z" transform="translate(-711.304 -227.975)"/><g transform="translate(54.314 73.713)"><g class="ai"><path class="af" d="M778.908,313.206a7.261,7.261,0,1,0-10.116,1.771A7.261,7.261,0,0,0,778.908,313.206Z" transform="translate(-765.703 -301.772)"/><g class="aj" transform="translate(2.2 -3.693)"><rect class="ah" width="3.321" height="20.154" transform="translate(9.599 19.852) rotate(170.075)"/><rect class="ah" width="1.661" height="20.154" transform="translate(5.11 20.638) rotate(170.075)"/></g></g></g><g transform="translate(68.634 42.551)"><rect class="ak" width="2.576" height="9.486" transform="translate(5.451 0) rotate(35.072)"/><rect class="ak" width="2.576" height="9.486" transform="translate(9.769 3.032) rotate(35.072)"/><rect class="ak" width="2.576" height="9.486" transform="translate(14.088 6.065) rotate(35.075)"/><rect class="ak" width="2.576" height="9.486" transform="translate(18.407 9.097) rotate(35.072)"/><rect class="al" width="2.576" height="9.486" transform="matrix(0.818, 0.575, -0.575, 0.818, 22.726, 12.129)"/></g><rect class="ad" width="29.924" height="2.136" transform="translate(67.308 46.774) rotate(35.073)"/><path class="u" d="M719.8,397.742s14.221-1.937,24.688-8.643c0,0-2.6-2.317-6.552.221s-5.018,3.79-8.93,4.361C721.746,394.741,719.8,397.742,719.8,397.742Z" transform="translate(-706.752 -236.782)"/></g><path class="am" d="M1220.621,223.056s13.894-14.576,5.561-24.731a12.479,12.479,0,0,0-6.549-4.094c-4.93-1.273-13.83-1.242-20.7,11.748,0,0-5.131-23.21-30.467-20.688a18.605,18.605,0,0,0-13,6.965c-3.761,4.913-6.269,13.316-1.254,27.276,0,0-20.614-8.5-25.916,4.387a14.288,14.288,0,0,0-.8,2.94c-.9,5.065-1.736,18.615,14.52,20.592h96.768s13.9-.2,16.911-11.407A14.309,14.309,0,0,0,1253,223.5C1248.658,218.059,1239.146,212.012,1220.621,223.056Z" transform="translate(25.977 -18.711)"/><path class="s" d="M851.565,202.663c60.121-63.416,205.487-66.913,254.058-57.924,15.687,2.9,31.159,7.538,45.23,15.056,9.814,5.242,19.293,12.348,23.76,22.538s2.244,23.928-7.289,29.663c-5.862,3.528-40.015,11.457-51.89-.61-2.761-2.8-.762-8.011,2.344-10.428a16.18,16.18,0,0,1,11.2-2.939c90.048,7.454,79.353,163.9,39.262,203.756-17.851,17.747-46.031,24.018-59.941,45-14.13,21.309-7.046,52.316,12.108,69.253s47.266,21.056,72.239,15.571" transform="translate(53.804 -14.265)"/><path class="am" d="M1006.921,492.781s-10.757-11.286-4.305-19.148a9.665,9.665,0,0,1,5.07-3.169c3.817-.985,10.707-.962,16.023,9.1,0,0,3.973-17.969,23.589-16.018a14.4,14.4,0,0,1,10.067,5.393c2.912,3.8,4.853,10.309.971,21.117,0,0,15.959-6.583,20.064,3.4a11.048,11.048,0,0,1,.621,2.276c.7,3.921,1.344,14.412-11.242,15.943H992.861s-10.766-.152-13.092-8.832a11.079,11.079,0,0,1,2.082-9.71C985.215,488.911,992.578,484.23,1006.921,492.781Z" transform="translate(40.893 -46.818)"/><g transform="translate(1266.315 276.363)"><path class="b" d="M1270.84,307.626l5,2.827c2.226,1.26.28,8.908-4.347,17.083s-10.181,13.781-12.407,12.521l-5-2.827Z" transform="translate(-1253.165 -307.449)"/><path class="i" d="M1253.983,337.21c2.226,1.26,7.781-4.347,12.407-12.521s6.573-15.823,4.347-17.083-7.781,4.346-12.407,12.521S1251.757,335.951,1253.983,337.21Z" transform="translate(-1253.061 -307.429)"/></g><g transform="translate(1024.812 407.569)"><path class="b" d="M1012.336,478.668l-4.193,3.921c-1.868,1.747-8.584-2.4-15-9.261s-10.1-13.84-8.232-15.587l4.193-3.921Z" transform="translate(-984.427 -453.421)"/><path class="i" d="M989.576,453.775c-1.868,1.747,1.818,8.725,8.233,15.587s13.13,11.007,15,9.261-1.818-8.725-8.232-15.587S991.445,452.028,989.576,453.775Z" transform="translate(-984.898 -453.376)"/></g><path class="an" d="M1114.463,559.793l-91.8,4.343c-6.306-.036-12.1,4.262-14.611,10.843l-16.981,44.453c-1.609,4.213.87,8.852,4.891,9.149l84.75,10.524c6.543.484,12.754-3.758,15.471-10.567l23.172-60.05C1121,564.373,1118.433,559.815,1114.463,559.793Z" transform="translate(39.765 -56.554)"/><path class="t" d="M1103.179,551.4l-91.8,4.343c-6.3-.037-12.1,4.262-14.611,10.843l-16.981,44.453c-1.609,4.213.87,8.852,4.891,9.149l84.75,10.524c6.543.485,12.754-3.758,15.472-10.567l23.171-60.05C1109.712,555.98,1107.15,551.423,1103.179,551.4Z" transform="translate(40.904 -55.707)"/><g transform="translate(1053.09 507.922)"><g transform="translate(0 0)"><path class="am" d="M1016.785,568.019h.035l30.843-1.211a.9.9,0,0,0,.867-.939.881.881,0,0,0-.938-.867l-30.843,1.212a.9.9,0,0,0,.035,1.805Z" transform="translate(-1015.881 -565.002)"/></g></g><g class="ao" transform="translate(1047.242 518.102)"><g transform="translate(0 0)"><path class="am" d="M1010.281,579.343h.022l49.1-1.212a.9.9,0,0,0,.879-.925.868.868,0,0,0-.925-.88l-49.1,1.211a.9.9,0,0,0,.023,1.806Z" transform="translate(-1009.377 -576.326)"/></g></g><path class="p" d="M1044.926,611.958c2.251,8.546,12.621,13.223,23.162,10.446s17.26-11.956,15.009-20.5-12.621-13.222-23.162-10.446S1042.675,603.412,1044.926,611.958Z" transform="translate(34.319 -59.672)"/><path class="c" d="M1201.858,487.549l2.45-1.811,22.9,8.309-1.6,10.333a218.742,218.742,0,0,0-26.738-7.989Z" transform="translate(18.727 -49.075)"/><path class="b" d="M1235.719,494.959c-3.623-1.051-9.671-1.37-8.31,8.916,0,0,7.862,28.989,16.506,32.7a1.16,1.16,0,0,0,1.547-.663c1.021-2.811,2.647-12.355-6.4-37.8A5.039,5.039,0,0,0,1235.719,494.959Z" transform="translate(15.864 -49.956)"/><g transform="translate(1248.418 446.244)"><g class="ap" transform="translate(0 0)"><path class="aq" d="M1235.719,494.959c-3.623-1.051-9.671-1.37-8.31,8.916,0,0,7.862,28.989,16.506,32.7a1.16,1.16,0,0,0,1.547-.663c1.021-2.811,2.647-12.355-6.4-37.8A5.039,5.039,0,0,0,1235.719,494.959Z" transform="translate(-1232.553 -496.2)"/></g></g><path class="c" d="M1248.383,463.907l17.372,7.866,3.6.438.984,12.018s-17.7-6.774-30.046-9.068Z" transform="translate(14.543 -46.87)"/><path class="b" d="M1279.742,474.107s-18.693-6.311-7.98,10.5c0,0,25.462,30.362,18.8,10.913C1290.559,495.522,1282.828,475.26,1279.742,474.107Z" transform="translate(11.7 -47.783)"/><g transform="translate(1280.148 425.163)"><path class="b" d="M1279.742,474.107s-18.693-6.311-7.98,10.5c0,0,25.462,30.362,18.8,10.913C1290.559,495.522,1282.828,475.26,1279.742,474.107Z" transform="translate(-1268.449 -472.946)"/><g class="ar" transform="translate(0)"><path class="aq" d="M1288.962,475.311s-17.391-9.317-9.609,9.037c0,0,20.088,34.156,16.733,13.872C1296.087,498.221,1291.814,476.959,1288.962,475.311Z" transform="translate(-1269.348 -472.946)"/></g></g><path class="b" d="M1178.748,396.47s11.415,3.805,16.975,22.536c0,0,8.487,22.681,43.316,36.95,0,0,2.634,10.239-7.9,19.863,0,0-45.071-12.326-63.8-47.74V463.2l31.316,12.619s2.634,8.16-7.317,17.819c0,0-25.756-5.561-38.633-15.511,0,0-12.292-7.584-20.194-68.473l21.658-16.558Z" transform="translate(25.43 -39.718)"/><g transform="translate(1157.936 353.377)"><g class="as" transform="translate(0 0)"><path class="h" d="M1187.508,450.341s-8.415-6.012-7.232-25.825c0,0,0-11.331-9.074-18.63,0,0,2.17,8.877,0,16.175a28.648,28.648,0,0,0,0,9.864l4.542,17.359Z" transform="translate(-1136.369 -394.387)"/></g></g><path class="c" d="M1084.287,293.267a19.394,19.394,0,0,1-9.878,8.929,4.711,4.711,0,0,0,1.33,1.615s-8.359,9.214-1.33,10.734a20.712,20.712,0,0,1,5.034,2.374l10.068,3.7h7.884s5.129-11.019,4.844-12.064-4.084-10.068-4.084-10.068Z" transform="translate(31.582 -29.635)"/><path class="c" d="M1056.105,312.108s-21.529-3.531-44.577-27.6c0,0-.12-13.953-4.921-15.454,0,0-2.2-.6.8,9.1a53.913,53.913,0,0,1-13.5-16.3s-3.5,3.336,2.3,17.522a33.475,33.475,0,0,0-4.2-5.719,33.234,33.234,0,0,0,12.6,18.7s32.041,32.773,51.961,35.639l5.88-6.321-2.205-7.13Z" transform="translate(39.62 -26.462)"/><path class="h" d="M1054.158,386.611s12.919,22.732,17.763,33.787l-19.379,15.154s-.5-9.192-19.5-33.042Z" transform="translate(35.476 -39.063)"/><path class="c" d="M1091.162,366.484s3.839,25.452-14.788,33.982c0,0-8.816-1.706-14.788-.853,0,0,.568,4.408,6.256,4.551l5.4,10.948s5.4-3.638,6.967-8.147c0,0,22.892-4.508,29.148-31.808Z" transform="translate(32.592 -37.03)"/><path class="t" d="M1164.274,382.6s21.41,9.668,5.9,6.8c0,0-24.726-2.2-46.814,13.765,0,0-2.985-22.684-17.908-34.176,0,0-16.714,2.687-18.654-16.564,0,0-2.836-13.431-24.325-18.655,0,0,7.014-4.12.746-16.014,0,0,20.893,3.627,31.19,4.374l27.2,8.982,21.765,23.271s9.747,12.534,14.211,23.815A29.073,29.073,0,0,0,1164.274,382.6Z" transform="translate(32.503 -32.109)"/><path class="h" d="M1198.292,320.9s-5.961-6.707-29.062-3.428c0,0-35.574,10.017-44.562-5.664,0,0-14.01-34.726-33.831-28.317,0,0-12.543,4.952-2.621,17.081a45.7,45.7,0,0,0,3.633,3.958s4.915-1.2,5.419,3.466c0,0,.378,4.348-4.6,3.781,0,0,1.521,11.3,18.421,15.775a23.5,23.5,0,0,1,18.343,13.231s15.44,27.272,36.405.945C1165.837,341.725,1182.88,316.6,1198.292,320.9Z" transform="translate(30.289 -28.568)"/><g transform="translate(1079.884 352.928)"><g transform="translate(1.131 0)"><path class="l" d="M1047.62,398.894a.67.67,0,0,0,.4-.129l6.823-4.944a.677.677,0,1,0-.793-1.1l-6.823,4.944a.677.677,0,0,0,.4,1.225Z" transform="translate(-1046.943 -392.596)"/></g><g transform="translate(0 4.362)"><path class="l" d="M1046.363,406.382a.674.674,0,0,0,.4-.132l10.265-7.579a.677.677,0,0,0-.8-1.09l-10.264,7.579a.677.677,0,0,0,.4,1.222Z" transform="translate(-1045.685 -397.448)"/></g></g><path class="at" d="M1193.4,597.73c0,4.651,23.162,8.423,51.734,8.423s51.734-3.771,51.734-8.423-23.162-8.422-51.734-8.422S1193.4,593.078,1193.4,597.73Z" transform="translate(19.28 -59.535)"/><path class="au" d="M847.367,739.066c0,4.48,28.607,8.112,63.895,8.112s63.895-3.632,63.895-8.112-28.606-8.112-63.895-8.112S847.367,734.586,847.367,739.066Z" transform="translate(54.228 -73.841)"/></g></svg>