<svg xmlns="http://www.w3.org/2000/svg" xmlns:xlink="http://www.w3.org/1999/xlink" width="157" height="158" viewBox="0 0 157 158"><defs><style>.a{opacity:0.8;fill:url(#a);}.b{fill:#fff;}.c{filter:url(#b);}</style><linearGradient id="a" x1="0.5" x2="0.5" y2="1" gradientUnits="objectBoundingBox"><stop offset="0" stop-color="#ff9402"/><stop offset="1" stop-color="#ff6802"/></linearGradient><filter id="b" x="0" y="0" width="157" height="158" filterUnits="userSpaceOnUse"><feOffset dy="21" input="SourceAlpha"/><feGaussianBlur stdDeviation="11" result="c"/><feFlood flood-color="#ff8100" flood-opacity="0.231"/><feComposite operator="in" in2="c"/><feComposite in="SourceGraphic"/></filter></defs><g transform="translate(-175 -905)"><g transform="translate(7 -478)"><g class="c" transform="matrix(1, 0, 0, 1, 168, 1383)"><ellipse class="a" cx="45.5" cy="46" rx="45.5" ry="46" transform="translate(33 12)"/></g><g transform="translate(227 1422)"><path class="b" d="M154.915,128.821a.41.41,0,0,0,0-.821H149.91a.41.41,0,1,0,0,.821h1.723a1.233,1.233,0,0,1,1.16.821H149.91a.41.41,0,1,0,0,.821h2.883a1.233,1.233,0,0,1-1.16.821h-1.7a.41.41,0,0,0-.313.676l3.391,3.993a.41.41,0,0,0,.625-.531l-2.817-3.317h.809a2.055,2.055,0,0,0,2.01-1.641h1.272a.41.41,0,0,0,0-.821h-1.272a2.043,2.043,0,0,0-.37-.821h1.642Z" transform="translate(-133.331 -121.701)"/><path class="b" d="M37.525,33.41h-.811V31.644a1.641,1.641,0,0,0-1.639-1.639H33.8V21.944h.092a1.5,1.5,0,0,0,1.54-1.454V18.9h1.583a1.684,1.684,0,0,0,1.809-1.091c.2-.742-.26-1.512-1.221-2.061l-8.192-4.677a9.455,9.455,0,1,0-18.631,0L2.587,15.747c-.963.549-1.421,1.319-1.224,2.061A1.683,1.683,0,0,0,3.172,18.9H4.615v1.59a1.5,1.5,0,0,0,1.542,1.454h.092v8.061H5.09A1.641,1.641,0,0,0,3.45,31.644v1.766H2.639A1.642,1.642,0,0,0,1,35.051v2.515a.748.748,0,0,0,.748.748H38.416a.748.748,0,0,0,.748-.748V35.051A1.642,1.642,0,0,0,37.525,33.41ZM32.3,30.005H30.2V21.944h2.1Zm-9.731,0V21.944h.092A1.5,1.5,0,0,0,24.2,20.49V18.9h2.868v1.59a1.5,1.5,0,0,0,1.54,1.454H28.7v8.061H22.569Zm-3.6,0V21.944h2.1v8.061h-2.1Zm-7.632,0V21.944h.094a1.5,1.5,0,0,0,1.54-1.454V18.9h2.868v1.59a1.5,1.5,0,0,0,1.54,1.454h.094v8.061H11.342ZM22.706,18.9v1.54a.119.119,0,0,1-.045.008H17.382a.116.116,0,0,1-.043-.008V18.9Zm11.225,1.54a.118.118,0,0,1-.043.008H28.61a.116.116,0,0,1-.043-.008V18.9h5.365Zm2.926-3.392a1.668,1.668,0,0,1,.43.331,1.376,1.376,0,0,1-.276.025H25.193a9.5,9.5,0,0,0,3.823-4.832ZM20.092,1.5A7.953,7.953,0,1,1,12.133,9.45,7.965,7.965,0,0,1,20.092,1.5ZM2.9,17.378a1.675,1.675,0,0,1,.432-.331l7.839-4.475A9.5,9.5,0,0,0,14.99,17.4H3.172a1.381,1.381,0,0,1-.275-.024Zm3.215,3.061V18.9h5.367v1.54a.118.118,0,0,1-.043.008H6.157A.121.121,0,0,1,6.112,20.439Zm1.634,1.5h2.1v8.061h-2.1ZM37.668,36.818H2.5V35.051a.145.145,0,0,1,.143-.144H16.721a.748.748,0,1,0,0-1.5H4.947V31.644A.144.144,0,0,1,5.09,31.5H35.075a.144.144,0,0,1,.143.142V33.41H23.444a.748.748,0,0,0,0,1.5H37.525a.147.147,0,0,1,.143.144v1.766Z" transform="translate(-1 0)"/><path class="b" d="M246.763,446.469a.748.748,0,1,0,0,1.5h0a.748.748,0,0,0,0-1.5Z" transform="translate(-227.68 -413.059)"/></g></g></g></svg>