<svg xmlns="http://www.w3.org/2000/svg" width="63.645" height="63.645" viewBox="0 0 63.645 63.645"><defs><style>.a{fill:#ffa034;}</style></defs><g transform="translate(-520 -2954)"><g transform="translate(520 2954)"><path class="a" d="M60.463,0H3.182A3.186,3.186,0,0,0,0,3.182V60.463a3.186,3.186,0,0,0,3.182,3.182H60.463a3.186,3.186,0,0,0,3.182-3.182V3.182A3.186,3.186,0,0,0,60.463,0Zm1.061,60.463a1.062,1.062,0,0,1-1.061,1.061H3.182a1.062,1.062,0,0,1-1.061-1.061V57.281h59.4v3.182Zm0-5.3H2.122V10.607h59.4V55.159Zm0-46.673H2.122v-5.3A1.062,1.062,0,0,1,3.182,2.122H60.463a1.062,1.062,0,0,1,1.061,1.061Z"/><circle class="a" cx="2.122" cy="2.122" r="2.122" transform="translate(4.243 3.182)"/><circle class="a" cx="2.122" cy="2.122" r="2.122" transform="translate(8.486 3.182)"/><circle class="a" cx="2.122" cy="2.122" r="2.122" transform="translate(12.729 3.182)"/><path class="a" d="M289.958,322.959a1.06,1.06,0,0,0-.624-.774l-5.722-2.452v-.816a3.076,3.076,0,0,0-2.949-3.182h-13.2a3.076,3.076,0,0,0-2.949,3.182v2.121a3.076,3.076,0,0,0,2.949,3.182h13.2a2.755,2.755,0,0,0,.765-.118l1.155,4.619a1.061,1.061,0,0,0,1.779.493l1.9-1.9,1.9,1.9a1.061,1.061,0,0,0,1.5-1.5l-1.9-1.9,1.9-1.9A1.06,1.06,0,0,0,289.958,322.959Zm-8.467-4.043v.01a1.049,1.049,0,0,0-.688.244,1.061,1.061,0,0,0-.341,1.065l.45,1.8a.64.64,0,0,1-.248.065h-13.2a.979.979,0,0,1-.827-1.061v-2.122a.979.979,0,0,1,.827-1.061h13.2A.979.979,0,0,1,281.491,318.916Zm2.7,7.472-1.149-4.594,4.02,1.723Z" transform="translate(-231.636 -276.486)"/><path class="a" d="M296.4,281.6H274.128a1.061,1.061,0,1,0,0,2.121H296.4a1.061,1.061,0,0,0,0-2.121Z" transform="translate(-239.123 -246.595)"/><path class="a" d="M318.821,247.467H299.728a1.061,1.061,0,0,0,0,2.121h19.094a1.061,1.061,0,0,0,0-2.121Z" transform="translate(-261.541 -216.705)"/><path class="a" d="M342.395,215.455h13.79a1.061,1.061,0,1,0,0-2.121h-13.79a1.061,1.061,0,1,0,0,2.121Z" transform="translate(-298.904 -186.815)"/><path class="a" d="M39.123,124.018h6.029l-1.035,3.1a1.058,1.058,0,0,0-.015.608c-1.2,1.207-2.041,5.107-2.27,6.275a1.061,1.061,0,0,0,1.041,1.265,1.091,1.091,0,0,0,.2-.02c1.169-.229,5.076-1.071,6.279-2.274l.007-.008a.857.857,0,0,0,.6,0l3.1-1.034v6.029a1.061,1.061,0,0,0,1.811.75l8.25-8.25a1.062,1.062,0,0,0,.307-.654l.716-7.869,7.228-7.229c3.682-3.681,3.327-11,3.31-11.309a1.061,1.061,0,0,0-1-1c-.312-.02-7.627-.373-11.309,3.31l-7.229,7.228-7.869.716a1.061,1.061,0,0,0-.654.307l-8.25,8.25a1.061,1.061,0,0,0,.75,1.811Zm5.154,8.786a13.452,13.452,0,0,1,1.236-3.457h0l2.221,2.221A13.473,13.473,0,0,1,44.277,132.8Zm5.633-2.06-3.573-3.573.75-2.25,5.074,5.074Zm4.214-1.786-6-6,2.251-2.25,6,6Zm7.229.271L55.185,135.4v-4.5l3.439-3.439h0l3.178-3.178Zm11.222-24.721c-.032,1.759-.326,5.451-2.027,7.871L64.7,106.533C67.119,104.838,70.815,104.542,72.575,104.508Zm-9.45,3.448,6,6L57.875,125.207l-6-6Zm-15.273,7.772,4.951-.45-3.178,3.178h0L46.184,121.9h-4.5Z" transform="translate(-33.331 -89.652)"/><path class="a" d="M232.962,178.227a1.061,1.061,0,0,0,1.5-1.5l-1.5-1.5a1.061,1.061,0,1,0-1.5,1.5Z" transform="translate(-202.417 -153.173)"/><path class="a" d="M208.824,202.366a1.061,1.061,0,0,0,1.5-1.5l-1.5-1.5a1.061,1.061,0,1,0-1.5,1.5Z" transform="translate(-181.28 -174.311)"/></g></g></svg>