<svg xmlns="http://www.w3.org/2000/svg" width="64.444" height="64.44" viewBox="0 0 64.444 64.44"><defs><style>.a{fill:#ffa034;}</style></defs><g transform="translate(-1012 -2953)"><g transform="translate(1012.001 2953)"><path class="a" d="M363.9,70.576l-3.064-3.064-3.064,3.064-1.424-1.424,4.488-4.488,4.488,4.488Zm0,0" transform="translate(-311.493 -56.526)"/><path class="a" d="M384,79.977h2.014V91.053H384Zm0,0" transform="translate(-335.669 -69.911)"/><path class="a" d="M54.373,34.232H52.359V29.9a15.1,15.1,0,1,0-6.042,0v4.33H44.3V62.426H40.276V30.2H30.207V62.426H26.179V38.26H16.11V62.426H12.082v-14.1H2.013v14.1H0V64.44H64.442V62.426H54.373Zm-44.3,28.194H4.027V50.343h6.042Zm14.1,0H18.124V40.274h6.042Zm14.1,0H32.221V32.218h6.042ZM36.248,15.1a13.09,13.09,0,1,1,14.96,12.956l-.863.124v6.052H48.331V28.18l-.863-.124A13.152,13.152,0,0,1,36.248,15.1ZM52.359,62.426H46.318V36.246h6.042Zm0,0" transform="translate(0 0)"/><path class="a" d="M326.152,43.053a11.076,11.076,0,1,0-11.076,11.076,11.076,11.076,0,0,0,11.076-11.076Zm-20.138,0a9.062,9.062,0,1,1,9.062,9.062,9.062,9.062,0,0,1-9.062-9.062Zm0,0" transform="translate(-265.738 -27.952)"/><path class="a" d="M16.734,188.06h7.072l8.645-8.645v2.6h2.014v-6.042H28.423v2.014h2.6l-8.055,8.055H15.946L2.566,198.4l1.368,1.478Zm0,0" transform="translate(-2.244 -153.828)"/><path class="a" d="M464,271.977h6.042v2.014H464Zm0,0" transform="translate(-405.599 -237.745)"/><path class="a" d="M464,303.977h6.042v2.014H464Zm0,0" transform="translate(-405.599 -265.717)"/><path class="a" d="M464,335.977h6.042v2.014H464Zm0,0" transform="translate(-405.599 -293.69)"/><path class="a" d="M464,367.977h6.042v2.014H464Zm0,0" transform="translate(-405.599 -321.662)"/><path class="a" d="M464,399.977h6.042v2.014H464Zm0,0" transform="translate(-405.599 -349.634)"/><path class="a" d="M464,431.977h6.042v2.014H464Zm0,0" transform="translate(-405.599 -377.606)"/><path class="a" d="M464,463.977h6.042v2.014H464Zm0,0" transform="translate(-405.599 -405.579)"/></g></g></svg>