<svg xmlns="http://www.w3.org/2000/svg" width="57.505" height="69.441" viewBox="0 0 57.505 69.441"><defs><style>.a{fill:#ffa034;}</style></defs><g transform="translate(-286 -2948)"><g transform="translate(241.999 2948)"><g transform="translate(71.397 20.615)"><path class="a" d="M266.888,152h-19.53a1.356,1.356,0,0,0,0,2.713h19.53a1.356,1.356,0,0,0,0-2.713Z" transform="translate(-246.001 -152)"/></g><g transform="translate(85.223 27.125)"><path class="a" d="M350.256,200.4a1.356,1.356,0,1,0,.4.959A1.367,1.367,0,0,0,350.256,200.4Z" transform="translate(-347.941 -200.001)"/></g><g transform="translate(71.396 5.832)"><g transform="translate(0)"><path class="a" d="M248.306,43.4a1.356,1.356,0,1,0,.4.959A1.366,1.366,0,0,0,248.306,43.4Z" transform="translate(-245.991 -43.001)"/></g></g><g transform="translate(71.397 27.125)"><path class="a" d="M255.478,200h-8.121a1.356,1.356,0,0,0,0,2.713h8.121a1.356,1.356,0,0,0,0-2.713Z" transform="translate(-246.001 -200)"/></g><g transform="translate(71.397 35.263)"><path class="a" d="M266.888,260h-19.53a1.356,1.356,0,0,0,0,2.713h19.53a1.356,1.356,0,1,0,0-2.713Z" transform="translate(-246.001 -260)"/></g><g transform="translate(85.223 41.773)"><path class="a" d="M350.256,308.4a1.356,1.356,0,1,0,.4.959A1.367,1.367,0,0,0,350.256,308.4Z" transform="translate(-347.941 -308.001)"/></g><g transform="translate(71.397 41.773)"><path class="a" d="M255.478,308h-8.121a1.356,1.356,0,1,0,0,2.713h8.121a1.356,1.356,0,1,0,0-2.713Z" transform="translate(-246.001 -308)"/></g><g transform="translate(71.397 49.91)"><path class="a" d="M266.888,368h-19.53a1.356,1.356,0,1,0,0,2.713h19.53a1.356,1.356,0,0,0,0-2.713Z" transform="translate(-246.001 -368)"/></g><g transform="translate(85.223 56.421)"><path class="a" d="M350.256,416.4a1.356,1.356,0,1,0,.4.959A1.367,1.367,0,0,0,350.256,416.4Z" transform="translate(-347.941 -416.001)"/></g><g transform="translate(71.397 56.42)"><path class="a" d="M255.478,416h-8.121a1.356,1.356,0,1,0,0,2.713h8.121a1.356,1.356,0,1,0,0-2.713Z" transform="translate(-246.001 -416)"/></g><g transform="translate(44.001)"><path class="a" d="M94.894,5.29H84.535a8.31,8.31,0,0,0-5.749-2.306H77.6a5.425,5.425,0,0,0-9.689,0H66.718A8.309,8.309,0,0,0,60.97,5.29H50.614A6.62,6.62,0,0,0,44,11.9V62.828a6.62,6.62,0,0,0,6.613,6.613h44.28a6.62,6.62,0,0,0,6.613-6.613V11.9A6.62,6.62,0,0,0,94.894,5.29ZM66.718,5.7h2.114a1.356,1.356,0,0,0,1.307-1,2.713,2.713,0,0,1,5.228,0,1.356,1.356,0,0,0,1.307,1h2.111a5.636,5.636,0,0,1,5.609,5.154H61.11A5.636,5.636,0,0,1,66.718,5.7ZM98.794,62.828a3.9,3.9,0,0,1-3.9,3.9H50.614a3.9,3.9,0,0,1-3.9-3.9V11.9a3.9,3.9,0,0,1,3.9-3.9H59.07a8.292,8.292,0,0,0-.692,3.323v.882a1.356,1.356,0,0,0,1.356,1.356H85.771a1.356,1.356,0,0,0,1.356-1.356v-.882A8.292,8.292,0,0,0,86.435,8h8.459a3.9,3.9,0,0,1,3.9,3.9Z" transform="translate(-44.001)"/></g><g transform="translate(52.309 19.892)"><g transform="translate(0)"><path class="a" d="M117.081,147.064a1.356,1.356,0,0,0-1.918,0l-5.8,5.8-1.787-1.787A1.356,1.356,0,0,0,105.658,153l2.746,2.746a1.356,1.356,0,0,0,1.918,0l6.759-6.759A1.356,1.356,0,0,0,117.081,147.064Z" transform="translate(-105.261 -146.667)"/></g></g><g transform="translate(52.952 49.91)"><path class="a" d="M117.867,368h-6.51A1.356,1.356,0,0,0,110,369.356v6.51a1.356,1.356,0,0,0,1.356,1.356h6.51a1.356,1.356,0,0,0,1.356-1.356v-6.51A1.356,1.356,0,0,0,117.867,368Zm-1.356,6.51h-3.8v-3.8h3.8Z" transform="translate(-110.001 -368)"/></g><g transform="translate(52.952 35.263)"><path class="a" d="M117.867,260h-6.51A1.356,1.356,0,0,0,110,261.356v6.51a1.356,1.356,0,0,0,1.356,1.356h6.51a1.356,1.356,0,0,0,1.356-1.356v-6.51A1.356,1.356,0,0,0,117.867,260Zm-1.356,6.51h-3.8v-3.8h3.8Z" transform="translate(-110.001 -260)"/></g></g></g></svg>