<svg xmlns="http://www.w3.org/2000/svg" xmlns:xlink="http://www.w3.org/1999/xlink" width="158" height="158" viewBox="0 0 158 158"><defs><style>.a{opacity:0.8;fill:url(#a);}.b{fill:#fff;}.c{filter:url(#b);}</style><linearGradient id="a" x1="0.5" x2="0.5" y2="1" gradientUnits="objectBoundingBox"><stop offset="0" stop-color="#ff9402"/><stop offset="1" stop-color="#ff6802"/></linearGradient><filter id="b" x="0" y="0" width="158" height="158" filterUnits="userSpaceOnUse"><feOffset dy="21" input="SourceAlpha"/><feGaussianBlur stdDeviation="11" result="c"/><feFlood flood-color="#ff8100" flood-opacity="0.231"/><feComposite operator="in" in2="c"/><feComposite in="SourceGraphic"/></filter></defs><g transform="translate(-395 -1377)"><g class="c" transform="matrix(1, 0, 0, 1, 395, 1377)"><circle class="a" cx="46" cy="46" r="46" transform="translate(33 12)"/></g><g transform="translate(454 1415)"><g transform="translate(0 15.738)"><path class="b" d="M40.107,212.639a.8.8,0,0,0,.8-.8v-1.4a5.472,5.472,0,0,0-3.014-4.883,4.276,4.276,0,0,0,1.52-3.27v-1a4.284,4.284,0,0,0-8.568,0v1a4.268,4.268,0,0,0,1.174,2.942,10.52,10.52,0,0,0-3.919,1.777l-7.235,5.278a2.924,2.924,0,0,0-.411.365,2.928,2.928,0,0,0-.411-.365l-7.235-5.278a10.52,10.52,0,0,0-3.919-1.777,4.268,4.268,0,0,0,1.174-2.942v-1a4.284,4.284,0,1,0-8.568,0v1a4.276,4.276,0,0,0,1.52,3.27A5.471,5.471,0,0,0,0,210.444v10.933a.8.8,0,0,0,.8.8h9.958a.8.8,0,0,0,.8-.8V214.04l5.227,3.152a2.914,2.914,0,0,0,2.971.042,2.992,2.992,0,0,0,.7-.546,2.988,2.988,0,0,0,.7.546,2.913,2.913,0,0,0,2.971-.042l5.227-3.152v7.336a.8.8,0,0,0,.8.8h9.958a.8.8,0,0,0,.8-.8V218.49a.8.8,0,1,0-1.6,0v2.088h-8.36V213.2a.811.811,0,0,0-.01-.121l.868-.524a.8.8,0,1,0-.825-1.368L23.3,215.824a1.349,1.349,0,0,1-2.046-1.156,1.354,1.354,0,0,1,.554-1.09l7.235-5.278a8.923,8.923,0,0,1,5.292-1.725h1.106a3.873,3.873,0,0,1,3.869,3.869v1.4A.8.8,0,0,0,40.107,212.639ZM3.092,201.3a2.686,2.686,0,0,1,5.372,0v1a2.686,2.686,0,0,1-5.372,0Zm15.877,14.548a1.334,1.334,0,0,1-1.36-.019l-7.684-4.633a.8.8,0,1,0-.825,1.368l.867.523a.808.808,0,0,0-.009.122v7.373H1.6V210.444a3.873,3.873,0,0,1,3.869-3.869H6.573a8.922,8.922,0,0,1,5.292,1.725l7.235,5.278a1.354,1.354,0,0,1,.554,1.09A1.334,1.334,0,0,1,18.968,215.843Zm18.846-13.552a2.686,2.686,0,0,1-5.372,0v-1a2.686,2.686,0,0,1,5.372,0Z" transform="translate(0 -197.011)"/></g><g transform="translate(39.308 32.996)"><path class="b" d="M493.364,413.253a.8.8,0,1,0,.234.565A.8.8,0,0,0,493.364,413.253Z" transform="translate(-492 -413.02)"/></g><g transform="translate(8.568 0)"><g transform="translate(0 0)"><path class="b" d="M131.671.022h-2.637a.8.8,0,1,0,0,1.6h.708l-9.336,9.337-6.11-6.11a.8.8,0,0,0-1.13,0l-5.693,5.693a.8.8,0,0,0,1.13,1.13l5.128-5.128,6.11,6.11a.8.8,0,0,0,1.13,0l9.9-9.9v.708a.8.8,0,1,0,1.6,0V.821A.8.8,0,0,0,131.671.022Z" transform="translate(-107.239 -0.022)"/></g></g><g transform="translate(6.551 12.3)"><path class="b" d="M83.364,154.215a.8.8,0,1,0,.234.565A.8.8,0,0,0,83.364,154.215Z" transform="translate(-82 -153.981)"/></g></g></g></svg>