<svg xmlns="http://www.w3.org/2000/svg" xmlns:xlink="http://www.w3.org/1999/xlink" width="501.421" height="374.335" viewBox="0 0 501.421 374.335"><defs><style>.a{fill:none;}.b{clip-path:url(#a);}.c{fill:url(#b);}.d{fill:#ff9925;opacity:0.8;}.e{fill:#fafafa;}.f{fill:#7048a3;}.g{fill:#dce6ff;}.h{fill:url(#e);}.i,.u{opacity:0.2;}.j{fill:url(#g);}.k,.n{opacity:0.1;}.l{fill:#ffb227;}.m{opacity:0.3;}.o{fill:#fff;}.p,.q{fill:#ff58d5;}.q{font-size:2px;font-family:Montserrat-Medium, Montserrat;font-weight:500;}.r{fill:#002b66;}.s,.t{fill:#005898;}.t{mix-blend-mode:screen;isolation:isolate;}.v{filter:url(#c);}</style><clipPath id="a"><rect class="a" width="501.421" height="374.335"/></clipPath><linearGradient id="b" x1="0.5" x2="0.5" y2="1.034" gradientUnits="objectBoundingBox"><stop offset="0" stop-color="#ff9929"/><stop offset="0.118" stop-color="#ff8d21"/><stop offset="0.466" stop-color="#ff720f"/><stop offset="0.772" stop-color="#ff6103"/><stop offset="1" stop-color="#ff5b00"/></linearGradient><filter id="c" x="45.41" y="71.149" width="599" height="325" filterUnits="userSpaceOnUse"><feOffset dy="5" input="SourceAlpha"/><feGaussianBlur stdDeviation="10" result="d"/><feFlood flood-opacity="0.161"/><feComposite operator="in" in2="d"/><feComposite in="SourceGraphic"/></filter><linearGradient id="e" y1="0.5" x2="1" y2="0.5" gradientUnits="objectBoundingBox"><stop offset="0" stop-color="#484ba3"/><stop offset="1" stop-color="#6468cc"/></linearGradient><linearGradient id="g" x1="0.5" y1="1" x2="0.5" y2="0" xlink:href="#e"/></defs><g transform="translate(-700.59 -1797.851)"><g class="b" transform="translate(700.59 1797.851)"><path class="c" d="M0,0H501.421V670.233H0Z" transform="translate(0 -4.836)"/><circle class="d" cx="155.017" cy="155.017" r="155.017" transform="translate(-57.619 -26.919)"/><circle class="d" cx="130.174" cy="130.174" r="130.174" transform="translate(122.242 180.866)"/><g transform="translate(-8569.876 -2203.542)"><g transform="translate(8645.286 2299.69)"><g class="v" transform="matrix(1, 0, 0, 1, -75.41, -96.15)"><rect class="e" width="539" height="265" transform="translate(75.41 96.15)"/></g></g><g transform="translate(8721.952 2326.18)"><g transform="translate(0 0)"><g transform="translate(6.638)"><g transform="translate(3.274)"><g transform="translate(9.626 199.732)"><path class="f" d="M81.968,399.721a.824.824,0,0,1-.823-.823.749.749,0,0,1,.016-.159c.011-.054.027-.1.044-.159a1.11,1.11,0,0,1,.077-.137.793.793,0,0,1,.1-.126.833.833,0,0,1,.126-.1.921.921,0,0,1,.143-.076,1.149,1.149,0,0,1,.154-.044.776.776,0,0,1,.318,0,1.15,1.15,0,0,1,.154.044,1.266,1.266,0,0,1,.143.076,1.232,1.232,0,0,1,.126.1.793.793,0,0,1,.1.126.654.654,0,0,1,.071.137.916.916,0,0,1,.049.159.75.75,0,0,1,.016.159.821.821,0,0,1-.241.581A.831.831,0,0,1,81.968,399.721Z" transform="translate(-81.145 -398.076)"/></g><path class="f" d="M256.789,246.832a.738.738,0,0,1,.3-1.05h0a.857.857,0,0,1,1.124.287h0a.739.739,0,0,1-.307,1.045h0a.83.83,0,0,1-.406.1h0A.83.83,0,0,1,256.789,246.832ZM72.433,244.85h0a.74.74,0,0,1,.214-1.071h0a.865.865,0,0,1,1.146.2h0a.74.74,0,0,1-.219,1.065h0a.836.836,0,0,1-.461.134h0A.846.846,0,0,1,72.433,244.85Zm188.134-.123a.735.735,0,0,1,.247-1.06h0a.854.854,0,0,1,1.135.231h0a.736.736,0,0,1-.246,1.06h0a.866.866,0,0,1-.444.123h0A.834.834,0,0,1,260.568,244.727Zm3.658-2.284a.736.736,0,0,1,.181-1.075h0a.863.863,0,0,1,1.151.174h0a.736.736,0,0,1-.186,1.07h0a.852.852,0,0,1-.482.149h0A.842.842,0,0,1,264.226,242.443ZM70.119,241.25a.744.744,0,0,1,.346-1.034h0a.849.849,0,0,1,1.114.322h0a.744.744,0,0,1-.346,1.035h0a.84.84,0,0,1-.384.087h0A.833.833,0,0,1,70.119,241.25Zm197.627-1.27a.733.733,0,0,1,.127-1.081h0a.861.861,0,0,1,1.157.118h0a.728.728,0,0,1-.126,1.076h0a.842.842,0,0,1-.516.174h0A.865.865,0,0,1,267.746,239.98Zm-199.492-2.54h0a.756.756,0,0,1,.466-1h0a.841.841,0,0,1,1.064.435h0a.749.749,0,0,1-.466.994h0a.869.869,0,0,1-.3.056h0A.825.825,0,0,1,68.255,237.439Zm202.876-.093a.728.728,0,0,1,.066-1.08h0a.86.86,0,0,1,1.163.061h0a.729.729,0,0,1-.066,1.08h0a.839.839,0,0,1-.549.195h0A.835.835,0,0,1,271.13,237.346Zm3.236-2.786a.733.733,0,0,1,.005-1.086h0a.864.864,0,0,1,1.163.005h0a.74.74,0,0,1-.005,1.091h0v-.005h0a.849.849,0,0,1-.582.225h0A.839.839,0,0,1,274.366,234.561Zm-207.527-1.1a.761.761,0,0,1,.576-.942h0a.834.834,0,0,1,1.015.537h0a.769.769,0,0,1-.576.943h0a.838.838,0,0,1-.219.031h0A.823.823,0,0,1,66.839,233.459Zm210.609-1.833a.73.73,0,0,1-.055-1.086h0a.865.865,0,0,1,1.162-.046h0a.734.734,0,0,1,.055,1.086h0a.857.857,0,0,1-.609.246h0A.848.848,0,0,1,277.448,231.626ZM65.88,229.368h.005a.771.771,0,0,1,.675-.882h0a.821.821,0,0,1,.948.63h0a.782.782,0,0,1-.68.886h0a1.138,1.138,0,0,1-.137.01h0A.813.813,0,0,1,65.88,229.368Zm214.485-.815a.738.738,0,0,1-.109-1.086h0a.865.865,0,0,1,1.157-.1h0a.731.731,0,0,1,.11,1.081h0a.83.83,0,0,1-.631.277h0A.863.863,0,0,1,280.365,228.552ZM65.386,225.2a.788.788,0,0,1,.773-.809h0a.8.8,0,0,1,.866.722h0a.786.786,0,0,1-.767.809h-.049A.8.8,0,0,1,65.386,225.2Zm217.733.144a.736.736,0,0,1-.165-1.076h0a.863.863,0,0,1,1.151-.159h0a.736.736,0,0,1,.165,1.076h0a.829.829,0,0,1-.658.312h0A.869.869,0,0,1,283.119,225.347Zm2.583-3.329a.737.737,0,0,1-.225-1.066h0a.866.866,0,0,1,1.146-.21h0a.739.739,0,0,1,.219,1.066h0a.834.834,0,0,1-.68.338h0A.876.876,0,0,1,285.7,222.017Zm-219.564-.2a.79.79,0,0,1-.784-.8h0a.8.8,0,0,1,.856-.732h0a.783.783,0,0,1,.784.8h0a.793.793,0,0,1-.817.733h-.038ZM288.1,218.571a.739.739,0,0,1-.28-1.055h0a.86.86,0,0,1,1.129-.261h0a.739.739,0,0,1,.28,1.055h0a.835.835,0,0,1-.707.375h0A.845.845,0,0,1,288.1,218.571Zm-221.621-.85a.779.779,0,0,1-.691-.876h0a.813.813,0,0,1,.937-.64h0a.779.779,0,0,1,.691.875h0a.813.813,0,0,1-.811.651h0A.5.5,0,0,1,66.483,217.72Zm223.836-2.7a.742.742,0,0,1-.335-1.039h0a.853.853,0,0,1,1.118-.313h0a.74.74,0,0,1,.33,1.039h0a.845.845,0,0,1-.729.4h0A.883.883,0,0,1,290.32,215.021ZM67.295,213.684a.762.762,0,0,1-.576-.943h0a.835.835,0,0,1,1.009-.543h0a.765.765,0,0,1,.581.943h0a.814.814,0,0,1-.8.569h0A1.1,1.1,0,0,1,67.295,213.684Zm225.049-2.31a.754.754,0,0,1-.389-1.024h0a.853.853,0,0,1,1.1-.369h0a.747.747,0,0,1,.389,1.025h0v0h0a.819.819,0,0,1-.741.436h0A.951.951,0,0,1,292.343,211.374ZM68.589,209.756a.751.751,0,0,1-.461-1h0a.845.845,0,0,1,1.069-.43h0a.757.757,0,0,1,.461,1h0a.831.831,0,0,1-.768.487h0A.91.91,0,0,1,68.589,209.756Zm225.586-2.126a.748.748,0,0,1-.445-1h0a.849.849,0,0,1,1.075-.416h0a.758.758,0,0,1,.444,1h0a.829.829,0,0,1-.762.476h0A.821.821,0,0,1,294.175,207.63ZM70.36,206a.747.747,0,0,1-.329-1.045h0a.846.846,0,0,1,1.114-.307h0a.743.743,0,0,1,.335,1.04h0a.84.84,0,0,1-.73.4h0A.886.886,0,0,1,70.36,206Zm225.433-2.186a.757.757,0,0,1-.5-.979h0a.842.842,0,0,1,1.053-.466h0a.752.752,0,0,1,.5.979h0a.822.822,0,0,1-.773.512h0A.908.908,0,0,1,295.793,203.81ZM72.57,202.442a.741.741,0,0,1-.225-1.065h0a.852.852,0,0,1,1.141-.21h0a.737.737,0,0,1,.23,1.065h0a.853.853,0,0,1-.686.338h0A.88.88,0,0,1,72.57,202.442ZM297.2,199.917a.76.76,0,0,1-.549-.958h0a.827.827,0,0,1,1.02-.512h0a.754.754,0,0,1,.554.952h0a.816.816,0,0,1-.79.548h0A.992.992,0,0,1,297.2,199.917Zm-222.1-.836a.738.738,0,0,1-.143-1.08h0a.86.86,0,0,1,1.152-.133h0a.729.729,0,0,1,.148,1.075h0a.841.841,0,0,1-.653.3h0A.88.88,0,0,1,75.1,199.082Zm2.759-3.206a.73.73,0,0,1-.093-1.08h0a.858.858,0,0,1,1.157-.088h0a.731.731,0,0,1,.093,1.081h0a.85.85,0,0,1-.625.272h0A.845.845,0,0,1,77.863,195.876Zm220.529.087a.77.77,0,0,1-.6-.932h0a.825.825,0,0,1,.992-.564h0a.768.768,0,0,1,.609.927h0a.82.82,0,0,1-.8.589h0A1.3,1.3,0,0,1,298.392,195.963Zm-217.65-3.191a.738.738,0,0,1-.066-1.086h0a.865.865,0,0,1,1.163-.061h0a.729.729,0,0,1,.066,1.081h0a.835.835,0,0,1-.614.261h0A.882.882,0,0,1,80.742,192.772Zm218.621-.82a.778.778,0,0,1-.663-.9h0a.818.818,0,0,1,.959-.614h0a.766.766,0,0,1,.658.9h0v-.005h0a.8.8,0,0,1-.806.63h0A1.3,1.3,0,0,1,299.363,191.952ZM83.676,189.7a.735.735,0,0,1-.071-1.086h0a.865.865,0,0,1,1.162-.067h0a.735.735,0,0,1,.071,1.086h0a.827.827,0,0,1-.614.261h0A.859.859,0,0,1,83.676,189.7ZM300.092,187.9a.775.775,0,0,1-.707-.86h0a.809.809,0,0,1,.921-.661h0a.776.776,0,0,1,.708.86h0a.8.8,0,0,1-.812.666h0A.784.784,0,0,1,300.092,187.9ZM86.577,186.611a.731.731,0,0,1-.1-1.081h0a.86.86,0,0,1,1.162-.092h0a.735.735,0,0,1,.1,1.081h0a.85.85,0,0,1-.63.271h0A.836.836,0,0,1,86.577,186.611Zm214.009-2.8a.78.78,0,0,1-.757-.825h0a.8.8,0,0,1,.878-.707h0a.79.79,0,0,1,.762.825h0a.8.8,0,0,1-.817.707h-.066Zm-211.228-.389a.734.734,0,0,1-.159-1.076h0a.859.859,0,0,1,1.151-.149h0a.734.734,0,0,1,.159,1.076h0a.839.839,0,0,1-.658.307h0A.841.841,0,0,1,89.358,183.425Zm2.567-3.34a.737.737,0,0,1-.247-1.06h0a.853.853,0,0,1,1.135-.231h0a.733.733,0,0,1,.247,1.06h0a.827.827,0,0,1-.691.354h0A.864.864,0,0,1,91.924,180.085Zm208.919-.373a.8.8,0,0,1-.806-.789h0a.8.8,0,0,1,.839-.747h0a.792.792,0,0,1,.806.783h0a.8.8,0,0,1-.823.753h-.016ZM94.2,176.567a.743.743,0,0,1-.357-1.035h0a.863.863,0,0,1,1.114-.333h0a.753.753,0,0,1,.351,1.04h0a.838.838,0,0,1-.73.415h0A.818.818,0,0,1,94.2,176.567Zm205.815-1.711h0a.8.8,0,0,1,.8-.793h0a.807.807,0,0,1,.85.748h0a.787.787,0,0,1-.795.788h-.028A.8.8,0,0,1,300.016,174.856Zm-203.929-2a.754.754,0,0,1-.483-.988h0a.847.847,0,0,1,1.064-.451h0a.761.761,0,0,1,.477.993h0a.829.829,0,0,1-.773.5h0A.8.8,0,0,1,96.087,172.853Zm203.683-2.063a.781.781,0,0,1,.75-.825h0a.807.807,0,0,1,.889.7h0a.789.789,0,0,1-.751.829h-.071A.8.8,0,0,1,299.769,170.79ZM97.458,168.951a.769.769,0,0,1-.625-.916h0a.816.816,0,0,1,.976-.584h0a.769.769,0,0,1,.63.911h0a.815.815,0,0,1-.806.6h0A1.059,1.059,0,0,1,97.458,168.951ZM299.3,166.743a.775.775,0,0,1,.7-.861h0a.815.815,0,0,1,.927.656h0a.784.784,0,0,1-.708.866h0a.745.745,0,0,1-.11.005h0A.8.8,0,0,1,299.3,166.743ZM98.17,164.9a.8.8,0,0,1-.79-.8h0a.81.81,0,0,1,.856-.738h0a.788.788,0,0,1,.79.8h0a.8.8,0,0,1-.823.738H98.17Zm200.436-2.172a.767.767,0,0,1,.652-.9h0a.814.814,0,0,1,.96.61h0a.773.773,0,0,1-.658.9h0a1.288,1.288,0,0,1-.148.01h0A.8.8,0,0,1,298.606,162.728ZM97.151,160.152a.775.775,0,0,1,.685-.876h0a.82.82,0,0,1,.943.64h-.005a.771.771,0,0,1-.686.875h0a.945.945,0,0,1-.126.01h0A.8.8,0,0,1,97.151,160.152ZM297.7,158.743a.768.768,0,0,1,.608-.927h0a.83.83,0,0,1,.993.569h0a.77.77,0,0,1-.609.927h0a.848.848,0,0,1-.191.02h0A.816.816,0,0,1,297.7,158.743ZM96.13,156.3a.753.753,0,0,1,.51-.973h0a.842.842,0,0,1,1.047.476h0a.763.763,0,0,1-.515.978h0a.939.939,0,0,1-.263.041h0A.821.821,0,0,1,96.13,156.3Zm200.446-1.49h0a.764.764,0,0,1,.56-.953h0a.827.827,0,0,1,1.02.517h0v.005h0a.764.764,0,0,1-.56.953h0a.89.89,0,0,1-.23.031h0A.821.821,0,0,1,296.577,154.809ZM94.442,152.628a.744.744,0,0,1,.357-1.035h0a.856.856,0,0,1,1.107.338h0a.738.738,0,0,1-.357,1.03h0a.812.812,0,0,1-.373.087h0A.834.834,0,0,1,94.442,152.628Zm200.808-1.7a.761.761,0,0,1,.51-.978h0a.842.842,0,0,1,1.047.476h0a.761.761,0,0,1-.51.979h0a1,1,0,0,1-.269.04h0A.827.827,0,0,1,295.25,150.927ZM92.264,149.15a.738.738,0,0,1,.241-1.06h0a.854.854,0,0,1,1.141.225h0a.738.738,0,0,1-.241,1.06h0a.837.837,0,0,1-.45.123h0A.842.842,0,0,1,92.264,149.15Zm201.46-2.038a.752.752,0,0,1,.455-1h0a.846.846,0,0,1,1.07.425h0a.755.755,0,0,1-.455,1h0a.9.9,0,0,1-.307.056h0A.818.818,0,0,1,293.725,147.111Zm-203.951-1.29a.73.73,0,0,1,.165-1.071h0a.855.855,0,0,1,1.151.159h0a.726.726,0,0,1-.17,1.071h0a.844.844,0,0,1-.488.154h0A.828.828,0,0,1,89.774,145.821ZM292,143.378a.745.745,0,0,1,.4-1.019h0a.848.848,0,0,1,1.092.374h0a.748.748,0,0,1-.4,1.019h0a.918.918,0,0,1-.346.072h0A.83.83,0,0,1,292,143.378Zm-204.9-.789v-.005h0a.733.733,0,0,1,.138-1.076h0a.853.853,0,0,1,1.151.124h0a.733.733,0,0,1-.132,1.08h0a.86.86,0,0,1-.51.164h0A.848.848,0,0,1,87.1,142.589Zm202.975-2.868a.74.74,0,0,1,.345-1.034h0a.847.847,0,0,1,1.108.323h0a.747.747,0,0,1-.345,1.039h0a.908.908,0,0,1-.379.087h0A.831.831,0,0,1,290.073,139.721Zm-205.711-.359h0a.732.732,0,0,1,.137-1.075h0a.859.859,0,0,1,1.151.128h0a.727.727,0,0,1-.132,1.075h0a.866.866,0,0,1-.51.169h0A.847.847,0,0,1,84.362,139.362Zm203.594-3.2a.736.736,0,0,1,.29-1.05h0a.851.851,0,0,1,1.125.272h0a.736.736,0,0,1-.291,1.05h0a.862.862,0,0,1-.416.108h0A.828.828,0,0,1,287.956,136.161Zm-206.287-.082A.737.737,0,0,1,81.844,135h0a.862.862,0,0,1,1.152.164h0a.737.737,0,0,1-.176,1.076h0a.851.851,0,0,1-.488.149h0A.839.839,0,0,1,81.669,136.079ZM285.653,132.7a.73.73,0,0,1,.23-1.06h0a.857.857,0,0,1,1.14.215h0a.733.733,0,0,1-.236,1.065h0a.842.842,0,0,1-.449.128h0A.825.825,0,0,1,285.653,132.7Zm-206.512-.051a.735.735,0,0,1,.252-1.06h0a.853.853,0,0,1,1.135.236h0a.736.736,0,0,1-.252,1.06h0a.852.852,0,0,1-.438.118h0A.838.838,0,0,1,79.141,132.653Zm204.022-3.288a.737.737,0,0,1,.175-1.076h0a.861.861,0,0,1,1.146.164h0a.736.736,0,0,1-.176,1.075h0a.834.834,0,0,1-.483.149h0A.832.832,0,0,1,283.163,129.365Zm-206.255-.328a.749.749,0,0,1,.351-1.04h0a.854.854,0,0,1,1.108.328h0a.747.747,0,0,1-.351,1.035h0a.841.841,0,0,1-.378.087h0A.828.828,0,0,1,76.908,129.037Zm203.584-2.889a.732.732,0,0,1,.115-1.081h0a.86.86,0,0,1,1.157.108h0a.732.732,0,0,1-.115,1.081h0a.859.859,0,0,1-.521.174h0A.852.852,0,0,1,280.492,126.148Zm-205.481-.891a.752.752,0,0,1,.444-1.009h0a.842.842,0,0,1,1.075.414h0a.749.749,0,0,1-.444,1h0a.828.828,0,0,1-.313.061h0A.832.832,0,0,1,75.011,125.257Zm202.634-2.192h0a.734.734,0,0,1,.055-1.086h0a.865.865,0,0,1,1.163.051h0a.734.734,0,0,1-.055,1.085h0a.86.86,0,0,1-.554.2h0A.841.841,0,0,1,277.645,123.065ZM73.465,121.339a.756.756,0,0,1,.527-.968h0a.837.837,0,0,1,1.036.5h0a.762.762,0,0,1-.532.968h0a.837.837,0,0,1-.252.036h0A.811.811,0,0,1,73.465,121.339Zm201.165-1.208a.733.733,0,0,1-.005-1.086h0a.864.864,0,0,1,1.162-.01h0a.729.729,0,0,1,.005,1.086h0a.84.84,0,0,1-.581.23h0A.842.842,0,0,1,274.629,120.13ZM72.263,117.318a.768.768,0,0,1,.614-.922h0a.823.823,0,0,1,.987.573h0a.767.767,0,0,1-.614.922h0a.771.771,0,0,1-.187.02h0A.809.809,0,0,1,72.263,117.318Zm199.185.031a.735.735,0,0,1-.071-1.086h0a.866.866,0,0,1,1.163-.067h0a.735.735,0,0,1,.071,1.086h0a.844.844,0,0,1-.614.261h0A.873.873,0,0,1,271.448,117.349Zm-3.323-2.664a.73.73,0,0,1-.1-1.08h0a.859.859,0,0,1,1.157-.092h0a.731.731,0,0,1,.1,1.081h0a.856.856,0,0,1-.631.277h0A.837.837,0,0,1,268.125,114.685Zm-196.7-1.465a.77.77,0,0,1,.691-.87h0a.821.821,0,0,1,.937.645h0a.779.779,0,0,1-.7.871h0a.479.479,0,0,1-.121.01h0A.8.8,0,0,1,71.425,113.22Zm193.328-1.188h-.005a.736.736,0,0,1-.088-1.086h0a.865.865,0,0,1,1.162-.082h0a.736.736,0,0,1,.088,1.086h0a.862.862,0,0,1-.625.266h0A.845.845,0,0,1,264.752,112.033Zm-193.805-2.96h0a.781.781,0,0,1,.768-.815h0a.8.8,0,0,1,.872.717h0a.788.788,0,0,1-.767.815h-.055A.8.8,0,0,1,70.947,109.072Zm190.487.2a.734.734,0,0,1-.033-1.086h0a.869.869,0,0,1,1.162-.036h0a.739.739,0,0,1,.033,1.091h0a.848.848,0,0,1-.6.241h0A.863.863,0,0,1,261.434,109.272ZM258.3,106.3a.734.734,0,0,1,.061-1.086h0a.865.865,0,0,1,1.162.061h0a.734.734,0,0,1-.06,1.086h0a.882.882,0,0,1-.549.195h0A.84.84,0,0,1,258.3,106.3Zm-186.653-.614a.8.8,0,0,1-.812-.779h0a.806.806,0,0,1,.839-.758h0a.793.793,0,0,1,.806.784h0a.794.794,0,0,1-.822.753h-.011Zm183.862-2.689h0a.732.732,0,0,1,.219-1.066h0a.858.858,0,0,1,1.141.2h0a.742.742,0,0,1-.219,1.071h0a.876.876,0,0,1-.461.133h0A.834.834,0,0,1,255.512,102.993ZM71.846,101.579a.785.785,0,0,1-.734-.845h0a.816.816,0,0,1,.9-.686h0a.783.783,0,0,1,.73.845h0a.806.806,0,0,1-.817.692h0C71.9,101.584,71.874,101.579,71.846,101.579ZM253.3,99.289h0a.753.753,0,0,1,.422-1.014h0a.849.849,0,0,1,1.086.394h0a.751.751,0,0,1-.423,1.014h0a.837.837,0,0,1-.329.067h0A.836.836,0,0,1,253.3,99.289ZM72.422,97.5a.769.769,0,0,1-.641-.907h0a.825.825,0,0,1,.97-.6h0a.776.776,0,0,1,.642.907h0a.814.814,0,0,1-.806.615h0A.9.9,0,0,1,72.422,97.5Zm67.1-2.2a.791.791,0,0,1,.784-.8h0a.8.8,0,0,1,.856.733h0a.791.791,0,0,1-.784.8h-.033A.8.8,0,0,1,139.521,95.3Zm112.392-.082h0a.78.78,0,0,1,.648-.907h0a.831.831,0,0,1,.97.6h0a.773.773,0,0,1-.647.9h0a.892.892,0,0,1-.164.015h0A.816.816,0,0,1,251.913,95.223ZM135.83,95.8a.779.779,0,0,1-.685-.881h0a.815.815,0,0,1,.938-.64h0a.779.779,0,0,1,.686.876h0a.809.809,0,0,1-.812.65h0A1.179,1.179,0,0,1,135.83,95.8Zm8.057-.958a.761.761,0,0,1,.592-.932h0a.828.828,0,0,1,1,.553h0a.765.765,0,0,1-.592.932h0a.966.966,0,0,1-.208.026h0A.815.815,0,0,1,143.887,94.844ZM131.426,94.8a.758.758,0,0,1-.521-.968h0a.83.83,0,0,1,1.037-.491h0a.761.761,0,0,1,.527.968h0a.823.823,0,0,1-.784.533h0A.935.935,0,0,1,131.426,94.8Zm16.65-1.2a.743.743,0,0,1,.406-1.019h0a.835.835,0,0,1,1.086.379h0a.745.745,0,0,1-.406,1.019h0a.868.868,0,0,1-.339.067h0A.821.821,0,0,1,148.077,93.594Zm-74.623-.087a.758.758,0,0,1-.527-.968h0a.839.839,0,0,1,1.042-.492h0a.758.758,0,0,1,.521.968h0a.812.812,0,0,1-.779.532h0A.922.922,0,0,1,73.454,93.507Zm53.8-.272a.751.751,0,0,1-.395-1.024h0a.846.846,0,0,1,1.092-.369h0a.746.746,0,0,1,.394,1.025h0a.824.824,0,0,1-.745.441h0A.907.907,0,0,1,127.253,93.235ZM151.981,91.7a.738.738,0,0,1,.241-1.06h0a.866.866,0,0,1,1.141.225h0a.74.74,0,0,1-.247,1.066h0a.865.865,0,0,1-.444.123h0A.835.835,0,0,1,151.981,91.7Zm99.5-.712a.792.792,0,0,1,.817-.774h0a.8.8,0,0,1,.828.763h0a.8.8,0,0,1-.823.774h0A.8.8,0,0,1,251.481,90.992Zm-128.187.3a.737.737,0,0,1-.3-1.05h0a.845.845,0,0,1,1.118-.282h0a.744.744,0,0,1,.307,1.05h0a.837.837,0,0,1-.713.384h0A.9.9,0,0,1,123.294,91.294ZM74.989,89.655a.747.747,0,0,1-.389-1.024h0a.847.847,0,0,1,1.1-.364h0a.749.749,0,0,1,.389,1.024h0a.833.833,0,0,1-.746.435h0A.827.827,0,0,1,74.989,89.655Zm80.59-.312a.737.737,0,0,1,.11-1.086h0a.866.866,0,0,1,1.157.1h0a.736.736,0,0,1-.1,1.081h0a.859.859,0,0,1-.527.179h0A.868.868,0,0,1,155.579,89.343ZM119.5,89.128h0a.739.739,0,0,1-.252-1.06h0a.86.86,0,0,1,1.141-.231h0a.74.74,0,0,1,.247,1.06h0a.836.836,0,0,1-.691.353h0A.819.819,0,0,1,119.5,89.128Zm132.974-1.48a.782.782,0,0,1-.718-.85h0a.811.811,0,0,1,.916-.671h0a.775.775,0,0,1,.718.85h0a.8.8,0,0,1-.811.681h0A.719.719,0,0,1,252.478,87.648Zm-136.666-.789h0a.736.736,0,0,1-.224-1.065h0a.857.857,0,0,1,1.14-.21h0a.736.736,0,0,1,.225,1.065h0a.843.843,0,0,1-.686.343h0A.836.836,0,0,1,115.813,86.859Zm43.068-.236a.738.738,0,0,1-.006-1.091h0a.864.864,0,0,1,1.162,0h0a.732.732,0,0,1,.005,1.085h0a.862.862,0,0,1-.587.225h0A.839.839,0,0,1,158.881,86.623Zm-81.813-.594a.735.735,0,0,1-.213-1.066h0a.857.857,0,0,1,1.146-.2h0a.739.739,0,0,1,.208,1.071h0a.845.845,0,0,1-.68.333h0A.854.854,0,0,1,77.067,86.029Zm35.088-1.424a.74.74,0,0,1-.252-1.06h0a.862.862,0,0,1,1.141-.236h0a.738.738,0,0,1,.247,1.06h0a.829.829,0,0,1-.691.353h0A.86.86,0,0,1,112.155,84.605Zm49.753-.968a.73.73,0,0,1-.082-1.081h0v-.005h0a.865.865,0,0,1,1.162-.072h0a.735.735,0,0,1,.077,1.086l.005-.006a.86.86,0,0,1-.625.266h0A.833.833,0,0,1,161.908,83.638Zm91.2-.057a.775.775,0,0,1-.664-.891h0a.817.817,0,0,1,.954-.62h0a.767.767,0,0,1,.664.891h0a.808.808,0,0,1-.806.63h0A.713.713,0,0,1,253.11,83.581Zm-173.355-.8a.734.734,0,0,1,.011-1.086h0a.866.866,0,0,1,1.163.005h0a.737.737,0,0,1-.005,1.086h0a.863.863,0,0,1-.581.22h0A.857.857,0,0,1,79.755,82.782Zm28.666-.261h0a.745.745,0,0,1-.318-1.045h0a.852.852,0,0,1,1.118-.3h0v0h0a.739.739,0,0,1,.318,1.04h0a.824.824,0,0,1-.719.4h0A.92.92,0,0,1,108.42,82.521ZM104.554,80.7a.745.745,0,0,1-.411-1.014h0a.845.845,0,0,1,1.086-.389h0a.748.748,0,0,1,.411,1.019h0a.833.833,0,0,1-.751.451h0A.866.866,0,0,1,104.554,80.7Zm60.194-.195a.744.744,0,0,1-.126-1.086h0a.866.866,0,0,1,1.157-.112h0a.732.732,0,0,1,.126,1.08h0a.844.844,0,0,1-.642.287h0A.87.87,0,0,1,164.748,80.5Zm-81.654-.394a.738.738,0,0,1,.274-1.055h0a.86.86,0,0,1,1.13.256h0a.739.739,0,0,1-.274,1.055h0a.876.876,0,0,1-.428.113h0A.822.822,0,0,1,83.095,80.108ZM253.91,79.54a.78.78,0,0,1-.669-.891h0a.826.826,0,0,1,.954-.625h0a.776.776,0,0,1,.669.891h0a.809.809,0,0,1-.811.635h0A1.336,1.336,0,0,1,253.91,79.54ZM100.54,79.248A.766.766,0,0,1,100,78.28h0a.837.837,0,0,1,1.036-.5h0a.756.756,0,0,1,.532.963h0a.817.817,0,0,1-.784.538h0A.823.823,0,0,1,100.54,79.248ZM87.016,78.26a.755.755,0,0,1,.548-.958h0a.836.836,0,0,1,1.026.512h0a.76.76,0,0,1-.554.958h0a.751.751,0,0,1-.236.036h0A.813.813,0,0,1,87.016,78.26Zm9.372.061a.782.782,0,0,1-.691-.876h0a.814.814,0,0,1,.938-.64h0V76.8h0a.786.786,0,0,1,.691.881h0a.808.808,0,0,1-.811.651h0A1.046,1.046,0,0,1,96.388,78.321ZM91.3,77.378a.785.785,0,0,1,.778-.8h0a.8.8,0,0,1,.867.727h0a.792.792,0,0,1-.778.8h-.044A.8.8,0,0,1,91.3,77.378Zm76.186-.092a.733.733,0,0,1-.132-1.08h0a.86.86,0,0,1,1.152-.128h0a.738.738,0,0,1,.137,1.08h0a.843.843,0,0,1-.647.292h0A.861.861,0,0,1,167.49,77.286Zm87.128-1.808a.782.782,0,0,1-.724-.85h0a.817.817,0,0,1,.911-.676h0a.781.781,0,0,1,.723.855h0a.8.8,0,0,1-.811.676h0A.633.633,0,0,1,254.618,75.478ZM170.232,74.07a.733.733,0,0,1-.115-1.08h0a.855.855,0,0,1,1.157-.108h0a.736.736,0,0,1,.115,1.081h0a.856.856,0,0,1-.636.281h0A.876.876,0,0,1,170.232,74.07Zm83.9-3.442a.8.8,0,0,1,.812-.779h0a.8.8,0,0,1,.834.758h0a.793.793,0,0,1-.811.778h-.012A.8.8,0,0,1,254.134,70.628Zm-81.072.292a.73.73,0,0,1-.06-1.086h0a.858.858,0,0,1,1.157-.056h0a.734.734,0,0,1,.066,1.086h0a.852.852,0,0,1-.614.251h0A.832.832,0,0,1,173.062,70.92Zm3.005-3a.728.728,0,0,1,.011-1.086h0a.859.859,0,0,1,1.163,0h0a.733.733,0,0,1-.011,1.086v.005a.859.859,0,0,1-.576.215h0A.862.862,0,0,1,176.068,67.919ZM253.7,66.695a.771.771,0,0,1,.636-.912h0a.826.826,0,0,1,.976.594h0a.773.773,0,0,1-.636.911h0a1.007,1.007,0,0,1-.17.015h0A.815.815,0,0,1,253.7,66.695Zm-74.437-1.6a.736.736,0,0,1,.082-1.086h0a.866.866,0,0,1,1.163.077h0a.739.739,0,0,1-.082,1.085h0a.862.862,0,0,1-.538.184h0A.857.857,0,0,1,179.26,65.091Zm73.131-2.141h0a.745.745,0,0,1,.417-1.014h0a.849.849,0,0,1,1.086.384h0a.745.745,0,0,1-.417,1.014h0a.853.853,0,0,1-.335.072h0A.838.838,0,0,1,252.391,62.95Zm-69.759-.5a.734.734,0,0,1,.154-1.075h0a.861.861,0,0,1,1.152.138h0a.739.739,0,0,1-.148,1.08h0a.86.86,0,0,1-.5.159h0A.84.84,0,0,1,182.632,62.448Zm3.537-2.443a.741.741,0,0,1,.219-1.07h0a.857.857,0,0,1,1.141.2h0a.733.733,0,0,1-.215,1.065h0a.855.855,0,0,1-.466.133h0A.845.845,0,0,1,186.17,60.005Zm64.115-.487a.742.742,0,0,1,.2-1.07h0a.856.856,0,0,1,1.146.184h0a.736.736,0,0,1-.2,1.071h0a.874.874,0,0,1-.472.138h0A.855.855,0,0,1,250.285,59.519Zm-60.43-1.762a.745.745,0,0,1,.286-1.055h0a.862.862,0,0,1,1.129.266h0a.746.746,0,0,1-.285,1.055h0a.889.889,0,0,1-.422.108h0A.837.837,0,0,1,189.855,57.757Zm57.678-1.265a.733.733,0,0,1-.006-1.086h0a.866.866,0,0,1,1.163-.005h0a.729.729,0,0,1,.005,1.086h0a.835.835,0,0,1-.581.225h0A.851.851,0,0,1,247.532,56.492Zm-53.855-.774a.747.747,0,0,1,.351-1.039h0v0h0a.848.848,0,0,1,1.108.323h0a.747.747,0,0,1-.351,1.04h0a.906.906,0,0,1-.379.087h0A.838.838,0,0,1,193.677,55.718Zm3.943-1.828a.748.748,0,0,1,.417-1.014h0a.855.855,0,0,1,1.085.389h0a.746.746,0,0,1-.417,1.014h0a.847.847,0,0,1-.335.067h0A.829.829,0,0,1,197.62,53.89Zm46.649.036h0a.738.738,0,0,1-.193-1.071h0a.864.864,0,0,1,1.152-.179h0a.732.732,0,0,1,.186,1.071h0a.836.836,0,0,1-.669.323h0A.86.86,0,0,1,244.269,53.926Zm-42.6-1.639a.755.755,0,0,1,.477-.989h0a.844.844,0,0,1,1.064.451h0a.753.753,0,0,1-.482.988h0a.931.931,0,0,1-.291.046h0A.827.827,0,0,1,201.673,52.287Zm38.943-.425h0a.746.746,0,0,1-.368-1.03h0a.858.858,0,0,1,1.108-.343h0a.739.739,0,0,1,.362,1.03h0a.823.823,0,0,1-.735.425h0A.834.834,0,0,1,240.616,51.862Zm-34.8-.948a.766.766,0,0,1,.543-.963h0a.841.841,0,0,1,1.031.507h0a.762.762,0,0,1-.543.963h0a.82.82,0,0,1-.247.036h0A.822.822,0,0,1,205.819,50.914Zm30.844-.574a.755.755,0,0,1-.527-.968h0a.839.839,0,0,1,1.042-.492h0a.762.762,0,0,1,.521.973h0a.819.819,0,0,1-.779.527h0A.879.879,0,0,1,236.663,50.34Zm-26.615-.564a.766.766,0,0,1,.609-.927h0a.823.823,0,0,1,.992.564h0a.77.77,0,0,1-.608.927h0a.789.789,0,0,1-.193.02h0A.817.817,0,0,1,210.048,49.777Zm4.3-.9a.773.773,0,0,1,.664-.891h0a.823.823,0,0,1,.954.625h0a.781.781,0,0,1-.669.891h0a1.239,1.239,0,0,1-.143.01h0A.8.8,0,0,1,214.347,48.881Zm18.158.456a.774.774,0,0,1-.653-.9h0a.83.83,0,0,1,.965-.61h0a.78.78,0,0,1,.653.9h0a.815.815,0,0,1-.812.625h0A.824.824,0,0,1,232.505,49.337ZM218.69,48.251a.785.785,0,0,1,.736-.84h0a.808.808,0,0,1,.9.681h0a.786.786,0,0,1-.735.845h0a.471.471,0,0,1-.088.005h0A.815.815,0,0,1,218.69,48.251Zm9.548.553V48.8a.78.78,0,0,1-.757-.825h0a.8.8,0,0,1,.883-.7h0a.784.784,0,0,1,.757.824h0a.805.805,0,0,1-.823.707h-.06Zm-5.161-.87a.8.8,0,0,1,.812-.784h0a.793.793,0,0,1,.833.752h0a.79.79,0,0,1-.806.784h-.01A.8.8,0,0,1,223.078,47.934Z" transform="translate(-65.352 -47.15)"/><g transform="translate(187.351 200.565)"><path class="f" d="M373.562,401.078a.858.858,0,0,1-.313-.06.891.891,0,0,1-.269-.181.834.834,0,0,1-.241-.581.825.825,0,0,1,.241-.581.849.849,0,0,1,1.163,0,.823.823,0,0,1,.241.581.824.824,0,0,1-.823.823Z" transform="translate(-372.739 -399.443)"/></g></g><path class="g" d="M69.767,277.722h204.02c-1.091-5.344-2.083-10.694-.352-15.732,3.223-9.382,14.882-14.628,17.976-24.047,2.757-8.393-2.161-17.216-7.624-24.376s-11.9-14.416-12.656-23.161c-.644-7.471,3.044-14.658,7.247-21.058s9.088-12.592,11.285-19.8,1.021-15.95-5.281-20.636c-7.5-5.577-18.39-3.317-27.73-1.219s-20.855,3.132-26.976-3.744c-3.918-4.4-4.168-10.642-6.728-15.832-5.109-10.36-19.238-14.952-31.261-12.652s-22.039,10.063-29.92,18.8S147.615,132.9,139.7,141.608c-6.7,7.372-16.435,14.336-26.538,12.079-9.06-2.024-15.149-10.921-24.362-12.22-6.6-.931-13.284,2.52-17.241,7.507S66,160.241,65.4,166.41a64.75,64.75,0,0,0,13.451,45.566c5.342,6.885,12.5,15,8.811,22.766-4.757,10.011-23.461,9.1-27.127,19.5-1.43,4.057.125,8.477,2.072,12.344A64.418,64.418,0,0,0,69.767,277.722Z" transform="translate(-59.981 -65.789)"/><g transform="translate(172.499 27.647)"><path class="h" d="M370.341,221.786c-9.03-8.694-7-23.983-13.8-34.51a12.278,12.278,0,0,0-4.811-4.61,6.387,6.387,0,0,0-6.418.336c-2.171,1.607-2.694,4.737-2.056,7.362s2.2,4.91,3.56,7.243c4.863,8.331,7.433,18.224,5.915,27.75-1.62,10.16-7.692,19.3-8.621,29.547-.641,7.077,1.262,14.218,4.453,20.569s7.627,11.988,12.3,17.346c-2.178-5.692-1.508-12.382-.157-18.325a60.735,60.735,0,0,1,7.065-16.785c3.345-5.772,7.244-11.381,8.9-17.844S375.146,226.414,370.341,221.786Z" transform="translate(-342.999 -141.599)"/><path class="i" d="M370.341,221.786c-9.03-8.694-7-23.983-13.8-34.51a12.278,12.278,0,0,0-4.811-4.61,6.387,6.387,0,0,0-6.418.336c-2.171,1.607-2.694,4.737-2.056,7.362s2.2,4.91,3.56,7.243c4.863,8.331,7.433,18.224,5.915,27.75-1.62,10.16-7.692,19.3-8.621,29.547-.641,7.077,1.262,14.218,4.453,20.569s7.627,11.988,12.3,17.346c-2.178-5.692-1.508-12.382-.157-18.325a60.735,60.735,0,0,1,7.065-16.785c3.345-5.772,7.244-11.381,8.9-17.844S375.146,226.414,370.341,221.786Z" transform="translate(-342.999 -141.599)"/><path class="i" d="M364.838,229.829c-.442,7.6-4.124,15.07-8.231,21.677-4.2,6.763-9.019,13.418-11.715,20.815-.055.424-.116.847-.155,1.274-.641,7.077,1.262,14.218,4.453,20.569s7.627,11.988,12.3,17.346c-2.178-5.691-1.508-12.382-.157-18.325a60.733,60.733,0,0,1,7.065-16.785c3.345-5.772,7.244-11.381,8.9-17.844s-1.515-13.452-6.32-18.08A24.823,24.823,0,0,1,364.838,229.829Z" transform="translate(-343.63 -160.289)"/><g transform="translate(4.93)"><path class="h" d="M383.472,274.869a182.49,182.49,0,0,1-1.653-44.239c.695-8.213,2.08-16.721,6.845-23.445,3.514-4.958,8.707-8.7,11.468-14.109,4.869-9.544,1.04-21.916,6.344-31.225,1.909-3.349,5.63-6.232,9.367-5.282,3.834.975,5.694,5.456,5.733,9.411.112,11.313-9.509,20.5-11.439,31.652s4.056,22.022,5.257,33.258c1.03,9.637-1.529,19.4-5.787,28.106s-10.159,16.495-16.187,24.085C388.682,282.317,384.233,279.61,383.472,274.869Z" transform="translate(-362.836 -131.61)"/><path class="i" d="M383.472,274.869a182.49,182.49,0,0,1-1.653-44.239c.695-8.213,2.08-16.721,6.845-23.445,3.514-4.958,8.707-8.7,11.468-14.109,4.869-9.544,1.04-21.916,6.344-31.225,1.909-3.349,5.63-6.232,9.367-5.282,3.834.975,5.694,5.456,5.733,9.411.112,11.313-9.509,20.5-11.439,31.652s4.056,22.022,5.257,33.258c1.03,9.637-1.529,19.4-5.787,28.106s-10.159,16.495-16.187,24.085C388.682,282.317,384.233,279.61,383.472,274.869Z" transform="translate(-362.836 -131.61)"/><path class="i" d="M399.676,217.954c-2.848,4.971-7.68,8.575-11.011,13.274-4.766,6.724-6.15,15.232-6.845,23.445a182.514,182.514,0,0,0,.55,36.209,114.229,114.229,0,0,0,7.081,15.077,16.187,16.187,0,0,0,3.971,1.167c1.746-2.2,3.48-4.415,5.168-6.665,5.654-10.179,10.135-20.979,11.353-32.484C411.754,250.86,406.209,234.026,399.676,217.954Z" transform="translate(-362.836 -155.652)"/><path class="j" d="M364.834,266.48c-9.561-3.815-14.291-15.171-13.7-25.448s5.343-19.786,9.868-29.033,9.011-18.949,9.018-29.242c.008-11.582-5.662-22.453-6.82-33.978a44.383,44.383,0,0,1,5.356-25.863c1.729-3.1,4.14-6.2,7.6-7,5.041-1.158,9.952,3.377,11.187,8.4s-.163,10.272-1.471,15.276c-2.32,8.88-4.394,18.02-3.541,27.158.986,10.549,5.787,20.31,8.691,30.5a87.631,87.631,0,0,1-12.24,73.088C373.981,269.195,369.422,268.31,364.834,266.48Z" transform="translate(-351.088 -115.735)"/><path class="k" d="M397.7,213.629a1.1,1.1,0,0,0-1.453.543,42.362,42.362,0,0,1-9.757,13.471c.246-.987.478-1.978.672-2.976,2.26-11.621.586-23.374-1.35-33.338q-.241-1.24-.5-2.485a65.873,65.873,0,0,0,4.185-7.8,1.1,1.1,0,0,0-2-.9c-.852,1.886-1.808,3.737-2.845,5.536-.248-1.173-.5-2.341-.744-3.492a187.609,187.609,0,0,1-3.982-23.347,72.459,72.459,0,0,1-.012-12.7c3.329-2.977,6.564-6.131,9.615-9.387a1.1,1.1,0,0,0-1.6-1.5c-2.434,2.6-4.988,5.127-7.612,7.554a44.645,44.645,0,0,1,5.144-15.49,1.1,1.1,0,0,0-1.908-1.082c-4.5,7.93-6.513,17.756-6.029,29.238a49.273,49.273,0,0,0-5.72-6.037,1.1,1.1,0,1,0-1.458,1.639,47.062,47.062,0,0,1,7.43,8.4.106.106,0,0,0,.011.012,192.921,192.921,0,0,0,3.977,23.161c.639,2.981,1.3,6.064,1.889,9.1a111.849,111.849,0,0,1,2.386,20.674,55.335,55.335,0,0,0-8.608-12.619,1.1,1.1,0,1,0-1.624,1.474,53.179,53.179,0,0,1,10.007,15.983,1.144,1.144,0,0,0,.071.121,56.326,56.326,0,0,1-.883,6.868,62.634,62.634,0,0,1-1.536,6.1,1.112,1.112,0,0,0-.1.336c-1.088,3.561-2.417,7.065-3.719,10.494-.717,1.891-1.453,3.842-2.147,5.784a123.9,123.9,0,0,1-9.2-22.25,1.1,1.1,0,0,0-2.1.636,126,126,0,0,0,10.329,24.433c-2.122,6.435-4.023,14.362-2.814,22.244a1.1,1.1,0,1,0,2.168-.332c-1.287-8.395,1.206-16.993,3.522-23.546.731-2.068,1.526-4.164,2.295-6.191,1.3-3.435,2.632-6.942,3.733-10.527a44.544,44.544,0,0,0,12.8-16.346A1.1,1.1,0,0,0,397.7,213.629Z" transform="translate(-356.972 -119.617)"/></g><path class="l" d="M389.758,362.135c-4.75.264-9.592.74-14.383.959-4.792-.219-9.633-.695-14.383-.959a56.735,56.735,0,0,0,8.222,34.014h12.321A56.741,56.741,0,0,0,389.758,362.135Z" transform="translate(-349.959 -211.955)"/><path class="k" d="M389.759,362.135c-4.75.264-9.592.74-14.383.959-4.792-.219-9.633-.695-14.383-.959a55.793,55.793,0,0,0,.215,10.9l28.708-7.711Q389.883,363.726,389.759,362.135Z" transform="translate(-349.959 -211.955)"/><rect class="l" width="33.853" height="5.853" transform="translate(8.49 146.871)"/><rect class="m" width="33.853" height="5.853" transform="translate(8.49 146.871)"/></g><g transform="translate(45.749 29.921)"><rect class="f" width="140.724" height="182.012" rx="18.024" transform="translate(0 0)"/><g class="n" transform="translate(0)"><path class="o" d="M278.462,190.262,141.949,326.775a10.929,10.929,0,0,0,6.775,2.35h18.445L278.462,217.831Z" transform="translate(-137.739 -147.113)"/><path class="o" d="M135.041,289.816,275.765,149.092v-18.64a10.985,10.985,0,0,0-10.985-10.986H250.251l-115.21,115.21Z" transform="translate(-135.041 -119.467)"/></g><path class="o" d="M266.536,123.966H237.515v3.165a3.7,3.7,0,0,1-3.7,3.7H180.5a3.7,3.7,0,0,1-3.7-3.7v-3.165H147.783a8.253,8.253,0,0,0-8.243,8.243V292.25a8.252,8.252,0,0,0,8.243,8.243H266.536a8.252,8.252,0,0,0,8.243-8.243V132.209A8.253,8.253,0,0,0,266.536,123.966Z" transform="translate(-136.798 -121.224)"/><path class="i" d="M250.978,126.765a1.375,1.375,0,1,1-1.375-1.375A1.375,1.375,0,0,1,250.978,126.765Z" transform="translate(-179.241 -121.78)"/><path class="i" d="M228.306,126.765a1.375,1.375,0,1,1-1.375-1.375A1.375,1.375,0,0,1,228.306,126.765Z" transform="translate(-170.387 -121.78)"/><path class="i" d="M273.649,126.765a1.375,1.375,0,1,1-1.375-1.375A1.375,1.375,0,0,1,273.649,126.765Z" transform="translate(-188.094 -121.78)"/><g transform="translate(9.787 25.205)"><g class="n"><path d="M167.737,184.546h-9.551a7.1,7.1,0,0,1-7.088-7.088v-9.551a7.1,7.1,0,0,1,7.088-7.088h9.551a7.1,7.1,0,0,1,7.088,7.088v9.551A7.1,7.1,0,0,1,167.737,184.546Zm-9.551-18.791a2.155,2.155,0,0,0-2.152,2.152v9.551a2.155,2.155,0,0,0,2.152,2.152h9.551a2.155,2.155,0,0,0,2.152-2.152v-9.551a2.155,2.155,0,0,0-2.152-2.152Z" transform="translate(-151.098 -160.82)"/></g><g transform="translate(28.976 1.195)"><path class="k" d="M284.876,167.109H201.12a2.165,2.165,0,0,1-2.165-2.164h0a2.165,2.165,0,0,1,2.165-2.164h83.756a2.165,2.165,0,0,1,2.165,2.164h0A2.165,2.165,0,0,1,284.876,167.109Z" transform="translate(-198.762 -162.78)"/><rect class="k" width="88.086" height="4.329" rx="2.165" transform="translate(0 8.658)"/><path class="k" d="M241.723,195.519h-40.6a2.165,2.165,0,0,1-2.165-2.164h0a2.165,2.165,0,0,1,2.165-2.165h40.6a2.165,2.165,0,0,1,2.164,2.165h0A2.164,2.164,0,0,1,241.723,195.519Z" transform="translate(-198.762 -173.874)"/></g></g><g transform="translate(9.787 60.274)"><g class="n"><path d="M167.737,242.086h-9.551A7.1,7.1,0,0,1,151.1,235v-9.55a7.1,7.1,0,0,1,7.088-7.088h9.551a7.1,7.1,0,0,1,7.088,7.088V235A7.1,7.1,0,0,1,167.737,242.086Zm-9.551-18.791a2.155,2.155,0,0,0-2.152,2.153V235a2.155,2.155,0,0,0,2.152,2.153h9.551A2.155,2.155,0,0,0,169.889,235v-9.55a2.155,2.155,0,0,0-2.152-2.153Z" transform="translate(-151.098 -218.359)"/></g><g transform="translate(28.975 1.195)"><path class="k" d="M284.876,224.648H201.12a2.165,2.165,0,0,1-2.165-2.165h0a2.165,2.165,0,0,1,2.165-2.164h83.756a2.165,2.165,0,0,1,2.165,2.164h0A2.165,2.165,0,0,1,284.876,224.648Z" transform="translate(-198.762 -220.319)"/><path class="k" d="M284.56,238.853H200.8a2.165,2.165,0,0,1-2.165-2.164h0a2.165,2.165,0,0,1,2.165-2.165H284.56a2.165,2.165,0,0,1,2.164,2.165h0A2.164,2.164,0,0,1,284.56,238.853Z" transform="translate(-198.638 -225.866)"/><rect class="k" width="44.932" height="4.329" rx="2.165" transform="translate(0.193 17.316)"/></g></g><g transform="translate(9.787 95.345)"><g class="n"><path d="M167.737,299.625h-9.551a7.1,7.1,0,0,1-7.088-7.088v-9.551a7.1,7.1,0,0,1,7.088-7.088h9.551a7.1,7.1,0,0,1,7.088,7.088v9.551A7.1,7.1,0,0,1,167.737,299.625Zm-9.551-18.791a2.155,2.155,0,0,0-2.152,2.152v9.551a2.155,2.155,0,0,0,2.152,2.152h9.551a2.155,2.155,0,0,0,2.152-2.152v-9.551a2.155,2.155,0,0,0-2.152-2.152Z" transform="translate(-151.098 -275.899)"/></g><g transform="translate(28.975 1.194)"><path class="k" d="M284.876,282.187H201.12a2.165,2.165,0,0,1-2.165-2.164h0a2.165,2.165,0,0,1,2.165-2.165h83.756a2.165,2.165,0,0,1,2.165,2.165h0A2.165,2.165,0,0,1,284.876,282.187Z" transform="translate(-198.762 -277.858)"/><path class="k" d="M284.56,296.393H200.8a2.165,2.165,0,0,1-2.165-2.165h0a2.165,2.165,0,0,1,2.165-2.164H284.56a2.164,2.164,0,0,1,2.164,2.164h0A2.165,2.165,0,0,1,284.56,296.393Z" transform="translate(-198.638 -283.405)"/><path class="k" d="M241.723,310.6h-40.6a2.165,2.165,0,0,1-2.165-2.164h0a2.165,2.165,0,0,1,2.165-2.165h40.6a2.165,2.165,0,0,1,2.164,2.165h0A2.164,2.164,0,0,1,241.723,310.6Z" transform="translate(-198.762 -288.953)"/></g></g><g transform="translate(9.787 130.415)"><g class="n"><path d="M167.737,357.165h-9.551a7.1,7.1,0,0,1-7.088-7.088v-9.55a7.1,7.1,0,0,1,7.088-7.088h9.551a7.1,7.1,0,0,1,7.088,7.088v9.55A7.1,7.1,0,0,1,167.737,357.165Zm-9.551-18.791a2.155,2.155,0,0,0-2.152,2.153v9.55a2.155,2.155,0,0,0,2.152,2.153h9.551a2.155,2.155,0,0,0,2.152-2.153v-9.55a2.155,2.155,0,0,0-2.152-2.153Z" transform="translate(-151.098 -333.438)"/></g><g transform="translate(28.976 1.195)"><path class="k" d="M284.876,339.727H201.12a2.165,2.165,0,0,1-2.165-2.165h0a2.165,2.165,0,0,1,2.165-2.164h83.756a2.165,2.165,0,0,1,2.165,2.164h0A2.165,2.165,0,0,1,284.876,339.727Z" transform="translate(-198.762 -335.398)"/><rect class="k" width="88.086" height="4.329" rx="2.165" transform="translate(0 8.658)"/><rect class="k" width="44.932" height="4.329" rx="2.165" transform="translate(0.193 17.316)"/></g></g><g transform="translate(10.703 6.36)"><circle class="p" cx="1.337" cy="1.337" r="1.337"/><circle class="p" cx="1.337" cy="1.337" r="1.337" transform="translate(4.805)"/><circle class="p" cx="1.337" cy="1.337" r="1.337" transform="translate(9.61)"/><circle class="p" cx="1.337" cy="1.337" r="1.337" transform="translate(14.415)"/><circle class="p" cx="1.337" cy="1.337" r="1.337" transform="translate(19.22)"/></g><g transform="translate(105.296 5.423)"><rect class="p" width="7.807" height="4.315"/><rect class="p" width="1.089" height="2.327" transform="translate(8.896 3.321) rotate(180)"/></g><text class="q" transform="translate(118.224 6.767)"><tspan x="0" y="0">100%</tspan></text><path class="r" d="M181.094,209.131c-5.472,4.971-11.157,10.581-16.146,16.037A42.563,42.563,0,0,1,160.7,218.6l-6.561,1.637a65.1,65.1,0,0,0,11.106,11.189C170.545,224.267,175.8,216.291,181.094,209.131Z" transform="translate(-142.5 -154.481)"/><path class="r" d="M181.094,266.671c-5.472,4.97-11.157,10.581-16.146,16.037a42.566,42.566,0,0,1-4.245-6.568l-6.561,1.638a65.1,65.1,0,0,0,11.106,11.189C170.545,281.807,175.8,273.831,181.094,266.671Z" transform="translate(-142.5 -176.951)"/><path class="r" d="M181.094,324.21c-5.472,4.971-11.157,10.581-16.146,16.037a42.564,42.564,0,0,1-4.245-6.567l-6.561,1.637a65.1,65.1,0,0,0,11.106,11.189C170.545,339.346,175.8,331.37,181.094,324.21Z" transform="translate(-142.5 -199.42)"/></g><path class="r" d="M174.582,132.1c-3.728,6.384-7.468,13.441-10.59,20.143a42.638,42.638,0,0,1-6.019-4.991l-5.768,3.53a65.126,65.126,0,0,0,13.952,7.341C169.06,149.7,171.679,140.515,174.582,132.1Z" transform="translate(-95.994 -83.985)"/><g transform="translate(7.195 56.32)"><path class="p" d="M78.4,400.679l2.511-5.979,4.764,2.774-3.961,5.134Z" transform="translate(-74.37 -253.345)"/><path class="p" d="M124.71,406.263l-1.176-7.523h7.726l-1.176,7.523Z" transform="translate(-91.993 -254.923)"/><path class="p" d="M76.918,289.07c.739,2.072,1.477,4.365.681,6.416.58,1.092-.183,2.809-1.176,3.547a2.7,2.7,0,0,1-3.4-.238,4.22,4.22,0,0,1-1.039-2.614A10.457,10.457,0,0,1,74,288.91c-.026-.648.316-1.374.964-1.41S76.7,288.459,76.918,289.07Z" transform="translate(-71.843 -211.483)"/><path class="r" d="M105.479,188.22a4.851,4.851,0,0,1-.135-4.792,11.261,11.261,0,0,1,3.3-3.733,31.316,31.316,0,0,0,3.831-3.244,10.949,10.949,0,0,0,2.738-8.445,5.67,5.67,0,0,0-1.917-3.973c-1.88-1.429-4.724-.755-6.473.831s-2.688,3.851-3.664,6-2.13,4.363-4.115,5.643c-1.221.787-2.672,1.16-3.9,1.944a6.957,6.957,0,0,0-2.653,8.106,4.026,4.026,0,0,0-.741,4.327,6.645,6.645,0,0,0,3.226,3.18,10.273,10.273,0,0,0,8.533.283,4.134,4.134,0,0,1,.867-4.344C104.918,189.551,105.531,188.918,105.479,188.22Z" transform="translate(-79.46 -162.963)"/><path class="p" d="M158.482,170.154a2.994,2.994,0,0,1,.741-3.9A3.021,3.021,0,0,1,161.4,162.8a2.049,2.049,0,0,1,2.235,1.24,2.855,2.855,0,0,1-.1,1.6,13.441,13.441,0,0,1-3.359,5.8A5.551,5.551,0,0,1,158.482,170.154Z" transform="translate(-105.475 -162.78)"/><path class="l" d="M78.454,264.8a45.782,45.782,0,0,1,13.471-26.743c1.9-1.836,3.969-3.512,5.7-5.512A12.9,12.9,0,0,0,101,225.512a5.946,5.946,0,0,0-.791-3.806,3.584,3.584,0,0,0-3.356-1.683c-4.054.573-7.464,3.576-10.1,6.708A54,54,0,0,0,74.2,262.267,8.826,8.826,0,0,0,78.454,264.8Z" transform="translate(-72.726 -185.123)"/><path class="i" d="M78.454,264.8a45.782,45.782,0,0,1,13.471-26.743c1.9-1.836,3.969-3.512,5.7-5.512A12.9,12.9,0,0,0,101,225.512a5.946,5.946,0,0,0-.791-3.806,3.584,3.584,0,0,0-3.356-1.683c-4.054.573-7.464,3.576-10.1,6.708A54,54,0,0,0,74.2,262.267,8.826,8.826,0,0,0,78.454,264.8Z" transform="translate(-72.726 -185.123)"/><path class="s" d="M107.7,306.354a80.375,80.375,0,0,1-19.913,46.923,11.794,11.794,0,0,1-4.7-3.13c1.954-10.657,9.682-19.929,10.533-30.73.453-5.754-1.053-11.456-1.776-17.182s-2.4-14.33.968-19.013c5.03,2.632,11.157,8.908,14.081,13.775a15.331,15.331,0,0,1,2.119,5.192C109.34,304.041,107.847,304.479,107.7,306.354Z" transform="translate(-76.202 -209.813)"/><path class="m" d="M107.7,306.354a80.375,80.375,0,0,1-19.913,46.923,11.794,11.794,0,0,1-4.7-3.13c1.954-10.657,9.682-19.929,10.533-30.73.453-5.754-1.053-11.456-1.776-17.182s-2.4-14.33.968-19.013c5.03,2.632,11.157,8.908,14.081,13.775a15.331,15.331,0,0,1,2.119,5.192C109.34,304.041,107.847,304.479,107.7,306.354Z" transform="translate(-76.202 -209.813)"/><path class="i" d="M113.948,302.31a15.331,15.331,0,0,0-2.119-5.192c-2.858-4.758-8.777-10.854-13.74-13.584-.234.1-.459.215-.68.327-2.7,4.433-1.531,11.811-.791,17.263q.238.43.484.853c2.77,4.742,6.314,9.023,8.792,13.924a24.356,24.356,0,0,1,2.777,9.933,79.357,79.357,0,0,0,3.964-19.359C112.776,304.6,114.269,304.162,113.948,302.31Z" transform="translate(-81.131 -209.935)"/><path class="s" d="M116.679,282.459a216.165,216.165,0,0,1,5.243,72.264h-7.906c-2.2-8.839-4.188-18.609-4.1-27.717.054-5.638.98-11.39-.452-16.844-1.275-4.858-4.306-9.025-6.823-13.372s-4.611-9.328-3.723-14.271A37.577,37.577,0,0,1,116.679,282.459Z" transform="translate(-82.299 -209.111)"/><path class="i" d="M109.084,281.458c2.6,1.207,5.542,2.4,8.266,3.862-.221-.955-.438-1.91-.672-2.861a37.577,37.577,0,0,0-17.763.061c-.887,4.943,1.207,9.925,3.723,14.271s5.548,8.514,6.823,13.372c1.432,5.454.506,11.206.452,16.844-.087,9.108,1.9,18.877,4.1,27.717H117.7A160.745,160.745,0,0,0,109.084,281.458Z" transform="translate(-82.299 -209.111)"/><path class="i" d="M116.493,286.729c-.1-.468-.2-.938-.31-1.4-.094-.407-.192-.813-.286-1.22-1.85-.561-3.291-1.431-5.517-1.971a27.69,27.69,0,0,0-4.02-.7,38.259,38.259,0,0,0-5.24.429,11.6,11.6,0,0,0-4.325,2.416c-.073.175-.152.347-.216.528l-.015.043q-.159.453-.284.93l-.019.072c-.082.318-.154.642-.215.973l-.009.051a20.773,20.773,0,0,0-.308,3.228c0,.024,0,.048,0,.072-.008.355-.009.713,0,1.073l0,.1q.009.54.035,1.084l0,.065c.037.748.093,1.5.164,2.243l.005.063q.051.534.111,1.062l.015.133q.058.51.121,1.012l.02.159q.061.491.126.972c.009.062.016.123.025.185.026.2.052.388.079.581A31.952,31.952,0,0,0,116.493,286.729Z" transform="translate(-81.132 -209.115)"/><path class="l" d="M92.28,266.078c6.747,1.961,16.565-3.6,23.166-6-.527-6.981-2.1-14.287-2.628-21.268-.57-7.557-1.335-15.625-6.1-21.519-1.933-2.392-6.35-1.018-8.672,1s-3.6,4.967-4.549,7.892C89.784,237.621,89.055,254.485,92.28,266.078Z" transform="translate(-78.99 -183.57)"/><path class="i" d="M116.958,241.026c-.5-6.655-1.159-13.706-4.561-19.32a16.359,16.359,0,0,0-4.1,1.713c-2.614,1.5-4.789,3.9-7.461,5.289a58.682,58.682,0,0,0,16.152,12.646C116.979,241.245,116.966,241.134,116.958,241.026Z" transform="translate(-83.13 -185.791)"/><path class="p" d="M107.548,203.616a59.833,59.833,0,0,0-.906,9.4c1.54.421,3.2,1,4.767.69a51.643,51.643,0,0,0,.45-9.745A9.442,9.442,0,0,0,107.548,203.616Z" transform="translate(-85.397 -178.687)"/><path class="i" d="M107.006,208.889a18.015,18.015,0,0,0,4.825,2.465,52.517,52.517,0,0,0,.192-6.8,4.306,4.306,0,0,0-.6-.733c-.015-.015-.034-.026-.05-.041a9.675,9.675,0,0,0-3.681-.162C107.381,205.363,107.158,207.123,107.006,208.889Z" transform="translate(-85.539 -178.688)"/><path class="p" d="M104.75,193.5a16.488,16.488,0,0,1,7.6,8.857,6.44,6.44,0,0,1-3.786,3.05,7.746,7.746,0,0,1-6.926-1.128A6.4,6.4,0,0,1,99.3,197.8C99.917,195.451,102.612,192.344,104.75,193.5Z" transform="translate(-82.461 -174.679)"/><path class="l" d="M138.547,174.516a91.747,91.747,0,0,1-7.764,20.956c-3.58,6.554-8.52,12.5-14.878,16.415a16.977,16.977,0,0,1-6.434,2.574,8.523,8.523,0,0,1-6.586-1.615c-1.793-1.482-3.936-4.818-2.592-6.717,1.683-2.378,4.677-3.342,7.385-4.416a48.9,48.9,0,0,0,27.575-28.424Z" transform="translate(-82.753 -166.884)"/><path class="r" d="M107.186,193.047a1.21,1.21,0,0,1-.292.938,2.939,2.939,0,0,1-.789.628,10.944,10.944,0,0,1-5.154,1.549,3.861,3.861,0,0,1,.491,3.138c.578.463,1.01,1.063,1.588,1.526a11.141,11.141,0,0,0-1.817-.717,1.012,1.012,0,0,0-1.007.015.689.689,0,0,0-.155.728,1.569,1.569,0,0,0,.461.63,4.616,4.616,0,0,0,2.052,1.084,5.175,5.175,0,0,1,.042,2.287c-2.1-.513-4.676-1.5-5.777-3.364a7.193,7.193,0,0,1-.642-4.263,11.125,11.125,0,0,1,1.867-5.911,5.094,5.094,0,0,1,5.52-1.995C105.127,189.882,106.912,191.417,107.186,193.047Z" transform="translate(-81.293 -173.054)"/><g transform="translate(30.188 143.817)"><rect class="s" width="10.431" height="3.591" rx="1.795"/><rect class="t" width="10.431" height="3.591" rx="1.795"/></g><g transform="translate(3.969 137.819)"><rect class="s" width="10.431" height="3.591" rx="1.795" transform="translate(1.83 0) rotate(30.636)"/><rect class="t" width="10.431" height="3.591" rx="1.795" transform="translate(1.83 0) rotate(30.636)"/></g><path class="s" d="M123.843,411.083l-2.529,4.273h15.95l-8.048-4.273Z" transform="translate(-91.127 -259.743)"/><path class="s" d="M81.076,409.424l-1.944-2.984-3.313-1.929-4.034,1.878,7.681,4.473.739.538,4.721.476Z" transform="translate(-71.785 -257.176)"/></g><path class="i" d="M258.588,405.517h-51.12a1.685,1.685,0,0,1-1.685-1.685h0a1.685,1.685,0,0,1,1.685-1.685h51.12a1.685,1.685,0,0,1,1.685,1.685h0A1.685,1.685,0,0,1,258.588,405.517Z" transform="translate(-116.917 -199.934)"/></g><g class="u" transform="translate(0 0.258)"><circle cx="2.243" cy="2.243" r="2.243" transform="translate(230.075 40.783)"/><path d="M206.152,77.634a1.925,1.925,0,1,1-1.925-1.925A1.925,1.925,0,0,1,206.152,77.634Z" transform="translate(-108.919 -58.561)"/><path d="M110.348,65.2a1.249,1.249,0,1,1-1.249-1.248A1.248,1.248,0,0,1,110.348,65.2Z" transform="translate(-72.036 -53.968)"/><path d="M107.934,136.806a1.362,1.362,0,1,1-1.362-1.362A1.362,1.362,0,0,1,107.934,136.806Z" transform="translate(-71.004 -85.567)"/><path d="M54.42,182.949a2.666,2.666,0,1,1-2.665-2.665A2.666,2.666,0,0,1,54.42,182.949Z" transform="translate(-49.089 -105.025)"/><path d="M319.715,77.825a1.394,1.394,0,1,1-1.393-1.394A1.393,1.393,0,0,1,319.715,77.825Z" transform="translate(-153.681 -58.843)"/><path d="M393.275,80.3h0a3.525,3.525,0,0,0,2.275,2.275h0a3.525,3.525,0,0,0-2.275,2.275h0A3.525,3.525,0,0,0,391,82.574h0a3.525,3.525,0,0,0,2.275-2.275Z" transform="translate(-182.607 -60.353)"/><path d="M443.785,382.682h0a3.526,3.526,0,0,0,2.275,2.275h0a3.527,3.527,0,0,0-2.275,2.275h0a3.529,3.529,0,0,0-2.275-2.275h0a3.528,3.528,0,0,0,2.275-2.275Z" transform="translate(-202.331 -192.591)"/><path d="M455.375,210.553h0a3.527,3.527,0,0,0,2.275,2.275h0a3.528,3.528,0,0,0-2.275,2.275h0a3.527,3.527,0,0,0-2.275-2.275h0a3.526,3.526,0,0,0,2.275-2.275Z" transform="translate(-206.857 -118.103)"/><path d="M349.63,100.338h0a3.526,3.526,0,0,0,2.275,2.275h0a3.528,3.528,0,0,0-2.275,2.275h0a3.531,3.531,0,0,0-2.275-2.275h0a3.528,3.528,0,0,0,2.275-2.275Z" transform="translate(-165.563 -68.179)"/><path d="M251.282,47.574h0a3.527,3.527,0,0,0,2.275,2.275h0a3.526,3.526,0,0,0-2.275,2.275h0a3.528,3.528,0,0,0-2.275-2.275h0a3.529,3.529,0,0,0,2.275-2.275Z" transform="translate(-127.158 -47.574)"/><path d="M56.378,85.518h0a3.527,3.527,0,0,0,2.275,2.275h0a3.526,3.526,0,0,0-2.275,2.275h0A3.526,3.526,0,0,0,54.1,87.793h0a3.527,3.527,0,0,0,2.275-2.275Z" transform="translate(-51.047 -62.391)"/><path d="M160.981,75.395h0a3.526,3.526,0,0,0,2.275,2.275h0a3.526,3.526,0,0,0-2.275,2.275h0a3.528,3.528,0,0,0-2.275-2.275h0a3.528,3.528,0,0,0,2.275-2.275Z" transform="translate(-91.895 -58.438)"/><path d="M51.364,261.637h0a3.525,3.525,0,0,0,2.275,2.275h0a3.525,3.525,0,0,0-2.275,2.275h0a3.525,3.525,0,0,0-2.275-2.275h0a3.525,3.525,0,0,0,2.275-2.275Z" transform="translate(-49.089 -140.209)"/></g></g></g></g></g></g></svg>